<svg height="330" viewBox="0 0 230 330" width="230" xmlns="http://www.w3.org/2000/svg" xmlns:xlink="http://www.w3.org/1999/xlink"><linearGradient id="a" x1="-.000359%" x2="100.00017%" y1="50.000028%" y2="50.000028%"><stop offset="0" stop-color="#5e492b"/><stop offset="1" stop-color="#46341a"/></linearGradient><mask id="b" fill="#fff"><path d="m60.3544118.18414384h-.0336471-17.1127647v26.53688356c0 10.080411-12.661 14.8831164-26.7584706 19.6116438-14.10588234 4.723322-15.88982352 13.4965069-15.88982352 13.4965069l11.13588232 32.2967466 96.1684708 2.4953767 12.602765-34.1713699s-2.016236-8.857774-16.122765-13.5830479c-14.0974708-4.7278768-26.8775296-10.0654452-26.8775296-20.1458562v-26.53688356z" fill="#fff" fill-rule="evenodd"/></mask><mask id="c" fill="#fff"><path d="m.00038909.5965176h213.53373891v113.4702974h-213.53373891z" fill="#fff" fill-rule="evenodd"/></mask><mask id="d" fill="#fff"><path d="m.53046061.49541292h12.83156969v27.37318398h-12.83156969z" fill="#fff" fill-rule="evenodd"/></mask><mask id="e" fill="#fff"><path d="m.00239939.61272027h15.96180611v18.83048683h-15.96180611z" fill="#fff" fill-rule="evenodd"/></mask><mask id="f" fill="#fff"><path d="m.39012849.30402695h18.67571511v26.91646305h-18.67571511z" fill="#fff" fill-rule="evenodd"/></mask><mask id="g" fill="#fff"><path d="m.61165091.34582984h7.4387697v22.33791176h-7.4387697z" fill="#fff" fill-rule="evenodd"/></mask><mask id="h" fill="#fff"><path d="m.39654849.49541292h19.66724851v27.37318398h-19.66724851z" fill="#fff" fill-rule="evenodd"/></mask><mask id="i" fill="#fff"><path d="m.17677697.49541292h19.66660003v27.37318398h-19.66660003z" fill="#fff" fill-rule="evenodd"/></mask><mask id="j" fill="#fff"><path d="m.60996485.49541292h19.66724845v27.37318398h-19.66724845z" fill="#fff" fill-rule="evenodd"/></mask><mask id="k" fill="#fff"><path d="m.39531636.49541292h19.66660004v27.37318398h-19.66660004z" fill="#fff" fill-rule="evenodd"/></mask><g fill="none" fill-rule="evenodd" transform="translate(8 39)"><path d="m94.0475775 189.890547s-5.7747899-19.046583-3.5288937-20.660966c2.2458962-1.613074 35.2902382-5.810733 47.4813162-.968237l-.962248 21.629203-37.5361341 17.109453z" fill="#afb1b4"/><path d="m60.3544118.18414384h-.0336471-17.1127647v26.53688356c0 10.080411-12.661 14.8831164-26.7584706 19.6116438-14.10588234 4.723322-15.88982352 13.4965069-15.88982352 13.4965069l11.13588232 32.2967466 96.1684708 2.4953767 12.602765-34.1713699s-2.016236-8.857774-16.122765-13.5830479c-14.0974708-4.7278768-26.8775296-10.0654452-26.8775296-20.1458562v-26.53688356z" fill="url(#a)" mask="url(#b)" transform="translate(54 142)"/><path d="m28.0642194 114.067074 32.4242424-46.9961756s1.5978667 26.0863029 3.0751152 46.9961756h95.8292c1.654933-22.2877479 3.927873-50.630111 3.927873-50.630111l26.809012 50.630111h23.404466c-13.843854-34.2349506-38.387709-94.4816722-41.125612-98.129866-3.837084-5.1135635-35.174466-14.06197548-35.174466-14.06197548l-23.663861 34.51493318-26.2208363-35.7936481s-28.1403515 10.2271269-30.6979757 11.5051938c-1.9065455.9527171-38.2450425 67.8917906-56.65098791 101.9653626z" fill="#1bb24b" mask="url(#c)" transform="translate(0 176.933185)"/><path d="m175.835759 66.6502122c0 48.9722538-17.380043 88.9585058-62.06454 88.9585058-44.6806057 0-61.2078905-40.466499-61.2078905-89.4381049 0-48.9806792 41.581497-54.0514677 61.9620785-54.0514677 20.379285 0 61.310352 5.5497395 61.310352 54.5310668" fill="#5f492c"/><path d="m103.612704 98.0131423c0 6.7260537-5.5224967 12.1818177-12.3244543 12.1818177-6.8071455 0-12.3186182-5.455764-12.3186182-12.1818177 0-6.7260534 5.5114727-12.1792249 12.3186182-12.1792249 6.8019576 0 12.3244543 5.4531715 12.3244543 12.1792249" fill="#90692d"/><path d="m100.442781 98.0106147c0 4.6935903-3.8124428 8.5064033-8.5068246 8.5064033-4.6989212 0-8.5061758-3.812813-8.5061758-8.5064033 0-4.6858129 3.8072546-8.4986258 8.5061758-8.4986258 4.6943818 0 8.5068246 3.8128129 8.5068246 8.4986258" fill="#2a1d01"/><path d="m88.3514564 93.6054969c0 1.3558396-1.1043697 2.4653986-2.4584061 2.4653986-1.3592242 0-2.4635939-1.109559-2.4635939-2.4653986 0-1.3558397 1.1043697-2.4537328 2.4635939-2.4537328 1.3540364 0 2.4584061 1.0978931 2.4584061 2.4537328" fill="#fff"/><path d="m87.0743952 124.979834c8.4316 5.108378 17.4572118 8.263363 26.6053878 8.144759 9.203297 0 18.020097-3.558107 26.787612-8.144759-3.220376 3.794017-7.247467 6.939928-11.814745 9.206358-4.558849 2.302724-9.72014 3.558107-14.926825 3.639181-5.202145.009661-10.4004-1.15045-14.9903753-3.417528-4.5854364-2.230136-8.7266606-5.376047-11.6610545-9.428011" fill="#2a1d01"/><path d="m126.084844 98.0131423c0 6.7260537 5.522497 12.1818177 12.324455 12.1818177 6.807145 0 12.318618-5.455764 12.318618-12.1818177 0-6.7260534-5.511473-12.1792249-12.318618-12.1792249-6.801958 0-12.324455 5.4531715-12.324455 12.1792249" fill="#90692d"/><path d="m129.254768 98.0106147c0 4.6935903 3.812442 8.5064033 8.506824 8.5064033 4.698921 0 8.506176-3.812813 8.506176-8.5064033 0-4.6858129-3.807255-8.4986258-8.506176-8.4986258-4.694382 0-8.506824 3.8128129-8.506824 8.4986258" fill="#2a1d01"/><path d="m129.736333 93.6054969c0 1.3558396 1.104369 2.4653986 2.458406 2.4653986 1.359224 0 2.463594-1.109559 2.463594-2.4653986 0-1.3558397-1.10437-2.4537328-2.463594-2.4537328-1.354037 0-2.458406 1.0978931-2.458406 2.4537328" fill="#fff"/><path d="m90.935863 184.5778s22.064049 19.174891 46.047612 0l-23.452454 28.746134z" fill="#004152"/><path d="m184.591601 64.7647396c0-2.0862561-1.579709-3.7842962-3.605576-4.013726 2.21717-.4510824 3.88637-2.4096615 3.88637-4.7584009 0-2.6825145-2.175667-4.8569131-4.859745-4.8569131-.387794 0-.760025.0576815-1.121879.1425835-.005188-.0233319-.011024-.0466637-.015564-.0699956 2.055697-.5657973 3.575097-2.4284565 3.575097-4.6631291 0-2.6825145-2.175666-4.8562651-4.859745-4.8562651-.11997 0-.232806.0265724-.350831.0343497 1.414346-1.2391804 2.311849-3.0538797 2.311849-5.0818063 0-3.73504-3.029721-6.7629955-6.766939-6.7629955-.881291 0-1.720431.1730445-2.492776.4795991 1.058327-1.0207684 1.718485-2.4504922 1.718485-4.0364098 0-3.1018396-2.516122-5.6158463-5.619122-5.6158463-.485066 0-.953921.0674031-1.402672.1834142.030479-.2495211.05123-.5022828.05123-.7595813 0-3.4200601-2.77357-6.1926614-6.195624-6.1926614-1.388406 0-2.665273.4621002-3.698309 1.2326993.050582-.3182205.084303-.6422739.084303-.9741047 0-3.4207082-2.774218-6.19266144-6.196273-6.19266144-1.44677 0-2.77357.49904232-3.828006 1.32991537-.116727-3.63393541-3.092624-6.54523162-6.756564-6.54523162-2.331303 0-4.387 1.17825835-5.603557 2.97221826-.661455-2.70973497-3.099109-4.72275501-6.0134-4.72275501-1.952588 0-3.691176.90410913-4.826673 2.31438975-1.031739-1.98644766-3.104945-3.34682405-5.4998-3.34682405-1.599812 0-3.053715.61116481-4.152897 1.60730512-.82163-.5444098-1.804085-.86457461-2.863061-.86457461-1.459739 0-2.773569.60597996-3.717115 1.57425167-1.045357-.80235635-2.34946-1.28454788-3.768994-1.28454788-2.9142906 0-5.3519451 2.01302004-6.0127512 4.72275501-1.217206-1.79395991-3.272903-2.97221826-5.604206-2.97221826-3.6639394 0-6.6398364 2.91129621-6.7559152 6.54523162-1.0544364-.83087305-2.3825333-1.32991537-3.8286545-1.32991537-3.4220546 0-6.1962728 2.77195324-6.1962728 6.19266144 0 .3318308.0337212.6558842.0843031.9741047-1.0330364-.7705991-2.3099031-1.2326993-3.6983091-1.2326993-3.4220546 0-6.1956243 2.7726013-6.1956243 6.1926614 0 .2572985.0207515.5100602.0512303.7595813-.4487515-.1160111-.9169575-.1834142-1.4020242-.1834142-3.1036485 0-5.6191212 2.5140067-5.6191212 5.6158463 0 .9877149.2568 1.9151559.704903 2.7214009-.236697-.0434232-.4785818-.072588-.7282485-.072588-2.2431091 0-4.0621091 1.8166437-4.0621091 4.0590936 0 1.491294.8138485 2.7810267 2.012897 3.4868151-.0116727.0207394-.0233455.042127-.0350182.0628664-.4318909-.1561938-.8916666-.2560022-1.3780303-.2560022-2.2431091 0-4.0621091 1.8172917-4.0621091 4.0597416 0 .5716303.1206182 1.1140958.3339697 1.606657-1.8767151.672735-3.2268606 2.4485479-3.2268606 4.5555435 0 2.043481 1.2664909 3.7849443 3.0550121 4.5017505-.0110242.0492561-.0233454.097216-.0337212.1477684-.1938969-.02398-.383903-.0589777-.5836363-.0589777-2.6840788 0-4.8597455 2.1743986-4.8597455 4.8569131 0 2.3487394 1.6685515 4.3073185 3.8863697 4.7584009-2.0258667.2294298-3.6055758 1.9274699-3.6055758 4.013726 0 2.0797751 1.5712788 3.7752228 3.5893637 4.0117818-1.8935758.345441-3.3306182 1.994873-3.3306182 3.9865055 0 2.0635724 1.5472849 3.7499466 3.5426727 4.0065969.0051879.1186036.0129697.2352628.0181576.3525702-1.4603879.4394165-2.5310364 1.7784053-2.5310364 3.3805256 0 1.7576659 1.2827031 3.2055367 2.9609819 3.4868151.0155636.193784.0350181.3849755.0505818.5781114-.7327879.6494031-1.2042364 1.5872138-1.2042364 2.6436281 0 1.3059354.7146303 2.4349376 1.7664727 3.0499911.022697.1996169.0460425.3992338.0700364.5982026-.2937636.4316392-.4656121.9507729-.4656121 1.5120334 0 .806245.3618545 1.5211069.9240909 2.0149644.4455091 3.1698909 7.084697 9.6554963 7.084697 9.6554963s2.3338969-32.624405 6.0892727-36.9557034c.6789636-.7822651 1.2943757-1.5865657 1.8987636-2.3992918 2.2003091-.0499042 3.9706728-1.8399755 3.9706728-4.0506681 0-.0978642-.0220485-.1898954-.0291819-.2864633.7107394.6105167 1.6231576.9922517 2.6328485.9922517 2.2437576 0 4.0627576-1.8179399 4.0627576-4.0597417 0-.5204298-.107-1.0136392-.2853333-1.4705545.2950606.0680512.5998484.1121225.9156606.1121225 1.7288606 0 3.1957333-1.0836348 3.7819636-2.6053898 7.0872909-2.2826325 17.9779455-3.7765189 35.7159514-3.7765189 19.961661 0 31.956036 2.7512138 39.516073 6.717628.337212 1.1017818 1.350794 1.9086749 2.56346 1.9086749.038261 0 .073279-.0090735.110891-.0110178-.014266.1386948-.042151.272853-.042151.4147884 0 2.2424499 1.818351 4.0597416 4.062109 4.0597416.457182 0 .889073-.0926793 1.299564-.2313741.053824.060922.112187.1211959.164715.1827661-.064849.2877595-.105055.5839443-.105055.891147 0 2.0331114 1.499946 3.7026347 3.451885 3.9988196.211406.3869198.416976.7751359.610224 1.1614076 5.449218 10.8927327 3.454479 39.561742 3.454479 39.561742 1.084915-4.362408 7.411533-8.7474993 8.093091-13.438497.870267-.4458976 1.472061-1.3415813 1.472061-2.3863297 0-.7414343-.2996-1.4122249-.784667-1.8989532 1.267139-.5411693 2.155564-1.7965523 2.155564-3.2612739 0-1.2592718-.660158-2.357813-1.649746-2.9871248.005188-.0615701.009079-.1237884.014267-.1860066 1.909139-.0570334 3.442806-1.61249 3.442806-3.5354232 0-1.7693318-1.300861-3.2236837-2.996-3.4907038.002594-.0648107.007133-.1289733.010376-.193784 2.22106-.0252761 4.016066-1.8296057 4.016066-4.0552049 0-1.9916325-1.437691-3.6410645-3.331266-3.9865055 2.018084-.236559 3.589363-1.9320067 3.589363-4.0117818" fill="#2a1d01"/><path d="m193.508916 241.858655-.518788 1.091412 6.99391 14.705546c-2.155564-5.276887-4.335122-10.5959-6.475122-15.796958" fill="#f99d1c"/><path d="m183.156893 222.272411-9.833624 20.677202 9.833624 20.677203 9.833625-20.677203z" fill="#189b41"/><path d="m175.002391 198.058942-1.681521 3.536072 9.833624 20.676554 1.191267-2.504933c-3.861079-9.211543-7.155382-16.903924-9.34337-21.707693" fill="#189b41"/><path d="m153.65427 242.948576 8.113194 17.05947c.879994-11.243358 1.553121-19.638287 1.553121-19.638287l5.91483 11.170123 4.085455-8.591306-9.832976-20.677202z" fill="#f99d1c"/><path d="m160.770872 186.630355-7.116473 14.964788 9.832976 20.676555 9.833624-20.676555-5.695642-11.977663c-1.948697-.976698-4.313721-1.990337-6.854485-2.987125" fill="#f99d1c"/><path d="m143.818116 222.272411-9.833624 20.677202 9.833624 20.677203 9.833625-20.677203z" fill="#189b41"/><path d="m143.818116 180.917616-9.833624 20.677203 9.833624 20.677851 9.833625-20.677851z" fill="#189b41"/><path d="m124.143475 222.272411-9.833624 20.677202 9.833624 20.677203 9.833624-20.677203z" fill="#f99d1c"/><path d="m104.473957 222.272411-9.8336243 20.677202 9.8336243 20.677203 9.833624-20.677203z" fill="#189b41"/><path d="m84.8043739 222.272411-9.8336242 20.677202 9.8336242 20.677203 9.8336243-20.677203z" fill="#f99d1c"/><path d="m84.8043739 180.917616-9.8336242 20.677203 9.8336242 20.677851 9.8336243-20.677851z" fill="#f99d1c"/><path d="m10.1779697 27.8688561 3.1840606-6.6955924-9.83297575-20.67785078-2.99859394 6.30478396c.44875151 6.84854562.94419394 14.23502002 1.42731515 21.06865922z" fill="#189b41" mask="url(#d)" transform="translate(61.606061 263.131403)"/><path d="m74.9682206 242.949808-9.8336242-20.677203-9.8329758 20.677203 2.4130121 5.074029 2.7735697-4.019559s.2782 4.538044.7094424 11.343167l3.9369516 8.278917z" fill="#189b41"/><path d="m55.3014909 201.615299 9.8336243 20.677203 9.8329757-20.677203-7.8972485-16.606443c-1.689303.631256-3.2917091 1.233348-4.7164303 1.775165z" fill="#189b41"/><g fill="#f99d1c"><path d="m46.0723194 264.898726-.6050364-1.272234-3.2884666 6.915301z"/><path d="m45.4672182 222.272411-9.8336243 20.677202 9.8336243 20.677203 9.8336242-20.677203z"/><path d="m45.4681261 222.271763 9.8336242-20.676555-2.8487939-5.989804c-2.6497091 4.528971-6.3661758 11.112441-10.6870303 18.88065z"/></g><path d="m34.4283848 281.775494-8.6306848-18.148937-9.8336242 20.677202 3.184709 6.695593h8.9153697z" fill="#189b41"/><path d="m25.7976352 263.626557 9.8336242-20.676555-4.4330424-9.321721c-3.4376182 6.264601-6.9952061 12.775483-10.5171273 19.239053z" fill="#189b41"/><path d="m12.7801448 19.4434664 3.1840607-6.6955925-5.7708667-12.13515363c-3.72100607 6.8621559-7.19429092 13.28295103-10.19093941 18.83074613z" fill="#f99d1c" mask="url(#e)" transform="translate(0 271.556793)"/><path d="m90.6160303 169.876402c.6394061 7.670346 24.3032667 39.628497 24.3032667 39.628497s23.982267-29.720886 23.023158-40.587047l9.593036 12.463744c0 7.350829-21.424643 45.061577-21.424643 45.061577l-11.511903-14.700361-11.831606 15.340043s-21.7443451-36.752199-21.7443451-46.979974z" fill="#efeff0"/><path d="m19.0658436 22.6092742c-2.7644909-6.8271582-5.8551697-14.4437105-9.0593333-22.30524725l-9.61638181 20.22093545 3.18470909 6.6955924h13.29783032z" fill="#f99d1c" mask="url(#f)" transform="translate(192.6 263.77951)"/><path d="m189.958981 290.678085 3.031018-6.373483-9.832976-20.677851-3.559533 7.484339z" fill="#189b41"/><path d="m8.05042061.34582984-7.4387697 15.64270826 3.18406061 6.6955924h2.55438181c.535-7.2011158 1.1342-15.03348774 1.70032728-22.33830066" fill="#f99d1c" mask="url(#g)" transform="translate(153.042424 268.316258)"/><path d="m16.8790879 27.8688561 3.1847091-6.6955924-9.8336243-20.67785078-9.83362421 20.67785078 3.18470909 6.6955924z" fill="#189b41" mask="url(#h)" transform="translate(133.587879 263.131403)"/><path d="m16.6593164 27.8688561 3.1840606-6.6955924-9.8329758-20.67785078-9.83362423 20.67785078 3.18406061 6.6955924z" fill="#f99d1c" mask="url(#i)" transform="translate(114.133333 263.131403)"/><path d="m17.0925042 27.8688561 3.1847091-6.6955924-9.8336242-20.67785078-9.83362425 20.67785078 3.18470909 6.6955924z" fill="#189b41" mask="url(#j)" transform="translate(94.030303 263.131403)"/><path d="m16.8778558 27.8688561 3.1840606-6.6955924-9.8329758-20.67785078-9.83362424 20.67785078 3.18406061 6.6955924z" fill="#f99d1c" mask="url(#k)" transform="translate(74.575758 263.131403)"/></g></svg>