<svg height="330" viewBox="0 0 230 330" width="230" xmlns="http://www.w3.org/2000/svg" xmlns:xlink="http://www.w3.org/1999/xlink"><linearGradient id="a" x1="49.999931%" x2="49.999931%" y1="100.000041%" y2=".000407%"><stop offset="0" stop-color="#fddfd8"/><stop offset="1" stop-color="#edcac6"/></linearGradient><mask id="b" fill="#fff"><path d="m105.260991.04621834h-.033979-.459672-.078855-.459031-.033979-16.8975854v26.09153716c0 9.9112663-12.5021749 14.6332401-26.4224724 19.2826768-13.929273 4.6443013-15.6916687 13.2704411-15.6916687 13.2704411l-44.72664114 87.6794016h24.13116564l27.8207209-51.8505588 6.1693466 51.8505588h46.1101445.078855 46.110786l6.169987-51.8505588 27.819439 51.8505588h24.131807l-44.726641-87.6794016s-1.762396-8.6261398-15.691669-13.2704411c-13.920297-4.6494367-26.422472-9.3714105-26.422472-19.2826768v-26.09153716z" fill="#fff" fill-rule="evenodd"/></mask><g fill="none" fill-rule="evenodd" transform="translate(10 42)"><path d="m85.2705815 187.454808s-2.7943445-20.366587-2.1831808-20.915404c1.9972297-1.793185 33.0605933-4.682734 44.9125993 0l-.935468 20.915404-36.4921212 16.545192z" fill="#afb1b4"/><path d="m105.260991.04621834h-.033979-.459672-.078855-.459031-.033979-16.8975854v26.09153716c0 9.9112663-12.5021749 14.6332401-26.4224724 19.2826768-13.929273 4.6443013-15.6916687 13.2704411-15.6916687 13.2704411l-44.72664114 87.6794016h24.13116564l27.8207209-51.8505588 6.1693466 51.8505588h46.1101445.078855 46.110786l6.169987-51.8505588 27.819439 51.8505588h24.131807l-44.726641-87.6794016s-1.762396-8.6261398-15.691669-13.2704411c-13.920297-4.6494367-26.422472-9.3714105-26.422472-19.2826768v-26.09153716z" fill="url(#a)" mask="url(#b)" transform="translate(0 140)"/><g transform="translate(0 11)"><path d="m166.114817 53.8765c0 48.287127-17.153211 87.714743-61.25578 87.714743-44.0987159 0-60.4106425-39.900824-60.4106425-88.1873101 0-48.2967454 41.0399083-53.29556947 61.1543115-53.29556947 20.114404 0 60.512111 5.4720324 60.512111 53.76813657" fill="#fddfd8"/><path d="m91.0449541 84.8007928c0 6.6319699-5.4503669 12.011669-12.1639449 12.011669-6.7187156 0-12.1581652-5.3796991-12.1581652-12.011669 0-6.6326111 5.4394496-12.0091041 12.1581652-12.0091041 6.713578 0 12.1639449 5.376493 12.1639449 12.0091041" fill="#82b034"/><path d="m87.9164037 84.7982921c0 4.6282084-3.7633028 8.3875857-8.3961468 8.3875857-4.6373395 0-8.3955046-3.7593773-8.3955046-8.3875857 0-4.6205139 3.7581651-8.3798912 8.3955046-8.3798912 4.632844 0 8.3961468 3.7593773 8.3961468 8.3798912" fill="#2a1d01"/><path d="m75.9826881 80.455163c0 1.3369097-1.0898165 2.430162-2.4262386 2.430162-1.3415596 0-2.4313761-1.0932523-2.4313761-2.430162 0-1.3369098 1.0898165-2.4199028 2.4313761-2.4199028 1.3364221 0 2.4262386 1.082993 2.4262386 2.4199028" fill="#fff"/><path d="m78.5097523 111.3901c8.3216514 5.036655 17.2302752 8.147775 26.2589907 8.031717 9.083303 0 17.785138-3.508666 26.438807-8.031717-3.178899 3.740782-7.153486 6.842926-11.661743 9.077521-4.498624 2.270502-9.593211 3.509307-14.73211 3.58951-5.1344034.008925-10.2649539-1.135624-14.7944034-3.370219-4.5262386-2.199328-8.613211-5.301472-11.5095413-9.296812" fill="#f99d1c"/><path d="m120.79945 84.8007928c0 6.6319699 5.450367 12.011669 12.163944 12.011669 6.718716 0 12.158808-5.3796991 12.158808-12.011669 0-6.6326111-5.440092-12.0091041-12.158808-12.0091041-6.713577 0-12.163944 5.376493-12.163944 12.0091041" fill="#82b034"/><path d="m123.928321 84.7982921c0 4.6282084 3.762661 8.3875857 8.396147 8.3875857 4.637339 0 8.394862-3.7593773 8.394862-8.3875857 0-4.6205139-3.757523-8.3798912-8.394862-8.3798912-4.633486 0-8.396147 3.7593773-8.396147 8.3798912" fill="#2a1d01"/><path d="m124.403358 80.455163c0 1.3369097 1.089816 2.430162 2.426238 2.430162 1.34156 0 2.431376-1.0932523 2.431376-2.430162 0-1.3369098-1.089816-2.4199028-2.431376-2.4199028-1.336422 0-2.426238 1.082993-2.426238 2.4199028" fill="#fff"/><path d="m82.5596055 170.154752s21.7770645 18.906532 45.4479815 0l-16.096147 47.267614z" fill="#fff"/><path d="m163.535028 176.98697c-2.525138-1.260607-32.867248-11.98538-32.867248-11.98538l-25.760642 31.728042-25.7600004-31.728042s-30.3421101 10.724773-32.8672477 11.98538c-1.8810092.939363-28.1130275 66.300463-46.27963302 99.897613h27.69816512l24.9373395-46.338509s1.5778899 25.721887 3.035688 46.338509h47.8453215 2.781376 47.844679c1.45844-20.616622 3.03633-46.338509 3.03633-46.338509l24.937339 46.338509h27.698166c-18.166606-33.59715-44.398624-98.95825-46.279633-99.897613" fill="#e6e7e8"/></g><g transform="translate(4)"><path d="m68.4998205 40.6662842s5.1928297 15.5963195 29.2685016 17.4870351c24.0750319 1.8907155 42.9578739-2.8351116 52.3989749 1.8907155 9.441741 4.7264683 6.137388 50.5710302 6.137388 50.5710302s9.441101-35.4472293 8.025224-51.5160674c-.64294-7.2942254-.987464-29.4968293-14.634571-42.0637724-16.417385-15.11931295-43.902432-17.01451645-52.8715743-15.59696065-23.0184069 3.63845733-28.7959022 10.87049235-28.7959022 10.87049235s-9.5211483.5962582-12.2734953 2.8357527c-15.1065299 12.2880482-25.4915488 42.5362911-7.0813059 99.7238644 0 0-10.3856594-53.879302 19.8267602-74.2020898" fill="#fcb963"/><path d="m150.63964 57.2081538c-7.693508-4.4930941-36.349167-1.8900744-50.9830977-2.8357527-14.6339306-.9450372-27.8519843-7.0890613-26.9080663-25.5211335 0 0 4.7208707 9.4522954 14.6339306 9.4522954 0 0-6.1367476-4.2539497-12.7454542-20.3234289 0 0 15.5784889-12.76120784 51.9270156-.4725186 0 0-24.075031-17.96019471-59.0083216-3.7807899 0 0-4.2482713 15.124442-11.8015363 23.1585405-7.1536688 7.6103063-16.050448 23.1585405-8.7757476 54.4140109.3707791-17.1119693 4.5114668-39.1908337 21.5212019-50.633221 0 0 5.1928296 15.5963195 29.2685015 17.4876762 24.0756721 1.8900744 42.9585141-2.8357528 52.3996151 1.8900744 2.811902 1.4072976 4.492256 6.4626695 5.467552 12.8669956.11783-.0628315.197237-.1057878.197237-.1057878s.471959-12.2886892-5.19283-15.5969606" fill="#f99d1c"/><path d="m75.5808703 37.3578847c.4655553.9777352 1.1648486 1.8060853 1.8430095 2.6152013.3784637.3763479.7242681.7751357 1.1065741 1.1386608l1.1994291 1.0360788c.4040788.3359562.8510631.623186 1.2724321.9367024l.6384575.4596959c.2190094.1455382.4553091.2660722.6813627.40007l1.3601641.7950109c.4450631.2763304.9484006.4571313 1.4177981.6898643l1.4293249.6610132c.4847666.2013173.9881041.3654486 1.4799148.5507374.9900253.3583961 1.9653218.7482079 3.0008139.9770941 1.0258864.2506849 2.0229558.5968993 3.0603691.8039869l3.1199243.5827943.7780599.1564376c.2612745.041674.5263912.0653961.7895868.0987352l1.5810948.1897768c1.055344.1154049 2.105564.2782539 3.166031.3551904l3.190366.1949059c1.06495.0506499 2.128619.1679781 3.198691.1493851l3.209577.0352626c1.071354.0102582 2.146549.0846302 3.217903.0173107 2.145908-.0519321 4.29694-.1102757 6.465902-.0833479-2.121574.3975055-4.261719.7090985-6.406347 1.0264617-2.146549.2795361-4.315511.3583961-6.481271.5052167-1.083521.1006586-2.170884.0506498-3.258247.0339803l-3.264009-.0621904c-1.088003-.0378271-2.170883-.2077287-3.257606-.3058228l-1.6284823-.172466c-.2708801-.0307747-.5436814-.0525734-.8139211-.0916828l-.8075174-.1519496c-4.3116688-.7155099-8.5829937-2.0189431-12.4560031-4.1430329-1.9576373-1.0155623-3.719959-2.4017024-5.3138612-3.9128643l-1.1104165-1.2252144c-.3483659-.4269978-.6647129-.8809234-.9861829-1.3226674-.5833849-.9277265-1.1437161-1.8823808-1.4229212-2.9383348" fill="#ffd04f"/><path d="m115.706478 39.2487284c-3.249921-.162849-6.481271-.6347264-9.683804-1.2611181-3.204455-.6244683-6.3704863-1.4970569-9.448786-2.6607221-3.0699748-1.1726412-6.0592618-2.6722626-8.7264385-4.7194158-2.6460441-2.0375361-4.9450031-4.7784004-6.0470946-8.0950065l-.6826435-2.0567703 1.9486719.967477 13.2411072 6.5716631-1.0739148 1.5611706-5.6455773-5.2195032c-1.8878359-1.7336368-3.7494164-3.4961248-5.6206025-5.2470722l-.7767792-.7270504.8209653-.5834354c.4149653-.2955646.7159432-.4353326 1.0713533-.6097221.3438833-.1481029.6864858-.3051816 1.0342114-.4154574.6916088-.2577374 1.392183-.4340503 2.0927571-.5994638.7018549-.1519497 1.4062713-.2846653 2.1126088-.3616018.7050568-.1096346 1.4113943-.1564376 2.1170915-.2025996 2.8215079-.1686192 5.6308486-.055779 8.4062489.2609431 1.38706.1583611 2.767076.3654486 4.142609.5815121 1.364647.2801772 2.736978.5122691 4.089458.8289912 1.350558.3314683 2.70752.6251094 4.047192.9854289 1.338391.3660897 2.666536.7687243 3.997883 1.1508425-1.361445-.2667134-2.72481-.5135515-4.07793-.7956521-1.356962-.2667134-2.726732-.464825-4.086896-.7001226-1.362726-.2218337-2.736978-.3577549-4.101625-.5404792-1.37041-.1327155-2.739539-.2776127-4.109309-.362884-2.7401798-.1596433-5.4842019-.1750306-8.1840378.0827068-.6736783.0679606-1.3479969.1372035-2.0075868.2647899-.6691956.0948884-1.3185394.2506849-1.9685236.4007112-.641019.1666958-1.283959.3430087-1.8846341.5834354-.311224.1051466-.5949117.2455558-.8843628.376348-.2651167.1301509-.5808233.311593-.7293912.4199452l.0441862-1.3104857c1.9051261 1.7150437 3.8204984 3.4179059 5.7089747 5.1502604l5.6833596 5.1791116 5.1774608 4.7168512-6.2500948-3.1563217-13.195-6.6614223 1.2660284-1.0892932c.8965299 2.9133304 2.8913091 5.4253085 5.3215457 7.4000131 2.4238328 2.0074026 5.2619905 3.5377987 8.1987666 4.8130219 2.9444605 1.2758643 6.0221201 2.2689868 9.1414041 3.1184945 3.125687.8334792 6.307088 1.4823107 9.521148 1.9618818" fill="#ffd04f"/><path d="m39.2315751 50.1186438c.5263911-4.306523 1.4927224-8.5566259 2.7139243-12.7323567 1.2359306-4.1731663 2.8304732-8.2623436 4.9450031-12.1136587 1.0662303-1.9195667 2.2765458-3.7679671 3.6533596-5.5048096 1.4005079-1.716326 2.9841641-3.3089125 4.7900316-4.6476083 1.8052271-1.3265142 3.8352271-2.4202954 6.0304448-3.0280941 2.185612-.6283151 4.4768864-.8302735 6.7380631-.6981991l-.6166846.1743895c2.9604701-2.05933481 6.0567004-3.65897376 9.272041-5.10538076 3.2057351-1.43807221 6.533142-2.59724945 9.9239464-3.50958862 3.3908044-.91426258 6.8488486-1.57527571 10.3369906-1.97855142 3.490063-.40071116 7.011505-.47636543 10.514375-.31800438 1.753997.04552079 3.497748.25389059 5.240218.43597374 1.731584.27056018 3.469571.49688184 5.177461.88861707 1.722618.3167221 3.407454.79693435 5.098053 1.24060175.841458.23657987 1.665625.53150328 2.498757.79372866.830571.2692779 1.664344.52765646 2.473142.85976587l2.442404.9399081c.814562.31159299 1.595183.70653391 2.392454 1.05851859.787026.37442451 1.597745.69499344 2.363638 1.11237418l2.314968 1.20726259c.383587.20388183.774218.39494092 1.152681.6097221l1.123865.66229543 2.244527 1.3245908c1.474791.916186 2.891949 1.9259781 4.335362 2.8819146-1.50617-.8623304-2.993129-1.7503063-4.507624-2.5857089l-2.2996-1.2014924-1.148198-.600105c-.386149-.1942648-.783824-.36352517-1.175095-.54624946l-2.354032-1.07839387c-.777419-.37442451-1.598384-.65075492-2.393735-.97965864-.805596-.30838731-1.595183-.65331948-2.408463-.93542013l-2.441764-.83796718c-.807517-.29748797-1.638728-.52124508-2.465457-.75590153-.82865-.22760394-1.648335-.48726477-2.482748-.68858206-1.676511-.37506565-3.336372-.81360394-5.033375-1.07518818-1.682275-.33980307-3.388883-.51419256-5.086527-.73410285-1.70853-.12438074-3.411937-.30710503-5.124309-.32313348-3.418981-.09873523-6.847568.03077462-10.2383724.47315974-3.3933659.41096937-6.7559937 1.07262363-10.0513817 1.9798337-3.2915457.91875054-6.5305804 2.04074179-9.6601104 3.41405908-3.1115994 1.37203501-6.2027066 2.96910936-8.9499306 4.85213126l-.2894511.1981116-.3272334-.0237221c-2.0594574-.148744-4.1298013 0-6.1162555.5353501-1.9941388.5148337-3.8589212 1.4803873-5.5527224 2.683162-1.7002051 1.2008512-3.2383944 2.6536695-4.6177698 4.2571553-1.3614448 1.6214377-2.5666372 3.3826433-3.669369 5.2105274-2.2009811 3.6679496-3.8928612 7.6474923-5.3503628 11.7039715-1.4267634 4.0725077-2.5647161 8.2552911-3.4151388 12.5047528" fill="#f99d1c"/><path d="m51.0332394 37.8305956c1.3672082-1.4694879 2.6127445-3.0345054 3.8089716-4.6270919 1.1859811-1.6009212 2.31753-3.237105 3.3472587-4.9322735 1.0316499-1.6932451 2.0229559-3.4082888 2.8733786-5.1919344.8926877-1.7618468 1.647694-3.5846017 2.35147-5.4214617l.9842618 1.2079038c-.3195489.0730897-.7377161.1993938-1.1091356.3378796-.3855079.116046-.7601294.3013348-1.1405142.4500788-.7454006.3481378-1.4927224.7097396-2.1894543 1.1649475-.7242681.4077636-1.378735.930291-2.0511325 1.4226849-.3470851.2320919-.6371766.5391969-.9573659.8071925l-.9477602.8238622c-2.4462461 2.3029671-4.3936373 5.1239737-6.0266026 8.1001356l-.6064385 1.125197-.3041798.562919-.2587129.586-1.0412555 2.3472057c-.3797445.7712888-.6045174 1.6047681-.901653 2.4106783l-.8734764 2.4331182c-.4373785 1.6669584-.9432776 3.3236586-1.378735 5.0027987-.3579716 1.6951685-.7332334 3.3929015-1.1315489 5.0964048.1421641-1.734919.3073817-3.4756083.49053-5.2188621.2715205-1.7265843.6122019-3.4486806.9445584-5.1752648.8875646-3.3941838 1.9044858-6.8037549 3.5617854-9.9581532 1.5753313-3.1768381 3.6008486-6.1914683 6.2097508-8.6912648.6813628-.5904879 1.3249432-1.2264967 2.053694-1.7637702.7345142-.5289387 1.4504575-1.0822407 2.2483691-1.5239847.7665331-.4859825 1.5926215-.8783588 2.4251136-1.2534245.8606688-.3571138 1.676511-.6655011 2.6895899-.8572013l1.6284826-.3083873-.6442208 1.5156499c-.7972713 1.8766105-1.6195173 3.7436039-2.6261924 5.511221-.9829811 1.7785164-2.0652208 3.4986893-3.2505615 5.1406433-1.1750947 1.6490066-2.4468865 3.2249234-3.8102524 4.7123633-1.355041 1.4925689-2.8010158 2.9062779-4.3680221 4.1641903" fill="#ffd04f"/><g fill="#e8c6ac"><path d="m107.844935 106.361629c0 1.134814-.918944 2.054205-2.051773 2.054205-1.13347 0-2.051773-.919391-2.051773-2.054205s.918303-2.054206 2.051773-2.054206c1.132829 0 2.051773.919392 2.051773 2.054206"/><path d="m95.7034215 110.910309c0 1.175206-.9516026 2.127296-2.1247761 2.127296-1.1738139 0-2.124776-.95209-2.124776-2.127296 0-1.174564.9509621-2.126654 2.124776-2.126654 1.1731735 0 2.1247761.95209 2.1247761 2.126654"/><path d="m103.905454 89.937472c0 1.1752057-.950962 2.1272954-2.124776 2.1272954-1.173174 0-2.1247761-.9520897-2.1247761-2.1272954 0-1.1745646.9516021-2.1266543 2.1247761-2.1266543 1.173814 0 2.124776.9520897 2.124776 2.1266543"/><path d="m111.399548 96.0226396c0 1.1752057-.950962 2.1272954-2.124776 2.1272954-1.173174 0-2.124776-.9520897-2.124776-2.1272954 0-1.1745645.951602-2.1272954 2.124776-2.1272954 1.173814 0 2.124776.9527309 2.124776 2.1272954"/><path d="m96.5479527 95.7271392c0 .7610306-.6160442 1.3778052-1.3761735 1.3778052-.7601294 0-1.3761735-.6167746-1.3761735-1.3778052 0-.7610307.6160441-1.3771641 1.3761735-1.3771641.7601293 0 1.3761735.6161334 1.3761735 1.3771641"/><path d="m115.843775 115.045777c0 .76103-.616044 1.377805-1.376173 1.377805-.76013 0-1.376174-.616775-1.376174-1.377805 0-.761031.616044-1.377164 1.376174-1.377164.760129 0 1.376173.616133 1.376173 1.377164"/><path d="m106.678933 117.054333c0 1.175206-.951602 2.127296-2.124776 2.127296-1.173813 0-2.124776-.95209-2.124776-2.127296 0-1.174564.950963-2.126654 2.124776-2.126654 1.173174 0 2.124776.95209 2.124776 2.126654"/><path d="m85.5133338 112.446796c0 .761031-.6160442 1.377164-1.3761735 1.377164-.7601294 0-1.3761735-.616133-1.3761735-1.377164 0-.76103.6160441-1.377805 1.3761735-1.377805.7601293 0 1.3761735.616775 1.3761735 1.377805"/><path d="m121.017457 111.560231c0 .76103-.616044 1.377805-1.376173 1.377805s-1.376174-.616775-1.376174-1.377805c0-.761031.616045-1.377164 1.376174-1.377164s1.376173.616133 1.376173 1.377164"/><path d="m96.9310271 102.816585c0 .516116-.4175268.934779-.9330315.934779s-.9336719-.418663-.9336719-.934779.4181672-.934138.9336719-.934138.9330315.418022.9330315.934138"/><path d="m101.651642 98.0906939c0 .5161159-.417527.9341378-.933032.9341378s-.9336718-.4180219-.9336718-.9341378c0-.516116.4181668-.934779.9336718-.934779s.933032.418663.933032.934779"/></g><path d="m148.65754 196.424571c-3.970987-.354549-8.15522-.658448-12.498268-.914262l.366937-8.586118c4.473685.267354 8.768063.588564 12.83895.961706zm-.787665 9.502946c-3.860843-.335957-7.914439-.625751-12.117884-.870024l.366297-8.58676c4.329599.255814 8.501025.559072 12.459845.912339zm-.788306 9.504227c-3.750057-.318004-7.671735-.594335-11.737499-.827709l.366937-8.585477c4.189997.242991 8.230786.532145 12.079461.866819zm-.787666 9.506151c-3.63799-.301976-7.429672-.564842-11.357754-.786035l.366937-8.586759c4.052956.232092 7.961827.507781 11.699076.825785zm-.788306 9.504869c-3.522722-.284665-7.188249-.533427-10.976729-.74372l.366297-8.586118c3.914634.220551 7.694148.482777 11.319331.782829zm-.788306 9.507433c-3.407454-.268637-6.946186-.503293-10.596344-.703328l.366937-8.586759c3.775032.209652 7.427751.457131 10.938306.740514zm-.788306 9.511921c-3.292826-.253249-6.701561-.475083-10.215318-.664218l.366296-8.589965c3.63735.198752 7.162634.432768 10.557921.700122zm-.788946 9.511922c-3.175637-.237221-6.457577-.446873-9.834934-.626392l.366937-8.589324c3.500949.188495 6.896877.409687 10.177536.662295zm-.788306 9.511921c-3.057167-.223116-6.214234-.419304-9.453909-.587924l.366297-8.589323c3.364549.178877 6.633041.387247 9.796511.623827zm-.788947 9.511921c-2.936776-.20837-5.97153-.390453-9.072883-.549455l.366937-8.589324c3.226227.167978 6.370486.362884 9.415486.585359zm-9.216968-19.698961c-3.150022-.160925-6.368565-.29877-9.657549-.407122l.104382-8.605994c3.381199.112841 6.687473.255814 9.920104.423793zm-.407921 9.55039c-3.056527-.153873-6.178372-.285306-9.365536-.389812l.104381-8.605993c3.279379.108352 6.488316.246197 9.628092.406481zm-.407921 9.550389c-2.963672-.146179-5.98882-.271842-9.073524-.372501l.104382-8.605993c3.176918.103864 6.288517.235298 9.336079.388529zm-9.106183-76.942954c-3.40041-.110275-6.868701-.191059-10.384379-.243632l-.048028-8.609199c3.567549.053214 7.08835.134639 10.536788.246838zm-.115909 9.567701c-3.345978-.107712-6.757274-.186572-10.215318-.239145l-.048029-8.610481c3.509915.052573 6.973082.133356 10.367729.243632zm-.115908 9.568341c-3.291546-.105788-6.646489-.183365-10.045619-.234656l-.048028-8.610482c3.45164.051932 6.857814.130792 10.198028.238503zm-.115909 9.5677c-3.237113-.103223-6.534423-.179518-9.875918-.230809l-.048028-8.609841c3.393366.051291 6.741905.128869 10.028328.234657zm-.115908 9.5677c-3.183322-.101299-6.422997-.176313-9.706858-.226321l-.048029-8.610482c3.335732.051291 6.627278.127587 9.859268.230169zm-.116549 9.567701c-3.128249-.098736-6.311571-.172466-9.536518-.221834l-.048028-8.610481c3.277457.050008 6.51265.125021 9.689568.226321zm-.115268 9.5677c-3.074458-.096171-6.200145-.167978-9.367458-.217346l-.048028-8.610481c3.219183.050008 6.396741.123098 9.519227.221833zm-.115909 9.567059c-3.019385-.092965-6.088719-.164773-9.197757-.212858l-.048669-8.609199c3.161549.048727 6.282114.120534 9.350167.216705zm-.116549 9.568341c-2.964312-.091041-5.976653-.161566-9.028057-.209011l-.048028-8.610481c3.103275.048085 6.166845.119893 9.180467.212858zm1.412675-37.279601c3.482379.116045 6.888552.264148 10.212117.439179l-.366937 8.589965c-3.242236-.167978-6.558117-.312234-9.949561-.424433zm.115909-9.56706c3.583558.119893 7.08899.273125 10.504129.456491l-.366937 8.589323c-3.33317-.175671-6.748949-.324415-10.240934-.440461zm.115908-9.566417c3.685379.12438 7.29135.281459 10.795502.472518l-.366937 8.589965c-3.424104-.184006-6.938502-.337238-10.532306-.457772zm.115909-9.567701c3.787839.128869 7.492429.292359 11.087514.491112l-.366937 8.588041c-3.514397-.191059-7.129975-.348779-10.824959-.4738zm.116549-9.567059c3.89094.133357 7.691587.3039 11.378886.510987l-.366937 8.586118c-3.604691-.198752-7.319527-.362884-11.116331-.491752zm.115908-9.566418c3.994682.137845 7.892026.314799 11.670259.530221l-.366297 8.586118c-3.696905-.207087-7.507798-.378271-11.408343-.511628zm.115909-9.567059c4.098423.142333 8.093104.326339 11.962271.550096l-.366937 8.586119c-3.787839-.215423-7.695429-.393018-11.699716-.530863zm-21.012742 94.392162c-.241422 0-.482205.001282-.722987.001282l.048028-8.60984c.224773 0 .449546-.001282.674959-.001282 2.984165 0 5.940792.02244 8.867322.064114l.048029 8.60984c-2.941899-.041033-5.915177-.064114-8.915351-.064114zm-.621807-18.179464c.207483 0 .414325-.001282.621807-.001282 2.966234 0 5.904931.023081 8.81353.063473l.048029 8.60984c-2.924609-.041674-5.879316-.064114-8.861559-.064114-.223492 0-.446343.001282-.669835.001282zm.053792-9.570906c.189552-.000641.378463-.001282.568015-.001282 2.947663 0 5.86907.021799 8.760379.061549l.048028 8.610482c-2.907318-.039751-5.844735-.062832-8.808407-.062832-.205561 0-.410482.001282-.616044.001282zm.053791-9.571547c.171622-.000641.342603-.001282.514224-.001282 2.929732 0 5.832568.021158 8.706587.061549l.048029 8.60984c-2.889388-.03975-5.808874-.061549-8.754616-.061549-.18763 0-.375261.000641-.562252.001283zm.053152-9.572188c.153691 0 .307382-.000641.461072-.000641 2.911161 0 5.796707.021799 8.652795.060908l.048029 8.610481c-2.872098-.040391-5.773653-.061549-8.700824-.061549-.1697 0-.3394.000641-.5091.001282zm.053792-9.570265c.13576 0 .27152-.000641.40728-.000641 2.893231 0 5.760846.020517 8.599644.058985l.048028 8.60984c-2.854807-.038468-5.738432-.060267-8.647672-.060267-.151769 0-.303539.000641-.455309.000641zm.053792-9.571547c.117829 0 .235659-.000641.353488-.000641 2.87466 0 5.724985.020517 8.545852.058985l.048029 8.60984c-2.836877-.038468-5.703212-.058985-8.593881-.058985-.133839 0-.267678.000642-.402157.000642zm-1.009237 8.611764c-3.000814.006411-5.9843376.034621-8.9390443.083989l.0480284-8.610481c2.9547067-.048727 5.9388707-.076937 8.9396849-.083348zm-.053152 9.570265c-3.0008134.007052-5.9849774.035262-8.9390437.085271l.0480284-8.60984c2.9540663-.049368 5.9382303-.077578 8.9390443-.083989zm-.053791 9.571547c-3.0008142.007693-5.9849782.035903-8.9390445.085912l.0480284-8.610481c2.9547066-.050009 5.9382303-.078219 8.9390441-.085272zm-.053152 9.571547c-3.001454.007052-5.9849776.035904-8.9396843.086553l.0480284-8.60984c2.9547066-.05065 5.9382303-.07886 8.9396849-.086553zm-.053792 9.571547c-3.0008134.007693-5.9849774.036545-8.9390437.087195l.0480284-8.610482c2.9540662-.05065 5.9382303-.079501 8.9390443-.086553zm-.053791 9.570906c-3.0008142.007693-5.9849782.037186-8.9390445.087836l.0480284-8.609841c2.9540663-.05065 5.9382303-.079501 8.9390441-.087194zm-.053152 9.571547c-3.0008136.007693-5.985618.037186-8.9390439.088477l.0480284-8.60984c2.9540662-.051291 5.9375899-.080784 8.9390445-.088477zm-9.4718389-76.471718c-3.5111955.064114-6.9794858.15772-10.3837381.280177l-.1037414-8.604711c3.4522808-.124381 6.9711609-.220551 10.5355079-.284665zm-.0531514 9.572829c-3.4535615.063473-6.8654984.154515-10.2146782.274407l-.1043817-8.605352c3.3984889-.122457 6.8610158-.215422 10.3670883-.279536zm-.0537918 9.57283c-3.395287.061549-6.7502303.151308-10.0449779.268636l-.1043817-8.605352c3.3440568-.119893 6.7495899-.210934 10.197388-.274407zm-.0537918 9.570906c-3.3363722.06219-6.6349621.150026-9.8746372.264148l-.1043817-8.604711c3.2883438-.116687 6.6375237-.206446 10.0276877-.268637zm-.0531514 9.572829c-3.2793785.060908-6.5209748.147462-9.7055773.258378l-.1043817-8.605352c3.2339117-.114122 6.5267382-.201958 9.8579874-.263507zm-.0537918 9.572829c-3.2211041.059626-6.4050662.143615-9.535877.25325l-.1043817-8.605994c3.1794795-.110917 6.4153123-.19747 9.6882871-.258378zm-.0531514 9.571547c-3.16347.059626-6.2910789.142333-9.366817.249403l-.1043817-8.605993c3.1244069-.108994 6.3038864-.192983 9.5192271-.25325zm-.0537918 9.572188c-3.1051956.058344-6.1758107.139769-9.1971167.243633l-.1043817-8.604711c3.0706151-.10707 6.1924605-.189777 9.3495268-.248762zm-.0537918 9.57283c-3.0469211.057061-6.0605426.137203-9.0274164.238503l-.1043817-8.605993c3.0155426-.103865 6.0803943-.185289 9.1798265-.243633zm-19.058306.674477-.3662965-8.589965c3.0417981-.16349 6.1591609-.303258 9.3322366-.417381l.1043817 8.605352c-3.082142.110276-6.1098518.244274-9.0703218.401994zm-.7742177-18.13779c3.1340127-.171825 6.3493533-.317363 9.6248896-.435974l.1037413 8.604711c-3.1826813.114764-6.3102902.254532-9.3623343.418663zm-.4079211-9.549107c3.2268675-.178878 6.5389054-.330827 9.9162618-.453926l.1043817 8.605352c-3.2845015.118611-6.5094479.26479-9.654347.435974zm-8.8436278 28.322906-.708899-8.552779c3.0353943-.232733 6.1783722-.440462 9.4084416-.619981l.3669369 8.588042c-3.1064763.169901-6.1354668.365448-9.0664795.584718zm-1.497205-18.062777c3.1513028-.248121 6.4223565-.468031 9.7888265-.657808l.3669369 8.587401c-3.242877.18016-6.3986625.388529-9.4468644.622545zm-.788306-9.508075c3.266571-.263507 6.6650599-.497523 10.1698517-.698199l.3662966 8.587401c-3.3792776.191059-6.6637792.41161-9.8272492.661013zm-.788306-9.506792c3.3818391-.280177 6.907123-.527656 10.5502366-.739873l.3669369 8.588042c-3.5175994.201317-6.9288959.435973-10.2089148.700122zm-.788306-9.506151c3.4945458-.296205 7.1498265-.557149 10.9312618-.780264l.3662966 8.586118c-3.6565615.212216-7.1940126.460978-10.5886593.742437zm-.7876656-9.502945c3.6072524-.313516 7.3899684-.588565 11.3110063-.823862l.3662965 8.586118c-3.7936025.223757-7.4623312.485341-10.9690441.782188zm-.788306-9.502304c3.7180379-.33211 7.6313912-.621263 11.6913912-.868742l.3669369 8.586759c-3.9344858.235298-7.7300095.512269-11.349429.826427zm-.7870252-9.499099c3.8288233-.350061 7.8676908-.656525 12.0711356-.915544l.3662965 8.585477c-4.0734479.247479-7.9989684.538555-11.7298138.870665zm-.7876657-9.499098c3.9376877-.368654 8.1065521-.690506 12.4508802-.962348l.3669369 8.584836c-4.2162524.259661-8.2679275.567407-12.1095584.918109zm-.7876656-9.495893c4.0465521-.388529 8.3428518-.72705 12.831265-1.011715l.3662965 8.584194c-4.357776.272484-8.5388075.595617-12.4893028.965554zm25.7489811-1.661829.1043817 8.605352c-4.0042871.151309-7.9137981.342368-11.6965142.570613l-.3662965-8.585477c3.862123-.237221 7.8606467-.434692 11.958429-.590488zm.2202902 18.17177c-3.9011861.146179-7.7127192.330827-11.4045016.550737l-.3669369-8.585477c3.7724701-.228245 7.6723754-.419304 11.6670568-.569971zm.1159085 9.566418c-3.7974448.142333-7.5116403.319287-11.1131293.531503l-.3662965-8.586759c3.6821766-.219269 7.4841041-.403276 11.3750441-.549455zm.1159086 9.567059c-3.6943439.137845-7.3112019.308387-10.8211168.510987l-.3669369-8.586118c3.5918833-.210935 7.2964732-.38853 11.083672-.530221zm.1159085 9.566418c-3.5918833.132716-7.110123.297488-10.5291041.493035l-.3669369-8.5874c3.5003091-.2026 7.1075615-.373143 10.7916593-.510346zm.1159085 9.567059c-3.4894227.128228-6.9096845.286589-10.2377319.473801l-.3662965-8.5874c3.4093754-.194906 6.9173691-.359038 10.4996467-.491753zm.1159085 9.567059c-3.3876025.12374-6.709246.276331-9.9457192.455849l-.3669369-8.588041c3.3184416-.187213 6.7284574-.344933 10.2082744-.47316zm-34.1257729-53.950468c2.3565931-.289153 4.8316562-.55779 7.4078991-.80591l.7082587 8.53675c-2.4744227.232092-4.8572713.484059-7.1357382.753337l.0928549.956578c2.2733438-.268637 4.6523501-.519322 7.1222902-.752055l.7076183 8.541239c-2.4616151.22568-4.8367792.469954-7.1120442.731538l.0704417.959783c2.2765457-.262225 4.655552-.50714 7.1210094-.73282l.7082587 8.540597c-2.5282145.226322-4.966776.471236-7.3022366.734744l.0486688.962348c2.3444259-.265431 4.7932334-.511628 7.3329748-.739232l.7082586 8.543803c-2.6710189.234015-5.245981.487906-7.7082366.762313l-.0160094.968759c2.4904322-.278254 5.0974132-.535991 7.803653-.773212l.708899 8.545727c-2.8868265.245555-5.6628675.516116-8.3101924.809116.018571.303258.0390631.623827.0595552.960424 2.6530883-.294282 5.4361735-.565484 8.3300442-.811681l.7082586 8.547009c-2.9527854.245556-5.7909432.516116-8.5003848.810399.0198517.316722.0403438.637291.060836.960424 2.7145646-.295565 5.5591261-.566766 8.5189558-.812963l.708899 8.548932c-3.0142618.244274-5.910694.515475-8.6784101.810399.0204922.318645.0409843.638573.0621168.960424 2.7721987-.296206 5.6750347-.568048 8.6957003-.812963l.708899 8.548932c-3.0706151.242992-6.0208391.514193-8.842347.809116.0211325.319287.0429054.639215.0640379.959784 2.8253501-.296206 5.7806971-.567407 8.8577161-.81104l.708899 8.552779c-3.1199243.240427-6.1175362.509705-8.9870725.803346.0217728.320569.0441861.640497.065959.959784 2.8733785-.294283 5.8754731-.564202 9.0005205-.80527l.2375804 2.861399.9573659-.080143-.23694-2.854986c2.918205-.217987 5.934388-.412252 9.0280568-.582154l.1492082 3.498049.9599274-.041674-.1498486-3.507666c2.9508644-.157078 5.9689685-.290435 9.0408644-.400711l.0480284 3.934663.9605678-.010899-.0480284-3.957744c2.9611104-.1013 5.9689685-.180801 9.0107666-.238503l-.023694 4.199453.9605678.004488.023694-4.222534c2.9540662-.051291 5.9382303-.080784 8.9390443-.088477l-.023694 4.306523.960568.004488.023694-4.312935c.243344 0 .486047-.001282.72875-.001282 3.002735 0 5.977294.023081 8.921114.064114l.023694 4.250103.960568-.004488-.023694-4.229587c3.045.048085 6.052218.117969 9.010766.209011l-.048668 4.01737.960567.010899.048669-4.000059c3.075098.100018 6.09.225681 9.044066.371219l-.15369 3.602554.959927.041674.153691-3.595502c3.088546.159003 6.109852.339803 9.03446.547532l-.247186 2.987061.957366.080143.247827-2.995396c2.87594.210293 5.658385.44559 8.344773.702687.022413-.319287.044186-.639215.066599-.959784-2.683186-.256455-5.461148-.491111-8.331965-.701405l.709539-8.554061c2.826631.212858 5.561688.449438 8.201328.706534.021773-.319928.042906-.639855.064038-.959142-2.635798-.257096-5.365091-.493035-8.185959-.705252l.708899-8.55342c2.771559.213499 5.452824.45072 8.039312.707816.021133-.32121.041625-.641779.062117-.959783-2.582006-.257096-5.256867-.493035-8.022022-.706534l.70954-8.554061c2.710722.214781 5.333072.451361 7.861927.708457.020492-.324416.040984-.643702.060836-.959783-2.523732-.256455-5.139678-.492394-7.843357-.706534l.7089-8.54765c2.644123.214781 5.204356.450079 7.672375.705252.020492-.338521.040984-.65909.059555-.960425-2.462255-.253891-5.016085-.489188-7.652524-.703328l.708259-8.546368c2.4693.205164 4.866877.428921 7.181205.669348l.040984-.961707c-2.302801-.239144-4.68693-.461619-7.142782-.665501l.708899-8.547008c2.344426.199393 4.622253.416098 6.823234.64819l.054432-.961066c-2.193297-.230809-4.462798-.446232-6.798259-.645626l.708259-8.547008c2.254773.19747 4.445508.409687 6.562599.637932l.080688-.958501c-2.118372-.227604-4.309107-.440462-6.56388-.637932l.708258-8.542521c2.261177.20324 4.456395.421227 6.576048.655243l.144085-.951449c-2.140145-.235939-4.356495-.457131-6.640726-.661654l.708259-8.539315c2.369401.217987 4.667079.452643 6.877666.703969l.113987-.954654c-2.222114-.252608-4.530678-.489188-6.912246-.707816l.708259-8.539957c3.051403.288512 5.978574.604593 8.752053.949526l.560331-.896952c-2.918205-.368655-6.002268-.705252-9.232977-1.010434l.219649-2.656234c-.308022-.11284-.619886-.226962-.935593-.342367l-.241422 2.909483c-4.083054-.373783-8.390881-.696275-12.877373-.964271l.281127-6.578716c-.32083-.114763-.635896-.227604-.94712-.33852l-.293294 6.860816c-5.149924-.297488-10.525262-.525092-16.060694-.677683l-.763331.943755c1.292924.033339 2.584568.068602 3.860202.110917l-.104382 8.605352c-3.454202-.112199-6.980126-.193623-10.554079-.246838l-.00064-.073731-.953524 1.17777.047388 8.45148c-2.263738-.030775-4.549889-.045521-6.848208-.051932l-.776139.959142c2.562795.003847 5.109581.020516 7.62947.054496l.048029 8.610482c-2.818947-.038468-5.66735-.058344-8.540089-.058344-.115908 0-.231817.000641-.348365.000641l.039703-7.161509-.876038 1.081599-.089653-.110917-.03458 6.192751c-3.0008142.006411-5.9843378.034621-8.9390445.083348l.0480284-8.610482c2.3085647-.038468 4.6389022-.059625 6.9775647-.071807l-.7754984-.957219c-2.0754669.013464-4.14453.033339-6.1963029.06732l.042265-7.668009-1.5176971-1.874687c-3.374795.064755-6.7118076.153873-9.9854227.272483l-.1043817-8.605352c1.0764763-.039109 2.1702429-.069884 3.2588864-.103223l-.7620505-.94119c-5.3196246.169901-10.5034889.40584-15.4561766.709739l-.3080221-7.202543c-.3105836.110917-.6256499.223758-.9471199.339162l.2958549 6.923007c-4.5012208.285947-8.8109685.625109-12.8696877 1.01428l-.2734416-3.305066c-.3157067.115405-.6269306.228887-.9362335.341086l.2535899 3.056945c-3.4554826.341726-6.7118076.72128-9.7478423 1.134814l.6551073.879641c2.8688959-.384041 5.9369495-.736667 9.172142-1.056595l.7076183 8.537392c-2.5960947.250043-5.0903691.520604-7.4648928.811039z" fill="#cdddc0"/><path d="m42.5810751 188.325846c.4597918.353267 1.3473564 1.350236 2.2720631 4.113541 1.771287 5.295798 4.1707855 36.357645 3.8774921 50.011317l.5520063-1.029026s.0294574.485341.08453 1.372035l.3329968-.765519c.3490063-13.881917-2.0850725-44.36161-3.9364069-49.89463-.8818013-2.634436-1.7776909-3.863497-2.4340789-4.43988-.1613754.069243-.2939338.128869-.3848675.17439-.0787666.03975-.203.201317-.363735.457772" fill="#cdddc0"/><path d="m42.8853189 242.864494c-.690328-2.021507-1.4677476-4.146238-2.3316183-6.295973 1.8020253-3.502537 3.393366-6.55307 4.7022997-9.002858.4828454 2.818442.9247066 5.677276 1.3204606 8.420063-.9765773 1.747742-2.2285174 4.087254-3.691142 6.878768m-3.9210378 7.578891c-.9458391-1.511162-1.9806909-3.100543-3.087265-4.707234 1.439571-2.841523 2.8067792-5.525967 4.0792113-8.005247.8574669 2.179868 1.6246404 4.318063 2.3015205 6.335083-1.0162807 1.948418-2.1202933 4.087253-3.2934668 6.377398m-3.483019 6.837094c-1.0944069-1.208545-2.2829495-2.469022-3.5470567-3.733987 1.1814984-2.348488 2.332899-4.630939 3.4433154-6.825553 1.1072145 1.623361 2.1369432 3.218512 3.0725363 4.727109-.9509621 1.859941-1.9441893 3.811564-2.968795 5.832431m-3.8582807 7.643646c-1.2250442-.94055-2.5448644-1.918285-3.9376877-2.90179 1.283959-2.568399 2.549347-5.0932 3.7846372-7.551322 1.2647476 1.273941 2.4513691 2.537624 3.5380915 3.742322-1.0988896 2.170251-2.2317192 4.417439-3.385041 6.71079m-3.6655268 7.308971c-1.265388-.861048-2.6242713-1.746459-4.0567981-2.624177 1.1245047-2.258729 2.243246-4.502711 3.3504605-6.717201 1.3915426.98607 2.7100821 1.967652 3.9312839 2.90756-1.0617476 2.11319-2.1401451 4.264849-3.2249463 6.433818m-3.9165552 7.848169c-1.265388-.818733-2.610183-1.651572-4.0170947-2.469663-.0262555-.014747-.0518706-.028852-.0781262-.043598 1.1712524-2.360669 2.3457067-4.725186 3.5156783-7.076879 1.4357287.880282 2.7939716 1.765052 4.054877 2.623536-1.1558833 2.313225-2.3188108 4.642479-3.4753344 6.966604m-3.7423723 7.52824c-1.2954858-.673836-2.6799842-1.35793-4.1253186-2.024713-.0550725-.025004-.1075836-.047444-.1620158-.072449 1.1552429-2.336947 2.3245742-4.697617 3.4983881-7.065339 1.4357287.834121 2.8093407 1.682987 4.09394 2.513261-1.1116971 2.232442-2.2163501 4.455267-3.3049937 6.64924m-5.1620915-2.488897c-1.8417287-.821939-3.6207003-1.541936-5.33563402-2.160634 1.23016722-2.495309 2.49171292-5.050885 3.77375082-7.644287 1.7520757.827709 3.4618864 1.728508 5.1012555 2.656875-1.2109558 2.441453-2.3943754 4.832897-3.5393723 7.148046m-6.24369081-2.48505c-1.53754889-.52958-3.01874447-.96876-4.44999053-1.329079 1.24233438-2.64277 2.5314164-5.38107 3.85251735-8.183484 1.47991483.52381 2.95470659 1.131609 4.40900629 1.791981-1.3409527 2.713295-2.620429 5.305415-3.81153311 7.720582m3.33765301-17.847996c1.5196183.59177 3.0270694 1.263042 4.5044227 1.985604-1.2320883 2.483768-2.4353596 4.915604-3.5944448 7.258963-1.5202587-.69307-2.9969716-1.299587-4.42181387-1.806085 1.15011987-2.43953 2.32329337-4.925221 3.51183597-7.438482m4.0497539-8.552138c1.5029685.734744 3.0046562 1.553477 4.4820095 2.426707-1.2122366 2.436324-2.4135868 4.855978-3.5899621 7.228188-1.5497161-.759748-3.0571672-1.427814-4.5178707-1.998426 1.1981483-2.533777 2.4097445-5.092558 3.6258233-7.656469m4.9674164-10.449906c1.4709496 1.000175 2.9137224 2.099727 4.3110284 3.255698-1.4555804 2.91269-2.9201262 5.849101-4.3705836 8.764355-1.4811955-.87323-2.9886467-1.692604-4.49994-2.429913 1.5202586-3.204407 3.0456403-6.413302 4.5594952-9.59014m4.985347-10.434518c1.363366 1.372035 2.6927918 2.867168 3.9722682 4.423851-1.3748928 2.731888-2.7798833 5.534302-4.1957603 8.364926-1.473511-1.213674-2.9188454-2.306173-4.3308801-3.259545 1.5388297-3.228771 3.0629306-6.417149 4.5543722-9.529232m6.1175363-12.704147c1.2532208 1.873405 2.4206309 3.886578 3.5015899 5.968994-1.6368075 3.212741-3.3760757 6.649881-5.174899 10.22166-1.3595237-1.636825-2.6940726-3.110159-4.002366-4.407822 1.9678833-4.104565 3.8742903-8.06295 5.6756751-11.782832m7.5436593-15.391155c.250388.507781.4994953 1.035437.746041 1.591945.7325931 1.652853 1.4338076 3.880166 2.0972398 6.461387-1.7636025 3.326865-3.9255205 7.506442-6.3320631 12.22137-1.1546025-2.179868-2.3393028-4.153932-3.5521798-5.920908 2.6300347-5.423385 5.0244101-10.31142 7.0409621-14.353794m-5.4137602 36.497413c-1.0585458-1.466282-2.1030032-2.83447-3.1340126-4.109693 1.7636025-3.503819 3.456123-6.851199 5.0436214-9.970335 1.1315489 2.260011 2.1631987 4.583494 3.0955899 6.878768-1.3217413 2.569039-2.7414606 5.352219-4.2316214 8.289271-.2542303-.362243-.5116625-.725768-.7735773-1.088011m-7.7133596 5.017545c1.3947444-2.789591 2.7670757-5.524685 4.1009842-8.178354 1.3672082 1.708632 2.6710189 3.476249 3.8902997 5.227838-1.1481988 2.266422-2.3328991 4.615551-3.5419338 7.018536-1.5119337-1.482311-2.9950505-2.834471-4.4493501-4.06802m-4.7522493 9.525385c1.4453344-2.903072 2.8829843-5.786269 4.2995016-8.620098 1.5509969 1.320744 3.0392366 2.701114 4.4397445 4.081483-1.2698707 2.526725-2.5634353 5.107946-3.8640442 7.709683-1.5593217-1.080958-3.1954889-2.154223-4.8752019-3.171068m.6237287 11.696919c-1.1891829 2.390803-2.3687602 4.765578-3.5278454 7.103167-1.7520757-.992482-3.4542019-1.884304-5.0999747-2.663928 1.1814984-2.38888 2.3783659-4.805969 3.5816372-7.233317 1.7443911.883488 3.4362713 1.829807 5.0461829 2.794078m-4.6075236-3.678849c1.1834195-2.385674 2.3713218-4.777118 3.5566624-7.160227 1.6771515 1.019409 3.3113975 2.096521 4.8694385 3.180685-1.1270662 2.255523-2.2573344 4.521945-3.3811987 6.780033-1.727101-1.034156-3.4106562-1.971499-5.0449022-2.800491m26.9605773-40.266022c-1.3422335 2.482486-3.0136215 5.669583-4.914265 9.354843-1.0169211-2.452993-2.0594574-4.730956-3.1288896-6.826195 2.3284164-4.568107 4.4109274-8.606634 6.1329054-11.878361.6845646 2.849858 1.3249432 6.051059 1.9102492 9.349713m2.370041 8.554703c-.4079212-2.76651-.8619495-5.627908-1.3569622-8.430963 1.534347-2.83447 2.5775237-4.62581 2.9726373-5.049602l-.7018549-.656525c-.3746215.401994-1.265388 1.897768-2.539101 4.216123-.6051577-3.296731-1.2666687-6.470364-1.9762082-9.267648 2.2362019-4.216764 3.7577414-6.914031 4.2514732-7.442969l-.7012145-.655884c-.4950126.530221-1.8923186 2.97552-3.9056688 6.740923-.5987539-2.199744-1.2288864-4.114823-1.8865552-5.597775-.3592523-.811039-.7229874-1.564376-1.0873628-2.276039 3.0648518-6.120302 5.1678549-10.090228 5.7614859-10.726877l-.7018549-.656526c-.6205268.66486-2.6780631 4.525793-5.6084354 10.351812-1.0258864-1.862505-2.0530536-3.351868-3.0251482-4.550155-.1447256.329545-.2920127.664219-.4412209 1.004022.9477603 1.213033 1.9473912 2.720348 2.9406183 4.593752-2.0498517 4.093666-4.4858517 9.057996-7.1331766 14.513438-.8792398-1.220085-1.7738486-2.329254-2.6819054-3.334558-.1447255.332751-.2894511.664219-.4354574 1.000175.9099779 1.039926 1.7840946 2.166405 2.6210694 3.35828-1.8487729 3.813488-3.7936025 7.850733-5.7781356 11.989278-.8696341-.827709-1.727101-1.575276-2.573041-2.251676-.1331988.303258-.2676783.609081-.4015174.912339.8536246.69307 1.7008454 1.447048 2.5365394 2.2536-1.5356277 3.203124-3.0917476 6.460105-4.6433848 9.715162-.8574669-.552661-1.7021262-1.055313-2.5358991-1.510521-.1338391.299411-.2670378.596899-.4015173.896952.8427381.464184 1.6809937.968759 2.5115646 1.508597-1.5554794 3.264033-3.102634 6.51909-4.6158485 9.709392-.8331325-.387889-1.6637035-.741156-2.4910726-1.067495-.1331987.289153-.2657571.578307-.3983154.86746.8228864.323133 1.6508959.674477 2.4808265 1.061724-1.250019 2.637-2.4757035 5.223991-3.6604038 7.73084-.8549054-.315439-1.6886783-.584717-2.5115647-.833479-.14152366.301976-.28304732.602029-.42457098.902722.83697476.251326 1.67523028.522528 2.51092428.828991-1.2269653 2.595968-2.40718296 5.095764-3.5252839 7.466692-.88244164-.293-1.73862776-.53535-2.58264669-.754619-.14408517.298129-.28881073.596899-.4328959.892464.86066877.221833 1.72582019.477006 2.59097161.762313-1.41587697 3.003089-2.72288959 5.779216-3.88773817 8.255932-.99899054-.230169-1.96468139-.406482-2.90859937-.550738-.15689274.308388-.31378549.615493-.47003785.920674.97529653.142333 1.95955835.324416 2.94766246.546891-1.03869401 2.209361-1.94931231 4.148803-2.70880127 5.766394h1.06046688c.83825552-1.788134 1.70596846-3.635252 2.59929653-5.536867 1.4837571.368013 2.96943533.81104 4.43782334 1.312409-.73259306 1.485517-1.42484227 2.892173-2.08123028 4.224458h1.06815142c.63141325-1.282917 1.27243218-2.585068 1.92433754-3.907736 1.83084225.654602 3.62198105 1.386782 5.33947635 2.151018-.292653.59177-.5814637 1.175847-.8683533 1.756718h1.0681514c.2241325-.453926.4489054-.907852.6743186-1.364342.9829811.450079 1.9224164.907852 2.8394385 1.364342h2.8804227c1.038694-2.092033 2.0780284-4.184707 3.1141609-6.265841.8753975.577666 1.6995647 1.139944 2.4744227 1.681064l.4623533-.862331c-.7838233-.54689-1.6163154-1.115579-2.4987571-1.697733 1.165489-2.340153 2.3239338-4.662995 3.4676499-6.949934.9548044.661654 1.8404479 1.298945 2.6537287 1.898409l.4629937-.863612c-.8216057-.605876-1.7162146-1.248937-2.6767824-1.915079 1.0835205-2.165764 2.1523123-4.29883 3.1993313-6.381245.9989905.781547 1.9172933 1.523343 2.7459432 2.206155l.4649148-.866177c-.8382555-.688582-1.7642429-1.434226-2.7689968-2.217696 1.1296277-2.247829 2.2317192-4.432827 3.2979495-6.539606.9451987 1.066853 1.8045867 2.076645 2.5647161 2.993473l.4943722-.921316c-.7729369-.929008-1.6374479-1.941365-2.5858486-3.006936.9932272-1.9606 1.9525142-3.846827 2.8701767-5.643937.8568265 1.404092 1.618877 2.709449 2.280388 3.871832l.5385584-1.00274c-.6762398-1.178411-1.4472556-2.485691-2.3034417-3.878243 1.1104164-2.170251 2.1561546-4.202017 3.1212051-6.060676.6358959 1.955471 1.1789369 3.767967 1.634246 5.36953l.6576688-1.226497c-.4713186-1.625926-1.0233249-3.432011-1.6605016-5.357348 1.3556814-2.599814 2.5346183-4.821357 3.4913439-6.572945.3426025 2.438247.6455015 4.754037.9048549 6.833247l.793429-1.477823c-.2663975-2.095879-.5712177-4.386665-.9138202-6.773621.8856435-1.578482 1.5010473-2.583145 1.7840946-2.886403l-.7018549-.655884c-.2382208.255173-.6864858.955937-1.3031703 2.01702" fill="#cdddc0"/><path d="m160.209649 188.325846c-.459792.353267-1.347356 1.350236-2.272063 4.113541-1.771287 5.295798-4.170785 36.357645-3.877492 50.011317l-.552006-1.029026s-.030098.485341-.08453 1.371394l-.332997-.764878c-.349006-13.881917 2.085072-44.36161 3.936407-49.89463.881801-2.634436 1.77705-3.863497 2.434079-4.440521.161375.069884.293933.12951.384867.175031.078767.03975.203.200676.363735.457772" fill="#cdddc0"/><path d="m156.21452 235.984765c.395754-2.741506.837615-5.60034 1.31982-8.420064 1.308934 2.450429 2.900274 5.500963 4.702299 9.003499-.86387 2.150376-1.64129 4.274466-2.330977 6.295974-1.463265-2.792156-2.715206-5.130385-3.691142-6.879409m4.318712 8.080901c.67624-2.01702 1.443414-4.155214 2.300881-6.334442 1.272432 2.47928 2.63964 5.163083 4.079851 8.004606-1.107214 1.607333-2.142066 3.196072-3.087905 4.707875-1.173174-2.290785-2.277186-4.42898-3.292827-6.378039m3.807051 7.38142c.935593-1.507315 1.965322-3.103107 3.072536-4.726468 1.111057 2.195256 2.262458 4.477707 3.443316 6.826195-1.263467 1.264324-2.45265 2.524801-3.547057 3.733345-1.023965-2.020866-2.017193-3.971849-2.968795-5.833072m3.442035 6.766569c1.086722-1.205339 2.273344-2.469022 3.538091-3.742963 1.23529 2.457482 2.500678 4.982924 3.784637 7.551322-1.392823.983505-2.712643 1.961882-3.937047 2.902431-1.153962-2.29335-2.286792-4.540538-3.385681-6.71079m3.826261 7.585943c1.220562-.940549 2.539101-1.92149 3.930644-2.908201 1.107215 2.215131 2.225956 4.459114 3.350461 6.717842-1.432527.877077-2.79141 1.762488-4.056799 2.623536-1.084801-2.168969-2.163198-4.319986-3.224306-6.433177m3.665527 7.314742c1.260906-.858484 2.619149-1.743254 4.054877-2.623536 1.169972 2.351694 2.344426 4.716851 3.515679 7.07688-.026256.015387-.051871.028851-.078127.044238-1.406911.817451-2.751066 1.65093-4.017094 2.469022-1.156524-2.324125-2.318811-4.652737-3.475335-6.966604m3.913354 7.845604c1.283959-.830274 2.657571-1.67914 4.093299-2.51326 1.174455 2.368363 2.343145 4.729032 3.498388 7.065339-.053791.025004-.106943.047444-.161375.072448-1.445975.666784-2.829833 1.35216-4.125959 2.025355-1.088644-2.193333-2.193297-4.416158-3.304353-6.649882m4.927072-2.987061c1.639369-.929009 3.34918-1.829167 5.101896-2.656876 1.282038 2.593403 2.542943 5.148337 3.77311 7.644287-1.714293.618057-3.493905 1.338696-5.335634 2.160635-1.144356-2.31579-2.328416-4.706593-3.539372-7.148046m5.972171-3.057587c1.453659-.661013 2.928451-1.268812 4.408365-1.79198 1.321101 2.802414 2.610183 5.540072 3.852518 8.182842-1.430606.360961-2.911801.800782-4.449991 1.32972-1.191104-2.415807-2.47058-5.007927-3.810892-7.720582m3.985716-2.689573c-1.425483.506499-2.902196 1.113656-4.422455 1.806726-1.159085-2.344-2.362356-4.775194-3.593804-7.259603 1.477353-.721922 2.984164-1.393193 4.503782-1.984963 1.188543 2.51326 2.361716 4.998952 3.512477 7.43784m-3.935767-8.334151c-1.461344.570613-2.968795 1.239319-4.517871 1.999068-1.177015-2.372851-2.377725-4.791223-3.589962-7.228188 1.477354-.87323 2.978401-1.692604 4.481369-2.426707 1.216079 2.564551 2.427675 5.12205 3.626464 7.655827m-4.034385-8.516234c-1.511293.73795-3.018744 1.557324-4.49994 2.429912-1.450457-2.915254-2.914363-5.851665-4.370583-8.764354 1.397306-1.155331 2.840078-2.254882 4.311668-3.255057 1.513215 3.176197 3.038597 6.385092 4.558855 9.589499m-4.99047-10.494786c-1.412035.952731-2.857369 2.04523-4.33088 3.258904-1.415877-2.830624-2.820867-5.632396-4.19576-8.364926 1.279476-1.557323 2.608902-3.052457 3.972908-4.42321 1.490802 3.111442 3.014903 6.301103 4.553732 9.529232m-4.995593-10.451188c-1.308934 1.298304-2.643483 2.770998-4.003006 4.407823-1.798183-3.571138-3.538092-7.008278-5.174899-10.22102 1.081599-2.082416 2.248369-4.096871 3.50159-5.970276 1.801385 3.720523 3.707791 7.67955 5.676315 11.783473m-6.179013-12.820192c-1.212876 1.767617-2.396936 3.741039-3.552179 5.920908-2.406543-4.714287-4.567821-8.894506-6.331423-12.220729.662792-2.581862 1.364006-4.809175 2.096599-6.461387.246546-.557149.495653-1.084806.746041-1.593228 2.016552 4.043015 4.410928 8.93105 7.040962 14.354436m-2.400779 23.23163c-1.48952-2.937053-2.90988-5.719591-4.231621-8.28863.932391-2.295274 1.964681-4.618758 3.09559-6.87941 1.587498 3.119777 3.280019 6.465876 5.043621 9.969694-1.031009 1.275864-2.075467 2.643411-3.134012 4.110335-.261915.362884-.518707.725768-.773578 1.088011m4.037587 7.997553c-1.208394-2.402984-2.393735-4.752113-3.541293-7.017895 1.21864-1.752229 2.523091-3.519205 3.889659-5.227838 1.333909 2.652388 2.70624 5.388764 4.101625 8.177714-1.45494 1.233549-2.937417 2.58635-4.449991 4.068019m4.326398 8.628434c-1.300609-2.601097-2.594174-5.182959-3.863404-7.709042 1.399867-1.381011 2.888107-2.761381 4.439104-4.082125 1.417158 2.83383 2.854807 5.717027 4.299501 8.62074-1.679713 1.016845-3.315239 2.090109-4.875201 3.170427m9.297656 5.732413c1.203911 2.427989 2.400138 4.844438 3.581637 7.233959-1.645773.778982-3.347899 1.670164-5.099975 2.662645-1.158445-2.336947-2.338662-4.712363-3.527845-7.102525 1.609911-.964913 3.301792-1.911232 5.046183-2.794079m-5.483562 1.91572c-1.123864-2.258729-2.254132-4.525792-3.381199-6.780674 1.558682-1.084164 3.192287-2.160634 4.869439-3.179402 1.185341 2.381827 2.373243 4.773912 3.556662 7.159586-1.634246.828991-3.317161 1.766335-5.044902 2.80049m-20.005426-52.416225c1.721978 3.271085 3.804489 7.309612 6.132906 11.87772-1.069433 2.095879-2.111969 4.373842-3.12889 6.826194-1.900003-3.684619-3.572031-6.872356-4.913625-9.355483.585306-3.298013 1.225045-6.499215 1.909609-9.348431m-5.58346 15.886755-.701215.656525c.282407.302617.897811 1.307921 1.783454 2.885761-.341962 2.386957-.647422 4.678383-.91382 6.773622l.793429 1.478464c.259994-2.07921.562893-4.395642.904855-6.833248.956726 1.750948 2.135663 3.973132 3.491344 6.572946-.637177 1.924054-1.189183 3.731422-1.660502 5.357348l.657669 1.225855c.455309-1.601562.99835-3.413418 1.634246-5.370171.965051 1.8593 2.010789 3.891066 3.121205 6.061318-.856186 1.392551-1.627202 2.699831-2.302801 3.878243l.537918 1.002739c.661511-1.161742 1.424202-2.467098 2.281028-3.871831.917663 1.797109 1.87695 3.683978 2.869537 5.643295-.948401 1.066212-1.812912 2.078569-2.585849 3.008219l.494372.920674c.76013-.917468 1.619518-1.926619 2.564716-2.993473 1.066231 2.106779 2.168322 4.291777 3.29859 6.538965-1.005394.784112-1.931381 1.529755-2.769637 2.218337l.464915.866819c.82865-.683453 1.746953-1.42525 2.745943-2.206797 1.047019 2.083057 2.115811 4.216123 3.199331 6.381886-.960567.666143-1.854536 1.309204-2.676782 1.915079l.463634.862972c.812641-.599464 1.698284-1.236114 2.653729-1.897768 1.143076 2.286297 2.302161 4.60914 3.467009 6.949293-.882441.582153-1.714933 1.150201-2.498757 1.698374l.462994.86233c.774218-.54112 1.599025-1.104039 2.473782-1.680422 1.036133 2.080492 2.075467 4.172525 3.114802 6.264558h2.879782c.917022-.45649 1.857098-.914262 2.839438-1.364341.225414.45649.450186.910416.674319 1.364341h1.068151c-.286889-.58023-.5757-1.164306-.868353-1.756076 1.717495-.764878 3.508634-1.496416 5.339476-2.151659.651906 1.323308 1.292925 2.624818 1.924338 3.907735h1.068151c-.655747-1.331643-1.348637-2.7383-2.08123-4.224457 1.469028-.500729 2.954066-.943114 4.437823-1.312409.893329 1.901614 1.761041 3.749374 2.599297 5.536866h1.060467c-.758849-1.61695-1.670107-3.557033-2.708801-5.765753.988744-.223116 1.972366-.405199 2.947662-.547531-.156252-.304541-.313145-.612287-.469397-.920033-.944559.144256-1.91025.320569-2.90924.550096-1.164208-2.476074-2.471861-5.252201-3.887738-8.255932.865151-.284665 1.730302-.540479 2.590971-.761031-.144085-.296205-.28817-.595617-.432896-.893746-.844019.21991-1.700205.462261-2.582646.755261-1.118101-2.370928-2.298319-4.871366-3.525284-7.466692.835694-.306464 1.673949-.578306 2.510924-.829632-.141524-.299412-.283047-.600746-.424571-.902081-.822886.248761-1.656659.518039-2.510924.832838-1.185341-2.506208-2.411025-5.093199-3.661044-7.73084.830571-.385965 1.65794-.73795 2.480826-1.061725-.132558-.289153-.265117-.577665-.397675-.866818-.827369.326339-1.65858.679606-2.491713 1.067494-1.513214-3.190302-3.060369-6.446-4.615208-9.710032.82993-.539839 1.668186-1.043773 2.510924-1.507957-.134479-.299411-.267678-.598181-.401517-.897593-.833773.455208-1.678432.95786-2.535899 1.511162-1.551637-3.255057-3.107757-6.512037-4.642745-9.715803.835054-.805269 1.682275-1.559247 2.535899-2.252958-.133839-.3039-.268318-.609081-.401517-.911698-.84594.675759-1.703407 1.423326-2.573041 2.251035-1.984533-4.138545-3.929363-8.17579-5.778136-11.989919.837615-1.191876 1.711092-2.318355 2.62107-3.35828-.146007-.335315-.290732-.667425-.434817-.999534-.908057 1.005304-1.802666 2.113831-2.682546 3.334558-2.647325-5.455442-5.083325-10.420414-7.133177-14.514079.993227-1.873405 1.992858-3.380079 2.940619-4.593112-.149209-.339803-.296496-.675118-.441221-1.004022-.971454 1.198287-1.998622 2.68765-3.025148 4.549515-2.930373-5.82602-4.987909-9.686311-5.608436-10.351171l-.701855.655884c.593631.636009 2.696634 4.607217 5.762126 10.727519-.365015.711021-.72875 1.465-1.088003 2.275398-.657028 1.483593-1.287801 3.39803-1.885914 5.597774-2.013991-3.764761-3.411297-6.211343-3.905669-6.740923l-.216448.2026-.142164.914262c.493732.52958 1.672028 2.765869 3.90823 6.981991-.709539 2.797285-1.37105 5.971558-1.975568 9.267007-1.274353-2.317072-2.164479-3.812847-2.539741-4.21484l-.701855.655884c.395114.423792 1.43829 2.215131 2.972637 5.049602-.495012 2.803054-.949041 5.664452-1.356962 8.431603-.616684-1.061724-1.064949-1.761846-1.30317-2.01766" fill="#cdddc0"/></g><path d="m122 286h-32l11.191682-74h9.617269z" fill="#1bb24b"/><g transform="translate(73 166)"><path d="m41.4019294 45.0313449c0 4.1770113-5.368647 11.5306517-8.4395882 11.5306517-3.0715883 0-8.4402353-7.3536404-8.4402353-11.5306517 0-4.1770112 4.3598823-4.9839775 8.58-4.9839775 4.2207647 0 8.2998235.8069663 8.2998235 4.9839775" fill="#1ca345"/><path d="m55.8577412.07416404c.9537647 10.70191016-22.8955294 39.97301126-22.8955294 39.97301126l12.2391176 16.6817865s20.1604118-36.5735056 20.1604118-43.8125056z" fill="#efeff0"/><path d="m10.0666824.07416404c-.95441181 10.70191016 22.8955294 39.97301126 22.8955294 39.97301126l-12.2391177 16.6817865s-20.16041175-36.5735056-20.16041175-43.8125056z" fill="#efeff0"/><path d="m.56235882 12.916264c0 7.2396405 20.16041178 43.8125057 20.16041178 43.8125057l12.2391176-15.8863484 12.2391177 15.8863484s19.9035294-35.5430225 20.1610588-43.8125057" stroke="#cdddc0" stroke-width="1.5"/></g></g></svg>