<svg height="330" viewBox="0 0 230 330" width="230" xmlns="http://www.w3.org/2000/svg" xmlns:xlink="http://www.w3.org/1999/xlink"><mask id="a" fill="#fff"><path d="m0 305h193.936201v-304.99934829h-193.936201z" fill="#fff" fill-rule="evenodd"/></mask><mask id="b" fill="#fff"><path d="m.16543175.38219218h162.30403125v110.60631382h-162.30403125z" fill="#fff" fill-rule="evenodd"/></mask><g fill="none" fill-rule="evenodd"><g fill="#bbc0c5" transform="translate(33 279)"><path d="m19.3364944.09455128s-18.204492 6.78910257-19.170756 10.19166662c-.967568 3.4032052 3.99024 7.6006411 9.585704 10.7935898 5.594812 3.1935897 14.857124 5.1647436 15.917276 2.7384615 1.0595-2.426282-.485088-12.0448718-.485088-12.0448718z"/><path d="m143.399902.09455128s18.204492 6.78910257 19.170756 10.19166662c.967568 3.4032052-3.99024 7.6006411-9.585704 10.7935898-5.594812 3.1935897-14.857124 5.1647436-15.917276 2.7384615-1.0595-2.426282.485088-12.0448718.485088-12.0448718z"/></g><g transform="translate(18 25)"><path d="m47.7739973 255.06785h99.0968927l8.684429-38.533621s-1.798731-8.803943-16.018671-13.544477c-14.210174-4.744444-25.043577-9.564487-25.043577-19.679669v-26.630149h-17.1709529-17.171604v26.630149c0 10.115182-10.8321007 14.935225-25.0422752 19.679669-14.2199396 4.740534-16.0186711 13.544477-16.0186711 13.544477z" fill="#dcb995"/><path d="m159.317357 79.993484c0 49.338312-17.481483 89.62438-62.4263355 89.62438-44.9402953 0-61.5637517-40.768985-61.5637517-90.1072967 0-49.3480876 41.8239262-59.286656 62.3221745-59.286656 20.4988997 0 61.6679127 10.4214851 61.6679127 59.7695727" fill="#eecba1"/><path d="m79.0782409 150.882848c-3.4125771-1.164604-3.5720738-5.227361-3.5720738-5.227361s8.2365369-9.566442 21.8158859-8.966869c13.579349-.599573 21.816537 8.966869 21.816537 8.966869s-.160148 4.062757-3.572074 5.227361c-3.870235 1.322319-10.634846-3.922639-18.244463-3.922639-7.6089664 0-14.3735772 5.244958-18.2438121 3.922639m78.2724901-94.585192-3.644336 1.8469444c6.617484 16.7111325 2.18543 49.8961756-4.807684 71.6645726-4.23545 13.184081-12.055343 16.911859-18.590148 17.099551-4.255631.122522-10.252705-18.750983-32.98651-18.750983-22.7331543 0-28.7308792 18.873505-32.98651 18.750983-6.5354564-.187692-14.354047-3.91547-18.5894967-17.099551-6.9931141-21.768397-11.4251678-54.9534401-4.8076846-71.6645726l-3.6449865-1.8469444s-4.6247517 14.960641-1.9660403 37.8643162c2.6587114 22.9023718 4.3194295 48.7934828 18.526349 67.1488778 9.4545705 12.215641 18.8577114 19.602116 24.0931074 21.435374 4.6950604 4.095342 11.3125436 6.503408 19.3752617 6.503408 8.063369 0 14.680852-2.408066 19.375913-6.503408 5.235396-1.833258 14.637235-9.219733 24.093107-21.435374 14.20692-18.355395 15.867638-44.246506 18.526349-67.1488778 2.658712-22.9036752-1.966691-37.8643162-1.966691-37.8643162" fill="#895929"/><path d="m70.0684383 132.523608c0 1.801325-1.4582551 3.261154-3.2576376 3.261154-1.7987316 0-3.2569866-1.459829-3.2569866-3.261154 0-1.800673 3.2569866-5.987906 3.2569866-5.987906s3.2576376 4.187233 3.2576376 5.987906" fill="#53bde4"/><path d="m65.7624846 132.176116c.488906-.044967.9218255.315428.9667449.804862.0455705.489433-.3144362.92282-.8033423.96844-.489557.044968-.9224765-.315428-.9673959-.805513-.0449195-.489434.3150872-.922821.8039933-.967789" fill="#fff"/><path d="m83.5901732 153.224896s-.095047 5.036411 2.4555973 7.209861l1.1405637-3.697799s1.6835034 8.73812 8.243698 8.737468c4.9287718 0 7.7573958-4.767254 8.4233758-8.66969 0 0 1.111269 2.316827 1.51294 6.22969 0 0 1.803939-2.850577 2.643738-5.87516 0 0 .42055-.315427.42055 1.211528 0 0 2.209517-1.684669 1.893779-6.109124 0 0-6.260081-2.106325-8.942879-2.368964 0 0 .052731 1.421378-.841752 1.685321-.8938323.262639-1.3671142-.481614-1.3671142-.481614l-.4212013 2.797789-.4205504-1.000374s-1.2395168 1.369241-2.0923355.368868c-.8541209-1.001026-1.2746712-2.738483-1.2746712-2.738483l.3684698 2.211901s-1.5786913-.684946-1.9465101-2.843408c0 0-2.4725234.368216-5.3128657 1.685321-2.8409933 1.315801-4.4828322 1.646869-4.4828322 1.646869" fill="#a06833"/><path d="m83.5895221 154.528315c-.0384093.73578.0279933 1.468953.1204363 2.185834.099604.716228.2721208 1.415512.5136443 2.075694.2525906.656271.5969731 1.260406 1.0266376 1.771346.4342214.51094.977812.886977 1.554604 1.178942l-.8339396.359744c.1829329-.765759.3547987-1.533472.5507517-2.295321l.6653288-2.591196.678349 2.651154c.2369665.926731.6034832 1.897126 1.0272886 2.784754.4303155.892842.9146644 1.755053 1.5233557 2.494744 1.1867853 1.504797 2.807792 2.523418 4.6156376 2.593803 1.8566711.101667 3.7921141-.372126 5.2119599-1.507404 1.42896-1.132671 2.387892-2.857094 2.753107-4.743141l.929638-4.812874.747356 4.797885c.074865.48031.106765.901314.126946 1.3536.012369.447725.004557.895449-.039712 1.34969-.089839.899359-.281885 1.845641-.845006 2.718932l-.855423-1.01797c.593067-.254167 1.276624-.699936 1.824772-1.199797.564423-.506378 1.059188-1.098782 1.475832-1.751795.399718-.660182.760376-1.364679.988228-2.124573.14843-.369519.211577-.765106.32355-1.15157.08398-.391677.129551-.791175.207021-1.191325l.014322-.073643.038409-.025417c.100255-.066474.228503-.05344.31053.008473.075517.059957.107416.130341.134108.194861.046872.130993.062496.256121.07161.379946.016276.24765.001302.490737-.018228.732522-.024087-.241133-.052731-.482265-.110671-.711667-.028644-.114049-.066403-.226143-.118483-.316079-.02604-.043013-.059242-.079509-.083329-.088633-.018879-.007168-.029946.009124-.029946.009124l.05208-.098408c-.001302.411881.001953.827671-.020832 1.243462-.055336.411228-.058591.836143-.158846 1.245416-.14257.831582-.432268 1.637094-.785114 2.419797-.371725.775535-.873651 1.491763-1.460859 2.136956-.606087.647799-1.236913 1.206314-2.119027 1.649476l-1.95953.984733 1.104759-2.002703c.31053-.562425.439429-1.308633.455053-2.067222.01302-.379295-.011067-.767714-.044268-1.154178-.0319-.380598-.08398-.791827-.152987-1.133974l1.678296-.015641c-.326155 2.219722-1.387947 4.461603-3.246571 5.94359-.911409.7436-1.9849194 1.286474-3.1013959 1.603857-.5598658.155758-1.1294966.25938-1.6991275.314124-.2844899.044316-.5683289.031282-.8528188.048226-.2786309.022158-.5761409-.00391-.873-.032585-1.1880873-.032586-2.3592483-.475097-3.3754698-1.066197-1.0351007-.60218-1.8228188-1.482639-2.5024698-2.378739-.674443-.91109-1.2024094-1.895171-1.6001745-2.918355-.4023221-1.029701-.7141544-2.046368-.9185705-3.162094l1.3436779.060609c-.2382685.748814-.5006242 1.492414-.7506108 2.237318l-.2454295.727308-.5898121-.366912c-.6959261-.433387-1.3254496-.974958-1.7785503-1.64296-.4387785-.672564-.7362886-1.405737-.9224765-2.150641-.1835839-.746859-.2337114-1.507404-.232434-2.253611.0071857-.748162.0963736-1.489808.2578232-2.209295" fill="#744b20"/><path d="m148.432069 145.461017c-1.734282 5.757201-6.937778 12.794359-6.937778 12.794359l-2.008356-7.159028s.912711 8.255203.729778 9.260791c-.18163 1.004936-9.219557 9.870139-9.219557 9.870139l-.82157-2.741742s-.639289 3.381069-3.195141 6.488419c-2.556503 3.107351-12.050785 6.281827-12.050785 6.281827l-.638638-2.101763s-1.003852 2.74109-2.099496 4.203526c-1.096296 1.461784-3.378074 1.553675-3.378074 1.553675.73108-5.300352.10351-7.712329.10351-7.712329s-.468725 5.141335-2.385289 7.699947c-1.917866 2.559262-8.4904294 1.783077-8.4904294 1.783077l-.7180604-4.036689c-.4055772 3.491859-3.8682819 5.452201-7.6434698 2.820599-3.7758389-2.631603-4.561604-6.908772-4.561604-6.908772.1341074 4.02952 2.2804765 8.8639 2.2804765 8.8639-4.6957114-.940417-5.6338121-5.774797-5.6338121-5.774797s-9.019047-2.327254-12.4771946-5.506293c-8.3862685-7.709722-6.881792-18.643451-6.881792-18.643451l-3.2550335 7.651069c-7.2496107-5.619039-13.7473087-19.720075-17.8961745-30.471325 2.5467382 10.069562 6.3642416 19.578002 12.6002349 27.633782 9.4545705 12.216293 18.8577114 19.602115 24.0931074 21.436026 4.6944094 4.095342 11.3118926 6.503408 19.3752617 6.503408 8.0633688 0 14.6808528-2.408066 19.3759128-6.503408 5.235396-1.833911 14.637235-9.219733 24.093107-21.436026 5.270551-6.810363 8.812678-14.6589 11.321007-23.006645-1.570228 2.401549-3.029785 4.998611-3.680141 7.157724" fill="#744b20"/><path d="m0 305h24.6529732l22.7663557-49.932019c-.8801611-17.285289-6.1604766-27.279252-11.1380739-32.930225z" fill="#eecba1" mask="url(#a)"/><path d="m153.084489 212.284823c-11.100967 17.868568-6.568007 42.782767-6.568007 42.782767l22.767007 49.932671h24.652973l-38.735551-88.465641s-.376281-1.820876-2.116422-4.249797" fill="#eecba1" mask="url(#a)"/><path d="m114.083848 13.750156c0 9.3937393-9.517718 20.266859-18.9006775 20.266859-9.3829598 0-18.9006779-10.8731197-18.9006779-20.266859 0-9.39308762 9.5177181-13.74976497 18.9006779-13.74976497 9.3829595 0 18.9006775 4.35667735 18.9006775 13.74976497" fill="#94662e" mask="url(#a)"/><path d="m105.388677 1.91882799c2.129443 1.94470086 4.619544 4.60106838 4.77253 6.51122863.270819 3.37259618-2.207563 4.80635688-3.174959 4.06992518-.968047-.7364316-2.633322-5.54344013-2.633322-5.54344013s.309879 3.99302353-1.122336 3.99302353c-1.433517 0-4.840886-7.63607909-4.840886-7.63607909s1.853416 10.66001069-1.067651 11.74510679c-2.9204161 1.0857479-6.1337852-1.5504166-6.1337852-1.5504166s-.387349 3.4494978-1.936745 1.5504166c-1.5487449-1.8990811-1.2004564-5.62099354-1.2004564-5.62099354s-2.1294429 2.69221154-1.6646241 6.19189104c.4641678 3.4990278-4.8792953 3.0728098-5.5374631-.5708975-.6581678-3.6437072 2.2069127-7.75208328 4.4144765-9.9229273 0 0-5.4599933 1.27865384-6.4280403 7.0932051-.9673959 5.8145513-2.1652483 4.0836111-2.0519731.8530876.0429664-1.2343376.2285033-2.7228418.4407315-4.09273501-.6060872 1.41225431-.9420067 2.99786321-.9420067 4.76073721 0 5.3401068 3.0779597 11.1553098 7.4559799 15.1828739l22.149852.6530128c4.767973-4.0327778 8.196175-10.1992521 8.196175-15.8358867 0-5.83084405-3.669074-9.71959405-8.695497-11.83113251" fill="#835526" mask="url(#a)"/></g><g transform="translate(53 42)"><path d="m78.0287853 129.621693c-5.404712-3.337537-11.190513-3.818995-17.0555183-3.742562-5.8981152 0-11.5508272.745377-17.1710785 3.742562 2.0651518-2.479145 7.8834136-6.813567 17.1425131-6.813567 9.2590994 0 15.2033089 4.165879 17.0840837 6.813567" fill="#494032"/><path d="m46.8772586 94.1284271c0 6.7920099-5.5390994 12.3023119-12.3616963 12.3023119-6.829089 0-12.3565026-5.510302-12.3565026-12.3023119 0-6.7933165 5.5274136-12.3003517 12.3565026-12.3003517 6.8225969 0 12.3616963 5.5070352 12.3616963 12.3003517" fill="#5a7b44"/><path d="m43.6977298 94.1252261c0 4.7401005-3.8245235 8.5911059-8.5332774 8.5911059-4.7126493 0-8.5319791-3.8510054-8.5319791-8.5911059 0-4.7322613 3.8193298-8.5832663 8.5319791-8.5832663 4.7087539 0 8.5332774 3.851005 8.5332774 8.5832663" fill="#2a1d01"/><path d="m31.5693613 89.6767437c0 1.3692462-1.1075603 2.489598-2.4657173 2.489598-1.3627016 0-2.470911-1.1203518-2.470911-2.489598s1.1082094-2.4784924 2.470911-2.4784924c1.358157 0 2.4657173 1.1092462 2.4657173 2.4784924" fill="#fff"/><path d="m77.116444 94.1284271c0 6.7920099 5.5384502 12.3023119 12.3616963 12.3023119 6.8284398 0 12.3565027-5.510302 12.3565027-12.3023119 0-6.7933165-5.5280629-12.3003517-12.3565027-12.3003517-6.8232461 0-12.3616963 5.5070352-12.3616963 12.3003517" fill="#5a7b44"/><path d="m80.2959079 94.1252261c0 4.7401005 3.8245235 8.5911059 8.5332774 8.5911059 4.7126493 0 8.5313299-3.8510054 8.5313299-8.5911059 0-4.7322613-3.8186806-8.5832663-8.5313299-8.5832663-4.7087539 0-8.5332774 3.851005-8.5332774 8.5832663" fill="#2a1d01"/><path d="m80.7790534 89.6767437c0 1.3692462 1.1075602 2.489598 2.4657173 2.489598 1.3633508 0 2.470911-1.1203518 2.470911-2.489598s-1.1075602-2.4784924-2.470911-2.4784924c-1.3581571 0-2.4657173 1.1092462-2.4657173 2.4784924" fill="#fff"/><path d="m122.532905 43.5053819c-3.476545-35.57035175-41.6730893-43.22402009-60.2704924-43.22402009-18.5974032 0-56.79329846 7.64386935-60.2711414 43.22402009-3.68429319 37.7013065 1.17702618 28.8802513 1.17702618 28.8802513s7.14071202-25.2872865 60.76649212-25.4845729c53.6011095.1972864 57.4217385 25.4845729 57.4217385 25.4845729s4.86067 8.8210552 1.176377-28.8802513" fill="#a27135"/></g><g transform="translate(33 46)"><path d="m141.559724 68.4248708s4.873143 8.8157517 1.179238-28.8628874c-.531699-5.426685-1.878191-10.1998436-3.838381-14.3984735 1.247571 7.9892138 2.093603 14.4853057.52454 14.0478804-2.039588-.568-2.946143-7.6157701-8.157699-16.5947402-5.211555-8.979623-16.08892-16.93619309-16.08892-16.93619309 12.34946 9.88842299 13.936095 28.87072189 13.936095 28.87072189s-7.931222-.5686529-10.423762-11.5943817c-2.49254-11.0244229-16.202159-21.48215168-16.202159-21.48215168 5.438032 4.77446437 8.951016 20.80055168 5.665159 21.82360458s-7.753556-5.0010115-7.753556-5.0010115c.522588 12.4555219-16.1240631 19.5091678-16.7592377 5.4292966-.6364762-14.07921842-8.1043334-23.63402302-8.1043334-23.63402302.1731111 9.58157242-2.7203174 23.95327812-2.7203174 23.95327812-13.0529683 6.7069702-12.7340794-8.623154-15.5995238-8.623154-2.8647937 0-4.1383969 6.7069701-8.9184762 6.0678069-4.7787778-.6378575-1.6920635-11.3090758-1.6920635-11.3090758-11.5665556 9.7696-9.7638572 24.0845057-11.0374603 29.5699494-1.2736032 5.4847908-8.2774445 5.6930575-8.2774445 5.6930575 0-20.6229702 10.2031429-33.5498667 19.8082064-41.15127361-12.628 6.30675861-23.4207619 17.16926901-25.1948254 35.26888271-3.693254 37.6786391 1.1798889 28.8628874 1.1798889 28.8628874s7.1580793-25.2720828 60.9149365-25.4692506c53.7301744.1971678 57.5600954 25.4692506 57.5600954 25.4692506" fill="#94662e"/><path d="m141.828502 68.4248708s2.432666 4.3984092 2.557619-6.3178575c-.382667 1.5675495-.733445 3.0254161-.847334 3.5692598-.289603 1.3801747-1.448666.6541793-2.317476-9.5156322-.868809-10.1691586-1.882095-13.2200368-1.882095-13.2200368.941047 11.4043954-2.607079 8.8621058-3.693254 8.716515-1.086175-.144938-2.027222-4.2129931-2.606429-15.4724506-.579857-11.2588046-7.458095-18.8863264-7.458095-18.8863264 8.329508 13.2833655 6.082318 31.9620781 6.082318 31.9620781-4.634302-3.5601195-9.050588-5.2301701-9.050588-5.2301701l-1.593793-6.8284046c-.795921 6.9733425-5.864302 7.0464644-5.647588-4.3592368.217365-11.4057011-4.561412-21.4273103-4.561412-21.4273103 2.678666 12.2028598 1.086174 26.5131954 1.086174 26.5131954-.43473-5.5931678-3.309286-8.9939862-3.309286-8.9939862 0 6.8186115.242096 11.4461793-7.040285 10.2285701-7.283032-1.2182621-20.6353653-1.4617839-20.6353653-1.4617839.7288889-25.3282299-2.9129524-27.5199264-2.9129524-27.5199264.4854921 8.2810482-1.4564762 27.7634482-1.4564762 27.7634482-9.710492 0-24.2759047 4.1398713-24.2759047 4.1398713l-1.2137302-7.3056552s-1.207873 12.9288552-6.0699524 9.4980046c-4.8614285-3.4301977 0-29.9551448 0-29.9551448-5.8259047 14.1255724-3.8832857 31.6597977-3.8832857 31.6597977-11.4103651 5.6016552-16.5086825 13.3950069-16.5086825 13.3950069-2.1235397-6.5254713-.9807461-20.6242759.4900476-32.0626207-1.4558254 3.6600092-2.4639048 7.7274115-2.9070952 12.247908-3.693254 37.6786391 1.1798888 28.8628874 1.1798888 28.8628874s7.1580794-25.2720828 60.9149365-25.4692506c53.7301747.1971678 57.5600957 25.4692506 57.5600957 25.4692506" fill="#835526"/><path d="m.81603016 242.899585c-.02342857.045049-.03188889.073775-.03188889.073775s.01301587-.030032.03188889-.073775" fill="#ebebec"/><path d="m137.01367 11.660583c-1.099191-.8670161-28.805429-11.27839082-28.805429-11.27839082-3.095174 4.68436782-13.5065712 13.35909882-26.8907934 13.36040462-13.3842222-.0013058-23.795619-8.6760368-26.8907936-13.36040462 0 0-27.7062381 10.41137472-28.8054286 11.27839082-1.0777143.8506942-24.5284127 56.0446253-25.45579365 58.2278345.14252381-.2833472.91501587-1.2900782 4.63820635-1.141223 4.32387301.1736644 22.4354603 8.1563494 20.8175873 14.922731l6.1649683-14.4017379 3.9067142 41.7205794h91.2490791l3.906715-41.7205794 6.164968 14.4017379c-1.617873-6.7663816 16.493714-14.7490666 20.816936-14.922731 3.723842-.1488552 4.495683.8578758 4.638857 1.141223-.92738-2.1832092-24.378079-57.3771403-25.455793-58.2278345" fill="#ebebec" mask="url(#b)" transform="translate(.650794 173.011494)"/><path d="m163.120387 242.899585c.018223.043743.031889.073775.031889.073775s-.009111-.028726-.031889-.073775" fill="#ebebec"/><g fill="#5292a8"><path d="m7.92900952 226.244258c0 .678336.54861905 1.228056 1.22479365 1.228056.67617461 0 1.22479363-.54972 1.22479363-1.228056 0-.678988-.54861902-1.228708-1.22479363-1.228708-.33450793 0-.63647619.134492-.85774603.352552-.12169841.285306-.24469841.570612-.36444444.852 0 .008487-.00260318.015669-.00260318.024156"/><path d="m9.15367302 236.157229c-.67617461 0-1.22479365.550373-1.22479365 1.228708 0 .678336.54861904 1.228709 1.22479365 1.228709.6761746 0 1.22479368-.550373 1.22479368-1.228709 0-.678335-.54861908-1.228708-1.22479368-1.228708"/><path d="m19.9979127 199.609106c.6761746 0 1.2247936-.550372 1.2247936-1.228708 0-.51577-.3169365-.955807-.7659841-1.137958-.3201905.728606-.6481905 1.4768-.984 2.243273.1594445.077039.3364603.123393.5251905.123393"/><path d="m20.0011016 208.294087c-.6761746 0-1.2247937.54972-1.2247937 1.228056 0 .678335.5486191 1.228708 1.2247937 1.228708s1.2247936-.550373 1.2247936-1.228708c0-.678336-.548619-1.228056-1.2247936-1.228056"/><path d="m20.0011016 219.435636c-.6761746 0-1.2247937.550372-1.2247937 1.228708s.5486191 1.228055 1.2247937 1.228055 1.2247936-.549719 1.2247936-1.228055-.548619-1.228708-1.2247936-1.228708"/><path d="m20.0011016 230.577837c-.6761746 0-1.2247937.54972-1.2247937 1.228055 0 .678336.5486191 1.228708 1.2247937 1.228708s1.2247936-.550372 1.2247936-1.228708c0-.678335-.548619-1.228055-1.2247936-1.228055"/><path d="m20.0011016 241.719451c-.6761746 0-1.2247937.550372-1.2247937 1.228708s.5486191 1.228055 1.2247937 1.228055 1.2247936-.549719 1.2247936-1.228055-.548619-1.228708-1.2247936-1.228708"/><path d="m30.5091413 182.844097c.1145397.035908.2342857.060717.3611904.060717.4581588 0 .8525397-.255274 1.0627461-.62937-.4991588.198473-.9748889.388459-1.4239365.568653"/><path d="m30.8485302 191.58973c-.6761746 0-1.2247937.550372-1.2247937 1.228708 0 .678335.5486191 1.228708 1.2247937 1.228708s1.2241428-.550373 1.2241428-1.228708c0-.678336-.5479682-1.228708-1.2241428-1.228708"/><path d="m30.8485302 202.731931c-.6761746 0-1.2247937.54972-1.2247937 1.228708 0 .678336.5486191 1.228055 1.2247937 1.228055s1.2241428-.549719 1.2241428-1.228055c0-.678988-.5479682-1.228708-1.2241428-1.228708"/><path d="m30.8485302 213.87348c-.6761746 0-1.2247937.550372-1.2247937 1.228708 0 .678335.5486191 1.228708 1.2247937 1.228708s1.2241428-.550373 1.2241428-1.228708c0-.678336-.5479682-1.228708-1.2241428-1.228708"/><path d="m30.8485302 225.015681c-.6761746 0-1.2247937.549719-1.2247937 1.228055s.5486191 1.228708 1.2247937 1.228708 1.2241428-.550372 1.2241428-1.228708-.5479682-1.228055-1.2241428-1.228055"/><path d="m30.8485302 236.157229c-.6761746 0-1.2247937.550373-1.2247937 1.228708 0 .678336.5486191 1.228709 1.2247937 1.228709s1.2241428-.550373 1.2241428-1.228709c0-.678335-.5479682-1.228708-1.2241428-1.228708"/><path d="m29.6238016 248.498694c0 .088791.0104127.17497.0279841.257885l.5564286-1.301177c-.3494762.216754-.5844127.601297-.5844127 1.043292"/><path d="m41.6958937 186.010337c-.6761747 0-1.2247937.54972-1.2247937 1.228056 0 .678335.548619 1.228708 1.2247937 1.228708.6761746 0 1.2241428-.550373 1.2241428-1.228708 0-.678336-.5479682-1.228056-1.2241428-1.228056"/><path d="m41.6958937 197.151886c-.6761747 0-1.2247937.550372-1.2247937 1.228708s.548619 1.228708 1.2247937 1.228708c.6761746 0 1.2241428-.550372 1.2241428-1.228708s-.5479682-1.228708-1.2241428-1.228708"/><path d="m41.6958937 208.294087c-.6761747 0-1.2247937.54972-1.2247937 1.228056 0 .678335.548619 1.228708 1.2247937 1.228708.6761746 0 1.2241428-.550373 1.2241428-1.228708 0-.678336-.5479682-1.228056-1.2241428-1.228056"/><path d="m41.6958937 219.435636c-.6761747 0-1.2247937.550372-1.2247937 1.228708s.548619 1.228055 1.2247937 1.228055c.6761746 0 1.2241428-.549719 1.2241428-1.228055s-.5479682-1.228708-1.2241428-1.228708"/><path d="m41.6958937 230.577837c-.6761747 0-1.2247937.54972-1.2247937 1.228055 0 .678336.548619 1.228708 1.2247937 1.228708.6761746 0 1.2241428-.550372 1.2241428-1.228708 0-.678335-.5479682-1.228055-1.2241428-1.228055"/><path d="m41.6958937 241.719451c-.6761747 0-1.2247937.550372-1.2247937 1.228708s.548619 1.228055 1.2247937 1.228055c.6761746 0 1.2241428-.549719 1.2241428-1.228055s-.5479682-1.228708-1.2241428-1.228708"/><path d="m41.6958937 252.861c-.6761747 0-1.2247937.550372-1.2247937 1.228708 0 .678335.548619 1.228708 1.2247937 1.228708.6761746 0 1.2241428-.550373 1.2241428-1.228708 0-.678336-.5479682-1.228708-1.2241428-1.228708"/><path d="m41.6958937 264.003201c-.6761747 0-1.2247937.549719-1.2247937 1.228708 0 .678336.548619 1.228055 1.2247937 1.228055.6761746 0 1.2241428-.549719 1.2241428-1.228055 0-.678989-.5479682-1.228708-1.2241428-1.228708"/><path d="m41.6958937 275.144749c-.6761747 0-1.2247937.550373-1.2247937 1.228708 0 .678336.548619 1.228709 1.2247937 1.228709.6761746 0 1.2241428-.550373 1.2241428-1.228709 0-.678335-.5479682-1.228708-1.2241428-1.228708"/><path d="m52.5433222 180.448116c-.6761746 0-1.2247936.550372-1.2247936 1.228708s.548619 1.228055 1.2247936 1.228055 1.2241429-.549719 1.2241429-1.228055-.5479683-1.228708-1.2241429-1.228708"/><path d="m52.5433222 191.58973c-.6761746 0-1.2247936.550372-1.2247936 1.228708 0 .678335.548619 1.228708 1.2247936 1.228708s1.2241429-.550373 1.2241429-1.228708c0-.678336-.5479683-1.228708-1.2241429-1.228708"/><path d="m52.5433222 202.731931c-.6761746 0-1.2247936.54972-1.2247936 1.228708 0 .678336.548619 1.228055 1.2247936 1.228055s1.2241429-.549719 1.2241429-1.228055c0-.678988-.5479683-1.228708-1.2241429-1.228708"/><path d="m52.5433222 213.87348c-.6761746 0-1.2247936.550372-1.2247936 1.228708 0 .678335.548619 1.228708 1.2247936 1.228708s1.2241429-.550373 1.2241429-1.228708c0-.678336-.5479683-1.228708-1.2241429-1.228708"/><path d="m52.5433222 225.015681c-.6761746 0-1.2247936.549719-1.2247936 1.228055s.548619 1.228708 1.2247936 1.228708 1.2241429-.550372 1.2241429-1.228708-.5479683-1.228055-1.2241429-1.228055"/><path d="m52.5433222 236.157229c-.6761746 0-1.2247936.550373-1.2247936 1.228708 0 .678336.548619 1.228709 1.2247936 1.228709s1.2241429-.550373 1.2241429-1.228709c0-.678335-.5479683-1.228708-1.2241429-1.228708"/><path d="m52.5433222 247.299431c-.6761746 0-1.2247936.549719-1.2247936 1.228055s.548619 1.228708 1.2247936 1.228708 1.2241429-.550372 1.2241429-1.228708-.5479683-1.228055-1.2241429-1.228055"/><path d="m52.5433222 258.441045c-.6761746 0-1.2247936.550372-1.2247936 1.228708 0 .678335.548619 1.228055 1.2247936 1.228055s1.2241429-.54972 1.2241429-1.228055c0-.678336-.5479683-1.228708-1.2241429-1.228708"/><path d="m52.5433222 269.583246c-.6761746 0-1.2247936.54972-1.2247936 1.228055 0 .678336.548619 1.228708 1.2247936 1.228708s1.2241429-.550372 1.2241429-1.228708c0-.678335-.5479683-1.228055-1.2241429-1.228055"/><path d="m52.5433222 280.724794c-.6761746 0-1.2247936.550373-1.2247936 1.228709 0 .678335.548619 1.228055 1.2247936 1.228055s1.2241429-.54972 1.2241429-1.228055c0-.678336-.5479683-1.228709-1.2241429-1.228709"/><path d="m63.3907508 197.151886c-.6761746 0-1.2247937.550372-1.2247937 1.228708s.5486191 1.228708 1.2247937 1.228708 1.2241429-.550372 1.2241429-1.228708-.5479683-1.228708-1.2241429-1.228708"/><path d="m63.3907508 208.294087c-.6761746 0-1.2247937.54972-1.2247937 1.228056 0 .678335.5486191 1.228708 1.2247937 1.228708s1.2241429-.550373 1.2241429-1.228708c0-.678336-.5479683-1.228056-1.2241429-1.228056"/><path d="m63.3907508 219.435636c-.6761746 0-1.2247937.550372-1.2247937 1.228708s.5486191 1.228055 1.2247937 1.228055 1.2241429-.549719 1.2241429-1.228055-.5479683-1.228708-1.2241429-1.228708"/><path d="m63.3907508 230.577837c-.6761746 0-1.2247937.54972-1.2247937 1.228055 0 .678336.5486191 1.228708 1.2247937 1.228708s1.2241429-.550372 1.2241429-1.228708c0-.678335-.5479683-1.228055-1.2241429-1.228055"/><path d="m63.3907508 241.719451c-.6761746 0-1.2247937.550372-1.2247937 1.228708s.5486191 1.228055 1.2247937 1.228055 1.2241429-.549719 1.2241429-1.228055-.5479683-1.228708-1.2241429-1.228708"/><path d="m63.3907508 252.861c-.6761746 0-1.2247937.550372-1.2247937 1.228708 0 .678335.5486191 1.228708 1.2247937 1.228708s1.2241429-.550373 1.2241429-1.228708c0-.678336-.5479683-1.228708-1.2241429-1.228708"/><path d="m63.3907508 264.003201c-.6761746 0-1.2247937.549719-1.2247937 1.228708 0 .678336.5486191 1.228055 1.2247937 1.228055s1.2241429-.549719 1.2241429-1.228055c0-.678989-.5479683-1.228708-1.2241429-1.228708"/><path d="m63.3907508 275.144749c-.6761746 0-1.2247937.550373-1.2247937 1.228708 0 .678336.5486191 1.228709 1.2247937 1.228709s1.2241429-.550373 1.2241429-1.228709c0-.678335-.5479683-1.228708-1.2241429-1.228708"/><path d="m74.2381143 202.731931c-.6761746 0-1.2247937.54972-1.2247937 1.228708 0 .678336.5486191 1.228055 1.2247937 1.228055s1.2241428-.549719 1.2241428-1.228055c0-.678988-.5479682-1.228708-1.2241428-1.228708"/><path d="m74.2381143 213.87348c-.6761746 0-1.2247937.550372-1.2247937 1.228708 0 .678335.5486191 1.228708 1.2247937 1.228708s1.2241428-.550373 1.2241428-1.228708c0-.678336-.5479682-1.228708-1.2241428-1.228708"/><path d="m74.2381143 225.015681c-.6761746 0-1.2247937.549719-1.2247937 1.228055s.5486191 1.228708 1.2247937 1.228708 1.2241428-.550372 1.2241428-1.228708-.5479682-1.228055-1.2241428-1.228055"/><path d="m74.2381143 236.157229c-.6761746 0-1.2247937.550373-1.2247937 1.228708 0 .678336.5486191 1.228709 1.2247937 1.228709s1.2241428-.550373 1.2241428-1.228709c0-.678335-.5479682-1.228708-1.2241428-1.228708"/><path d="m74.2381143 247.299431c-.6761746 0-1.2247937.549719-1.2247937 1.228055s.5486191 1.228708 1.2247937 1.228708 1.2241428-.550372 1.2241428-1.228708-.5479682-1.228055-1.2241428-1.228055"/><path d="m74.2381143 258.441045c-.6761746 0-1.2247937.550372-1.2247937 1.228708 0 .678335.5486191 1.228055 1.2247937 1.228055s1.2241428-.54972 1.2241428-1.228055c0-.678336-.5479682-1.228708-1.2241428-1.228708"/><path d="m74.2381143 269.583246c-.6761746 0-1.2247937.54972-1.2247937 1.228055 0 .678336.5486191 1.228708 1.2247937 1.228708s1.2241428-.550372 1.2241428-1.228708c0-.678335-.5479682-1.228055-1.2241428-1.228055"/><path d="m74.2381143 280.724794c-.6761746 0-1.2247937.550373-1.2247937 1.228709 0 .678335.5486191 1.228055 1.2247937 1.228055s1.2241428-.54972 1.2241428-1.228055c0-.678336-.5479682-1.228709-1.2241428-1.228709"/><path d="m85.0855429 197.151886c-.6768254 0-1.2247937.550372-1.2247937 1.228708s.5479683 1.228708 1.2247937 1.228708c.6761746 0 1.2241428-.550372 1.2241428-1.228708s-.5479682-1.228708-1.2241428-1.228708"/><path d="m85.0855429 208.294087c-.6768254 0-1.2247937.54972-1.2247937 1.228056 0 .678335.5479683 1.228708 1.2247937 1.228708.6761746 0 1.2241428-.550373 1.2241428-1.228708 0-.678336-.5479682-1.228056-1.2241428-1.228056"/><path d="m85.0855429 219.435636c-.6768254 0-1.2247937.550372-1.2247937 1.228708s.5479683 1.228055 1.2247937 1.228055c.6761746 0 1.2241428-.549719 1.2241428-1.228055s-.5479682-1.228708-1.2241428-1.228708"/><path d="m85.0855429 230.577837c-.6768254 0-1.2247937.54972-1.2247937 1.228055 0 .678336.5479683 1.228708 1.2247937 1.228708.6761746 0 1.2241428-.550372 1.2241428-1.228708 0-.678335-.5479682-1.228055-1.2241428-1.228055"/><path d="m85.0855429 241.719451c-.6768254 0-1.2247937.550372-1.2247937 1.228708s.5479683 1.228055 1.2247937 1.228055c.6761746 0 1.2241428-.549719 1.2241428-1.228055s-.5479682-1.228708-1.2241428-1.228708"/><path d="m85.0855429 252.861c-.6768254 0-1.2247937.550372-1.2247937 1.228708 0 .678335.5479683 1.228708 1.2247937 1.228708.6761746 0 1.2241428-.550373 1.2241428-1.228708 0-.678336-.5479682-1.228708-1.2241428-1.228708"/><path d="m85.0855429 264.003201c-.6768254 0-1.2247937.549719-1.2247937 1.228708 0 .678336.5479683 1.228055 1.2247937 1.228055.6761746 0 1.2241428-.549719 1.2241428-1.228055 0-.678989-.5479682-1.228708-1.2241428-1.228708"/><path d="m85.0855429 275.144749c-.6768254 0-1.2247937.550373-1.2247937 1.228708 0 .678336.5479683 1.228709 1.2247937 1.228709.6761746 0 1.2241428-.550373 1.2241428-1.228709 0-.678335-.5479682-1.228708-1.2241428-1.228708"/><path d="m95.9323206 191.58973c-.6761746 0-1.2241428.550372-1.2241428 1.228708 0 .678335.5479682 1.228708 1.2241428 1.228708.6768254 0 1.2247937-.550373 1.2247937-1.228708 0-.678336-.5479683-1.228708-1.2247937-1.228708"/><path d="m95.9323206 202.731931c-.6761746 0-1.2241428.54972-1.2241428 1.228708 0 .678336.5479682 1.228055 1.2241428 1.228055.6768254 0 1.2247937-.549719 1.2247937-1.228055 0-.678988-.5479683-1.228708-1.2247937-1.228708"/><path d="m95.9323206 213.87348c-.6761746 0-1.2241428.550372-1.2241428 1.228708 0 .678335.5479682 1.228708 1.2241428 1.228708.6768254 0 1.2247937-.550373 1.2247937-1.228708 0-.678336-.5479683-1.228708-1.2247937-1.228708"/><path d="m95.9323206 225.015681c-.6761746 0-1.2241428.549719-1.2241428 1.228055s.5479682 1.228708 1.2241428 1.228708c.6768254 0 1.2247937-.550372 1.2247937-1.228708s-.5479683-1.228055-1.2247937-1.228055"/><path d="m95.9323206 236.157229c-.6761746 0-1.2241428.550373-1.2241428 1.228708 0 .678336.5479682 1.228709 1.2241428 1.228709.6768254 0 1.2247937-.550373 1.2247937-1.228709 0-.678335-.5479683-1.228708-1.2247937-1.228708"/><path d="m95.9323206 247.299431c-.6761746 0-1.2241428.549719-1.2241428 1.228055s.5479682 1.228708 1.2241428 1.228708c.6768254 0 1.2247937-.550372 1.2247937-1.228708s-.5479683-1.228055-1.2247937-1.228055"/><path d="m95.9323206 258.441045c-.6761746 0-1.2241428.550372-1.2241428 1.228708 0 .678335.5479682 1.228055 1.2241428 1.228055.6768254 0 1.2247937-.54972 1.2247937-1.228055 0-.678336-.5479683-1.228708-1.2247937-1.228708"/><path d="m95.9323206 269.583246c-.6761746 0-1.2241428.54972-1.2241428 1.228055 0 .678336.5479682 1.228708 1.2241428 1.228708.6768254 0 1.2247937-.550372 1.2247937-1.228708 0-.678335-.5479683-1.228055-1.2247937-1.228055"/><path d="m95.9323206 280.724794c-.6761746 0-1.2241428.550373-1.2241428 1.228709 0 .678335.5479682 1.228055 1.2241428 1.228055.6768254 0 1.2247937-.54972 1.2247937-1.228055 0-.678336-.5479683-1.228709-1.2247937-1.228709"/><path d="m106.780335 186.010337c-.676825 0-1.224794.54972-1.224794 1.228056 0 .678335.547969 1.228708 1.224794 1.228708.676175 0 1.224143-.550373 1.224143-1.228708 0-.678336-.547968-1.228056-1.224143-1.228056"/><path d="m106.780335 197.151886c-.676825 0-1.224794.550372-1.224794 1.228708s.547969 1.228708 1.224794 1.228708c.676175 0 1.224143-.550372 1.224143-1.228708s-.547968-1.228708-1.224143-1.228708"/><path d="m106.780335 208.294087c-.676825 0-1.224794.54972-1.224794 1.228056 0 .678335.547969 1.228708 1.224794 1.228708.676175 0 1.224143-.550373 1.224143-1.228708 0-.678336-.547968-1.228056-1.224143-1.228056"/><path d="m106.780335 219.435636c-.676825 0-1.224794.550372-1.224794 1.228708s.547969 1.228055 1.224794 1.228055c.676175 0 1.224143-.549719 1.224143-1.228055s-.547968-1.228708-1.224143-1.228708"/><path d="m106.780335 230.577837c-.676825 0-1.224794.54972-1.224794 1.228055 0 .678336.547969 1.228708 1.224794 1.228708.676175 0 1.224143-.550372 1.224143-1.228708 0-.678335-.547968-1.228055-1.224143-1.228055"/><path d="m106.780335 241.719451c-.676825 0-1.224794.550372-1.224794 1.228708s.547969 1.228055 1.224794 1.228055c.676175 0 1.224143-.549719 1.224143-1.228055s-.547968-1.228708-1.224143-1.228708"/><path d="m106.780335 252.861c-.676825 0-1.224794.550372-1.224794 1.228708 0 .678335.547969 1.228708 1.224794 1.228708.676175 0 1.224143-.550373 1.224143-1.228708 0-.678336-.547968-1.228708-1.224143-1.228708"/><path d="m106.780335 264.003201c-.676825 0-1.224794.549719-1.224794 1.228708 0 .678336.547969 1.228055 1.224794 1.228055.676175 0 1.224143-.549719 1.224143-1.228055 0-.678989-.547968-1.228708-1.224143-1.228708"/><path d="m106.780335 275.144749c-.676825 0-1.224794.550373-1.224794 1.228708 0 .678336.547969 1.228709 1.224794 1.228709.676175 0 1.224143-.550373 1.224143-1.228709 0-.678335-.547968-1.228708-1.224143-1.228708"/><path d="m117.627113 180.448116c-.676175 0-1.224143.550372-1.224143 1.228708s.547968 1.228055 1.224143 1.228055c.676174 0 1.224793-.549719 1.224793-1.228055s-.548619-1.228708-1.224793-1.228708"/><path d="m117.627113 191.58973c-.676175 0-1.224143.550372-1.224143 1.228708 0 .678335.547968 1.228708 1.224143 1.228708.676174 0 1.224793-.550373 1.224793-1.228708 0-.678336-.548619-1.228708-1.224793-1.228708"/><path d="m117.627113 202.731931c-.676175 0-1.224143.54972-1.224143 1.228708 0 .678336.547968 1.228055 1.224143 1.228055.676174 0 1.224793-.549719 1.224793-1.228055 0-.678988-.548619-1.228708-1.224793-1.228708"/><path d="m117.627113 213.87348c-.676175 0-1.224143.550372-1.224143 1.228708 0 .678335.547968 1.228708 1.224143 1.228708.676174 0 1.224793-.550373 1.224793-1.228708 0-.678336-.548619-1.228708-1.224793-1.228708"/><path d="m117.627113 225.015681c-.676175 0-1.224143.549719-1.224143 1.228055s.547968 1.228708 1.224143 1.228708c.676174 0 1.224793-.550372 1.224793-1.228708s-.548619-1.228055-1.224793-1.228055"/><path d="m117.627113 236.157229c-.676175 0-1.224143.550373-1.224143 1.228708 0 .678336.547968 1.228709 1.224143 1.228709.676174 0 1.224793-.550373 1.224793-1.228709 0-.678335-.548619-1.228708-1.224793-1.228708"/><path d="m117.627113 247.299431c-.676175 0-1.224143.549719-1.224143 1.228055s.547968 1.228708 1.224143 1.228708c.676174 0 1.224793-.550372 1.224793-1.228708s-.548619-1.228055-1.224793-1.228055"/><path d="m117.627113 258.441045c-.676175 0-1.224143.550372-1.224143 1.228708 0 .678335.547968 1.228055 1.224143 1.228055.676174 0 1.224793-.54972 1.224793-1.228055 0-.678336-.548619-1.228708-1.224793-1.228708"/><path d="m117.627113 269.583246c-.676175 0-1.224143.54972-1.224143 1.228055 0 .678336.547968 1.228708 1.224143 1.228708.676174 0 1.224793-.550372 1.224793-1.228708 0-.678335-.548619-1.228055-1.224793-1.228055"/><path d="m117.627113 280.724794c-.676175 0-1.224143.550373-1.224143 1.228709 0 .678335.547968 1.228055 1.224143 1.228055.676174 0 1.224793-.54972 1.224793-1.228055 0-.678336-.548619-1.228709-1.224793-1.228709"/><path d="m128.474541 186.010337c-.676174 0-1.224143.54972-1.224143 1.228056 0 .678335.547969 1.228708 1.224143 1.228708.676175 0 1.224794-.550373 1.224794-1.228708 0-.678336-.548619-1.228056-1.224794-1.228056"/><path d="m128.474541 197.151886c-.676174 0-1.224143.550372-1.224143 1.228708s.547969 1.228708 1.224143 1.228708c.676175 0 1.224794-.550372 1.224794-1.228708s-.548619-1.228708-1.224794-1.228708"/><path d="m128.474541 208.294087c-.676174 0-1.224143.54972-1.224143 1.228056 0 .678335.547969 1.228708 1.224143 1.228708.676175 0 1.224794-.550373 1.224794-1.228708 0-.678336-.548619-1.228056-1.224794-1.228056"/><path d="m128.474541 219.435636c-.676174 0-1.224143.550372-1.224143 1.228708s.547969 1.228055 1.224143 1.228055c.676175 0 1.224794-.549719 1.224794-1.228055s-.548619-1.228708-1.224794-1.228708"/><path d="m128.474541 230.577837c-.676174 0-1.224143.54972-1.224143 1.228055 0 .678336.547969 1.228708 1.224143 1.228708.676175 0 1.224794-.550372 1.224794-1.228708 0-.678335-.548619-1.228055-1.224794-1.228055"/><path d="m128.474541 241.719451c-.676174 0-1.224143.550372-1.224143 1.228708s.547969 1.228055 1.224143 1.228055c.676175 0 1.224794-.549719 1.224794-1.228055s-.548619-1.228708-1.224794-1.228708"/><path d="m128.474541 252.861c-.676174 0-1.224143.550372-1.224143 1.228708 0 .678335.547969 1.228708 1.224143 1.228708.676175 0 1.224794-.550373 1.224794-1.228708 0-.678336-.548619-1.228708-1.224794-1.228708"/><path d="m128.474541 264.003201c-.676174 0-1.224143.549719-1.224143 1.228708 0 .678336.547969 1.228055 1.224143 1.228055.301969 0 .574651-.1136.788111-.295099l.159445-1.702694c-.224524-.278124-.562937-.45897-.947556-.45897"/><path d="m127.250463 276.388017c0 .58171.404143 1.066142.944302 1.193452l.226476-2.416285c-.650793.028727-1.170778.562777-1.170778 1.222833"/><path d="m139.32197 191.58973c-.676175 0-1.224143.550372-1.224143 1.228708 0 .678335.547968 1.228708 1.224143 1.228708.676174 0 1.224793-.550373 1.224793-1.228708 0-.678336-.548619-1.228708-1.224793-1.228708"/><path d="m139.32197 202.731931c-.676175 0-1.224143.54972-1.224143 1.228708 0 .678336.547968 1.228055 1.224143 1.228055.676174 0 1.224793-.549719 1.224793-1.228055 0-.678988-.548619-1.228708-1.224793-1.228708"/><path d="m139.32197 213.87348c-.676175 0-1.224143.550372-1.224143 1.228708 0 .678335.547968 1.228708 1.224143 1.228708.676174 0 1.224793-.550373 1.224793-1.228708 0-.678336-.548619-1.228708-1.224793-1.228708"/><path d="m139.32197 225.015681c-.676175 0-1.224143.549719-1.224143 1.228055s.547968 1.228708 1.224143 1.228708c.676174 0 1.224793-.550372 1.224793-1.228708s-.548619-1.228055-1.224793-1.228055"/><path d="m139.32197 236.157229c-.676175 0-1.224143.550373-1.224143 1.228708 0 .678336.547968 1.228709 1.224143 1.228709.676174 0 1.224793-.550373 1.224793-1.228709 0-.678335-.548619-1.228708-1.224793-1.228708"/><path d="m139.32197 247.299431c-.676175 0-1.224143.549719-1.224143 1.228055s.547968 1.228708 1.224143 1.228708c.676174 0 1.224793-.550372 1.224793-1.228708s-.548619-1.228055-1.224793-1.228055"/><path d="m150.169333 219.435636c-.676174 0-1.224143.550372-1.224143 1.228708s.547969 1.228055 1.224143 1.228055c.676175 0 1.224794-.549719 1.224794-1.228055s-.548619-1.228708-1.224794-1.228708"/><path d="m150.169333 230.577837c-.676174 0-1.224143.54972-1.224143 1.228055 0 .678336.547969 1.228708 1.224143 1.228708.676175 0 1.224794-.550372 1.224794-1.228708 0-.678335-.548619-1.228055-1.224794-1.228055"/><path d="m150.169333 241.719451c-.676174 0-1.224143.550372-1.224143 1.228708s.547969 1.228055 1.224143 1.228055c.676175 0 1.224794-.549719 1.224794-1.228055s-.548619-1.228708-1.224794-1.228708"/><path d="m160.2649 236.363799c-.328651.220671-.545365.59542-.545365 1.021747 0 .678335.547968 1.228708 1.224143 1.228708.092412 0 .18092-.011752.266825-.031991-.287651-.675071-.604587-1.417389-.945603-2.218464"/><path d="m62.1685603 187.266989c.0149683.664625.5557778 1.199981 1.2215397 1.199981.2134603 0 .4106508-.059411.5844127-.155384z"/><path d="m73.3000603 192.037274c-.1763651.212837-.2863492.482474-.2863492.780837 0 .678336.5473175 1.228708 1.2234921 1.228708.6768254 0 1.2247936-.550372 1.2247936-1.228708 0-.116864-.0214762-.227853-.0520635-.335577z"/></g><path d="m48.8495476 175.746708c5.393127 6.281949 17.0540476 17.322694 32.3893492 17.322694 16.4553175 0 28.7852542-9.444469 34.5968412-17.037388" stroke="#d5d5d7"/></g></g></svg>