<svg height="330" viewBox="0 0 230 330" width="230" xmlns="http://www.w3.org/2000/svg"><g fill="none" fill-rule="evenodd"><g transform="translate(18 59)"><path d="m22.9095253 46.0927918s-.0712133 14.2008232-1.66992 16.3261743c-1.5974 2.1253511-6.77964 8.8982324-2.21088 21.983753 4.56876 13.0842131 13.46128 28.7226389 11.6424 35.7550609-1.81888 7.032421-7.7616 21.115569-7.7616 21.115569l11.55616-4.467095s-8.8284933 10.82092 9.9639867 17.986054c18.7931333 7.164479 46.30108-5.233293 61.489773-3.816611 15.18804 1.416683 31.692547 7.518814 34.318294 6.061598 2.625746-1.456561 9.94112-13.146319 9.94112-13.146319s3.93372 5.996876 9.3492 7.028499c8.22808 1.567699 15.602253-4.095763 15.602253-4.095763s-8.311707 2.735303-12.617173-1.5154c-4.305467-4.251356-2.960254-15.94046 5.108413-27.630218 8.068667-11.689757 20.349373-35.633462 8.507707-75.487554-11.841667-39.85474581-61.23824-43.46738504-82.954387-41.38975792-21.7161467 2.07631961-77.5970533 13.70789342-70.2653467 45.29200972" fill="#634e42"/><path d="m85.2881587 169.462525s-10.8094-2.79937-15.85444-7.761356c-5.0437334-4.962639-7.44604-8.143801-2.4016534-11.197481 5.0443867-3.053681 22.2198667-7.634528 28.7055067-7.634528 6.486293 0 25.102373-.50862 29.786773 5.471259 4.6844 5.980533 4.992774 18.633269-1.888133 20.450702-6.8796 1.81678-38.3480533.671404-38.3480533.671404" fill="#887d5d"/><path d="m157.561264 49.2906901c1.731987-.6282567 3.758627-.3955206 5.445533.54523 1.69344.9433656 2.98116 2.4796852 3.889294 4.1166828.915973 1.6474576 1.52488 3.4145521 1.963266 5.1921065.459294 1.7782083.712787 3.5832204.87808 5.3790799.34692 3.6008717.2842 7.1840921-.08036 10.7359322-.38024 3.5544553-1.04468 7.107603-2.156 10.580339-.575586 1.7298305-1.271386 3.4426635-2.211533 5.0580872-.473667.8041162-1.004827 1.5846973-1.6072 2.3116707-.599107.7250121-1.278573 1.3990315-1.941707 1.9939467-.320786.2922276-.653333.5857627-.82124.7936562-.050306.0542615-.071213.0921792-.09408.1235593-.012413.0333414-.022213.0169976-.033973.0699516-.026787.0725666-.042467.1928571-.03724.3373366.0098.5909927.300533 1.3853026.636347 2.1103147.702333 1.4814045 1.66012 2.9176995 2.68128 4.2892735.516133.68448 1.04468 1.362421 1.598053 2.020751.138507.165399.27048.310532.4508.54523.161373.216392.29008.443244.40572.672058.22344.460242.373707.930944.474973 1.399685.38612 1.878886.199267 3.729007-.251533 5.487603-.47432 1.743559-1.24264 3.465545-2.5774 4.769128-.667053.638717-1.51116 1.134916-2.434973 1.300969-.923814.170629-1.866574.002615-2.68912-.349758l.116946-.305303c.804254.277192 1.668614.357603 2.46176.150364.7938-.204625 1.4896-.68448 2.042974-1.293124 1.114586-1.228402 1.739826-2.866707 2.074986-4.50632.32144-1.643535.3626-3.385786-.06076-4.924067-.107146-.380485-.252186-.741356-.432506-1.05908-.190774-.336683-.367827-.517119-.714747-.872761-.61348-.646561-1.21128-1.308813-1.779027-1.998523-1.13484-1.383341-2.210226-2.82029-3.092226-4.4651327-.4214-.8407264-.851294-1.6906054-.96432-2.856247-.022867-.2922276-.01764-.6145278.067293-.9655932.030053-.1627845.1176-.378523.197307-.5413075.085586-.1595158.177706-.3092252.267866-.4242857.367174-.4857385.695147-.7746974 1.002214-1.0904601 1.21716-1.183293 2.163186-2.4437288 2.921053-3.9087893.751987-1.4539468 1.316467-3.0281841 1.75028-4.6481841.877427-3.2491525 1.2152-6.6682808 1.42296-10.0847941.207107-3.4256659.37044-6.8624456.267213-10.2528088-.106493-3.3844794-.496533-6.7702663-1.664693-9.8187167-.620667-1.4925181-1.455627-2.9007021-2.70088-3.8950605-1.216507-1.0008959-2.888387-1.5611622-4.579213-1.4094915z" fill="#47372d"/><path d="m40.5648133 85.9672809c-1.3550133.3079176-2.5094533 1.1532203-3.1993733 2.2175302-.7160533 1.0649637-1.0178933 2.3456659-1.14464 3.6485957-.1764 2.6378934.31164 5.3699273 1.0178933 8.0457385.71148 2.6784257 1.6339867 5.3405087 2.5676 7.9927847.92904 2.643777 1.9488934 5.264019 3.3614 7.615569.7003734 1.175448 1.49352 2.280944 2.3996934 3.247191.91728.9754 1.9208 1.740291 3.1412266 2.39862.3142534.18109.63896.334721 1.06428.651792.1025734.074528.2188667.179128.33124.294842.1091067.120291.24108.288305.30576.419056.1594134.28046.24108.551114.2926934.800194.1835866.998281.0280933 1.776247-.11564 2.549637-.3318934 1.520629-.8617467 2.905278-1.4497467 4.261815-.2946533.677942-.62132 1.338233-.9630133 1.990678-.1992667.370025-.2855067.520388-.3612934.821114-.0699066.279153-.1025733.58707-.1025733.905448.0052267 1.284625.42336 2.645739 1.0394533 3.863681.6265467 1.212711 1.4824134 2.360702 2.6237867 3.073946.56644.353681 1.2125867.575303 1.8770267.56092.66444-.011767 1.3236533-.26477 1.8959733-.661598l.1973067.260194c-.5690534.474625-1.2792267.833535-2.058.917869-.77812.087603-1.5725734-.109176-2.25596-.459588-1.37396-.725012-2.3905467-1.912228-3.1804267-3.185739-.77224-1.293123-1.3595867-2.717651-1.49744-4.318038-.0294-.401405-.02156-.817192.0503067-1.244746.05292-.412518.2737466-.920484.4004933-1.191792.2809333-.646562.53704-1.303583.7833467-1.960605.48216-1.314044.9002933-2.666659 1.10348-3.978741.0947333-.638063.1319733-1.324504.0091466-1.741598-.0261333-.102639-.06272-.176513-.0888533-.205279-.0169867-.030726-.00784.002615-.0169867-.012421l-.0797066-.054261c-.1574534-.106562-.48804-.262809-.8088267-.417095-1.3576267-.62368-2.7387733-1.536319-3.8546667-2.605206-1.13288-1.068886-2.0900133-2.271138-2.9563333-3.511307-1.6999733-2.501259-3.0706667-5.158765-4.2042-7.88753-1.11916-2.728766-1.9861333-5.56017-2.5218667-8.508596-.2737466-1.4683294-.4808533-2.96477-.5102533-4.4912834-.0496533-1.5206295.0418133-3.0739467.4122533-4.6050363.3619467-1.521937 1.0636267-3.0536804 2.2239467-4.1944794 1.1577067-1.1368765 2.744-1.7664407 4.2714933-1.6291525z" fill="#47372d"/><path d="m164.190245 190.435576s-7.90468-5.654963-22.845106-10.633946c-14.930627-4.982906-25.222587-13.990315-25.222587-24.614456v-27.967554h-17.9797333-.4592934-17.97908v27.967554c0 10.624141-10.2926133 19.63155-25.2238933 24.614456-14.9404267 4.978983-22.8451067 10.633946-22.8451067 10.633946l-31.1901333 79.564359h30.20752l15.68-38.473366s6.26416 11.199443 11.1785333 38.473366h40.17216.4592934 40.1728133c4.91372-27.273923 11.17788-38.473366 11.17788-38.473366l15.68 38.473366h30.206867z" fill="#d1bda3"/></g><g transform="translate(14 227)"><path d="m100.409104 103v-102.78875159s-61.4566127 11.45136939-66.3947514 19.55753499l-34.01428712 83.2312166h39.02838712l11.5814774-29.8227643 1.5742323 29.8227643z" fill="#3a3730"/><path d="m93.3420848 103v-102.78875159s71.3571192 12.10742039 76.2952582 20.21358599l33.359448 82.5751656h-39.027732l-11.582132-29.8227643-1.574232 29.8227643z" fill="#3a3730"/><g fill="#1f1d16"><path d="m166.126425 21.9206962c1.186568-1.5640255 1.991365-2.2555032 2.4969-2.5592548-.3248-.2630764-.706571-.5294331-1.144658-.797758-.715739.5478026-1.510713 1.3980446-2.394745 2.5625351-3.407781 4.4900127-14.187736 39.1472165-13.455626 53.7614076l.654184-.0321465.089058-1.6781783.557923 1.4360955c-.602452-14.3904777 10.120532-48.6389618 13.196964-52.6927006"/><path d="m36.8571384 21.9213522c-1.1872226-1.5640254-2.0149387-2.2909299-2.5198194-2.5953376.1820452-.2033757.5415516-.6488343.9789839-.9171592.7163936.5464905 1.6993065 1.5541847 2.5833387 2.7180191 3.4077807 4.4900128 15.5622419 42.9090128 12.9114549 55.85093l-.1106678-2.1216688-.0884032-1.6775223-.5579226 1.4354395c.6024516-14.3904777-10.1205323-48.6383058-13.1969645-52.6927007"/></g></g><g transform="translate(47 48)"><path d="m138.229269 58.0194423c0 19.9287814-9.004982 38.472821-15.191436 53.7481117-9.892418 24.426742-25.1954405 40.49406-52.7880088 40.49406-27.2912863 0-43.177837-15.888916-53.5999603-40.00133-6.70303086-15.5079324-16.1464802-34.4185789-16.1464802-54.6924021 0-51.80659771 25.660163-57.07240702 70.5032555-57.07240702 44.8470308 0 67.2226298 5.71802326 67.2226298 57.52396742" fill="#e7d1b5"/><path d="m52.5399599 88.3013747c0 7.1138744-5.863511 12.8848303-13.0857445 12.8848303-7.2274846 0-13.0791806-5.7709559-13.0791806-12.8848303 0-7.114528 5.851696-12.8822163 13.0791806-12.8822163 7.2222335 0 13.0857445 5.7676883 13.0857445 12.8822163" fill="#658171"/><path d="m49.1740696 88.2981726c0 4.9645511-4.0479427 8.9978814-9.0325507 8.9978814-4.9885462 0-9.0312378-4.0333303-9.0312378-8.9978814 0-4.9560559 4.0426916-8.9893861 9.0312378-8.9893861 4.984608 0 9.0325507 4.0333302 9.0325507 8.9893861" fill="#2a1d01"/><path d="m36.3360458 83.6395193c0 1.4337535-1.1723084 2.6067651-2.6104537 2.6067651-1.4427401 0-2.6150485-1.1730116-2.6150485-2.6067651s1.1723084-2.5963093 2.6150485-2.5963093c1.4381453 0 2.6104537 1.1625558 2.6104537 2.5963093" fill="#fff"/><path d="m46.6888546 123.789453c7.184163 1.242281 14.8757137 2.01013 22.6709736 1.981377 7.841207 0 15.3548766-.865219 22.8252247-1.981377-2.7437005.922725-8.9984185 5.085446-22.7864978 5.085446s-20.2088635-4.099332-22.7097005-5.085446" fill="#937f74"/><path d="m28.5234573 84.6197519-7.864837-4.2783884 8.6479075 2.3407953z" fill="#bbaca3"/><path d="m29.37407 95.4080607-8.7155154 3.0668209 7.7972291-4.9436395z" fill="#bbaca3"/><path d="m28.9677004 90.0429212-14.2055418-.3365465 14.1005198-1.7493884z" fill="#bbaca3"/><path d="m109.683495 82.6822242 8.64922-2.3407954-7.86615 4.2783884z" fill="#bbaca3"/><path d="m110.534764 93.5311767 7.797885 4.9436396-8.716171-3.066821z" fill="#bbaca3"/><path d="m110.127672 87.9567249 14.099864 1.7500418-14.204229.3358931z" fill="#bbaca3"/><path d="m87.6047797 88.3013747c0 7.1138744 5.863511 12.8848303 13.0857443 12.8848303 7.227485 0 13.079181-5.7709559 13.079181-12.8848303 0-7.114528-5.851696-12.8822163-13.079181-12.8822163-7.2222333 0-13.0857443 5.7676883-13.0857443 12.8822163" fill="#658171"/><path d="m90.9700137 88.2981726c0 4.9645511 4.0485991 8.9978814 9.0325503 8.9978814 4.988547 0 9.031895-4.0333303 9.031895-8.9978814 0-4.9560559-4.043348-8.9893861-9.031895-8.9893861-4.9839512 0-9.0325503 4.0333302-9.0325503 8.9893861" fill="#2a1d01"/><path d="m91.4815366 83.6395193c0 1.4337535 1.1723083 2.6067651 2.6104537 2.6067651 1.4427401 0 2.6157049-1.1730116 2.6157049-2.6067651s-1.1729648-2.5963093-2.6157049-2.5963093c-1.4381454 0-2.6104537 1.1625558-2.6104537 2.5963093" fill="#fff"/><path d="m67.8272286 281v-76.730644" stroke="#1f1d16"/><path d="m83.9260551 234.796346c0 2.461691-2.004608 4.457444-4.4772203 4.457444-2.4732687 0-4.4778767-1.995753-4.4778767-4.457444 0-2.462344 2.004608-4.457444 4.4778767-4.457444 2.4726123 0 4.4772203 1.9951 4.4772203 4.457444" fill="#1f1d16"/><path d="m83.9260551 255.621191c0 2.462344-2.004608 4.457444-4.4772203 4.457444-2.4732687 0-4.4778767-1.9951-4.4778767-4.457444s2.004608-4.457444 4.4778767-4.457444c2.4726123 0 4.4772203 1.9951 4.4772203 4.457444" fill="#1f1d16"/><path d="m83.9260551 272.223259c0 2.462344-2.004608 4.457444-4.4772203 4.457444-2.4732687 0-4.4778767-1.9951-4.4778767-4.457444s2.004608-4.457444 4.4778767-4.457444c2.4726123 0 4.4772203 1.9951 4.4772203 4.457444" fill="#1f1d16"/><path d="m147.389225 240.122538-8.961661 4.269893c-.51067.243098-1.082383.111746-1.290458-.297337l-5.908146-11.607261c-.212013-.416272.03282-.965202.547428-1.22529l9.405379-4.749554c.529048-.266623 1.132925-.124816 1.330497.313021l5.464428 12.086921c.191665.42346-.07089.963242-.587467 1.209607" fill="#565148"/><g stroke="#1f1d16" stroke-linecap="round"><path d="m132.36799 230.075154 1.272079 2.355172"/><path d="m135.839624 228.023397 1.27208 2.355172"/><path d="m139.9536 226.274204.816546 2.600231"/><path d="m147.530282 241.342731-1.197251-1.748081"/><path d="m144.009222 243.308947-1.197251-1.747428"/><path d="m139.852975 244.957306-.73581-1.981376"/><path d="m134.714051 243.515711 3.022008-1.919949"/><path d="m132.653847 240.058692 2.546784-1.617384"/><path d="m130.897485 235.962888 3.268154-1.466428"/><path d="m145.500863 228.42294-3.114559 1.766379"/><path d="m147.384761 231.977524-3.114559 1.767033"/><path d="m148.933442 236.156256-3.337731 1.301748"/></g><path d="m47.0914172 264.653838-15.6377798-2.587814c-.890718-.147688-1.5169118-.840386-1.4132026-1.564451l2.9537445-20.554823c.1069912-.737789.9307577-1.230519 1.8418238-1.101128l16.6597753 2.366281c.9360088.132658 1.595022.86914 1.4506168 1.621305l-3.9750837 20.776355c-.1391542.727987-.9780177 1.193924-1.8798943 1.044275" fill="#565148"/><path d="m36.7013912 237.83278-.5034493 4.237219" stroke="#1f1d16" stroke-linecap="round"/><path d="m43.1248665 238.315839-.5034493 4.237218" stroke="#1f1d16" stroke-linecap="round"/><path d="m50.1098815 239.779849-1.3239339 4.143116" stroke="#1f1d16" stroke-linecap="round"/><path d="m46.1536361 266.378198.0420088-3.375921" stroke="#1f1d16" stroke-linecap="round"/><path d="m39.7442075 265.738106.0420088-3.375921" stroke="#1f1d16" stroke-linecap="round"/><path d="m32.7970661 264.103731.8605242-3.260907" stroke="#1f1d16" stroke-linecap="round"/><path d="m27.407467 257.535716 5.7151674.245711" stroke="#1f1d16" stroke-linecap="round"/><path d="m27.8939815 251.140548 4.8152599.207156" stroke="#1f1d16" stroke-linecap="round"/><path d="m29.3657339 244.186386 5.6199912 1.063226" stroke="#1f1d16" stroke-linecap="round"/><path d="m55.3840877 247.643993-5.6961322-.530633" stroke="#1f1d16" stroke-linecap="round"/><path d="m54.5764026 254.007271-5.6954757-.530633" stroke="#1f1d16" stroke-linecap="round"/><path d="m52.7578806 260.879093-5.5596035-1.341612" stroke="#1f1d16" stroke-linecap="round"/></g><g transform="translate(69 201)"><path d="m46.9901577 43.9579429c19.6088461 0 29.5858846-9.0586123 33.2755385-13.4576327-.2026924-.1025306-.4021154-.202449-.5969616-.3004082-3.6733077 4.3311021-13.481 13.1049796-32.6785769 13.1049796-20.0031154 0-30.1436154-8.8568163-33.5867692-12.6765714-.1981154.0992653-.3988462.2004898-.6021923.3036735 3.4248461 3.8491428 13.7346923 13.0259592 34.1889615 13.0259592" fill="#cbd0d4"/><path d="m32.8878077 55.9859592-6.3344615 2.5991837s15.2895384 23.6048979 16.7096923 26.3294693c1.4201538 2.7252245 2.0707307 10.8839184 2.0707307 10.8839184s-.6093846-6.9400816 2.2328846-11.317551c2.8429231-4.3768163 15.1607308-19.5990204 15.1607308-19.5990204l-14.7265769-5.5601633z" fill="#ae9f77"/><path d="m14.0986231 45.3061224s32.7073461 41.2382041 58.7336923 18.8911021c12.0275-10.3275102 29.4570766-22.8179592 28.7685766-26.1433469-1.139654-5.5092245-6.3364228-14.5952654-10.6073458-15.092898-4.2709231-.4982857-69.0468077 27.4866939-76.8949231 22.3451428" fill="#ead49d"/><path d="m12.0802654 8.01149388c-3.20450002 3.68457142-9.02176925 9.05730612-11.54953848 19.77469392-2.482 10.5247346 4.96857693 23.9732244 38.34088458 27.1229387 15.7374231 1.4850613 30.8654616-14.0264489 40.4717693-20.2462041 10.7655769-6.9707755 12.668923-3.2587755 12.3688077-8.7849795-.5668847-10.4574694-4.2604616-12.1965715-7.9893462-16.06595923-3.8243461-3.96930612-18.4992692-9.26824489-18.4992692-9.26824489v6.20604081s6.0820769 4.03395921 3.0972692 5.64702041c-3.3875769 1.8298776-32.6615769 10.507102-40.6404615 2.6187755-6.5273462-6.45289795 1.0965-8.59297958 1.0965-8.59297958v-5.87885714s-13.4921154 3.78383673-16.6966154 7.4677551" fill="#fff5cc"/><path d="m66.9822885 8.09312653c.8918461.67853061 1.8209615 1.37730612 2.332923 2.52408167.119.2906122.1732693.6439183.0961154.9985306-.0719231.3683265-.3216923.651102-.5675384.8809796-.540077.4173061-1.050077.6164898-1.5738077.8672653-2.0929616.9168979-4.2297308 1.6555102-6.3946154 2.3203265-4.3258462 1.3361633-8.7576154 2.3216327-13.2606539 2.9537959-4.4991153.5629388-9.1185384.8607347-13.6915384-.0457143-2.2479231-.4995918-4.5795385-1.2995918-6.3043846-3.0073469-.8251539-.8346122-1.534577-1.7443265-2.070077-2.7859592-.2582692-.5211428-.4681538-1.0736326-.5577307-1.6509388-.0830385-.5773061-.0353077-1.17093874.1680384-1.69730608-.2177307 1.12718368.2491154 2.19363268.8585 3.07199998.6237693.8796735 1.4018462 1.6894694 2.2466154 2.3484082.8016154.6798367 1.7856539 1.1278367 2.7886539 1.4772245 1.0003846.3657143 2.0733461.5622857 3.1384615.7386122 2.1537692.277551 4.3552692.3369796 6.5561154.2253061 2.2021538-.0901224 4.4088846-.3043265 6.6058077-.6145306 2.2021538-.277551 4.3945-.6602449 6.5809615-1.0808163 2.1916923-.4029388 4.3657308-.8999184 6.5397692-1.4014694 2.1642308-.5289796 4.3421924-1.0625306 6.4488847-1.7430204.513923-.1671837 1.0801538-.3435102 1.4613461-.5753469.3805385-.2422858.5322308-.6204082.4151923-1.1180409-.1131154-.4845714-.4125769-.96326526-.7329615-1.40669383-.323-.44930612-.6937308-.87314286-1.0840769-1.27934694" fill="#fffcf5"/></g><g transform="translate(36 33)"><path d="m155.749124 48.0920274c-1.675762-12.6949127-38.40982-48.06752615-75.1005232-48.06752615-10.9236527 0-21.843364 3.13485286-31.8374979 7.8737207 0 0-6.0323473-2.96759103-8.6599623-1.18259352-5.1120251 3.47133667-3.2451046 8.13572067-8.1272134 11.46723687-13.5519247 9.2490574-27.70425942 24.128828-29.32484101 30.024808-9.78458159 35.5901846 14.04197491 66.1089377 14.04197491 66.1089377 11.2468494-61.5641197 32.4464477-68.1507083 63.9502385-68.1507083 31.5044474 0 41.7633134 2.0417706 65.4781964 58.2528583 0 0 13.425799-27.1970378 9.579628-56.3267336" fill="#634e42"/><path d="m78.0273777 261.555319s.0412993-7.097521-1.6948974-12.936659c-2.0830418-7.003436-40.9231339-58.445601-40.9231339-58.445601l1.2238118-2.567077s-1.6278076 0-3.0178159 1.637337c-4.0931674 4.819885-11.4432636 15.72-11.2560461 18.395536 0 0 12.9364059 20.975027 28.2540879 29.166284 15.3170251 8.19191 27.3101172 13.711551 27.4139936 24.75018" fill="#5c564c"/><path d="m25.7271105 200.355778c-.6798954 1.164952-1.3354854 2.344932-1.9260419 3.553007-.2956067.603711-.5708494 1.217875-.811933 1.839227-.225318.615471-.4664017 1.274718-.4427532 1.878429l-.026933-.084938c3.6589539 5.513761 7.7429247 10.757681 12.1757113 15.670998.5426025.625925 1.1305314 1.208728 1.6980962 1.810479.573477.596523 1.1364435 1.204154 1.7401381 1.769316l1.7742971 1.735342 1.8485271 1.654324c2.5041172 2.152843 5.1139959 4.219441 8.0010879 5.835217 5.7689289 3.27206 11.7907657 6.176928 17.3567113 9.852115 2.764908 1.84576 5.4385063 3.911706 7.5484812 6.506878 1.0523598 1.293665 1.9102761 2.745446 2.512 4.297845.5853012 1.560239.8710544 3.222404.8855063 4.881302l-.0663473.000653c-.0335021-1.651711-.3376486-3.298848-.9360879-4.836873-.6148619-1.531491-1.481318-2.959097-2.5395899-4.227282-2.1191716-2.546169-4.7973682-4.565072-7.5714729-6.36967-5.583682-3.60201-11.6055188-6.450035-17.4329121-9.68224-2.9383305-1.615122-5.5941925-3.66996-8.1456067-5.813002-2.5671799-2.137816-4.8952468-4.534364-7.1569665-6.977955-2.2590921-2.448818-4.3651255-5.031576-6.3653975-7.688818-1.9983013-2.660509-3.911205-5.380474-5.6467448-8.222619l-.0276003-.045082v-.040509c-.0019603-.754638.2765669-1.385137.5222489-2.021516.2621046-.629845.5747908-1.232249.8953598-1.828773.6463933-1.190434 1.3525649-2.343626 2.0823913-3.479831z" fill="#7c7469"/><path d="m78.7393757 261.860245s.0926235-6.521905 2.9751172-13.238514c2.8838075-6.715955 42.7302761-58.763137 42.7302761-58.763137l-.934774-3.290354s.899301.191436 1.909619 1.522997c3.633992 4.789831 11.713251 16.742519 11.516837 19.548075 0 0-12.93772 20.974374-28.254745 29.165631-15.3170248 8.19191-29.8385395 14.016673-29.9423303 25.055302" fill="#5c564c"/><path d="m133.825618 200.230723c.701573 1.153846 1.380811 2.323372 1.996987 3.52818.306774.604364.604351 1.214608.851347 1.850334.230574.641606.492678 1.277985.472971 2.03393l-.000657.036589-.025619.042468c-1.748678 2.913362-3.679318 5.702584-5.70718 8.425816-2.023921 2.724539-4.191703 5.345845-6.488239 7.851506-2.290623 2.510235-4.724451 4.899596-7.344841 7.076614-1.306581 1.091775-2.654548 2.136508-4.063606 3.098264-1.401833.970249-2.852933 1.875162-4.371695 2.657895-6.055339 3.089117-12.2597948 5.861352-18.0898157 9.320275-2.8949749 1.741221-5.7130921 3.677147-8.0227657 6.145566-1.1515523 1.230942-2.129682 2.627187-2.8483347 4.149531-.7087992 1.528224-1.0950586 3.198229-1.1738871 4.881302l-.0663472-.002614c.0597782-1.691566.4289581-3.379212 1.1265899-4.929651.7068285-1.545212 1.679703-2.965631 2.826-4.221401 2.3017908-2.516768 5.1153096-4.497123 8.0017448-6.2782 5.8142552-3.534713 12.0147697-6.35791 18.0188707-9.490803 5.954832-3.210643 10.95387-7.905082 15.525263-12.84388 4.527381-5.006095 8.675728-10.374808 12.355703-16.032963l-.026276.078404c.038757-.603057-.185904-1.267531-.396113-1.888229-.226632-.627232-.486766-1.246624-.767921-1.857521-.560995-1.222449-1.187682-2.417457-1.83933-3.598743z" fill="#7c7469"/></g><g transform="translate(30 20)"><path d="m148.018998 96.0013846c-1.796152-1.6213103-1.958961-1.9156183-2.77629-6.188317-.816671-4.2733526-4.307221-14.9246875-6.75658-16.9881138-2.449359-2.0627723.326932-2.6520424-1.469221-4.0424844-1.796153-1.3904419-1.796153.8011719-5.225649-.8194844-3.42884-1.6213102-15.023084-7.0732031-16.002565-7.0732031s0-2.7991964-1.142946-2.4421027c-1.142947.3564398-1.469222 1.5585246-3.103222.8221005-1.632687-.7370781-11.103191-1.9156183-11.7563968-1.9156183-.6532061 0-3.294916-2.2007701-2.1263664-5.9816473-1.9970381 2.2125424-3.4255572 4.9502611-10.4178168 4.5329977-6.991603-.4166093-17.5013282 2.3328817-21.0936335 2.5421674-3.5929619.2086317-10.1427481 2.2465514-14.1368245-9.2216517 1.3779695 8.1667209 6.9522138 11.6637544 4.6656641 12.1058705-2.2858931.4427701-2.8314351-1.0680112-4.2455114-1.7678103.3256183 2.5578639-.9801374 3.3891206-3.4288397 4.2726987-2.4500153.8842321-14.3705344 8.8410134-15.1865496 10.1667076-.8166718 1.3270022-2.7559389 4.4074263-5.0418321 4.4074263-2.2865496 0-.0984733 3.1641384-.0984733 4.6376406 0 1.4735023.8337405 5.7167701.8337405 5.7167701s-2.9482901 10.5368817-5.4160338 22.708808c-.0013097.010464.3965223 6.118991.3971788 6.129455 10.3469161-49.9793902 32.0130077-58.9230844 62.7511145-58.9230844 29.831496 0 42.957328 4.7180848 64.743557 58.2684134.643359-7.253058-3.84571-16.387072-3.966504-16.82134-.163465-.5899238 1.796153-2.5048881 0-4.1261984" fill="#47372d"/><path d="m53.7379206 58.671942c-1.2624275-1.1876965-2.5996946-2.2105804-4.0695725-2.8423616-1.4613435-.6468237-3.0205038-.9352456-4.5960763-.9548661-.7871298-.0183125-1.5808245.0268147-2.3725497.1124911-.3958626.0438192-.7943511.1190312-1.1889007.1752767-.2317405.0228907-.3164275.0791362-.4372214.1151072-.1181679.0241986-.231084.0837143-.3407176.148462-.4378778.2380625-.8691908.5925402-1.2696488 1.0797835-.3919237.5049018-.7503664 1.0915558-1.0569466 1.7416496-1.1790534 2.6611986-1.7633282 5.8724263-1.8526107 9.0391808-.1076641 3.1778727.175939 6.3910625.9026718 9.414587.3479389 1.5140514.8133893 2.9816674 1.4075114 4.3498728.3046107.6801786.6105344 1.3472768.9624123 1.9803661l1.3352977 2.2465513c1.8775572 3.6082165 2.7690687 7.1451451 3.5043358 10.7134665 1.3169161 7.1287951 1.6497558 14.2687081 1.2624275 21.4171231-.2212366 3.572245-.684061 7.148415-1.5223969 10.685997-.8422748 3.528427-2.0436489 7.056853-4.0735115 10.294242-.4687328.821446-1.1055267 1.569642-1.6753588 2.340075-.6748702.711572-1.29 1.463692-2.0804122 2.079123-.7195114.676255-1.5893587 1.194237-2.4217862 1.737726-.9046412.434922-1.7869619.920857-2.7585649 1.176578-1.0221527.338127-1.7344428.500977-2.5452061.719419-.7792519.248527-1.5676947.481358-2.322.784822-1.521084.582076-2.984397 1.289723-4.330855 2.157605-2.6824122 1.711564-4.9656794 4.114426-5.9983359 7.043772-.5166564 1.449958-.7096641 3.011752-.4779236 4.497027.228458 1.476772.9368091 2.869176 2.0718778 3.698471.2822901.206015.5895268.374098.9151451.505556.3518778.139305.7772824.266185 1.1632977.400913.7851603.217788 1.5873893.444732 2.3410382.480703.7595572.051667 1.4488702-.047744 2.0147633-.402875.575084-.347284 1.0523512-.974487 1.4738168-1.676248.4240916-.703069.8074809-1.468924 1.1928397-2.241973.1870992-.382601.4011145-.785476.5678626-1.15565l.2461832-.553953c.0754962-.185087.1135725-.370174.174626-.555915.1017557-.370828.1168549-.727922.053832-1.030732-.0781221-.291038-.2868855-.500978-.600687-.650094-.6381069-.295616-1.546687-.247873-2.3265954-.119031l-.1588702-.634398c.456916-.117723.8974198-.185741 1.3648396-.207977.4628245-.020929.9479695.001308 1.4396794.187703.4831756.170044.9801374.578806 1.1659237 1.130143.1674046.530408.1549313 1.058855.0656489 1.529093-.0551451.230215-.0938779.473509-.1654352.693913l-.2350229.651402c-.1595267.42969-.3275877.804442-.4923664 1.211895-.3308702.801172-.6650229 1.610846-1.0779542 2.422482-.4168702.797902-.942061 1.650741-1.8158473 2.276637-.8731298.635705-1.979313.841067-2.9423817.827972-.9860458.003284-1.8821527-.199461-2.777603-.390434-.4418168-.12361-.8573741-.217134-1.322168-.367559-.4903969-.16285-.9630687-.383908-1.3983206-.661866-1.7607023-1.130142-2.8156794-3.021562-3.2318931-4.919522-.4221222-1.916926-.287542-3.899908.2422443-5.740969 1.0635114-3.719399 3.6678015-6.761236 6.6659847-8.941732 1.5151756-1.092864 3.1472061-1.986906 4.8284733-2.73314.8376794-.386525 1.6983359-.693259 2.5576794-1.015036.8514656-.27665 1.8158473-.565072 2.4237557-.821447.7096641-.211901 1.3261069-.625895 1.9727481-.95879.5862443-.449964 1.2059694-.837143 1.72-1.38848.5672061-.474817 1.0109923-1.107252 1.5072977-1.669053.4162137-.650094.8915114-1.241326 1.2401069-1.950281 1.5486565-2.707634 2.5018778-5.854768 3.1189771-9.071228.6197252-3.224308.9118626-6.547373.974229-9.882864.0978168-6.669674-.7424886-13.418484-2.3587634-19.8069308-.4070229-1.5899174-.8580305-3.1641384-1.3858473-4.6683795-.5140306-1.5003169-1.116687-2.9581227-1.7830229-4.2046808l-1.3011603-2.2256227c-.4739848-.8875023-.9112061-1.7835067-1.2611145-2.7043639-.7103206-1.8364821-1.2138474-3.7037031-1.5650687-5.5761562-.6591145-3.7527545-.7273893-7.5185893-.2429008-11.2288326.2520916-1.8541406.6394199-3.6938929 1.2013741-5.5107545.5612977-1.8168616 1.3090381-3.6101785 2.4139084-5.311279.5593282-.8482611 1.2184427-1.6736317 2.0180458-2.4270602.8147022-.7423103 1.831603-1.4166027 3.0303511-1.755384.2954198-.0922165.5947786-.1648125.9105496-.1909732.3065802-.037933.6459847-.0784821.8501527-.0621317.4720153.0098103.9381221.0032701 1.4094809.0294308.9427176.0595156 1.8874046.1536942 2.8222443.3518616 1.8604885.4061451 3.7025954 1.1144464 5.2217099 2.2563616.7575878.5657255 1.4423053 1.2047009 2.0390534 1.8979598.5888703.7011072 1.0996184 1.4394934 1.5499695 2.196846z" fill="#47372d"/><path d="m21.9642687 120.04295c-.9709466-.604966-1.9097252-1.597765-2.7093282-2.635038-.7910687-1.028116-1.3720611-2.14714-1.4613436-3.08631-.0426717-.470239.0072214-.887502.1897252-1.295609.1798779-.407453.4884275-.814253.9039848-1.190313.829145-.756699 2.0515267-1.344007 3.2896641-1.716797.3013282-.088292.6046259-.160888.8921679-.215826.002626.005233.0045955.009157.0072214.014389.1293282.264223.2527481.576189.3702595.89208.4628245 1.288415.8153588 2.702402 1.1088092 4.113772.3656641 1.826018.6230076 3.684737.7720305 5.546726-.2133587.103989-.427374.181817-.6400763.226944-.7982901.189011-1.7423206-.012426-2.7231145-.654018m3.8621221 13.740915.4332825-.962714c1.2939389-2.86983 1.6943969-5.899895 1.8375114-8.87306.0840306-.049051.172-.093525.2540611-.145192.8475267-.536949 1.5585038-1.183772 2.1749466-1.865913 2.3994656-2.788732 3.4747939-6.01304 4.125374-9.192875.1418015-.814906.2691603-1.568989.346626-2.438179.0328244-.447348.0781221-.89208.0597404-1.349238l-.0105038-.682141-.0722137-.684103c-.1956336-1.829942-.8678779-3.599714-1.7659542-5.11769-1.8821527-3.022216-4.4378626-5.0549035-6.7651145-6.9378209-2.3416947-1.8482545-4.6518779-3.6304532-5.7935115-5.748163-.0768091-.1301495-.1385191-.2642232-.1897252-.4002589-.0498931-.1353817-.1280152-.2674933-.1595267-.4081072l-.1286717-.4159553-.0800917-.474163c-.142458-.6363593-.1536183-1.2720647-.1660916-1.9136562.0242901-1.279913.3984886-2.5532857 1.0792672-3.7108973.6650229-1.1687299 1.6372825-2.2040402 2.7625038-3.0706139 1.1298168-.8515312 2.4244123-1.5951495 3.8352061-1.8946897l-.026916-.4569208c-1.5932977-.0165881-3.1209466.4889677-4.5317404 1.2051172-1.4127634.7239978-2.7112978 1.7364174-3.7649619 3.0267947-1.0418473 1.2936473-1.7790839 2.9058013-2.0521832 4.6075558-.1207939.8462991-.1831603 1.7141808-.0978168 2.5598259l.0420153.6409375.1214504.6775625c.0341374.2308683.1148855.441462.1726565.6631741.0590839.222366.1312977.4375379.2186106.6435535.6440153 1.7024085 1.7068703 3.075192 2.7887634 4.2615804 1.0904275 1.1955446 2.2287786 2.2406652 3.3205191 3.2655112 2.1913588 2.0130674 4.2750534 3.9685804 5.4298168 6.1575784.5809924 1.079129.9571603 2.183765 1.0379084 3.339415.0288855.287114.0420152.577498.0334809.873114.0157557.291038-.0236336.591886-.0452977.890118-.0551451.620663-.1785649 1.344007-.2973893 2.001295-.4024275 2.098743-1.0582596 4.18833-2.0416794 5.88289-.1070076-1.119678-.2389618-2.236741-.4168702-3.350533-.259313-1.527786-.5678626-3.041183-1.0569466-4.59186-.1286718-.391102-.2632519-.781551-.4450992-1.198814-.0892825-.205362-.1897252-.421188-.3282443-.659904-.0518626-.103989-.1542748-.251797-.2547176-.389141-.0597404-.07652-.0781221-.119031-.1752824-.220404-.0932214-.098757-.1930077-.192281-.2973893-.27992l-.0781222-.064747c-.0210076-.017659-.0518626-.041858-.1201374-.081099-.115542-.067363-.2409313-.127533-.370916-.17593-.1293283-.048398-.2632519-.085023-.3932366-.109221-.0971604-.016351-.1109466-.012427-.1713436-.018967-.2179542-.017658-.3492519-.00981-.4917099-.005886-.2704733.011118-.5009007.037933-.7273893.069326-.4457557.064748-.8665649.151732-1.2814656.256375-1.6405649.437538-3.2404275 1.077821-4.7004581 2.273366-.7201679.598426-1.3963511 1.362319-1.8650839 2.308029-.4752977.940478-.6702748 2.049692-.6098779 3.068652.0544886 1.0255.3249618 1.971864.6899695 2.799196.3610687.837797.802229 1.596458 1.286061 2.286447.9696336 1.367551 2.0429924 2.662506 3.5647329 3.74229.7556183.5291 1.6064274 1.016343 2.6029771 1.307381.9853893.296925 2.0981374.394373 3.1682137.221712.0032824-.000654.0059084-.001308.0085344-.001962-.0840306 2.425099-.4155573 4.837771-1.291313 6.980333l-.4332825 1.107906c-.1161984.399605-.2586565.7894-.3341526 1.200123-.1930077.808366-.2665344 1.646163-.258 2.471534.0177252 1.658589.4326259 3.268781 1.0687633 4.723971 1.2847481 2.928037 3.3093588 5.314549 5.4094657 7.493082 1.0523511 1.090902 2.1611603 2.12425 3.1885649 3.173295.1404885.132765.2225496.257683.3256183.384562.0899389.13015.2232061.243295.283603.385871l.2087634.419225c.0597405.14323.0748397.298232.1194809.446694.114229.607583.0052519 1.264217-.2534046 1.894036-.5606412 1.24852-1.5670381 2.373431-2.7152366 3.234772-.2829466.210594-.600687.421188-.8764122.536295-.1457405.077174-.2232061.050359-.3525344.040549-.1207939-.045781-.255374-.106605-.3774809-.21648-.5009008-.424457-.885603-1.096134-1.1843053-1.738379l-.4273741.168082c.2941069.720074.6164428 1.417911 1.2256641 2.012413.1509924.147808.3492519.272726.576397.363634.231084.070634.5514504.080444.7490534-.014388.4254046-.150424.7438015-.352516 1.0772977-.565726 1.2893435-.867227 2.4309771-1.969901 3.1905344-3.417243.3518778-.733808.5580152-1.596457.4398473-2.468917-.0459542-.21321-.0689313-.436884-.1404885-.642246l-.2612825-.601042c-.0840305-.2034-.2323969-.35644-.3485954-.537603-.1247328-.170699-.2507786-.358402-.3774809-.489205-1.0162443-1.143223-2.0521832-2.207311-3.0290382-3.323719-1.9425496-2.215158-3.7308244-4.594475-4.728687-7.230167-.4976183-1.30869-.7667786-2.676241-.7136031-4.013054.0262596-.667752.1161985-1.329618.3046107-1.968594.0735267-.323739.2100764-.632435.314458-.947672" fill="#47372d"/><path d="m28.0419084 56.5406286c-1.5742595-.6533639-3.3467786-.621317-4.8140305-.0320469-1.4935115.5748817-2.7191756 1.6670915-3.7629924 2.9051473-2.0390534 2.5578639-3.4340916 5.6709889-4.5573435 8.8684822-1.1212825 3.2046875-2.0003206 6.5323303-2.8347176 9.8638973-.831771 3.3230647-1.5388091 6.6873326-1.6773282 10.0509464-.0728702 1.6769018-.0065649 3.3492255.2757252 4.9620335.2842595 1.6265424.8114198 3.113125 1.6215267 4.6075558.198916.3943728.4254046.768471.631542 1.3420446.0512061.1366898.0945343.3073884.1280152.4852813.0269161.1798549.0466107.4120309.0262596.5761899-.0242901.360364-.116855.669714-.2271451.941132-.4595419 1.079129-1.1278473 1.759962-1.7843358 2.436216-1.34251911 1.304112-2.80648858 2.352502-4.31050385 3.330913-.75233588.487243-1.5250229.93917-2.30755725 1.372783-.44050382.235447-.66436641.35317-.94928244.618047-.26850382.248527-.51534351.549375-.73329771.879654-.87050382 1.340737-1.35499237 3.016331-1.54340458 4.680806-.17265649 1.66513-.06827481 3.417243.62957252 4.924755.34728244.746888.86919084 1.413332 1.56900763 1.846946.69784733.43623 1.54996947.619355 2.40406107.596464l.01969466.326355c-.89413741.089601-1.84801527-.032701-2.68175573-.472855-.83570992-.436884-1.49482443-1.164805-1.94189313-1.97448-.88625954-1.644854-1.10355725-3.51927-1.03331298-5.325667.09978626-1.813592.47858016-3.635685 1.41473283-5.311933.23896183-.416609.52387786-.820792.87641221-1.192929.18053435-.183779.3728855-.361017.59280916-.519944.24355725-.16939.41358779-.268147.59609161-.385216.7280458-.461737 1.43967938-.949634 2.14146564-1.446688 1.39175573-1.001955 2.74280916-2.085009 3.86277863-3.287748.54094661-.589924 1.05891601-1.260946 1.24667171-1.822093.0485802-.136036.0689313-.256375.0656489-.332895.0045954-.0542839-.0091908-.041204-.0111603-.0771745-.0137863-.036625-.0216641-.0784822-.0525191-.145846-.0991298-.2485268-.3289008-.6291652-.5488244-1.0045714-.45560307-.766509-.90398475-1.6141161-1.25914505-2.4859219-.35844275-.8750759-.63219848-1.7795826-.8429313-2.6899755-.41424428-1.8234017-.56523664-3.6670781-.59477863-5.4904799-.01838168-3.6481116.41621374-7.2380156 1.1239084-10.7448593.72148092-3.4983416 1.74232058-6.9365134 3.16033588-10.2680804.6998168-1.6644754 1.4876031-3.3106384 2.4638015-4.8685089.9565038-1.5650648 2.0725344-3.0679978 3.4472214-4.3642612 1.3641832-1.2903772 3.0618626-2.3681986 4.9696183-2.7599553 1.8998779-.3911027 3.9126718-.0032701 5.3832061 1.1164084z" fill="#47372d"/><path d="m94.8537328 48.4273408c.3059237-.8973125.5914962-1.8234017 1.0379084-2.7606093.4437863-.9313215 1.0569466-1.8717991 1.9583054-2.6899755.8967633-.8129442 2.1106107-1.4342611 3.3874804-1.7030625.636138-.1308035 1.275558-.1818169 1.903161-.1863951.625633.0071942 1.229603.0752121 1.819786.1693907.149023.0222366.288855.0529754.433939.0837142l.214672.0470893c.083374.0215826.112259.0163505.265878.071942.508122.1654665 1.020839.4166094 1.43771.7344621.863282.6330892 1.391099 1.4022142 1.747572 2.0686584.70113 1.3446607.951252 2.4905 1.163298 3.5702835.391923 2.1510647.45429 4.0915357.439191 5.9947277-.054489 3.7782612-.551451 7.3858237-.300672 10.8508103.239618 3.4263995 1.079267 6.7259196 3.184626 8.6879732.520595.4977076 1.120626.9208571 1.798122 1.2609464.345969.1654665.688656.3100045 1.078611.4466942.477923.145846.953221.3015022 1.425236.4689308 1.885435.6782165 3.730825 1.5493683 5.422596 2.710904 1.687832 1.1576116 3.224015 2.6160715 4.368274 4.3851898 1.143604 1.7573459 1.882153 3.8417008 1.890824 6.0025758.005772 1.0771675-.180014 2.1706853-.599511 3.1994554-.421465 1.0228839-1.1029 1.9895223-2.056778 2.6703549-.469389.3427054-1.010993.6010424-1.565069.7645469-.472672.1314576-.951908.2537589-1.444275.3525156-.982107.1772389-2.057435.3420514-3.223358-.0124263-.573771-.1785469-1.112749-.5317165-1.502046-.950288-.395863-.4159553-.670932-.8718058-.907924-1.3152299-.457572-.8940424-.781221-1.7723884-1.134412-2.636346-.172657-.4244576-.374199-.915625-.468733-1.4342611-.089939-.5075179-.144427-1.1478014.251435-1.7226831.418183-.5624553 1.063512-.697837 1.568351-.7239977.529787-.0202746 1.012306.0510134 1.511237.1818169l-.15887.6343974c-.415558-.071288-.877725-.0967947-1.283435-.0412032-.410962.0523215-.760871.217788-.884947.4506183-.135237.2269442-.11226.6062746 0 .9921451.11029.3969889.296733.7632389.514687 1.1870424.43.8345268.837023 1.682134 1.301817 2.41725.468733.7462344.995236 1.2740268 1.646473 1.4028683.661084.1543483 1.509924.0058862 2.341695-.2262901.418839-.1203393.840305-.2635692 1.261771-.4179174.334809-.1327657.638763-.3086965.907923-.5434889 1.094367-.9306674 1.556535-2.5755223 1.423268-4.1432031-.12539-1.5866473-.790413-3.1347076-1.784336-4.4381652-.991954-1.3139219-2.308214-2.3969754-3.771527-3.2576629-1.462656-.8704978-3.08287-1.5153594-4.762168-1.9973706-.420809-.1196852-.845557-.2282522-1.273588-.328971-.512717-.1151071-1.062198-.2616071-1.588046-.44277-1.058259-.3714822-2.090259-.9084308-3.020503-1.5971117-1.884122-1.3799776-3.197756-3.3439933-4.085329-5.2995066-.889542-1.975134-1.390442-3.9960492-1.769236-5.9757612-.722794-3.9607322-1.077954-7.8580246-1.14426-11.5506094-.033481-1.832558.023634-3.6409174-.031511-5.2053281-.022977-.769125-.122107-1.4852746-.190382-1.8515246-.036107-.1785468-.039389-.2099397.093878-.1674285.063023.0078482.150992.0444732.225832.0359709.047924.0045782-.038076-.0281227-.066305-.0438191l-.120138-.0588617c-.079435-.037279-.160183-.0876383-.238962-.1216473-1.297877-.5899241-2.371236-.8920803-3.7150682-.4820111-.6761832.2027455-1.3891298.6193549-2.1152061 1.1445312-.7359237.5166741-1.4528092 1.1772322-2.3088703 1.7488438z" fill="#47372d"/><path d="m7.2438916 60.8971069s4.7149008-55.99243078 77.0061069-60.0512656c70.5554505-3.96204018 80.9384735 53.8524844 80.9529165 53.949933z" fill="#002f3e"/><path d="m77.1202046 1.43452277c-2.9876794.78678348-5.9064275 1.80835937-8.772 2.94373437-2.866229 1.13929911-5.677313 2.40809375-8.4194657 3.80376786-5.4803664 2.8011585-10.7112671 6.078442-15.5154504 9.8802478-4.8048396 3.7959196-9.1954351 8.0993571-12.9505496 12.8867678l-.7109771.8920804-.6689618.9221652c-.4437863.6173928-.8993893 1.2249754-1.3333282 1.8476004-.8186413 1.2786049-1.6996489 2.5146987-2.437542 3.8410469-1.5887023 2.5833705-2.8813283 5.3289375-4.1201222 8.0823527l-.0216641.0477433c-.2960763.65925-1.0733588.954212-1.7357557.65925-.661084-.2956161-.9578168-1.0699733-.661084-1.7292233.0052519-.0117723.0137863-.0287767.0196947-.0412031 1.3858473-2.8155469 2.8268397-5.6075491 4.5632519-8.2196964.8107633-1.3413906 1.7639847-2.5872946 2.6554962-3.8724397.4693893-.6258951.9597862-1.2360938 1.4383664-1.8534866l.7227939-.9234733.7621832-.8907723c4.0308397-4.7789085 8.6689313-9.0084419 13.6812214-12.6886004 5.01229-3.6847366 10.4112519-6.8044018 16.024229-9.42766744 2.808458-1.30738169 5.6773129-2.48134375 8.5914656-3.52254017 2.9134962-1.03727233 5.8736031-1.95616742 8.8881985-2.63765402" fill="#001e2c"/><path d="m78.1292931 1.43452277c-2.5163206.91758705-4.9512366 2.0366116-7.338229 3.23673437-2.3863359 1.20339286-4.7155572 2.51339063-6.9824122 3.918875-4.5376488 2.80639066-8.8133588 6.01238616-12.7746107 9.54604466-1.9674962 1.7835067-3.8575267 3.6428794-5.6543359 5.5879286-1.7685801 1.9679397-3.4846412 3.9810067-5.0457709 6.1091808-3.1590229 4.2275714-5.8079542 8.8070044-7.9678016 13.5819888l-.0065649.0150424c-.2980458.658596-1.0753282.95225-1.7364122.6553259-.6617404-.2969241-.9558473-1.0712812-.658458-1.7305312.0072214-.0143884.0157557-.033355.0229771-.0477434 2.4414809-4.8613147 5.3713893-9.4701785 8.7884122-13.6735513 1.6891451-2.1170558 3.529939-4.1046161 5.4160306-6.0378928 1.9123511-1.9090782 3.9139847-3.7220157 5.9832366-5.4492768 4.1667328-3.4218215 8.6170687-6.480663 13.2984885-9.118317 2.3384123-1.32177009 4.7319695-2.54282142 7.1747634-3.65138169 2.4434504-1.1059442 4.9276031-2.12752009 7.480687-2.94242634" fill="#001e2c"/><path d="m81.9591817.99384554c-4.3630229 2.17787946-8.4752672 4.81160937-12.386626 7.68863392-3.9192366 2.86983034-7.5995114 6.04966514-11.0171908 9.46952454-1.7554504 1.6651295-3.3178931 3.514692-4.9486107 5.2896964l-2.2714504 2.8135849c-.3715725.4741629-.7720305.9247812-1.119313 1.4172567l-1.0444732 1.4715401c-2.8924886 3.8534733-5.1941374 8.0849688-7.3612061 12.340663l-.0328245.0647478c-.3282443.6442075-1.1186565.9018906-1.7659542.5748817-.6472977-.327009-.9052977-1.1151005-.5770534-1.7599621.0078779-.0150424.0190382-.0346629.0275725-.0503594 2.436229-4.3034375 5.0017863-8.5388571 8.1345496-12.3491652l1.1363817-1.4545357c.3761679-.4865893.8061679-.9293593 1.2072824-1.3956741l2.4421375-2.7619174c1.7416641-1.7344553 3.410458-3.5369286 5.2656946-5.1464665 3.6179084-3.3093304 7.4754351-6.3485513 11.5463206-9.05880134 4.0623512-2.71613616 8.3072061-5.17262724 12.7647634-7.15364732" fill="#001e2c"/><path d="m84.2498672.84564509c-1.8788703 1.06016295-3.6297252 2.32437946-5.3241222 3.64549554l-1.2624274 1.00260937-1.2236947 1.04969866c-.8278321.6847567-1.5992061 1.43426116-2.3883053 2.16152902-3.1209466 2.94831252-5.9766718 6.15757812-8.6426718 9.50287942-1.2906565 1.7082947-2.609542 3.3904286-3.786626 5.1772054-.5934656.8888103-1.2368244 1.7423036-1.7876183 2.6585826l-1.6898015 2.7213683c-.5790229.8966585-1.0963359 1.83125-1.6110229 2.7658415l-1.5565344 2.7946183c-.9880152 1.8907656-1.9064427 3.8168482-2.8616335 5.7193862l-.033481.0647477c-.3243053.6461697-1.1134045.9084308-1.7626717.585346s-.9118626-1.1105223-.5869008-1.7566919c.0091909-.0176585.0210077-.0398951.030855-.0575536 1.0740153-1.8940357 2.1086412-3.8057299 3.2108855-5.677529l1.7291908-2.7645335c.5718015-.9234732 1.1449161-1.8456384 1.7810535-2.7285625l1.8558931-2.6775491c.6065954-.8999286 1.3050992-1.7364174 1.9530534-2.6069152 1.2847481-1.7488437 2.7099848-3.3904286 4.1030535-5.0516339 2.8721374-3.2504688 5.9208702-6.3446273 9.2157862-9.15559601.8324275-.69260491 1.6458168-1.40613839 2.5143512-2.05361607l1.2834351-.99214509 1.319542-.94309375c1.7685801-1.24132589 3.5890229-2.41921205 5.5204122-3.38388839" fill="#001e2c"/><path d="m85.912884.87501049c-1.5407787 1.10856027-2.8432519 2.49704018-4.1181527 3.88355804-.6157863.71745759-1.2479847 1.41660268-1.8256947 2.1647991l-.8836335 1.10463616-.8455573 1.13472099c-2.2327176 3.03987502-4.3052519 6.19354912-6.1874046 9.46036832-.9775114 1.6095379-1.8440763 3.2870937-2.7703817 4.9247544-.8678778 1.6729777-1.7410076 3.3413773-2.5859084 5.0241652-.8133893 1.7004465-1.6464732 3.3878125-2.4408244 5.0954531l-2.3174046 5.1523527-.0124732.0294308c-.2967329.65925-1.0746718.9542121-1.7364123.658596-.6617404-.294962-.9591297-1.0693192-.6617404-1.7292232.0091908-.0215826.0223206-.0470893.0321679-.0680179l2.6384275-5.0620982c.9007023-1.6755937 1.8407939-3.332221 2.7585649-4.9973504.9505954-1.648125 1.9294198-3.2812076 2.9010229-4.9149442 1.0313435-1.6016897 2.0009771-3.2367344 3.0809008-4.8057232 2.0863206-3.1804889 4.3617099-6.2426005 6.7854656-9.17194646l.916458-1.09286384.9545344-1.06081696c.6230076-.71811161 1.3018168-1.38651786 1.9609313-2.07062054 1.3628702-1.32111607 2.7526565-2.63830803 4.3571145-3.65922991" fill="#001e2c"/><path d="m86.9835511.87501049c-.9768549 1.31457589-1.7298473 2.77303572-2.4683969 4.22626339-.7352672 1.45649777-1.3963511 2.95092858-2.0410229 4.44862947-1.2755573 3.00390405-2.4217863 6.05947545-3.5128702 9.13335935-1.0727023 3.0810781-2.0889466 6.1811228-3.0520153 9.2975179-.4693893 1.5631027-.9565038 3.1183571-1.4107939 4.6847299l-1.3503969 4.7030424-.0052519.0170045c-.1995726.6952209-.9269619 1.0974419-1.6248092.8986205-.6971908-.1988214-1.1009313-.9234732-.9020153-1.6186942.0078779-.0268147.0183817-.0568995.0269161-.0830603l1.6733893-4.6311004c.5606412-1.5428281 1.1554198-3.074538 1.7311603-4.6101719 1.1764275-3.0653817 2.4060305-6.1098348 3.6901221-9.1307433 1.3024733-3.0150223 2.6594351-6.0065 4.1411298-8.93649999.7483969-1.46172991 1.5118931-2.91495759 2.3482595-4.32829018.8376794-1.40875446 1.6924275-2.82143303 2.7565954-4.07060714" fill="#001e2c"/><path d="m87.5214122.87501049c-.5009007 1.44145536-.8160153 2.93523214-1.1239084 4.42573884-.3039542 1.49116071-.5475114 2.99474777-.7772824 4.49898884-.4470687 3.00979013-.7963206 6.03331473-1.092397 9.06207143-.287542 3.0294107-.5238778 6.0627455-.7195114 9.0993504-.1962901 3.036605-.3433435 6.0758259-.4812061 9.1150469v.0098103c-.032168.7220357-.6466413 1.281221-1.3720611 1.2485201-.7247634-.0320469-1.2860611-.6442076-1.2532366-1.3662433.0013129-.0300848.0039389-.0640938.0078778-.0935246.3571298-3.039875.7234504-6.0771339 1.1383512-9.1098147.4155572-3.0313728.8718168-6.0575134 1.3786259-9.0751518.514687-3.0163304 1.0825496-6.0248125 1.7488855-9.01105803.3387481-1.49181474.690626-2.98035938 1.1029008-4.45451563.4155572-1.47023214.8396488-2.94569643 1.4429618-4.34921875" fill="#001e2c"/><path d="m104.030458 1.43707344c2.666657.80247991 5.25913 1.8423683 7.808275 2.96858705 2.548488 1.13079688 5.039206 2.39435938 7.476091 3.75537054 4.877054 2.72071427 9.511207 5.88877677 13.838779 9.44401787 2.171664 1.7704263 4.232382 3.6736183 6.235328 5.6369799 1.991787 1.977096 3.876565 4.0614509 5.682565 6.2151317 3.577863 4.3354844 6.73229 9.0300245 9.420611 13.9887879.345313.6357054.107008 1.4296831-.531099 1.7730424-.638107.3433594-1.435084.1059509-1.779741-.5291004-.007221-.0137344-.014443-.0274687-.021664-.0412031l-.005908-.0130804c-2.414565-4.9031719-5.299832-9.5885558-8.625603-13.9593571-1.680611-2.1713393-3.443939-4.283817-5.320184-6.298846-1.888061-2.0019487-3.840458-3.953538-5.90971-5.7808638-4.125374-3.6677322-8.582931-6.9822947-13.315557-9.87043754-2.364672-1.44603349-4.791053-2.79985045-7.28374-4.0248259-2.493344-1.22039732-5.035924-2.35838839-7.668443-3.26420312" fill="#001e2c"/><path d="m98.1111634.87501049c2.4762746.83321875 4.8777096 1.88226339 7.2371296 3.00979018 2.360076 1.12948884 4.661069 2.38324107 6.912168 3.72397768 4.503512 2.67951115 8.766092 5.77301565 12.742443 9.21184155 1.987191 1.722029 3.879191 3.552625 5.709481 5.4473147 1.810595 1.9130022 3.538473 3.9077567 5.169191 5.9829554 3.247648 4.1615156 6.073175 8.6637745 8.445725 13.4027879.324305.6461696.060397 1.4316451-.58887 1.7540759-.648611.3230848-1.43771.0601696-1.762016-.586-.006565-.0156964-.013786-.0300848-.021007-.0451272l-.006565-.0150424c-2.098794-4.6690335-4.651878-9.1497099-7.645466-13.3373862-1.504015-2.088933-3.10913-4.1078862-4.804183-6.0548973-1.714092-1.9293527-3.495802-3.8057299-5.379267-5.5813884-3.769558-3.5467389-7.853573-6.7821652-12.208718-9.62518083-2.176259-1.42314285-4.41029-2.76453348-6.711939-3.98623884-2.300992-1.22039732-4.649908-2.36558259-7.0881066-3.30148214" fill="#001e2c"/><path d="m95.7332962.87501049c4.1726412 2.02222322 8.0931908 4.54607813 11.8305798 7.30145536 3.731481 2.76649555 7.296214 5.78020985 10.578 9.08757815 3.287695 3.296904 6.409298 6.7880513 9.163268 10.5656585l1.048412 1.4048303.525191.7037232.483175.731846 1.931389 2.93c.670932.9627143 1.222382 1.9954085 1.811252 3.0084822l1.748886 3.0516473c.359756.6272031.141145 1.4264129-.489084 1.7848147s-1.433115.1406138-1.79287-.4872433c-.008535-.0163504-.018382-.0333549-.026916-.0497054l-.03939-.0771741-1.558504-3.041837c-.52519-1.0111116-1.014274-2.0457679-1.623496-3.0110982l-1.748229-2.9470045-.437221-.7370781-.48055-.7102634-.959786-1.4205268c-2.517634-3.8227344-5.418-7.3923638-8.504153-10.7945647-3.079587-3.4120112-6.46116-6.5578371-10.033114-9.47606476-3.577863-2.90710938-7.3566108-5.60231697-11.4268398-7.81747545" fill="#001e2c"/><path d="m91.7430931.70895536c1.9103817.92478125 3.7071909 2.0732366 5.4495115 3.2890558 1.7508549 1.20731696 3.4111144 2.54085938 5.0359234 3.91560491 3.237145 2.76649553 6.222855 5.82075893 9.031313 9.02937053l2.055466 2.451913c.692595.8129442 1.306412 1.685404 1.963557 2.5264709 1.328733 1.6736317 2.511069 3.4499442 3.728855 5.2053282.624977.8678817 1.173802 1.7828526 1.741664 2.6873593l1.697023 2.7187523c1.074672 1.8443303 2.098138 3.7200535 3.151145 5.5826964.356473.6298192.132611 1.427721-.499588 1.7828527-.632198.3544777-1.433114.1314576-1.789587-.4983616-.010504-.0183125-.019695-.035971-.029542-.0549375l-.032825-.0654018c-.935496-1.8731072-1.84342-3.7632188-2.804519-5.6271697l-1.525023-2.7501451c-.511404-.916279-1.003771-1.8443303-1.57229-2.7259464-1.105527-1.7821986-2.177572-3.591212-3.398641-5.3008147-.602657-.8593795-1.162641-1.7521139-1.802718-2.5859866l-1.897908-2.5173148c-2.602321-3.3021361-5.39371-6.4701986-8.456229-9.37338388-1.537496-1.44276339-3.1156947-2.85086384-4.79171-4.13797098-1.6674809-1.29691741-3.3947023-2.53104911-5.2538779-3.55197098" fill="#001e2c"/><path d="m89.9428702.70895536c1.5256794 1.00980357 2.9194046 2.21319643 4.2487939 3.4721808.6814351.6154308 1.3031298 1.28841518 1.952397 1.93720089.6341679.66252009 1.2374809 1.35381697 1.8585191 2.03007143 2.4191598 2.76453352 4.5914808 5.73704462 6.6141218 8.80635042l1.492199 2.3204554 1.397664 2.3767009.69916 1.1909665.653863 1.2138571 1.300504 2.4349085c.8449 1.6350447 1.614305 3.3060603 2.425725 4.9600714l2.208427 5.0620983c.289512.6638281-.015755 1.4342611-.681435 1.723337-.665023.2877679-1.439023-.0163504-1.728534-.6788705-.009848-.0228906-.019695-.0464353-.027573-.0693259l-.019694-.0529755-1.867054-5.091529c-.697847-1.6664375-1.354992-3.3544576-2.087633-5.0084687l-1.133756-2.4669554-.570489-1.2321696-.616442-1.209279-1.234199-2.4211741-1.330702-2.3688527c-1.809283-3.1386317-3.7748093-6.2000893-6.000962-9.07384378-.5731145-.70372321-1.1298168-1.42445089-1.7173741-2.11836384-.6033129-.67887053-1.1816793-1.3845558-1.8191297-2.03399553-1.2440458-1.32700224-2.554397-2.60429911-4.016397-3.70239509" fill="#001e2c"/><path d="m88.8824443.70895536c.9453435 1.32700223 1.717374 2.77041964 2.4789007 4.20991294.7602138 1.44407143 1.464626 2.91430357 2.1585344 4.38911384 1.3753435 2.95746876 2.6528702 5.95875666 3.8962595 8.97377906 1.2256642 3.0209084 2.4139084 6.0588214 3.5607941 9.1111227 1.149511 3.0509933 2.252412 6.1183371 3.350717 9.1896049.243558.6814866-.112916 1.4296831-.79632 1.6723237-.683405.2426406-1.434428-.1131451-1.677985-.7939777-.009847-.0261607-.019038-.0529754-.02626-.0797902l-.003282-.0124263c-.885603-3.1216272-1.775801-6.2426004-2.7132671-9.3491853-.9348397-3.1078928-1.9110382-6.2020513-2.926626-9.2850915-1.032-3.0765-2.1001068-6.1412277-3.268-9.16998436-.5908397-1.51143527-1.1921832-3.01960044-1.8506412-4.50356696-.6604275-1.48135045-1.3300458-2.96597098-2.1828244-4.35183482" fill="#001e2c"/><path d="m88.0118748.70895536c.8547481 2.93523214 1.4469008 5.94175223 2.038397 8.94107812.5763969 3.00390402 1.0989618 6.01827232 1.5893587 9.03787282.9788245 6.0398549 1.8263512 12.0993303 2.6213588 18.166.0932214.7161495-.4135878 1.3734374-1.1330992 1.467616-.720168.0928706-1.3792825-.4120312-1.4731603-1.1294888-.003939-.0294308-.0072214-.0647478-.0091909-.0948326-.3564733-6.0875982-.7667786-12.1732344-1.3083816-18.2470982-.2717863-3.0366049-.576397-6.0712478-.9348397-9.09935047-.374855-3.0254866-.7490535-6.05685937-1.3904428-9.04179687" fill="#001e2c"/><path d="m152.905505 110.605015c-.237649.807058-.892168 1.793317-1.672732 2.678203-.774657.890118-1.634 1.663167-2.537985 2.159567-1.039878.585346-2.048901.75539-3.006718.571611.054489-1.758.250779-3.51927.593466-5.229526.127359-.620663.272443-1.237402.449038-1.823402.152962-.512096.340061-1.035964.530443-1.416603.10832 0 .223862.001308.329557.007194.573115.024199 1.177741.096795 1.758076.20994 1.153451.218442 2.293115.618701 2.990962 1.157612.343344.269455.518626.53564.594122.767817.079435.228252.080092.517328-.028229.917587m3.387481-2.179188c-.403084-1.024192-1.147542-1.809667-1.887404-2.325687-1.509267-1.016344-3.027069-1.372784-4.507451-1.612154-.745771-.109875-1.482351-.168083-2.253725-.168737-.40571.007194-.743145.001962-1.315603.097449-.094534.02289-.093221.003924-.340061.0896-.192351.06998-.384046.168737-.546198.278612-.167405.135382-.379451.334857-.472016.461736-.090595.120994-.191038.258337-.260626.374099l-.177252.32243c-.395206.813599-.579679 1.502279-.768091 2.216467-.178565.705031-.309863 1.400906-.422122 2.097435-.213359 1.369514-.345313 2.739027-.395206 4.111811-.492367-.523215-.939436-1.136684-1.323481-1.809668-.561955-.956174-.988016-2.030725-1.317573-3.150404-.089939-.277303-.15887-.563109-.231084-.848261-.043985-.151732-.06171-.267493-.079435-.379984l-.065649-.34663c-.03742-.457812-.060397-.906469.009847-1.355779.091252-.89862.502871-1.827326 1.085176-2.758647 1.183649-1.898614 3.096-3.667732 5.039206-5.5114087.968977-.9352456 1.970122-1.902538 2.932535-2.9823215.952564-1.0863236 1.911038-2.2975647 2.499908-3.8894442.079435-.1916272.143771-.3943727.195634-.6069285.052519-.2099398.120793-.4100692.14574-.6324353.030198-.2158259.070901-.4395.085343-.6487857l.005252-.6056206c.005252-.402875.007878-.8018259-.076809-1.210587-.066305-.4054911-.117511-.8077121-.275068-1.1948906-.498275-1.5761831-1.559817-2.890105-2.77826-3.7776072-1.234198-.8855402-2.595099-1.4453795-3.977664-1.7710803-1.381252-.3250469-2.807802-.4244576-4.197588-.1909733l.03742.4571585c1.297221.1039889 2.565557.4892054 3.727542 1.0183058 1.157389.5356407 2.232717 1.2190893 3.043481 2.0745447.824549.8397589 1.364183 1.8292879 1.514519 2.859366.072214.2485268.040702.5219063.056458.7808974.030855.2550669-.015099.5251763-.053832.7920156l-.049237.3963348c-.02429.1236094-.065649.2269442-.093221.3400893-.021008.110529-.085344.221058-.126702.3322411-.040703.110529-.091909.221058-.158871.332241-.224519.4434241-.552763.8855402-.929587 1.317192-.365008.4355759-.793695.8659196-1.242077 1.2877612-.909236.844337-1.920229 1.6579352-2.968641 2.493116-2.067282 1.6984844-4.298687 3.4466741-6.168366 5.9855715-.886916 1.296263-1.685863 2.839091-1.959619 4.607556-.169374.87246-.135893 1.775004-.055801 2.648118.072213.411377.138519.896005.23174 1.24525.089939.365596.176596.731192.289512 1.09221.866565 2.873754 2.379771 5.757973 5.116015 7.829248.705725.51275 1.511237.956828 2.378458 1.274026.140488.984951.336779 1.96794.621038 2.941119.39455 1.378015.961756 2.746221 1.820443 3.988855l.270473.400259c.075496.120339.168718.233484.23371.357747.137206.246565.274412.49313.372229.754737.206137.517982.349908 1.060817.385359 1.62785.082061 1.131451-.176596 2.326996-.651237 3.475451-.958473 2.309991-2.604946 4.412659-4.343985 6.397603l-2.700137 2.994748c-.444443.576189-.954534 1.255714-.974229 2.126212-.045298.848915.330214 1.619348.79829 2.187036.472672.580113 1.041847 1.0255 1.639909 1.394366.598061.371482 1.223038.680832 1.885435.918241.340061.111183.655175.228906 1.083206.259022.470046.003239.847526-.246596 1.112091-.503625.5311-.538911.833741-1.16219 1.088458-1.817516l-.429343-.16285c-.261939.57292-.611191 1.160882-1.056947 1.54806-.222549.192281-.470702.305427-.684717.28646-.243558-.032701-.565893-.154348-.852779-.274687-.588214-.254413-1.154107-.581422-1.674046-.951596-.521252-.368213-.995236-.801172-1.33858-1.285146-.347939-.481357-.546198-1.014381-.489084-1.514705.025603-.513404.399802-.961406.778596-1.409408l2.852442-2.835822c1.888718-1.941125 3.747237-4.015669 5.004413-6.609504.617099-1.29234 1.051038-2.756686 1.028061-4.310632-.007222-.774357-.159527-1.553946-.408336-2.292987-.120794-.373444-.285573-.724651-.457573-1.073243-.083374-.176585-.191694-.334203-.287542-.502286l-.268504-.448002c-.627603-.994761-1.060885-2.151065-1.350397-3.35969-.144427-.58927-.255374-1.19162-.340061-1.801165 1.819787.037933 3.56539-.565725 4.923008-1.447995 1.407511-.884886 2.499908-2.013067 3.427527-3.187029.90858-1.181811 1.802061-2.468918 2.249786-4.269429.208763-.896658.23174-2.010451-.186443-3.035297" fill="#47372d"/><path d="m28.075258 58.7869183c-.9538778-.1896652-1.9655267-.110529-2.8301221.1772388-.8672214.3086965-1.5814809.8639576-2.0850077 1.5833773-.5324122.7272678-.7884427 1.5212455-1.1961221 2.5473995-.3847023.9581362-.8068244 1.8776853-1.2099084 2.8050826-.802229 1.8547947-1.6471298 3.6716563-2.405374 5.5186027-.7812214 1.8351741-1.5250229 3.6762344-2.1690382 5.5356071-.6735573 1.8495625-1.2420763 3.7174375-1.6976794 5.5800804-.2094198.9306674-.4234351 1.8619888-.5337252 2.7874241-.1293282.9241272-.2127023 1.8462924-.1792214 2.7377188.0196947.8907723.1076642 1.7710803.3584428 2.5683281.2146717.7279219.688 1.6899821 1.1002748 2.5872946.8475267 1.8175156 1.7672672 3.5604732 2.6581221 5.4675893.2199237.4865893.4437863.9725246.6249771 1.5663724.0991298.272072.1647787.625895.2199237.967947.0275725.387178.0374198.794631-.0991298 1.243288-.1181679.421187-.3663206.844337-.6216946 1.11183-.1293283.155656-.2625954.292346-.3912672.387179-.1299847.104643-.2639084.21975-.3925802.311966-.5310992.352516-.9591297.58273-1.3884732.832565-1.7167176.990183-3.3402138 2.055578-4.6906107 3.374732-1.37074812 1.294301-2.38764888 2.880949-2.80583209 4.625868-.05383206.44277-.18709923.879654-.16346565 1.334851l-.0170687.67887.07943512.681487c.03085496.446694.14967939.929359.25603053 1.406138.09453435.477433.23174046.956828.36041222 1.43557 1.03790839 3.842354 2.40865647 7.650046 3.80435117 11.427 1.4147328 3.775645 2.8846107 7.537555 4.4043816 11.277229l-.3000152.13342c-1.7554504-3.643533-3.4393435-7.319768-5.0438015-11.035897-.8041985-1.856757-1.5906718-3.723324-2.33972524-5.608857-.75496183-1.882918-1.47053435-3.784148-2.10207633-5.736391-.15230534-.490513-.31248855-.976449-.43722138-1.485929-.13326717-.502939-.27835114-.996723-.34793893-1.557216l-.12473282-.817522-.0170687-.835181c-.04267176-.558531.08206107-1.112485.13851908-1.670362.42540458-2.213196 1.63268702-4.205335 3.13276336-5.740969 1.48497706-1.572913 3.23517556-2.80966 4.97552676-3.910372.4352519-.275342.8829771-.552645 1.1862748-.773703.3000152-.240025.4345954-.43623.4352519-.517329.0157557-.038587.0019694-.140613-.003939-.255721-.0433282-.151732-.0610534-.297578-.1457404-.497053-.1273588-.368866-.3380916-.79921-.5527634-1.2223595-.8993893-1.7135268-1.948458-3.5009576-2.894458-5.3034308-.4674198-.9175871-.972916-1.7344554-1.4173588-2.9162656-.4155572-1.1137924-.5941221-2.2570157-.6834045-3.3760402-.1601833-2.2491674.1621526-4.4015402.6335114-6.4682366.4949924-2.0614643 1.1738015-4.0431384 1.9556794-5.9607188 1.5880458-3.8266584 3.524687-7.4420692 5.5840916-10.9338705l1.5217405-2.6023371c.4601984-.7900535.9958931-1.8888035 1.8099389-2.6860513.8094504-.8109821 1.8860916-1.3884799 2.9942443-1.5447902 1.1114351-.147154 2.1959542.0150424 3.1675572.4584665z" fill="#7e6355"/><path d="m137.377976 74.5695464c.911862-.6540178 1.999664-1.171346 3.198412-1.3309263 1.192183-.1785469 2.453954-.0313929 3.594931.3701741 2.317405.7854754 4.191679 2.3099911 5.828962 3.9084107 3.252244 3.2720513 5.669435 7.0895536 7.858168 10.9449888 1.098305 1.9300067 2.094855 3.9038326 3.057924 5.8783125l1.410137 2.9692411.675527 1.4846206.336122.7396942.360412.8319109c1.807969 4.476098 2.360076 9.125511 2.303618 13.688594-.043984 2.285792-.238305 4.56112-.603969 6.827292-.36829 2.268788-.865909 4.523841-1.811252 6.803094-.244214.571611-.517313 1.143223-.866565 1.724645-.350565.57946-.759557 1.175924-1.397008 1.761924-.160839.145192-.34203.288422-.537664.425111l-.353847.233485-.693908.448656-1.343176.87246c-.869847.57619-1.694397 1.16219-2.354168 1.769118-.327588.301502-.608565.608891-.802885.88881-.192352.280574-.277039.508826-.309207.676909-.023633.165466-.003282.336165.118168.59908.120138.258337.353848.567688.647955.867882l.240931.237409.342687.327662c.224519.228907.448382.457159.657145.714188.421466.503594.80945 1.072589 1.108153 1.714835.630885 1.278605.721481 2.867868.437877 4.107886-.125389.627857-.307893 1.195545-.454946 1.68802-.153618.476779-.227802.924781-.214015.983643-.003939.012426-.00197.011118-.005252.011772-.02429-.044473.044641.13342.071557.217788.064336.2034.108321.391757.137863.572266.060397.361672.082717.703723.078778 1.034002-.005908.66252-.102412 1.292339-.254061 1.906462-.309862 1.223013-.885603 2.373431-1.687175 3.345301-.79829.975795-1.829634 1.744266-2.9391 2.258324-1.109465.526484-2.289832.794632-3.450503.928051l.788442-.977756c.035451 1.695214-.175939 3.251776-.556046 4.828614-.387328 1.559832-.970946 3.082386-1.814534 4.463017-.827175 1.387172-1.937954 2.609532-3.232549 3.559166-1.292626.957482-2.773008 1.612154-4.28884 2.034649l-.156244-.49967c1.427206-.51929 2.771038-1.246558 3.896259-2.222352 1.130473-.969255 2.040366-2.160221 2.715893-3.468257.684061-1.304766 1.125222-2.731178 1.385848-4.183098.255374-1.439493.345313-2.979705.223206-4.365569l-.072871-.831257.861313-.1465c1.981939-.338781 3.798443-1.249174 4.852107-2.759955.532412-.741003.893481-1.605614 1.05629-2.499003.078122-.444732.114229-.89862.087313-1.321116-.009847-.211901-.043328-.411377-.082061-.582076-.019038-.085676-.043984-.160888-.065649-.215171-.019694-.042512.000657.009156-.066305-.164159-.047924-.128187-.091252-.257029-.114885-.379984-.191695-1.017652.030855-1.655973.131297-2.221699.126046-.557223.238962-1.03531.293451-1.47808.114885-.886849-.008535-1.569643-.380764-2.228893-.185129-.328971-.435252-.650094-.73461-.957482-.143771-.155657-.313802-.303465-.48055-.451273l-.625634-.527138c-.494992-.44277-.989328-.958136-1.395694-1.650087-.401771-.682141-.686687-1.599074-.630229-2.518623.054488-.916279.383389-1.723991.763496-2.361658.386672-.638322.826519-1.153688 1.270305-1.615424.892168-.916279 1.817161-1.634391 2.721802-2.313262l1.340549-.981026.649924-.473509.315115-.232831c.023633-.024198.054488-.049705.092564-.090908.156245-.15958.372229-.466969.559985-.826679.190382-.361018.362382-.781551.51797-1.218435.618412-1.77435.966351-3.809654 1.16461-5.834493.183817-2.036612.208107-4.104616.099787-6.154962-.224519-4.090228-.84884-8.17784-2.167069-11.818103l-.257344-.672984-.309206-.754737-.617099-1.501625-1.211221-2.9908236c-.809451-1.9855983-1.650413-3.9463438-2.507787-5.8913929-.859343-1.9430871-1.7909-3.844971-2.781542-5.6971496-.978168-1.8593727-2.073847-3.6409174-3.293603-5.2936205-1.224351-1.6376607-2.623328-3.151712-4.314442-4.1209665-.846871-.476125-1.771863-.7959397-2.755939-.8646116-.98342-.0752121-2.011481.1203393-3.007374.4996696z" fill="#7e6355"/><path d="m40.2023084 122.9273c-.2205802-5.922132-.4713588-11.748123-1.5263359-17.391643-1.032-5.6487523-2.7795725-11.019547-5.1101069-16.368105-1.171832-2.6703549-2.4808702-5.3505201-3.5122137-8.2210045-.5094351-1.4375312-.9394351-2.9116875-1.2145038-4.4453593-.2737557-1.5271317-.3768244-3.0732299-.3479389-4.6042857.0643358-3.0666898.6427023-6.0745179 1.5768855-8.935192.9578168-2.8613281 2.1920152-5.5846585 3.8030381-8.1529866l.0262596-.0405491.0164122-.0183125c.7365801-.7874375 1.5276488-1.4041764 2.3968397-1.9594375.8678778-.5428348 1.7994351-.988875 2.781542-1.2844911.9807939-.2969241 2.0081984-.4362299 3.0264122-.404183 1.0188702.0294308 2.0213282.2413326 2.9660152.5781518l-.1024122.3106584c-.9354962-.2635692-1.9031603-.3996049-2.86229-.3629799-.9597863.0333549-1.9044733.2328304-2.7972978.5637634-.8947939.3263549-1.7357557.7907076-2.5110687 1.3413906-.7654656.547413-1.5027023 1.207317-2.0745038 1.8966518l.0420153-.0588616c-1.3714046 2.5166607-2.4263817 5.272038-3.1649313 8.0476898-.7503664 2.7795758-1.1593588 5.642212-1.0792672 8.4688772.0420153 1.4113705.2048244 2.8129308.517313 4.1726339.3098626 1.353817.7700611 2.6991317 1.3096946 4.0130536 1.0805802 2.6343839 2.5090993 5.1876696 3.8581833 7.8416741 1.3727175 2.6402701 2.6758473 5.3930312 3.6310381 8.2837902.9479695 2.892721 1.5755725 5.892047 1.8736183 8.905107.635481 6.028083.1523054 12.067284-1.1954656 17.85665z" fill="#7e6355"/><path d="m8.44342748 96.023098s31.13134352-8.7834598 79.62746562-8.7834598c48.4967789 0 77.6159849 4.434241 80.4461069 8.7834598 0 0 3.308702.8639576 3.199069-3.5061897-.095848-3.8214264.19432-36.5824889-7.451802-40.505942-3.716382-1.9077701-46.518122-9.0261005-79.024809-7.8416741-32.5060305 1.1837723-75.64389311 6.8652254-79.46596945 14.1241696-3.10322137 5.8900849-.87509924 35.3751719-.64467176 36.0658148.23108397.6899888-.03676335 2.4833058 3.31461069 1.6638214" fill="#004152"/><path d="m4.37497099 83.345158c.11160306 1.8390982.23830535 3.6762344.38667176 5.5120625.15361832 1.8194777.27769465 3.7076273.52387786 5.4603951.13326718.4865893.15427481.9280514.41096183 1.2485201.229771.3263549.659771.4414621 1.08583206.4623906.87838168.035971 1.7488855-.2668392 2.64827481-.5029397 1.79024429-.4793951 3.58705339-.9247812 5.39108399-1.3407366 7.2167786-1.6638214 14.5189007-2.9254219 21.845313-3.9973571 1.834229-.2498349 3.665832-.5232143 5.502687-.7540826l5.5151603-.6644822c3.6855267-.3610178 7.3684275-.7501585 11.063145-1.0045714 3.6907787-.3171987 7.3900916-.4937835 11.0874351-.7069933 1.8486718-.1020268 3.7012825-.1412679 5.5512672-.2145179 1.8506412-.0595156 3.700626-.1517321 5.5525802-.1589263 7.4091297-.1576183 14.8084122-.0791362 22.2090079.0909085 7.399939.1680826 14.798565.4591205 22.188656.9188951 7.390748.4493102 14.768367 1.1510714 22.111848 2.1373303 3.670427.5009777 7.330351 1.1033281 10.958106 1.8881496 1.811909.402875 3.612657.8678817 5.381237 1.4545357.88626.2877678 1.756107.6337433 2.607573 1.0287701.832427.4238036 1.696366.8776919 2.299679 1.7056786l-.124733-.0902545c.552107.1249174 1.194809.0896004 1.701618-.1765848.528474-.2498349.869191-.7763192 1.061542-1.3387746.373542-1.1549955.195634-2.4486428.22255-3.7030491l-.038733-7.5617545.277038 7.5545603.063023 1.8894576c-.002626.6370134 0 1.2910312-.20745 1.9221585-.192351.6180469-.573771 1.2517902-1.198748 1.5696428-.61316.329625-1.311008.3884866-1.988504.254413l-.065649-.0130804-.059084-.0765201c-.508778-.6670982-1.341862-1.1118303-2.152626-1.4918147-.83374-.3610179-1.691114-.6795245-2.570809-.9404777-1.752168-.5382567-3.549634-.9430937-5.350382-1.3230781-3.611343-.7239978-7.261419-1.2707567-10.925282-1.7141808-7.327069-.8946964-14.698122-1.4152946-22.070489-1.8489085-14.747358-.8332187-29.5419844-1.0385803-44.3064118-.8665736-1.8460458-.0019621-3.6907787.0804442-5.536168.1301495-1.8440763.0647478-3.6907786.0948326-5.5341984.1870491-3.6861833.1942433-7.3763054.3531697-11.0559237.6500938-7.3644886.5349866-14.7158473 1.2544062-22.0389771 2.2033861-7.3231298.949634-14.6180305 2.1340603-21.8479389 3.6383014-1.807313.3708281-3.6106871.771087-5.4029008 1.2053549-.88494657.2060156-1.80468703.5114419-2.78876336.4486562-.47398473-.0313928-1.03922138-.1863951-1.34842748-.6396294-.31970993-.4303438-.32561832-.9672924-.43065649-1.3583951-.14180153-.9777567-.17265649-1.8574107-.24224428-2.7893862l-.15624427-2.7606094c-.08665649-1.8404062-.15361832-3.6821205-.20482443-5.5231808" fill="#187489"/><path d="m164.699847 51.8488353-1.191526-.402875-1.225665-.293654c-.811419-.2112478-1.641877-.3479375-2.463801-.5166742-1.643191-.3381272-3.302794-.6069285-4.956489-.8933883-3.315923-.5349867-6.638412-1.024192-9.969435-1.4519197-6.656794-.8927344-13.330656-1.6559732-20.020275-2.2321629-6.690274-.5565692-13.384488-1.059509-20.089206-1.3322344-6.7047172-.2485268-13.4107477-.2786116-20.1089004-.0268147-13.413374.4911674-26.8083664 1.612154-40.133771 3.2380424-6.6613893.8194843-13.3076794 1.7992031-19.8810992 3.1340535-3.2883512.657288-6.5616031 1.4067924-9.7665802 2.3845491-1.5998626.4970536-3.1852824 1.0477367-4.7063664 1.7436117-.75955723.3479375-1.50532822.7325-2.20120608 1.1942366-.69325191.4597745-1.35105344 1.0091495-1.77711451 1.7370714.39717558-.7442723 1.03922138-1.3270022 1.72-1.8175156.68406107-.4944375 1.41998474-.9103929 2.17232059-1.2916853 1.5118932-.7495045 3.0914046-1.3485848 4.6847023-1.8953438 3.1931603-1.0765133 6.4578779-1.9254285 9.7383512-2.6821272 6.5734198-1.4682701 13.2210229-2.5604799 19.8850381-3.5042277 6.6633588-.954866 13.3615115-1.6376607 20.0649161-2.234125 6.7047175-.5820759 13.4219084-1.0313861 20.1489465-1.3119598 6.7395115-.2145178 13.4842748-.1438839 20.211969.145192 6.725726.3328951 13.442917.807712 20.135161 1.5232076 6.694214.698491 13.366763 1.5722589 20.015679 2.5977589 3.321832.5245223 6.63513 1.1111763 9.937924 1.7429576 1.648443.3355111 3.300824.6500937 4.93745 1.0405424.816672.2014375 1.640565.3701741 2.446733.6134687l1.213847.3427054z" fill="#187489"/><g fill="#002f3e"><path d="m9.51599847 92.7057886c-.66174045 0-1.23091603-.4970536-1.30312977-1.1674219-.09387786-.8606875-2.26488549-21.1934486-.3669771-32.2535446.12276336-.7109174.79829008-1.1909665 1.51583206-1.0686652.71491604.1216473 1.19480914.7972478 1.07270234 1.5094732-1.83619852 10.7036563.3663206 31.3248393.3886412 31.531509.0781221.7181116-.4431298 1.3636272-1.16395422 1.4408013-.04792367.0052321-.09584733.0078482-.14311451.0078482"/><path d="m16.1834275 91.3977529c-.6617405 0-1.230916-.4970536-1.3031298-1.1674219-.0938779-.8606875-2.2648855-21.1934486-.3669771-32.2535446.1227634-.7109174.7969771-1.1883505 1.5158321-1.0686652.714916.1216473 1.1948091.7972478 1.0727023 1.5094732-1.8361985 10.7036563.3663206 31.3248393.3886412 31.5315089.0781221.7181117-.4431298 1.3636273-1.1639542 1.4408014-.0479237.0052321-.0958473.0078482-.1431145.0078482"/><path d="m22.1193969 89.4356993c-.6617404 0-1.230916-.4970535-1.3031297-1.1674218-.0938779-.8606875-2.2648855-21.1934487-.3669771-32.2535447.1227633-.7109174.7976336-1.1876964 1.515832-1.0686652.7149161.1216474 1.1948092.7972478 1.0727023 1.5094732-1.8361984 10.7036563.3663206 31.3248393.3886412 31.531509.0781222.7181116-.4431297 1.3636272-1.1639541 1.4408048-.0479237.0052287-.0958474.0078447-.1431146.0078447"/><path d="m28.1309939 88.1276636c-.6617405 0-1.230916-.4970536-1.3031298-1.1674219-.0938778-.8606875-2.2648855-21.1934486-.3669771-32.2535446.1227634-.7109174.7969771-1.1916205 1.5158321-1.0686652.714916.1216473 1.1948091.7972478 1.0727023 1.5094732-1.8361985 10.7036563.3663206 31.3248393.3886412 31.531509.0781221.7181116-.4431298 1.3636272-1.1639542 1.4408013-.0479237.0052321-.0958473.0078482-.1431145.0078482"/><path d="m34.6228122 87.4736458c-.6617404 0-1.230916-.4970536-1.3031298-1.1674219-.0938778-.8606875-2.2648855-21.1934487-.3669771-32.2535447.1227634-.7109174.7956642-1.1929285 1.5158321-1.0686651.714916.1216473 1.1948092.7972477 1.0727023 1.5094732-1.8361985 10.7036562.3663206 31.3248393.3886412 31.5315089.0781222.7181116-.4431298 1.3636272-1.1639542 1.4408013-.0479236.0052322-.0958473.0078483-.1431145.0078483"/><path d="m40.6337527 86.16561c-.6617405 0-1.2309161-.4970535-1.3031298-1.1674218-.0938779-.8606875-2.2648855-21.1934487-.3669771-32.2535447.1227634-.7109174.7956641-1.1903125 1.5158321-1.0686652.714916.1216474 1.1948091.7972478 1.0727023 1.5094733-1.8361985 10.7036562.3663206 31.3248392.3886412 31.5315089.0781221.7181116-.4431298 1.3636272-1.1639542 1.4408013-.0479237.0052322-.0958474.0078482-.1431145.0078482"/><path d="m47.4871649 85.5115922c-.6617405 0-1.230916-.4970536-1.3031298-1.1674219-.0938778-.8606875-2.2648855-21.1934486-.3669771-32.2535446.1227634-.7109174.7963206-1.1922746 1.5158321-1.0686652.714916.1216473 1.1948091.7972478 1.0727023 1.5094732-1.8361985 10.7036563.3663206 31.3248393.3886412 31.5315089.0781221.7181116-.4431298 1.3636273-1.1639542 1.4408014-.0479237.0052321-.0958473.0078482-.1431145.0078482"/><path d="m54.1552504 84.2035565c-.6617405 0-1.230916-.4970536-1.3031298-1.1674219-.0938779-.8606875-2.2648855-21.1934487-.3676336-32.2535446.1227634-.7109175.7976336-1.1896585 1.5158321-1.0686652.714916.1216473 1.1948091.7972477 1.0727023 1.5094732-1.835542 10.7036562.3669771 31.3248393.3892977 31.5315089.0781221.7181116-.4431298 1.3636273-1.1639542 1.4408014-.0479237.0052321-.0958473.0078482-.1431145.0078482"/><path d="m60.7470519 83.5495386c-.6617404 0-1.230916-.4970536-1.3031298-1.1674219-.0938778-.8606875-2.2648855-21.1934486-.3669771-32.2535446.1227634-.7109174.7976336-1.1916205 1.5158321-1.0686652.714916.1216473 1.1948092.7972478 1.0727023 1.5094732-1.8361985 10.7036563.3663206 31.3248393.3886412 31.531509.0781221.7181116-.4431298 1.3636272-1.1639542 1.4408013-.0479237.0052321-.0958473.0078482-.1431145.0078482"/><path d="m66.7587145 82.8955208c-.6617405 0-1.230916-.4970536-1.3031298-1.1674219-.0938778-.8606875-2.2648855-21.1934487-.3669771-32.2535447.1227634-.7109174.7969771-1.1935825 1.5158321-1.0686651.714916.1216473 1.1948092.7972477 1.0727023 1.5094732-1.8361985 10.7036562.3663206 31.3248393.3886412 31.5315089.0781221.7181116-.4431298 1.3636272-1.1639542 1.4408013-.0479237.0052322-.0958473.0078483-.1431145.0078483"/><path d="m73.2504672 82.2415029c-.6617405 0-1.2309161-.4970536-1.3031298-1.1674219-.0938779-.8606875-2.2648855-21.1934486-.3669771-32.2535446.1227634-.7109174.7956641-1.1890045 1.5158321-1.0686652.714916.1216473 1.1948091.7972478 1.0727023 1.5094732-1.8361985 10.7036563.3663206 31.3248393.3886412 31.5315089.0781221.7181117-.4431298 1.3636273-1.1639542 1.4408014-.0479237.0052321-.0958473.0078482-.1431145.0078482"/><path d="m79.9179618 82.2415029c-.6617404 0-1.230916-.4970536-1.3031297-1.1674219-.0938779-.8606875-2.2648855-21.1934486-.3669771-32.2535446.1227633-.7109174.7969771-1.1890045 1.515832-1.0686652.7149161.1216473 1.1948092.7972478 1.0727023 1.5094732-1.8361985 10.7036563.3663206 31.3248393.3886412 31.5315089.0781222.7181117-.4431297 1.3636273-1.1639542 1.4408014-.0479236.0052321-.0958473.0078482-.1431145.0078482"/><path d="m167.020666 90.7539377c-.011161 0-.021664 0-.032825-.000654-.724763-.0170045-1.297878-.6167388-1.280152-1.3394286.005251-.2295602.509435-23.1025268-3.986855-33.5622343-.285573-.6638282.023633-1.4329532.690626-1.7174509.665679-.2825357 1.437709.0235446 1.723282.6880268 4.722122 10.9835758 4.221221 33.6943459 4.197588 34.6557522-.017069.7115714-.601344 1.2759888-1.311664 1.2759888"/><path d="m161.634111 88.1276636c-.684717 0-1.261771-.5291004-1.308381-1.2190893-.015099-.2138638-1.496138-21.5557745-4.038718-32.1874888-.167404-.7030692.267848-1.4081005.972916-1.575529.706382-.1680826 1.41342.2668393 1.581481.9686004 2.592473 10.8442701 4.043313 31.7329464 4.10371 32.6165246.049237.7207277-.496962 1.3446607-1.220412 1.393712-.030199.0019621-.060397.0032701-.090596.0032701"/><path d="m154.180669 86.6305513c-.723451 0-1.310351-.5833839-1.312977-1.3034575-.000657-.2151719-.098474-21.5937076-2.631207-32.1829108-.168061-.7030692.267191-1.4081004.972917-1.575529.707038-.1687366 1.413419.2668393 1.58148.9686005 2.603634 10.8854732 2.700138 31.8925267 2.702773 32.780683.002617.7233437-.583628 1.3099978-1.308391 1.3126138z"/><path d="m147.119544 85.0798096c-.019039 0-.038733-.000654-.057771-.001308-.724107-.0313929-1.286718-.6409375-1.255207-1.3629733.009191-.2079776.871817-20.9318415-1.653694-31.4896517-.167405-.7037233.267847-1.4087545.972916-1.5761831.707694-.1661205 1.41342.2668393 1.581481.9692545 2.610855 10.91425 1.760702 31.3451138 1.722626 32.2090714-.030199.7024152-.611848 1.2517902-1.310351 1.2517902"/><path d="m140.598905 84.8447556c-.019038 0-.038732-.000654-.057771-.0013081-.724107-.0313928-1.286717-.6409375-1.255206-1.3629732.009191-.2079776.871817-20.9318415-1.653694-31.4903058-.167405-.7037232.267847-1.4087544.972916-1.576183.707694-.1680826 1.413419.2674933 1.581481.9692545 2.610854 10.914904 1.760702 31.3457678 1.722625 32.2097254-.030198.7024152-.611847 1.2517902-1.310351 1.2517902"/><path d="m134.515489 83.9257297c-.019039 0-.038733-.000654-.057771-.001308-.724107-.0313929-1.286718-.6409375-1.255207-1.3629733.009191-.2079776.871817-20.9318415-1.653694-31.4903058-.167405-.7037232.267847-1.4087544.972916-1.576183.707694-.1654665 1.41342.2668393 1.581481.9692545 2.610855 10.914904 1.760702 31.3457678 1.722626 32.2097254-.030199.7024152-.611848 1.2517902-1.310351 1.2517902"/><path d="m127.634504 83.7136971c-.019038 0-.038733-.000654-.057771-.001308-.724107-.0313929-1.286718-.6409375-1.255206-1.3629733.009191-.2079776.87116-20.9318415-1.654351-31.4903058-.167405-.7037232.267847-1.4087544.972916-1.576183.705725-.1693906 1.413419.2674933 1.581481.9692545 2.610854 10.914904 1.760702 31.3457678 1.723282 32.2097254-.030199.7024152-.611847 1.2517902-1.310351 1.2517902"/><path d="m120.895911 82.8367246c-.019038 0-.038732-.0006541-.057771-.0013081-.724106-.0313928-1.286717-.6409375-1.255206-1.3629732.009191-.2079777.871161-20.9318415-1.654351-31.4903058-.167404-.7037232.267848-1.4087545.972916-1.576183.707038-.1693907 1.41342.2674933 1.581481.9692544 2.610855 10.914904 1.760702 31.3457679 1.723283 32.2097255-.030199.7024152-.611848 1.2517902-1.310352 1.2517902"/><path d="m114.929809 82.5653071c-.019038 0-.038733-.000654-.057771-.001308-.724107-.0313929-1.286717-.6409375-1.255206-1.3629732.009191-.2079777.87116-20.9318415-1.653695-31.4903058-.167404-.7037232.267848-1.4087545.972916-1.576183.707039-.1667746 1.41342.2668392 1.581481.9692544 2.610199 10.914904 1.760046 31.3457679 1.722626 32.2097255-.030198.7024151-.611847 1.2517901-1.310351 1.2517901"/><path d="m107.577006 82.3411098c-.019038 0-.038733-.000654-.057771-.001308-.724107-.0313929-1.286717-.6409375-1.255206-1.3629732.009191-.2079777.87116-20.9318415-1.653695-31.4896518-.167404-.7037232.267848-1.4087545.972916-1.5761831.707695-.1674285 1.41342.2674934 1.581481.9692545 2.610199 10.91425 1.760046 31.3451139 1.722626 32.2090714-.030198.7024152-.611847 1.2517902-1.310351 1.2517902"/><path d="m101.055055 82.1060558h-.009847c-.724764-.0052321-1.308382-.5951562-1.3031301-1.317846.0013129-.2112477.1326106-21.2961294-1.6687939-31.6158772-.1234199-.7122255.3545038-1.3891339 1.0687633-1.5133973.7208245-.1223014 1.3943817.3531696 1.5184577 1.064741 1.841451 10.5525782 1.714092 31.2097322 1.707527 32.0841541-.005252.7187656-.592153 1.2982254-1.312977 1.2982254"/><path d="m94.401084 82.5346337c-.7247634 0-1.3123206-.584692-1.3129771-1.3067277-.0164122-14.2772098-.5337252-24.24575-1.6753588-32.3228705-.1010992-.7154955.399145-1.3767076 1.116687-1.4780804.7116336-.1000647 1.3825649.3969889 1.4836641 1.1124844 1.1751145 8.312567 1.6845497 18.0881719 1.7009624 32.6858505.000656.7226897-.5869013 1.3086897-1.3116647 1.3093437z"/><path d="m87.3816458 82.5346337c-.6788092 0-1.2538931-.5212522-1.3077252-1.2066629-.0170687-.217134-1.691771-21.8029933-1.691771-32.6054063 0-.7226897.5875573-1.3080357 1.3129771-1.3080357.7247634 0 1.3129771.585346 1.3129771 1.3080357 0 10.7023482 1.6674809 32.1868348 1.6838931 32.4026607.0564581.7200737-.4844885 1.3492389-1.2072824 1.4054844-.0347939.0026161-.0689313.0039241-.1030687.0039241"/></g><path d="m128.494241 204.150693s-2.423099 4.916252-5.939908 10.75467c-3.516153 5.839071-3.833893 75.658747-3.833893 75.658747s-.374199 2.335498-2.235344 2.335498h-21.0962594c-1.5795114 0-2.8655725-1.265524-2.8806717-2.839091-.1083206-11.286386-.0249466-52.832871 6.9016641-62.465246 6.625282-9.212495 24.00516-15.075111 29.084412-23.444578" fill="#fef9ea"/><path d="m52.9756061 214.413149c-1.5447176-.999339-3.1222595-.252451-3.2542137-.330933 3.5161526 5.838417 6.0803969 63.401799 6.0803969 63.401799s.374855 2.335498 2.236 2.335498h17.8138168c1.5795115 0 2.8655725-1.266179 2.8800153-2.839746.1089771-11.286386.025603-39.751859-6.9010077-49.384888-6.6252824-9.212496-17.314229-12.185007-18.8550076-13.18173" fill="#fef9ea"/><path d="m75.8514092 279.753588c.8343969-.009811 1.6477862-.408761 2.1572213-1.054931.2547176-.321777.4365649-.699145.5284733-1.096134.0997863-.393065.0649924-.810982.0689313-1.240672l-.0558015-5.091529c-.0597405-3.393045-.1739695-6.785435-.3577863-10.171286-.3604122-6.769084-.942061-13.543401-2.2281221-20.174488-.6794657-3.297558-1.5000763-6.591846-2.8465344-9.627797-.6742137-1.529748-1.458061-2.924768-2.5392977-4.202065-.9958931-1.328964-2.1637862-2.521893-3.3730381-3.666424-1.2289466-1.125565-2.5215726-2.191614-3.903481-3.14321-1.3805954-.954212-2.8255267-1.815554-4.3026259-2.632422-1.4823512-.80902-3.0106565-1.533018-4.5632519-2.238049-.3853588-.179201-.7733435-.367558-1.1606718-.564417-.4181832-.230215-.7142595-.468931-1.0950229-.609545-.373542-.144538-.7799084-.218442-1.1921832-.214518-.2061374-.004578-.4142443.014389-.6216946.039895l-.3131451.048398c-.1181679.008502-.1785649.058861-.3656641.023544l.0676183-.111837.5744275-.155656c.2107328-.049705.4260611-.092871.6459847-.111183.4385344-.045127.892168-.002616 1.3254504.122955.4359084.118377.8429313.381293 1.1862748.528447.3873283.156964.7812214.308042 1.1816794.454542 1.5932977.60235 3.1879084 1.24525 4.7457557 1.97448 3.1104428 1.469578 6.0442901 3.350533 8.6741832 5.620629 1.2716184 1.179195 2.5045039 2.415288 3.5647329 3.797882.2685038.344013.5383206.682141.7917252 1.041851.2350229.37606.5002442.73904.7090076 1.126872.4378779.767163.8186412 1.557217 1.1573893 2.358389 1.3333283 3.221692 2.0751603 6.58596 2.6843817 9.946957 1.1711756 6.737692 1.6208702 13.54471 1.8519542 20.339956.0965038 3.39893.1234198 6.797861.0958473 10.196138l-.0754962 5.095453c-.0150992.417264.0111603.85938-.1083206 1.292993-.1102901.427074-.3177404.828641-.598061 1.166114-.5639237.677563-1.43771 1.074552-2.3108397 1.061785z" fill="#fff"/><path d="m56.0676672 191.418404c-.6446718 1.124257-.9144886 2.432947-.7897557 3.683429.1240763 1.25506.6407328 2.434254 1.3838778 3.43948 1.519771 2.009797 3.7222901 3.406125 5.9694504 4.576163 4.4805343 2.540859 9.7705191 2.59318 14.8248244 1.953551 2.5438932-.30935 5.0720306-.81556 7.5732519-1.436223 2.5077863-.601697 4.9834046-1.342699 7.453771-2.110516 2.4664275-.782205 4.9177557-1.621964 7.3598932-2.49704l3.6704278-1.304766c1.226977-.419879 2.437542-.932629 3.724916-1.157611-.632855.147808-1.21713.440154-1.813222.692605l-1.781053.786129-3.565389 1.580107c-2.3929012 1.019614-4.8094356 1.994755-7.2666722 2.867869-4.9085649 1.750805-9.9641832 3.202071-15.1918015 3.876363-2.612168.304773-5.2702901.451273-7.9218474.148462-.6604274-.098756-1.3234809-.166774-1.9760305-.328316-.3262748-.075213-.6564886-.129496-.9788244-.223675l-.9650382-.291038c-.3249618-.084368-.632855-.228252-.9466565-.349899-.3065801-.134074-.6381069-.235447-.9230229-.398951l-1.7567633-.909085c-2.2852367-1.291031-4.5212367-2.870484-6.0186871-5.116382-.714916-1.134066-1.173145-2.44668-1.2007175-3.778261-.0426718-1.330926.3702595-2.65335 1.1350687-3.702395" fill="#efe3bd"/><path d="m121.208137 195.009093c.49171.506864.965695 1.046429 1.297878 1.693906.326932.638976.412275 1.468924.080092 2.161529-.330214.682141-.884947 1.21582-1.477756 1.634391-.29542.214518-.607252.402221-.920397.586654-.309862.172007-.659114.334203-.940091.514058-.290168.182471-.588871.337473-.874443.531063l-.844901.61543c-.567206.402875-1.098962.873114-1.649099 1.306074-1.077298.904507-2.15197 1.816862-3.205634 2.757339-4.223191 3.750139-8.378107 7.59511-12.686641 11.294235-1.088458.913009-2.1795419 1.825363-3.3047633 2.703709-1.1212825.883579-2.2734199 1.739688-3.5358473 2.503581l-1.0326565.51275c-.3367787.13669-.6683054.253759-1.0018016.381946-.6722442.246565-1.3517099.480703-2.0410229.697183-1.3792824.430344-2.805832.744927-4.2540458.900583-1.4462442.177239-2.9194045.119685-4.3571145-.080444l-1.0733587-.19359c-.3558168-.071288-.7011298-.189665-1.0516947-.282535-.7070382-.167429-1.3681221-.469585-2.0410229-.728576-.6617405-.284498-1.2854046-.650748-1.922855-.976449-.598061-.396989-1.2112213-.767163-1.7895878-1.184426-.5567022-.447348-1.1311297-.869844-1.6674809-1.334851l-1.5374962-1.472194c2.1690382 1.81163 4.5166413 3.453214 7.1583512 4.374072 2.6134809.964022 5.4271908 1.270102 8.1568702.865265 1.3641832-.200783 2.7067023-.542181 4.0262443-.977102.658458-.223021 1.3136336-.465007 1.9655267-.721382.3249618-.132112.6604275-.258991.9761985-.395681l.86-.453234c2.3029618-1.457152 4.469374-3.320449 6.6147786-5.132732 4.3006566-3.656614 8.4943056-7.462344 12.8757096-11.073177 1.095023-.90189 2.201206-1.795933 3.338245-2.65335.584274-.414648 1.137694-.857418 1.745603-1.247212l.902015-.589924c.311832-.186396.647954-.3499.972259-.519945.330871-.17593.636138-.291038.956504-.440808.307893-.153694.616443-.311312.906611-.493129.585588-.353824 1.114718-.807058 1.444275-1.380632.326275-.57619.311175-1.293647.049893-1.929353-.256031-.642245-.67487-1.223667-1.117344-1.773042" fill="#efe3bd"/><path d="m65.5406 214.464882 5.4029008 2.414634c1.7928702.820138 3.6159389 1.671015 5.3425038 2.694553l2.5169771 1.505549c.7424885.412032 1.6477862.605621 2.5681832.665136 1.8565496.114454 3.7833435-.245256 5.6339847-.775011 1.8565496-.537602 3.6691145-1.272718 5.3838626-2.178533.8573741-.455197 1.6865191-.95552 2.4572367-1.53498l2.3561374-1.775005c3.1498317-2.35381 6.2963817-4.763212 9.7665797-6.638935-3.384855 2.018953-6.409954 4.547386-9.4554042 7.030038l-2.2806412 1.875069c-.7772824.635052-1.6175878 1.189005-2.4789008 1.691945-1.7272213 1.003263-3.5522595 1.830595-5.4547633 2.466955-1.9031603.623933-3.8923206 1.094826-5.9838931 1.054931-1.0385649-.028123-2.123084-.194244-3.1314504-.695221l-2.6141374-1.416603c-1.7022748-.914317-3.4872672-1.656627-5.3083664-2.398937l-5.4816794-2.175918-.0065649-.002616c-.5054962-.200783-.7516794-.771741-.5507939-1.275335.201542-.50294.7746565-.74885 1.2794962-.548067.0124733.004578.026916.011119.0387328.016351" fill="#fffcf5"/></g></g></svg>