<svg height="330" viewBox="0 0 230 330" width="230" xmlns="http://www.w3.org/2000/svg" xmlns:xlink="http://www.w3.org/1999/xlink"><linearGradient id="a" x1="50.000005%" x2="50.000005%" y1="99.999999%" y2=".000219%"><stop offset="0" stop-color="#fdddc8"/><stop offset="1" stop-color="#e9cdba"/></linearGradient><mask id="b" fill="#fff"><path d="m110.458522.50206522h-17.0954194v26.47146958c0 10.0555565-10.7836334 14.8455826-24.9302258 19.5624043-14.1563138 4.712287-15.946997 13.4637696-15.946997 13.4637696l-51.9699971 88.9562393h24.523871l36.0910498-50.6522263 9.5593842 50.6522263h39.7683343 39.768334l9.558088-50.6522263 36.091698 50.6522263h24.523871l-51.969997-88.9562393s-1.790683-8.7514826-15.946349-13.4637696c-14.14724-4.7168217-24.931522-9.5068478-24.931522-19.5624043v-26.47146958z" fill="#fff" fill-rule="evenodd"/></mask><mask id="c" fill="#fff"><path d="m.00006491.16687952h221.59228609v107.78920448h-221.59228609z" fill="#fff" fill-rule="evenodd"/></mask><mask id="d" fill="#fff"><path d="m.00029032.59912277h17.88235468v16.23458013h-17.88235468z" fill="#fff" fill-rule="evenodd"/></mask><mask id="e" fill="#fff"><path d="m0 292h221.592351v-291.7248337h-221.592351z" fill="#fff" fill-rule="evenodd"/></mask><g fill="none" fill-rule="evenodd"><path d="m110.458522.50206522h-17.0954194v26.47146958c0 10.0555565-10.7836334 14.8455826-24.9302258 19.5624043-14.1563138 4.712287-15.946997 13.4637696-15.946997 13.4637696l-51.9699971 88.9562393h24.523871l36.0910498-50.6522263 9.5593842 50.6522263h39.7683343 39.768334l9.558088-50.6522263 36.091698 50.6522263h24.523871l-51.969997-88.9562393s-1.790683-8.7514826-15.946349-13.4637696c-14.14724-4.7168217-24.931522-9.5068478-24.931522-19.5624043v-26.47146958z" fill="url(#a)" mask="url(#b)" transform="translate(5 181)"/><path d="m171.542451 19.7857952s-.879562-8.8202169-10.119825-13.34060243c-9.240263-4.51973494-20.340912-6.27831325-20.340912-6.27831325s-2.332298 23.63898798-30.285474 23.69624098c-27.9538242-.057253-30.2854733-23.69624098-30.2854733-23.69624098s-11.1006492 1.75857831-20.3409123 6.27831325c-9.2402632 4.52038553-10.1198246 13.34060243-10.1198246 13.34060243-23.870193 33.0753253-50.04996489 88.1702888-50.04996489 88.1702888h27.28003509l33.7699649-45.9442406 9.0202105 45.9442406h39.7204736 2.010983 39.721122l9.019562-45.9442406 33.769965 45.9442406h27.280035s-26.179772-55.0949635-50.049965-88.1702888" fill="#cc92b0" mask="url(#c)" transform="translate(4 222)"/><g transform="translate(4 38)"><path d="m94.1379965 179.609459c0 1.763654-1.432614 3.192576-3.2001754 3.192576-1.7675615 0-3.2008246-1.428922-3.2008246-3.192576 0-1.763007 1.4332631-3.192577 3.2008246-3.192577 1.7675614 0 3.2001754 1.42957 3.2001754 3.192577" fill="#f4e6ed"/><path d="m91.2109719 178.095785c0 .453863-.3687017.822262-.8237368.822262s-.824386-.368399-.824386-.822262c0-.453215.3693509-.821614.824386-.821614s.8237368.368399.8237368.821614" fill="#fff"/><path d="m99.3845965 183.274156c0 1.763654-1.4332632 3.192577-3.2008246 3.192577-1.7669123 0-3.2001754-1.428923-3.2001754-3.192577 0-1.763007 1.4332631-3.192576 3.2001754-3.192576 1.7675614 0 3.2008246 1.429569 3.2008246 3.192576" fill="#f4e6ed"/><path d="m96.4571825 181.74216c0 .453862-.3687018.822261-.8237369.822261s-.8237368-.368399-.8237368-.822261c0-.453215.3687017-.821615.8237368-.821615s.8237369.3684.8237369.821615" fill="#fff"/><path d="m105.326212 185.658456c0 1.763007-1.433263 3.191929-3.200824 3.191929-1.767562 0-3.2001757-1.428922-3.2001757-3.191929 0-1.763654 1.4326137-3.192577 3.2001757-3.192577 1.767561 0 3.200824 1.428923 3.200824 3.192577" fill="#f4e6ed"/><path d="m102.398798 184.2902c0 .453862-.368702.822261-.823737.822261s-.824386-.368399-.824386-.822261c0-.453863.369351-.821615.824386-.821615s.823737.367752.823737.821615" fill="#fff"/><path d="m118.086149 186.555627c0 1.763655-1.433263 3.192577-3.200824 3.192577-1.766913 0-3.200176-1.428922-3.200176-3.192577 0-1.763006 1.433263-3.192576 3.200176-3.192576 1.767561 0 3.200824 1.42957 3.200824 3.192576" fill="#f4e6ed"/><path d="m115.158735 185.188019c0 .453215-.368702.821614-.823737.821614s-.823737-.368399-.823737-.821614c0-.453863.368702-.822262.823737-.822262s.823737.368399.823737.822262" fill="#fff"/><path d="m111.685279 186.568318c0 1.763006-1.433263 3.192576-3.200825 3.192576-1.767561 0-3.200175-1.42957-3.200175-3.192576 0-1.763007 1.432614-3.192577 3.200175-3.192577 1.767562 0 3.200825 1.42957 3.200825 3.192577" fill="#f4e6ed"/><path d="m108.966428 184.908579c0 .453863-.368702.822262-.823737.822262s-.823737-.368399-.823737-.822262c0-.453215.368702-.821614.823737-.821614s.823737.368399.823737.821614" fill="#fff"/><path d="m124.422367 185.645766c0 1.763007-1.433263 3.192576-3.200176 3.192576-1.767561 0-3.200824-1.429569-3.200824-3.192576s1.433263-3.192577 3.200824-3.192577c1.766913 0 3.200176 1.42957 3.200176 3.192577" fill="#f4e6ed"/><path d="m121.495018 184.277574c0 .453863-.368702.822262-.823737.822262s-.823737-.368399-.823737-.822262c0-.453215.368702-.821614.823737-.821614s.823737.368399.823737.821614" fill="#fff"/><path d="m130.378912 183.262114c0 1.763006-1.433263 3.191929-3.200824 3.191929-1.766913 0-3.200176-1.428923-3.200176-3.191929 0-1.763655 1.433263-3.192577 3.200176-3.192577 1.767561 0 3.200824 1.428922 3.200824 3.192577" fill="#f4e6ed"/><path d="m127.451498 181.893857c0 .453863-.368702.822262-.823737.822262s-.823736-.368399-.823736-.822262c0-.453862.368701-.822261.823736-.822261s.823737.368399.823737.822261" fill="#fff"/><path d="m135.537037 179.609459c0 1.763654-1.433263 3.192576-3.200825 3.192576-1.767561 0-3.200175-1.428922-3.200175-3.192576 0-1.763007 1.432614-3.192577 3.200175-3.192577 1.767562 0 3.200825 1.42957 3.200825 3.192577" fill="#f4e6ed"/><path d="m132.609623 178.24185c0 .453215-.368702.821614-.823737.821614s-.824386-.368399-.824386-.821614c0-.453862.369351-.822262.824386-.822262s.823737.3684.823737.822262" fill="#fff"/><g fill="#ddb6cc"><path d="m70.3360263 213.744777c-.7224737.168337-1.4449474-.279699-1.6137193-.999663-.1687719-.720612.2797719-1.441871 1.0028948-1.609561.7218245-.168984 1.4442982.279051 1.6130701.999663.1694211.720612-.2797719 1.441224-1.0022456 1.609561m4.8963333-2.571672c-.8282807.014891-1.792228.13726-2.6581578.332789.539421-.459689 1.0593684-.970527 1.4767543-1.460647 1.3722457-1.611503 1.1138948-2.378084.4621755-2.930359-.6530176-.552923-1.4527369-.68306-2.8249825.928443-.3920702.45969-.7880351 1.012612-1.1385614 1.579779-.0480351-.720612-.1525438-1.458058-.3018421-2.097091-.4822982-2.059539-1.2534561-2.30816-2.0875789-2.113925-.8334737.194235-1.4137895.758164-.9314913 2.817055.1603334.683708.417386 1.446404.7205264 2.15342-.6153685-.415016-1.2852632-.795717-1.9012807-1.074768-1.9311404-.87341-2.5977895-.415663-2.9522106.361925-.3537719.777588-.2596491 1.579778 1.6708421 2.453836.6134211.278403 1.3384913.528967 2.0531755.718022-.7114386.213011-1.4319649.488825-2.0388948.787947-1.9006315.937508-1.9674912 1.742288-1.5884035 2.507574.3797369.765934 1.0613158 1.201668 2.9625965.264807.5764211-.28423 1.1982807-.662341 1.7747018-1.072825-.2382281.673348-.4329649 1.383601-.5485088 2.022635-.375193 2.080904.2336842 2.613756 1.0762456 2.765259s1.5994386-.136612 1.9752807-2.217517c.1304737-.721907.1973333-1.564887.1940877-2.36384.4232281.679823.9288948 1.359645 1.4241755 1.903503 1.4248245 1.565535 2.22 1.408852 2.8535438.834563.634193-.574288.866579-1.347991-.5588947-2.913525-.3868772-.425375-.8568421-.864993-1.3482281-1.268355.7666141.122368 1.5786667.185818 2.288807.173517 2.1200351-.036905 2.5257369-.736151 2.5108071-1.590138-.0149299-.853986-.4446492-1.538341-2.5646843-1.502084"/><path d="m75.253586 234.866542c-.8075088.188408-1.6143685-.311424-1.8032632-1.117499-.1882456-.80478.3128772-1.610208 1.120386-1.797969.8068596-.188408 1.6143684.312071 1.8032631 1.117499.1882456.80478-.3128772 1.610208-1.1203859 1.797969m5.470807-2.872736c-.9256491.016186-2.0025439.153445-2.9697369.370989.6030351-.512781 1.184-1.084479 1.6500702-1.631575 1.5332281-1.801206 1.2450176-2.656487.5154035-3.274155-.7289649-.618315-1.6221579-.763343-3.1560351 1.037215-.4375087.514076-.8802105 1.131096-1.2722807 1.765597-.053228-.804781-.1700701-1.63028-.3368947-2.34377-.5394211-2.301037-1.400807-2.579441-2.3322982-2.361898-.9314913.216896-1.579965.846865-1.041193 3.147255.1791579.764639.4667193 1.616683.8049123 2.405925-.6874211-.463574-1.4358597-.888302-2.124579-1.199725-2.1570351-.977002-2.9028772-.464869-3.298193.404009s-.2901579 1.765596 1.8668772 2.741951c.6854737.310776 1.495579.591122 2.2946491.801543-.7958245.238262-1.6007368.546448-2.278421.88118-2.1239298 1.046927-2.1992281 1.946882-1.7753509 2.802164.4238772.855281 1.1865965 1.342164 3.3098772.295237.6445789-.31725 1.3397895-.740035 1.9837193-1.19843-.2661404.752337-.4842456 1.546111-.6127719 2.260248-.4193334 2.324994.2609473 2.920648 1.2028245 3.089632.9412281.168985 1.7870351-.152151 2.2070176-2.478439.1454035-.806075.2200526-1.747468.216807-2.640949.4725614.760107 1.0379474 1.518918 1.591 2.126874 1.5922982 1.74941 2.4802982 1.574598 3.1884912.932975s.9684912-1.506616-.6244561-3.255379c-.4323158-.475228-.9574562-.966643-1.5066141-1.417915.8568421.136611 1.7643158.207831 2.5575439.193587 2.3686491-.040789 2.822386-.822262 2.8055088-1.776603-.0162281-.953694-.4972281-1.71898-2.8658772-1.677543"/><path d="m80.6915474 255.315606c-.3044386.453215-.919807.574936-1.3748421.270634-.4550351-.303654-.5764211-.918084-.2719825-1.371299.3050877-.453215.9204561-.574936 1.3754912-.270634.454386.303654.5764211.918084.2713334 1.371299m1.3436842-3.845206c-.4394562.423432-.8977369.973118-1.2664386 1.513738.0590702-.518607.0817895-1.055343.0597193-1.529277-.0727018-1.558412-.5984912-1.841995-1.2300877-1.81286-.6302983.029783-1.1275264.36063-1.0548246 1.919042.0207719.445446.0863333.94204.1830526 1.423743-.3888245-.363867-.8178947-.709606-1.2216491-.979592-1.2995439-.868231-1.8402631-.615078-2.1920877-.091938s-.380386 1.118794.9191579 1.987024c.4310175.288763.9548596.570404 1.474807.800249-.5407193.085463-1.0944211.216248-1.5676316.374873-1.4819473.497889-1.6111228 1.079947-1.4098947 1.677543.2018772.596949.6575614.982182 2.1401579.484941.470614-.158626.988614-.387176 1.469614-.644213-.2765263.471991-.5257895.982829-.7023509 1.448993-.5517543 1.459353-.1817543 1.927459.4089474 2.150182.5907018.222723 1.178807.115246 1.7312105-1.344754.1681228-.442856.3122281-.958874.4167369-1.469712.2109649.482998.4641228.964053.724421 1.36612.8477544 1.311086 1.4455965 1.292958 1.976579.951752.5303333-.341854.7938772-.877295-.0538772-2.188382-.2947018-.45451-.6835263-.942687-1.088579-1.372594.5718772.154741 1.1872456.267397 1.7286141.312071 1.559193.128843 1.908421-.354803 1.961-.982829.0519298-.627379-.2129123-1.161526-1.7721053-1.291016-.4232281-.034315-.898386-.03561-1.3677017-.006474.4751578-.319841.9457719-.693419 1.3229122-1.055991 1.1242807-1.084479.9905614-1.66589.5517544-2.118457-.4394561-.453215-1.0165263-.606661-2.1414561.477818"/><path d="m85.0990912 276.762391c-.7224737.168337-1.4449473-.279698-1.6137193-.999663-.1687719-.720612.279772-1.441871 1.0028948-1.609561.7218245-.168337 1.4449473.279051 1.6130701.999663.1694211.720612-.2797719 1.441224-1.0022456 1.609561m4.8963334-2.571672c-.8282807.014892-1.7922281.137907-2.6581579.33279.539421-.45969 1.0600175-.970528 1.4767544-1.460648 1.3722456-1.611503 1.1138947-2.377437.4621754-2.930359-.6530176-.552922-1.4520877-.68306-2.8249825.928443-.3920701.460337-.7880351 1.012612-1.1385614 1.580426-.0480351-.721259-.1525438-1.458705-.3018421-2.097738-.4822982-2.059539-1.2534561-2.30816-2.0875789-2.113925-.8334737.194235-1.4137895.758164-.9314912 2.817056.1603333.683707.4173859 1.446403.7205263 2.153419-.6153685-.415016-1.2852632-.795716-1.9012807-1.074767-1.9304913-.873411-2.5977895-.415663-2.9522106.361924-.3537719.777588-.2596491 1.579778 1.6708421 2.454484.6134211.277756 1.3384913.528319 2.0531755.717374-.7114386.213011-1.4319649.488825-2.0388948.787947-1.9006315.937508-1.9674912 1.742936-1.5884035 2.507574.3797369.765934 1.0613158 1.201668 2.9625965.264807.5764211-.28423 1.1982807-.662341 1.7747018-1.072824-.2382281.673995-.4329649 1.384248-.5478597 2.022634-.3758421 2.080904.2330351 2.613756 1.0755965 2.765907.8425614.150855 1.6000877-.136612 1.9752807-2.218165.1304737-.721906.1973334-1.564886.1940877-2.36384.4232281.679823.9288948 1.359645 1.4241755 1.903503 1.4248245 1.565535 2.22 1.408852 2.8535438.834564.634193-.573641.866579-1.347991-.5582456-2.913526-.3875263-.424727-.8574912-.864993-1.3488772-1.268355.7672632.122368 1.5786667.185819 2.2888071.173517 2.120035-.036905 2.5263859-.736151 2.510807-1.58949-.0149299-.854634-.4446492-1.538989-2.5646842-1.502732"/><path d="m94.1199509 222.377812c-.565386.131432-1.1314211-.218838-1.263193-.782767-.1324211-.563929.2194035-1.127858.7847895-1.259938.5653859-.131432 1.1307719.218838 1.263193.782767.132421.563929-.2194036 1.127858-.7847895 1.259938m3.832421-2.012275c-.6484737.010359-1.4027544.107477-2.0804386.259628.422579-.359983.829579-.760107 1.1554386-1.143397 1.0749474-1.261233.8724211-1.861419.3622106-2.293916-.5108597-.433144-1.1366141-.534794-2.2115614.726439-.306386.36063-.6166667.793126-.8912457 1.237277-.0376491-.563929-.1187894-1.141454-.2362807-1.642581-.3771403-1.611503-.9808245-1.806386-1.6338421-1.653587-.6523684.151503-1.1067544.593064-.729614 2.204567.1259298.535441.3271579 1.13239.5647368 1.68596-.4822982-.324372-1.0067894-.622847-1.4884386-.841037-1.511807-.684355-2.0337017-.325668-2.3108772.282935-.2771754.609251-.2031754 1.23663 1.3079825 1.920985.4797018.217543 1.0470351.414368 1.6072281.561986-.5575965.166395-1.1210351.382643-1.596193.616373-1.4877895.733561-1.5403684 1.364177-1.2437193 1.963716.2972982.598891.8315263.940098 2.3193158.206537.4511403-.222076.9379824-.518608 1.3897719-.839096-.1869474.527025-.3394912 1.083184-.4297193 1.582368-.2940526 1.629632.1830526 2.04659.8425614 2.165074.6588597.118483 1.2521579-.10683 1.5455614-1.736462.1019123-.564576.1544913-1.224328.1525439-1.849765.3310526.532204.7270175 1.064408 1.1138947 1.490431 1.1158421 1.224975 1.7383509 1.102607 2.2342807.653277.4959298-.449331.6783334-1.055344-.4375088-2.280967-.3024912-.332789-.6705438-.677233-1.0554736-.993188.6004386.095822 1.2359298.146323 1.792228.135964 1.6591579-.028488 1.976579-.576231 1.9655439-1.244399-.0123333-.668169-.3492281-1.204257-2.008386-1.175122"/><path d="m99.0286175 243.791124c-.8626842.201357-1.7253684-.334085-1.9272456-1.194546-.201228-.859813.3342983-1.720922 1.1969825-1.921632.8633333-.201357 1.7260176.333437 1.9272456 1.193898.201877.860462-.3342982 1.720923-1.1969825 1.92228m5.8466495-3.070209c-.989263.016834-2.140158.163805-3.174211.39624.644579-.54839 1.26514-1.158936 1.763018-1.743583 1.639684-1.92487 1.331351-2.839717.552403-3.500116-.779596-.659751-1.734456-.815139-3.373491 1.109082-.468018.549686-.940579 1.209437-1.3599123 1.88667-.0571228-.859814-.1817544-1.741641-.3602632-2.504984-.5757719-2.459016-1.4968772-2.755548-2.4919824-2.523114-.9957544.23114-1.6890176.904488-1.1125965 3.363504.1908421.816434.4985263 1.726749.8600877 2.571024-.734807-.495299-1.5351754-.949809-2.2706316-1.282599-2.3050351-1.043689-3.1021579-.496594-3.5247368.43185-.422579.928443-.3102807 1.886669 1.9947544 2.931006.7328596.330847 1.5981403.630617 2.4523859.856577-.8503508.254448-1.7104386.583352-2.4348596.940745-2.2699825 1.119441-2.3498246 2.080905-1.897386 2.995104.4530877.913552 1.268386 1.43475 3.5377193.315308.6887193-.339264 1.4313158-.790536 2.1200351-1.280009-.2849649.804133-.5173509 1.652293-.6549649 2.414342-.4485439 2.485561.2784737 3.122004 1.284614 3.302643 1.0061404.179991 1.9103684-.163158 2.3589123-2.648719.1551404-.861756.2356316-1.868541.2317368-2.822235.5050176.811903 1.1093508 1.623805 1.7000528 2.27255 1.702 1.869836 2.651017 1.682723 3.407895.997721.756877-.68565 1.03535-1.610208-.667299-3.480044-.461526-.507601-1.023017-1.032036-1.609824-1.514386.915912.145676 1.885052.221428 2.732807.207184 2.531579-.044027 3.016474-.879237 2.998947-1.898971-.018175-1.019734-.531631-1.837464-3.06321-1.79279"/><path d="m101.365525 265.032408c-.562141.131432-1.124281-.216896-1.256053-.777588-.1311229-.561339.218105-1.122678.780246-1.253463.56214-.130785 1.124929.217543 1.256052.778235.131772.561339-.217456 1.122031-.780245 1.252816m3.811649-2.001268c-.645228.011654-1.395614.106829-2.069404.25898.419983-.35804.825035-.755575 1.149597-1.136923 1.068456-1.254758.867228-1.85106.359614-2.281614-.508263-.429907-1.130772-.531556-2.198579.723202-.305737.35804-.613421.787947-.886702 1.230155-.037649-.560692-.11814-1.135627-.234982-1.633516-.375843-1.60244-.975632-1.796027-1.6241057-1.645171-.6491228.151503-1.1015614.590474-.7257193 2.192913.1246316.532204.3252105 1.125916.5608421 1.676249-.4790526-.322431-1.0002983-.618963-1.48-.835858-1.5027193-.680471-2.0220176-.323726-2.2978947.28164-.2752281.604719-.2018772 1.229508 1.3008421 1.909978.4771052.216249 1.0411929.411778 1.5981403.55875-.5543509.165747-1.115193.380053-1.5871053.613135-1.4793508.729029-1.5319298 1.356408-1.2365789 1.952062s.8263333.934918 2.3056842.205242c.4485439-.220133.9327895-.515371 1.3819825-.834564-.1856492.524435-.3375439 1.077357-.4271228 1.574599-.2921053 1.61992.1817543 2.034288.8380175 2.152124.655614.118484 1.245018-.106182 1.537123-1.726102.101263-.561986.153842-1.217853.151245-1.840053.329106.529614.723123 1.058581 1.108053 1.481366 1.109351 1.219148 1.727965 1.097428 2.221947.65004.492685-.446093.674439-1.048869-.434912-2.268018-.301842-.330199-.667298-.672701-1.050281-.986714.597193.094528 1.229439.144382 1.781843.13467 1.65007-.028488 1.966193-.572994 1.954508-1.237277-.011684-.664932-.345982-1.197783-1.996052-1.169295"/><path d="m8.90544561 10.6894661c-.86917543.2020044-1.73835087-.3366741-1.94152631-1.20296233-.20317544-.8669357.33689474-1.7338714 1.20607017-1.93717073.86917544-.20200444 1.73835088.33667406 1.94152633 1.20360975.2031754.8669357-.33689475 1.73387141-1.20607019 1.93652331m8.97671929-1.28648339c-.0175263-1.02750333-.5355263-1.85170732-3.0859298-1.80703326-.9964035.0168337-2.156386.16509977-3.1982281.39947671.6491228-.55292239 1.2748772-1.168 1.7766491-1.7571796 1.6520176-1.93911308 1.3410878-2.86043459.5562983-3.52536585-.7854386-.66557871-1.7474386-.82226164-3.398807 1.11685144-.4712632.55356985-.94836845 1.21850111-1.37029828 1.90091353-.0571228-.86628825-.18305263-1.7545898-.36285965-2.52440799-.58031579-2.47714412-1.50791228-2.77626607-2.51080701-2.54188913-1.00354386.23308204-1.702.91160975-1.12168421 3.38875388.19278947.82290909.50307017 1.7403459.86722807 2.59044789-.74064913-.49918403-1.54685965-.95693126-2.28750878-1.29231042-2.32321052-1.05145898-3.12617543-.50047893-3.552.43573393-.42517544.93491796-.31222807 1.90091352 2.01033334 2.9523725.73805263.33408426 1.61047368.63644346 2.4705614.863051-.85619298.25639024-1.72277193.58853216-2.45303509.94851446-2.28685965 1.1272106-2.368 2.095796-1.91166666 3.0171175.45633333.9213215 1.27747368 1.4457561 3.56433333.317898.69326316-.3418537 1.44235088-.7963637 2.13626316-1.2897206-.28756141.80996-.52189474 1.6645942-.66080702 2.43247-.13696491.7614013-.16357895 1.3486386-.10710526 1.8050909h3.49292982c.10840351-.3198403.20447369-.6966563.28561404-1.1459867.15643859-.8682306.23757894-1.8827849.23433333-2.8442483.50826316.8183769 1.11714037 1.6361064 1.71238597 2.2906785 1.7149825 1.8834324 2.6711403 1.6950244 3.4338596 1.0048426.7627193-.6908293 1.0424913-1.62251-.6724912-3.5059424-.465421-.5114856-1.030807-1.0404523-1.6221579-1.5260399.9224035.1463237 1.8993334.2233703 2.753579.2084789 2.5504035-.044674 3.039193-.8857117 3.0210175-1.91256759" mask="url(#d)" transform="translate(95.421053 275.166297)"/><path d="m69.2396579 269.439989c-.4621754-.508248-1.0236667-1.03333-1.6104737-1.515033.9159123.145676 1.8857018.222075 2.7334562.206537 2.5309298-.043379 3.0158245-.87859 2.9982982-1.898324-.0181754-1.019087-.5316316-1.836816-3.0632105-1.793437-.9892632.017481-2.1401579.164452-3.1742106.397535.644579-.549038 1.2651404-1.158936 1.7636667-1.744231 1.6390351-1.924222 1.3307018-2.839069.5517544-3.499468-.7795965-.660399-1.7344561-.815787-3.3734912 1.109082-.4673685.549685-.940579 1.208789-1.3599123 1.886022-.0571228-.859813-.1811053-1.740993-.3602632-2.504337-.264193-1.127858-.6010877-1.797321-.9840701-2.17349l1.2911052 6.545073c.4829474.181934.8691755.593065.9957544 1.132391.1356667.577525-.0662105 1.149871-.470614 1.527982l.835421 4.237561c.1616316.198767.3239123.390412.4855439.568461 1.702 1.869189 2.6516666 1.682723 3.4078947.996426.7568772-.68565 1.0353509-1.609561-.6666491-3.47875"/><path d="m72.9407614 291.668311c.4933333-.44674.6744386-1.049516-.4349123-2.268017-.301193-.331495-.6672982-.673349-1.0496316-.987362.597193.094528 1.2287895.144382 1.7818421.135317 1.6500702-.029135 1.966193-.573641 1.9545088-1.237924-.0116842-.664932-.3466316-1.197783-1.9967017-1.168648-.6452281.010359-1.3949649.106829-2.0687544.258333.4199824-.357393.8243859-.755575 1.1495965-1.136923 1.067807-1.254111.8665789-1.850412.3589649-2.280966-.5076141-.429907-1.1301228-.531557-2.198579.722554-.3050877.358687-.613421.788594-.8867017 1.230155-.037-.561339-.1181404-1.135627-.2343334-1.632869-.3089824-1.317561-.7705087-1.676896-1.284614-1.681428l.8854035 4.490067c.5595439-.125606 1.1171404.221427 1.2482632.778882.1311228.561339-.2181053 1.122679-.7802456 1.253463-.0220702.00518-.0434913.00518-.0655614.00777l.2888596 1.463885c0-.025898.0032456-.052444.0032456-.077694.3291053.528966.7224737 1.05858 1.1080527 1.481365.5361754.58918.9561579.860462 1.3040877.937508h.3940175c.1940877-.043379.3661053-.145029.523193-.287468"/><path d="m39.4332368 226.836671c.3687018-.790536 1.3099299-1.133037 2.1018597-.765286.7925789.367752 1.1359649 1.306555.7672631 2.097091-.3680526.789889-1.3092807 1.133038-2.1018596.764639-.7925789-.367104-1.1359649-1.305907-.7672632-2.096444m-5.6168596 6.642191c.6705439.750395 1.5819123 1.032683 3.4468421-.624142.6465263-.574936 1.3222632-1.307849 1.9019298-2.050474-.1032105.93686-.1298245 1.933933-.0668596 2.796337.1804561 2.484266 1.0314561 2.915468 2.0369473 2.842953 1.0054913-.072514 1.7857369-.621552 1.6052807-3.105818-.0486842-.675291-.164228-1.423095-.3258596-2.153419.6218596.668816 1.3281053 1.316266 1.9954035 1.819335 1.9921579 1.503379 2.8782105 1.149224 3.4857895.347033.608228-.802838.7088421-1.74941-1.2826667-3.251494-.7789474-.587238-1.7617193-1.171885-2.7068421-1.619273.8354211-.034963 1.6896667-.131433 2.4335614-.282936 2.4465439-.499184 2.764614-1.39655 2.5627369-2.381969-.2018772-.985419-.8477544-1.68596-3.2949474-1.186128-.697807.142439-1.4683158.367104-2.2063684.638385.4803508-.702483.9217543-1.462589 1.2489122-2.16313 1.0528772-2.258954.5192983-3.048196-.3946666-3.471628-.9146141-.424727-1.8636316-.323078-2.9165088 1.935228-.3498772.750395-.6666491 1.643229-.9009825 2.518581-.2687368-.830678-.6121228-1.669126-.9795263-2.374199-.1895438-.363867-.3738947-.662989-.5530526-.917437-.7276667 1.152461-1.453386 2.313987-2.1758596 3.483929.2667894.428612.5601929.859814.8698245 1.269002-.4472456-.175459-.909421-.331494-1.3651053-.466164-.6647017 1.078652-1.326807 2.163131-1.9850175 3.252142.0467368.010359.0902281.022013.1395614.031725.7412983.154741 1.5935965.255095 2.4264211.292648-.7114386.45192-1.4098948.968585-1.981772 1.477481-1.8642807 1.656825-1.6883684 2.59239-1.0171754 3.343432"/><path d="m26.4967386 245.000043c-.7516842-.348329-1.0775439-1.238572-.7283158-1.98832.3498772-.749747 1.2424211-1.074767 1.9947544-.726439.7510351.348976 1.0768947 1.23922.7276667 1.988967-.3498772.749747-1.2424211 1.074767-1.9941053.725792m2.4088947 4.177995c-.0460877-.640328-.1551403-1.349933-.3083333-2.042705.5900526.634501 1.2599474 1.249579 1.8928421 1.726749 1.8895965 1.425038 2.7295614 1.089012 3.3066316.328258.5770702-.761402.6724912-1.659415-1.2171053-3.084453-.7387017-.556807-1.6708421-1.111671-2.5672807-1.535751.7919298-.032373 1.6026842-.124311 2.3076316-.268692 2.3212632-.473286 2.6237544-1.324036 2.4322632-2.258954-.1921404-.934917-.8049123-1.599201-3.1261755-1.126563-.6627544.135317-1.3923684.348976-2.093421.606661.4556842-.665579.8743684-1.387486 1.1846491-2.051769.9996491-2.14306.4933333-2.891513-.3745439-3.294227-.2135614-.099059-.4303684-.167689-.6491228-.18258-2.7211228 4.660993-5.359807 9.321339-7.8673684 13.852842.4887895-.093233 1.0963684-.427317 1.8837544-1.127211.613421-.545153 1.2547544-1.239867 1.8045614-1.94494-.0980176.888949-.1233333 1.834874-.063614 2.653251.1713684 2.356718.978228 2.765259 1.9324386 2.69663.9542105-.069278 1.6935614-.589827 1.5221929-2.946546"/><path d="m17.5199544 262.559602c.5205965-.169632 1.0801403.114598 1.2495614.633206.1700702.518608-.1142456 1.077357-.634193 1.246341-.5205965.169632-1.0801403-.113303-1.2502105-.632558-.1694211-.519255.1142456-1.077357.6348421-1.246989m-1.3527719-.441561c-.2544562-.140497-.5173509-.271282-.7802457-.389765-.3563684.668816-.7094912 1.3331-1.0567719 1.988967.3732456.111361.7659649.211068 1.162579.280345-.5095614.201357-1.0210702.449331-1.448193.707663-.1382632.083522-.2531579.163158-.3641579.242147-.2570526.488177-.5115088.971822-.7633684 1.45223.0311579.084816.0694561.16769.1187894.249269.3271579.538678.8568421.816434 2.1940351.007122.4063509-.245384.8393158-.561987 1.2372281-.899956-.1324211.510838-.2310877 1.044337-.274579 1.52086-.1441052 1.554528.3375439 1.906741.9658948 1.965011.6296491.058271 1.1677719-.200709 1.3112281-1.755237.0499824-.538678.0460877-1.162173-.0071404-1.74941.3544211.473286.7692105.940745 1.1671228 1.309791 1.1476491 1.059876 1.7214737.894777 2.151193.433145.4297193-.46228.5517544-1.045632-.5958947-2.106156-.3109299-.288762-.6848246-.582057-1.0717018-.848159.5712281.041437 1.1723158.037552 1.6935614-.016834 1.5559474-.160568 1.8104035-.700541 1.7448421-1.327273-.0655614-.626731-.4245263-1.102607-1.9804737-.941392-.608228.062803-1.3086316.213658-1.9330877.411778.3674035-.372284.7172807-.780177.9925088-1.166705.9068245-1.271592.6685965-1.818687.1538421-2.183202-.5147544-.365809-1.1106491-.410483-2.0174737.860461-.259.362573-.5147544.793774-.7367544 1.233393-.0811403-.526377-.2044737-1.062466-.3550702-1.522803-.2005789-.613782-.4193333-.988009-.6478245-1.212026-.4459474.830678-.8847544 1.65035-1.3183684 2.463547.1350175.333437.285614.670111.4582807.993189"/><path d="m7.67756491 282.249919c.3128772-.670758 1.11194737-.961463 1.7844386-.65004.67314039.312071.96459649 1.109082.65171929 1.779841-.31287719.671405-1.11194736.962111-1.78508771.65004-.67249123-.312071-.96394737-1.109082-.65107018-1.779841m-1.55659649-1.09419c-.222-.087406-.45049123-.159921-.67768421-.235672-.48619298.965995-.94382456 1.879547-1.37094737 2.736771.45049123.065393.91461404.117836 1.3832807.139202-.60433333.382643-1.19763158.822262-1.68317543 1.254111-.36285965.32243-.63094737.611193-.82763158.875353-.14150878.285525-.27912281.563929-.41089474.83262-.08957895.453863.09022807.811903.37454386 1.130448.56992982.637091 1.34368421.876648 2.92689474-.529614.54850877-.488177 1.12298245-1.109729 1.61501754-1.740993-.08763158.795716-.11035088 1.641286-.05712281 2.374199.15319299 2.109393.87566667 2.475202 1.72926316 2.413694.85424561-.062155 1.51570172-.527672 1.36250882-2.637064-.0415439-.572346-.1395615-1.208142-.2765264-1.828399.528386.567814 1.1281755 1.118146 1.6942106 1.545463 1.6909649 1.275477 2.4432982.97506 2.9593508.293943.5167018-.681118.6017369-1.485251-1.089228-2.760728-.660807-.497889-1.495579-.994483-2.2972456-1.374536.7088421-.029135 1.4339122-.111362 2.0655087-.240204 2.0765439-.423433 2.3472281-1.185481 2.1758597-2.021987-.1713684-.836505-.7198772-1.430865-2.7970702-1.007432-.5932982.121073-1.2463158.312071-1.8740175.542563.4082982-.596302.7834912-1.241809 1.0606666-1.836816.8938421-1.9171.4407544-2.587211-.3349473-2.947193-.7763509-.359982-1.5819123-.273871-2.47640355 1.643228-.29664913.637091-.56538597 1.395255-.76466667 2.137881-.2278421-.705073-.51929824-1.417269-.83152632-2.015512-.13371929-.255096-.26354385-.473934-.39077192-.664932-.58031579 1.140807-1.1327193 2.231761-1.65331579 3.265091.14994736.222723.30443859.442856.46607017.656515"/><path d="m49.0705684 246.782408c-.5264386-.244736-.7549298-.868231-.5102105-1.393313.2453684-.525729.8704737-.752984 1.3975614-.508895.5264386.244088.7542807.867583.5095614 1.393312-.2447193.525082-.8698246.752985-1.3969123.508896m4.2614912.77435c-.5173508-.389765-1.1703684-.778882-1.7987192-1.076062.555-.022661 1.1229824-.087406 1.6169649-.188408 1.6260526-.331494 1.8376666-.927148 1.7039473-1.582368-.1343684-.655219-.5640877-1.120736-2.1901403-.788594-.4641228.095175-.9756316.244089-1.4663684.42408.3193684-.466164.6127719-.971823.8295789-1.436692.7004035-1.501437.3453333-2.025871-.2622456-2.30816-.607579-.280993-1.2378772-.214306-1.9376316 1.286484-.232386.498536-.4433509 1.092248-.5991403 1.673658-.1785088-.551627-.4063509-1.108434-.6510702-1.577188-.7659649-1.469065-1.3995088-1.507912-1.9934562-1.199725-.5945964.308833-.925.848807-.159035 2.316576.243421.466812.5679824.971175.9172105 1.431512-.5413684-.211716-1.1190877-.38847-1.6377369-.496594-1.6241052-.338616-2.0557719.124958-2.1927368.77953s.0720526 1.251521 1.696807 1.58949c.4926842.102945 1.0593684.169632 1.6130702.194883-.4732105.300416-.9373333.643565-1.3177193.981534-1.2385263 1.101313-1.1216842 1.723512-.6757368 2.222049.4459473.499184 1.0515789.686944 2.2907543-.415016.4297193-.381348.8789123-.86823 1.2638421-1.362235-.068807.622847-.0856842 1.284541-.0441403 1.858182.1194386 1.650998.6848246 1.937171 1.353421 1.889259.6685965-.047911 1.1865965-.413073 1.0665088-2.063423-.0324561-.44933-.1090526-.945925-.2161579-1.431512.4134913.444151.8821579.874705 1.3261579 1.209437 1.3235614.998368 1.9123158.762696 2.3160702.229844.4044035-.532851.4712632-1.162173-.8522983-2.160541"/><path d="m41.8234368 265.878366c-.3738947.801544-1.3274561 1.148577-2.1310701.776293-.8036141-.372931-1.1515439-1.324683-.7776492-2.125579.3732457-.801543 1.3274562-1.148576 2.1304211-.776292.803614.372931 1.152193 1.324683.7782982 2.125578m3.350772-3.588168c-.708193.145029-1.4884386.372284-2.2368772.648097.4868421-.712842.9340877-1.48266 1.2657895-2.193561 1.067807-2.289383.5270877-3.089632-.3998597-3.519538-.9269474-.429907-1.8889474-.32761-2.9567544 1.962421-.354421.760106-.6757368 1.665889-.9133158 2.552248-.2726316-.841038-.6205614-1.69114-.9931579-2.405924-1.1690701-2.240178-2.1343158-2.299743-3.0411403-1.829694-.9068246.470696-1.4118421 1.293605-.2427719 3.533782.3712982.712195.8665789 1.480719 1.3995087 2.183202-.8263333-.323078-1.707193-.593064-2.4984737-.756869-2.4783508-.516018-3.1365614.19035-3.3455789 1.188718-.2090176.997721.1103509 1.909331 2.5887017 2.425348.7516843.156683 1.6156667.258333 2.4608246.29718-.7218246.457747-1.4293684.981534-2.0096842 1.496905-1.8902456 1.680133-1.7117368 2.628647-1.0314561 3.389401.6802807.762049 1.6039824 1.048222 3.494228-.632559.6556141-.582705 1.3410877-1.32533 1.929193-2.078315-.1051579.950457-.132421 1.960479-.068807 2.835184.1655263 2.27255.8841053 2.848133 1.7721053 2.885686l1.9441228-2.632533c-.0038948-.163804-.010386-.334731-.0233685-.519902-.0499824-.684355-.1668245-1.442519-.3304035-2.183202.4316667.464222.903579.915495 1.3754913 1.319503l2.1589824-2.923237c-.6348421-.41631-1.3365438-.813197-2.0220175-1.138217.8464561-.034315 1.7130351-.132727 2.4666666-.28682.2752281-.055681.5192983-.117836.7432457-.183229l1.8032631-2.440887c-.2570526-.883769-.9860175-1.463237-3.2884561-.993188"/><path d="m151.231982 213.744777c-.722473.168337-1.444947-.279699-1.613719-.999663-.168772-.720612.279772-1.441871 1.002246-1.609561.722473-.168984 1.444947.279051 1.613719.999663s-.279772 1.441224-1.002246 1.609561m4.896334-2.571672c-.82893.014891-1.792228.13726-2.658807.332789.54007-.459689 1.060017-.970527 1.477403-1.460647 1.372246-1.611503 1.113895-2.378084.461527-2.930359-.652369-.552923-1.452088-.68306-2.824334.928443-.39207.45969-.788035 1.012612-1.13921 1.579779-.048035-.720612-.151895-1.458058-.301842-2.097091-.482299-2.059539-1.252807-2.30816-2.08693-2.113925-.833474.194235-1.414439.758164-.931491 2.817055.159684.683708.417386 1.446404.720526 2.15342-.615369-.415016-1.285912-.795717-1.901281-1.074768-1.93114-.87341-2.598438-.415663-2.95221.361925s-.259649 1.579778 1.670842 2.453836c.613421.278403 1.337842.528967 2.053175.718022-.712088.213011-1.431965.488825-2.038895.787947-1.900631.937508-1.96814 1.742288-1.588403 2.507574.379088.765934 1.061316 1.201668 2.961947.264807.576421-.28423 1.19893-.662341 1.775351-1.072825-.238228.673348-.433614 1.383601-.548509 2.022635-.375193 2.080904.233685 2.613756 1.076246 2.765259s1.599439-.136612 1.975281-2.217517c.129824-.721907.197333-1.564887.194087-2.36384.423229.679823.928895 1.359645 1.423527 1.903503 1.425473 1.565535 2.220649 1.408852 2.854193.834563.633544-.574288.866579-1.347991-.558895-2.913525-.386877-.425375-.856842-.864993-1.348228-1.268355.766614.122368 1.578667.185818 2.288807.173517 2.120035-.036905 2.525737-.736151 2.510807-1.590138-.01493-.853986-.444649-1.538341-2.564684-1.502084"/><path d="m165.072449 251.005401c-.291456-.300417-.647824-.459689-1.180105-.222723l1.221649 1.654236c.445947-.662989.293403-1.085774-.041544-1.431513"/><path d="m158.401154 252.018272c-1.299543-.868878-1.840912-.615725-2.192087-.092585-.351825.523787-.381035 1.119441.918508 1.987672.431667.288115.955509.570403 1.475457.799601-.541369.085463-1.094421.216248-1.567632.374873-1.482596.498537-1.611123 1.080594-1.409895 1.677543.201877.596949.657562.98283 2.140158.484941.210965-.070572.433614-.159921.656912-.255743l.848404-4.301659c-.28886-.247326-.583561-.483645-.869825-.674643"/><path d="m159.439491 251.574445c.002597.057623.012334.121721.016228.181286l.363509-1.841995c-.264193.255095-.422579.740683-.379737 1.660709"/><path d="m150.354368 193.126275c-.49528.736798-1.495579.932976-2.233631.440266-.739351-.494004-.936684-1.491725-.442053-2.229171.495281-.73615 1.495579-.933623 2.234281-.439618.738702.493357.936684 1.491077.441403 2.228523m5.593492-4.499778c-1.307983-.479761-2.602983-.909668-3.852544-1.294901-.571877.606661-1.139211 1.309145-1.615667 2.006448.095421-.833915.131772-1.695671.097369-2.458368-1.318369-.380053-2.564036-.706368-3.693509-.982182-.030509.324373-.038948.695362-.018825 1.129801.033755.722554.139562 1.529277.297298 2.312692-.632894-.59177-1.328754-1.153756-1.984368-1.59208-2.110947-1.410794-2.990509-.999663-3.561737-.149561s-.617965 1.81804 1.492983 3.228834c.701052.468753 1.552052.926501 2.396561 1.298785-.878912.139201-1.777947.351565-2.546509.60925-2.408245.809313-2.617912 1.755237-2.290105 2.725118.327158.970527 1.067807 1.596612 3.476053.787946.765315-.257037 1.606579-.628026 2.387473-1.045632-.449193.767229-.854245 1.596612-1.140508 2.353482-.897088 2.371609-.296 3.132363.664052 3.492993.960053.361925 1.915562.187113 2.812649-2.184497.271983-.718669.507614-1.557765.676386-2.387148.343386.784709.75493 1.565534 1.177509 2.219459 1.377439 2.130111 2.347877 2.100328 3.210561 1.545463.862036-.554865 1.289807-1.42439-.08828-3.554501-.477106-.739388-1.109351-1.531867-1.767562-2.229818.928246.250563 1.928544.434439 2.808106.506953 2.532877.209127 3.100859-.57623 3.185894-1.596612.085035-1.019734-.345982-1.887964-2.87821-2.097091-.68807-.056975-1.460526-.058918-2.221948-.012301.771807-.518608 1.535825-1.124621 2.147948-1.714448.346631-.334732.619263-.639033.82893-.918084"/><path d="m175.015647 222.377812c-.565386.131432-1.130772-.218838-1.263193-.782767-.131772-.563929.219404-1.127858.78479-1.259938.565386-.131432 1.130772.218838 1.263193.782767s-.219404 1.127858-.78479 1.259938m3.833071-2.012275c-.649123.010359-1.403404.107477-2.081088.259628.422579-.359983.829579-.760107 1.156088-1.143397 1.074298-1.261233.872421-1.861419.361561-2.293916-.51086-.433144-1.136614-.534794-2.211561.726439-.306386.36063-.616667.793126-.891246 1.237277-.037-.563929-.11879-1.141454-.235632-1.642581-.377789-1.611503-.981473-1.806386-1.634491-1.653587-.652368.151503-1.106754.593064-.728965 2.204567.125281.535441.327158 1.13239.564088 1.68596-.482298-.324372-1.00614-.622847-1.488439-.841037-1.511807-.684355-2.033701-.325668-2.310877.282935-.276526.609251-.203175 1.23663 1.307983 1.920985.479701.217543 1.047684.414368 1.607228.561986-.556948.166395-1.121035.382643-1.596193.616373-1.48779.733561-1.540369 1.364177-1.24307 1.963716.296649.598891.830877.940098 2.318666.206537.451141-.222076.937983-.518608 1.389772-.839096-.186947.527025-.339491 1.083184-.429719 1.582368-.294053 1.629632.183052 2.04659.842561 2.165074.659509.118483 1.252158-.10683 1.546211-1.736462.101263-.564576.153842-1.224328.151894-1.849765.331053.532204.727018 1.064408 1.114544 1.490431 1.115842 1.224975 1.737702 1.102607 2.233632.653277.49593-.449331.678333-1.055344-.437509-2.280967-.302491-.332789-.670544-.677233-1.055474-.993188.600439.095822 1.23593.146323 1.792229.135964 1.659157-.028488 1.977228-.576231 1.965543-1.244399-.012333-.668169-.348579-1.204257-2.007736-1.175122"/><path d="m179.924314 243.791124c-.862684.201357-1.725368-.334085-1.927246-1.194546-.201228-.859813.334299-1.720922 1.196983-1.921632.863333-.201357 1.726017.333437 1.927245 1.193898.201878.860462-.334298 1.720923-1.196982 1.92228m5.846649-3.070209c-.989263.016834-2.140158.163805-3.17421.39624.644579-.54839 1.26514-1.158936 1.763666-1.743583 1.639035-1.92487 1.330702-2.839717.551755-3.500116-.779597-.659751-1.734456-.815139-3.373492 1.109082-.467368.549686-.940578 1.209437-1.359912 1.88667-.057123-.859814-.181105-1.741641-.360263-2.504984-.575772-2.459016-1.496228-2.755548-2.491982-2.523114-.995755.23114-1.689018.904488-1.112597 3.363504.191491.816434.498526 1.726749.860088 2.571024-.734807-.495299-1.534527-.949809-2.270632-1.282599-2.305035-1.043689-3.102158-.496594-3.524737.43185-.422579.928443-.31028 1.886669 1.995404 2.931006.73221.330847 1.59814.630617 2.451737.856577-.849702.254448-1.710439.583352-2.43486.940745-2.269333 1.119441-2.349824 2.080905-1.897386 2.995104.453737.913552 1.268386 1.43475 3.537719.315308.68872-.339264 1.431316-.790536 2.120035-1.280009-.284964.804133-.51735 1.652293-.654964 2.414342-.448544 2.485561.279122 3.122004 1.284614 3.302643 1.006789.179991 1.910368-.163158 2.358912-2.648719.15514-.861756.235631-1.868541.232386-2.822235.504368.811903 1.108702 1.623805 1.699403 2.27255 1.702 1.869836 2.651667 1.682723 3.407895.997721.756877-.68565 1.035351-1.610208-.666649-3.480044-.462175-.507601-1.023667-1.032036-1.610474-1.514386.915913.145676 1.885702.221428 2.733456.207184 2.53093-.044027 3.015825-.879237 2.998299-1.898971-.018176-1.019734-.531632-1.837464-3.063211-1.79279"/><path d="m184.857972 264.384958c-.56214.131432-1.12493-.216896-1.256053-.777588-.131772-.561339.217456-1.122678.780246-1.253463.56214-.130785 1.12493.217543 1.256053.778235.131122.561339-.218106 1.122031-.780246 1.252816m3.811-2.001268c-.645228.011654-1.394965.106829-2.068754.25898.419982-.35804.824386-.755575 1.149596-1.136923 1.068456-1.254758.867228-1.85106.358965-2.281614-.507614-.429907-1.130123-.531557-2.198579.723202-.305088.35804-.613421.787947-.886702 1.230155-.037-.560692-.11814-1.135627-.234333-1.633517-.375842-1.602439-.975632-1.796026-1.624754-1.64517-.648474.151503-1.100913.590474-.72572 2.192913.125281.532204.325211 1.125916.561491 1.676249-.479701-.322431-1.000947-.618963-1.48-.835859-1.503368-.68047-2.022666-.323725-2.297894.281641-.275228.604719-.202527 1.229508 1.300193 1.909978.477754.216248 1.041842.411778 1.598789.55875-.554351.165747-1.115193.380053-1.587105.613135-1.479351.729029-1.53193 1.356408-1.236579 1.952062s.826333.934918 2.305684.205242c.448544-.220134.93279-.515371 1.381983-.834564-.185649.524435-.337544 1.077357-.427123 1.574599-.292105 1.61992.181754 2.034288.838017 2.152124.655614.118484 1.245018-.106182 1.537123-1.726102.101263-.561987.153842-1.217853.151246-1.840053.329105.529614.722473 1.058581 1.108052 1.481366 1.109351 1.219148 1.727965 1.097428 2.221299.65004.493333-.446093.674438-1.048869-.434913-2.268018-.301193-.3302-.667298-.672701-1.049631-.986714.597193.094528 1.228789.144381 1.781842.13467 1.65007-.028488 1.966193-.572994 1.954509-1.237278-.011685-.664931-.346632-1.197782-1.996702-1.169294"/><path d="m193.788863 287.235415c-.386877-.425375-.856842-.864994-1.348228-1.269003.766614.122368 1.578667.185819 2.288807.174164 2.120035-.037552 2.525737-.736798 2.510807-1.590137-.01493-.853987-.445298-1.538989-2.564684-1.502084-.82893.014891-1.792228.137259-2.658158.332142.539421-.459042 1.059368-.970528 1.476105-1.46 1.372895-1.612151 1.114544-2.378085.462176-2.93036-.652369-.553569-1.452088-.683707-2.824334.927796-.39207.460338-.788035 1.01326-1.13921 1.580426-.047386-.720612-.151895-1.458705-.301193-2.098386-.482947-2.058891-1.254105-2.307512-2.087579-2.112629-.833474.194235-1.414439.757516-.931491 2.816408.159684.684354.417386 1.446403.720526 2.153419-.152544-.102945-.307684-.202652-.464772-.29977l1.330053 1.800559c.167473-.362572.490087-.65004.91007-.747805.722474-.168337 1.444947.279051 1.613719 1.000311.168772.719964-.279772 1.440576-1.002245 1.609561-.04479.010359-.08893.011006-.13372.016833l3.620807 4.90314c.432316.062155.776351-.114599 1.081439-.39106.633544-.574288.866579-1.347991-.558895-2.913525"/><path d="m197.391625 254.352654c-.238878.673348-.432965 1.383601-.548509 2.022634-.375193 2.080904.233684 2.613756 1.075596 2.765259.843211.150856 1.600088-.136612 1.975281-2.217516.130474-.722555.197333-1.564887.194737-2.364488.423228.679822.928245 1.360292 1.423526 1.904151 1.15479 1.268354 1.896088 1.406261 2.472509 1.107139-1.030807-1.911272-2.090825-3.860097-3.179404-5.839352-.101912.496594-.48035.914199-1.007438 1.037862-.722474.16769-1.445597-.279698-1.613719-.999663-.169422-.720612.279771-1.441871 1.002245-1.610208.270035-.062803.539421-.039495.780246.051796-.990562-1.79279-2.001895-3.606297-3.031404-5.432754-.402456.370341-.573824 1.070235-.245368 2.475202.160333.683707.418035 1.445756.720526 2.152124-.615368-.413721-1.285263-.794421-1.900631-1.073472-1.931141-.873411-2.598439-.415663-2.952211.361924-.353772.777588-.260298 1.579779 1.670842 2.454484.613421.277108 1.337842.528319 2.053176.716727-.712088.213011-1.432614.489472-2.038895.788594-1.900632.93686-1.968141 1.741641-1.588404 2.507574.379088.765934 1.061316 1.201668 2.961948.26416.576421-.283583 1.19828-.661694 1.775351-1.072177"/><path d="m201.802739 271.783241c-.562141.131432-1.12493-.217543-1.256053-.778235-.131772-.560692.218105-1.122031.780246-1.252816.56214-.131433 1.124929.217543 1.256052.778235.131123.561339-.218105 1.122031-.780245 1.252816m3.811-2.001268c-.644579.011654-1.394965.106829-2.068755.25898.419983-.35804.824386-.755575 1.149597-1.136923 1.068456-1.254758.867228-1.85106.358965-2.281614-.507614-.429907-1.130123-.531557-2.198579.723202-.305088.35804-.613421.787947-.886702 1.229507-.037-.560044-.11814-1.13498-.234333-1.632869-.375843-1.602439-.975632-1.796026-1.624755-1.64517-.648473.151503-1.100912.590474-.72507 2.192913.124632.532204.325211 1.125268.560842 1.676248-.479702-.323077-1.000947-.618962-1.48-.836505-1.502719-.68047-2.022667-.323725-2.297895.282288-.275228.604719-.202526 1.229508 1.300842 1.909978.477106.216248 1.041193.411778 1.598141.558102-.554351.165747-1.115193.380701-1.587105.613135-1.479351.729677-1.53193 1.356408-1.236579 1.95271.295351.595654.826333.934918 2.305684.205241.448544-.22078.932789-.51537 1.381982-.834563-.185649.524435-.337544 1.07671-.427123 1.574599-.292105 1.61992.181755 2.034288.838018 2.152124.655614.117836 1.245018-.106182 1.537123-1.726102.101263-.561987.153842-1.217854.151245-1.840053.329106.529614.722474 1.058581 1.108053 1.481366 1.109351 1.219148 1.727965 1.097428 2.221298.65004.493334-.446741.675088-1.04887-.434263-2.268018-.301842-.3302-.667298-.673348-1.050281-.987362.597193.095176 1.22879.145029 1.781843.135318 1.65007-.028488 1.966193-.572994 1.954508-1.237278-.011684-.665578-.346631-1.19843-1.996701-1.169294"/><path d="m214.656798 288.362107c-.722473.168337-1.444947-.279698-1.613719-.999663-.169421-.720612.279772-1.441224 1.002246-1.609561.722473-.168337 1.444947.279051 1.613719.999663s-.279772 1.441224-1.002246 1.609561m5.431211.497242c-.41479-.847512-.91007-1.855592-1.480649-3.007406-.570579.056328-1.160632.146971-1.713035.271282.447245-.380053.876964-.795716 1.249561-1.205552-.449842-.907078-.941877-1.891849-1.468965-2.943956-.206421.181934-.427123.407246-.666.686945-.39207.460337-.788035 1.012612-1.13921 1.580425-.048036-.720612-.151895-1.458705-.301843-2.097738-.482298-2.059539-1.252807-2.30816-2.086929-2.113277-.833474.194235-1.414439.757516-.932141 2.816408.160334.683707.418035 1.446403.721176 2.153419-.616018-.415016-1.285913-.795716-1.901281-1.074767-1.93114-.87341-2.598439-.415016-2.952211.362572-.353771.77694-.259649 1.579778 1.670843 2.453836.613421.277756 1.337842.528319 2.053175.717374-.712088.213011-1.431965.488825-2.038895.787947-1.900631.937508-1.96814 1.742936-1.588403 2.507574.379087.765934 1.061316 1.201668 2.961947.264808.576421-.284231 1.19893-.662342 1.775351-1.072178-.23693.668816-.429719 1.373242-.545263 2.009038h3.133965c.073351-.579468.111-1.20361.108403-1.803149.398562.640328.869825 1.276124 1.336544 1.803149h3.437105c.016228-.482998-.262894-1.107787-1.054824-1.97796-.386877-.425375-.856842-.864994-1.348228-1.269002.766614.122368 1.578666.185818 2.288807.174164.172666-.003238.329754-.012949.481-.023956"/><path d="m144.706221 257.31422c-.666.155388-1.332649-.257038-1.488439-.921969-.155789-.664284.258351-1.329215.924351-1.484603.666649-.154741 1.332649.258332 1.488439.922616.155789.664284-.258351 1.329215-.924351 1.483956m4.515298-2.370962c-.764666.012949-1.652666.126252-2.451737.306891.497878-.42408.977579-.895424 1.36186-1.347344 1.26579-1.485898 1.027562-2.192266.425825-2.701809-.601737-.510191-1.338492-.630616-2.60493.855929-.360912.42408-.726369.933623-1.049632 1.456763-.04414-.664284-.14021-1.344754-.278473-1.933934-.445299-1.899618-1.156088-2.128816-1.92465-1.949472-.768561.179344-1.304087.699246-.859438 2.598217.148.629969.385579 1.3331.664702 1.985082-.567983-.382643-1.185299-.733561-1.753281-.990598-1.780544-.805428-2.395912-.383291-2.722421.333437-.32586.717374-.239526 1.45741 1.541017 2.262838.565386.25639 1.233983.488177 1.893492.662341-.656264.196177-1.320965.450625-1.880509.726439-1.752632.864346-1.814948 1.606324-1.46507 2.312692.349877.705721.978877 1.107787 2.732158.243441.530982-.26157 1.104807-.610545 1.637087-.988009-.220052.620905-.399859 1.275477-.506315 1.864657-.345983 1.919042.215508 2.410456.992508 2.549658.777.139849 1.475456-.125605 1.821439-2.045295.120088-.664931.181754-1.442519.179158-2.179317.390123.627379.856193 1.253464 1.313175 1.755237 1.313825 1.443814 2.047334 1.299433 2.631544.769819.58486-.528967.79907-1.243105-.515403-2.686271-.357018-.393002-.789983-.798306-1.24372-1.17059.707544.112657 1.455983.171575 2.110948.15992 1.955158-.033667 2.329701-.679175 2.315421-1.465827-.013632-.787299-.410246-1.41921-2.364755-1.384895"/><path d="m152.163214 280.009742c-.905526.02525-1.626702.486882-1.563737 2.723175.018176.638386.098018 1.352523.224597 2.04659-.548509-.532852-1.154141-1.040452-1.725369-1.437987-1.840263-1.279361-2.622456-.931033-3.141105-.189703-.517351.740683-.575123 1.593375 1.26514 2.873384.610825.424727 1.354071.843627 2.093421 1.185481-.777649.108124-1.574772.281641-2.257649.496594-2.13821.674643-2.338789 1.505969-2.065508 2.367725.27328.861109.916561 1.426333 3.054771.75169.679632-.214306 1.428071-.528319 2.124579-.884417-.400508.65522-.76207 1.362235-1.025614 2.01357h2.37579l.632245-3.202936c-.193438-.036257-.382982-.109419-.55435-.229197-.64393-.447388-.802316-1.33051-.353123-1.972781.335596-.480408.915263-.688887 1.455333-.576878l.958105-4.855228c-.295351-.917437-.856193-1.127211-1.497526-1.109082"/><path d="m136.802956 229.804583c-.432965-.20071-.62121-.714138-.419333-1.145987.201228-.431849.715982-.618962 1.148947-.417605s.620562.714137.419334 1.145339c-.201878.431849-.715983.61961-1.148948.418253m3.503316.637091c-.425176-.321136-.962-.640329-1.478053-.884417.455685-.018776.923053-.071867 1.328755-.154741 1.337842-.272576 1.511807-.763343 1.401456-1.301375-.111-.538678-.464123-.921321-1.800667-.648745-.381684.077694-.802316.20071-1.20607.348976.262895-.383938.503719-.798953.682877-1.181596.575123-1.23404.283667-1.665242-.216158-1.897677-.499175-.231787-1.017824-.176106-1.593596 1.057934-.190842.409836-.364158.898013-.492035 1.375831-.146702-.453215-.334299-.911609-.535527-1.296842-.630298-1.207495-1.150245-1.239867-1.639035-.986067-.488789.253801-.760772.697304-.131123 1.904798.200579.383938.467369.798306.754281 1.177065-.444649-.174164-.919807-.319841-1.346281-.408541-1.335894-.278404-1.690964.102944-1.803263.640975-.112298.538031.05972 1.028799 1.394965 1.307202.405053.084169.871123.139202 1.326158.160568-.388824.246031-.76986.528319-1.082737.806723-1.018473.905135-.922403 1.415973-.556298 1.826456.366754.410484.865281.564577 1.883754-.340558.353123-.314661.723123-.714785 1.039246-1.120737-.055825.512133-.070754 1.056639-.036351 1.527983.098667 1.357703.563439 1.592727 1.113246 1.55388.549158-.040142.975631-.339911.876965-1.696967-.026614-.369694-.089579-.777587-.17786-1.177712.339491.366457.725719.719965 1.089877.995131 1.088579.820967 1.572825.627379 1.905176.189703.332351-.438971.386877-.956284-.701702-1.77725"/><path d="m129.966525 246.782408c-.527088-.244736-.75493-.868231-.510211-1.393313.244719-.525729.870474-.752984 1.396912-.508895.526439.244088.75493.867583.510211 1.393312-.245369.525082-.870474.752985-1.396912.508896m4.260842.77435c-.516702-.389765-1.170369-.778882-1.798071-1.076062.555-.022661 1.122334-.087406 1.616965-.188408 1.626053-.331494 1.837667-.927148 1.703299-1.582368-.134369-.655219-.563439-1.120736-2.189492-.788594-.464122.095175-.975631.244089-1.467017.42408.320017-.466164.612772-.971823.830228-1.436692.699754-1.501437.345333-2.025871-.262246-2.30816-.607579-.280993-1.237877-.214306-1.93828 1.286484-.232386.498536-.442702 1.092248-.598492 1.673658-.178508-.551627-.407-1.108434-.65107-1.577188-.765965-1.469065-1.399509-1.507912-1.994105-1.199725-.593947.308833-.925.848807-.159035 2.316576.243421.466812.568631.971175.91786 1.431512-.542018-.211716-1.119088-.38847-1.637737-.496594-1.624755-.338616-2.056421.124958-2.192737.77953-.136965.654572.072052 1.251521 1.696807 1.58949.492684.102945 1.058719.169632 1.612421.194883-.472561.300416-.936684.643565-1.31707.981534-1.239176 1.101313-1.121684 1.723512-.676386 2.222049.445947.499184 1.051579.686944 2.291403-.415016.42907-.381348.878913-.86823 1.263842-1.362235-.068807.622847-.086333 1.284541-.044789 1.858182.120088 1.650998.685474 1.937171 1.35407 1.889259.667947-.047911 1.186597-.413073 1.066509-2.063423-.032456-.44933-.109053-.945925-.216158-1.431512.412842.444151.882158.874705 1.326158 1.209437 1.323561.998368 1.912316.762696 2.31607.229844.404404-.532851.471263-1.162173-.852947-2.160541"/><path d="m145.888144 272.68229c-.405702-.188408-.581614-.668816-.392719-1.07412.188245-.404656.670543-.580762 1.076894-.392354.405702.188408.581614.67011.39272 1.074767-.188246.405303-.671193.580115-1.076895.391707m3.28586.597596c-.399211-.301064-.90293-.600833-1.387176-.829383.427772-.018129.86593-.067982 1.246965-.145029 1.253456-.25639 1.417035-.715432 1.313825-1.221091-.10386-.504363-.434913-.863698-1.688369-.607308-.358316.072514-.752333.18776-1.131421.326962.246667-.359982.472561-.749747.640035-1.108434.54007-1.156994.266141-1.561003-.201877-1.778546-.468667-.217543-.95486-.165747-1.49493.991894-.178509.383938-.340789.841685-.461526 1.28972-.136965-.425374-.312877-.854634-.501772-1.216558-.590702-1.131743-1.078842-1.162173-1.537123-.924559-.458281.238262-.713386.654572-.122684 1.786315.187596.359982.438158.747805.707544 1.103255-.417386-.163158-.862684-.29977-1.263193-.382643-1.252158-.260923-1.584509.09647-1.690316.600833-.105807.505011.055175.964701 1.308632 1.226271.379736.078989.815947.130785 1.24307.149561-.364807.231787-.722474.496594-1.015228.756869-.955509.849455-.865281 1.328568-.521895 1.713801.344035.383937.810754.528966 1.766263-.319841.331702-.295237.678333-.670111.974983-1.051459-.052579.481056-.066211.991894-.034404 1.433455.092175 1.272887.528386 1.493667 1.043789 1.456762.515404-.036904.914615-.318545.822439-1.591432-.025316-.345738-.084386-.729676-.166824-1.103902.318719.343796.68028.67529 1.022368.932975 1.02107.769818 1.474807.588532 1.786386.177402.311579-.411131.36286-.896071-.657561-1.66589"/><path d="m133.707874 287.157656c-.542018-.251858-.777-.894129-.525141-1.43475.252509-.54062.896439-.774997 1.438456-.523139.542018.25121.777.892833.524492 1.433454-.25186.540621-.89579.775646-1.437807.524435m1.737701 3.012585c-.033754-.461632-.112298-.973765-.223298-1.472949.425825.457747.908772.901251 1.365755 1.245047 1.362508 1.028151 1.968789.786004 2.384228.236967.416087-.549038.484894-1.197136-.877614-2.224639-.53293-.402067-1.204772-.801543-1.851299-1.10714.571228-.023955 1.156088-.089995 1.664351-.193587 1.674088-.341854 1.891544-.955637 1.75393-1.629632-.138912-.673996-.580316-1.153109-2.254403-.811903-.477755.097765-1.004193.251211-1.50986.437029.329105-.480408.630947-1.00031.854246-1.480071.720526-1.544816.355719-2.084789-.270036-2.374847-.625105-.290057-1.274228-.22078-1.994754 1.324036-.239526.513428-.455684 1.123973-.616667 1.722864-.183701-.568461-.418684-1.142102-.669894-1.624452-.789334-1.511148-1.440404-1.55129-2.052527-1.23404-.612122.317251-.952263.87341-.163579 2.384559.250562.480408.58486.999015.944474 1.473596-.557596-.21819-1.152193-.400124-1.685772-.511485-1.672789-.348328-2.116789.128842-2.257649.80219-.14086.673996.074 1.288426 1.746789 1.636754.506965.106182 1.090527.174812 1.660457.20071-.486842.308834-.964597.662341-1.356018 1.01067-1.275526 1.133685-1.155439 1.773365-.696509 2.286793.459579.514076 1.082737.707016 2.358263-.426669.442702-.39365.904878-.894129 1.301492-1.402377-.070755.640975-.08893 1.32274-.046088 1.913215.060368.830031.231737 1.322093.469965 1.605029h1.68707c.259649-.29459.405053-.822909.334947-1.785668"/><path d="m123.992907 270.200614c-.802965-.372284-1.151544-1.324683-.777649-2.125579.373246-.801543 1.327456-1.148576 2.130421-.775645.803614.372284 1.151544 1.324035.778298 2.125579-.373245.800895-1.327456 1.147929-2.13107.775645m6.500965 1.181596c-.789983-.595006-1.785737-1.188071-2.743842-1.641286.846456-.034962 1.712386-.133375 2.466666-.28682 2.480299-.506306 2.803562-1.415974 2.598439-2.414989-.204474-.998368-.859439-1.708621-3.340386-1.202315-.708193.143734-1.488438.372284-2.236877.64745.486842-.712195.934088-1.482661 1.265789-2.192913 1.067807-2.290031.527088-3.089632-.399859-3.519539-.926948-.430555-1.888948-.32761-2.956755 1.962421-.35507.760106-.675736 1.665889-.913315 2.552248-.272632-.842332-.620562-1.691787-.993158-2.406572-1.16907-2.240177-2.134965-2.299742-3.04179-1.829694-.906824.471344-1.411193 1.294253-.242123 3.53443.371299.711548.866579 1.480071 1.399509 2.183202-.826333-.323077-1.707193-.593064-2.498474-.758164-2.47835-.516018-3.136561.191645-3.345578 1.189366-.209018.998368.11035 1.90933 2.588701 2.425348.751685.157331 1.615667.25898 2.460176.29718-.721176.457747-1.42872.982182-2.009035 1.497552-1.890246 1.680133-1.711737 2.628-1.031456 3.389401.68028.761402 1.603982 1.046927 3.494877-.632559.654965-.582705 1.340438-1.32533 1.927894-2.078314-.104508.949161-.131122 1.959831-.068157 2.835184.183052 2.517933 1.045736 2.954962 2.065508 2.8818 1.019772-.073809 1.810404-.630616 1.627351-3.149197-.049982-.683708-.166824-1.442519-.330403-2.183202.630947.678528 1.34628 1.335042 2.022666 1.845233 2.019421 1.52345 2.917807 1.164115 3.534474.350918.616667-.813198.71793-1.772719-1.300842-3.296169"/><path d="m25.5446053 277.115834c-.4018071-.186465-.575772-.662341-.3888246-1.063113.1862982-.400772.6634035-.574288 1.0652105-.387823.401807.186466.5764211.661694.3894737 1.062466-.1869474.401419-.6640526.574288-1.0658596.38847m3.250807.590475c-.3946667-.29718-.893193-.593712-1.3722456-.82032.423228-.017481.8568421-.066687 1.2333333-.143734 1.2404737-.253153 1.4021053-.707663 1.2995439-1.206847-.1019123-.499831-.4297193-.855281-1.670193-.602128-.353772.071867-.7438948.186465-1.1184386.323725.243421-.356098.4673684-.74133.6328947-1.096133.533579-1.145339.2635439-1.545464-.1999298-1.760417s-.9451228-.163157-1.4787018.980887c-.1772105.380701-.3375438.833916-.4563333 1.276772-.1363158-.420843-.3102807-.846218-.4972281-1.202963-.5842105-1.120736-1.0671579-1.150519-1.5208947-.914847-.4530877.235672-.7055965.64745-.1207368 1.766892.1856491.356097.433614.740682.6997543 1.092248-.4134912-.161863-.8535964-.296532-1.2495614-.378758-1.2391754-.25898-1.5682807.095175-1.6727894.594359-.1045088.499184.0551754.954341 1.2943508 1.212674.3758421.078341.8081579.12949 1.2300878.148266-.3609123.229197-.7146842.491415-1.004193.748452-.9451228.84039-.856193 1.314971-.5160527 1.695672.3401404.380053.8023158.52314 1.7474386-.316603.3278071-.291353.6705439-.662341.9645965-1.039157-.0525789.47458-.0662105.980239-.0344035 1.417268.0915263 1.259938.5225439 1.478128 1.0327544 1.441224.5102105-.036905.9055263-.314661.8133509-1.574599-.0246667-.341854-.0830877-.721259-.1648772-1.091601.3154737.339264.6737895.667521 1.0119825.923264 1.0093859.760754 1.4585789.58141 1.7669122.174812.3083334-.406599.3589649-.88636-.650421-1.648408"/><path d="m115.644993 226.148756c-.368053.790536-1.30993 1.133037-2.10186.765286-.792579-.367752-1.135965-1.306555-.767263-2.097091.368053-.789889 1.309281-1.133038 2.10186-.764639.792579.367104 1.135965 1.305907.767263 2.096444m6.600281-2.353481c-.201878-.984772-.848404-1.685313-3.294948-1.186129-.698456.142439-1.467666.367752-2.207017.639033.481-.701836.922403-1.461942 1.248912-2.163131 1.053526-2.258953.519947-3.048195-.394667-3.472275-.913965-.424079-1.862982-.323077-2.915859 1.936524-.349877.749747-.666649 1.642581-.901632 2.517286-.268088-.830679-.611474-1.669127-.979526-2.373552-.349877-.671406-.681579-1.141455-.999-1.461943v11.394475c.24407-.273872.483596-.554865.706245-.841038-.10321.937508-.129824 1.934581-.067508 2.796985.181105 2.484913 1.031456 2.915467 2.037596 2.842306 1.005491-.072515 1.785737-.621553 1.604632-3.105819-.048684-.67529-.164228-1.423095-.325211-2.153419.62186.668816 1.328105 1.316914 1.995404 1.82063 1.991509 1.502084 2.877561 1.147929 3.485789.345738.608228-.80219.708193-1.748762-1.283316-3.251494-.778298-.587237-1.76107-1.171885-2.706193-1.619273.834772-.033667 1.689667-.131432 2.432913-.282288 2.446544-.499832 2.765263-1.39655 2.563386-2.382616"/><path d="m52.7127316 210.106625c-.5063158-.468754-1.1125965-.945277-1.7415965-1.377126.9288947.067335 1.9051754.060213 2.7516316-.02784.4550351-.046617.8399649-.114599 1.1671228-.198768-.908772-1.67819-1.9681404-2.828709-2.5010702-3.349259-.729614.1269-1.4884386.308834-2.1894912.530909.4147894-.420195.8133508-.868231 1.1697193-1.313676-.4232281-.227255-.9444737-.328905-1.2878597-.372284-.0207719.137907-.0285614.214306-.0285614.214306-.4771052.657162-.9542105 1.325978-1.432614 1.999973.0675088.108772.1272281.224018.1687719.350271.2758772.843627-.1856491 1.750057-1.030807 2.025224-.2791228.090643-.5627895.094527-.8302281.038847-.6965087 1.006137-1.3943158 2.028461-2.0927719 3.063734-.1032105.517312-.1895439 1.03074-.2336842 1.507911-.2336842 2.523761.5485088 3.098049 1.5702281 3.191929 1.0217193.094528 1.8960877-.326962 2.1297719-2.850723.0811403-.876.0746491-1.888612-.0110351-2.842953.5751228.768523 1.2489123 1.527982 1.8960877 2.126873 1.8636316 1.723513 2.7964211 1.454821 3.4942281.704426.6971579-.750395.8957895-1.698909-.9678421-3.421774"/><path d="m57.0556228 229.386589c-.2012281.431849-.7159824.618962-1.1489474.418253-.4329649-.201357-.6205614-.71349-.4193333-1.145987.2018772-.431849.7159825-.618962 1.1489474-.418253.4329649.20071.6212105.714138.4193333 1.145987m2.3550176 1.055344c-.4251755-.321136-.962-.640329-1.4787018-.885065.4563333-.018776.9230526-.071867 1.3294035-.15474.2512105-.051149.449193-.112009.623807-.177402l-.2739298-1.858181c-.2083684.001294-.4511404.02525-.7490877.08611-.3823334.077694-.8023158.20071-1.2060702.348976.2622456-.383938.5037193-.799601.6822281-1.182244.5757719-1.23404.2843158-1.665242-.2155088-1.897029s-1.0184737-.176754-1.5935965 1.057934c-.1908421.409836-.3641579.897366-.4920351 1.375831-.1467017-.453862-.3342982-.912257-.5361754-1.296842-.6296491-1.207495-1.1502456-1.239867-1.638386-.986714-.4887895.254448-.761421.697951-.1311228 1.905445.1999298.383291.4673684.797659.7542807 1.176417-.4452982-.174164-.919807-.31984-1.3469298-.408541-1.3352456-.277756-1.6903158.102945-1.802614.640976-.1129474.538678.0590701 1.028798 1.3949649 1.307849.4050526.084169.8711228.139202 1.3261579.159273-.3888246.246678-.7705088.529614-1.0827369.80737-1.0191228.905783-.9224035 1.417268-.5562982 1.826457.3667544.411131.8646316.565224 1.8837544-.340559.3531228-.314013.7231228-.714137 1.0392456-1.120089-.0564737.512133-.0707544 1.055992-.0363509 1.527983.0986667 1.357703.5634386 1.593374 1.1132456 1.552585.5491579-.038847.9756316-.338616.8769649-1.696967-.0272631-.368399-.090228-.77694-.1785087-1.175769.3401403.365162.7257192.719317 1.0905263.993836 1.0885789.821614 1.5728245.628026 1.9045263.189703.333-.438971.3875263-.956284-.7010526-1.776603"/><path d="m166.757377 208.338827c.562141-.993188 1.369649-2.190971 2.377737-3.131716-.503719-.200062-.904877-.633206-1.037947-1.199725-.216158-.921321.358315-1.84329 1.282666-2.058891.772456-.179991 1.540369.19553 1.898035.861109-.450491-1.79538-1.607877-5.028745-4.451684-7.985003-.741947.385881-1.141807 1.261233-.639386 3.40753.205123.874058.534228 1.849118.921755 2.753606-.787386-.53091-1.644228-1.017792-2.432264-1.37389-2.468614-1.117498-3.322859-.532204-3.774649.46228-.453087.994483-.333 2.021339 2.136913 3.138838.78414.354803 1.711087.675938 2.625701.918084-.91007.271929-1.831824.625437-2.608175 1.00808-2.430316 1.197783-2.516649 2.227876-2.031754 3.207468.485543.978297 1.357964 1.536399 3.788929.337321.737404-.363219 1.533228-.846864 2.270632-1.371299-.119439.337969-.227193.682412-.326509 1.026208"/><path d="m171.489807 203.802209c-.004544-.025898-.007789-.046616-.012982-.075104-.001299.02784-.008439.053738-.011685.080284.008439-.001942.016878-.003237.024667-.00518"/><path d="m158.045889 234.882987c-.807508.187761-1.614368-.312071-1.803263-1.118146-.188894-.804781.312878-1.609561 1.120386-1.797969.80686-.188408 1.614369.312718 1.803263 1.117499.188246.80478-.312877 1.610208-1.120386 1.798616m3.004141-2.602749c-.169421.032372-.339491.06345-.503719.100354.183052-.155388.362859-.317898.539421-.48235.151894-1.573304.331701-3.199698.544614-4.840337-.543965.040789-1.206071.435734-2.073948 1.454173-.438158.514075-.88021 1.131095-1.27228 1.765597-.053878-.804781-.170071-1.63028-.337544-2.34377-.538772-2.301038-1.400158-2.579441-2.331649-2.361898-.931492.216896-1.580614.846865-1.041193 3.147255.178508.763991.466719 1.616683.804912 2.405925-.687421-.463575-1.436509-.888302-2.124579-1.199725-2.157035-.977003-2.902877-.46487-3.298193.404009-.395316.868878-.290807 1.765596 1.866877 2.741951.685474.310776 1.49493.591122 2.294.801543-.795175.238262-1.600088.546448-2.278421.88118-2.123281 1.046926-2.198579 1.946882-1.774702 2.802164.423878.854634 1.185948 1.342164 3.309878.295237.643929-.317898 1.33914-.740683 1.983719-1.19843-.26679.752337-.484246 1.546111-.612772 2.260248-.419333 2.324993.260947 2.920648 1.202175 3.089632.941878.168984 1.787685-.152151 2.207018-2.478439.145403-.806075.220702-1.748115.216807-2.640949.47321.760106 1.038596 1.519565 1.591 2.126874.197982.217543.38493.404656.56214.565871.108404-2.146297.277176-4.640275.526439-7.296115"/><path d="m128.650882 208.588549c-.845157.275166-1.754578-.185171-2.030456-1.028798-.275877-.843628.185649-1.74941 1.031456-2.024577.845158-.275813 1.754579.184524 2.029807 1.028151.276527.843628-.185649 1.750058-1.030807 2.025224m5.965439.113304c2.527035-.26157 2.939877-1.138218 2.83407-2.156009-.105807-1.018439-.690017-1.792142-3.217702-1.530572-.987964.102944-2.125877.348328-3.140456.669463.597842-.603423 1.165825-1.26706 1.613071-1.895086 1.472859-2.066014 1.085333-2.954315.249263-3.547379-.045439-.031725-.091527-.062156-.138263-.091291-.922404.80737-2.150544 1.522803-3.577965 2.152772-.266141.424727-.524492.877942-.758176 1.340869-.048684-.317898-.109702-.635796-.176561-.951104-1.048334.415015-2.173263.790536-3.33779 1.128505.153193.336027.314825.672054.487492.995779-.477106-.264808-.97693-.508896-1.468965-.722555-1.500123.402714-3.037246.747158-4.528283 1.040453-.001296.730971.539423 1.440576 2.37709 2.089321.760772.268044 1.652017.493357 2.525736.646155-.82828.326315-1.659807.730324-2.353719 1.149872-2.173263 1.313676-2.170667 2.282261-1.638386 3.157614.532281.874705 1.391719 1.325978 3.564334.011654.659508-.398829 1.363807-.9142 2.010333-1.46259-.215509.828736-.375193 1.696967-.446597 2.471317-.234333 2.523761.54786 3.097402 1.570228 3.191929 1.02172.093881 1.896088-.326962 2.129772-2.85137.081141-.875353.074-1.888621-.011684-2.842306.575123.767876 1.249562 1.527982 1.896088 2.126874 1.863631 1.723512 2.796421 1.45482 3.494877.704425.697158-.750394.89514-1.698909-.967842-3.421773-.506316-.468754-1.113246-.945278-1.741597-1.377127.928246.066687 1.904527.060213 2.751632-.02784"/><path d="m89.2572421 205.286165c-.9237017.214953-1.8480526-.357392-2.0642105-1.279361-.2155088-.920675.3583158-1.842643 1.2820175-2.058244.9243509-.215601 1.8487018.356745 2.0642105 1.278714.2161579.921321-.3583157 1.84329-1.2820175 2.058891m3.404.443503c.9808246.156036 2.0187719.238262 2.9275439.221428 1.0249649-.017481 1.7364035-.156683 2.2238947-.381995-1.7422456-.863051-3.367-2.030404-4.8398596-3.316887-.2895088.051148-.5751229.107476-.8529474.169632.1759123-.149561.3505263-.304302.5212456-.461632-.9535614-.856577-1.8402632-1.758475-2.6471228-2.653898-.1590351.232434-.3154737.467459-.4641228.70831-.0311579-.468754-.0817895-.943982-.148-1.405614-1.2437193-1.443814-2.272579-2.833889-3.0372456-3.944914-.9944562.277757-1.6533158 1.043043-1.0619649 3.567451.2051228.874705.534228 1.849765.9217543 2.753605-.7873859-.530262-1.644228-1.017144-2.431614-1.373889-2.4692631-1.116852-3.3228596-.531557-3.7759474.462927-.4517894.994483-.3317017 2.021339 2.1369123 3.138838.7847895.354802 1.7117369.675938 2.6263509.918084-.9107193.271929-1.8318246.625437-2.6075263 1.007432-2.4309649 1.19843-2.5172983 2.228524-2.0317544 3.208116.4848947.978297 1.3573158 1.536399 3.7882807.337321.7374035-.363219 1.5332281-.847512 2.2706316-1.371299-.3050877.861756-.5537018 1.769481-.7010527 2.586563-.4803508 2.661667.2985965 3.343432 1.3761404 3.53702s2.0460351-.174812 2.5257368-2.837126c.1668246-.923264.2525088-2.000621.2486141-3.022945.5413684.870173 1.1878947 1.739051 1.8207894 2.434412 1.823386 2.003211 2.8392632 1.801854 3.6500176 1.068293.8107544-.734856 1.1087017-1.724807-.7140351-3.726723-.4952807-.54321-1.0963684-1.106492-1.7247193-1.62251"/><path d="m69.4583474 193.13003c-.4952807.737446-1.4949299.933623-2.2336316.440266-.7393509-.494004-.9366842-1.491077-.4414035-2.228523.4952807-.736151 1.4955789-.933623 2.2336316-.439619.7387017.493357.9366842 1.491078.4414035 2.227876m4.8385614-1.854944c-.6880702-.056976-1.4598772-.058918-2.2219474-.011655.7724561-.518607 1.5358246-1.125268 2.1479474-1.714447 1.8279298-1.761712 1.6098245-2.705694.8970877-3.441845-.0947719-.097765-.1947369-.186466-.2992456-.263512-.9645965.218838-1.9058246.456452-2.8178421.707663-.1168421.101649-.2369299.211068-.3622106.332141-.714035.68824-1.4579298 1.581721-2.0570701 2.459016.0811403-.710253.1168421-1.437987.1051579-2.111335-1.2839649.401419-2.4828948.814492-3.5708246 1.215912.0434912.299121.0882807.598891.148.897365-.2460175-.230492-.5030702-.453215-.7620702-.668816-1.6617544.628027-3.0281579 1.209437-3.9914561 1.640639.2012281.1651.433614.336674.7010526.514723.7004035.469401 1.5514035.927148 2.3959123 1.299432-.8789123.138555-1.7779474.351566-2.5465088.609251-2.4082456.808665-2.6172631 1.75459-2.2901052 2.72447.3271579.970528 1.067807 1.597259 3.4760526.787947.7653158-.256391 1.6065789-.62738 2.3881228-1.045632-.4498421.767875-.8542456 1.596612-1.1411579 2.354128-.8970877 2.37161-.296 3.131716.6640526 3.492994.9600527.361924 1.9155614.187113 2.8126492-2.184497.2719824-.719317.507614-1.558412.6770351-2.387796.3427368.785357.7542807 1.566182 1.1768596 2.219459 1.3774386 2.130758 2.3485263 2.100976 3.2105614 1.546111s1.289807-1.425038-.0876316-3.554501c-.4777544-.739388-1.11-1.531867-1.7675614-2.229819.9275965.250564 1.9285439.433792 2.8081053.506306 2.5322281.209774 3.1008596-.57623 3.1852456-1.595964.0850351-1.019734-.3459825-1.887965-2.8782105-2.097738"/></g><path d="m111.477105 291.955973h.649123v-83.69976h-.649123z" fill="#e0b3c8" mask="url(#e)"/><path d="m124.263591 221.254292c0 2.197445-1.785087 3.977933-3.98821 3.977933-2.202474 0-3.987562-1.780488-3.987562-3.977933 0-2.196798 1.785088-3.977934 3.987562-3.977934 2.203123 0 3.98821 1.781136 3.98821 3.977934" fill="#d1aabf" mask="url(#e)"/><path d="m124.263591 241.128615c0 2.196798-1.785087 3.977933-3.98821 3.977933-2.202474 0-3.987562-1.781135-3.987562-3.977933 0-2.197446 1.785088-3.977934 3.987562-3.977934 2.203123 0 3.98821 1.780488 3.98821 3.977934" fill="#d1aabf" mask="url(#e)"/><path d="m124.263591 261.002937c0 2.196799-1.785087 3.977934-3.98821 3.977934-2.202474 0-3.987562-1.781135-3.987562-3.977934 0-2.197445 1.785088-3.97858 3.987562-3.97858 2.203123 0 3.98821 1.781135 3.98821 3.97858" fill="#d1aabf" mask="url(#e)"/><path d="m124.263591 280.876613c0 2.197446-1.785087 3.977933-3.98821 3.977933-2.202474 0-3.987562-1.780487-3.987562-3.977933 0-2.196798 1.785088-3.977934 3.987562-3.977934 2.203123 0 3.98821 1.781136 3.98821 3.977934" fill="#d1aabf" mask="url(#e)"/><path d="m50.1415561 203.680812-.0720526.380701c-.0136316.095175-.0194737.151503-.0194737.151503-.0038947.005827-.0084386.012302-.0129824.018129l-.0162281.085463c10.2509474 1.928754 10.6676842 42.002031 10.6702807 42.404098l.2083684-.282288.1505965-.2033.0395965.201357.0668597.339264c.3518245.235025-.2440702-41.069055-11.014965-43.094927" fill="#e0b3c8" mask="url(#e)"/><path d="m171.441642 203.680812.072053.380701c.013631.095175.019473.151503.019473.151503.003895.005827.008439.012302.012983.018129l.016228.085463c-10.250947 1.928754-10.667684 42.002031-10.670281 42.404098l-.208368-.282288-.150597-.2033-.039596.201357-.06686.339264c-.351824.235025.24407-41.069055 11.014965-43.094927" fill="#e0b3c8" mask="url(#e)"/><path d="m120.098495 219.846865c0 .569756-.463474 1.032035-1.034702 1.032035s-1.034702-.462279-1.034702-1.032035.463474-1.032036 1.034702-1.032036 1.034702.46228 1.034702 1.032036" fill="#fff3f9" mask="url(#e)"/><path d="m120.098495 239.601021c0 .569756-.463474 1.032035-1.034702 1.032035s-1.034702-.462279-1.034702-1.032035c0-.570404.463474-1.032036 1.034702-1.032036s1.034702.461632 1.034702 1.032036" fill="#fff3f9" mask="url(#e)"/><path d="m120.098495 259.53983c0 .569756-.463474 1.032035-1.034702 1.032035s-1.034702-.462279-1.034702-1.032035.463474-1.032036 1.034702-1.032036 1.034702.46228 1.034702 1.032036" fill="#fff3f9" mask="url(#e)"/><path d="m120.098495 279.479286c0 .569756-.463474 1.031388-1.034702 1.031388s-1.034702-.461632-1.034702-1.031388c0-.570404.463474-1.032035 1.034702-1.032035s1.034702.461631 1.034702 1.032035" fill="#fff3f9" mask="url(#e)"/><path d="m111.29983 203.144012c-13.0739826 0-24.0259826-8.609145-26.945737-20.188142-1.3826316.655867-5.1261228 2.294563-5.1261228 2.294563-1.5416667 3.755858 2.4465438 4.731565 2.4465438 4.731565-1.2093158 2.596275.5303334 5.602386 3.3897193 5.856186l-.1772105.769819c-.5556491 2.415636 1.4605263 4.649339 3.927193 4.350217l.7860877-.094528-.0168772 1.040453c-.0376491 2.356071 2.2797193 4.035556 4.5146491 3.271565l.9873158-.337969.2258948 1.151814c.4414035 2.248594 2.9872631 3.379042 4.958 2.201978l1.009386-.603424.407.953694c.927596 2.169605 3.731807 2.763965 5.463667 1.158288l.760772-.70572.519947.738093c1.396263 1.98314 4.343281 1.98314 5.740193 0l.519298-.738093.992509.920026c1.618912 1.501437 4.241368.945925 5.107947-1.082536l.530983-1.243752 1.002894.599539c1.973983 1.179007 4.523737.047264 4.96579-2.205215l.224596-1.144692 1.048334.358687c2.20507.753632 4.49193-.90384 4.45493-3.228186l-.018176-1.10455.666649.080284c2.524439.305597 4.588649-1.98055 4.020018-4.453162l-.150597-.65263.732211-.065392c2.503017-.222075 4.026509-2.853313 2.967789-5.125863l-.309631-.664931s4.04793-1.378421 2.782789-5.085073c0 0-4.080386-1.285188-5.463017-1.941055-2.919755 11.578997-13.871755 20.188142-26.945737 20.188142" fill="#fff" mask="url(#e)"/><path d="m138.245437 182.956129c-.666649 2.944603-1.916211 5.757126-3.589649 8.287361-1.690316 2.521818-3.823334 4.749047-6.258193 6.578741-4.874913 3.675574-10.989649 5.619867-17.097895 5.645765-6.108895-.023956-12.2229825-1.970839-17.0985439-5.644471-2.4348596-1.829694-4.567228-4.058217-6.2581929-6.579388-1.6734386-2.530235-2.9223509-5.343405-3.5883509-8.288008 1.5955438 5.828346 5.2884035 10.972984 10.143193 14.466625 4.8450526 3.522128 10.8182807 5.421747 16.8018947 5.398439 5.984263.02525 11.956842-1.876958 16.802544-5.397144 4.855438-3.494288 8.547649-8.638927 10.143193-14.46792" fill="#be9ba9" mask="url(#e)"/></g><g transform="translate(53 45)"><path d="m123.782253 59.667957c0 49.04497-17.432712 89.090987-62.2538425 89.090987-44.8165864 0-61.39428275-40.526057-61.39428275-89.5710262 0-49.0540391 41.70879585-58.9327391 62.15061775-58.9327391 20.441822 0 61.4975075 10.3587391 61.4975075 59.4127783" fill="#fedec8"/><path d="m40.0414827 119.355219c6.7862409 4.105274 14.0509529 6.640865 21.4136964 6.545635 7.40689 0 14.5034555-2.859504 21.5597696-6.545635-2.5923141 3.04867-5.8331937 5.577135-9.5096963 7.398822-3.6687121 1.849543-7.8223875 2.859504-12.0130681 2.924975-4.1874346.007086-8.3709738-.925136-12.0650052-2.746823-3.6914346-1.792535-7.0238534-4.320352-9.3856964-7.576974" fill="#cd9881"/><g fill="#e4c8b6"><path d="m24.5259016 87.5706039-7.303665-3.9815391 8.0307854 2.1786391z"/><path d="m25.3161906 97.6119083-8.0937592 2.8543217 7.2406911-4.6015087z"/><path d="m24.9383476 92.6178817-13.1900942-.3122521 13.092712-1.6286348z"/><path d="m99.8893361 85.7675743 8.0307849-2.1786391-7.303015 3.9815391z"/><path d="m100.679625 95.8645917 7.240691 4.6021563-8.0937589-2.8549693z"/><path d="m100.301782 90.67693 13.092712 1.6286348-13.190094.3122522z"/></g><path d="m47.4896628 91.0779991c0 6.7354479-5.5390994 12.1998609-12.3623455 12.1998609-6.8277906 0-12.3558534-5.464413-12.3558534-12.1998609 0-6.7360956 5.5280628-12.1979174 12.3558534-12.1979174 6.8232461 0 12.3623455 5.4618218 12.3623455 12.1979174" fill="#a5693c"/><path d="m44.310199 91.0754726c0 4.7006261-3.8245236 8.5189131-8.5332775 8.5189131-4.7126492 0-8.5319791-3.818287-8.5319791-8.5189131 0-4.6928522 3.8193299-8.5124348 8.5319791-8.5124348 4.7087539 0 8.5332775 3.8195826 8.5332775 8.5124348" fill="#2a1d01"/><path d="m32.1820901 86.663453c0 1.3584913-1.1075603 2.4695131-2.4657173 2.4695131-1.3633508 0-2.470911-1.1110218-2.470911-2.4695131 0-1.3578434 1.1075602-2.4572043 2.470911-2.4572043 1.358157 0 2.4657173 1.0993609 2.4657173 2.4572043" fill="#fff"/><path d="m77.7288482 91.0779991c0 6.7354479 5.5390994 12.1998609 12.3623455 12.1998609 6.8277906 0 12.3558533-5.464413 12.3558533-12.1998609 0-6.7360956-5.5280627-12.1979174-12.3558533-12.1979174-6.8232461 0-12.3623455 5.4618218-12.3623455 12.1979174" fill="#a5693c"/><path d="m80.908377 91.0754726c0 4.7006261 3.8245235 8.5189131 8.5326282 8.5189131 4.7132985 0 8.5326283-3.818287 8.5326283-8.5189131 0-4.6928522-3.8193298-8.5124348-8.5326283-8.5124348-4.7081047 0-8.5326282 3.8195826-8.5326282 8.5124348" fill="#2a1d01"/><path d="m81.3914576 86.663453c0 1.3584913 1.1075602 2.4695131 2.4657173 2.4695131 1.3633508 0 2.470911-1.1110218 2.470911-2.4695131 0-1.3578434-1.1075602-2.4572043-2.470911-2.4572043-1.3581571 0-2.4657173 1.0993609-2.4657173 2.4572043" fill="#fff"/><path d="m37.6909361 122.395078c.4544503-.7152.882932-1.386995 1.3354346-2.04713.4486073-.659487.8946178-1.315735 1.364-1.957731.4693822-.641347.9523979-1.276217 1.4678743-1.897482.5115812-.624505 1.0445864-1.239292 1.6853613-1.806787-.1720419.835048-.4706806 1.609848-.831644 2.350961-.3668063.737226-.7790576 1.453721-1.2724607 2.1158-.4856126.667261-1.0348482 1.291765-1.6503037 1.854726-.6141571.557778-1.2932356 1.079926-2.0982618 1.387643" fill="#e4c8b6"/><path d="m85.941089 122.395078c-.8050262-.307717-1.4841047-.829865-2.0982618-1.387643-.6161047-.562961-1.1646911-1.187465-1.6503036-1.854726-.4934032-.662079-.9056545-1.378574-1.27311-2.1158-.3603141-.741113-.6596021-1.515913-.8309948-2.350961.6407749.567495 1.1737802 1.182282 1.6853613 1.806787.5154764.621265.9984922 1.256135 1.4678744 1.897482.4693821.641996.9153926 1.298244 1.364 1.957731.4525026.660135.8809842 1.33193 1.3354345 2.04713" fill="#e4c8b6"/></g><g transform="translate(47 37)"><path d="m135.078909 47.911695c-1.497952-12.5801-34.328612-47.63525-67.1208803-47.63525-32.7922679 0-65.54549281 35.05515-67.04409569 47.63525-3.4370909 28.86715 8.56214355 55.82005 8.56214355 55.82005-.04099522-47.24395 30.36378944-57.7291 58.52034454-57.7291 28.156555 0 58.5619899 10.48515 58.5203449 57.7291 0 0 11.999234-26.9529 8.562143-55.82005" fill="#d3d5d6"/><path d="m70.5488612 42.54094c-1.4517512-2.587-2.0543157-5.4756-2.1441148-8.3577-.1008612-2.9029.5849952-5.7317 1.2858182-8.489.7255502-2.76445 1.5779904-5.48795 2.4278277-8.21145.8374737-2.72545 1.7445742-5.43335 2.3783733-8.216-.5817417 2.79435-1.4380862 5.5224-2.2241532 8.2628-.7971291 2.7378-1.5975119 5.47625-2.2684019 8.2433-.6481148 2.7664-1.2682488 5.5705-1.1140287 8.3928.1307943 2.7963.8101436 5.6472 2.2039809 8.021z" fill="#e8e8e8"/></g><g transform="translate(49 38)"><g fill="#e8e8e8"><path d="m6.60569 33.8146753c.08125 1.2941559-1.54115 28.4746753 9.70645 29.435065 0 0 6.80875-11.522078 15.51615-14.1623377 0 0-7.39115.9597403-10.0347-6.4818182-2.64355-7.4415584-2.9653-21.7181818-2.9653-21.7181818s-5.9969 4.924026-12.2226 12.9272727"/><path d="m89.15153 32.7601299c-2.64355 7.4415584-7.0278 9.7967532-7.0278 9.7967532 8.7074 2.6402598 15.51615 6.1720779 15.51615 6.1720779 9.2131-.7870129 6.76-26.664935 5.5705-36.0032467-4.28155-2.89740261-8.8582-5.50909092-13.6175-7.62402599.58565 6.89740259 1.5704 21.99545459-.44135 27.65844159"/><path d="m8.05519 69.2568831c1.6588 2.0025974 3.64975 1.6694805 3.64975 1.6694805 3.40145-.6181818 1.1453-3.851948 1.1453-3.851948-2.1138.9090909-5.20975-3.3428572-7.80195-9.6603896-1.78165-4.3435065-3.0732-11.4123377-3.70695-15.4090909-.28665.5844155-.54145 1.15-.76115 1.6948052 1.20055 13.0571428 5.92345 23.6844155 7.475 25.5571428"/><path d="m116.364885 23.2957143c-.5616 3.7084415-1.9201 11.6649351-3.85905 16.3915584-2.5922 6.3188312-7.8546 12.3649351-9.96905 11.4551948 0 0 2.8106 1.5707793 3.809 2.724026 0 0 1.4937-.3331169 3.15315-2.3363636 1.6276-1.9649351 6.74635-13.5727273 7.62385-27.5123377-.25025-.2409091-.5031-.4818182-.7579-.7220779"/><path d="m39.82108 44.1896753c1.34485 1.1701299 3.60165.9538961 4.42585.6071429.82485-.3474026 3.354-.8019481 3.354-.8019481-3.6946-1.2655844-4.43365-4.9954545-4.43365-4.9954545 1.4781 3.5467532 6.0957 4.7668831 6.8419 4.5818182.74555-.1857143 5.20975-.9798702 6.58515-1.0376624 1.37475-.0577922 3.40665-.7064935 3.40665-.7064935.42055-1.0967532-2.3166-2.8902597-5.7083-7.8285714-4.10865-5.9811688-4.706-23.9051948-4.77035-31.46298702-4.85225 1.60519481-9.57645 3.78831169-14.06145 6.3512987-.62465 5.74155842-1.4612 15.01688312-1.16155 21.33961042.46215 9.7467532 4.17625 12.7824675 5.52175 13.9532467"/><path d="m70.408845 22.0984416c-1.48265 9.6532467-.33865 19.4766233-.33865 19.4766233.9867 0 4.73785.262987 4.73785.262987 1.5626-6.1837662 2.2854-11.5110389 1.60095-15.6136363-.68445-4.1038961.68445-11.4551948 1.64905-16.66948054.6448-3.48831168.4264-6.74740259.2119-8.52727272-1.1011-.25779221-2.20545-.48051948-3.3137-.67012987.4173 7.30714285-3.14275 12.59480523-4.5474 21.74090913"/></g><path d="m58.37559 42.7901948c-2.1034-2.2350649-4.1288-4.5331169-5.954-7.0077922-.89115-1.2428571-1.79075-2.525974-2.31985-3.9987013-.5421-1.45-.8918-2.9480519-1.1843-4.4519481-.57655-3.0097402-.8671-6.0603896-1.0491-9.1097402-.1664-3.0506494-.1976-6.1077922-.10465-9.15974027-.039 3.05324677.0468 6.10649347.2665 9.14870127.2353 3.0402598.5798 6.0785715 1.20575 9.0571429.31655 1.4857143.6903 2.9662337 1.2441 4.3675325.5304 1.4045454 1.4287 2.6415584 2.33285 3.8564935 1.8447 2.4110389 3.9078 4.6694805 6.02745 6.8448052z" fill="#d3d5d6"/><path d="m129.943515 39.6175974c-1.51515-2.5746753-3.5477-5.4084416-6.0125-8.3454545.0273 8.051948-.65325 26.8928571-7.40935 31.6980519 0 0 2.93475 3.1344156 5.2832 9.2642857 0 0 8.5488 1.4935065 8.13865-32.6168831" fill="#e8e8e8"/><path d="m84.58918 44.2207792c1.05755-.6175324 2.0202-1.5876623 2.80995-2.6123376.7865-1.0454546 1.48395-2.1688312 2.03775-3.3662338.5824-1.1837662 1.027-2.4337662 1.4222-3.6954546l.52975-1.9162337.38675-1.9519481c.0598-.325974.13715-.65.1833-.9792208l.1222-.988961.24375-1.9792208c.07085-1.3272727.17615-2.6545454.2041-3.9850649-.01755-1.3311688.0104-2.6642857-.0442-3.9954545l-.24635-3.9902598.3276 3.987013c.0819 1.3305195.08125 2.6662338.12545 4-.00065 1.3337662-.0793 2.6688312-.1235 4.0038961l-.20475 1.9941558-.1027.998052c-.03965.3324675-.1105.6597403-.16445.9896104l-.35035 1.9779221-.49595 1.9493506c-.3757 1.287013-.80145 2.5662338-1.3715 3.7883117-.5408 1.2344156-1.2324 2.4038961-2.0267 3.5032468l-.63375.8-.69745.7493506c-.50635.4720779-.98735.9324675-1.63865 1.3z" fill="#d3d5d6"/><path d="m120.15926 71.0794156c.32565-.0298701.78585-.2084416 1.1401-.4525974.3718-.2435065.71695-.5428572 1.02635-.8818182.16705-.1564935.30875-.338961.44785-.5246753.13845-.185065.28925-.3616883.41925-.5545455.23725-.4012987.5109-.7818182.7202-1.201948.9009-1.6506494 1.495-3.4649351 2.0085-5.287013.23725-.9181818.494-1.8331169.66235-2.7694805.19175-.9305195.39-1.861039.5187-2.8038961.32565-1.8766234.5122-3.772078.7293-5.6649351-.16315 1.8980519-.29575 3.8-.56875 5.6883117-.10205.9493506-.2743 1.887013-.44005 2.8279221-.143.9448052-.37375 1.8720779-.58695 2.8045454-.4667 1.8519481-1.01205 3.7019481-1.89085 5.4298701-.20345.4383117-.47645.8441559-.7124 1.2681819-.13.2058441-.28405.3980519-.4251.5974026-.1417.2006493-.28665.3987013-.4628.5740259-.32305.3733767-.6916.7149351-1.1089 1.0051948-.2119.1422078-.429.2785715-.6734.3785715-.24635.1090909-.4771.1876623-.8125.2162337z" fill="#d3d5d6"/><path d="m123.892275 79.0117532c-1.60485-1.6032467-1.75045-1.8941558-2.47975-6.1207792-.7293-4.225974-6.8562-11.5116883-9.0441-13.5525974-2.18855-2.0396104.29185-2.6227272-1.313-3.9980519s-1.60485.7928571-4.66765-.8103896c-3.06345-1.6032468-13.42055-6.9954546-14.29545-6.9954546-.87555 0 0-2.7681818-1.0218-2.4155844-1.0205.3532468-1.31235 1.5415584-2.77095.812987s-9.91965-1.8941558-10.50335-1.8941558c-.58305 0-2.9432-2.1766234-1.8993-5.9162338-1.7836 2.1876623-3.0602 4.8954546-9.30605 4.4837662-6.2465-.412987-15.6351 2.3064935-18.84415 2.5136364s-9.06035 2.2220779-12.6282-9.1201299c1.2311 8.0766234 6.2101 11.5357143 4.1678 11.9727273-2.0423.4376623-2.5298-1.0558441-3.79275-1.7480519.29055 2.5292207-.87555 3.3512987-3.06345 4.225974-2.1879.874026-12.83685 8.7435065-13.56615 10.0551948s-2.4622 4.3584415-4.50385 4.3584415c-2.0423 0-.08775 3.1298702-.08775 4.587013 0 1.4577922-2.8665 2.1603896-2.8665 2.1603896s-4.79505 12.6474026-3.22075 28.0961039c.00065.0103897.00195.0194806.00325.0298702 1.3468-44.3961039 30.9426-54.3876624 58.4025-54.3876624 26.6487 0 55.30915 9.4097403 58.2101 50.5428572.57525-7.1733766-.8008-12.3694805-.9087-12.7993507-.14625-.5831169 1.60485-2.4772727 0-4.0805195" fill="#c2c4c6"/><path d="m62.941125 40.4146753s-11.28595-3.2467532-5.83635 8.8396104c5.4509 12.0863637-1.1739 11.4642857-1.1739 11.4642857s3.14145-.9337662 1.92465-4.2006493c-1.21745-3.2662338-5.20975-10.5097403-4.62605-14.0097403s6.8146-7.8837662 9.71165-2.0935065" fill="#e8e8e8"/><path d="m80.33623 41.6709091c-.10335-.5435065.0468-1.1220779.36335-1.6136364.3211-.4915584.7982-.8844156 1.31365-1.1383117.53495-.2577922.98865-.4370129 1.7537-.475974.70005.0389611 1.37605.3116883 1.87785.7071429 1.0257.8012987 1.5106 1.9168831 1.75695 2.9980519.2223 1.0974026.22555 2.1967533.0637 3.2584416-.1664 1.062987-.53235 2.0766234-1.0296 3.0032467l-.3913.6766234-.3718.6051948c-.2314.4090909-.46215.8246753-.64285 1.2558442-.3744.8487013-.68835 1.7668831-.6357 2.6688311.02015.4441559.1365.8928572.42185 1.2084416.273.3220779.73515.4707792 1.1986.3805195l.05005.1876623c-.4836.1779221-1.10435.1051948-1.53465-.2701299-.43225-.3701298-.6396-.9142857-.73255-1.4324675-.1937-1.061039.03185-2.1032467.3198-3.0844156.15145-.4935065.35295-.9623376.55965-1.4292208l.3341-.6883116.2847-.6318182c.34775-.8422078.5694-1.7272728.61945-2.6201299.0364-.8902597-.0832-1.7811688-.3757-2.5792208-.28275-.787013-.66235-1.5448052-1.15245-2.0188311-.234-.2636364-.4966-.385065-.7657-.4818182-.2223-.0688312-.73775-.0181818-1.1284.0461039-.7982.1487013-1.57625.5694805-1.9617 1.4714285z" fill="#e8e8e8"/><path d="m122.981365 76.6743506c.10335-.5435064.455-1.0266233.9308-1.3688311.4784-.3396104 1.06665-.5298701 1.6393-.5772727.59215-.0441559 1.0803-.0448052 1.8057.2.63765.2915584 1.1661.7922077 1.4885 1.3448051.65975 1.1201299.702 2.3363637.5343 3.4331169-.1963 1.1019481-.5967 2.1259741-1.13685 3.0545455-.5447.9279221-1.2571 1.7376623-2.05985 2.4168831l-.6123.4863636-.5681.4266234c-.36595.2961039-.7332.598052-1.05885.9331169-.6604.6525974-1.28895 1.3915584-1.57105 2.2493506-.1443.4214286-.20085.8818182-.05135 1.2792208.1365.4.51155.7077922.9763.7935065l-.0221.1935065c-.51545-.0116883-1.06665-.3071428-1.32925-.8142857-.2665-.5025974-.25935-1.0844156-.15535-1.6006494.2093-1.0584415.8008-1.9461038 1.4287-2.7525974.32175-.4032467.6825-.7662337 1.04585-1.1253246l.5629-.5175325.4966-.4837662c.63245-.6558442 1.16415-1.398052 1.5379-2.2103896.36075-.8149351.5759-1.6883117.59735-2.5376624.02535-.8357143-.0494-1.6792208-.3315-2.3-.1209-.3311688-.32045-.5396104-.5356-.7285714-.18135-.1461039-.67925-.2876623-1.06665-.3707792-.79755-.1545455-1.6757-.0474026-2.36535.6506493z" fill="#c2c4c6"/><path d="m49.616775 41.9087013c-.8281.0506493-1.6497-.1597403-2.41085-.487013-.39455-.1454545-.74165-.3727273-1.1063-.5811688-.35425-.2207792-.6682-.4954546-1.00555-.7454546-1.2883-1.0935065-2.06375-2.6162337-2.68515-4.0967532-.34775-.7344156-.54795-1.5168831-.79495-2.2785714-.2067-.7733767-.3575-1.5590909-.51675-2.3363637-.08775-.7915584-.2015-1.575974-.2652-2.362987l-.0871-2.3636364.12935-.0077922.35555 2.3207793c.14495.7675324.338 1.5233766.5031 2.2798701.2184.7428571.42705 1.488961.68575 2.2123377.2977.7084415.54795 1.4357142.93145 2.0941558.69225 1.3597403 1.64645 2.525974 2.64225 3.6006493 1.01985 1.0564936 2.19635 1.9889611 3.63805 2.6227273z" fill="#fff"/><path d="m44.311085 43.9474675c-1.2961-.0805194-2.49145-.6571428-3.52885-1.3993506-1.0543-.7487013-1.80505-1.8279221-2.47325-2.8922078-.6357-1.0935065-1.1804-2.2305195-1.53075-3.4253247-.2067-.5863636-.28925-1.2077922-.43745-1.8038961-.1066-.6071428-.16445-1.2207792-.2392-1.8266234l.1287-.0194805c.17355.585065.3198 1.1733766.4992 1.748052.2249.5610389.3822 1.1422078.6578 1.6766233.4563 1.1051948 1.08745 2.1181819 1.77905 3.0623377.71955.9357143 1.62045 1.674026 2.44205 2.4772727.8398.8006494 1.7394 1.5389611 2.74105 2.2792208z" fill="#fff"/><path d="m118.05274 63.1914286c1.60745-1.4506494 2.63445-3.3376624 3.48595-5.2545455.2093-.4844156.4342-.9584415.6058-1.4616883.18005-.4974026.4225-.9714286.56355-1.487013l.51545-1.514935.3965-1.5577923c.14365-.5175324.23855-1.0474026.32955-1.577922l.286-1.5915585c.11765-1.0720779.26715-2.1448052.35425-3.2240259.0637-1.0805195.1638-2.1636364.1989-3.2493507l.04225-3.2642857.12935-.0064935.2184 3.2688312c.05135 1.0915584.03835 2.1863636.06045 3.2837662-.02275 1.0954545-.1092 2.1909091-.16445 3.2896104l-.19435 1.6409091c-.06045.5480519-.12545 1.0961039-.24115 1.6383117-.3458 2.1772727-.88465 4.3798701-1.9305 6.3798701-.5135 1-1.1609 1.9409091-1.90385 2.7896104-.7553.8357143-1.63865 1.5902597-2.6936 2.014935z" fill="#fff"/><path d="m16.73113 61.0696104c-.6266.1051948-1.2467-.088961-1.8057-.3564935-.54405-.2902598-1.0569-.6655844-1.46835-1.1149351-.86255-.887013-1.3078-2.0350649-1.71405-3.1233766-.19305-.5519481-.364-1.1084416-.5174-1.6655844-.12415-.5649351-.28405-1.1194805-.37505-1.6863637-.07995-.5694805-.1885-1.1311688-.24375-1.7l-.15015-1.7032467.1287-.0188312.41535 1.6467533c.13585.5474026.3224 1.0805194.48035 1.6188311.15145.5396104.36855 1.0558442.54795 1.5818182.208.5149351.43095 1.0233766.6695 1.5168831.4888.9909091 1.16155 1.8389611 1.75045 2.6928572.6162.8428571 1.2909 1.6435065 2.28995 2.1824675z" fill="#fff"/><path d="m97.48765 45.0172078c.4901-.3935065.8645-.9253247 1.1609-1.4811688.3003-.5577922.54665-1.1396104.7527-1.7409091.2197-.5902598.36855-1.2175325.5395-1.824026.1209-.6298701.28925-1.2428571.38415-1.875974.442-2.5162338.7592-5.0902598.89375-7.6837663.0325-1.2987013.10985-2.5993506.065-3.9025974-.0208-1.3032467-.0156-2.6084415-.10855-3.9110389-.0806-2.6123377-.3198-5.2175325-.533-7.8285715l.1287-.0168831c.38545 2.5909091.7982 5.1831169 1.05235 7.7987013.1586 1.3051948.21905 2.6188312.3055 3.9318182.10985 1.3123377.0975 2.6318182.12935 3.9506494-.02275 2.6331168-.0052 5.3136363-.66105 7.9266233-.1508.6519481-.36855 1.2941559-.5564 1.9363637-.1118.3181818-.2509.6292208-.37505.9428571-.1248.3136364-.25155.6253247-.42575.9207792-.16965.2967533-.30615.6045455-.50115.8863637-.20345.277922-.37635.5681818-.60255.8266233-.45305.5077923-.9438 1.0103897-1.59835 1.2649351z" fill="#fff"/></g></g></svg>