<svg height="330" viewBox="0 0 230 330" width="230" xmlns="http://www.w3.org/2000/svg" xmlns:xlink="http://www.w3.org/1999/xlink"><mask id="a" fill="#fff"><path d="m.08692.0878421h1.470752v58.1680935h-1.470752z" fill="#fff" fill-rule="evenodd"/></mask><mask id="b" fill="#fff"><path d="m.53377581.15251273h129.34185019v103.26525727h-129.34185019z" fill="#fff" fill-rule="evenodd"/></mask><g fill="none" fill-rule="evenodd"><g transform="translate(6 181)"><g fill="#2a2b2d"><path d="m140.064331 37.2450333c-.091889-.9122982-2.590601-6.6474912-2.590601-6.6474912s-3.710328-3.8720395-25.480037-3.8720395c-21.7697091 0-25.4787246 3.8720395-25.4787246 3.8720395s-2.4993684 5.735193-2.5912569 6.6474912l23.9113685 24.9940965s1.845647-2.6029254 4.158613-6.3985044c2.312966 3.795579 4.158613 6.3985044 4.158613 6.3985044z"/><path d="m37.5448062 90.7319162s-6.8122229 1.6755965-8.0815975 3.8798816c-1.2687183 2.2049386 1.9585387 7.6702322 8.0815975 10.6979382 6.1230588 3.027053 13.5745635 6.778193 15.8711207 5.267281 2.2965573-1.510912-1.1486068-9.922224-1.1486068-9.922224z"/><path d="m184.520337 90.7319162s6.812223 1.6755965 8.081597 3.8798816c1.268719 2.2049386-1.958538 7.6702322-8.081597 10.6979382-6.123059 3.027053-13.902081 7.195785-15.682093 5.714935-1.073783-.893347.959579-10.369878.959579-10.369878z"/></g><path d="m183.77709 83.9109184h-145.6026504l-38.1744396 65.0875136h24.7048916l36.3576719-50.8272987 5.0039876 50.8272987h89.0176839c4.536669-46.739601 5.746972-54.4379346 5.746972-54.4379346l29.246812 54.4379346h21.897696z" fill="#ecd2c2"/><path d="m166.168882 51.1161491c-2.245362-1.5801842-5.14379-3.1107017-8.895468-4.3549824-14.251257-4.7327106-27.171442-10.0757983-27.171442-20.1653202v-26.56251755h-17.299332-.03413-17.2999874v26.56251755c0 10.0895219-12.7987616 14.8967324-27.0506749 19.629443-4.1881486 1.3893596-7.2952941 3.127693-9.6049784 4.8908596z" fill="#cfb9ae"/></g><g fill="#494d4e" transform="translate(13 249)"><path d="m44.5923026 3.6225c.7157895.70528302 1.2894737 1.66150943 1.5664474 2.70556604.3072368 1.03745283.2697368 2.15283019-.1026316 2.95518868-.0776316.17301886-.2546052.44113207-.425.64849056-.175.21066042-.3605263.40811322-.5631579.57518872-.3967105.3440566-.8638158.595-1.3921052.686132-.525.1069812-1.1171053.054151-1.656579-.1822641-.5243421-.2364151-1.0447368-.649151-1.1585526-1.28047171l-.0381579-.21396227-.3203947-.03037735-.056579.20471698c-.1138158.40811325-.068421.86971695.0901316 1.27783015.1638158.4074529.425.7660378.7335526 1.0777359.6276316.6101887 1.4723684 1.0037736 2.3842105 1.1266038.9131579.1129245 1.8717106-.07 2.7131579-.4556604.419079-.1967925.8-.4490566 1.1585527-.7204717.3598684-.2813208.6644737-.5520755 1.0131579-.9608491.6493421-.7799056 1.0138158-1.7083962 1.2217105-2.61971695.1967105-.91660378.2328947-1.8404717.1256579-2.74320755-.2203948-1.79622642-.9539474-3.54556604-2.2032895-4.95283019-.1460526-.1690566-.3019737-.33216981-.4638158-.49-1.8269737.64849057-3.443421 1.36169811-4.8671052 2.11386792.85.24698114 1.6006579.66103774 2.2407894 1.27849057"/><path d="m49.6546711 14.1105472c-.5782895.5507547-1.2125 1.0189622-1.9355264 1.2791509-.7197368.2582076-1.4697368.3698113-2.218421.3645283-.7513158-.0178302-1.4947369-.1433019-2.2171053-.3374528-.7092105-.1954717-1.4526316-.4695283-2.0480263-.7871698l-.9881579-.5256604-.2625 1.3313208c-.1756579.8948113-.4776316 1.6899056-1.0118421 2.2512264-.3986842.3929245-.8894737.686132-1.4381579.9027358-.6342105-1.1629245-1.1677631-2.3918868-1.5717105-3.6611321-.7059211-2.2294339-1.1401316-4.590283-1.0348684-6.81245279-1.3644737 1.60735849-2.15 3.05754719-2.5848685 4.06528299.2953948 1.2593397.6986843 2.4816981 1.1934211 3.6604717.4638158 1.1173585 1.018421 2.1937736 1.6506579 3.2272642-.3184211.0191509-.6401316.0290566-.9657895.0204717-.8980263-.019151-1.8756579.0237736-3.3526316-.3176415-.4552631-.1063208-1.0644736-.3196227-1.6901315-.5646227l-2.1578948 3.7093396c.744079.2443397 1.4980263.4629246 2.044079.5520755 1.5381579.2496227 4.2881579.3955661 5.4671052.2020755.9223685-.1565094 1.85-.4015094 2.7585527-.7713208.4118421.4642453.7980263.9066981 1.1730263 1.3854717.1493421.1901887.2914473.3863208.4342105.5811321-1.5447368.6577359-3.7098684 1.1477359-6.3743421 1.4977359-5.4907895.7217924-9.3822368 3.5409434-10.8559211 7.4629245-.7881578 2.0973585-1.0296052 4.6384906-1.0407894 6.9366038-1.5736842.0244339-2.9986842.0871698-4.1230263.2304717l-2.3763158 4.0857547 2.4539473-.6333019s1.7032895-.3110377 4.1572369-.595c.1447368 1.9065094.3736842 3.2279245.3736842 3.2279245-1.7026316-.4523585-5.0467105-.4233019-5.8539474 3.3738679-1.0342105 4.8709434 5.3276316 4.6919812 5.3276316 4.6919812-1.8960526-.5593396-3.4125-3.1163208-2.1480263-3.834151 2.2342105-1.2685849 3.5717105-.1287736 3.3782895 2.910283-.2 3.1427359-3.7368421 4.7983019-5.6197369 5.4613208-.0710526-.3823585-.1546052-.7640566-.2625-1.1417924-.0611842-.2146227-.1361842-.4252831-.2098684-.6359434.4217105-.3064151.8039474-.6583963 1.1414474-1.0414151-.3822369.3077358-.794079.5725471-1.2243421.7891509-.3460527-.934434-.806579-1.8365094-1.3835527-2.6613208-.3723684-.5771698-.6796052-1.001132-1.0039473-1.5195283-.3085527-.505849-.6144737-1.0090566-.8894737-1.5347169-.3684211-.6795283-.7006579-1.3768868-1.0157895-2.0821698l-1.60263158 2.7557547c.17763158.2383962.34802628.4833962.53157898.7171698.3894737.5084905.8098684.9938679 1.2315789 1.475283.4118421.4649057.9177632.9628302 1.2828948 1.3669811.5822368.5857548 1.0855263 1.249434 1.5125 1.9679246-.0368422.0085849-.0723685.0224528-.1085527.0303773-.9578947.2086793-1.9381579.1683962-2.8855263-.0138679l-.8381579-.1611321.3197369.9106604c.4769736 1.359717.7631578 2.8838679.6230263 4.2145283-.0736842.6669811-.269079 1.2580189-.5914474 1.7156604-.3401316.4985849-.7973684.9298113-1.31118421 1.2666038-1.04342105.6623584-2.27894737.9403773-3.45921053.8083018-1.18552631-.1149056-2.32105263-.6260377-3.34868421-1.3385849l-.35526316-.2463207-2.14539473 3.6868868.45263158.2106603c1.6493421.7673585 3.53157894 1.2467925 5.42631579 1.0902831 1.88881579-.1333963 3.7118421-.9172642 5.06973687-2.1772642.6743421-.6379245 1.2394737-1.3940566 1.625-2.2545283.4098684-.9020755.5151315-1.8682075.4598684-2.7379245-.1144737-1.4660378-.5546053-2.7550944-1.1513158-3.9761321.7782895-.0561321 1.5480263-.2086792 2.2631579-.4999057.0677632-.026415.1289474-.0633962.1947368-.0924528.0736842.1366981.1513158.2714151.219079.4114151.1585526.3282076.2953947.6689623.4217105 1.0156604-.0875.0231132-.15.0383019-.15.0383019.0539474-.0072642.1019737-.0171698.1546053-.024434.6776316 1.8609434.8921052 3.9530189.5348684 5.9962264.6842105-1.9230188.8605263-4.0626415.5-6.1606603 8.243421-1.5406604 8.9631579-7.029717 8.6105263-11.9865095l6.7052632-1.4383019-6.9184211-.7779245c-.0842105-.7488679-.1697368-1.4633962-.2322368-2.1316981 1.218421-.0799057 2.4940789-.1261321 3.7618421-.1215094l-.0006579.0132075.3546052-.0118868c.0848685.0013208.1703948 0 .2552632.0013208.4322368.0079245.8421053-.0026415 1.2460526-.0184906.7019737.005283 1.4151316.0270755 2.1210527.0686792 1.0592105.0653774 2.1203947.1631133 3.1789473.2905661 2.1177632.2601887 4.2309211.6326415 6.3256579 1.1153773-2.0151315-.750849-4.075-1.3986792-6.1717105-1.9395283-.4032895-.1030188-.8105263-.1974528-1.2171053-.2925471 3.9368421-1.4224529 5.3473685-4.6774529 4.6447369-8.68 0 0-.5552632 4.6378302-3.5019737 6.02-1.7684211.8294339-6.4809211.8010377-11.0322368.7884905.4072368-4.5916037 2.7756579-6.405 4.3572368-6.6420754 1.6703947-.2509434 3.3651316.3651886 2.8769737 2.205-.4881579 1.8404717-3.5348684 1.7572641-3.5348684 1.7572641 2.3401315.9806604 6.1197368-.3645283 6.2789473-3.6195283.1592106-3.2543396-2.7361842-3.7298113-2.7361842-3.7298113.9782895-1.0163208 6.6013158-2.1376415 8.6098684-3.8354717.8381579 1.5023585 1.4546053 3.1183019 1.7177632 4.8200943.4177632 2.7042453-.1302632 5.6567925-1.8703947 7.8961321l-.1289474.1657547.2993421.2621698.1434211-.1518868c2.0453947-2.1640566 2.9638157-5.2935849 2.7243421-8.3009434-.1578948-2.1607547-.8407895-4.2343396-1.8138158-6.1494339.6421052-1.5023585.2789473-3.0707547.2789473-3.0707547-.1085526.6068868-.4828947 1.1424528-1.0875 1.6166037-.1611842-.2641509-.3236842-.5276415-.493421-.7845283-.2809211-.4266037-.5875-.8466037-.8914474-1.2566981.6901316-.4800943 1.3269737-1.0704717 1.8072369-1.8048113.5046052-.8043396.7440789-1.6826415.8394736-2.544434.4421053.0799057.8796053.1340566 1.3309211.1723585.8388158.0620755 1.6855263.0402831 2.5144737-.0983962.8282895-.1525472 1.630921-.4378302 2.3414473-.8598113.7177632-.4259434 1.2769737-1.0414151 1.7368422-1.685283"/></g><g transform="translate(87 215)"><g fill="#efeff0"><path d="m34.4966162 114.998236 30.320202-110.0687218s-8.1007071-2.4300284-10.1393435-4.74178977c0 0-6.5334848 10.72897727-22.260202 10.74596587-15.7260606-.0169886-22.2595454-10.74596587-22.2595454-10.74596587-2.03863639 2.31176137-10.13934346 4.74178977-10.13934346 4.74178977l8.49333333 110.0687218z"/><path d="m34.1689899 68.36175.3276263-.5691193h-.6342425z"/><path d="m30.6662121 68.36175.3066162-.5691193h-.634899z"/></g><path d="m6.16140909 9.4835142s9.95944441 7.8990625 24.98101011 7.8990625c15.0222222 0 28.4542424-13.42821022 28.4542424-13.42821022" stroke="#d1d2d3"/></g><g transform="translate(35 42)"><path d="m145.736107 62.1847421c0 49.2930309-17.52176 89.5419909-62.5725598 89.5419909-45.045552 0-61.708608-40.732026-61.708608-90.0244024 0-49.3028493 41.922336-55.71492954 62.468912-55.71492954 20.5465758 0 61.8122558 6.89514634 61.8122558 56.19734104" fill="#ecd2c2"/><path d="m56.2484576 120.896383c8.500448 5.141577 17.60048 8.317508 26.82384 8.198378 9.277808 0 18.1666084-3.581104 27.0062084-8.198378-3.2472 3.81871-7.307184 6.985476-11.9116484 9.266621-4.595936 2.317801-9.799984 3.581759-15.049296 3.66364-5.24472.009757-10.484848-1.158634-15.112272-3.43978-4.623488-2.245144-8.798272-5.411911-11.756832-9.490481" fill="#7b6f68"/><path d="m55.5924576 118.936562c3.329856-1.494363 10.86664 5.428275 27.005552 5.428275s23.6756964-6.922638 27.0048964-5.428275c3.329856 1.493708 4.158384 7.058132-3.628992 15.426041-6.5481924 7.036531-18.6960004 7.202135-23.3759044 7.202135s-16.828368-.165604-23.37656-7.202135c-7.787376-8.367909-6.958192-13.932333-3.628992-15.426041m27.571024 32.790237c45.0508004 0 62.5725604-40.249615 62.5725604-89.5419914 0-1.7614239-.058384-3.4600099-.161376-5.1114674h-7.552528c3.594224 34.6668636-8.386304 57.3801328-14.077104 60.3688588-5.6908 2.988071-6.58952-.597614-11.760112-3.28786-5.039392-2.620863-24.2057444-2.976944-29.5869124-2.976944s-24.548176.356081-29.586912 2.976944c-5.170592 2.690246-6.069312 6.275931-11.760112 3.28786-5.6908-2.988726-17.671328-25.7019952-14.077104-60.3688588h-5.588464c-.084624 1.4982903-.130544 3.0397816-.130544 4.6290559 0 49.2923759 16.663056 90.0244029 61.708608 90.0244029" fill="#e2c9bb"/><g fill="#0095da"><path d="m55.9973408 171.74956c-2.844416 5.772574 27.40112 58.749475 27.40112 58.749475l.159408 57.505809h-48.032976l-4.433248-47.903398-6.841424 9.868817s.902-.695798-.368672-2.986107c-1.544224-2.782539-16.51808-13.250935-21.846768-13.496395-1.599328-.073311-1.723968.491575-1.723968.491575l25.854928-46.099427z"/><path d="m114.864419 174.939891c2.844416 5.77192-31.4656958 55.559144-31.4656958 55.559144l-2.8208 57.505809h48.0329758l4.433248-47.903398 6.841424 9.868817s-.644192-.602196.368672-2.986107c1.544224-2.783194 16.51808-13.250935 21.846768-13.496395 1.599328-.073311 1.723968.491575 1.723968.491575l-25.854928-46.099427z"/><path d="m108.498792 169.413825 12.35576 7.653782-1.297568 12.202328h-7.431168l5.166 7.461342-33.893552 33.767496z"/><path d="m57.604672 169.413825-12.355104 7.653782 1.296912 12.202328h7.431824l-5.166 7.461342 34.605312 33.767496z"/></g><path d="m.245672 58.2560666-.158752-58.1682245.655344.66045212.656656-.66045212.158752 58.1642971z" fill="#126a98" mask="url(#a)" transform="translate(82.656 229.750937)"/><path d="m45.2493056 177.067869c.307664 2.024557.584496 4.051079.860672 6.078909.278144 2.027175.56088 4.053697.814096 6.08349l-.3772-.339717 7.431168-.136148.984-.017674-.558912.826711-5.082688 7.518289-.076096-.791365 8.672976 8.419619c2.878528 2.819849 5.74984 5.646244 8.599504 8.494894 2.854256 2.844068 5.696048 5.701227 8.512912 8.582605l4.209552 4.33974c1.40056 1.449198 2.800464 2.899705 4.178064 4.371813-1.50552-1.342505-2.990048-2.705955-4.473264-4.070715l-4.441776-4.102135c-2.950032-2.746538-5.876448-5.517295-8.789744-8.300489-2.917888-2.779266-5.813472-5.580787-8.703152-8.388854l-8.62968-8.464129-.375888-.369173.299792-.422846 5.249312-7.403741.425088.809038-7.431168-.136149-.348992-.006546-.02952-.333171c-.178432-2.037649-.328656-4.077916-.48216-6.118837-.156128-2.040267-.312256-4.079879-.436896-6.123419" fill="#126a98"/><path d="m120.854552 177.067869c-.138416 2.044194-.309632 4.084461-.479536 6.125383-.16728 2.040921-.333248 4.081842-.526112 6.120146l-.031488.331862-.348336.006546-7.431824.136803.427056-.812965 5.249312 7.404395.296512.418265-.368016.370481c-2.805712 2.825086-5.603552 5.658681-8.431568 8.462166-2.821456 2.808721-5.652096 5.608934-8.503072 8.388854-2.847696 2.783849-5.707856 5.554606-8.591632 8.302453l-4.34272 4.104098c-1.450416 1.36476-2.902144 2.72952-4.374864 4.072679 1.3448-1.470799 2.710592-2.920651 4.07704-4.36985l4.107872-4.337776c2.750608-2.880069 5.524832-5.736573 8.31152-8.581296 2.783408-2.847995 5.586496-5.675044 8.398768-8.494239 2.806368-2.824431 5.642912-5.619406 8.471584-8.421582l-.07216.788746-5.082688-7.518289-.561536-.830638.988592.018328 7.431824.136803-.379824.337754c.26896-2.02914.564816-4.055661.85936-6.082182.291264-2.027176.582528-4.053697.905936-6.076945" fill="#126a98"/><path d="m129.790322 57.0735365c-.205984-5.9833428-.313568-12.1231256-1.789568-17.5834741-.932832-3.4528097-2.79128-6.4336808-4.368304-9.5637919-2.442288-4.8470247-5.255872-9.9827109-9.563168-13.7850562-2.265824-2.0003387-5.2808-3.7597988-8.144896-5.401438-3.73592-2.14237841-7.6345284-5.34907311-12.5000804-6.78648923-3.92944-1.16184591-8.618528-1.34054108-13.358784-1.98070182-3.324608-.69710754-5.944672-1.82622539-11.060816-1.8203573-.762272.00133208-5.272928.73967697-6.0352.73902241-5.116144-.00589105-9.250912.38422735-12.574864 1.08133489-5.04792.68139808-10.0696-.13811238-14.200432 1.13304522-6.20904 1.90935466-10.974224 6.91412863-15.33728 9.96372873-3.212432 2.245799-7.840512 5.4328569-10.180464 8.188559-5.253248 6.1862567-7.879216 13.5343593-9.626144 21.5448778-.997776 4.5753819-.211888 9.3648053-.381136 14.2707405-1.016144 29.5220136 7.381968 46.3442335 7.381968 46.3442335 6.111296-4.4974894.327344-19.5857767-.51168-29.4735763-.840336-9.8864905 9.898384-28.5827185 18.301088-31.8777789 6.971968-2.7347562 25.273712 4.1747905 39.38952 4.1551537 14.115808.0196368 32.416896-6.8899099 39.3888644-4.1551537 8.402704 3.2950604 19.141424 21.9912884 18.301744 31.8777789-.83968 9.8877996-6.622976 24.9760869-.51168 29.4735763 0 0 8.397456-16.8222199 7.381312-46.3442335" fill="#5f4c30" mask="url(#b)" transform="translate(18.368)"/><path d="m68.5417664 93.6580023c0 6.8061257-5.596992 12.3273487-12.490896 12.3273487-6.899808 0-12.485648-5.521223-12.485648-12.3273487 0-6.8061261 5.58584-12.3240759 12.485648-12.3240759 6.893904 0 12.490896 5.5179498 12.490896 12.3240759" fill="#6493b2"/><path d="m65.3290064 93.6554495c0 4.7494952-3.864496 8.6074785-8.621808 8.6074785-4.76256 0-8.621808-3.8579833-8.621808-8.6074785 0-4.7416404 3.859248-8.600278 8.621808-8.600278 4.757312 0 8.621808 3.8586376 8.621808 8.600278" fill="#2a1d01"/><path d="m53.0742048 89.1981504c0 1.37196-1.119136 2.4945323-2.491488 2.4945323-1.3776 0-2.496736-1.1225723-2.496736-2.4945323s1.119136-2.4834047 2.496736-2.4834047c1.372352 0 2.491488 1.1114447 2.491488 2.4834047" fill="#fff"/><path d="m99.097 93.6580023c0 6.8061257 5.596992 12.3273487 12.491552 12.3273487 6.899808 0 12.484992-5.521223 12.484992-12.3273487 0-6.8061261-5.585184-12.3240759-12.484992-12.3240759-6.89456 0-12.491552 5.5179498-12.491552 12.3240759" fill="#6493b2"/><path d="m102.310088 93.6554495c0 4.7494952 3.864496 8.6074785 8.621808 8.6074785 4.76256 0 8.621152-3.8579833 8.621152-8.6074785 0-4.7416404-3.858592-8.600278-8.621152-8.600278-4.757312 0-8.621808 3.8586376-8.621808 8.600278" fill="#2a1d01"/><path d="m102.79789 89.1981504c0 1.37196 1.119792 2.4945323 2.491488 2.4945323 1.3776 0 2.496736-1.1225723 2.496736-2.4945323s-1.119136-2.4834047-2.496736-2.4834047c-1.371696 0-2.491488 1.1114447-2.491488 2.4834047" fill="#fff"/></g><g transform="translate(59 47)"><path d="m41.8397609 164.816334c-1.3180435 1.911987-1.6721739 4.135074-1.0532609 6.617302 1.3128261 5.263718 6.4897826 22.291383 18.3580435 22.292041.1206522 0 .2413043-.001974.3632608-.005262 8.4717392-.246645 14.7919566-7.533504 18.7865218-21.658658.7943478-2.809114.3965217-5.303181-1.1823913-7.412483 0 0-.4108696-.496577-.1643478-3.090618 0 0 1.2084782 1.210859 1.7263043 1.902121 1.9682609 2.629557 2.4730435 5.705705 1.5019565 9.141624-4.2547826 15.047933-11.1893478 22.816242-20.6113043 23.089853-.1428261.004604-.2863044.006577-.4271739.006577-13.2769566 0-18.8471739-18.165517-20.2480435-23.783745-.8152174-3.267544-.2484783-6.191101 1.6832609-8.69043.5602173-.724147 1.2123913-1.382523 1.9382608-1.979073 0 0-.0110869.272295-.0443478.655745-.026087.304523-.0658696.68008-.1252174 1.04314-.0163043.099316-.0332609.196658-.0528261.292027-.1767391.889235-.4486956 1.579839-.4486956 1.579839" fill="#eebc0a"/><path d="m42.4043478 162.877842c-.0502174.053275-.0997826.105892-.1486956.159167-.0645652.071034-.1519565.105893-.24.105893-.0789131 0-.1578261-.02894-.221087-.086819-.1323913-.122993-.1402174-.330832-.0182609-.465006.2139131-.234148.4454348-.465665.69-.689289zm35.6706522 1.613382c-.1095652 0-.2165217-.055248-.2778261-.155879-.1115217-.182846-.2302174-.357799-.3567391-.526832-.1226087-.163114-.2523913-.323598-.3886957-.482765-.1180434-.136806-.1030434-.345302.0326087-.463692.1363044-.119047.3417392-.104577.4604348.032886.146087.169692.2843478.342014.416087.516967.1382608.185476.2693478.378845.3913043.577476.0945652.155222.0469565.357799-.1063043.453168-.0534783.032886-.1128261.048671-.1708696.048671zm-37.6056522 1.140483c-.0391304 0-.078913-.007235-.1173913-.02302-.1682608-.065114-.2517391-.255194-.1865217-.424886.1669565-.434094.3652174-.847798.5908695-1.229933.0919566-.157194.2915218-.208496.4467392-.1151.1545652.092738.2054348.294.1134782.450537-.2067391.351221-.3893478.73204-.5426087 1.131933-.0502173.130228-.1741304.210469-.3045652.210469zm38.6595652 1.602202c-.1519565 0-.2876087-.107208-.3195652-.26243-.0860869-.420939-.1995652-.830698-.3384782-1.218751-.0613044-.171007.0260869-.359115.1956521-.421598.1695653-.059194.356087.027624.4173913.197973.15.417651.2726087.858323.3645653 1.309517.0358695.178242-.0776087.351879-.2536957.388054-.0221739.005262-.0443478.007235-.0658696.007235zm-39.2621739 1.276631c-.0065217 0-.0123913 0-.018913-.000658-.18-.009866-.3176087-.165087-.3071739-.346618.0254348-.454483.0808695-.906993.1636956-1.345691.0339131-.177584.2034783-.297288.3815218-.261114.1773913.034201.2934782.205866.2595652.384765-.0776087.410416-.1291305.833329-.1539131 1.25953-.0097826.174953-.1532608.309786-.3247826.309786zm39.4304348 1.664684c-.0084782 0-.0176087-.000658-.0267391-.001315-.1793478-.015128-.3130435-.173638-.2986957-.35451.0234783-.286108.0352174-.571557.0352174-.857007 0-.138779-.0026087-.277557-.0084782-.415678-.007174-.18153.1323913-.334778.3130434-.342013.1780435.003288.3313044.134174.3384783.315047.0065217.147329.0091304.294657.0091304.442644 0 .303208-.0123913.607074-.0371739.91094-.0136956.171006-.1565217.301892-.3247826.301892zm-39.1819565 1.270054c-.1480435 0-.2817391-.101946-.3169565-.253222-.101087-.435409-.1754348-.88463-.2204348-1.337798-.0182609-.180215.1128261-.341356.2915217-.359114.1832609-.021705.3391305.113127.3573913.294.0423913.42357.1121739.845167.2067392 1.252295.0410869.177584-.0678261.353852-.2439131.395946-.0247826.005262-.0495652.007893-.0743478.007893zm38.5760869 1.614698c-.0306521 0-.0619565-.003946-.0926086-.013155-.1728261-.051959-.2713044-.234805-.2204348-.4091.0776087-.263745.1545652-.530779.2302174-.799128.0423913-.149302.0808695-.298604.1160869-.449221.0423913-.176269.2191305-.284792.3932609-.243356.1754348.042752.2830435.219678.2413043.396604-.0378261.159168-.078913.317678-.1232608.47553-.0763044.271638-.1539131.540645-.2321739.80702-.0417392.142725-.172174.234806-.3123914.234806zm-37.7921739 1.240456c-.1395652 0-.2693478-.090765-.3117391-.232832-.1369565-.450537-.2595652-.875423-.3691304-1.270711-.0489131-.174953.0528261-.356484.2256521-.405155.1741305-.047355.3541305.053275.4023913.228228.1082609.38937.2295653.809651.3645653 1.256242.0521739.17298-.0443479.357141-.2165218.410416-.0319565.009208-.063913.013812-.0952174.013812zm36.9013044 1.575893c-.0345652 0-.0704348-.00592-.1056522-.018416-.1702174-.058537-.2608696-.245329-.2028261-.416994.1382609-.407785.2745652-.820832.4082609-1.241114.0554348-.17298.2393478-.267691.4102174-.211785.1715217.055248.2654348.240067.2106522.413705-.135.42357-.2726087.841221-.4115218 1.252295-.0469565.136148-.1734782.222309-.3091304.222309zm-35.9745652 1.235194c-.1336957 0-.2589131-.08353-.3065218-.217047-.153913-.428832-.2973913-.846483-.4323913-1.250322-.0567391-.172322.0352174-.358456.2054348-.416335.1715217-.059195.356087.035517.4134783.207181.1323913.399893.2752174.812282.4265217 1.235852.0613044.170349-.0267391.359114-.1956522.42094-.0365217.013154-.0743478.019731-.1108695.019731zm34.9604347 1.537088c-.0404347 0-.0815217-.007893-.1213043-.023678-.1669565-.067087-.2484783-.258483-.1819565-.427517.1578261-.397919.3130435-.804389.465-1.218094.0626087-.171007.2523913-.259141.4193478-.193369.168913.062483.255.251906.1923913.422255-.1545652.418966-.3110869.83004-.4708696 1.233222-.0508695.128255-.1734782.207181-.3026087.207181zm-33.8908695 1.218751c-.1265218 0-.2471739-.074979-.3006522-.200604-.1734783-.413047-.3391304-.822147-.4969565-1.225328-.0658696-.169034.0163043-.359772.183913-.426202.1663044-.06906.356087.015785.4226087.184819.1558696.397919.3195652.802416.491087 1.210201.0704348.167061-.0071739.36043-.1728261.430806-.0417391.017758-.0847826.026308-.1271739.026308zm32.7280435 1.493021c-.0463044 0-.0939131-.009866-.1382609-.030913-.1630435-.076953-.2334783-.272953-.1571739-.437383.1806522-.388053.3580435-.784657.5328261-1.188496.0717391-.167061.2628261-.244672.4291304-.170349.165.072349.2406522.266375.168913.43212-.1773913.410416-.3573913.812282-.54 1.20494-.0554347.119705-.172826.190081-.2954347.190081zm-31.4973913 1.193758c-.1193479 0-.2347827-.06643-.292174-.180873-.1982608-.398577-.3886956-.795838-.5719565-1.1931-.0756522-.16443-.0052174-.36043.1584783-.436725.1636956-.078269.3567391-.00592.4330435.159168.1806521.390684.3684782.783342.5634782 1.174684.0808696.162457.0156522.36043-.1447826.441329-.0469565.024336-.0971739.035517-.1460869.035517zm30.1597826 1.435141c-.0541305 0-.1089131-.013812-.1591305-.042752-.1571739-.088792-.2132608-.288738-.1252174-.447248.2073913-.372926.412174-.754403.6123913-1.146403.0828261-.161141.2791305-.224282.4395653-.140752.1604347.082873.2223913.281504.1402174.442645-.2047827.398577-.412174.787946-.6234783 1.166792-.06.107208-.1702174.167718-.2843478.167718zm-28.7484783 1.156926c-.1108696 0-.2191304-.056564-.2797826-.159168-.2263044-.379503-.4454348-.762953-.6567391-1.147718-.0880435-.15851-.0306522-.359114.1265217-.447248.1584783-.086161.3554348-.030255.4434783.128913.2080434.378187.4232608.753745.6456521 1.127328.0926087.15588.0423913.357799-.1115217.451195-.0528261.031571-.1108696.046698-.1676087.046698zm27.2028261 1.350953c-.0639131 0-.1284783-.018416-.1852174-.057879-.1480435-.103262-.1852174-.307812-.0828261-.457114.2386957-.350564.4747826-.712309.7069565-1.085893.0958696-.153906.2973913-.199946.4493479-.104577.1526087.096685.198913.299262.1036956.453825-.2373913.381477-.4786956.750457-.7232609 1.108913-.0632608.093396-.165.142725-.2686956.142725zm-25.5743478 1.109571c-.0997826 0-.1982609-.046698-.2621739-.13286-.2615218-.356483-.5158696-.718885-.7617392-1.087865-.1004348-.14996-.0606522-.355168.0886957-.456457.1486956-.101288.3515217-.062483.4526087.08945.2406521.359772.4884782.71494.7441304 1.062872.1076087.145356.0769565.35188-.0671739.459745-.0586957.04341-.1265217.065115-.1943478.065115zm23.7821739 1.224671c-.0769565 0-.1532609-.026967-.2145652-.081557-.1363044-.119705-.15-.326886-.0313044-.463692.2771739-.318993.5497826-.651798.8184783-.998416.1115217-.142725.3156521-.16706.4578261-.055906.1415217.111812.1669565.318993.0554347.461718-.2758695.355826-.5556521.697182-.8406521 1.025383-.0645652.074322-.1545652.11247-.2452174.11247zm-21.9 1.04051c-.086087 0-.1721739-.034202-.2367392-.101947-.3026086-.320966-.5967391-.651798-.8823913-.991839-.1167391-.138778-.0997826-.345959.0378261-.463691.1376087-.117074.3430435-.100631.4591305.038148.2778261.330174.5641304.652456.8582608.963557.1239131.131544.1186957.34004-.0117391.465007-.0626087.06051-.1434783.090765-.2243478.090765zm19.8241304 1.039852c-.0919565 0-.1832609-.039463-.2478261-.115101-.1173913-.13812-.1010869-.345302.0358696-.463691.3169565-.273611.633913-.566295.9436956-.871476.1284783-.126282.3352174-.124967.461087.005261.1252174.129571.1232609.33741-.0052174.465007-.3195652.315047-.6476087.618255-.9756522.901074-.0619565.053275-.1369565.078926-.2119565.078926zm-17.6491304.935275c-.0684783 0-.1376087-.021704-.1963044-.067087-.3423913-.261772-.6873913-.547879-1.0245652-.849772-.135-.120362-.1467391-.328201-.0273913-.464349.1193478-.136147.3254348-.148644.4597826-.027624.3254348.290711.6573913.566295.986087.817544.1434782.109839.1715217.316362.0626087.461718-.0639131.084845-.1617392.12957-.2602174.12957zm15.2713043.782027c-.1115217 0-.2204348-.057879-.2810869-.162456-.0913044-.156537-.0391305-.357799.1160869-.449879.3593479-.213101.72-.446591 1.0708696-.695866.1473913-.104577.3508696-.067745.4545652.080241.1036957.148645.0678261.353195-.0795652.457772-.3658696.259141-.7408696.503155-1.1158696.725463-.0521739.030255-.108913.044725-.165.044725zm-12.7832608.766899c-.0469566 0-.0958696-.009865-.1408696-.032228-.3939131-.191396-.7878261-.407127-1.17-.63996-.1539131-.094053-.2034783-.295973-.1108696-.451852.0932609-.155221.2934783-.205866.4480435-.111154.3645652.222309.7402174.427517 1.1158696.610362.1623913.078926.2302174.275584.1519565.438698-.056087.117732-.1728261.186134-.2941304.186134zm10.1302173.466323c-.1356521 0-.2621739-.085504-.3091304-.222309-.0580435-.171665.0326087-.358457.2034783-.416993.3965217-.137464.7943478-.295974 1.1810869-.470927.1643479-.076953.3567392-.001315.4304348.165088.0736957.165745.0006522.360429-.1636956.434751-.4043479.182846-.821087.349249-1.2365218.492631-.0352174.012497-.0710869.017759-.1056522.017759zm-7.3734782.49855c-.0228261 0-.0463044-.002631-.0697826-.007893-.4291305-.093396-.8615218-.214416-1.286087-.356483-.1702174-.057879-.2621739-.244671-.2054348-.416336.0573913-.173637.2426087-.266375.4128261-.208496.4017392.13549.8113044.249933 1.2176087.339382.1754348.038806.2876087.213759.2491305.391343-.0332609.153906-.1682609.258483-.3182609.258483zm4.5254348.16706c-.1617392 0-.3019566-.12102-.3228261-.286765-.0228261-.180872.1036956-.345302.2817391-.368322.4219565-.054591.8439131-.127597 1.2534783-.218362.1741304-.040121.3495652.072349.3886956.25059.0384783.177584-.0730435.353195-.2491304.392-.4284783.094712-.8693478.171007-1.3102174.228228-.0136957.001974-.0280435.002631-.0417391.002631zm-1.8639131.121678c-.3658695 0-.7310869-.015785-1.0852174-.04604-.1793478-.015128-.3130434-.173638-.2973913-.355168.015-.180872.1747826-.305181.3521739-.299919.3365218.028282.6828261.043409 1.0304348.043409l.2347826-.002631c.1734783.010524.33.139436.3339131.320967.003913.18153-.1382609.332147-.3182609.336751z" fill="#ffe799"/><path d="m10.2300652 43.196953c.7278261-.6840268-.95869563-3.8371275.1415218-4.4428859 1.1002173-.6057584 2.812826.7136242 3.8197826.3124161 1.0069565-.4025235-.0423913-4.0186577.7336956-4.4540671.776087-.4354094.8739131.0388054 1.8273913.1894228.9541305.1506175.2634783-2.5282684.9508696-2.6479731.6880435-.1197047 1.0271739 1.7350604 2.0836956 1.5410335 1.057174-.1940268-.0410869-4.3087114.8941305-4.6500671s1.3258695 2.1520537 2.2663043 2.2112483c.9404348.0591947.8015218-3.2090067 1.3232609-3.2695167.5217391-.0611678.5673913 4.7447785 1.845 4.8131812 1.2769565.0690604 2.2226087-3.3287114 3.1095652-3.3030604.8876087.025651 1.9304348 3.8562013 2.9745652 3.8443624 1.0447826-.0124967 1.7276087-2.8867249 2.4769565-2.7755705.7493479.1111544.1617392 2.697302.9554348 2.9393423.7930435.2413825.7545652-.4564564 1.1315218-.6846846.3286956.6932349.4623913 1.729141 1.3721739 1.8245101.9104348.0966846 2.7769565-1.2023087 3.858913-1.0674765s1.5821739 3.2122953 2.7926087 3.3740939c1.2104348.1624564 1.2886957-1.6311409 1.725-1.5640536.4369565.0670872.2126087 1.8159597.8654348 1.8074093.6534783-.0085503.821087-1.5666845 1.4256522-1.5495838.6052174.0164429 2.2428261 2.8071409 3.2576087 2.7111141 1.0141304-.0966846 1.8365217-4.1265235 2.8304348-4.158094.9945652-.0309128 2.4006521 3.9522282 3.5693478 3.9430201 1.1693478-.0078926.9032609-2.7301879 1.4973913-2.7584698.5941304-.0276241.3391304 2.3579195.8869565 2.3559463.5478261-.0026308.6228261-1.2772886 1.3004348-1.2667651s.8752174 2.4144833 1.9571739 2.4934094c1.0826087.0795839 2.5115217-4.162698 3.6704348-4.1890067 1.1595652-.025651 1.6936956 2.4052752 3.0404348 2.4717047 1.3473913.067745 2.0380434-1.9632886 2.8147826-1.9771007.7773913-.0131543.6254348 1.3923893 1.6584782 1.3976511 1.0330435.0052617 1.4536957-2.6446846 2.8813044-2.7729396 1.4276087-.1282551 1.89 2.2967516 3.3208696 2.2171677 1.4308695-.0802416 1.7295652-2.4098792 2.5154347-2.4493422.7858696-.0401208.42-1.9350068 1.0721739-1.9119866.6528261.0230201 1.7106522 2.1658658 2.7730435 2.1191678 1.0630435-.0460403 2.0628261-1.9843356 2.6002174-1.9488188.5380435.0355168.6958696 1.2345369 1.3904348 1.2305906s2.0243478-2.0297181 2.6921739-2.023141c.6678261.0072349.7056522 2.5835168 1.2502174 2.6170604.5445652.0335437.4747826-1.5252483 1.14-1.4318523.6652174.0947114 2.0054348-.4235705 2.8871739-.4354094.8817388-.0118389.4780438 1.7232215 1.6682608 1.7357181 1.189565.0111812 1.471304-1.8587114 2.310652-1.7080939.839348.1499597-.99913 3.4970872-.509348 4.069302.489783.5722147 2.480218.8221476 3.636522 1.4272483.502174.2624295-.238043.4557987.136957 1.0490604.374348.5939195 2.203043 1.6765235 2.581304 2.0770738.377609.4012081 4.250217 9.1975302 4.974783 9.2455436.724565.0486712 1.414565-1.6903355 1.516956-2.3177986.101739-.6281208.729131-3.3543624.616957-3.8857987-.112826-.5301208-1.792174.2604564-2.124131-.1624563-.331304-.4222551 2.445652-2.2855705 2.112392-2.9281611-.333261-.6419329-1.968913-.0453826-2.953696-.0684027-.271304-.0065772-.557609-.0171007-.786522-.1637718-.892826-.5722148 1.234565-1.7929396 1.091087-2.3644967-.143478-.5708993-1.592609-.0282818-1.869782-.4709261-.277174-.4426443.967173-1.4621074.474782-1.9540806-.492391-.4913154-3.393913 1.9231678-3.955435 1.4871007-.562174-.4354094.869348-4.5172081.556957-5.1762416-.312391-.6583758-1.773261.7353288-2.227174.6360134-.454565-.0999731-.821739-2.6979597-1.117826-2.8663356-.296087-.1677181-.294131 1.5561611-1.052609.9668457-.758478-.5893155.294131-3.9640671.075-4.2731947-.218478-.3091275-.252391.753745-.536087.4452752-.283695-.3097852.416087-.9694765.052174-1.1871812-.364565-.2177047-.470869 2.0961477-.823043 2.002094-.351522-.0947114 0-2.2230873-.483261-2.398698-.483261-.1762685-.315 2.9649933-1.141305 3.0051141-.826956.0394631.617609-3.343839-.232173-3.76149-.849131-.4183087-2.2473918 3.5352349-2.6882613 3.2675437-.4408696-.2676913.7643478-8.7535705.7643478-8.7535705s-3.0286957 10.3735302-3.5791305 10.3899732c-.5504347.0171006-.0736956-3.92-1.1660869-3.9403893-1.0936957-.0203893-1.1771739 3.4536778-1.6904348 3.5391812-.5126087.0855034-.0554348-1.7574228-.6443478-1.7968859-.5882609-.0388054-1.0806522 1.7245369-1.5391305 1.6140403-.4591304-.109839.6482609-3.6220537-.1304347-3.8391007-.7780435-.2177047-1.616087 3.0340537-2.4645653 2.9281611-.8484782-.1065504-.5752173-10.7181745-.5752173-10.7181745s-1.9565218 9.0311275-2.8245653 9.3527516c-.8673913.3216242-.21-1.5693154-1.2586956-1.546953-1.0486957.0230202-.5315218 2.6124564-1.2176087 2.7012483-.6854348.0894497-1.6173913-4.4718255-2.2389131-4.444859-.6215217.0276241-1.0715217 3.8095033-1.6858695 3.9147382-.615.1052349-.285-1.8896241-.96-1.8823892-.675.0065772-.7258696 1.62851-1.2404348 1.6949396-.513913.0657718-1.4902174.9135704-1.9695652.9208053s-.3554348-1.3187248-1.0167392-1.4272483c-.6619565-.1078657.3802174 2.786094-1.4458695 3.0011678-1.826087.2150738-.6619565-15.1189664-.6619565-15.1189664s-3.6 12.0546577-4.8808696 12.1138523c-1.2802174.0585369-1.5573913-2.2783356-2.336087-3.4168456.1219566 1.3864698 1.1230435 3.9640671-.2282608 4.1548053-1.3506522.191396-2.6589131-4.3705369-3.8002174-6.6607114-.3789131 1.2805772-.0463044 3.9884027-1.1380435 3.8397584-1.091087-.1486443-.9097826-4.8671141-1.6891304-4.8158121-.7793479.0506443-.9280435 3.0491813-1.5052174 3.1932215-.5771739.1453557-.3358696-1.5081476-.911087-1.6206174-.5745652-.1124698-.7271739 3.5891678-1.4230435 3.7305772-.6965217.1427248-.5295652-5.530094-1.402826-8.1563625-1.4002174 3.5582551-1.6819566 11.2482953-2.7815218 11.1022819s-2.0686956-5.6544027-2.5610869-5.8550067c-.4917392-.200604-.6247827 3.301745-1.4445653 3.4056644-.8191304.1045772.2556522-5.6241476-.7356521-5.7839731-.9919566-.1591678-1.6278261 4.290953-2.7632609 4.4027651-1.136087.1111543-2.988913-8.2050336-4.5065217-12.2434228-.3013044 4.2613557 1.0969565 12.2519731.4167391 12.2342147-.6802174-.0171006-.5634783-1.2430872-.8445652-1.8639731-.5465218.762953-.7656522 2.3579194-1.2997826 2.4914362-.5347826.1341745-.1063044-2.8189799-.1597826-4.2284698-.9345653 1.3331946-.8426087 4.4514363-1.6532609 4.5448322-.8113044.0927383-3.3091305-5.8254094-4.0447826-8.6220268 0 2.795302 1.0297826 7.7985637-.0717392 7.8899866-1.1008695.0920805-1.492826-2.3053021-2.238913-3.4582819-.0952174.8727919.9730435 2.4657852-.285 2.6183758-1.2573913.1525906-3.0586957-2.1829664-4.3669565-3.5312886.4271739 1.0437987 1.1184782 2.9742014.6006522 3.3076645-.5178261.333463-1.2808696.1927114-1.6480435-.3038658-.0736957.8241208.5347826 2.0658926-.221087 2.4723624-.7552174.4071275-1.9323913-1.7811007-2.8982609-2.671651-.2184782 1.4048859.8465218 3.7851678.2002174 4.2337315-.6463043.4485638-1.065.6965235-1.5971739.3860806-.3071739 1.1667919-.108913 3.1267919-.4643478 3.5806174-.3567391.4544832-3.0286957-2.9268456-4.3402174-4.5757449-.2582609 1.2799194 1.0676087 3.481302.2315217 3.8660671-.8360869.3847651-.7160869.9069933-1.4002173.7031006-.0286957.7392752 1.1634782 1.4404027.4173913 2.1579732-.7454348.7182282-1.2032609.5051275-2.34717395-.5130201.10956522.5676107.97565215 1.3483221.33 1.7028322-.64565218.35451-2.27543478-1.4588188-3.41282609-2.1888859.32608696.494604.66326087 1.0214362.68934783 1.6140402.02608695.5932618-.39652174 1.2490068-.98478261 1.2404564.26673913 1.925141 2.09152174 5.1920269 1.73673913 5.5327249-.35478261.3413557-.81391304-.609047-1.275-.5689262-.46173913.0401208.35282609 1.6574496.14152174 2.2217718-.21130435.5643221-1.00239131.6656107-.73891305 1.2746577 1.11782609 2.5881208-1.03304347 5.8523758-.74413043 6.7113557s3.15-4.1982148 3.06521739-6.5212752c.65673913.1012886 1.24826087.5597182 1.97608694-.1243087" fill="#6d5637"/><path d="m4.0755 92.1918228c.30782609-2.2829396-.80021739-4.4974765-1.11-6.7797584-.165-1.2115167-.1023913-2.4421074-.16891304-3.6634899-.21521739-3.9693289-1.77717392-7.7808054-1.89717392-11.7540805-.06717391-2.2230873.31695653-4.4908994-.21847826-6.6482148-.14543478-.5873423-.35934782-1.197047-.2073913-1.7817584.07891304-.3058389.2523913-.5755034.39391304-.8570067.56282609-1.1161477.62413044-2.4782819.165-3.6417852.24717391-.0499866.495-.1006309.74217391-.1506175.30391305-1.4719731 2.07391305-2.4618389 1.95586957-3.9607785-.02021739-.2597987-.10043478-.5182819-.06065217-.7761074.03913043-.2571678.26282608-.5163087.51586956-.4636913-.36456522-.0565637-.45260869-.5932617-.24586956-.9010738.2073913-.3078121.57195652-.4557987.88630434-.6504832.31369566-.1946846.61826087-.5163087.56413044-.8839732" stroke="#6a5537" stroke-width="2"/><path d="m116.051283 92.1918228c-.307826-2.2829396.800217-4.4974765 1.11-6.7797584.164347-1.2115167.102391-2.4421074.168913-3.6634899.215217-3.9693289 1.777174-7.7808054 1.897174-11.7540805.066521-2.2230873-.316957-4.4908994.218478-6.6482148.145435-.5873423.359348-1.197047.207391-1.7817584-.079565-.3058389-.252391-.5755034-.394565-.8570067-.562174-1.1161477-.624131-2.4782819-.164348-3.6417852-.247826-.0499866-.495-.1006309-.742174-.1506175-.303913-1.4719731-2.073913-2.4618389-1.955869-3.9607785.020217-.2597987.099782-.5182819.060652-.7761074-.039131-.2571678-.263478-.5163087-.51587-.4636913.364565-.0565637.452609-.5932617.24587-.9010738-.207392-.3078121-.571957-.4557987-.886305-.6504832-.314347-.1946846-.618913-.5163087-.564782-.8839732" stroke="#6a5537" stroke-width="2"/><g fill="#846744"><path d="m42.5511522 30.7600295c-.3045652-2.5907516-.5028261-5.1630872-.7089131-7.7321342-.2204348-2.5664161-.2478261-5.1446711-.4819565-7.7124027-.4910869-5.1229664-1.2684783-10.24856374-2.9223913-15.15251005l.1219565-.04867114c.9997826 2.39343624 1.77 4.88289933 2.4123913 7.40524832.5947826 2.53353017 1.0506522 5.09797317 1.4243479 7.67491277.3495652 2.5775973.7173913 5.1650604.7480434 7.7702819.0326087 2.6032483-.0495652 5.2124161-.4630434 7.7992214z"/><path d="m64.800587 32.0793463c-.3939131-1.4548725-.5243479-2.9261879-.5823913-4.3942148-.0658696-1.47.1591304-2.9314496.2980434-4.3909261.1447826-1.4594765.315-2.9163222.5171739-4.3679061.2152174-1.4496107.4597827-2.8946174.7493479-4.3291006l.1297826.0177583c-.0834783 1.460792-.1904348 2.914349-.2295652 4.3725101-.071087 1.4548725-.1108696 2.9104027-.1245653 4.3646175-.0254347 1.4555302.0886957 2.9117181-.0358695 4.3600134-.1173913 1.4509262-.2654348 2.8998792-.5915218 4.363302z"/><path d="m75.6247826 19.6180215c-.0078261-1.5081477.2426087-2.9636779.5628261-4.3968457.3130435-1.4371141.9045652-2.7906979 1.4126087-4.1646711.513913-1.37265772 1.0513043-2.73479195 1.6180435-4.08508725.5791304-1.34371812 1.1856521-2.67625503 1.8326087-3.98642953l.1206521.05064429c-.4545652 1.38910068-.93 2.7657047-1.3415217 4.16401343-.4415217 1.38778523-.8523913 2.78346308-1.2384783 4.18506036-.3971739 1.3989665-.6593478 2.8360806-1.1510869 4.2028188-.4845652 1.3706846-.9991305 2.7308457-1.6884783 4.0607517z"/></g></g><g fill="#997141" transform="translate(59 52)"><path d="m36.6297705 26.2126438c.0006557.014292-.015082-.0064964-.0281967-.021438-.0098361-.0110438-.0203279-.0292335-.0308197-.0428759.0085246.0058467.0177049.0097446.024918.0168905.0544263.0610657.0288525.0337811.0340984.0474234m.9370492-10.605292c-.3252459-2.5926934-.7429508-5.1632992-1.2091804-7.72221165-.5003278-2.55371533-1.024918-5.09768614-1.6360655-7.62216789l-.1934427.03313139c.3009837 2.57775182.6196722 5.1490073.8557378 7.72675912.2695081 2.57190513.4891803 5.14705843.6150819 7.71766423.0557377 1.2849781.0832787 2.5699562.0590164 3.8477883l-.0163934 3.7958175c.0013114.5327008-.0183607 1.0621533-.0577049 1.5766643-.0649181-.1396716-.1370492-.2851898-.2340984-.4488978-.0216394-.0389781-.0714754-.1078394-.122623-.1682555-.0157377-.0168905-.0177049-.0233869-.0452459-.0493723-.0314754-.0292335-.0668852-.0565182-.1042623-.0805547-.0721311-.0454745-.144918-.0851022-.289836-.0812044-.0622951.0019489-.1298361.0149416-.175082.033781-.0321311.0162409-.0636065.0350803-.0937705.0565183-.0662295.0461241-.1108197.0948467-.1245901.1208321-.0524591.0695109-.0819673.1305766-.0990164.1786496-.0793443.206584-.1049181.3735402-.1278689.548292-.0419672.3430073-.0491803.6749708-.0393443 1.0114818l.1934427.033781c.1016393-.2364672.2091803-.466438.3180328-.6931606.0196721.1240803.04.2501095.0609836.3728905.0655737.3378102.1081967.6489854.3036065 1.0829416.027541.055219.0491803.1065402.1049181.1825475.0590163.0734087.0727868.1221313.2.2234744.0544262.0448248.1121311.0844526.1711475.1201825.064918.0376788.1895082.074708.2918033.0896496.1101639.0131061.197377.0305329.3790164-.026635.0786885-.0246861.157377-.0630146.2196721-.103292l.0898361-.0688613c.1377049-.1175839.1685246-.1760511.2236065-.2475109.0563935-.0779563.0727869-.1169344.110164-.178.0629508-.1123869.102295-.2033358.1455737-.3007811.1527869-.3715912.2537705-.7145985.3377049-1.0556569.1639345-.6840657.2491804-1.3531898.3285246-2.0223139.2780328-2.6784452-.1396721-5.2925766-.4393442-7.8839708"/><path d="m61.7606557 23.3673073-.4518032 2.9967664c-.0655738.3728905-.1331148.7568248-.2157377 1.0939854-.067541-.0636642-.1822951-.1630584-.3429509-.2364671-.1606557-.0714599-.3245901-.1039416-.4327869-.1110876-.1259016-.014292-.2118032-.0097445-.3036065-.0077956l-.1265574.0071459c-.0590164.0058468-.1567213.0194891-.2301639.0402774-.3239344.0883504-.5554099.2851898-.6957377.4437007-.0531148.0591168-.0931148.1143358-.1337705.1702044-.0118033-.4053722-.0098361-.8230876.0026229-1.2427518.0767213-1.9735912-.9226229-7.7436496-.9226229-7.7436496-.2006558 1.4532335-1.0085246 4.4480511-1.2478689 5.893489-.1213114.7217445-.2518032 1.4415402-.3960655 2.1509416-.0236066.1130365-.0504918.2221752-.0747541.3345621-.1245902-.1786497-.28-.3767884-.5580328-.5736278-.1632787-.1078394-.4518033-.2780438-.8872131-.2403649-.2124591.0227372-.4013115.1045912-.5422951.1981387-.1298361.0883503-.2314754.1883941-.295082.2676496-.1737705.2221752-.2544262.3891314-.3160656.5385474-.0295082-.3806861-.0340983-.7886569-.0380328-1.2076715l.017705-4.4350584c-.002623-1.4837664-.0373771-2.9701314-.0872131-4.4558467-.1521312-2.9623358-.3055738-5.9675475-1.0872132-8.84802921.1711476 1.4740219.1927869 2.94999271.1803279 4.42466421-.0045902 1.4733723-.0655738 2.9473942-.1298361 4.4194672-.1390164 2.9506423-.3547541 5.8804963-.5252459 8.8571241-.0347541.7477299-.0747541 1.5389854.1167213 2.429635.0544263.2273723.1219673.4644891.270164.7379854.0767213.1357737.1704918.2832409.3344262.4372044.1586885.1500657.4255738.315073.7580328.3469051.3331148.0363796.64-.0812044.8406557-.2150292.2052459-.1377226.3357377-.2910365.44-.4430511.1088525-.1663066.1586886-.2838905.2059017-.3878321l.0727869-.1812482c.0465573.1019927.0911475.1987883.1403278.3098759.0918033.1877445.1508197.3592482.3606558.65873.064918.081854.1252459.1702043.3022951.3027299.0721311.0565182.2196721.1383722.382295.1818978.2013115.0493723.4131148.0428759.6098361-.0227372.3455738-.1260292.4865574-.3228687.56-.4118687.0491803-.0630146.0734426-.1039416.0996721-.1487664.0104918-.0168905.0137705-.0259854.0216394-.0402773.0321311.0571678.0681967.1169343.1226229.1870948.04.0474234.0839345.0935475.1304918.1357738.0537705.048073.1304918.1019927.2013115.1416204.0806557.0396277.1291803.0604161.2045902.0883504.1495082.0506715.3344262.0915985.5508196.0721095.2137705-.0194891.4216394-.1026424.5711476-.2033358.2859016-.2026861.4006557-.3995256.4950819-.5495912.1770492-.3053285.2583607-.5430949.3495082-.7217446.0354099-.0883503.0773771-.1429197.097705-.1728029.0904918.0779562.2268852.1864453.3488524.2501095.1678689.0935474.332459.1611095.4845902.2091825l.0577049.019489c.0091803.0045475.1363934.0383285.2006557.0435256.1737705.0201387.3763935-.0246862.5081968-.1000438.2695082-.1578613.3396721-.3085767.4091803-.4164161.1134426-.2150292.1527869-.3696423.1927869-.5210073.1370492-.5866204.1659016-1.0907372.2026229-1.6117445.0616394-1.0296715.0970492-2.0385547.1363935-3.0487372.0727869-2.0197154.1678688-4.0283869.4990164-6.0351095-.7422951 1.9047299-1.1062295 3.9393868-1.4386886 5.9448102"/><path d="m84.2858361 6.81408686c-.5881968 1.26289051-1.1206558 2.54916788-1.627541 3.84389054-1.0268853 2.5868467-1.9206558 5.2198175-2.7567213 7.8748759-.4118033 1.3291533-.7927869 2.6693503-1.1462295 4.0277372-.1711476.6866642-.3416394 1.3544891-.4603279 2.1074161-.0590164.3735401-.0780328.6606788-.1160656.9387226-.0419672-.1182336-.0963934-.2488102-.1855738-.4073212-.0937704-.1435693-.2196721-.3456058-.5383606-.5249051-.3311475-.1935912-.8118033-.1624087-1.0334426-.0591168-.4537705.1825475-.6570492.4508467-.8019672.6139051-.1042623.1286278-.1914755.2468614-.2734427.3611971-.0013114-.0142919-.0026229-.0272847-.0039344-.0415766l-.3213115-3.6444526-1.5121311 3.3046935c-.2144262.4670875-.492459.9595109-.7534426 1.4012627-.1239345.2111314-.2563935.4105694-.387541.5775256-.0721312-.1487664-.1409836-.3098759-.2006558-.4833285-.1665573-.4872263-.2819672-1.0218759-.3704918-1.5623723-.1993442-1.0848905-.2577049-2.2113576-.2911475-3.34627-.0157377-1.1349124.015082-2.2828175.0806557-3.4424161-.3881967 1.0952847-.692459 2.2262993-.8806557 3.3832993-.2065574 1.1563503-.2839344 2.3380365-.2518033 3.5411606.0334426.6022116.0944262 1.2070219.2340984 1.8293722.0721311.3124745.1593442.6268978.307541.9640584.0754098.1682555.1626229.3449562.3206557.5391971.0754098.0948467.1777049.2026861.3245902.3059781.1534426.1006934.3704918.2182774.6740983.2182774.1468853.0058467.282623-.028584.4170492-.074708.1121312-.042876.1318033-.0610657.2019672-.0948468.1252459-.0630146.215082-.1266788.2990164-.190343.1763935-.1292774.3108197-.2572555.4334426-.3852336.1370492-.1409708.257705-.281292.3718033-.4222628.0354098.0389781.0714754.0792555.1160656.1188832.1481967.1188832.3108197.2215256.5508197.2734964.2111475.0506715.4636065.0246861.6059016-.0220876.3304918-.103292.4714754-.2358175.5934426-.3352117.1239344-.1078394.2039344-.1994379.2813115-.2897372.1501639-.178.2629508-.3397591.3704918-.4950219.0465574-.069511.092459-.1377226.1370492-.2052847.0504918.151365.1016393.3014307.2196721.5404964.1567213.2760949.4045902.6509343 1.0111476.786708.2977049.0591168.624918-.0201387.8347541-.1422701.2170491-.1221314.3495081-.2637518.4537704-.3917299.1973771-.2579051.2944263-.4865766.3724591-.7009562.1475409-.4268102.2111475-.8146423.2570491-1.1959781.0439345-.3819854.0563935-.7665694.0937705-1.0407153.067541-.6171533.2045902-1.3018687.3396722-1.9631971.2832787-1.335.5986885-2.6745475.9455737-4.0075986.6642623-2.6738978 1.4196722-5.3296058 2.212459-7.9736204.8327869-2.62972263 1.6163935-5.28737956 2.8491804-7.77418248-.7895082 1.14790511-1.4032787 2.40689781-1.9967213 3.66459124"/><path d="m49.4387541 27.7339591c.0491803.21373.012459.4690365-.2262295.6658759-.1304918.1071898-.3711476.1091387-.5311476-.0019489-.1672131-.0993941-.249836-.3222189-.2721311-.4352554-.1108197-.4625402-.117377-.8919489-.2301639-1.1453066-.0249181-.0656132-.0616394-.1136861-.095082-.1598102l-.0570492-.0630146c-.0229508-.0259854-.0386885-.0422263-.0288524-.0233869.0052459.0123431-.0104918.0129927 0 .0246861.0052459.0084453.0668852.0279343.1547541-.0168905.1377049-.1078394.0183606.0149416-.0065574.2000876-.0249181.096146-.0491803.2000876-.1147541.3624964l-.1252459.2942846c-.0885246.2013869-.1986885.4157665-.3436066.6333942-.0668852.0915985-.1167213.1773504-.2636065.3319635-.0754099.0721095-.1678689.1656569-.3685246.2416642-.2236066.0857519-.4852459.0415767-.6268853-.0305328-.292459-.1546131-.3672131-.3020803-.4596721-.4268102-.0832787-.1286278-.1390164-.2455621-.1914754-.3735402-.1298361-.3066277-.1291803-.6054598-.1239344-.7717664.0013114-.0909489-.0006558-.1552628-.0045902-.2026861-.0078689-.0402774.0059016.0032481.0334426.0064963.0459017.0500219.1304918.081854.2065574.0740584.1036066-.0285839.0111475-.033781-.0491803-.0051971-.0740984.0324818-.1567213.0760073-.2465574.1292774-.0859016.0532701-.184918.1058905-.2911475.1598102-.1186886.0396278-.2052459.144219-.4931148.1078394-.0662295-.0103941-.1311475-.0727591-.1744262-.122781-.0170492-.0311825-.0281968-.0578175-.0406558-.0877007-.0229508-.0571679-.0413114-.1162847-.0537705-.1754015-.0275409-.1182335-.024918-.238416-.0013114-.3495036l.0439344.0422263-.1462295-.055219.1514754-.0370292.0229508-.0058467.0209836.048073c.0419672.094197.0983607.1747518.1580328.2436131.0308197.0344307.0636066.0649635.0983607.0922482.0170491.012343.0360655.0272846.052459.0357299.0013115-.0279343-.0314754-.0344307-.042623-.048073-.077377-.019489.0157377-.0597664.0609836-.1351241.057705-.0714598.1154099-.1533138.1868853-.2338686.067541-.0805547.1455738-.1669562.2393442-.2553066.1121312-.0805547.202623-.204635.5167214-.2390657.1836065-.0032481.3580327.0779563.4806557.2007373.0813115.0902992.157377.2176277.1809836.2754452.0668852.1468175.1036066.2858394.1311475.3988759.0583607.2377665.0845902.3585986.1390164.425511.0354099.0578175.0806558.1221314.1186886.1598102.0281967.0396277.0918032.0558686-.0111476-.0103942-.0485246-.0292335-.2-.0584671-.3252459-.0103941-.1029508.0389781-.1140983.0649635-.1186885.0630146l.1036065-.1643577c.0819673-.1273284.1534427-.2832409.2340984-.457343l.1232787-.2695986c.0137705-.0279343.0432787-.122781.0780328-.2234744.0354098-.103292.0767213-.2267227.1462295-.370292.0727869-.1396715.172459-.329365.4301639-.4904745.2629508-.1578613.5468853-.1591605.7534426-.1065401.2137705.0539197.3895082.1539635.5436066.3072774.0878689.089.1278689.1591606.1652459.2169781.042623.0617153.0714754.1338248.1029508.2013868.0531148.1396716.095082.2832409.1108197.4196643.0727869.5554379-.0904918.957562-.1245902 1.3122627-.0170491.0896497-.0301639.0799051-.0360655.1143358 0 .0194891-.0039345.0584672.0511475.0643139.1193443-.0058467.3147541-.1572117.3842623-.3495037"/><path d="m90.5133115 25.7110606c.04-.028584.0727869-.0487226.0885246-.0493723-.0065574.0045475-.0137705.0272847-.0885246.0493723zm7.5344262-18.1501533c-.7357377.89389781-1.3770492 1.88134306-1.8819672 2.9207591-.535082 1.0303212-.984918 2.0970219-1.4170492 3.1695694-.8209836 2.1600365-1.5062295 4.3642481-2.1285246 6.5808029l-.9272131 3.3261314c-.1022951.3878321-.1881967.7756642-.2760656 1.1647956-.0701639-.0864015-.1534426-.1792993-.2852459-.2994818-.0622951-.0519708-.1318032-.1149854-.2760655-.1857956-.1580328-.0727591-.3836066-.1260292-.510164-.1032919-.3350819.0285839-.4727869.1416204-.6026229.2215255-.4177049.3306642-.5377049.5944161-.7108197.8646642-.1554098.2663504-.2963934.5210073-.4222951.7691679-.1193442.2481606-.2845901.4969708-.2557377.4982701.0065574.0825036-.2531147.0578175-.4754098-.0688613-.230164-.1162847-.4622951-.2871387-.6891804-.466438l-.1580327.1156351c.1213114.2741459.2616393.5443941.4747541.793854.1055737.1266788.2308196.2462116.4006557.348854.1652459.1000438.412459.185146.6898361.1338248.2786885-.0487226.4937705-.2377664.6118032-.3449562.1298361-.1182336.2367214-.2273723.3429509-.3352117l.5862295-.6210511c.0131147-.0129927.0281967-.026635.0419672-.0402773l.2681967.5495912c.0655738.1338248.135082.2708978.2190164.4203139.0983607.1572116.1521311.2929854.3993443.5489416.0275409.0279343.0714754.0656131.1285246.1078394.0413114.0331314.12.0851022.2190163.1305766.0642623.0370292.2662296.0980949.4144263.103292.209836.0084453.4242623-.0428759.5862295-.1390219.1927869-.1123869.2472131-.1864453.3390164-.2910365.0727869-.0948467.0944262-.1409708.1363934-.2176277.0432787-.0948468.0472131-.1240803.0714754-.1903431.0354099-.1026423.082623-.2566058.0977049-.3215693l.055082-.2169781c.0747541-.2936351.1272131-.5710292.1888525-.8523212.1140983-.5612847.2065573-1.1225694.2970492-1.683854.16-1.1284161.3495081-2.2477373.5534426-3.3657592.4229508-2.2308467.9088524-4.45 1.529836-6.6282262.6065574-2.1788759 1.3167214-4.3493066 2.5206558-6.27677375z"/><path d="m106.005377 27.7060898c-.000656.6333941-.032787 1.2518467-.011147 1.8228759.016393.2721971.053114.5762263.126557.6652263.007869.0077956.011147-.0110438.011147-.0110438s-.003934-.0032482-.02295-.0383285c-.046558-.0402774-.090492-.0740584-.14164-.0838029-.059016.0019489.036722-.0006496.071476-.0019489l.139672-.0045475.268852.0064964c.704918.0591168 1.365902.2273723 2.017705.6502847.161312.1143357.323279.2351678.478033.4222627.148852.1792993.309508.4313577.325902.7613723.009836.2786934-.032132.423562-.07082.6061095-.04.1721533-.08918.3293649-.135082.4768321-.045902.1487664-.090492.2897372-.120656.411219-.036721.1149854-.030164.2436131-.048524.190343-.011804-.0246861-.085246-.0993941-.116722-.0961459.009836-.0038978-.048524-.0025986.014427.0077956l.123934.0259854.47082.1188832c.308852.0851022.612459.178.916721.2877883.307541.1208321.596066.2130803.933115.4495475.043278.0350803.083934.0623649.139016.1331751.02623.03573.045246.0493723.072131.1071898.025574.0597664.042623.1273285.047869.1903431-.005246.1507153-.047869.2481606-.085902.3378102-.08.1676058-.175081.3014307-.211803.3884818-.019672.0500219-.007869.0253357-.038688-.0097446-.023607-.0175401-.006558.0103942.079344.0415767.141639.0597664.291147.1162846.445246.1994379.146229.0812044.339016.206584.402623.4385037.055082.2312701-.039344.4053722-.094426.5430949-.06164.1403211-.127214.2721971-.125246.3891314-.004591.1143357.081967.2176277.208524.2903868l-.057049.1169343c-.147541-.0526204-.325246-.1831971-.354754-.3852335-.03082-.1929417.031475-.356.066229-.5021679.100984-.3261168.051148-.4300584-.219672-.528803-.125246-.0474233-.272131-.0838029-.422295-.1234306-.057705-.0194891-.198688-.0376788-.321967-.1754015-.131147-.1585109-.100984-.3553503-.074754-.4469489.059016-.2059343.13377-.3332627.166557-.4508467.016394-.0526204.020328-.1052409.013771-.1078394-.005902.0259854-.000656.0578175.01377.0805547.014427.021438-.001311.0110438.002623.0175402.008525.007146-.016393-.007146-.034754-.0175402-.182295-.101343-.494426-.1922919-.772459-.2611532-.287213-.0708103-.583606-.1292774-.878688-.1786497l-.439345-.0623649-.104918-.0110438c-.014426.0025985-.145573-.0246862-.211147-.0461241-.173771-.0506716-.375082-.2345183-.434099-.4079708-.123934-.3449562-.066229-.5333504-.053114-.7178467.024262-.1792993.057049-.3358614.085246-.4846278.027541-.1500657.051803-.2910365.065573-.4209635.015082-.1182336.017705-.2806423.001312-.3072774.01377.0441752-.112131-.1019927-.322623-.1929416-.417705-.1987883-.979017-.3540511-1.496394-.457343l-.192786-.0363796-.251804-.033781c-.208524-.0292336-.398688-.1052409-.554754-.2650511-.088524-.0753577-.127869-.1455183-.16459-.2156788-.037377-.069511-.077377-.1507154-.095082-.2143796-.111475-.5008686-.033443-.8250365.04459-1.1589489.172459-.6463869.44-1.2226131.803279-1.7611606z"/><path d="m28.9136393 22.3230839c-.012459.6470365-.1252459 1.2719854-.3560655 1.9001825-.1285246.3183212-.2518033.6288467-.6321312.9757518-.0511475.0422263-.1311475.0870511-.2013115.1221314-.0708196.0376789-.1436065.0721095-.2596721.083803-.2196721.0435255-.4209836-.001949-.6078688-.096146l-.2262295-.1143358-.1790164-.0792555c-.4845902-.2085328-1.0347541-.3988759-1.4931148-.471635-.2242623-.0448248-.4118033.0038978-.375082-.0246861-.0288524.012343-.1206557.1481167-.1763934.2533576-.0636066.1143358-.1245902.2436132-.1888525.3826351-.062295.1383722-.1259016.2851897-.2091803.4462992-.0957377.1578613-.1567213.3456059-.4577049.5586862-.1488525.108489-.4190164.1455182-.5921312.089-.0655737-.0194891-.1888524-.0714599-.1993442-.0812044l-.092459-.0506715-.3967213-.1974891c-.270164-.1266788-.5468853-.2462117-.8242623-.3514526-.267541-.1000438-.5763935-.2020365-.7842623-.2215255-.0209836-.0025985-.0504918-.0045474-.0386886-.0058467.0065574-.0032482-.012459-.0032482.0118033-.0129927.0255738-.0103942.0478689-.0331314.0577049-.0584672-.0065573-.0012992-.0334426.0441752-.0504918.0967956-.0413114.1149854-.0531147.261803-.1232787.4638395-.0314754.0902992-.12.2689489-.3193442.3248175-.1803279.0428759-.3062295-.021438-.3645902-.0383285-.1468852-.0526204-.2878688-.1058905-.4183606-.1383722-.2793443-.0714599-.3803279-.0149417-.4852459.3098759-.0557377.1403211-.0983607.3092262-.2354099.4495474-.1403278.1500657-.3613114.1559124-.5134426.115635l.0209836-.1279781c.1455738.0110438.2767213-.0240365.3383607-.1208321.0695082-.0941971.0918032-.2390657.1219672-.389781.0340983-.1435693.0577049-.3410584.2354098-.4989197.1862295-.1546131.4163935-.1481168.5829508-.1318759.175082.0188394.3304918.0565182.4813115.0877007.0885246.0240365.1180328.0097445.0885246.0110438-.0452459.0116934-.0498361.0383285-.037377-.0136423.0196721-.0928978.0190163-.2559562.0504918-.4385037.0203278-.096146.0413114-.2000876.1239344-.3261168.0406557-.0487226.0937705-.0954963.1495082-.1292773.0550819-.0324818.0780328-.0324818.1206557-.0474234.0859017-.0272847.135082-.0259854.1914754-.0305328.4118033-.0025986.7022951.0844525 1.0242623.1598102.3127869.081854.6163935.1767007.9186885.281292l.455082.1695547.1167213.0487226c.0577049.0266351.0104918-.007146.0163935.0019489-.0242623-.0207883-.1278689-.0006496-.1514754.0129927-.0459017.0331314.0334426-.0688613.0695082-.1838467.0459016-.1169343.089836-.2579051.1390163-.4060219.0465574-.1468175.097705-.3033795.1632787-.4670876.0740984-.1721533.1232787-.3157226.2918033-.5378978.2039344-.2618029.4813115-.3774379.7062295-.4404525.2354099-.0662628.4380328-.0734088.6360656-.0760073.7790164.0214379 1.4183607.2572554 2.0308197.6080584l.224918.1474671.1121311.0825037c.027541.0207883.1042623.0766569.057705.0415766-.0478689-.0207883-.1036066-.0181898-.1652459-.0110438-.0360656.0175401-.0413115.0181898-.0413115.0181898s-.0078689.0175401.0032787.0149416c.1114754-.0305329.3167213-.2605037.4878688-.4742336.3468853-.4560438.6773771-.9822482 1.0419672-1.5026058z"/><path d="m3.31042623 88.4729511c.46688525-.3339124.63016393-.9887445.71016393-1.5630219.06819673-.5976642.04-1.2057226-.03147541-1.806635-.16983606-1.2011752-.4104918-2.4075475-.63409836-3.6093723l-1.35475409-7.2278394c-.42229509-2.4159927-.8295082-4.8352336-1.16131148-7.271365-.16393443-1.2187153-.31147541-2.4406788-.42491803-3.6704379-.09639345-1.2349562-.20196722-2.4634161-.10229509-3.7535913.0295082-.6665255.14557378-1.2356058.21180328-1.8482117.07737705-.6035109.14360656-1.2057226.19868853-1.8059854.05377049-.5989635.09377049-1.1985766.08721311-1.7748029-.00131147-.2890876-.01901639-.567781-.05770491-.8341314-.01967214-.1338248-.04524591-.2657007-.07672132-.4027737l-.05114754-.2130803-.02754098-.1195328-.0295082-.1805986c-.05967213-.4976204.12918033-.957562.33508197-1.2817299.21114754-.3306642.45508197-.5885693.67672131-.8159416.11016394-.1123869.22032787-.2215255.29704918-.3092263.03868853-.0435255.06754098-.0805547.0695082-.0915985.00983606-.0136424.03803278-.0727591.05901639-.1214818.09508197-.2234744.17967213-.5093138.26819672-.7880073.17377049-.5658321.32655738-1.1550511.49508197-1.7540146.1652459-.601562.37442623-1.2395036.67934426-1.8417153.16983607-.3053285.32196722-.6041606.67409836-.9367737.10163935-.0838029.20852459-.1734526.4052459-.2449124l.07344263-.0240365c.01901639-.0058467.07016393-.0188394.03016393-.0103942-.04065574.0077956-.08131147.0259854-.11540983.0506715-.05508197.0324818-.08983607.0773066-.09967214.0941971-.02491803.0539197.0347541-.0766569.05508197-.1955401l.09114754-.4534453c.01836066-.0857518.04065574-.1786496.07672131-.2884379.0242623-.0610657.03344263-.1039416.07606558-.1831971.03278688-.0669124.07278688-.1429197.1652459-.240365.0557377-.0773065.23803279-.1955401.38491803-.2306204.07868853-.0155913.16262295-.0227372.24393443-.0201387.04918033.0019489.07344262.0058467.07672131.007146l.03606557.0058467c.09639345.0162409.1842623.0370292.2695082.0578175l.41311475.1117372c.02885246.0253358.08196722-.0350802-.15475409.0630146-.05967213.0350803-.11672132.0864015-.15737705.1533139-.05049181.0682117-.09114754.1916424-.07540984.2858394-.00327869.0019489.00262295.0064964-.00327869-.019489-.02163934-.1026424-.07213114-.2624526-.11344262-.4047226-.08786885-.3014307-.18229508-.6093577-.23278689-.9802993-.01508196-.1890438-.06032786-.3826351.06229509-.7204453.03540983-.1396715.25901639-.3943284.45377049-.4313576.11081967-.040927.20918033-.0539197.2747541-.0454745.07278688.0019489.15737705.0084453.21901639.0194891.36262295.081854.68655738.2254233.96459016.3585985.13180328.0630146.28786886.1344745.33245902.1455183.00590164.0038978.00786885.0012992-.04590164.0097445-.00918033.007146-.0504918.0136423-.08786885.0376788-.03540984.0272847-.05704918.0519708-.07606558.0714599-.06229508.1195328-.02229508.0721095-.02819672.0383284.00393443-.0805547-.0157377-.2611533-.03016393-.404073-.01311476-.1468175-.03409836-.2754452-.06163935-.4053722-.11081967-.5021679-.45704918-.9712044-.86032786-1.4006132-.80655738-.875708-1.81639345-1.602-2.79934427-2.3399854l.0695082-.1104379c1.09770492.5768759 2.16852459 1.2044233 3.14885246 2.0268613.47147541.4190146.94622951.9322263 1.1704918 1.6208394.05245902.1669562.09311476.3378102.12065574.4943723.02819672.1604598.06032787.2825912.07803279.5086642-.00918033.1149854.03278688.233219-.12196722.4781314-.05245901.1052409-.25508196.2163285-.35278688.2254233-.12983607.0246862-.2052459.0116935-.27540984.0032482-.25967213-.048073-.38426229-.1143357-.53770492-.1663065-.28786885-.1097884-.54295081-.1916424-.78885245-.226073-.01508197.0019489-.00786886.0090949-.01180328.0064963-.01377049-.0064963.0104918.0006496.04983606-.0097445.02688525-.0149416.05508197-.0318321.09311476-.0571679.01508196-.0149416.02688524-.0324817.03409836-.0519708.00655737-.0025985.01180328-.007146.01508196-.0129927.0137705-.0487226 0 .0753577.0295082.185146.04590164.2351679.14163935.512562.24327869.7932044.05245902.149416.10557377.2780438.16131148.471635.01442622.0487226.03081967.1292774.04131147.2065839.00983607.1312263-.02819672.2962336-.09180328.3982263-.06295082.0980949-.14622951.1773504-.24131147.2306205-.1790164.0980948-.32065574.0993941-.39934427.101343-.09311475 0-.15213114-.0090949-.20918032-.0175401-.21639345-.0350803-.35213115-.0740584-.48852459-.1019927-.06557377-.0129927-.12786886-.0253358-.18491804-.0318321l-.0209836-.0032482-.01114754-.0012993.03081967.0058467c.04196721.0058467.08786885.0012993.12786885-.012343.08-.0051971.18229508-.0954964.19540984-.1065402.08918032-.1253795.00393442.0240365-.00131148.1383723l-.07147541.4508467c-.04262295.178-.04590164.3553504-.23672131.6691241-.05442623.0779562-.1442623.1812482-.26229508.2559562-.06885246.0396277-.1442623.0734087-.22032787.0974452-.05704918.0168906-.02360656.0103942-.02360656.0103942l.0190164-.0045474c.04983606-.021438.03278688-.0136424.01770491.0019489-.09508196.0935474-.24655737.341708-.35606557.5788248-.48393443.9809489-.67868853 2.1899197-1.04327869 3.4034379-.08918033.3072774-.18754098.6074088-.33639344.9471679-.04327869.0896497-.07934426.170854-.15278689.2858394-.07540983.1221314-.14754098.2013869-.21180328.2721971-.12983606.1409708-.24196721.2442628-.34819672.3501533-.43278688.4021241-.71344262.8146423-.67081967 1.0374672.00262295.0149416.00393443.0311824.00393443.0467737.00131147.019489.01442623.0708102.0209836.1045912l.04786886.2358175c.03147541.1630584.05836065.3326132.07737705.5028176.03803278.3404087.04590163.6756204.03672131.998489-.01508197.6489854-.08 1.2713358-.15606558 1.8891387-.07803278.6171533-.16655737 1.2304088-.26557377 1.8384671-.08655737.6028614-.23081967 1.2349563-.26819672 1.7936424-.12196721 1.1511533-.05704918 2.3783139.00655738 3.5840365.07934426 1.2115693.19278688 2.4250876.32262295 3.6379562.26426229 2.4276861.60655738 4.8501752.96327869 7.2713649l1.09442623 7.2648687c.18163934 1.2135182.37836065 2.4198905.50754098 3.649.0504918.6171532.05836066 1.2421021-.03409836 1.8592554-.11672131.5989635-.27213115 1.2687373-.84983607 1.6539708z"/><path d="m116.818361 88.5903401c-.50164-.3235182-.679345-.8796058-.804591-1.3934671-.112131-.526854-.135737-1.0647518-.120655-1.5974526.05377-1.0673503.230164-2.107416.375737-3.1500803l.931804-6.2462408c.61836-4.1583139 1.234754-8.3283212 1.532459-12.4950803.042623-.5210073.060328-1.0400657.074098-1.5578248.028197-.5210073.018361-1.0329197.003935-1.5428833.009836-.5229562-.079345-.9874452-.127214-1.4883138l-.264262-1.568219c-.151475-1.0530584-.306229-2.1048175-.341639-3.2130949-.011148-.5469927.023606-1.1531022.154098-1.7195839l.045902-.2020365.022951-.0967956.005901-.0441752c.013771-.0506716.005246-.1019927-.001967-.1611095-.019016-.1182336-.105574-.2793431-.230164-.445-.122623-.170854-.281311-.3430073-.463606-.5327007-.091148-.096146-.188197-.1955402-.295082-.3189709-.112787-.1195328-.248525-.3521021-.304263-.4878759-.234754-.5788248-.350819-1.080343-.482623-1.6045985-.249836-1.0446131-.434098-2.0515474-.834098-2.9350511-.097705-.2156788-.218361-.4294088-.332459-.5567372l-.059672-.0584672c-.006558-.007146.001967.0012993.003279-.0058467-.07082-.0233869-.192787-.074708-.245902-.1279781-.242623-.2390657-.242623-.4144671-.288525-.5651825-.057049-.2962336-.069508-.5625839-.113442-.7743649-.007213-.1078395-.093771-.158511.033442-.0948468.091804.0077957-.003934-.0045474-.059016.0103942l-.181639.0279343c-.125246.0207883-.254427.0500219-.408525.0701606-.08.0077956-.162623.0233869-.302951-.0064964-.073442-.019489-.173115-.0649635-.232131-.1585109-.06623-.089-.054426-.2682993-.041967-.2721971.087869-.322219.198688-.5223066.291147-.7756642.093115-.2410146.182295-.4846278.223607-.7236934.023606-.1188833.024918-.2351679-.003935-.3248176-.029508-.0799051-.136393-.101343-.257704-.101343l-.023607-.1273285c.13377-.026635.335738-.040927.45377.1279781.087869.1507153.099017.3059781.099017.4475985-.007213.2851898-.068197.5502409-.128525.8120438-.056393.2501095-.147541.541146-.169836.733438-.001967.0591168.009181-.0487226-.030164-.0812044-.024262-.033781-.056393-.0539197-.068196-.055219-.008525-.005197.042622-.0084452.093114-.0246861l.365246-.1149854c.06623-.021438.135082-.040927.207213-.0571679.074754-.0097445.110164-.0487226.335082-.0207883.188853.0493723.302951.1883942.350164.2754453.058361.0974452.083279.1747518.111476.2533576.091147.2981825.126557.5580365.194098.7737153.022295.0993942.098361.192292.055082.1338249-.005902-.0077957-.058361-.0448249-.071475-.0376789.06295.0175402.13836.0389781.188196.0662628.108197.0532701.186886.1143358.259017.1754015.265573.2436131.417705.4898248.567213.738635.586885.9926423.821639 2.0755839 1.140328 3.0532847.154754.4865766.306885 1.0082336.492459 1.3973649.057705.1013431.051803.1006935.121311.1747519l.255738.2507591c.192787.1831971.405246.3878321.603934.6366423.192131.2527081.390164.5534891.479345.9536643.041311.197489.060327.4138175.025573.6223503l-.023606.1507153-.02164.0954964-.038688.1838467c-.097049.4625402-.116721.9153358-.100328 1.4188029.025574.9958905.137705 2.0366059.26623 3.0675767l.199344 1.5552263c.036065.5469927.110819 1.1277664.079344 1.6585182-.006557.5424453-.018361 1.082292-.066885 1.6123942-.036066.5327007-.07541 1.0654014-.139017 1.5909562-.434754 4.2213284-1.18295 8.3692481-1.931803 12.5165182l-1.19082 6.2040146c-.188196 1.0335694-.406557 2.0664891-.501639 3.0994088-.03541.5171095-.034098 1.0387664.051803 1.5461314.089836.491124.268853 1.0342189.667541 1.313562z"/></g></g></svg>