<svg height="330" viewBox="0 0 230 330" width="230" xmlns="http://www.w3.org/2000/svg" xmlns:xlink="http://www.w3.org/1999/xlink"><linearGradient id="a" x1="50.000011%" x2="50.000011%" y1="99.999964%" y2=".000056%"><stop offset="0" stop-color="#caaa6e"/><stop offset="1" stop-color="#a58c5b"/></linearGradient><linearGradient id="b"><stop offset="0" stop-color="#c88c66"/><stop offset="1" stop-color="#caaa6e"/></linearGradient><radialGradient id="c" cx="49.998369%" cy="49.999742%" gradientTransform="matrix(.999971 0 0 1 .000014 0)" r="50.000846%" xlink:href="#b"/><radialGradient id="d" cx="49.999582%" cy="49.999742%" gradientTransform="matrix(1 0 0 .972222 0 .013889)" r="50.000846%" xlink:href="#b"/><mask id="e" fill="#fff"><path d="m.50359332.51994631h126.58042768v287.26813769h-126.58042768z" fill="#fff" fill-rule="evenodd"/></mask><mask id="f" fill="#fff"><path d="m103.60639.46115419h-.032588-16.6447285v25.83621141c0 9.815445-8.5904154 14.4906608-22.3022364 19.0944846-13.7214058 4.5986784-15.457508 13.14-15.457508 13.14l-48.98977638 86.8249778h22.89137378l32.6166134-49.4380439s17.7821087 8.3072069 26.4792333 49.4380439h43.6255588c9.603195-40.673542 28.706071-48.536317 28.706071-48.536317l25.51821 48.536317h19.97508l-43.192332-84.8459381s3.93738-6.8748635-9.783387-11.4741851c-13.71246-4.6031806-26.764217-12.9238942-26.764217-22.7393392v-25.83621141z" fill="#fff" fill-rule="evenodd"/></mask><mask id="g" fill="#fff"><path d="m.03154286 11.5341714c0 6.3112 5.1198 11.431 11.43494284 11.431 6.3105429 0 11.4362572-5.1198 11.4362572-11.431 0-6.31908569-5.1257143-11.43954283-11.4362572-11.43954283-6.31514284 0-11.43494284 5.12045714-11.43494284 11.43954283" fill="#fff" fill-rule="evenodd"/></mask><mask id="h" fill="#fff"><path d="m.16547222 11.5341714c0 6.3112 4.98716667 11.431 11.12241668 11.431 6.13525 0 11.1128333-5.1198 11.1128333-11.431 0-6.31908569-4.9775833-11.43954283-11.1128333-11.43954283-6.13525001 0-11.12241668 5.12045714-11.12241668 11.43954283" fill="#fff" fill-rule="evenodd"/></mask><mask id="i" fill="#fff"><path d="m0 .51450473h105.416168v104.48620527h-105.416168z" fill="#fff" fill-rule="evenodd"/></mask><g fill="none" fill-rule="evenodd"><g fill="#281d0a" transform="translate(32 33)"><path d="m98.3406565 5.2252349c-23.4409629-8.91897987-51.1012734-3.75559732-73.6040315 17.3676242-22.50340161 21.1232214-33.75478066 76.0435973-14.0647064 107.9632749 19.6900742 31.919034-9.8453589 37.083061-9.8453589 37.083061s11.2513791 6.10212 18.284054-1.407786c0 0 1.0636849 14.55592-6.5635726 29.102175-9.84471532 18.776698-5.83385769 30.318604 5.1569089 56.328805 5.1569089 12.204886 17.8155951 26.287249 9.8453589 32.389369l51.5697322-22.531651 55.7890799-30.980939-27.191208-22.06196-12.6580428-128.6168053z"/><path d="m18.7876473 9.44962148s18.7531564-8.44928859 37.036567-8.91897987c18.284054-.46904698 46.7255587 13.76923489 59.8520597 42.40365099 13.127145 28.6331275-4.531439 87.6222284-2.187857 97.0096104 2.344225 9.388027 9.845359 11.735195 13.595604 7.510551 0 0-2.812684 11.735194-17.345849 5.164027 0 0-1.875123 7.509906 3.281786 22.061315 5.156909 14.552054 6.086748 31.947383 5.626011 47.880161-.937561 32.388725-34.223883 50.22604-30.9420967 57.266899s8.4386952 3.755598 8.4386952 3.755598-2.344225 6.571812-11.2513791 3.285261c-8.9077975-3.285261-13.1271451-25.816912-13.1271451-25.816912l-63.75931611-.938739-7.50113387-30.980939z" mask="url(#e)" transform="translate(49.548538)"/></g><path d="m103.60639.46115419h-.032588-16.6447285v25.83621141c0 9.815445-8.5904154 14.4906608-22.3022364 19.0944846-13.7214058 4.5986784-15.457508 13.14-15.457508 13.14l-48.98977638 86.8249778h22.89137378l32.6166134-49.4380439s17.7821087 8.3072069 26.4792333 49.4380439h43.6255588c9.603195-40.673542 28.706071-48.536317 28.706071-48.536317l25.51821 48.536317h19.97508l-43.192332-84.8459381s3.93738-6.8748635-9.783387-11.4741851c-13.71246-4.6031806-26.764217-12.9238942-26.764217-22.7393392v-25.83621141z" fill="url(#a)" mask="url(#f)" transform="translate(16 185)"/><g transform="translate(59 58)"><path d="m120.738691 53.4614055c0 47.9187535-16.990202 87.0452875-60.6737761 87.0452875-43.6797128 0-59.83643086-39.59589-59.83643086-87.5146437 0-47.92776711 16.89430316-52.88852053 60.57337236-52.88852053 43.6835746 0 59.9368346 5.43010959 59.9368346 53.35787673" fill="#caaa6e"/><path d="m44.5068894 81.3355603c0 6.5812876-5.3986596 11.9199726-12.0485107 11.9199726-6.655 0-12.0427181-5.338685-12.0427181-11.9199726 0-6.5819315 5.3877181-11.9180411 12.0427181-11.9180411 6.6498511 0 12.0485107 5.3361096 12.0485107 11.9180411" fill="#c88e2f"/><path d="m41.4078734 81.3330493c0 4.5924795-3.7278298 8.3235069-8.3161755 8.3235069-4.5941383 0-8.3155319-3.7310274-8.3155319-8.3235069 0-4.5853972 3.7213936-8.3164246 8.3155319-8.3164246 4.5883457 0 8.3161755 3.7310274 8.3161755 8.3164246" fill="#3e2c09"/><path d="m29.5877181 77.0223767c0 1.3269452-1.0799894 2.4118082-2.403266 2.4118082-1.3290691 0-2.4084149-1.084863-2.4084149-2.4118082s1.0793458-2.400863 2.4084149-2.400863c1.3232766 0 2.403266 1.0739178 2.403266 2.400863" fill="#fff"/><path d="m33.9663734 110.536403c8.2428032 4.998739 17.0661489 8.085931 26.0098511 7.970041 8.9964787 0 17.6157978-3.481219 26.1868457-7.970041-3.1485745 3.712356-7.0855798 6.790534-11.5503511 9.008548-4.4564042 2.252781-9.5023617 3.481863-14.5927287 3.561108-5.0852181.00896-10.1665744-1.126766-14.6538723-3.344136-4.4827926-2.182602-8.5311436-5.260137-11.3997447-9.22552" fill="#3e2c09"/></g><path d="m.03154286 11.5341714c0 6.3112 5.1198 11.431 11.43494284 11.431 6.3105429 0 11.4362572-5.1198 11.4362572-11.431 0-6.31908569-5.1257143-11.43954283-11.4362572-11.43954283-6.31514284 0-11.43494284 5.12045714-11.43494284 11.43954283" fill="url(#c)" mask="url(#g)" transform="translate(69 149)"/><path d="m.16547222 11.5341714c0 6.3112 4.98716667 11.431 11.12241668 11.431 6.13525 0 11.1128333-5.1198 11.1128333-11.431 0-6.31908569-4.9775833-11.43954283-11.1128333-11.43954283-6.13525001 0-11.12241668 5.12045714-11.12241668 11.43954283" fill="url(#d)" mask="url(#h)" transform="translate(141 149)"/><g transform="translate(6 127)"><path d="m128.864266 12.3758364c0 6.5446333 5.36931 11.8535846 11.982369 11.8535846 6.61946 0 11.977887-5.3089513 11.977887-11.8535846 0-6.54527363-5.358427-11.8516639-11.977887-11.8516639-6.613059 0-11.982369 5.30639027-11.982369 11.8516639" fill="#c88e2f"/><path d="m131.94637 12.3733394c0 4.5669018 3.706923 8.2771493 8.270965 8.2771493 4.568522 0 8.270324-3.7102475 8.270324-8.2771493 0-4.559859-3.701802-8.27010654-8.270324-8.27010654-4.564042 0-8.270965 3.71024754-8.270965 8.27010654" fill="#3e2c09"/><path d="m132.414552 8.08667498c0 1.31955482 1.073478 2.39837572 2.389561 2.39837572 1.321843 0 2.395961-1.0788209 2.395961-2.39837572s-1.074118-2.38749147-2.395961-2.38749147c-1.316083 0-2.389561 1.06793665-2.389561 2.38749147" fill="#fff"/><path d="m92.3578245 92.4083407s1.4063392 20.5750673 20.5202625 20.0577453c17.255021-.466102 20.519622-19.5910032 20.519622-19.5910032" stroke="#231c1e" stroke-linecap="round"/><path d="m14.630985 197.3618 45.7645958-43.616377c6.146413 8.490353 14.2547876 31.355593 16.4599941 49.213441h70.6543041c3.123776-14.483731 3.834307-52.864785 3.834307-52.864785l33.326463 52.864785h30.206528l-55.98536-97.022813-18.032124-8.7067574s-3.109693 32.9626204-26.738369 34.8283084c-28.5415809 2.253679-28.6036724-34.8283084-28.6036724-34.8283084s-25.4939793 14.9261434-27.3592832 15.5484664c-1.8659439.621042-50.9892389 89.559421-50.9892389 89.559421 15.5452655-3.732016 7.4618555-4.975381 7.4618555-4.975381" fill="#fef3f7"/><path d="m39.2324478 105.00071 23.278531-37.3163192s7.1872448 24.5305305 9.7067492 37.3163192h32.471906l.726534-64.6818758c-24.8724252-1.8656879-27.3599238-39.80432947-27.3599238-39.80432947s-19.8980678 8.08507436-20.2091651 9.3290797c-.5850679 2.34139347-39.3518938 65.23249017-57.84746317 95.15712557z" fill="#687167" mask="url(#i)" transform="translate(0 97.958218)"/><path d="m152.018166 202.958928c1.707194-12.718563 6.56313-37.005798 6.56313-37.005798l23.024404 37.005798h35.347315c-17.725507-33.232166-50.766478-95.370969-51.220961-97.645136l-19.275873-6.8410693s-2.487499 37.9386413-27.360564 39.8043293l.727174 64.681876z" fill="#687167"/><path d="m127.869394 202.958928-.839834-57.95093c3.117374-.89891 24.90315-8.359741 27.50843-41.367819.021124-.25674-.170911-.481468-.428239-.501316-.231082-.018567-.480728.170947-.501212.428327-2.736504 34.670807-26.910561 40.57455-27.153165 40.630252l-.369348.083873.850076 58.677613z" fill="#fff"/><path d="m138.669465 202.958928-2.317867-62.211792-.932652.034573 2.316587 62.177219z" fill="#fef3f7"/><path d="m97.0158991 145.008254-.8391947 57.95093h.9326519l.8507169-58.678894-.3693481-.083232c-.243885-.055702-24.4141003-5.923591-27.1538053-40.630252-.0198437-.25674-.2650089-.444973-.5005723-.428327-.2573274.020488-.4493628.244575-.4282389.501956 2.6052802 33.007438 24.391056 40.468909 27.5077905 41.367819" fill="#fff"/><path d="m88.7827655 140.781581-.9326519-.034573-2.3185074 62.211792h.9345723z" fill="#fef3f7"/></g><g transform="translate(30 45)"><path d="m82.2563781 180.516015c-.5349218 0-.9692656-.433608-.9692656-.969052" fill="#fffeef"/><path d="m98.6226172 177.88651c0-.535444-.4343438-.969051-.9699063-.969051s-.9692656.433607-.9692656.969051" fill="#caaa6e"/><path d="m88.9141375 211.804012c3.7175469 0 4.9347344-2.470985 4.9129531-5.235952-.0243437-3.051262-2.911-7.165087-3.9430469-9.888423-.814875-2.14754-.9699062-3.296568-.9699062-3.296568s-.0787969.846079-.8725312 3.005789c-1.1102032 3.019239-4.2159532 7.580761-4.0263282 10.753076.1479844 2.474187 1.4426875 4.662078 4.8988594 4.662078" fill="#542f82"/><path d="m90.0223547 193.383198c0 .612302-.4958438 1.108036-1.1082813 1.108036s-1.1082812-.495734-1.1082812-1.108036c0-.612303.4958437-1.108037 1.1082812-1.108037s1.1082813.495734 1.1082813 1.108037" fill="#542f82"/><path d="m90.0223547 193.383198c0 .612302-.4958438 1.108036-1.1082813 1.108036s-1.1082812-.495734-1.1082812-1.108036c0-.612303.4958437-1.108037 1.1082812-1.108037s1.1082813.495734 1.1082813 1.108037z" stroke="#231f20"/><path d="m89.4390016 199.041228c-1.3472344 1.346936-3.5586719 7.174054-2.5669844 9.56626.9916875 2.390924 3.6169687 2.274356 4.4920625 1.74916.8757344-.524556 2.0423125-2.041861 1.4587031-5.132834-.5829687-3.091613-2.2172031-5.540822-2.5669844-5.94945-.3497812-.407988-.4670156-.583481-.8167968-.233136" fill="#6f2c87"/><path d="m87.1054609 208.840495c0 .482925-.3920625.87426-.8750937.87426-.4836719 0-.8750938-.391335-.8750938-.87426 0-.483564.3914219-.8749.8750938-.8749.4830312 0 .8750937.391336.8750937.8749" fill="#fff"/><path d="m88.5828703 209.948852c0 .279251-.2267812.504701-.5054531.504701-.2793125 0-.5054531-.22545-.5054531-.504701 0-.279891.2261406-.505341.5054531-.505341.2786719 0 .5054531.22545.5054531.505341" fill="#fff"/><path d="m98.8331906 202.943565c2.5202184 0 3.3459844-1.674864 3.3312504-3.550199-.016657-2.068121-1.973766-4.858067-2.6739691-6.704581-.5522188-1.455818-.6572813-2.234646-.6572813-2.234646s-.0531718.573873-.5919375 2.038018c-.7527343 2.046985-2.8578281 5.139239-2.7297031 7.289982.1005781 1.678707.9782344 3.161426 3.3216406 3.161426" fill="#542f82"/><path d="m99.5845156 190.454139c0 .415033-.3363281.751287-.7514531.751287s-.7514531-.336254-.7514531-.751287c0-.414393.3363281-.751287.7514531-.751287s.7514531.336894.7514531.751287" fill="#542f82"/><path d="m99.5845156 190.454139c0 .415033-.3363281.751287-.7514531.751287s-.7514531-.336254-.7514531-.751287c0-.414393.3363281-.751287.7514531-.751287s.7514531.336894.7514531.751287z" stroke="#231f20"/><path d="m99.1891219 194.290186c-.9135313.913329-2.4132344 4.864471-1.7405781 6.486175.6726562 1.621064 2.4523125 1.542284 3.0461722 1.186176.593218-.355469 1.38439-1.384085.988484-3.480387-.395266-2.096302-1.5029062-3.756435-1.7405781-4.033765-.2370313-.276688-.3164688-.395178-.5535-.158199" fill="#6f2c87"/><path d="m97.60665 200.934561c0 .327287-.2658594.593087-.5932187.593087-.3273594 0-.5932188-.2658-.5932188-.593087 0-.327928.2658594-.593728.5932188-.593728.3273593 0 .5932187.2658.5932187.593728" fill="#fff"/><path d="m98.6085875 201.68572c0 .188942-.15375.342658-.3427344.342658-.189625 0-.3427343-.153716-.3427343-.342658 0-.188943.1531093-.342659.3427343-.342659.1889844 0 .3427344.153716.3427344.342659" fill="#fff"/><path d="m79.1136 203.468313c2.5208594 0 3.3459844-1.674864 3.33125-3.549559-.0166562-2.068761-1.9737656-4.858707-2.6739687-6.70458-.5522188-1.455819-.6572813-2.235287-.6572813-2.235287s-.0531719.573873-.5919375 2.038018c-.7527344 2.046985-2.8578281 5.139879-2.7297031 7.289982.1005781 1.678707.978875 3.161426 3.3216406 3.161426" fill="#542f82"/><path d="m79.8653094 190.978887c0 .415033-.3363281.751928-.7514531.751928s-.7520938-.336895-.7520938-.751928c0-.414393.3369688-.751287.7520938-.751287s.7514531.336894.7514531.751287" fill="#542f82"/><path d="m79.8653094 190.978887c0 .415033-.3363281.751928-.7514531.751928s-.7520938-.336895-.7520938-.751928c0-.414393.3369688-.751287.7520938-.751287s.7514531.336894.7514531.751287z" stroke="#231f20"/><path d="m79.4695953 194.814934c-.9128906.913329-2.4132344 4.865112-1.7405781 6.486175.6726562 1.621064 2.4523125 1.542284 3.0461719 1.186176.5932187-.355469 1.3843906-1.384085.989125-3.479747-.3959063-2.096302-1.5035469-3.757075-1.7412188-4.034404-.2370312-.276689-.3158281-.395179-.5535-.1582" fill="#6f2c87"/><path d="m77.8874438 201.459309c0 .327927-.2658594.593087-.5932188.593087-.328 0-.5938594-.26516-.5938594-.593087 0-.327928.2658594-.593728.5938594-.593728.3273594 0 .5932188.2658.5932188.593728" fill="#fff"/><path d="m78.8889969 202.210532c0 .189583-.1531094.342658-.3427344.342658-.1889844 0-.3427344-.153075-.3427344-.342658 0-.188943.15375-.342018.3427344-.342018.189625 0 .3427344.153075.3427344.342018" fill="#fff"/><path d="m72.4051672 191.994694c1.4612656 0 1.9391719-.970973 1.9308437-2.057873-.0089687-1.198985-1.1435156-2.815565-1.5496718-3.885813-.3203125-.844798-.3811719-1.295698-.3811719-1.295698s-.03075.332411-.3427344 1.181051c-.4362656 1.186816-1.6572969 2.978889-1.5823437 4.22655.0576562.971613.5669531 1.831783 1.9250781 1.831783" fill="#542f82"/><path d="m72.6116406 186.979004c-.5291562.52904-1.399125 2.819408-1.0089843 3.758997.3901406.94023 1.4215468.894755 1.7655625.687879.3440156-.206235.8027031-.802525.5733593-2.016882-.2293437-1.215637-.87125-2.177643-1.0089843-2.338405-.1377344-.16012-.1832188-.229293-.3209532-.091589" fill="#6f2c87"/><path d="m71.6945219 190.830039c0 .190223-.15375.343939-.3440156.343939-.189625 0-.3440157-.153716-.3440157-.343939 0-.190224.1543907-.34394.3440157-.34394.1902656 0 .3440156.153716.3440156.34394" fill="#fff"/><path d="m72.2750563 191.265375c0 .110163-.0890469.199191-.1985938.199191s-.1985937-.089028-.1985937-.199191c0-.109522.0890468-.19855.1985937-.19855s.1985938.089028.1985938.19855" fill="#fff"/><path d="m105.309781 191.994694c1.461266 0 1.939172-.970973 1.930844-2.057873-.008969-1.198985-1.143516-2.815565-1.549672-3.885813-.320312-.844798-.381172-1.295698-.381172-1.295698s-.03075.332411-.342734 1.181051c-.436266 1.186816-1.657297 2.978889-1.582344 4.22655.057656.971613.566953 1.831783 1.925078 1.831783" fill="#542f82"/><path d="m105.516255 186.979004c-.529157.52904-1.398485 2.819408-1.008985 3.758997.390141.94023 1.421547.894755 1.765563.687879.344015-.206235.802703-.802525.573359-2.016882-.229344-1.215637-.87125-2.177643-1.008984-2.338405-.137735-.16012-.183219-.229293-.320953-.091589" fill="#6f2c87"/><path d="m104.599072 190.830039c0 .190223-.15375.343939-.344016.343939-.189625 0-.344015-.153716-.344015-.343939 0-.190224.15439-.34394.344015-.34394.190266 0 .344016.153716.344016.34394" fill="#fff"/><path d="m105.17967 191.265375c0 .110163-.089047.199191-.198593.199191-.109547 0-.198594-.089028-.198594-.199191 0-.109522.089047-.19855.198594-.19855.109546 0 .198593.089028.198593.19855" fill="#fff"/><g fill="#3a2c1c"><path d="m111.20052 46.873264s7.467766-1.8663685 13.535125 3.2664653c6.06736 5.1321934 8.401157 21.4645196-2.333797 24.2640725 0 0 16.802313 2.7995529 18.513422-16.6429607 1.692532-19.2228278-27.380953-22.5533414-29.71475-10.8875771"/><path d="m106.216586 13.1158828 4.978297 33.7528338s10.267937-2.7995529 18.669734.4669124c8.400516 3.2658248 16.321844 10.0767251 6.222391 35.463565-6.202531 15.5925679-15.893906 51.058695-5.289 71.705317 8.867531 17.26487 29.559719 6.687928 29.559719 6.687928s-21.158563 5.911021-19.291782-11.35449c1.866782-17.26487 44.805953-100.325317 6.845078-132.9886886-19.888843-17.11435647-41.694437-3.7333776-41.694437-3.7333776"/><path d="m108.555444 13.7119807 2.64514 33.1309244s-9.801562-12.1326767-24.7370934-2.8001933c-14.9348906 9.3331238-8.4011562 30.642006-41.0723906 35.3079275 0 0-1.8667812 31.2645557-20.535875 34.0641087-18.66909375 2.799553-24.73709375-6.066018-24.73709375-6.066018s7.93478125 6.066018 18.20271875-5.132834c10.2679375-11.1994924-2.3337969-57.3956374 19.1361094-84.9261752 21.4692656-27.5311782 67.3649216-15.70977639 71.0984846-3.5777401"/></g><path d="m111.20052 46.8426489c-1.106359-4.6383806-4.385718-8.4306827-8.390265-10.6128096-1.993625-1.1330151-4.1743128-1.9112024-6.4113753-2.429994-2.2370625-.5251964-4.5324219-.8217402-6.8437969-.9190936-4.6253125-.174852-9.2909844.1248942-13.627375 1.4872024-2.16275.6705861-4.2454219 1.5653414-6.1519219 2.7406284-1.8904843 1.1932205-3.6291406 2.622139-5.0878437 4.3098127-3.0000469 3.3215468-4.8552969 7.5788398-5.8367344 12.0154682-.2492031 1.1112387-.4394687 2.2397704-.5784844 3.3779094-.138375 1.1029124-.2248593 2.37171-.4420312 3.5770997-.3773281 2.4331964-1.107 4.8183565-2.1358438 7.0683746-2.0314218 4.4910695-5.6278906 8.4165922-10.2205312 10.3066586-2.2844688.9242176-4.7515156 1.3783203-7.1756406 1.2386949-1.2101407-.0698127-2.4074688-.2529909-3.5676407-.5597825-1.1556875-.3266465-2.2716562-.7583323-3.3415-1.269438 2.2421875.7781873 4.5945625 1.1746465 6.9129844 1.0740906 2.3165-.0941511 4.5849531-.6769909 6.6176563-1.7024048 4.1070468-2.0316133 7.1051718-5.7745982 8.8085937-9.9447855.8552344-2.0995046 1.4010469-4.318139 1.7059844-6.5726405.1723281-1.1323746.2139687-2.2340061.3324844-3.4855106.1133906-1.2181994.2825156-2.4331964.517625-3.6405075.9321093-4.8138732 2.9808281-9.5483263 6.3069531-13.3297402 1.6412812-1.9003142 3.6304219-3.4842296 5.7521719-4.800423 2.1435312-1.2880121 4.453625-2.2705136 6.8284218-2.9558308 4.7739375-1.3193958 9.7227657-1.5755891 14.5345-1.1266103 4.8110938.4304049 9.7086719 1.6556496 13.8272501 4.3597704 4.083344 2.6612085 7.194859 7.0209789 7.666359 11.793861" fill="#745b45"/><path d="m114.156236 45.4428085c1.77325-2.1385741 4.180719-3.7224895 6.761156-4.8286043 2.596453-1.1016314 5.420969-1.6646163 8.253172-1.7767009 2.834125-.0903081 5.680422.2068762 8.456891.9748157 2.763656.7801088 5.429297 2.1033475 7.673406 4.0119879 2.258203 1.890707 4.009672 4.4014019 5.076953 7.1516375 1.093547 2.7521571 1.486891 5.7099094 1.462547 8.6042538-.075594 2.8988278-.550938 5.7534622-1.319047 8.4979335-.361312 1.3763988-.846266 2.736145-1.278687 4.0260786l-1.338266 3.9133534c-3.569563 10.4373173-7.026375 20.9130635-10.276906 31.4438913-1.597078 5.272459-3.167891 10.555807-4.504235 15.893595-.680343 2.666973-1.28189 5.351239-1.757234 8.056641-.233188 1.352701-.417688 2.713728-.508656 4.08116-.066625 1.355903-.130688 2.770731.412562 4.053619-.672656-1.229728-.755297-2.683625-.823203-4.060665-.03075-1.394332.049328-2.786743.170406-4.172108.249203-2.771372.704688-5.513281 1.196688-8.244302 1.036531-5.451795 2.321625-10.846587 3.750219-16.197185 2.837328-10.7088819 6.176265-21.2646885 9.702265-31.750042.846906-2.6214985 1.877031-5.2494018 2.606063-7.7831541.742484-2.5664169 1.195406-5.1994441 1.286375-7.8222236.07239-2.6157341-.209485-5.2455589-1.107-7.6608217-.876375-2.4191058-2.328032-4.6037946-4.227485-6.3555166-1.898812-1.756846-4.242859-3.0487009-6.757312-3.8794079-2.505485-.8486405-5.199953-1.2924955-7.886735-1.3610272-2.687421-.0826223-5.400468.2593958-7.977703 1.1118792-1.290218.4169547-2.543922.9658489-3.73164 1.6415589-1.187719.673148-2.333797 1.4538973-3.314594 2.4293535" fill="#745b45"/><path d="m112.911886 37.3542079c-.340813-2.6855469-1.007063-5.3128097-1.877672-7.8491239-.887266-2.5305499-1.993625-4.9759154-3.406844-7.2214502-1.423468-2.2314441-3.08589-4.3053293-5.072468-6.0038912-1.984657-1.6953595-4.2217192-3.0640725-6.6253442-4.0331239-2.4113125-.9562417-4.9750937-1.4968096-7.5715469-1.7248217-2.6143906-.2427432-5.2441562-.213281-7.8169062.1492326-5.1416563.7250272-10.0507656 2.754719-14.0815781 6.0032508-4.0250469 3.2466102-7.2365 7.4962175-9.5446719 12.2050513-2.3549375 4.6985861-3.8424688 9.8346224-4.7188438 15.0667311-.2280625 1.3193958-.3677187 2.6086889-.5451718 3.9729185-.1716875 1.3776797-.3850157 2.7553595-.7386407 4.1106223-.6771406 2.7021994-1.7706875 5.3858248-3.5951875 7.5974139-1.8059218 2.2192749-4.4529843 3.7256919-7.2127968 4.1592991-2.7617344.4476979-5.5683125.0557221-8.092375-.9229365 2.6118281.6853172 5.38125.7756253 7.9277343.1383444 2.5509688-.6327976 4.7931563-2.1456194 6.2653125-4.2457644 1.5163594-2.0713232 2.3837657-4.5768942 2.8687188-7.1401087.2620156-1.2790454.4196094-2.5875529.5246719-3.8999034.1165937-1.3251601.2107656-2.7310211.3882187-4.0882054.6732969-5.4671662 2.1454531-10.8741269 4.5132031-15.921136 2.4209219-5.0047371 5.7886875-9.6757824 10.2288594-13.2074078 4.4427344-3.4976798 9.8835625-5.7861269 15.4909531-6.38049548 2.7976094-.32216314 5.6176407-.27989124 8.3832188.04739577 2.7822344.34009668 5.5458906 1.0330997 8.1301719 2.16931721 2.5817187 1.1407009 4.9571564 2.7367855 6.9808904 4.6748882 2.024375 1.9381028 3.70025 4.204133 5.016094 6.631565 1.306234 2.4351178 2.309453 5.0092205 2.989797 7.6556979.696359 2.6400725 1.115969 5.3480362 1.192203 8.0566405" fill="#745b45"/></g></g></svg>