<svg height="330" viewBox="0 0 230 330" width="230" xmlns="http://www.w3.org/2000/svg" xmlns:xlink="http://www.w3.org/1999/xlink"><linearGradient id="a"><stop offset="0" stop-color="#f0c3a8"/><stop offset="1" stop-color="#f6e2cf"/></linearGradient><radialGradient id="b" cx="49.999746%" cy="49.999548%" r="49.999324%" xlink:href="#a"/><radialGradient id="c" cx="49.999312%" cy="49.999548%" r="49.999324%" xlink:href="#a"/><mask id="d" fill="#fff"><path d="m.33731579 12.9425263c0 6.9987895 5.6878421 12.6756842 12.68457891 12.6756842 6.9981053 0 12.6756842-5.6768947 12.6756842-12.6756842 0-7.00699998-5.6775789-12.68457893-12.6756842-12.68457893-6.99673681 0-12.68457891 5.67757895-12.68457891 12.68457893" fill="#fff" fill-rule="evenodd"/></mask><mask id="e" fill="#fff"><path d="m.19568421 12.9425263c0 6.9987895 5.68784211 12.6756842 12.68526319 12.6756842 6.997421 0 12.675-5.6768947 12.675-12.6756842 0-7.00699998-5.677579-12.68457893-12.675-12.68457893-6.99742108 0-12.68526319 5.67757895-12.68526319 12.68457893" fill="#fff" fill-rule="evenodd"/></mask><mask id="f" fill="#fff"><path d="m0 .58753791h75.5252664v102.98169309h-75.5252664z" fill="#fff" fill-rule="evenodd"/></mask><mask id="g" fill="#fff"><path d="m.01457112.58753791h75.52560218v102.98169309h-75.52560218z" fill="#fff" fill-rule="evenodd"/></mask><g fill="none" fill-rule="evenodd" transform="translate(30 24)"><g transform="translate(27 119)"><path d="m65.409554 40.7819962c-30.67796-1.0054407-51.45265 10.1264171-51.45265 10.1264171l-10.54245-31.3920948-2.96877-19.09260665 132.98964 12.92940285-15.52993 37.5552986s-13.22446-8.8389953-52.49584-10.1264171" fill="#18181c"/><path d="m123.412325 99.9896701s-1.01773-2.222199-15.57683-7.3469857c-14.55106-5.1301707-25.33404-12.1332607-25.33404-23.0699526v-28.7903318h-33.47253v28.7903318c0 10.9366919-10.78231 17.9397819-25.3327 23.0699526-14.56044 5.1247867-15.57683 7.3469857-15.57683 7.3469857l11.6178 41.4384269h92.05666z" fill="#efd6c2"/></g><g transform="translate(9 18)"><path d="m154.549692 59.3437458c0 53.3351772-23.727331 97.0405232-69.7310159 97.0405232-45.9996454 0-71.5449044-44.17099-71.5449044-97.5054952 0-53.345271 26.3215817-58.7674766 72.3205538-58.7674766 46.0036855 0 68.9553665 5.88717757 68.9553665 59.2324486" fill="#f7e2d0"/><path d="m143.083749 199.01594c-5.784378-3.211065-24.587817-11.789832-24.587817-11.789832-3.635183 7.589608-27.3618404 14.373757-27.3618404 14.373757l-6.6010996 17.288748-.0100996-.02557-.0094263.02557-6.6010996-17.288748s-23.7266573-6.784149-27.3625139-14.373757c0 0-18.802765 8.578767-24.5871434 11.789832-3.6782749 2.042243-25.31094824 63.866692-25.31094824 63.866692l20.43755374 12.156561 16.1660957-33.367627 9.3757968 46.328299h35.3028207 1.6011235.1878526.7998884.7998885.1885259 1.6004502 35.302821l9.37647-46.328299 16.165422 33.367627 20.438227-12.156561s-21.632673-61.824449-25.310948-63.866692" fill="#f05a24"/><g fill="#cd4d1f"><path d="m80.3794299 208.065869-.3959044-1.036934c-14.661255-1.073944-27.6513626-7.278729-36.5114064-16.531066-.3137609.145346-.6329083.294056-.9567689.445458 9.1280199 9.664823 22.6258008 16.121944 37.8640797 17.122542"/><path d="m126.531175 190.943125c-.32386-.151402-.643008-.299439-.956769-.445458-8.860043 9.252337-21.850151 15.458468-36.511406 16.531066l-.3959044 1.036934c15.2382794-1.000598 28.7353864-7.458392 37.8640794-17.122542"/></g></g><path d="m.33731579 12.9425263c0 6.9987895 5.6878421 12.6756842 12.68457891 12.6756842 6.9981053 0 12.6756842-5.6768947 12.6756842-12.6756842 0-7.00699998-5.6775789-12.68457893-12.6756842-12.68457893-6.99673681 0-12.68457891 5.67757895-12.68457891 12.68457893" fill="url(#b)" mask="url(#d)" transform="translate(120 119)"/><path d="m.19568421 12.9425263c0 6.9987895 5.68784211 12.6756842 12.68526319 12.6756842 6.997421 0 12.675-5.6768947 12.675-12.6756842 0-7.00699998-5.677579-12.68457893-12.675-12.68457893-6.99742108 0-12.68526319 5.67757895-12.68526319 12.68457893" fill="url(#c)" mask="url(#e)" transform="translate(41 119)"/><path d="m178.489897 101.567385c0-47.4320171-19.027061-101.06742808-85.9266277-101.06742808-66.9002383 0-85.92729962 53.63541098-85.92729962 101.06742808 0 26.987855 14.19307582 72.996805 34.21124192 67.67106-5.9338701-18.736616-8.1510975-45.394932-8.1510975-62.200049 0-47.4326896 26.8034729-51.9735951 59.8671552-51.9735951 33.0630107 0 59.8664837 4.5409055 59.8664837 51.9735951 0 16.805117-2.216556 43.463433-8.150426 62.200049" fill="#302d2e"/><g fill="#2d2d31"><path d="m20.614709 74.2026462s26.7054368 14.1634285 70.8203394 14.1634285 81.2376826-14.1634285 81.2376826-14.1634285l-55.636831-26.6926154h-54.9989238l-35.7831769 7.0817143"/><path d="m7.37265054 85.6894826s-6.37100361 47.6317584 17.20130686 92.1295384c0 0 9.2133791-6.004325 15.4803032-8.580778 0 0-8.4807942-31.015622-8.4458772-66.342818z"/><path d="m177.705676 85.6894826s6.371003 47.6317584-17.200636 92.1295384c0 0-9.21405-6.004325-15.480303-8.580778 0 0 8.480123-31.015622 8.445877-66.342818z"/></g><path d="m75.5252664 103.569231c-4.954852-73.4400002-9.0072346-106.80610573-15.4930613-102.63441781-10.6725055 6.86381538-29.8083466 11.72820661-29.8083466 11.72820661l-30.2239928 90.9062112h26.175639l14.8014368-34.4636706 7.2432563 34.4636706z" fill="#200" mask="url(#f)" transform="translate(0 202.430769)"/><path d="m40.8423769 271.527721c.0644621-4.965943.0161155-9.932558-.2074874-14.88505-.1826426-4.95182-.5156967-9.895569-1.096527-14.793587-.2994802-2.448-.6681228-4.883222-1.1515885-7.284818-.4673502-2.404285-.9548448-4.788395-1.5155307-7.141569-.271278-1.178268-.5935884-2.340395-.9582021-3.481675-.3478268-1.148677-.78026-2.261037-1.2610398-3.344479-.9917761-2.135947-2.2897472-4.188501-4.4713862-5.375512l.0866209-.254888c1.2617112.232022 2.4710469.878994 3.4749097 1.729741 1.0018484.860163 1.8492564 1.885094 2.5596824 2.977952 1.4342815 2.188404 2.3837545 4.605468 3.1586426 7.033964 1.5269458 4.889275 1.8667148 9.95946 2.2172274 14.944906.3209675 4.998897.3854296 9.993758.3001516 14.977859-.1383249 4.984101-.3733429 9.958115-.8675523 14.91397z" fill="#3d2929"/><path d="m.01457112 103.569231c4.95485198-73.4400002 9.00723466-106.80610573 15.49306138-102.63441781 10.6725054 6.86381538 29.8083466 11.72820661 29.8083466 11.72820661l30.2246642 90.9062112h-26.175639l-14.8014368-34.4636706-7.2432563 34.4636706z" fill="#200" mask="url(#g)" transform="translate(110.122744 202.430769)"/><path d="m144.820204 271.527721c-.064462-4.965943-.015444-9.932558.207488-14.88505.183314-4.95182.515696-9.895569 1.097198-14.793587.298809-2.448.667452-4.883222 1.151589-7.284818.46735-2.404285.954844-4.788395 1.514859-7.141569.271278-1.178268.59426-2.340395.958202-3.481675.348498-1.148677.780931-2.261037 1.26104-3.344479.992447-2.135947 2.289747-4.188501 4.471386-5.375512l-.086621-.254888c-1.26104.232022-2.471047.878994-3.47491 1.729741-1.001177.860163-1.848584 1.885094-2.55901 2.977952-1.434954 2.188404-2.383755 4.605468-3.158643 7.033964-1.526946 4.889275-1.867386 9.95946-2.217227 14.944906-.320968 4.998897-.38543 9.993758-.300824 14.977859.138325 4.984101.374015 9.958115.867553 14.91397z" fill="#3d2929"/><path d="m92.9680375 199.867431c-2.7322527 0-4.9561949 2.227411-4.9561949 4.963925s2.2239422 4.963925 4.9561949 4.963925c2.7322528 0 4.956195-2.227411 4.956195-4.963925s-2.2239422-4.963925-4.956195-4.963925m0 13.290488c-4.5841949 0-8.3135956-3.735218-8.3135956-8.326563s3.7294007-8.326563 8.3135956-8.326563c4.584195 0 8.3135955 3.735218 8.3135955 8.326563s-3.7294005 8.326563-8.3135955 8.326563" fill="#c1bdb7"/><path d="m85.9581206 204.739287c0-3.877793 3.1384982-7.020514 7.0095812-7.020514 3.8717545 0 7.0102527 3.142721 7.0102527 7.020514" stroke="#d5d7d8"/><path d="m99.0486931 207.530545c-1.0421371 1.920739-3.0733646 3.224769-5.409444 3.224769-2.3354079 0-4.3673069-1.30403-5.4087726-3.224769" stroke="#d5d7d8" stroke-linecap="round"/><path d="m89.7424484 201.672831c-3.3016679-.329539-14.9565488-4.191191-16.470065-6.526207 0 0-2.7027076 4.012299-3.5131841 4.504589 0 0 10.3710108 6.731328 18.9800577 6.707182 0 0-.5203971-2.680087 1.0031914-4.685564" fill="#484745"/><path d="m95.8126289 201.672831c3.3016679-.329539 14.9565491-4.191191 16.4700651-6.526207 0 0 2.702707 4.012299 3.513184 4.504589 0 0-10.371011 6.731328-18.9800578 6.707182 0 0 .5203971-2.680087-1.0031913-4.685564" fill="#484745"/><path d="m159.333175 78.6803999-1.641569-5.1297758c-.582298-1.7002277-1.201492-3.3896302-1.800561-5.0844453l-.97072-2.5209106c-.31597-.844363-.603094-1.7002277-.98682-2.5175278-.389764-.8152704-.822462-1.6109201-1.237718-2.4119824-.406535-.8051218-.850637-1.5933292-1.304803-2.3754475-1.751588-3.155536-3.711141-6.2075563-5.911528-9.0640471-1.090131-1.4329814-2.259422-2.8098073-3.499153-4.1081507-1.269248-1.2678976-2.566671-2.5297061-4.084133-3.4681127 2.535812 2.4857288 4.360523 5.5363961 6.05509 8.5904461 1.648278 3.0939679 3.124148 6.2670948 4.377295 9.5376482.680913 1.6055075 1.187404 3.2962632 1.822028 4.9180085.633953 1.6251281 1.369875 3.2143978 1.974982 4.853734l1.753601 4.9538668.932482 2.9112932c-9.731348 2.1230857-19.685417 3.708296-29.617349 4.9173318-10.673891 1.2881948-21.407488 2.0601645-32.1390724 2.2360734-5.364786.0622448-10.7295719.0020298-16.0809408-.2773948-5.346673-.3037813-10.6852958-.7482897-15.9823259-1.4695164-5.2903216-.7496428-10.5524675-1.6826368-15.7253904-2.9593299-4.5993463-1.1616756-9.1248991-2.5682707-13.5451285-4.2407589.2140011-.8132406.4461151-1.6386596.6862793-2.4444579.2126594-.6914575.4326981-1.3808853.6762166-2.0628708.2562647-.6786026.4970997-1.3612647.7204927-2.0506925.7983113-2.7949226 1.7140213-5.5722544 2.7900644-8.2914009.509175-1.3754727 1.1243443-2.700879 1.6845039-4.0614671.6285862-1.3227 1.2095422-2.681935 1.9085677-3.9755424 1.3182198-2.6379577 2.8296445-5.1798421 4.4383423-7.6872213-1.9957782 2.1893899-4.0009483 4.4281697-5.7223489 6.8841293-.9116849 1.1961809-1.7093253 2.4667848-2.5613045 3.7130321-.790932 1.2773696-1.6033311 2.5540627-2.3231529 3.8808221-1.4872741 2.6298389-2.8591619 5.3381602-4.0593122 8.1330829-.5527803 1.4153905-.9371772 2.8903194-1.402747 4.3381855-.4367232 1.4735757-.8378914 2.8997914-1.188075 4.4816189l-.3689674 1.6643693 1.5879015.6305659c5.1340136 2.0398673 10.3954887 3.6866458 15.7200236 5.0309961 5.3325851 1.3166109 10.7315844 2.273285 16.1466841 3.0398421 5.4211373.7388176 10.8664252 1.1921214 16.3137257 1.5006387 5.4486421.2841606 10.9006385.3457287 16.3465973.2821309 10.8919178-.1786153 21.7583428-.9607335 32.5556708-2.2638129 10.810073-1.3193172 21.51147-3.0364592 32.206157-5.4660325l2.12324-.4823965z" fill="#423d3f"/><g transform="translate(41 91)"><path d="m28.9872967 52.1018713c7.1372941 4.3074574 14.7774706 6.9675319 22.5206471 6.8676702 7.7903006 0 15.2534248-2.9998724 22.6748104-6.8676702-2.7257973 3.1982553-6.1355686 5.8509574-10.001098 7.7624042-3.8587974 1.9416064-8.2272091 3.0012128-12.6346667 3.0689535-4.4034183.0079933-8.8034705-.9705173-12.6885228-2.8819641-3.8823595-1.8799468-7.3877255-4.5326489-9.87117-7.9493936" fill="#8c5e50"/><path d="m32.3033582 18.0944043c0 6.0084574-4.9514053 10.8822446-11.0519674 10.8822446-6.1052745 0-11.0479281-4.8737872-11.0479281-10.8822446 0-6.0091277 4.9426536-10.88023409 11.0479281-10.88023409 6.1005621 0 11.0519674 4.87110639 11.0519674 10.88023409" fill="#a17c4c"/><path d="m29.4606255 18.0917904c0 4.1935213-3.4191961 7.5995426-7.628732 7.5995426-4.2142484 0-7.6280589-3.4060213-7.6280589-7.5995426 0-4.1854787 3.4138105-7.5921702 7.6280589-7.5921702 4.2095359 0 7.628732 3.4066915 7.628732 7.5921702" fill="#2a1d01"/><path d="m18.6177549 16.1675426c0 1.2117446-.9909542 2.2016489-2.2047386 2.2016489-1.2191699 0-2.2094509-.9899043-2.2094509-2.2016489 0-1.2117447.990281-2.192266 2.2094509-2.192266 1.2137844 0 2.2047386.9805213 2.2047386 2.192266" fill="#fff"/><path d="m39.1806614 22.4724351s-9.5534183-12.95990425-23.3197385-11.1516702c-13.76497388 1.8095745-15.37729414 8.3039362-15.37729414 8.3039362l.56279738-19.31151067 9.15690196.69232978 34.9843203 7.54860639z" fill="#f7e2d0"/><path d="m37.8822556 20.9657298c-2.3966014-2.1138511-4.8955295-3.9777128-7.5425621-5.5071383-2.6409739-1.5233936-5.4320719-2.7009575-8.336268-3.2672872-1.4494052-.2848405-2.9223726-.4135213-4.4007255-.4081596-1.481719.0113936-2.9587255.2231808-4.4384248.5100319-2.9493007.6474255-5.82656866 1.8370532-8.70720265 3.2498617 2.21281699-2.3175957 4.99920261-4.1378936 8.12555555-5.2772553 1.5739477-.52745747 3.2226209-.90344683 4.9069739-1.0227447 1.6830065-.10857447 3.3828431.00134042 5.0389215.31969149 3.3195621.65010641 6.382634 2.17618081 8.9886013 4.15330851 2.5884641 2.0019255 4.8335948 4.4220638 6.3651308 7.2496915" fill="#2d2825"/><path d="m70.8665582 18.0944043c0 6.0084574 4.9520784 10.8822446 11.0526405 10.8822446 6.1046013 0 11.0472549-4.8737872 11.0472549-10.8822446 0-6.0091277-4.9426536-10.88023409-11.0472549-10.88023409-6.1005621 0-11.0526405 4.87110639-11.0526405 10.88023409" fill="#a17c4c"/><path d="m73.7092235 18.0917904c0 4.1935213 3.4191961 7.5995426 7.6287321 7.5995426 4.2142483 0 7.628732-3.4060213 7.628732-7.5995426 0-4.1854787-3.4144837-7.5921702-7.628732-7.5921702-4.209536 0-7.6287321 3.4066915-7.6287321 7.5921702" fill="#2a1d01"/><path d="m73.7815928 16.1675426c0 1.2117446.9902811 2.2016489 2.2040654 2.2016489 1.2191699 0 2.2101242-.9899043 2.2101242-2.2016489 0-1.2117447-.9909543-2.192266-2.2101242-2.192266-1.2137843 0-2.2040654.9805213-2.2040654 2.192266" fill="#fff"/><path d="m63.9892549 22.4724351s9.5540915-12.95990425 23.3197386-11.1516702c13.7649735 1.8095745 15.3779675 8.3039362 15.3779675 8.3039362l-.563471-19.31151067-9.1569018.69232978-34.9843202 7.54860639z" fill="#f7e2d0"/><path d="m65.288334 20.9657298c1.5308627-2.8276277 3.7759935-5.247766 6.3651307-7.2496915 2.6052941-1.9771277 5.6690392-3.5032021 8.9879281-4.15330851 1.6560784-.31835107 3.355915-.42826596 5.0389216-.31969149 1.6843529.11929787 3.3330261.49528723 4.9069738 1.0227447 3.126353 1.1393617 5.9127386 2.9596596 8.1255556 5.2772553-2.880634-1.4128085-5.757902-2.6024362-8.7072026-3.2498617-1.4796994-.2868511-2.9567059-.4986383-4.4384249-.5100319-1.4783529-.0053617-2.9513202.1233191-4.4007255.4081596-2.9035228.5663297-5.6946209 1.7438936-8.3362679 3.2672872-2.6470327 1.5294255-5.1459608 3.3932872-7.5418889 5.5071383" fill="#2d2825"/></g></g></svg>