<svg height="330" viewBox="0 0 230 330" width="230" xmlns="http://www.w3.org/2000/svg" xmlns:xlink="http://www.w3.org/1999/xlink"><mask id="a" fill="#fff"><path d="m.63384471.39296372h221.93091129v143.23029228h-221.93091129z" fill="#fff" fill-rule="evenodd"/></mask><mask id="b" fill="#fff"><path d="m.25266552.41239073h94.36042328v98.18505297h-94.36042328z" fill="#fff" fill-rule="evenodd"/></mask><g fill="none" fill-rule="evenodd" transform="translate(1 43)"><path d="m97.6508579 203.564095s-14.2023524-3.426103-20.829985-9.500329c-6.6276327-6.074226-9.7839307-9.968027-3.1562981-13.705712 6.6282918-3.738335 29.1936142-9.344863 37.7154212-9.344863s32.981304-.623164 39.135723 6.69674c6.154418 7.320554 6.559089 22.808594-2.48009 25.031951-9.039838 2.224007-50.3847711.822213-50.3847711.822213" fill="#b34218"/><g transform="translate(3 5)"><path d="m178.135286 63.8082056s-7.935521-5.6727907-22.934238-10.6674698c-14.98888-4.9992698-25.320994-14.0344186-25.320994-24.692707v-28.05506508h-18.049883-.461741-18.0492265v28.05506508c0 10.6582884-10.3321147 19.6934372-25.32165 24.692707-14.9987176 4.9946791-22.9342382 10.6674698-22.9342382 10.6674698l-44.42947059 79.8151814h30.32537649l28.8588235-38.594651s6.2886 11.234749 11.2214912 38.594651h40.3288941.461741 40.328894c4.933547-27.359902 11.222147-38.594651 11.222147-38.594651l28.858824 38.594651h30.32472z" fill="#e5cc9a" mask="url(#a)" transform="translate(0 138.376744)"/><path d="m180.409689 57.8232474c0 51.9811256-23.11395 94.5775536-67.927112 94.5775536-44.8092261 0-69.6934026-43.049595-69.6934026-95.0300652 0-51.99161859 25.6404088-57.27616743 70.4496356-57.27616743 44.812506 0 67.170879 5.7383721 67.170879 57.72867903" fill="#f4d9a3"/><path d="m94.7863468 88.2129447c0 7.1391906-5.8589971 12.9306833-13.0756706 12.9306833-7.2225765 0-13.0697677-5.7914927-13.0697677-12.9306833 0-7.1398466 5.8471912-12.9280605 13.0697677-12.9280605 7.2166735 0 13.0756706 5.7882139 13.0756706 12.9280605" fill="#8f6240"/><path d="m91.4229821 88.2097312c0 4.9822186-4.0448265 9.0299023-9.0249412 9.0299023-4.9853618 0-9.0249412-4.0476837-9.0249412-9.0299023 0-4.9736931 4.0395794-9.0213768 9.0249412-9.0213768 4.9801147 0 9.0249412 4.0476837 9.0249412 9.0213768" fill="#2a1d01"/><path d="m78.5951694 83.5344991c0 1.4388558-1.1720618 2.6160418-2.6084441 2.6160418-1.4416294 0-2.6136912-1.177186-2.6136912-2.6160418s1.1720618-2.6048931 2.6136912-2.6048931c1.4363823 0 2.6084441 1.1660373 2.6084441 2.6048931" fill="#fff"/><path d="m86.4980926 120.648191c7.94995 4.818921 16.4613354 7.795005 25.0868444 7.684172 8.677323 0 16.990632-3.357111 25.258029-7.684172-3.036735 3.578777-6.834294 6.546335-11.140817 8.684944-4.297998 2.172056-9.164645 3.356456-14.07458 3.433884-4.905344.007828-9.806753-1.086726-14.1336087-3.224679-4.3242324-2.103851-8.2293559-5.071409-10.9958677-8.894149" fill="#a8856f"/><path d="m129.824172 88.2129447c0 7.1391906 5.858997 12.9306833 13.075671 12.9306833 7.221921 0 13.069112-5.7914927 13.069112-12.9306833 0-7.1398466-5.847191-12.9280605-13.069112-12.9280605-7.216674 0-13.075671 5.7882139-13.075671 12.9280605" fill="#8f6240"/><path d="m133.186816 88.2097312c0 4.9822186 4.045482 9.0299023 9.025597 9.0299023 4.984706 0 9.024941-4.0476837 9.024941-9.0299023 0-4.9736931-4.040235-9.0213768-9.024941-9.0213768-4.980115 0-9.025597 4.0476837-9.025597 9.0213768" fill="#2a1d01"/><path d="m133.697945 83.5344991c0 1.4388558 1.171406 2.6160418 2.608444 2.6160418 1.441629 0 2.613691-1.177186 2.613691-2.6160418s-1.172062-2.6048931-2.613691-2.6048931c-1.437038 0-2.608444 1.1660373-2.608444 2.6048931" fill="#fff"/></g><g transform="translate(21 185)"><path d="m159.111211 20.5505652c-2.495936-2.1939871-38.699788-20.38552262-38.699788-20.38552262-1.651078 4.47418065-13.602888 10.73698062-25.9077047 10.88965162-13.1771831.1645161-26.7578028-6.09762581-28.5267676-10.88965162 0 0-36.2038521 18.19153552-38.6991338 20.38552262s-26.82591549 44.9760774-26.82591549 44.9760774.71649296-.9054968 3.74292253 0c7.33062676 2.1939871 23.70714086 14.8880516 23.70714086 21.3127355l14.6605986-15.8277678s1.6045774 19.3266968 3.0015422 30.5842067h45.0781479 5.1045211 45.0774934c1.397619-11.2575099 3.002197-30.5842067 3.002197-30.5842067l14.660598 15.8277678c0-6.4246839 16.376514-19.1187484 23.706486-21.3127355 3.027085-.9054968 3.743578 0 3.743578 0s-24.330634-42.7820903-26.825916-44.9760774" fill="#dfe5e8"/><path d="m93.2230035 16.9106129c19.6413385 0 29.6349085-9.12867096 33.3313315-13.56073548-.203684-.10331613-.403437-.20465807-.598606-.30336774-3.679394 4.36494193-13.503338 13.20603872-32.7327255 13.20603872-20.0356056 0-30.1935634-8.92467098-33.6430774-12.77369034-.1971338.10002581-.3981972.20202581-.6025353.306 3.4305212 3.8779742 13.7574507 13.12575484 34.2456127 13.12575484" fill="#cbd0d4"/></g><g transform="translate(0 188)"><path d="m94.0863888 98.5974437s.6161347-60.7309271 0-66.2414901c-.6161346-5.5105629-6.7951977-19.0473377-18.0575358-31.94356287 0 0-23.9485444 10.52219207-28.714894 13.81345037-4.7663495 3.289947-47.31376215 84.3716026-47.31376215 84.3716026h40.10387105l22.392788-26.7496689 2.1180859 26.7496689z" fill="#d14e20"/><path d="m93.9492513 98.5974437c.6161347-60.7407616.6286017-60.6207814 0-66.2414901-.6161347-5.5105629-3.5307994-16.0347218-18.5030688-28.94209267" stroke="#fff" stroke-width="4"/><path d="m46.7432307 14.7768318c10.5235014 5.6567682 15.8443065 49.1892318 15.1021891 56.3087086-.0702092.6674305-.139106 1.2601192-.2073467 1.7885563l.8595702-1.0260596.2185014 2.7588874c.1436991-.8883775.2893668-1.9950795.4343782-3.3856689.6115416-5.8659139-3.8306647-49.9812318-15.3344699-57.3249337-.1843811.1167019-.3523582.226192-.5013066.3291258-.1522292.1049006-.3444842.2917549-.5715157.5513841" fill="#b3431f"/><path d="m.52650315 98.5974437s-.61613467-60.7309271 0-66.2414901c.61613467-5.5105629 6.79519771-19.0473377 18.05753585-31.94356287 0 0 23.9485444 10.52219207 28.714894 13.81345037 4.7670057 3.289947 47.3144183 84.3716026 47.3144183 84.3716026h-40.1045272l-22.3921318-26.7496689-2.1193983 26.7496689z" fill="#d14e20" mask="url(#b)" transform="translate(133.856734)"/><path d="m134.520374 98.5974437c-.616134-60.7407616-.628602-60.6207814 0-66.2414901.616135-5.5105629 3.5308-16.0347218 18.503069-28.94209267" stroke="#fff" stroke-width="4"/><path d="m181.726789 14.7768318c-10.523502 5.6567682-15.844307 49.1892318-15.10219 56.3087086.069553.6674305.13845 1.2601192.207347 1.7885563l-.860226-1.0260596-.218502 2.7588874c-.143699-.8883775-.28871-1.9950795-.433722-3.3856689-.612197-5.8659139 3.830665-49.9812318 15.333814-57.3249337.185037.1167019.352358.226192.501963.3291258.151573.1049006.343828.2917549.571516.5513841" fill="#b3431f"/></g><g transform="translate(44)"><path d="m125.854505 14.0780828c-24.649813-18.30551728-76.0736452-16.98337935-102.8842994-3.5602069-29.90570093 14.9739655-22.76112149 61.864-18.23074766 82.767931 0 0 5.19897197-39.7460345 18.15485986-45.5272759 12.9558878-5.7812413 22.7951401-8.5644138 47.3304672-8.5644138 24.5340187 0 34.373925 2.7831725 47.329159 8.5644138 12.956542 5.7812414 18.190841 45.5272759 18.190841 45.5272759 4.530374-20.903931 9.138598-65.0763103-9.89028-79.2077241" fill="#754b1d"/><path d="m123.300944 46.1239414c-2.253084-3.2273793-7.206075-5.7517586-13.665701-7.6576552-1.469346-.4337241-3.015888-.8346896-4.626542-1.2042069-.749065-.1729655-1.512523-.338069-2.288411-.4972759-.686262-.1402068-1.381683-.2758275-2.086262-.4055517-.9283177-.1723103-1.8723364-.3347931-2.8281308-.4887586-9.2275701-1.485931-19.6601869-2.1587931-29.2933645-2.1587931-1.2161682 0-3.8009346-.6944828-3.8009346-.6944828l-3.5824299.9113449-3.6040187-.6807242-2.5435514 1.1727587-2.994299-1.1727587-2.4840187 1.8384138-3.6851402-3.0596551s-.2531776 3.6702758-1.0388785 3.8091724c-13.2620561 2.340931-24.0983178 6.3047241-26.8119626 10.2881724-1.816729 2.6665517-6.6938318 13.0143448-6.6938318 13.0143448l-2.14121496 1.6805172.61299065 2.7897242-1.25672897 2.0303793s-.63523365 7.2370345-.74579439 8.4523793c-.17663552 1.9452069-.35850468 3.6912414-.43962617 5.2551379 2.75355144-12.0053793 7.81186914-27.7216551 15.59102804-31.1927586 12.9558878-5.7818965 22.7957944-8.5650689 47.3304673-8.5650689 24.5340187 0 34.3739252 2.7831724 47.3298132 8.5650689 8.295327 3.701069 13.47271 21.3252069 16.123551 33.5271379-.184486-11.540862-4.898691-27.7131379-10.377009-35.556862" fill="#54340a"/><path d="m129.536963 61.0796276c-.123645.0242414-.02486.0222758-.026823.0347241.02486.0072069.072617.0058966.109253.0098276.073925.0124483.179252-.0078621.271495-.0072069.196916-.0255517.409533-.0556896.62542-.1225172.219813-.0432414.433085-.1474138.660094-.224069.218505-.1008965.44028-.2103103.664019-.3275862.884486-.4953103 1.723831-1.231069 2.463738-2.0978621.39514-.4160345.713084-.9034827 1.066355-1.3771724.32972-.4887586.627383-1.007.939439-1.5252414.268225-.5378965.555421-1.0757931.815795-1.6313793l.715046-1.7027931-.164205 1.8574138c-.079813.6191379-.192337 1.2369655-.290468 1.8659311-.143271.6152068-.279345 1.2435172-.459906 1.8639655-.206729.6125862-.385327 1.2454827-.670561 1.8488965-.515514 1.2258276-1.210934 2.4372414-2.195514 3.5228621-.251215.2653448-.515514.528069-.791589.7842414-.296355.2384827-.578317.4966207-.914579.7088965-.320561.228-.67514.4278276-1.05.6158621-.199533.0871379-.379439.1814827-.604486.2574827-.112523.038-.211963.0773104-.336916.1133449-.153084.0366896-.202804.0674827-.479533.1048276z" fill="#54340a"/><path d="m48.8058318 238.831638s-1.8343925-18.683552-7.8596262-25.264759c-6.0245794-6.580551-22.6420561-14.094069-24.8918692-22.716138-.9754205-3.739069-.0418691-8.236827 2.955701-9.950758 2.5114953-1.436138 1.8716822-5.432035 3.6171028-7.263242 5.2408411-5.497551 20.9856075-9.508517 29.2181308-10.521413 0 0 .0294393 8.17262-.0830841 9.724069-.1125233 1.552103-.655514 3.271931-.655514 3.271931s-6.414486 1.434827-13.2339252 5.660689c-8.3869159 5.198138 2.4382243 13.636104 7.1628972 22.397069 4.7253271 8.761621 3.9363551 21.498173 3.7701869 34.662552" fill="#f05a24"/><path d="m40.9483645 213.567207c-1.2174766-1.288069-2.59-2.414966-3.9978505-3.483552-1.4085047-1.071207-2.8588785-2.085414-4.3157944-3.091758-2.9105607-2.01269-5.8590654-3.980173-8.6551402-6.168449-1.3960747-1.096103-2.7535514-2.247241-4.0161682-3.507138-1.2456075-1.269724-2.4264486-2.64231-3.2795327-4.23962-.8884112-1.586828-1.2717757-3.428518-1.2822558-5.234173-.002604-1.80762.3958072-3.662414 1.3908539-5.236793.4985047-.78031 1.1657944-1.475448 1.9770094-1.962241.7170093-.407517 1.1814953-1.071207 1.5059813-1.844966.3127103-.78162.4998131-1.635965.7196262-2.502758.2283177-.861552.4723364-1.775518 1.0480373-2.587931 2.542243-2.796276 5.8485982-4.309725 9.1143926-5.728173 3.293271-1.383724 6.697757-2.45231 10.1362616-3.370862 3.4417757-.912655 6.9247664-1.656931 10.4731776-2.143724l.158972 1.299862c-3.4718692.422586-6.9352337 1.104621-10.3475701 1.955035-3.4116823.853689-6.7939252 1.860034-10.0492524 3.169724-1.6394392.630931-3.2141121 1.396827-4.7521495 2.219724-.7372897.457965-1.5046729.877931-2.1837383 1.411241l-.5240187.380655c-.1714019.129724-.3199065.283035-.4814953.423242-.3035514.288931-.6718692.568034-.8871028.869414-.4671028.631586-.7228972 1.462344-.9538318 2.30031-.2302804.845827-.4330841 1.72769-.792243 2.589241-.3571963.848449-.9806542 1.702138-1.8311215 2.159449-.7157009.414724-1.3188785 1.018793-1.7833645 1.721137-.9276635 1.415173-1.3443925 3.161207-1.3659813 4.883-.0137383 1.728345.3179439 3.471759 1.1442056 5.000276.7942056 1.546207 1.927944 2.912242 3.1369159 4.182621 1.2259813 1.261862 2.5559813 2.425448 3.9278505 3.536621 2.7489719 2.220379 5.6654205 4.232413 8.5458878 6.29162 1.441215 1.028621 2.8778505 2.065759 4.2713084 3.160552 1.393458 1.092173 2.7502804 2.241345 3.9481309 3.548414" fill="#f97c55"/><path d="m42.2206636 265.414734c-.2656075 0-.4841122-.212275-.4906543-.479586l-.1223364-5.22762c-.0058879-.271242.2080374-.496621.4788785-.503173.2597196.015069.4958879.209.5024299.480242l.1223365 5.226965c.006542.271241-.2080374.496621-.4788785.503172z" fill="#c7c8ca"/><path d="m42.9135327 211.211403s.391215-.712827-.4625234-1.603862c-.8537383-.891034-2.7757943-1.496413-3.0603738-.961793-.2845794.533966.3493458 1.639242 1.4556075 2.352069 1.1062617.712828 1.7827103.57 2.0672897.213586" fill="#d14e20"/><path d="m42.0970187 261.333338c-.3545794 0-.6450467-.28369-.6535514-.640104l-1.1939252-50.525586c-.0085047-.361.2773831-.661069.6385046-.670352.3565421-.006441.6607477.278559.6692524.639559l1.1939252 50.526242c.0085047.361-.2773832.661069-.6385047.670241z" fill="#fff"/><path d="m91.3195794 238.831638s1.8350468-18.683552 7.8596262-25.264759c6.0245794-6.580551 22.6420564-14.094069 24.8918694-22.716138.976075-3.739069.041869-8.236827-2.955701-9.950758-2.51215-1.436138-1.871028-5.432035-3.617103-7.263242-5.240841-5.497551-20.9856074-9.508517-29.2181308-10.521413 0 0-.0287851 8.17262.0830841 9.724069.1125234 1.552103.655514 3.271931.655514 3.271931s6.414486 1.434827 13.2345797 5.660689c8.386261 5.198138-2.4388787 13.636104-7.1635516 22.397069-4.7253271 8.761621-3.9363552 21.498173-3.770187 34.662552" fill="#f05a24"/><path d="m97.9051402 265.414734h-.0124299c-.2708411-.006551-.4847664-.231931-.4788785-.503172l.1229906-5.226965c.0058879-.267311.2243926-.480242.4906542-.480242h.0111215c.2708412.006552.4854206.231931.4795327.503173l-.1229906 5.22762c-.0065421.267311-.2250467.479586-.49.479586" fill="#c7c8ca"/><path d="m99.1771121 213.567207c1.1978509-1.307069 2.5546729-2.456241 3.9481309-3.548414 1.393458-1.094793 2.830093-2.131931 4.270654-3.160552 2.881122-2.059207 5.79757-4.071241 8.546542-6.29162 1.372524-1.111173 2.701869-2.274759 3.927851-3.536621 1.208972-1.270379 2.343364-2.636414 3.13757-4.182621.825607-1.528517 1.156635-3.271931 1.143551-5.000276-.020934-1.721793-.437663-3.467827-1.365981-4.883-.464486-.702344-1.067664-1.306413-1.783365-1.721137-.849813-.457311-1.473925-1.311-1.831121-2.159449-.358505-.861551-.561963-1.743414-.791589-2.589241-.231589-.837966-.487383-1.668724-.954486-2.30031-.215233-.30138-.583551-.580483-.887103-.869414-.161588-.140207-.310093-.293518-.481495-.423242l-.524673-.380655c-.677757-.53331-1.445794-.953276-2.183084-1.411241-1.538037-.822897-3.11271-1.588793-4.75215-2.219724-3.255327-1.30969-6.63757-2.316035-10.0492519-3.169724-3.4123364-.850414-6.8757009-1.532449-10.34757-1.955035l.1589719-1.299862c3.5484112.486793 7.0320561 1.231069 10.4731776 2.143724 3.4391584.918552 6.8429904 1.987138 10.1369154 3.370862 3.264486 1.418448 6.57215 2.931897 9.113739 5.728173.575701.812413.819065 1.726379 1.048037 2.587931.219813.866793.406916 1.721138.719626 2.502758.324486.773759.788972 1.437449 1.505982 1.844966.811215.486793 1.478504 1.181931 1.977009 1.962241.995047 1.574379 1.393458 3.429173 1.390854 5.236793-.01048 1.805655-.393845 3.647345-1.282256 5.234173-.853084 1.59731-2.033925 2.969896-3.279533 4.23962-1.262616 1.259897-2.620093 2.411035-4.016168 3.507138-2.796075 2.188276-5.744579 4.155759-8.655794 6.168449-1.456262 1.006344-2.905982 2.020551-4.31514 3.091758-1.407851 1.068586-2.780374 2.195483-3.9978509 3.483552" fill="#f97c55"/><path d="m97.4713364 211.211403s-.3918691-.712827.4625234-1.603862c.8543925-.891034 2.7751402-1.496413 3.0603742-.961793.283925.533966-.348692 1.639242-1.4556078 2.352069-1.1062617.712828-1.7827103.57-2.0672898.213586" fill="#d14e20"/><path d="m98.0283925 261.333338h-.0157009c-.3611215-.009172-.6476636-.309241-.6385047-.670241l1.193271-50.526242c.0085047-.361.3107477-.645345.6699066-.639538.3604673.009262.6470093.309331.6378505.670331l-1.1932711 50.525586c-.0085046.356414-.2996261.640104-.6535514.640104" fill="#fff"/></g></g></svg>