<svg height="330" viewBox="0 0 230 330" width="230" xmlns="http://www.w3.org/2000/svg" xmlns:xlink="http://www.w3.org/1999/xlink"><mask id="a" fill="#fff"><path d="m0 .05560748h187.925518v103.30691552h-187.925518z" fill="#fff" fill-rule="evenodd"/></mask><g fill="none" fill-rule="evenodd" transform="translate(22 15)"><g transform="translate(3 172)"><path d="m69.8302036 52.7828671s-5.879448-19.1313105-3.5382366-20.6076712c9.4457348-5.9550685 45.890093-4.7705845 48.931907.000653 1.208767 1.8962191 2.457326 17.5498219 2.457326 17.5498219l-42.3825161 20.122516z" fill="#74090a"/><path d="m149.331652 57.8809804-14.916824-4.9723516c-14.908996-4.9769224-25.185147-13.974169-25.185147-24.5855525v-27.93397265h-17.9514624-.4585878-17.9521147v27.93397265c0 10.6113835-8.7529605 16.1008858-23.6606523 21.0784611-14.9174767 4.9723516-15.9598996 7.1284521-15.9598996 7.1284521l-32.98440148 86.4679865h25.48717568l13.2657777-38.426516s6.7868387 11.185995 11.6930108 38.426516h40.1111039.4585878 40.1104514c4.906825-27.240521 9.084344-38.426516 9.084344-38.426516l13.265778 38.426516h28.095842z" fill="#efd6c2"/></g><g transform="translate(0 35)"><path d="m154.181476 12.6307477c-2.574555-1.2907477-32.819708-12.57514022-32.819708-12.57514022l-27.0452361 32.27588782-27.7528472-32.27588782s-30.2445 11.28439252-32.8197083 12.57514022c-1.9185139.9616822-20.8236111 59.4888785-33.74404168 90.7317753h32.65847218l9.511625-25.6932707s.922375 4.5872898 2.4100556 25.6932707h49.0196944.7258889 48.3675692c1.487681-21.1059809 2.410056-25.6932707 2.410056-25.6932707l7.552639 25.6932707h35.269583c-12.919778-31.2428968-31.825528-89.7700931-33.744042-90.7317753" fill="#ce181e" mask="url(#a)" transform="translate(0 176.635514)"/><path d="m162.123171 57.6936075c0 51.8536445-23.004542 94.3449535-67.6055835 94.3449535-44.597125 0-69.3628611-42.944019-69.3628611-94.7970096 0-51.86345794 25.5190417-57.13504673 70.1155139-57.13504673 44.6003887 0 66.8529307 5.72364486 66.8529307 57.58710283" fill="#f7e2d0"/><path d="m94.06345 188.520075c-11.0436944 0-20.7348333-4.090094-26.2449306-10.248785v31.893177h52.0694726v-31.427383c-5.575375 5.898972-15.060236 9.782991-25.824542 9.782991" fill="#fff"/><path d="m119.887731 185.466243c-5.575375 5.899626-15.059584 9.783645-25.8245421 9.783645-11.0436945 0-20.7341806-4.090748-26.2449306-10.248785" stroke="#e6e7e8"/></g><g fill="#930d10"><path d="m43 220.741481 10.4323589 94.063766 9.5676411.194753-10.2229857-98z"/><path d="m63 220.741481 8.1054631 94.063766 9.8945369.194753-7.8896213-98z"/><path d="m122 315 9.550027-.195104 10.449973-95.129892-9.647721-3.675004z"/><path d="m110.085506 227.226085-7.085506 87.773915 9.893565-.194871 8.106435-93.805129z"/><path d="m89.232834 315h4.767166l-.3464419-70.662407-9.6535581-6.337593z"/></g><g transform="translate(0 23)"><g fill="#930d10"><path d="m187.918142 291.998298h-9.656542l-27.653625-85.417202 1.598653-4.224834 1.41718-1.331677s.384486.088385.550292.172188c1.918514.961767 20.823611 59.533955 33.744042 90.801525"/><path d="m168.756176 291.998298h-9.694402l-13.504667-40.688825 1.344069-24.311947z"/><path d="m140.489071 291.998298 5.147153-33.295857-.53332 7.582834-2.409403 25.713023z"/><path d="m69.0501153 193.955042-32.2759445 11.068502s1.4674445 4.366906 2.0751806 8.060772l34.4771111-11.083561z"/><path d="m38.9005944 213.397463c-.0228472-.141417-.0404722-.248135-.047-.290691.0163195.102135.0326389.199032.047.290691"/><path d="m72.4765458 211.758138-32.6741389 8.226413.9876528 8.964269 35.2787222-8.81565z"/><path d="m93.8670944 247.605328-51.9004027 8.008395.5078611 8.888977 51.3194305-6.162771z"/><path d="m93.9869444 266.944829-50.8761944 7.095076.7879028 8.890287 49.8591666-5.252727z"/><path d="m149.246803 213.106576c-.007834.042556-.024806.149928-.047653.29069.014361-.091004.030681-.188556.047653-.29069"/><path d="m94.1909375 228.524176-.1827778.030771-.1827778-.030771.0006528.061542-52.217 8.805175.4915417 9.004861 51.9075833-6.982466 51.9075833 6.982466.491542-9.004861-52.2170003-8.805175z"/><path d="m151.284187 205.023741-32.275944-11.068502-4.276347 8.045713 34.476458 11.08356c.608389-3.693865 2.075833-8.060771 2.075833-8.060771"/><path d="m111.989381 220.13317 35.278722 8.81565.987653-8.964269-32.673487-8.226413z"/><path d="m94.1909375 247.605328.0731111 10.734601 51.3194304 6.162771-.390361-8.693219z"/><path d="m94.2999514 277.677204 48.4674446 5.106071 1.143014-8.888323-49.8395836-6.950385z"/><path d="m94.0736986 287.362896-49.6470139 3.076475c.0372084.511328.0744167 1.026583.111625 1.558861h49.0203472.7252362 48.3682219c.039167-.551919.077028-1.086161.115542-1.616475l-48.6965695-3.112484z"/></g><path d="m157.156576 108.718278s0-49.3552018-9.701583-58.0300897c-10.650069-9.5227354-43.902569-12.0787174-53.8163055-11.5542959-9.9137361.5250762-41.236625 1.3113811-51.987875 8.3933632s-12.1357917 57.4604934-12.1357917 57.4604934-13.5732083-48.88774-3.2234166-79.3061526c10.0397222-29.50640357 105.3785698-35.66262779 127.6911668-4.6968789 16.252861 22.5566726 3.173805 87.7335605 3.173805 87.7335605" fill="#edc866"/><path d="m160.138074 215.88398c-6.782362 7.966494-13.594098 18.265713-13.594098 18.265713l-.863625 20.184664 19.496514-24.24713c-1.845403-5.235704-3.5485-10.055668-5.038791-14.203247" fill="#930d10"/><path d="m145.769325 251.983102.522875 1.575229 6.719042-8.35539-4.630806-13.773103c-1.156722 1.676708-1.848014 2.720314-1.848014 2.720314z" fill="#540000"/><path d="m155.428413 221.65995 4.726111 14.598036 4.912805-6.10974c-1.845403-5.23505-3.547847-10.056323-5.039444-14.205866-1.560792 1.835148-3.120278 3.792072-4.599472 5.71757" fill="#540000"/><path d="m145.68009 268.249139s18.128292-24.161363 23.295681-27.192664l4.074639 11.474422-23.832264 27.762915z" fill="#930d10"/><path d="m153.508985 275.287256 6.914222-8.054225-4.198014-12.483327c-2.474681 3.045704-4.848181 6.068493-6.717083 8.483713z" fill="#540000"/><path d="m168.975444 241.056344c-1.237666.726072-3.223416 2.672521-5.5225 5.20166l4.102709 12.673192 5.49443-6.40043-.036555-.105408c-1.36757-3.825462-2.715556-7.62539-4.024375-11.328422z" fill="#540000"/><path d="m152.186196 290.108351s19.760889-23.283399 24.927625-26.314045c0 0 4.183 11.146412 4.114458 11.122188-.748083.335211-17.445486 17.082-17.445486 17.082l-11.047611-.022915z" fill="#930d10"/><path d="m159.057596 291.988739 4.724153.009821s1.549694-1.554278 3.722138-3.722018l-3.795902-11.290449c-2.550403 2.811319-5.015945 5.60496-7.010181 7.891857z" fill="#540000"/><path d="m174.735099 281.103555c3.325902-3.276161 6.194208-6.05278 6.494486-6.186995l-.000653-.002619c-1.353861-3.599588-2.727306-7.318332-4.102056-11.088144-.008486-.02095-.01175-.031426-.01175-.031426-1.312083.769283-3.566777 2.847328-6.198125 5.515265z" fill="#540000"/><path d="m149.302876 213.151292-.052222.320808c.016972-.111956.036556-.21409.053528-.324081 0 .000655-.001306.003273-.001306.003273" fill="#930d10"/><path d="m151.461351 209.217935c-.661916-1.577848 2.999514-7.841444 2.773-7.954054-.039819-.020951-.086819-.043211-.139694-.06809-1.500736 1.03313-3.498236 3.966879-4.790736 11.952359.024153-.050413 1.80493-3.475193 2.15743-3.930215" fill="#930d10"/><path d="m150.721297 206.932216.74025 2.285588s2.233806-4.202574 4.126861-5.338494c0 0-1.06925-2.694125-1.493555-2.683683-.423653.011163 0 0 0 0s-1.676986-.066092-3.373556 5.736589c-1.695916 5.803336 0 0 0 0" fill="#540000"/><path d="m.09021389 291.998298h9.65654167l27.65362504-85.417202-1.5993056-4.224834-1.4165278-1.331677s-.3844861.08904-.5502916.172188c-1.9185139.961767-20.8242639 59.533955-33.74404171 90.801525" fill="#930d10"/><path d="m19.2522444 291.998298h9.6944028l13.5046667-40.688825-1.3447222-24.311947z" fill="#930d10"/><path d="m27.8702819 215.88398c6.7823612 7.966494 13.5940973 18.265713 13.5940973 18.265713l.863625 20.184664-19.4971667-24.24713c1.8454028-5.235704 3.5485-10.055668 5.0394444-14.203247" fill="#930d10"/><path d="m42.2390306 251.983102-.5235278 1.575229-6.7183889-8.354735 4.6308055-13.773758c1.1567223 1.676708 1.8473612 2.720314 1.8473612 2.720314z" fill="#540000"/><path d="m32.4741278 221.601812-4.7261111 14.598036-4.9134584-6.10974c1.8460556-5.23505 3.5485-10.056323 5.0400973-14.205866 1.5607916 1.835148 3.1202777 3.792072 4.5994722 5.71757" fill="#540000"/><path d="m41.734825 267.462703s-18.0923889-23.701758-22.7016528-26.406359l-4.0752916 11.474422 22.5730555 26.295713z" fill="#930d10"/><path d="m34.4994361 275.28791-6.9142222-8.054879 4.1973611-12.483327c2.4753333 3.045704 4.8481806 6.068493 6.7177361 8.483713z" fill="#540000"/><path d="m19.0329111 241.056344c1.2376667.726072 3.2234167 2.672521 5.5225 5.20166l-4.1033611 12.673192-5.4937778-6.401085.0365556-.104753c1.3675694-3.826117 2.7155555-7.62539 4.0237222-11.328422z" fill="#540000"/><path d="m34.1009806 288.098854s-18.970375-21.819471-23.2069028-24.304745c0 0-4.18300002 11.146413-4.11511113 11.122189.74873611.335211 17.44679163 17.082 17.44679163 17.082l8.4201806-.017677z" fill="#930d10"/><path d="m28.950825 291.988739-4.7241528.009821s-1.5496944-1.554278-3.7221389-3.722018l3.7959028-11.290449c2.5504028 2.811319 5.0152917 5.60496 7.0101806 7.891857z" fill="#540000"/><path d="m13.2733222 281.103555c-3.32655553-3.276161-6.19420831-6.05278-6.49448609-6.186995l.00065278-.003274c1.35386111-3.598933 2.72730555-7.318332 4.10205551-11.087489.0084862-.02095.01175-.031426.01175-.031426 1.3120834.768628 3.5667778 2.847328 6.198125 5.515265z" fill="#540000"/><path d="m38.7048917 213.151292.052875.320808c-.0169723-.111956-.0365556-.21409-.0541806-.324081 0 .000655.0013056.003273.0013056.003273" fill="#930d10"/><path d="m36.5470042 209.217935c.6619166-1.577848-3.0001667-7.841444-2.7736528-7.954054.0404722-.020951.0868194-.043211.1396944-.06809 1.5013889 1.03313 3.4988889 3.966879 4.7907361 11.952359-.0241527-.050413-1.8042777-3.475193-2.1567777-3.930215" fill="#930d10"/><path d="m37.2864708 206.932216-.7395972 2.285588s-2.2338055-4.202574-4.1268611-5.338494c0 0 1.06925-2.694125 1.4929028-2.683683.4243055.011163 0 0 0 0s1.6776389-.066092 3.3735555 5.736589c1.6965695 5.803336 0 0 0 0" fill="#540000"/><path d="m123.857272 271.100722-1.007889 9.586897 9.562542 1.006942 1.022903-9.257579z" fill="#540000"/><path d="m121.9697 289.054008-.309417 2.944224 9.635-.195758.235653-2.136968z" fill="#540000"/><path d="m125.793346 252.692152-.97982 9.318466 9.644792 1.158179.985694-8.924332z" fill="#540000"/><path d="m127.73314 234.244561-1.006583 9.571838 9.725083 1.308108 1.020292-9.237283z" fill="#540000"/><path d="m131.517881 198.250978-.930862 8.852313 9.719862 3.124924.953708-8.635605z" fill="#540000"/><path d="m129.722742 215.322568-.947181 9.010098 9.7055 2.425041.992222-8.979982z" fill="#540000"/><path d="m103.925878 278.691216 9.607583 1.012834.831639-9.929309-9.636306-1.343462z" fill="#540000"/><path d="m105.413754 259.67907 9.698972 1.164726.815973-9.741408-9.721167-1.563444z" fill="#540000"/><path d="m117.486357 232.513839-9.816472-1.655104-.804875 10.284162 9.788402 1.316619z" fill="#540000"/><path d="m114.731765 202.000821 5.171959 1.662305.509819-6.093373-4.841653 2.849947z" fill="#540000"/><path d="m119.150157 212.656464-3.568083-.89826-3.592889 8.375031 6.400486 1.599453z" fill="#540000"/><path d="m112.798956 288.466473-9.589306-.613462-.325083 4.145614 9.635-.195758z" fill="#540000"/><path d="m94.3752167 261.466752 3.4845277-39.733606-3.7201805-.79678z" fill="#930d10"/><path d="m94.0870806 228.525485.0639722 10.920538 2.0353611.273668.9315139-10.623955-3.0236667-.510018.0006528-.061542z" fill="#540000"/><path d="m94.3879458 258.351125.287875.034699.9262917-10.558484-1.2768333-.205579z" fill="#540000"/><path d="m94.3012569 287.284265-.2304305-.014403.0026111.092968-5.0387917.312951.3048473 4.322386h4.2189027.7258889.041125z" fill="#540000"/><path d="m93.9869444 266.944829-6.3541388.886475.7356805 10.413794 5.9311389-.567633z" fill="#540000"/><path d="m93.8257083 228.524176.0006528.061542-8.8608055 1.494045.7389444 10.450458 8.3033333-1.116933.0489584.007202-.0548334-10.866852z" fill="#540000"/><path d="m87.019325 259.153535 7.2451806-.813148-.0737639-10.735255-7.9044861 1.169964z" fill="#540000"/><path d="m94.325475 291.998298-.1860417-71.062063" stroke="#360000" stroke-width="2"/><path d="m78.7283292 269.072631-9.6323889 1.343462.8185833 9.772834 9.6049722-1.011524z" fill="#540000"/><path d="m70.8872931 291.802671 9.6356527.195758-.2957083-3.777668-9.5899583.594475z" fill="#540000"/><path d="m77.2487431 250.169822-9.7237778 1.500591.8159722 9.725696 9.6957083-1.164072z" fill="#540000"/><path d="m66.8055389 243.072257 9.7851389-1.315964-.793125-10.130305-9.8125556 1.654449z" fill="#540000"/><path d="m62.9934472 197.570015.6325417 7.548789 9.7002778-3.117721-3.6973334-6.956279z" fill="#540000"/><path d="m72.4758931 211.758138-8.1225139 2.04531.7598333 9.067713 9.8073333-2.451229-.2833055-3.623812z" fill="#540000"/><path d="m49.1996653 254.479178 1.0118055 9.07557 9.6793889-1.162108-.987-9.41078z" fill="#540000"/><path d="m47.1878042 236.431222 1.0170277 9.124672 9.7831806-1.315964-.992875-9.462502z" fill="#540000"/><path d="m60.8508347 271.546971-9.5990972 1.338879 1.0189861 9.143659 9.5729861-1.008905z" fill="#540000"/><path d="m44.3841889 211.285635 9.817125-3.155695-.9210695-8.785534-9.8510694 3.377642z" fill="#540000"/><path d="m62.7109903 289.287412-9.5645.592511.2121528 1.903892 9.6330416.195103h.0019584z" fill="#540000"/><path d="m45.2001611 218.606978 1.0000556 8.970817 9.7844861-2.444682-.9445695-9.003552z" fill="#540000"/><path d="m101.709371 233.976654c0 .985336-.796389 1.784735-1.7788196 1.784735s-1.7788195-.799399-1.7788195-1.784735c0-.985337.7963889-1.784081 1.7788195-1.784081s1.7788196.798744 1.7788196 1.784081" fill="#360000"/><path d="m101.709371 244.489767c0 .985336-.796389 1.784081-1.7788196 1.784081s-1.7788195-.798745-1.7788195-1.784081c0-.985337.7963889-1.784736 1.7788195-1.784736s1.7788196.799399 1.7788196 1.784736" fill="#360000"/><path d="m101.709371 255.002814c0 .985337-.796389 1.784081-1.7788196 1.784081s-1.7788195-.798744-1.7788195-1.784081c0-.985991.7963889-1.784735 1.7788195-1.784735s1.7788196.798744 1.7788196 1.784735" fill="#360000"/><path d="m101.709371 265.515207c0 .985336-.796389 1.784736-1.7788196 1.784736s-1.7788195-.7994-1.7788195-1.784736.7963889-1.784081 1.7788195-1.784081 1.7788196.798745 1.7788196 1.784081" fill="#360000"/><path d="m101.709371 276.028255c0 .985336-.796389 1.78408-1.7788196 1.78408s-1.7788195-.798744-1.7788195-1.78408c0-.985337.7963889-1.784736 1.7788195-1.784736s1.7788196.799399 1.7788196 1.784736" fill="#360000"/><path d="m101.689592 286.541302c0 .985337-.796389 1.784081-1.7794726 1.784081-.9817777 0-1.7781666-.798744-1.7781666-1.784081 0-.985336.7963889-1.784735 1.7781666-1.784735.9830836 0 1.7794726.799399 1.7794726 1.784735" fill="#360000"/></g><g transform="translate(14)"><path d="m19.4096446 224.23205s7.9565887-2.798109 8.437697 64.28072" stroke="#74090a"/><path d="m140.013541 224.231838s-7.884031-.618978-9.112948 65.173793" stroke="#74090a"/><g fill="#f9d482"><path d="m112.931789 63.6035315s.879199-9.9527477 2.35913-16.6599774c3.946264-17.8768018 10.458874-22.6030181 14.891476-22.790473 7.179363-.3030631 8.649489 5.7581982 8.649489 5.7581982s3.582818 1.0796621 7.039476 8.0579504 4.82481 27.3050676 4.82481 27.3050676-4.962736-16.5293468-8.419394-18.3496847c-3.456658-1.8203378-11.26094 2.5734234-16.065485 8.3375-4.803892 5.7647297-7.197013 10.0121847-7.197013 10.0121847l2.390506-10.922027z"/><path d="m44.2080281 65.5923829s-9.0449653-11.0983784-17.8448008-6.8535361c-8.7998355 4.2448424.6072684 23.839437-3.6409957 29.4101802 0 0 5.7654545-7.941036 6.3720693-15.1890765.6072684-7.2473874 3.0343809-9.6104955 6.0687619-7.3675676 3.0350346 2.2422748 9.0449653 0 9.0449653 0"/><path d="m113.857465 28.5845946c-1.337429-2.8777928-10.06536-28.11301802-35.1261304-26.60750001 0 0-7.2381948-4.14817567-19.4469697-.06727477-12.2100822 4.0809009-14.9797229 10.49813068-14.9797229 10.49813068s-8.7671515-2.94898654-18.8815368 2.0678828c-8.5370563 4.2350451-21.35440693 11.1512838-19.49076624 37.8430406.54059307 7.7431306-5.30853247 12.0225901-5.30853247 12.0225901s8.65602598 2.3252252 10.95893941-8.5027478c1.2230346-5.7484009 7.384619-10.3603153 10.5484286-12.3903153 7.0349004-4.5152477 14.5378355-4.0247297 19.5208355 2.4970045 4.9823463 6.5223874 9.1678571 18.2556306 9.1678571 18.2556306s10.03529-1.2044144 25.4921991-1.1743693c11.0007749 14.1237838 32.6343028 1.9124324 32.6343028 1.9124324s6.248524-33.4767117 4.911096-36.3545045"/></g><path d="m100.453829 58.1129955c.011112-2.2808108-.126161-4.7046622-.320957-7.0618919-.2032945-2.3709459-.4889525-4.7399324-.8543594-7.0978153-.7255845-4.7164189-1.8061169-9.3838514-3.2657836-13.936982-.7458485-2.2697072-1.59171-4.5080631-2.5480433-6.7026577-.9779047-2.1834909-2.0767402-4.3140765-3.2991212-6.3780405-1.2465671-2.0495946-2.6389048-4.0103604-4.1659004-5.8725-1.5557576-1.83862612-3.269052-3.54466215-5.115697-5.11288287 1.9460043 1.43954954 3.7854589 3.03585585 5.4804502 4.78565317 1.6668831 1.7746171 3.2147966 3.6674549 4.6234762 5.6661036 1.3838398 2.013018 2.6519784 4.1089865 3.8011472 6.2715766 1.1269437 2.1736937 2.1473377 4.4029054 3.0670649 6.6752252 1.8087316 4.5557432 3.2396364 9.2643243 4.3116714 14.0545495.538632 2.3951126.997515 4.8091667 1.372727 7.2402027.366714 2.4480181.67329 4.8463964.834749 7.4015316.068636 1.0809684-.753039 2.013018-1.835533 2.0809459-1.081186.0685811-2.013987-.7524324-2.081969-1.834054-.002615-.042455-.003922-.08491-.003922-.1273649z" fill="#ffe7b6"/><path d="m60.7140277 53.0376689c-2.8160519-6.7758108-5.3510216-13.3641666-8.6102684-19.2921847-1.6243939-2.9529054-3.3448788-5.7314189-5.3209524-8.188581-1.0007835-1.2089865-2.1022337-2.2964865-3.3135021-3.2265766-1.2289178-.8941667-2.5846494-1.5629955-4.0227446-2.0371847-.736697-.1626351-1.4648961-.3997297-2.2375455-.4513288-.7576147-.1378154-1.5420303-.1156081-2.3290606-.1299775-1.6328918.0561712-3.3409567.2181531-4.9607749.5702027-3.289316.6061261-6.4295931 1.9013288-9.2397619 3.7778378-5.6275281 3.7680406-9.7365584 9.9925901-11.72635929 16.7834234l-.00719048.0267793c-.05098701.1730856-.23270995.2723649-.40528138.2214189-.1575368-.0457207-.25297403-.1992117-.23205628-.3559684.49091342-3.6491667 1.67995671-7.1598649 3.38867533-10.4680856 1.726368-3.2918919 4.0763463-6.3349324 7.0067922-8.8097297 2.9494026-2.4382208 6.442013-4.3081982 10.1568745-5.3891667 1.8636407-.5610586 3.7383939-.9013514 5.6902813-1.129955 1.0125498-.0744594 2.0290217-.1711261 3.0644503-.085563 1.0354285-.0006532 2.0603982.2083558 3.0932121.3696847 2.0420952.4598198 4.0220909 1.2148648 5.8576234 2.2200675 1.8041558 1.0430856 3.4553506 2.2997523 4.9411645 3.6955406 1.42829 1.4356306 2.7238831 2.9783784 3.7919956 4.6341216 1.0524243 1.6583558 1.9728052 3.3813739 2.701658 5.1546847 1.4792771 3.5433558 2.4447619 7.2049324 3.0213074 10.8906757.5490909 3.6916216.7739567 7.4100225.3399134 11.1421396-.0209177.1841892-.1882597.315473-.3719437.2945721-.1255065-.0143694-.2261732-.0953604-.2712771-.2037838z" fill="#ffe7b6"/><path d="m114.561543 58.5505428c.030069-1.6270045.331415-3.1697523.711203-4.6844144.392862-1.5087838.900117-2.9790316 1.508039-4.4061712.602039-1.4290991 1.365537-2.785045 2.258463-4.0619595.900771-1.2716891 1.851221-2.5074549 2.797749-3.7432207.950451-1.2338063 1.931624-2.4447522 2.995814-3.5929955 1.076611-1.1351801 2.198325-2.2311711 3.41613-3.2265765 1.232186-.9784235 2.541507-1.8680181 3.945611-2.5806082 1.396913-.716509 2.911489-1.2344594 4.458748-1.3964414.107858-.0111036.204602.0672748.216368.1750451.009806.0947072-.05164.1802702-.137926.2083558-2.861156.9281306-5.179758 2.8516667-7.137528 5.019482-.992286 1.0796622-1.891095 2.2494594-2.742186 3.4499549-.867433 1.1867793-1.659039 2.4375676-2.417961 3.7033784-.764152 1.2651577-1.412602 2.6047748-2.04471 3.9450451-.639953 1.3370045-1.340044 2.6348198-2.123805 3.8993243-1.585174 2.5231306-3.223949 5.032545-5.337295 7.4315766-.075173.0868693-.206563.0966666-.294156.0222072-.047718-.0411487-.072558-.1031982-.072558-.161982" fill="#ffe7b6"/><path d="m69.4959524 62.6544347c.0470649-.8745721.0581775-1.8895721.0620995-2.8464415-.001961-.972545-.0143809-1.9483558-.0451038-2.9254729-.0575239-1.9542343-.1706104-3.9130406-.3425282-5.867928-.3490649-3.9078153-.8975022-7.8110585-1.7714718-11.6437612-.4307749-1.9183108-.9360693-3.8222523-1.5511819-5.6902703-.6098831-1.8699775-1.2975541-3.7216667-2.1381861-5.5054279-1.6420433-3.5831982-3.824026-6.9613063-6.7145974-9.770518 3.2429047 2.3879279 5.9595974 5.5322072 8.1474632 8.9854279 1.1151775 1.7197522 2.0852381 3.5289865 2.9788182 5.3754504.9001169 1.8458109 1.6910692 3.7432208 2.4081558 5.66741 1.4472468 3.8477252 2.567 7.8090991 3.4841126 11.8201126.454961 2.0058333.8517446 4.0273423 1.1903506 6.0632207.1719178 1.0176126.3248788 2.0404504.467381 3.0685135.1372727 1.0437387.2653939 2.0313063.3608311 3.1612613z" fill="#edc866"/><path d="m39.0640922 62.5810856c-2.2297013-.460473-4.380961-.8255856-6.4962684-.8824099-1.055039-.0300451-2.0904675-.0019595-3.1187056.0979729-.5150996.0561712-1.0400043.1338964-1.4563983.2658334-.4333896.1430405-.838671.3598874-1.1910043.6642567-.7079351.6074325-1.2093074 1.5185811-1.5433377 2.5100676-.3255324 1.0012838-.5072554 2.0783333-.5987705 3.1704054-.2189827 2.1893694-.0823637 4.4322973.0418355 6.6739189l-.1947966.0241667c-.4346969-2.2043919-.7863766-4.4407883-.8296084-6.7385811-.0031795-1.1469369.0831063-2.311509.3511149-3.4754279.2810823-1.1528153.7661126-2.3448198 1.6864935-3.3023424.4516927-.4794144 1.0171256-.8693468 1.6237403-1.1423648.6275324-.2808559 1.208-.4343469 1.797619-.5695496 1.1890433-.2495045 2.4127316-.2834684 3.5945844-.1260585 1.1805455.1678603 2.3270996.4670045 3.4089394.9118018 1.0811862.4415315 2.112039.9954054 3.0147706 1.7439189z" fill="#ffe7b6"/></g><g transform="translate(51 109)"><path d="m26.1918045 13.1557115c0 7.1177693-5.7997836 12.8912308-12.9435224 12.8912308-7.14893285 0-12.93702986-5.7734615-12.93702986-12.8912308 0-7.11842304 5.78809701-12.88926919 12.93702986-12.88926919 7.1437388 0 12.9435224 5.77084615 12.9435224 12.88926919" fill="#4c9bbb"/><path d="m22.8624963 13.1525077c0 4.9672692-4.0039478 9.0028077-8.9337314 9.0028077-4.93497759 0-8.93373132-4.0355385-8.93373132-9.0028077 0-4.95876924 3.99875373-8.9943077 8.93373132-8.9943077 4.9297836 0 8.9337314 4.03553846 8.9337314 8.9943077" fill="#2a1d01"/><path d="m10.1645866 8.49130385c0 1.43453846-1.1595672 2.60819235-2.58208212 2.60819235-1.42770896 0-2.58727612-1.17365389-2.58727612-2.60819235 0-1.43453847 1.15956716-2.59773077 2.58727612-2.59773077 1.42251492 0 2.58208212 1.1631923 2.58208212 2.59773077" fill="#fff"/><path d="m17.9873799 45.4929808c7.8702537 4.8051154 16.2949701 7.7722692 24.8333059 7.6611154 8.5896269 0 16.8195672-3.3463847 25.0027612-7.6611154-3.0060448 3.5686923-6.7645746 6.5273461-11.0282239 8.6588846-4.2539104 2.1661923-9.0720224 3.3470384-13.9323358 3.4235877-4.8551194.0084507-9.7069925-1.0828185-13.9907686-3.2143569-4.2805299-2.0981924-8.1455374-5.0568462-10.8847388-8.8681154" fill="#a38276"/><path d="m60.8755231 13.1557115c0 7.1177693 5.7997836 12.8912308 12.9435224 12.8912308 7.1489329 0 12.9370299-5.7734615 12.9370299-12.8912308 0-7.11842304-5.788097-12.88926919-12.9370299-12.88926919-7.1437388 0-12.9435224 5.77084615-12.9435224 12.88926919" fill="#4c9bbb"/><path d="m64.2048313 13.1525077c0 4.9672692 4.0039478 9.0028077 8.9343806 9.0028077 4.9343284 0 8.9330821-4.0355385 8.9330821-9.0028077 0-4.95876924-3.9987537-8.9943077-8.9330821-8.9943077-4.9304328 0-8.9343806 4.03553846-8.9343806 8.9943077" fill="#2a1d01"/><path d="m64.7101455 8.49130385c0 1.43453846 1.1602164 2.60819235 2.5820821 2.60819235 1.427709 0 2.5872761-1.17365389 2.5872761-2.60819235 0-1.43453847-1.1595671-2.59773077-2.5872761-2.59773077-1.4218657 0-2.5820821 1.1631923-2.5820821 2.59773077" fill="#fff"/><path d="m67.3255343 95.0116269c-.6401642 7.7382691-24.3314328 39.9800771-24.3314328 39.9800771l12.1657164 17.732961s21.7701269-37.077653 21.7701269-47.396z" fill="#e01919"/><g fill="#930d10"><path d="m66.1475284 98.8152462c-.8563657 2.0648458-2.2042165 4.6298848-3.8286493 7.4368458l10.4068881 12.716654c1.4173209-3.301923 2.5736418-6.356692 3.2767835-8.887077z"/><path d="m63.1479112 138.477685-12.4377537-14.219847c-1.688709 2.45127-3.2514627 4.671731-4.5337388 6.473731l12.7136865 15.536039c1.2517612-2.241385 2.7151791-4.903193 4.257806-7.789923"/><path d="m58.7907694 112.065242c-1.4153731 2.245308-2.9054104 4.527885-4.3844104 6.745077l11.6138507 14.191731c1.3686269-2.661808 2.7333582-5.398808 4.0091418-8.088077z"/><path d="m42.9944261 134.991377 3.6604926 5.335385c6.143888-8.551654 20.9988134-29.89777 24.5463358-41.1517697l-3.8753955-4.1636923c-.6408135 7.738269-24.3314329 39.980077-24.3314329 39.980077"/></g><path d="m54.5813978 128.787488-3.9617463-4.529846c-1.688709 2.45127-3.2514627 4.671731-4.5337388 6.474385l3.9909627 4.765231c1.404985-2.011231 2.8781418-4.285962 4.5045224-6.70977" fill="#540000"/><path d="m58.7064313 112.065896c-1.4153731 2.244654-2.9054104 4.527231-4.3844104 6.744423l3.8727985 4.629885c1.4906866-2.310692 2.9774776-4.680231 4.3935-7.032116z" fill="#540000"/><path d="m66.1519433 98.8204115c-.0779105.1804616-.1597164.3655-.2447687.5531539-.8589627 1.9628466-2.1379925 4.2761536-3.6202388 6.8372696l3.6312761 4.438961c1.5056194-2.730461 2.8236045-5.339308 3.8448806-7.701z" fill="#540000"/><path d="m55.1596881 152.724404s21.7701268-37.077654 21.7701268-47.395346l-1.8360895-1.972654c-.4668135 1.456115-1.1063284 3.188154-2.0003508 5.224231-2.523 5.744038-16.7968433 29.693769-22.4343134 37.58373z" fill="#930d10"/><path d="m58.8351784 146.23315c1.2420223-2.220462 2.7086865-4.881615 4.2617015-7.782077l-4.3000075-4.916923c-1.5802836 2.568962-3.1125224 5.008462-4.4967314 7.157z" fill="#540000"/><path d="m66.0105358 132.980015c1.3666791-2.652 2.735306-5.385077 4.0182314-8.076307l-3.5838806-4.097c-1.3725224 2.364307-2.8547687 4.871807-4.3597388 7.376692z" fill="#540000"/><path d="m72.7364149 118.968942c1.4179702-3.301923 2.5736418-6.357346 3.2767836-8.886423l-2.3879552-2.730461c-.1655597.3995-.3343657.803577-.522 1.228577-.5914702 1.347577-1.8347911 3.704038-3.4566269 6.613z" fill="#540000"/><path d="m18.6454634 95.0116269c.6401642 7.7382691 24.3320821 39.9800771 24.3320821 39.9800771l-12.1663656 17.732961s-21.77012691-37.077653-21.77012691-47.396z" fill="#e01919"/><path d="m19.8235343 98.8152462c.857015 2.0648458 2.2048657 4.6298848 3.8286493 7.4368458l-10.4068881 12.716654c-1.4166716-3.301923-2.5729925-6.356692-3.27678356-8.887077z" fill="#930d10"/><path d="m22.8238007 138.477685 12.4371045-14.219847c1.6893582 2.45127 3.252112 4.671731 4.5343881 6.473731l-12.7143358 15.536039c-1.2517612-2.241385-2.7151791-4.903193-4.2571568-7.789923" fill="#930d10"/><path d="m27.1808776 112.065242c1.4147239 2.245308 2.9047612 4.527885 4.3844105 6.745077l-11.6138508 14.191731c-1.3686269-2.661808-2.7333582-5.398808-4.0091418-8.088077z" fill="#930d10"/><path d="m42.9772858 134.991377-3.6604925 5.335385c-6.1445373-8.551654-20.9988134-29.89777-24.5463358-41.1517697l3.8753955-4.1636923c.6401642 7.738269 24.3314328 39.980077 24.3314328 39.980077" fill="#930d10"/><path d="m31.3896 128.787488 3.9623955-4.529192c1.688709 2.450616 3.2514627 4.671731 4.5337388 6.473731l-3.9909627 4.765231c-1.404985-2.011231-2.878791-4.285962-4.5051716-6.70977" fill="#540000"/><path d="m27.2652157 112.065896c1.4147239 2.244654 2.9047612 4.527885 4.3844104 6.744423l-3.8727985 4.629885c-1.4906866-2.310692-2.9774776-4.680231-4.3935-7.032116z" fill="#540000"/><path d="m19.8197037 98.8197577c.0779105.1811154.1597164.3661538.2447687.5538077.8583134 1.9621926 2.1379925 4.2761536 3.6202388 6.8372696l-3.6312761 4.438961c-1.5056194-2.730461-2.8236045-5.339961-3.8448806-7.701654z" fill="#540000"/><path d="m30.8113746 152.724404s-21.77012684-37.077654-21.77012684-47.395346l1.83608954-1.972654c.4674627 1.456115 1.1069776 3.188154 2.001 5.224231 2.523 5.744038 16.7968433 29.693769 22.4343134 37.58373z" fill="#930d10"/><path d="m27.1365336 146.23315c-1.2420224-2.220462-2.7086866-4.881615-4.2617015-7.782077l4.3000075-4.916269c1.5796343 2.568308 3.1118731 5.008461 4.4967313 7.156346z" fill="#540000"/><path d="m19.9611112 132.979362c-1.3673284-2.651347-2.7359552-5.384424-4.0182313-8.075654l3.5838805-4.097c1.3725224 2.364307 2.8547687 4.871807 4.3597389 7.376692z" fill="#540000"/><path d="m13.2352321 118.968942c-1.4179702-3.301923-2.5736418-6.357346-3.27678359-8.887077l2.38795519-2.729807c.1655597.3995.3343657.803577.5213508 1.228577.5921194 1.347577 1.8354403 3.704038 3.4572761 6.613z" fill="#540000"/><path d="m9.04111791 105.328862s-.46226866 9.758653 21.77012689 47.395346l12.1663656-17.732962 12.1819478 17.732962s22.7492015-39.505385 21.7701269-47.395346" stroke="#540000"/></g></g></svg>