<svg height="330" viewBox="0 0 230 330" width="230" xmlns="http://www.w3.org/2000/svg" xmlns:xlink="http://www.w3.org/1999/xlink"><mask id="a" fill="#fff"><path d="m0 .29119755h223.810967v106.55558945h-223.810967z" fill="#fff" fill-rule="evenodd"/></mask><g fill="none" fill-rule="evenodd" transform="translate(2 40)"><path d="m96.0373054 192.807227s-3.6672029-19.373343-1.1613994-21.184278c2.5051568-1.810281 33.913382-6.518189 47.515207-1.086038l1.608887 22.270316-41.877634 19.192773z" fill="#8a6111"/><path d="m185 207.872036s-2.270238-9.976171-18.152171-15.296882c-15.871549-5.324628-30.260758-11.336705-30.260758-22.689732v-29.885422h-19.265873-.038292-19.2658731v29.885422c0 11.353027-14.2542149 16.761873-30.1257638 22.087154-15.881933 5.320058-17.8912691 15.200259-17.8912691 15.200259s55.451447 17.135302 135 .699201" fill="#dbba9c"/><path d="m31.9985953 106.846787h2.2875349l24.2473489-35.450479s1.0275349 16.9243803 2.2484651 35.450479h110.5772088c1.553024-20.4008962 3.078047-39.5821232 3.078047-39.5821232l20.777953 39.5821232h1.676094 12.091441 14.828279c-15.699534-38.993295-36.480093-90.0231048-39.130325-93.5849576-4.325023-5.81410425-34.880837-12.97063185-34.880837-12.97063185l-10.136652 13.48922085-19.868279 47.007135-21.5573949-43.9415522-13.3136744-15.73753372s-27.832 6.33925767-30.716 7.79261964c-1.8493024.93280368-32.4871628 57.51348468-54.20800005 97.94569988" fill="#8a6111" mask="url(#a)" transform="translate(0 182)"/><path d="m187 61.7954612c0 55.4963718-19.597687 93.2045388-69.983363 93.2045388-50.3811157 0-69.016637-38.251903-69.016637-93.7476202 0-55.50684075 46.887485-61.2523798 69.866756-61.2523798 22.979923 0 69.133244 6.28862041 69.133244 61.7954612" fill="#e9cbac"/><path d="m102 96.4990401c0 7.4537479-6.2746624 13.5009599-14.0032821 13.5009599-7.7345274 0-13.9967179-6.047212-13.9967179-13.5009599 0-7.4550281 6.2621905-13.4990401 13.9967179-13.4990401 7.7286197 0 14.0032821 6.044012 14.0032821 13.4990401" fill="#8c7163"/><path d="m97 96.4961293c0 5.2441597-4.2583537 9.5038707-9.5006452 9.5038707-5.2474531 0-9.4993548-4.259711-9.4993548-9.5038707 0-5.2357735 4.2519017-9.4961293 9.4993548-9.4961293 5.2422915 0 9.5006452 4.2603558 9.5006452 9.4961293" fill="#2a1d01"/><path d="m84 92.993662c0 1.6535211-1.3464789 3.006338-2.9964789 3.006338-1.6570422 0-3.0035211-1.3528169-3.0035211-3.006338 0-1.6542254 1.3464789-2.993662 3.0035211-2.993662 1.65 0 2.9964789 1.3394366 2.9964789 2.993662" fill="#fff"/><path d="m135 96.4990401c0 7.4537479 6.274153 13.5009599 14.002954 13.5009599 7.734709 0 13.997046-6.047212 13.997046-13.5009599 0-7.4550281-6.262337-13.4990401-13.997046-13.4990401-7.728801 0-14.002954 6.044012-14.002954 13.4990401" fill="#8c7163"/><path d="m139 96.4961293c0 5.2441597 4.258354 9.5038707 9.500645 9.5038707 5.247453 0 9.499355-4.259711 9.499355-9.5038707 0-5.2357735-4.251902-9.4961293-9.499355-9.4961293-5.242291 0-9.500645 4.2603558-9.500645 9.4961293" fill="#2a1d01"/><path d="m140 92.993662c0 1.6535211 1.345775 3.006338 2.996479 3.006338 1.656338 0 3.003521-1.3528169 3.003521-3.006338 0-1.6542254-1.347183-2.993662-3.003521-2.993662-1.650704 0-2.996479 1.3394366-2.996479 2.993662" fill="#fff"/><path d="m142.528058 130.623829c-.90248-1.383574-6.355654-11.349638-12.515892-14.539015-5.582571-2.889942-11.967273.908812-11.967273.908812h-.090446s-6.384703-3.798754-11.967274-.908812c-6.1602372 3.189377-11.6134109 13.155441-12.5158913 14.539015-1.5692728 2.405986-3.4712817 3.180183-3.4712817 3.180183s1.7864755.372324 4.4767519.090619c3.4712817-.363131 18.8187301-4.224923 23.5232481-4.224923 4.705178 0 20.051966 3.861792 23.523248 4.224923 2.690276.281705 4.476752-.090619 4.476752-.090619s-1.902669-.774197-3.471942-3.180183" fill="#fff"/><path d="m140.187412 127.317718c-.636926-1.212105-1.327466-2.39514-2.049659-3.562627-1.473455-2.310637-3.110986-4.544884-5.150309-6.459373-.510315-.477271-1.049699-.928852-1.616214-1.354745-.292624-.202806-.582018-.408992-.892083-.588814l-.230611-.13926-.057491-.035153-.083976-.044617-.11046-.057462c-.155679-.078418-.275829-.153456-.458638-.231875-.720255-.336658-1.394647-.539464-2.124591-.677372-.720256-.133852-1.449554-.181849-2.169809-.157513-1.443741.050702-2.835803.406288-4.150996.900459-.658888.249452-1.296459.54352-1.919819.868686-.416004.221059-.812628.454962-1.213129.708469-.398563-.255535-.793896-.49079-1.207316-.713201-.620776-.328546-1.258347-.623291-1.915297-.872742-1.311963-.497551-2.705317-.849758-4.147765-.895727-1.437281-.044617-2.920425.217003-4.256934.848406-.691833.333277-1.232509.682104-1.845533 1.114757-.565869.423865-1.098793.880178-1.609754 1.354744-2.028342 1.913814-3.6607052 4.144005-5.1283462 6.449234-.7202551 1.164782-1.4082119 2.345114-2.0431991 3.554514-.6427389 1.203992-1.220235 2.443137-1.8054827 3.673494 1.5516169-2.226811 3.0399289-4.478634 4.7007146-6.573621.8177964-1.056619 1.6640154-2.082818 2.5586824-3.048851.890145-.970089 1.814526-1.894209 2.80092-2.712193.495458-.40426 1.00319-.784184 1.525779-1.124222.485768-.313673 1.076829-.6625 1.587791-.876798 1.074892-.454962 2.246679-.617207 3.423634-.534056 1.178247.077742 2.365538.369783 3.506964.826096.572329.225115 1.132384.493495 1.678227.790944.534216.291365 1.096855.640867 1.541928.970089l.628527.465102.627236-.46037c.449594-.329221 1.016109-.67602 1.553555-.967385.549719-.29542 1.112358-.5638 1.686624-.788915 1.147887-.45699 2.339699-.749031 3.523114-.835561.591707-.043266 1.181477-.028393 1.758973.054757.565868.078419 1.168557.24472 1.657555.448878.124026.043265.291332.134528.435383.199426l.111753.053405c.005814.002028.067827.032449.026485.011493l.049739.027717.200897.111543c.271306.139936.528402.317053.794541.475242.523235.343418 1.035488.717258 1.530946 1.124222.990916.817308 1.917235 1.744132 2.811902 2.715573.897897.967385 1.746054 1.996964 2.566434 3.054936 1.664661 2.101071 3.156849 4.359654 4.711696 6.592549-.587832-1.233061-1.16662-2.47491-1.812588-3.682282" fill="#e6e7e8"/><path d="m30 288.985488-16.9261297-25.985488c-1.7025345 3.118654-3.39713178 6.226095-5.0738703 9.301875l10.8773037 16.698125" fill="#877a45"/><path d="m38.5649419 284 6.4350581-9.203151-20.28578-30.796849c-1.8814872 3.383945-3.7922065 6.827511-5.71422 10.297938z" fill="#877a45"/><path d="m7 288.997818-3.7620188-6.997818c-1.09898883 2.375273-2.17935072 4.709818-3.2379812 7" fill="#877a45"/><path d="m223 288.990857-68.026451-104.502462c-3.560361-.930655-5.968186-1.488395-5.968186-1.488395l-3.005363 4.62454 65.99037 101.37546" fill="#877a45"/><path d="m140.737423 197-3.922787 5.97408-1.814636 4.211043 38.678522 58.814877c.774112-9.723469 1.321478-16.464796 1.321478-16.464796" fill="#877a45"/><path d="m128 288.992224-65.1574268-98.992224c-3.9639574.999856-7.1071517 1.864929-7.9791304 2.295198-.136575.068039-.4294233.430916-.8634428 1.060767l62.953842 95.644035" fill="#877a45"/><path d="m35.2243587 223c-1.6770491 3.136798-3.4229657 6.415214-5.2243587 9.808118l20.1488203 32.191882 5.8511797-8.806857z" fill="#877a45"/><path d="m171.541843 289c.153363-2.018187.306727-4.02402.458157-6.001245l-41.201272-63.998755-4.798728 11.374407 37.673914 58.519612" fill="#877a45"/><path d="m151 288.96336-30.503791-47.485247-.690386 1.640942-5.66608-11.535665-30.5659064-47.58339c-2.1268022.490712-6.1591207 1.428954-10.5738366 2.487584l65.852576 102.512416" fill="#877a45"/><path d="m171 190 32 50c-9.242943-22.653217-16.978226-41.076143-18.511385-43.151172-1.661295-2.248435-7.278842-4.69939-13.488615-6.848828" fill="#877a45"/><path d="m104 288.968859-55.3619283-85.968859c-1.647171 2.890887-3.5464667 6.273537-5.6380717 10.033117l48.9218173 75.966883" fill="#877a45"/><path d="m79 289-20-31c.260368 4.209428.7069893 11.385636 1.2431927 19.729219l7.2645249 11.25975" fill="#877a45"/><path d="m84 185.071403s18.038715 41.688056 36.257708 71.928597c16.526957-28.976278 32.742292-72.48636 32.742292-72.48636l-10.691755-4.51364-18.352913 24.553315-14.077113-5.77725-22.094319-15.346638z" fill="#65682f"/><path d="m67.4626269 290 40.6727841-67.754022.864589-1.441171-4.84079-9.804807-1.59061 2.649346-41.5686 69.246243c.1483269 2.270401.2999065 4.598396.45604 6.952571" fill="#65682f"/><path d="m91.1797082 289 28.8202918-47.052261-5.514589-10.947739-35.485411 57.933309" fill="#65682f"/><path d="m19.2489879 289 63.7510121-105c-2.7335386.619509-8.4307117 1.922503-14.1114494 3.28229l-61.8885506 101.5173" fill="#65682f"/><path d="m154 184.063738c-2.59338-.670247-4.261803-1.063738-4.261803-1.063738l-12.916343 20.146755-13.821854 32.853245z" fill="#65682f"/><path d="m138.890173 288.955837 50.109827-83.713879c-2.14166-4.874834-3.64153-8.053933-4.231179-8.846922-.340528-.457868-.860655-.924179-1.501801-1.395036l-56.26702 94" fill="#65682f"/><path d="m34.1187473 288.987129 24.0260141-34.765906s.244446 3.978928.6346567 10.165153l36.2205819-59.768864-6.0911567-9.617512-56.9088433 94" fill="#65682f"/><path d="m160.525621 289 12.040603-19.582176c.88872-11.30005 1.544216-19.462961 1.544216-19.462961l4.78272 9.013606 19.10684-31.552156c-1.55721-3.709236-3.033213-7.201426-4.404623-10.416313l-43.595377 71.994169" fill="#65682f"/><path d="m56 192c-.3714479.121938-.6576455.229037-.8430311.317426-.8937754.426461-8.2618403 12.690596-18.1569689 29.682574z" fill="#65682f"/><path d="m184 270.185979 5.768419 10.814021 18.231581-29.947184c-1.702508-4.105378-3.382226-8.143597-5.015025-12.052816z" fill="#65682f"/><path d="m196 289 16.128393-26c1.630858 3.879588 3.261061 7.766192 4.871607 11.611973l-8.913042 14.367615" fill="#65682f"/><path d="m139.569 193-.138-2" fill="#9e7525"/><path d="m91 183.733445s12.300464 11.387941 28.336809 11.617847c8.587651.123235 27.663191-12.351292 27.663191-12.351292l-27.14776 57z" fill="#fff"/><path d="m148.326534 115.80893c-12.429973 0-21.11144-7.771339-21.11144-18.898228 0-11.4257615 8.877901-19.7196318 21.11144-19.7196318 12.232887 0 21.111439 8.2938703 21.111439 19.7196318 0 11.126889-8.681467 18.898228-21.111439 18.898228m-61.5638119 0c-11.6897677 0-18.9513171-7.24089-18.9513171-18.898228 0-11.9793019 7.43847-19.7196318 18.9513171-19.7196318 11.1921785 0 23.2715619 7.5397622 23.2715619 19.7196318 0 11.829536-11.8328654 18.898228-23.2715619 18.898228m103.9844249-28.1434755c-1.01209-1.5900268-2.575755-2.6179363-4.646767-3.0560184-4.756042-1.0008592-13.551337 3.5006982-15.850003 4.7397315-3.133836-8.5346835-11.512197-14.3491676-21.923843-14.3491676-10.850696 0-19.510699 6.3040276-22.308256 15.4324971-6.597446-3.7797775-12.395498-1.3459148-14.883444.1108401-3.358239-9.7420484-14.1972268-15.5433372-24.3721119-15.5433372-9.9992654 0-17.3811469 5.5347449-20.0284513 14.3412505-2.3272862-1.2542079-11.0881075-5.7320138-15.8343926-4.7318144-2.0710116.4380821-3.6346774 1.4659916-4.6467672 3.0560184-1.9018963 2.9854239-1.0836386 6.8549291-1.0472138 7.0178903l2.1087373-.4723897c-.0065044-.0310088-.6536955-3.1596011.7590674-5.3665055.6966248-1.0892674 1.7653032-1.7734408 3.2671769-2.0907864 3.7849298-.785117 11.9362857 3.1444266 14.8470196 4.7779977-.3408323 1.6982279-.5366157 3.4881627-.5366157 5.3790411 0 13.008531 8.0889133 21.089298 21.1114394 21.089298 12.50022 0 25.4310339-7.888117 25.4310339-21.089298 0-1.4587342-.16131-2.8541312-.450107-4.1894899 1.705462-1.1248945 7.284315-4.0931645 13.725655-.0712543-.26473 1.3729651-.414332 2.7934331-.414332 4.2607442 0 12.417384 9.569973 21.089298 23.271562 21.089298 13.701588 0 23.270911-8.671914 23.270911-21.089298 0-1.892198-.254324-3.7025854-.690771-5.4318221 2.981632-1.6632604 11.000298-5.5070349 14.752705-4.7252167 1.501224.3173456 2.569902 1.001519 3.267177 2.0907864 1.412763 2.2069044.765572 5.3354967.759068 5.3645262l2.108737.474369c.035774-.1629612.854682-4.0324664-1.047214-7.0178903" fill="#6d3926"/><path d="m52.4345323 89.5458077s-6.5984304-3.7135866-9.5307719.3710232c-2.9316792 4.0852807 1.8330445 17.0831691 6.2322189 17.0831691 4.39785 0 5.8640207-4.828669 5.8640207-4.828669z" fill="#e9cbac"/><path d="m184.566129 89.5458077s6.597765-3.7135866 9.530105.3710232c2.931677 4.0852807-1.833044 17.0831691-6.231554 17.0831691s-5.86468-4.828669-5.86468-4.828669z" fill="#e9cbac"/><path d="m81.8413484 5.47397206s5.864 19.11131274 3.6654139 25.60183674c-2.1992483 6.4905239-21.9931454 11.5387091-26.0247695 23.4376772-4.0322864 11.8996196-10.6293691 28.486514-10.6293691 28.486514s-5.28654-20.2122849-1.4661656-38.9431434c4.4561102-21.8513654 19.0601521-42.46625431 34.4548903-38.58288454" fill="#e6e7e8"/><path d="m153.158652 5.47397206s-5.864 19.11131274-3.665414 25.60183674c2.199248 6.4905239 21.993145 11.5387091 26.024769 23.4376772 4.032287 11.8996196 10.629369 28.486514 10.629369 28.486514s5.28654-20.2122849 1.466166-38.9431434c-4.45611-21.8513654-19.060152-42.46625431-34.45489-38.58288454" fill="#e6e7e8"/><path d="m141.858744 27.3587748s3.224988 9.1911678-21.144032 13.786113c-24.3690194 4.5949453-50.8888939-1.7677287-62.714712 20.8551122 0 0 2.8669435-19.088022 22.2188119-31.1064063 19.3525158-12.0183842 45.8717431-8.4835653 45.8717431-8.4835653s-13.976673-7.0696378-37.2709127.7069637c0 0 30.4615977-16.26080552 53.0391017 4.2417827" fill="#fff"/><path d="m147.98523 28.6593953s-.032114.159634-.145497.510316c-.111416.3461943-.277885.8052223-.558392 1.3738785-.26019.5769905-.656046 1.2277076-1.122684 1.9649732-.519069.6987996-1.078772 1.5104329-1.830504 2.2733426-.689471.8212498-1.597842 1.5469756-2.498348 2.3707898-1.002091.6987997-1.977967 1.5514634-3.152427 2.1874351-.5715.3404244-1.152176.6866187-1.739405 1.0379418-.616722.2974707-1.239998.5981469-1.869173.9020285-1.23541.6539226-2.585514 1.1014108-3.902848 1.6181378-1.304882.5551931-2.698897.8552282-4.024752 1.2770723-1.324543.4353073-2.678579.6725145-3.971664.9635742-1.294396.2859308-2.544225.5667329-3.752764.7109805-1.201331.1775849-2.337122.3455532-3.385746.5000584-1.044692.1795082-2.021223.1987412-2.876508.292983-.85725.0737266-1.60505.1378366-2.220462.191048-1.230822.1064226-1.934056.166045-1.934056.166045s.701923-.0769321 1.930124-.2122043c.613445-.0666744 1.358624-.1487353 2.213908-.2429771.852007-.1134748 1.824606-.1557874 2.8634-.3596574 1.04207-.1788671 2.171308-.3731205 3.364773-.5782727 1.20002-.171815 2.438052-.4808254 3.719995-.7962469 1.278666-.3199092 2.618284-.5872481 3.92251-1.0501227 1.304882-.4500526 2.679235-.7782961 3.95528-1.3591332 1.289808-.5410889 2.61173-1.01358 3.811094-1.6867356.610168-.312857 1.215749-.6225086 1.81412-.9289547.566257-.3564519 1.126616-.7090572 1.677143-1.0558926 1.133825-.6481526 2.058581-1.5014575 3.016106-2.199616.849386-.8193265 1.711224-1.5373591 2.348918-2.340017.703889-.7475233 1.213128-1.5322304 1.689596-2.2034626.422072-.7052107.778604-1.3232316 1.005369-1.861115.24315-.5237791.391268-.9687029.471225-1.2398884.083235-.2679801.117315-.4487704.117315-.4487704.053742-.2891364.336871-.4808254.632452-.4282552s.491542.3301668.4378.6193031c0 .0012822-.000655.0019233-.000655.0032055z" fill="#fff"/><path d="m154.968259 7.21383627s-5.072094 20.57323613 1.068046 25.98748593c6.139497 5.4129455 16.549251 5.1423309 22.688748 15.9708304 0 0 .533702-4.0605243-.266851-10.0160034 0 0 6.406349 8.66293 8.541798 20.8438508 0 0-.434034-40.7239221-24.824198-51.9743197-2.379151-1.09680454-5.605795-1.21809208-7.207543-.81184403" fill="#fff"/><path d="m81.0315948 7.21383627s5.072071 20.57323613-1.0673984 25.98748593c-6.1394693 5.4129455-16.549818 5.1423309-22.6892874 15.9708304 0 0-.5336991-4.0605243.2668496-10.0160034 0 0-6.4063189 8.66293-8.5417586 20.8438508 0 0 .4340324-40.7239221 24.8247271-51.9743197 2.3784978-1.09680454 5.6051272-1.21809208 7.2068677-.81184403" fill="#fff"/><path d="m81.8105991 8s1.0807228 15.1780875-10.4441675 19.464447c-11.5242396 4.2857143-15.8451789 6.7860369-18.3664316 15.535553 0 0 4.681397-8.7495161 11.3440107-11.0711059 6.6632644-2.3215899 13.5054563-2.5003227 15.3057934-7.3215899 0 0-1.260301 6.2498387-13.1443478 11.6073041 0 0 12.243854-2.8571428 13.8646128-5.8930184 1.6207589-3.0358756 4.141361-10 1.44053-22.3215899" fill="#e6e7e8"/><path d="m155.189272 8s-1.080077 15.1780875 10.444214 19.464447c11.524291 4.2857143 15.845901 6.7860369 18.366514 15.535553 0 0-4.681418-8.7495161-11.344062-11.0711059-6.662643-2.3215899-13.504866-2.5003227-15.305862-7.3215899 0 0 1.260958 6.2498387 13.145058 11.6073041 0 0-12.24456-2.8571428-13.865326-5.8930184-1.620115-3.0358756-4.141379-10-1.440536-22.3215899" fill="#e6e7e8"/><path d="m107.876255 288.729661-4.876255.270339 61.602767-102 6.229574 2.163366 2.167659 2.681245-58.536592 97.040088" fill="#65682f"/><path d="m140.861734 27.1632924c-.194023-.2070756-.519799-.2187968-.728898-.0260472l-.050472.0462338c-1.016.9390032-2.336143 1.747119-3.624169 2.4575576-1.305067.7189039-2.68486 1.3114787-4.077107 1.8649827-1.400769.5385268-2.828412 1.0112843-4.276375 1.4215284-.715788.2305181-1.456485.3802897-2.184727.5704346-.728897.1920985-1.463695.3561961-2.206357.4935953-1.473527.3210323-2.965408.5541551-4.4586.7775103-1.492536.2285645-3.000148.3574984-4.501205.5313638-1.509579.0957236-3.01588.2376811-4.526114.3184275-1.521377.0794441-3.027023.1419575-4.544468.1784237-3.030956.0833511-6.0645334.0735834-9.0994223.0227913-3.0361998-.0449315-6.0730552-.1686559-9.1210537-.1426087-3.0407882.0338614-6.1235274.1934008-9.0843466.9806788-2.9680296.7579748-5.7151611 2.2081552-8.1175084 4.0523001 2.4685511-1.758189 5.2392801-3.1048316 8.1843677-3.7885718 2.9437767-.7032756 5.9911197-.7853244 9.0155208-.7429976 3.0303005.0514433 6.0658449.1986102 9.1059776.2975898 3.0401328.0976771 6.0848539.1543299 9.1308859.1172126 3.047999-.0208378 6.088131-.1536788 9.137441-.3763827 1.517444-.1673536 3.041444-.2897756 4.552989-.5137819 1.513511-.2174945 3.024401-.4454079 4.522181-.7638355.752495-.1354456 1.500402-.2982409 2.242409-.4896882.741352-.1894937 1.493191-.337963 2.225367-.5691323 1.476149-.4102441 2.93591-.8843039 4.372075-1.4286913 1.430921-.5587134 2.849387-1.1604048 4.206893-1.898193.888181-.4909906 1.750797-.9956559 2.583261-1.5895331-.104877.2370299-.219587.4708039-.350028.6856937-.408366.6726701-.913744 1.2991063-1.487292 1.8682386-1.153651 1.1363111-2.526234 2.0740119-3.976164 2.8710576-2.918868 1.5804166-6.126804 2.6450977-9.372759 3.4935867-3.258409.8250464-6.583677 1.4124118-9.926643 1.8610756-1.672138.2246575-3.350176.4037323-5.032147.5665276-1.682626.1360968-3.356076.2995433-5.051812.3959181l-5.0734427.3314512c-1.6937695.1035378-3.386228.2220527-5.0754092.392011-1.6911475.1491205-3.3816396.3008457-5.0655769.5183402l-2.5288556.2995433-2.5190233.3757315c-1.6826263.226611-3.3462435.5854118-5.0151047.888211-1.6583734.3711733-3.3174022.7312764-4.9495563 1.2014292-1.6380534.449315-3.2498875.9943536-4.8223925 1.6338134-1.5410419.6746237-3.1338669 1.4104583-4.2940728 2.6529119 1.1995349-1.2001268 2.8048141-1.8734481 4.3602766-2.4940237 1.5790599-.5958307 3.1941714-1.0972402 4.8341912-1.502926 1.634776-.4271748 3.2964269-.7429976 4.9541448-1.0698906 1.6701721-.262426 3.3324784-.5684811 5.0124827-.7644866l2.513124-.3353583 2.5242672-.2591701c1.6800043-.1914472 3.3665635-.316474 5.0544337-.438896 1.6852482-.1426087 3.3737738-.2350764 5.0642659-.312567l5.0760649-.2533094c1.689181-.0690252 3.392783-.2038197 5.086552-.3399166 1.693114-.1556323 3.384917-.3281953 5.072132-.5456897 3.374429-.4356402 6.73706-1.0125867 10.050529-1.8337261 3.303637-.8471866 6.583677-1.9105654 9.632331-3.5411229 1.515478-.8230929 2.971307-1.8005158 4.233113-3.0305969.62992-.6153662 1.194947-1.3095252 1.655751-2.0831284.445729-.798348.820666-1.5882307.876341-2.6568189.00594-.132841-.039944-.269589-.138266-.3750804" fill="#e6e7e8"/><path d="m115.383463 32.8990673c1.394356-.1060111 2.796414-.1466381 4.188201-.3072418l2.091533-.2151962 2.079977-.3129549c.693968-.1015676 1.386652-.2151962 2.073558-.3573908.687548-.1383857 1.380231-.2526492 2.065212-.4113485l2.052372-.4767325 2.035681-.5541779c1.344282-.4164268 2.676366-.8741155 3.980846-1.4130582.654807-.262806 1.298059-.5548126 1.938102-.8563412.638116-.3250161 1.256974-.6259099 1.88867-1.0378932l.019901-.0133307c.057136-.0368182.105925-.0882368.142517-.1504469.124542-.2151962.04879-.4894285-.168837-.6125792l-.98157-.5554474c-.324836-.1898043-.677276-.3161289-1.013668-.4767326-.337675-.1618732-.68498-.2932762-1.03742-.4081745-.352441-.1142634-.69782-.2545536-1.05668-.3427904-.709375-.2082134-1.423886-.3897653-2.144174-.5364035-.717721-.15616-1.441861-.2805803-2.166001-.3904001-1.446996-.2323358-2.90619-.3510428-4.365384-.4138877-1.45791-.0628449-2.916462-.0869672-4.371804 0 1.454058.0730016 2.901697.1955175 4.341631.3637387.720289.0818888 1.437367.1885347 2.151236.300259.715153.1060111 1.427737.2253529 2.135186.3662779.707449.1402901 1.411689.2945458 2.105656.478637.697178.1752039 1.382158.3840522 2.058151.6151183.343453.1009327.666363.25011.99826.3757998.331898.1288638.663795.2539189.97836.4126181.313922.1567949.649672.2812151.947545.4627671l.224689.1320378c-.364638.1929783-.738906.381513-1.109963.5617953-.623351.2824847-1.251196.5567171-1.893807.8030183-1.276233.509742-2.591626.9268037-3.910228 1.3305346l-1.98946.5738565-2.01257.4995853c-.671499.1669516-1.35327.2894675-2.029904.4367404-.675993.1504469-1.357121.2729627-2.042101.3834174-1.364183.246936-2.736711.4405491-4.110523.6424146-1.371886.2209094-2.758537.3243813-4.138769.4938721l-4.160597.3573907c-1.391145.0755409-2.782932.1479078-4.177287.2482057 1.394355.0533229 2.791278.0787148 4.189485.1053763 1.396923-.0215831 2.796414-.0285659 4.193978-.1009327" fill="#e6e7e8"/><g fill="#9e7525"><path d="m114 251.431206-6.222579-9.431206-5.777421 9.784095 6.133291 9.215905z"/><path d="m90 213.405623-6.1902352-9.405623-5.8097648 9.539163 6.1340367 9.460837z"/><path d="m72.7935477 223-5.7935477 9.453236 6.250255 9.546764 5.749745-9.551853z"/><path d="m67 252.405305-6.1895893-9.405305-5.8104107 9.538841 2.5806104 3.897584 1.1627281-1.687819.1582603 3.807704 2.2324379 3.44369z"/><path d="m103 270.494622-6.1222782-9.494622-5.8777218 9.456023 6.1222782 9.543977z"/><path d="m91.8843745 289 .1156255-.176389-6.2225791-8.823611-5.7774209 8.905847"/><path d="m85.6298176 242-5.6298176 10.111935 5.3695553 8.888065 5.6304447-10.11261z"/><path d="m78 269.974756-5.4141306-8.974756-5.5858694 10.059455 5.4458649 8.940545z"/><path d="m65.7447529 288.964299.2552471-.408295-5.7975626-8.556004-1.2024374 1.925929.5091401 7.074071"/><path d="m114.340208 288.969407.659792-1.149777-5.541887-8.81963-5.458113 9.525175.289232.474825"/><path d="m126 270.069403-5.541887-9.069403-5.458113 9.794274 5.458113 9.205726z"/><path d="m138 250.069403-5.542195-9.069403-5.457805 9.794274 5.457805 9.205726z"/><path d="m149 230.069061-5.542195-9.069061-5.457805 9.794612 5.457805 9.205388z"/><path d="m161 211.069716-5.541887-9.069716-5.458113 9.794612 5.458113 9.205388z"/><path d="m172 191.938466-2.030741-2.733189-5.838457-2.205277-3.130802 5.673558 5.458113 9.326442z"/><path d="m138.637078 289 .362922-.588908-6.152637-9.411092-5.847363 9.428245.283.439616"/><path d="m150 250.458574 6.118906 9.541426 5.881094-9.557997-6.152973-9.442003z"/><path d="m162 230.458574 6.118906 9.541426 5.881094-9.557359-6.152973-9.442641z"/><path d="m185 211.441999-6.152973-9.441999-5.847027 9.458571 6.118906 9.541429z"/><path d="m150 270.516758-6.151255-9.516758-5.848745 9.45099 6.184291 9.54901z"/><path d="m160.814447 289 1.185553-2.002614-5.291195-7.997386-5.708805 9.224594.429033.737445"/><path d="m174 250.111935 5.370489 8.888065 5.629511-10.111935-5.369234-8.888065z"/><path d="m196 229.888065-5.370489-8.888065-5.629511 10.11261 5.369234 8.88739z"/><path d="m102 231.88739-5.3704886-8.88739-5.6295114 10.111935 5.3692343 8.888065z"/><path d="m77 194.324998-4.7643257-7.324998-3.2488152.83143-3.9868591 6.667618 6.1370099 9.500952z"/><path d="m66 212.500319-6.1139686-9.500319-5.8860314 9.582703 6.2849216 9.417297z"/><path d="m43 233.516964 6.161536 9.483036 5.838464-9.572016-6.1724767-9.427984z"/><path d="m31 251.472475 6.1401809 9.527525 5.8598191-9.571693-6.1957364-9.428307z"/><path d="m19 271.521983 6.2342594 9.478017 5.7657406-9.390087-6.1666845-9.609913z"/><path d="m19 288.949206-5.7155717-8.949206-5.2844283 9"/><path d="m186 267.458574 6.119561 9.541426 5.880439-9.557997-6.152318-9.442003z"/><path d="m205.058966 243.023582-1.638428-4.023582-5.420538 9.458254 5.672557 9.541746 4.327443-7.657106z"/><path d="m209.455206 288.975098 1.544794-2.515696-6.152318-9.459402-5.847682 9.476003 1.616204 2.523997"/><path d="m213.222539 263-3.222539 5.315047 6.084847 9.684953 1.915153-3.541855z"/><path d="m163 269.111935 5.246002 8.888065 4.504013-8.281861.249985-3.094403-4.499724-7.623736z"/></g><path d="m199 286.432648-1.652492 2.478226-1.675426.089126-4.672082-8.961368 1.874184-3.038632z" fill="#877a45"/><path d="m179.689272 259 6.310728 8.792976-1.355419 2.207024-5.644581-10.240493z" fill="#877a45"/><path d="m93.1007471 172.085378c0 13.390034 25.3840319 23.614164 25.3840319 23.614164s22.413823-7.690491 22.413823-24.699542l8.101398 12.214426c0 8.323411-23.494313 24.428198-23.494313 24.428198l-7.020908-11.943082-6.750297 13.300458s-26.734482-13.662032-26.734482-25.242885z" fill="#efeff0"/></g></svg>