<svg height="330" viewBox="0 0 230 330" width="230" xmlns="http://www.w3.org/2000/svg" xmlns:xlink="http://www.w3.org/1999/xlink"><linearGradient id="a"><stop offset="0" stop-color="#efb697"/><stop offset="1" stop-color="#f2d8a5"/></linearGradient><radialGradient id="b" cx="50.00141%" cy="49.999082%" gradientTransform="matrix(.999973 0 0 1 .000014 0)" r="50.000673%" xlink:href="#a"/><radialGradient id="c" cx="50.001166%" cy="49.999082%" r="50.000673%" xlink:href="#a"/><mask id="d" fill="#fff"><path d="m0 .3904805h216.744553v142.2775695h-216.744553z" fill="#fff" fill-rule="evenodd"/></mask><mask id="e" fill="#fff"><path d="m0 .19309046h216.744553v83.19280164h-216.744553z" fill="#fff" fill-rule="evenodd"/></mask><mask id="f" fill="#fff"><path d="m.6 12.4276316c0 6.7289473 5.45921053 12.1875 12.1927632 12.1875 6.7282894 0 12.1921052-5.4585527 12.1921052-12.1875 0-6.73815792-5.4638158-12.19671055-12.1921052-12.19671055-6.73355267 0-12.1927632 5.45855263-12.1927632 12.19671055" fill="#fff" fill-rule="evenodd"/></mask><mask id="g" fill="#fff"><path d="m.22894737 12.4276316c0 6.7289473 5.46907895 12.1875 12.19736843 12.1875 6.7282895 0 12.1868421-5.4585527 12.1868421-12.1875 0-6.73815792-5.4585526-12.19671055-12.1868421-12.19671055-6.72828948 0-12.19736843 5.45855263-12.19736843 12.19671055" fill="#fff" fill-rule="evenodd"/></mask><mask id="h" fill="#fff"><path d="m.13415784.48748987h186.59798216v99.25301643h-186.59798216z" fill="#fff" fill-rule="evenodd"/></mask><g fill="none" fill-rule="evenodd"><g transform="translate(9 16)"><path d="m162.565322 25.4044241s-17.747081-34.2592241-74.0471773-22.63536103c-56.3007477 11.62386303-72.8233753 66.68265563-70.9876726 98.49502493 1.8357027 31.812369 8.983018 50.685593 23.6842793 72.844091 14.5057657 21.861436 8.1378258 36.052021-2.8776937 39.722303 0 0 63.0323093 44.65966 128.5122223.612365 0 0-15.911378-4.894361-14.075024-17.741651 1.835703-12.847291 25.089892-28.75315 39.164916-55.671809 14.075675-26.918009 20.194684-102.7776725-29.37385-115.6249629" fill="#4c360d"/><path d="m170.251162 59.4752481s.982691-1.7263485-13.918627-6.6884605c-14.892847-4.9653693-30.866784-11.3346183-30.866784-21.9220208v-30.4742863h-17.093475-17.0934742v30.4742863c0 10.5874025-15.9732853 16.9566515-30.8661321 21.9220208-14.90197 4.962112-13.9192793 6.6884605-13.9192793 6.6884605l-46.4933904 83.1930619h30.1297658l26.8421831-41.595228s6.6833394 14.417291 11.0872013 41.595228h40.3131258 40.313126c4.403862-27.177937 11.087853-41.595228 11.087853-41.595228l26.842183 41.595228h30.129115z" fill="#eacb8c" mask="url(#d)" transform="translate(0 171.33195)"/><path d="m170.251162.19309046-61.472255 54.87638584-62.2855166-54.87638584-46.4933904 83.19306224h30.1297658l26.8421831-41.5952282s6.6833394 14.4172904 11.0872013 41.5952282h40.3131258 40.313126c4.403862-27.1779378 11.087853-41.5952282 11.087853-41.5952282l26.842183 41.5952282h30.129115z" fill="#f4d89a" mask="url(#e)" transform="translate(0 230.614108)"/><path d="m84.2000402 251.19114h48.3447328l-20.194685 38.541872z" fill="#c42c76"/><path d="m179.664466 91.314327c0 51.635411-24.294225 93.948539-71.396258 93.948539-47.097472 0-73.2528143-42.763933-73.2528143-94.3986926 0-51.6451825 26.9497057-56.894585 74.0471773-56.894585 47.102033 0 70.601895 5.7002075 70.601895 57.3447386" fill="#f4d89a"/><path d="m91.492348 121.501909c0 7.09171-5.8212042 12.844033-12.9913273 12.844033-7.1753363 0-12.9848108-5.752323-12.9848108-12.844033 0-7.092361 5.8094745-12.842079 12.9848108-12.842079 7.1701231 0 12.9913273 5.749718 12.9913273 12.842079" fill="#00ade9"/><path d="m88.1510042 121.498717c0 4.949083-4.0187357 8.969846-8.9667267 8.969846-4.9532042 0-8.9667267-4.020763-8.9667267-8.969846 0-4.940614 4.0135225-8.961378 8.9667267-8.961378 4.947991 0 8.9667267 4.020764 8.9667267 8.961378" fill="#234471"/><path d="m75.405936 116.854579c0 1.429286-1.1645015 2.598643-2.5916186 2.598643-1.4323303 0-2.5968318-1.169357-2.5968318-2.598643s1.1645015-2.58822 2.5968318-2.58822c1.4271171 0 2.5916186 1.158934 2.5916186 2.58822" fill="#fff"/><path d="m80.1272174 152.967576c8.8878769 5.386207 18.401991 8.712522 28.0451326 8.588746 9.700486 0 18.994994-3.752365 28.236066-8.588746-3.394454 4.000568-7.639313 7.317112-12.454367 9.70729-4.804627 2.427311-10.245267 3.751714-15.734129 3.837763-5.483649.009714-10.9627356-1.213713-15.8005975-3.603892-4.8339519-2.351742-9.1987147-5.668286-12.2921051-9.941161" fill="#c42c76"/><path d="m152.147171 49.9668461s-2.173909 16.1605767 6.631208 40.0740871c9.6666 26.2535268 20.070219 35.9406228 29.861285 29.0072158 0 0-10.576958 3.609046-7.649087-7.647398 3.977682-15.2941456 12.161775-41.1346518-.102309-58.8320045-10.550892-15.2257428-21.950886-12.7880083-21.950886-12.7880083s-9.179165-31.20000418-50.669174-31.60260169c-59.5968023-.57848962-100.48533683 74.42712029-69.5807572 126.12181349 0 0-10.0927808-39.7288176 11.0148678-42.2121537 21.1037388-2.4826847 96.6601414-28.8769253 102.4448524-43.3632697" fill="#5f3f12"/><path d="m154.910956 54.1039589s-7.860873 15.2889336-34.220834 28.1955062c-20.9499493 10.2577677-45.1066761 11.9072449-68.3615169 11.2948797 0 0-7.9553634 13.4590042-7.3434625 35.4833032.6119009 22.024298 11.7551442 45.293523 11.7551442 45.293523s-43.4495255-65.459229-9.4854415-118.3786519c39.7155616-61.88014939 101.5853247-31.5061867 111.0717007-13.1528216 0 0 .1509 5.9236556-3.41559 11.2642614" fill="#754b1d"/><g fill="#a26527"><path d="m97.7033703 80.7422336s31.2629877-6.8298257 44.9646157-30.7224896c0 0-9.002568 10.2427842-22.484589 15.3612448 0 0 9.562337-8.0245892 11.392826-12.3144025 0 0-26.113637-.2553693-46.2842101 13.7143735 0 0 21.1943181-24.8268465 64.4470451-23.8939669 0 0-5.168249 29.4743071-52.0356877 37.8552407"/><path d="m151.714084 41.0220805c-7.181201-2.5139544-14.477093-4.2578921-21.772985-5.6226846-7.310228-1.2618631-14.672589-2.0025644-21.997153-1.7804191-14.7012616.2293112-29.0291265 4.4064232-42.2152977 12.0609875 5.4308649-5.3438631 12.0092883-9.6975187 19.2765076-12.498112 7.2294234-2.8989627 15.0362101-4.3067511 22.8195371-4.5223818 15.547757-.2214937 31.114412 3.986888 43.889391 12.36261"/><path d="m174.581387 88.0831237c-2.514723-3.1041702-4.547225-6.5666391-6.416162-10.1085851-1.836354-3.5725643-3.312997-7.3360042-4.499003-11.2167054-2.246895-7.7379502-4.688633-23.9180705-4.688633-23.9180705s12.281027 3.2865767 17.166459 12.5228672c4.886084 9.2375933 4.579808 19.6373776 4.579808 19.6373776s-2.672424-9.3222822-6.731562-15.5996764c-4.059138-6.2780456-8.074615-7.3750913-9.791066-9.1770083 0 0 1.533988 9.6473569 3.059505 17.1299378 1.554189 7.4969128 4.408423 13.3436971 7.320654 20.7298631"/></g></g><path d="m.6 12.4276316c0 6.7289473 5.45921053 12.1875 12.1927632 12.1875 6.7282894 0 12.1921052-5.4585527 12.1921052-12.1875 0-6.73815792-5.4638158-12.19671055-12.1921052-12.19671055-6.73355267 0-12.1927632 5.45855263-12.1927632 12.19671055" fill="url(#b)" mask="url(#f)" transform="translate(64 149)"/><path d="m.22894737 12.4276316c0 6.7289473 5.46907895 12.1875 12.19736843 12.1875 6.7282895 0 12.1868421-5.4585527 12.1868421-12.1875 0-6.73815792-5.4585526-12.19671055-12.1868421-12.19671055-6.72828948 0-12.19736843 5.45855263-12.19736843 12.19671055" fill="url(#c)" mask="url(#g)" transform="translate(141 149)"/><g transform="translate(24 125)"><path d="m111.301879 13.3699867c0 7.0965696 5.820456 12.8528355 12.989658 12.8528355 7.175066 0 12.983143-5.7562659 12.983143-12.8528355 0-7.09722151-5.808077-12.85087974-12.983143-12.85087974-7.169202 0-12.989658 5.75365823-12.989658 12.85087974" fill="#00ade9"/><path d="m114.643054 13.3667924c0 4.9524747 4.01822 8.9759937 8.965575 8.9759937 4.952568 0 8.965575-4.023519 8.965575-8.9759937 0-4.94399999-4.013007-8.96751898-8.965575-8.96751898-4.947355 0-8.965575 4.02351899-8.965575 8.96751898" fill="#234471"/><path d="m115.150495 8.71947152c0 1.43026578 1.1637 2.60042408 2.591286 2.60042408 1.432146 0 2.595847-1.1701583 2.595847-2.60042408 0-1.43026582-1.163701-2.58999367-2.595847-2.58999367-1.427586 0-2.591286 1.15972785-2.591286 2.58999367" fill="#fff"/><path d="m98.5718049 108.763632c0 2.648013-2.1456133 4.794715-4.7929338 4.794715-2.6473206 0-4.7929338-2.146702-4.7929338-4.794715 0-2.648664 2.1456132-4.795367 4.7929338-4.795367 2.6473205 0 4.7929338 2.146703 4.7929338 4.795367" fill="#00ade9"/><path d="m96.7462418 107.641258c0 .681234-.5525296 1.234696-1.2340697 1.234696-.6808885 0-1.2334181-.553462-1.2334181-1.234696 0-.681886.5525296-1.234696 1.2334181-1.234696.6815401 0 1.2340697.55281 1.2340697 1.234696" fill="#fffeef"/><path d="m88.9862631 108.049347c0 2.254266-1.826345 4.08219-4.0801185 4.08219-2.253122 0-4.0794669-1.827924-4.0794669-4.08219 0-2.254918 1.8263449-4.08219 4.0794669-4.08219 2.2537735 0 4.0801185 1.827272 4.0801185 4.08219" fill="#00ade9"/><path d="m87.432469 107.093794c0 .580841-.4704321 1.050209-1.0503275 1.050209-.5798955 0-1.0503276-.469368-1.0503276-1.050209 0-.580842.4704321-1.050209 1.0503276-1.050209.5798954 0 1.0503275.469367 1.0503275 1.050209" fill="#fffeef"/><path d="m81.2501969 105.600294c0 2.037183-1.6504216 3.687791-3.6865715 3.687791-2.0354982 0-3.6859198-1.650608-3.6859198-3.687791 0-2.036532 1.6504216-3.687791 3.6859198-3.687791 2.0361499 0 3.6865715 1.651259 3.6865715 3.687791" fill="#00ade9"/><path d="m79.8458725 104.737049c0 .524779-.4248223.949165-.948683.949165-.5238606 0-.9486829-.424386-.9486829-.949165 0-.524126.4248223-.949164.9486829-.949164.5238607 0 .948683.425038.948683.949164" fill="#fffeef"/><path d="m75.5753659 101.008971c0 1.77512-1.4386621 3.214513-3.21223 3.214513-1.7742195 0-3.2128815-1.439393-3.2128815-3.214513 0-1.7751204 1.438662-3.2145128 3.2128815-3.2145128 1.7735679 0 3.21223 1.4393924 3.21223 3.2145128" fill="#00ade9"/><path d="m74.3517864 100.256484c0 .456981-.3700906.827912-.8268397.827912s-.8268397-.370931-.8268397-.827912c0-.4563289.3700906-.8272593.8268397-.8272593s.8268397.3709304.8268397.8272593" fill="#fffeef"/><path d="m98.4187516 107.130691c0 2.254266 1.8263454 4.08219 4.0801184 4.08219 2.253122 0 4.079467-1.827924 4.079467-4.08219s-1.826345-4.08219-4.079467-4.08219c-2.253773 0-4.0801184 1.827924-4.0801184 4.08219" fill="#00ade9"/><path d="m102.008761 105.294032c0 .580841.470432 1.05086 1.050327 1.05086.579896 0 1.050328-.470019 1.050328-1.05086 0-.58019-.470432-1.050209-1.050328-1.050209-.579895 0-1.050327.470019-1.050327 1.050209" fill="#fffeef"/><path d="m106.155144 104.68229c0 2.036532 1.650421 3.687791 3.685919 3.687791 2.03615 0 3.68592-1.651259 3.68592-3.687791 0-2.037184-1.64977-3.687791-3.68592-3.687791-2.035498 0-3.685919 1.650607-3.685919 3.687791" fill="#00ade9"/><path d="m108.782787 102.798498c0 .524779.424822.949165.949334.949165.523861 0 .948683-.424386.948683-.949165 0-.524126-.424822-.949164-.948683-.949164-.524512 0-.949334.425038-.949334.949164" fill="#fffeef"/><path d="m111.829649 100.090315c0 1.775772 1.438662 3.214513 3.212881 3.214513 1.773568 0 3.21223-1.438741 3.21223-3.214513 0-1.7751201-1.438662-3.2138606-3.21223-3.2138606-1.774219 0-3.212881 1.4387405-3.212881 3.2138606" fill="#00ade9"/><path d="m113.869317 98.5223032c0 .4563291.370091.8272595.82684.8272595s.82684-.3709304.82684-.8272595c0-.456981-.370091-.8279114-.82684-.8279114s-.82684.3709304-.82684.8279114" fill="#fffeef"/><path d="m154.525789 15.093281c-6.969171-4.7086645-28.615561-12.06468986-33.112032-14.60579113-2.144962 17.58170883-27.8538779 60.07246833-27.8538779 60.07246833h-.1211916-.0110767-.1211916s-25.7089164-42.4907595-27.8538781-60.07246833c-4.4958188 2.54110127-26.142209 9.89712663-33.1113798 14.60579113-5.2125435 3.521557-32.20700346 57.1402279-32.20700346 57.1402279l22.41654356 16.5667025 17.9839268-27.3523671s5.5031429 17.4206899 8.6450035 38.2931835h43.9723659.5623031 43.9723663c3.14186-20.8724936 8.645003-38.2931835 8.645003-38.2931835l17.983927 27.3523671 22.416543-16.5667025s-26.993808-53.6186709-32.206351-57.1402279" fill="#f99d1c" mask="url(#h)" transform="translate(0 106.259494)"/></g></g></svg>