<svg height="330" viewBox="0 0 230 330" width="230" xmlns="http://www.w3.org/2000/svg" xmlns:xlink="http://www.w3.org/1999/xlink"><mask id="a" fill="#fff"><path d="m0 .228605h197.977928v113.5212h-197.977928z" fill="#fff" fill-rule="evenodd"/></mask><g fill="none" fill-rule="evenodd" transform="translate(16 40)"><path d="m79.2702627 188.864993s-3.7998659-19.07503-1.5675417-20.691825c2.2316775-1.615483 30.292225-5.734834 42.409633-.885106l1.887646 21.576931-37.3086557 17.135007z" fill="#afb1b4"/><g transform="translate(2 3)"><path d="m155.50654 195.82337s-1.789984-8.77008-15.940116-13.49238c-14.141711-4.726196-24.921778-9.5277-24.921778-19.603975v-26.527722h-17.0880895-17.0874419v26.527722c0 10.076275-10.7800664 14.877779-24.9211296 19.603975-14.1507807 4.7223-15.9407641 13.49238-15.9407641 13.49238l-38.99287372 89.144624h24.51428572l23.1207807-50.759214 9.555 50.759214h39.7521429 39.7527905l9.555-50.759214 23.120781 50.759214h24.514286z" fill="#bfa573"/><path d="m159.250281 59.8078018c0 49.1485422-17.396462 89.2796582-62.1220767 89.2796582-44.7223754 0-61.2643355-40.612175-61.2643355-89.7607174 0-49.1582802 41.6198671-59.05862187 62.0184219-59.05862187 20.3992023 0 61.3679903 10.38140087 61.3679903 59.53968107" fill="#d0b37d"/></g><g transform="translate(0 82)"><path d="m76.4902564 41.027415c6.785882 4.11905 14.0502098 4.7125 21.4125639 4.6176 7.4064987 0 14.5026887-.9191 21.5586297-4.6176-2.591528 3.0589-9.896754 8.40775-21.5216264 8.40775-11.6255213 0-19.0878492-5.14085-21.4495672-8.40775" fill="#494032"/><path d="m83.9381075 12.655305c0 6.75805-5.5388065 12.2408-12.3610426 12.2408-6.8280787 0-12.3558492-5.48275-12.3558492-12.2408 0-6.75935 5.5277705-12.23885 12.3558492-12.23885 6.8222361 0 12.3610426 5.4795 12.3610426 12.23885" fill="#896b4e"/><path d="m80.7587469 12.65212c0 4.7164-3.8243213 8.54815-8.5321771 8.54815-4.7130491 0-8.532177-3.83175-8.532177-8.54815 0-4.7086 3.8191279-8.54035 8.532177-8.54035 4.7078558 0 8.5321771 3.83175 8.5321771 8.54035" fill="#2a1d01"/><path d="m68.6313443 8.225945c0 1.3624-1.1075017 2.47715-2.4655869 2.47715-1.3632787 0-2.4707804-1.11475-2.4707804-2.47715s1.1075017-2.4661 2.4707804-2.4661c1.3580852 0 2.4655869 1.1037 2.4655869 2.4661" fill="#fff"/><path d="m114.175694 12.655305c0 6.75805 5.538806 12.2408 12.361692 12.2408 6.827429 0 12.3552-5.48275 12.3552-12.2408 0-6.75935-5.527771-12.23885-12.3552-12.23885-6.822886 0-12.361692 5.4795-12.361692 12.23885" fill="#896b4e"/><path d="m117.355379 12.65212c0 4.7164 3.824321 8.54815 8.532177 8.54815 4.713049 0 8.531528-3.83175 8.531528-8.54815 0-4.7086-3.818479-8.54035-8.531528-8.54035-4.707856 0-8.532177 3.83175-8.532177 8.54035" fill="#2a1d01"/><path d="m117.83811 8.225945c0 1.3624 1.107501 2.47715 2.465586 2.47715 1.363279 0 2.470781-1.11475 2.470781-2.47715s-1.107502-2.4661-2.470781-2.4661c-1.358085 0-2.465586 1.1037-2.465586 2.4661" fill="#fff"/><path d="m161.048201 15.148055s-.769928-1.72835-5.449219-3.87595c-6.43143-2.95165-6.508682-2.79435-29.848013-11.0435l-26.7618103 20.0733-26.762459-20.0733c-23.338682 8.24915-23.4165836 8.09185-29.8480131 11.0435-4.6786427 2.1476-5.4485705 3.87595-5.4485705 3.87595l-36.93057053 97.2699h27.79790163l21.099659-45.2608 3.4315672 45.2608 45.647764 1.2688-.0006492.06305 1.0133705-.03185 1.0127213.03185v-.06305l45.647115-1.2688 3.431567-45.2608 21.099659 45.2608h27.797902z" fill="#00b4ac" mask="url(#a)" transform="translate(0 94.25)"/></g><g transform="translate(35)"><path d="m42.7094242 167.728055c.642394 7.709037 21.689591 28.312064 21.689591 28.312064s22.2609696-18.355128 21.2973787-29.275449l10.5239243 12.252385c0 8.251633-19.8047576 33.276853-19.8047576 33.276853l-11.9012273-15.814761-11.5513636 16.457018s-20.1637424-23.874238-20.1637424-35.35344z" fill="#f4f4f4"/><path d="m96.0973773 179.01712c0 8.251633-19.8119243 33.276853-19.8119243 33.276853l-11.9012272-15.814761-11.5513637 16.457018s-20.1572273-23.874238-20.1572273-35.35344" stroke="#dbdcdd"/><path d="m128.163845 43.4959028c-.431954-1.9847432-.917984-3.9277982-1.484803-5.8233028-.532939-1.780211-1.1825-5.8571743-1.1825-5.8571743s-1.020924-.223422-1.215075-.6559358c-.486031-1.0799816-.936879-4.4749541-.936879-4.4749541s-3.152682-2.7540184-4.741076-4.6286789c-1.110833-1.3105688-4.487636-5.3790642-4.487636-5.3790642l-1.531712.1439541-4.091516-2.9136055s-1.916757-3.2438532-3.278424-4.33816515c-.501666-.40385321-1.663318.48983485-2.182576.08142202-.793545-.62336698-2.451-1.84274312-2.451-1.84274312l-1.8398783-2.35146789-5.4805455-1.46429358s-1.2587272-.98618349-1.9154545-1.09431193c-1.3056364-.2156055-4.0960758.32438532-4.0960758.32438532l-1.548-1.33597247-4.988.644211-3.5084091-1.79910091-1.4274696 1.11255046-3.3305455-.41232111s-1.334303-.80249541-1.9812576-.86893578c-.9961666-.10226605-2.8490757.39277982-2.8490757.39277982s-2.4327576-.80444954-3.3846212-.80444954c-1.677 0-6.2916819 1.12883486-6.2916819 1.12883486l-2.2705303-.3576055-3.7488182 1.207s-1.937606-.33936697-2.862106-.18238532c-1.1023636.18629358-3.1135909 1.1959266-3.1135909 1.1959266l-3.4784394.05992661-1.5017424.68329358-3.0842728-.41883487-2.4607727 1.17638532s-1.4268182-.16349541-2.1128636.13613762c-.2762425.12050459-.8202576-.27292661-.8202576-.27292661l-3.4295758 2.6406789-2.8849091 2.09482569-1.5043484.0162844s-.9147273 1.90853208-1.6698334 2.51170638c-.9616363.7679725-3.1982879 1.4962111-4.1136666 2.1371652-.6665.4670367-.0905606.9738073-.8456667 1.5098899-.3348788.2377523-1.9786515.4807156-2.3213485.7288899-.5355454.3862661.2267273.7836055-.3101212 1.1881101-2.0574849 1.5509266-4.0426515 3.2021651-5.330697 4.7218257-.85478785 1.0089816-1.63986361 2.048578-2.36239391 3.1174862-1.44180303 2.1332569-2.63537879 4.3805046-3.64066667 6.7254587-.37331818.8721927-.72122727 1.7574129-1.04568182 2.6543578-1.03590909 2.8627982-1.83987878 5.8532661-2.51159091 8.9427432-.99160606 4.5531192-.2110909 9.3192385-.3785303 14.2013027-1.00919697 29.3777156 7.3315 46.1187335 7.3315 46.1187335 6.06951511-4.4762564-1.62422727-41.1897702 16.78368181-53.3431463 5.8610303-3.8691744 36.6763939-4.2261285 40.1952273-4.2261285 3.5194848 0 34.1856515.4012477 39.9795758 4.2261285 18.407258 12.1533761 10.713515 48.8668899 16.783682 53.3431463 0 0 8.340045-16.7410179 7.330848-46.1187335-.167439-4.8820642.613076-9.6481835-.377879-14.2013027" fill="#272524"/><path d="m121.1998 83.635655s-1.136894-1.8968073-1.486106-5.7536055c-.909515-10.0429174-3.088182-28.5856422-6.977727-31.7975779-5.382819-4.4462936-15.9686367-1.917-18.6606973-2.0335964-2.6914091-.1172477-12.0608485-2.5292935-14.1013939-5.3373761 0 0-8.5446213 2.9246789-15.7425606 2.9246789-7.1979394 0-11.2933637-2.8074312-11.2933637-2.8074312s-7.0213788 3.6268624-9.245 3.6268624-5.6173636-1.7548074-5.6173636-1.7548074-.3492121 1.9736698-2.6914091 3.0419266c-4.1651364 1.8987615-14.6278182-.5855871-16.616894 2.1058991-1.9897272 2.6908349-8.3087727 9.9445597-8.6599393 22.9310459-.35116671 12.9871376-3.0425758-1.4037156-3.0425758-2.6908349 0-1.2864679 1.6385606-20.3574587 2.45751515-20.9423945.81895455-.5849357 3.74490905-2.2231468 3.74490905-2.2231468s-3.79963632-7.3175596 2.4575152-12.9864862c1.7682121-1.6023853 10.4144697 0 10.4144697 0s-.8795455-10.2956514 2.602803-11.9338624c3.483-1.6375596 7.913303 1.9684587 12.8413637-.4683394 7.7595454-3.8346514 10.8861666 6.6694403 13.5775757 4.7973853 2.6914091-1.8714037 3.6302424-11.1255046 10.0639546-7.7220642 12.795106 6.771055 7.6064394-.1172477 16.5002727 1.0532752 8.8938333 1.1698716 5.7828485 5.3054587 12.2732424 9.006578 6.7334091 3.839211 11.8334701.9379816 13.8225451 3.0438807 1.989728 2.1065505 2.457516 10.4128991 10.649016 13.6886697 8.1915 3.2757707 3.393742 32.9935046 3.744909 35.0994037.351166 2.1058991.740121 7.1319174-1.015061 7.1319174" fill="#393735"/></g></g></svg>