<svg height="330" viewBox="0 0 230 330" width="230" xmlns="http://www.w3.org/2000/svg" xmlns:xlink="http://www.w3.org/1999/xlink"><linearGradient id="a" x1="49.999848%" x2="49.999848%" y1="100%" y2="-.000216%"><stop offset="0" stop-color="#fdddc8"/><stop offset="1" stop-color="#e9cdba"/></linearGradient><mask id="b" fill="#fff"><path d="m97.63715.55043478h-17.14505v26.64847822c0 10.1230435-10.81535 14.9452174-25.00355 19.6936957-14.1986 4.743913-15.99455 13.5534783-15.99455 13.5534783l-39.1222 89.553913h24.596l23.1972-50.9921739 9.58685 50.9921739h39.8853 39.8853l9.58685-50.9921739 23.1972 50.9921739h24.59665l-39.12285-89.553913s-1.79595-8.8095653-15.99325-13.5534783c-14.1895-4.7484783-25.00485-9.5706522-25.00485-19.6936957v-26.64847822z" fill="#fff" fill-rule="evenodd"/></mask><mask id="c" fill="#fff"><path d="m.64440104.01967084h16.05924476v109.69559116h-16.05924476z" fill="#fff" fill-rule="evenodd"/></mask><mask id="d" fill="#fff"><path d="m.51289063.01967084h16.05924477v109.69559116h-16.05924477z" fill="#fff" fill-rule="evenodd"/></mask><mask id="e" fill="#fff"><path d="m.4934202.21565179h135.1257328v90.10529201h-135.1257328z" fill="#fff" fill-rule="evenodd"/></mask><mask id="f" fill="#fff"><path d="m0 .45710138h99.8117264v102.17236262h-99.8117264z" fill="#fff" fill-rule="evenodd"/></mask><mask id="g" fill="#fff"><path d="m0 291h199.645603v-290.78434821h-199.645603z" fill="#fff" fill-rule="evenodd"/></mask><g fill="none" fill-rule="evenodd"><g transform="translate(80 205)"><path d="m8.1437 33.3659654s-11.00434862-16.7914231-7.35794495-20.6975c3.64640367-3.90607694 11.48115595-11.55084617 34.52554125-12.25373078 23.0450367-.70353847 34.3060276 9.0695 35.0805138 18.39138458.7744862 9.3225385-62.2481101 14.5598462-62.2481101 14.5598462" fill="#727678"/><path d="m12.2199468 16.2484692s-.3914771-6.54369228 1.6290917-8.11553843c2.0205688-1.57119231 6.8700643-3.39673077 6.8700643-3.39673077l30.9442752 1.4195s3.6066697-.36484615 4.0105229 2.50553846c.4045046 2.86907694-1.6896697 6.67250004-1.6896697 6.67250004z" fill="#868e95"/></g><path d="m97.63715.55043478h-17.14505v26.64847822c0 10.1230435-10.81535 14.9452174-25.00355 19.6936957-14.1986 4.743913-15.99455 13.5534783-15.99455 13.5534783l-39.1222 89.553913h24.596l23.1972-50.9921739 9.58685 50.9921739h39.8853 39.8853l9.58685-50.9921739 23.1972 50.9921739h24.59665l-39.12285-89.553913s-1.79595-8.8095653-15.99325-13.5534783c-14.1895-4.7484783-25.00485-9.5706522-25.00485-19.6936957v-26.64847822z" fill="url(#a)" mask="url(#b)" transform="translate(17 180)"/><g transform="translate(52 45)"><path d="m42.5932292 170.301588s17.6367187 24.741116 40.2675781-.647255l-21.5494792 58.277631z" fill="#fff"/><path d="m124.635612 59.8388986c0 49.1491914-17.482422 89.2803074-62.4290365 89.2803074-44.9427083 0-61.56705727-40.612175-61.56705727-89.7613666 0-49.1582802 41.82552087-59.05797266 62.32486977-59.05797266 20.5 0 61.671224 10.38075176 61.671224 59.53903186" fill="#fedec8"/><path d="m40.6591797 119.652998c6.8053385 4.113997 14.0904948 4.707369 21.4733073 4.611936 7.4283854 0 14.5449219-.917973 21.6204427-4.611936-2.5989583 3.055148-9.9251302 8.398086-21.5833333 8.398086-11.6582032 0-19.1419271-5.134544-21.5104167-8.398086" fill="#a59088"/><path d="m48.1283854 91.3156879c0 6.7497608-5.5546875 12.2257861-12.3971354 12.2257861-6.8476562 0-12.391276-5.4760253-12.391276-12.2257861 0-6.75041 5.5436198-12.2238382 12.391276-12.2238382 6.8424479 0 12.3971354 5.4734282 12.3971354 12.2238382" fill="#aab8ba"/><path d="m44.9396484 91.313156c0 4.7106151-3.8352864 8.537016-8.5566406 8.537016-4.7265625 0-8.5559896-3.8264009-8.5559896-8.537016 0-4.7028246 3.8294271-8.5305239 8.5559896-8.5305239 4.7213542 0 8.5566406 3.8276993 8.5566406 8.5305239" fill="#2a1d01"/><path d="m32.7774089 86.8917608c0 1.3613782-1.1106771 2.4747608-2.4726563 2.4747608-1.3671875 0-2.4778646-1.1133826-2.4778646-2.4747608 0-1.3607289 1.1106771-2.4624259 2.4778646-2.4624259 1.3619792 0 2.4726563 1.101697 2.4726563 2.4624259" fill="#fff"/><path d="m78.4523437 91.3156879c0 6.7497608 5.5546876 12.2257861 12.3971355 12.2257861 6.8476562 0 12.3912758-5.4760253 12.3912758-12.2257861 0-6.75041-5.5436196-12.2238382-12.3912758-12.2238382-6.8424479 0-12.3971355 5.4734282-12.3971355 12.2238382" fill="#aab8ba"/><path d="m81.6411458 91.313156c0 4.7106151 3.8352865 8.537016 8.5566407 8.537016 4.7265625 0 8.5559895-3.8264009 8.5559895-8.537016 0-4.7028246-3.829427-8.5305239-8.5559895-8.5305239-4.7213542 0-8.5566407 3.8276993-8.5566407 8.5305239" fill="#2a1d01"/><path d="m82.1252604 86.8917608c0 1.3613782 1.1113281 2.4747608 2.4726563 2.4747608 1.3671875 0 2.4778645-1.1133826 2.4778645-2.4747608 0-1.3607289-1.110677-2.4624259-2.4778645-2.4624259-1.3613282 0-2.4726563 1.101697-2.4726563 2.4624259" fill="#fff"/><path d="m37.5578776 126.455084c.21875-1.048462.5664063-2.039146.9589844-3.005159.3932291-.966663.8320312-1.910604 1.3242187-2.826629.4876302-.918622 1.0292969-1.808679 1.6158854-2.672768.5852865-.864738 1.2213542-1.700261 1.9700521-2.46697-.2786458 1.034829-.6640625 2.004089-1.0800781 2.95582-.4186198.951082-.8658854 1.884636-1.3574219 2.794169-.4869791.91213-1.0130208 1.804134-1.5735677 2.679259-.5605469.875775-1.15625 1.732073-1.8580729 2.542278" fill="#e4c8b6"/><path d="m86.8955729 126.455084c-.6471354-.701788-1.1907552-1.447722-1.6985677-2.213781-.5078125-.76541-.9824219-1.54705-1.4160156-2.350763-.4388021-.801116-.8320313-1.626253-1.1953125-2.470217-.3613281-.844612-.6894531-1.70935-.9082031-2.638359.6894531.661537 1.266276 1.389943 1.7962239 2.146264.530599.755023 1.0175781 1.536013 1.453125 2.346218.4375.807609.8261719 1.641834 1.1679688 2.50008.3398437.857597.6367187 1.739864.8007812 2.680558" fill="#e4c8b6"/><path d="m73.7930339 134.45469c-1.8313803.580387-3.7272136.957574-5.6373698 1.200376-1.9114584.2441-3.8411459.322654-5.7662761.320706-1.9257812-.038952-3.8502604-.159704-5.7584635-.410296-.953125-.127893-1.9036459-.277859-2.8483073-.455091-.4713542-.094784-.9414063-.19541-1.4095052-.303178l-.7005209-.169442-.3483072-.093485-.1731771-.049339-.0865886-.025319c-.0169271-.001948-.0898437-.031162-.0338541-.014932l.65625.115558.7089843.116857c.4739584.074658.9479167.140877 1.4231771.200603.9479167.131789 1.8990886.241504 2.8515625.326549 1.9042969.175934 3.8131511.299283 5.7233073.302529 1.9101563.039601 3.8203125-.044795 5.7239583-.21164.951823-.081151 1.9010417-.19541 2.8463542-.34213.9479167-.131139 1.8880208-.314214 2.8287761-.508326" fill="#e4c8b6"/><path d="m51.2478516 182.132464-1.936198-1.642483-11.703125-5.486413s-26.8391927 10.779363-29.92838537 12.728918l7.36718747 29.031697-2.1341146 22.085877 8.34375 46.149875h42.029948v-77.983531z" fill="#b3ccdb"/><path d="m63.3070964 238.473588c-10.1510417.566104-30.561849 1.778166-35.0162761 2.602653l-.1614583 4.967051c6.5175781-.899795 24.6966146-1.922939 35.1777344-2.463076z" fill="#e9eef2"/><path d="m52.4322917 184.580282c-8.75 2.84221-28.1184896 9.236857-32.2285157 11.463622l1.3860678 4.774237c6.2845052-3.041515 23.9316406-9.253736 32.7473958-12.301093z" fill="#e9eef2"/><path d="m63.3070964 227.998247c-7.9863282.742688-30.9016928 2.954522-35.7167969 4.321094l.3053385 4.960558c6.9915365-1.641834 26.436849-3.935467 35.4114584-4.945627z" fill="#e9eef2"/><path d="m52.0022135 284.376181h5.8769532s-2.3177084-72.936629-8.8515625-104.002927l-5.9661459-2.797415c2.9785157 10.605376 7.078125 37.682324 8.9407552 106.800342" fill="#ccd8e0"/><path d="m38.331901 285c-.8105468-20.494032-3.8951822-86.197893-10.7643229-105.929112-1.5735677.645308-3.2304687 1.328918-4.891276 2.018372 2.8951823 7.521663 7.6425781 30.962426 9.828125 103.91074z" fill="#ccd8e0"/><path d="m5.57604167.01967084c-.94205729.3797836-2.70963542 1.09390661-4.93164063 1.99759681 2.89713542 6.79585422 7.99088542 29.81658315 10.20507816 107.69818935h5.8541666c-.5904948-16.0047953-3.6842448-89.7717543-11.12760413-109.69578616" fill="#ccd8e0" mask="url(#c)" transform="translate(31.25 175.284738)"/><path d="m63.2867188 211.33133c-.1731771-1.828155-.3867188-3.637483-.5722657-5.426685l-6.7669271-13.988372c2.2402344 16.270319 4.484375 43.686151 5.7291667 89.878224h1.5761719z" fill="#ccd8e0"/><path d="m46.5332031 176.205308s-23.8014323 8.588302-29.0546875 11.655136l1.5377604 4.726845c8.3802084-4.387961 30.3710938-12.907448 30.3710938-12.907448z" fill="#e9eef2"/><path d="m57.051888 194.131288c-7.5416666 2.040444-30.1087239 8.227346-34.6588541 10.416458l1.1536458 4.835262c7.0045573-2.983087 27.594401-9.053781 35.40625-11.321446z" fill="#e9eef2"/><path d="m61.730013 203.798956c-7.9140625 1.818416-32.3971354 7.497642-37.1679687 9.264772l.6940104 4.922255c7.140625-2.279351 38.0305989-9.294636 38.0305989-9.294636v-1.674943z" fill="#e9eef2"/><path d="m63.2549479 216.763989c-8.3522135 1.152334-32.7415364 4.574931-37.5904948 5.89541l.2519532 4.963804c6.9869791-1.56328 27.6816406-4.408087 37.3704427-5.705194z" fill="#e9eef2"/><g fill="#f2f6f9"><path d="m46.6079427 197.005763c.1848958 1.436037.3691406 2.949977.5527344 4.547665 1.7226562-.520011 3.3867187-1.01795 4.9407552-1.478884-.1822917-1.510045-.3697917-2.988929-.5625-4.4373-1.5214844.418086-3.1875.880319-4.9309896 1.368519"/><path d="m47.7554688 207.061459c.1640625 1.62041.3274739 3.310285.4895833 5.077415 1.7239583-.403805 3.4205729-.797221 5.046875-1.172461-.1699219-1.715842-.3457031-3.412858-.5273438-5.087152-1.5976562.37459-3.2838541.771902-5.0091145 1.182198"/><path d="m37.2679688 204.60981c1.6197916-.514169 3.2773437-1.031583 4.9303385-1.541857-.1940104-1.582107-.3932292-3.133701-.5983073-4.646993-1.6471354.470023-3.3040365.949784-4.922526 1.424351.1972656 1.499009.3945312 3.083713.5904948 4.764499"/><path d="m26.5763021 198.657919c1.4759114-.597266 3.1087239-1.234783 4.8372396-1.895023-.2558594-1.674943-.5188802-3.290808-.7903646-4.833963-1.7460938.621287-3.3860677 1.219203-4.8463542 1.771025.264974 1.508098.53125 3.156424.7994792 4.957961"/><path d="m35.2283203 190.317871c.2558594 1.440581.5136719 3.011003.7727865 4.724898 1.6022135-.592073 3.235026-1.187392 4.8548177-1.771025-.2467448-1.598337-.5006511-3.137597-.7617188-4.612586-1.6184896.54598-3.2565104 1.103645-4.8658854 1.658713"/><path d="m48.816276 218.808588c.1308594 1.627551.2604167 3.310284.3880209 5.049499 1.7727864-.251891 3.5182291-.496641 5.1907552-.729704-.139974-1.691173-.2851563-3.380399-.4348958-5.061834-1.6445313.235661-3.3776042.484954-5.1438803.742039"/><path d="m45.182487 234.52637c-.1158854-1.552244-.2350261-3.107733-.358724-4.66582-1.7805989.197358-3.5429687.39926-5.2298177.601811.1080729 1.550296.2148438 3.144089.3196615 4.780729 1.7089843-.241503 3.4817708-.482358 5.2688802-.71672"/><path d="m59.6417969 232.751255c1.3261719-.153212 2.5423177-.291492 3.6126302-.412893v-4.336025c-1.061849.09803-2.3834636.222677-3.8860677.367449.0924479 1.425649.1835937 2.887004.2734375 4.381469"/><path d="m57.9502604 209.89854c1.921875-.438212 3.6386719-.825786 5.0488281-1.143246-.09375-.951731-.1816406-1.969681-.2786458-2.909727l-1.0188802-2.041093c-1.1236979.258382-2.5690104.591423-4.2402344.978998.1640625 1.631446.327474 3.336252.4889323 5.115068"/><path d="m49.8821615 233.924105c1.8164062-.22787 3.5996093-.445353 5.296875-.647905-.1067709-1.482779-.217448-2.9714-.3320313-4.464567-1.6731771.166845-3.4472656.347324-5.2591146.536891.0996094 1.488622.1979167 3.011002.2942709 4.575581"/><path d="m37.8035807 209.468703c.1679688 1.608075.3346354 3.288212.5 5.046902 1.6373698-.401208 3.3287761-.809556 5.0345052-1.216606-.173177-1.705456-.3515625-3.390786-.5358073-5.051447-1.6933593.409647-3.375.819943-4.9986979 1.221151"/><path d="m44.3864583 224.553123c-.1438802-1.682084-.2923177-3.358326-.4459635-5.02418-1.7382813.259681-3.4622396.52131-5.1230469.779693.1354167 1.613918.2688802 3.286913.4016927 5.01574 1.6809896-.255786 3.4173177-.514818 5.1673177-.771253"/><path d="m32.6855469 206.09142c-.2037761-1.658064-.4127604-3.284316-.6282552-4.865125-1.7903646.546629-3.4537761 1.069886-4.9042969 1.549647.2070312 1.564579.4134114 3.226537.6191406 4.99172 1.4798177-.526504 3.1393229-1.09131 4.9134115-1.676242"/><path d="m45.5451823 239.549446c-1.828125.121401-3.6289063.247347-5.3424479.372643.0963541 1.629499.1920573 3.296651.2851562 5.007301 1.7441407-.122051 3.5598959-.242802 5.3977865-.360308-.109375-1.657415-.2226563-3.332358-.3404948-5.019636"/><path d="m45.111263 186.981813c.2415365 1.381504.4856771 2.880513.7304688 4.507415 1.7096354-.605706 3.3489583-1.181549 4.8619791-1.71-.2330729-1.521731-.4733073-2.989579-.720052-4.401595-1.4778646.483007-3.1276042 1.025741-4.8723959 1.60418"/><path d="m44.094987 181.764106c1.8730469-.745934 3.3717448-1.334761 4.2910156-1.694419l-5.3222656-2.494886c.3313802 1.179601.6764323 2.565649 1.03125 4.189305"/><path d="m58.5850911 217.412542c.1295573 1.641185.2571615 3.335604.3828125 5.087802 1.576823-.214886 3.0566407-.412893 4.3190105-.582335v-5.15402c-1.2408855.171389-2.8704427.391469-4.701823.648553"/><path d="m56.2724609 194.342993c.1770834 1.375661.3541667 2.822084.530599 4.345763.780599-.22787 1.4928385-.436264 2.124349-.619339l-1.9016928-3.930273c-.2369791.063621-.4882812.132437-.7532552.203849"/><path d="m34.3334635 185.729047c1.6477865-.68426 3.2721355-1.350342 4.8105469-1.974875-.3411458-1.59639-.6927083-3.07787-1.0566406-4.430159-1.5384115.577141-3.188151 1.202972-4.8704427 1.850227.3574219 1.264647.7317708 2.770148 1.1165364 4.554807"/><path d="m25.0227865 189.726967c1.5136718-.679715 3.1282552-1.3841 4.7838541-2.091731-.3502604-1.700262-.7148437-3.264192-1.0898437-4.705422-1.6881511.669328-3.3268229 1.332814-4.8287761 1.961242.3645834 1.349043.7447917 2.946731 1.1347657 4.835911"/><path d="m34.7419922 226.025904c-.1464844-1.673644-.296875-3.341446-.452474-4.996264-1.9212239.314863-3.656901.612847-5.1022135.881617.1386719 1.602882.2753906 3.264841.4101562 4.986527 1.5201823-.274613 3.2597657-.568053 5.1445313-.87188"/><path d="m35.5484375 235.888203c-.1236979-1.619761-.2526042-3.242768-.3847656-4.865126-2.0169271.270718-3.796224.536242-5.1972656.786185.1158854 1.608724.2298177 3.260296.3424479 4.966401 1.5078125-.286299 3.2864583-.584932 5.2395833-.88746"/><path d="m33.7583984 215.648788c-.1751302-1.698963-.3554687-3.374556-.5416666-5.026777-1.8658854.477164-3.5598959.925114-4.9811198 1.31918.1692708 1.601583.3378906 3.273281.5045573 5.026777 1.4778646-.405752 3.1757812-.850455 5.0182291-1.31918"/><path d="m35.8717448 240.258895c-2.078125.172039-3.8958333.340832-5.3092448.501834.0996094 1.61197.1972656 3.268736.2936198 4.963155 1.5429687-.157756 3.3626302-.31811 5.3645833-.475866-.1119791-1.650922-.2285156-3.315478-.3489583-4.989123"/><path d="m55.5727865 238.918032c-1.734375.103223-3.5449219.214237-5.3763021.329795.0924479 1.640535.1835937 3.320023.2727864 5.04041 1.8463542-.109715 3.6738282-.214886 5.4329427-.312267-.1048177-1.666503-.2148437-3.353781-.329427-5.057938"/><path d="m63.2546224 238.474886c-1.000651.055832-2.0996094.118155-3.2727865.185023.0904948 1.653519.1790365 3.347289.2662761 5.079362 1.0546875-.056481 2.0611979-.109066 3.0065104-.157756z"/></g><path d="m44.7784505 166.898986s-2.2161458.956925-2.3496094 2.755217c-.1334635 1.79959 9.0032553 12.056344 8.8190105 12.478325 0 0-.75-1.315933-1.9765625 2.246891-1.4654948 4.257472-4.0065105 10.027586-4.0065105 10.027586s-10.8509114-14.794682-10.8502604-18.112108c0-.76476 5.4134115-8.51689 10.6927084-10.497608 0 0-.093099.362255-.171224.622586-.078125.259681-.1575521.479111-.1575521.479111" fill="#b3ccdb"/><path d="m49.5725911 183.594403c-1.8079427-2.376731-8.547526-11.298075-9.1861979-13.035991-.1451823-.394715-.1549479-1.005615-.0839843-1.606127-.9850261.886161-1.9023438 1.846332-2.7076823 2.774043.156901.429772.3854166.967312.7369791 1.643781 1.0885417 2.093679 7.4628907 10.91959 9.7942709 14.126652.4095052-1.056253.8066406-2.122244 1.1458333-3.107084.1041667-.303178.203776-.559613.3007812-.795274" fill="#e9eef2"/><path d="m46.7662109 190.883976c-2.4108073-3.461549-9.9674479-14.374647-10.5878906-16.060626-.1119792-.305126-.1425781-.74139-.1191406-1.201025-1.0240886 1.364624-1.6445313 2.424123-1.6445313 2.682505-.001302 3.317426 10.8502605 18.112107 10.8502605 18.112107s.6601562-1.500307 1.501302-3.532961" fill="#e9eef2"/><path d="m47.0901693 176.703571c-.7506511-.946538-1.5091146-1.919693-2.1920573-2.837016-.2591146.037004-.6341146.153212-1.1152344.473918-.5989583.399909-3.7141927 5.600022-5.686849 9.541981.8463542 1.355536 1.7532553 2.739636 2.6315105 4.044533 1.1165364-2.542277 4.4179687-9.78738 6.3626302-11.223416" fill="#ccd8e0"/><path d="m49.2715495 184.379289c1.2265625-3.562175 1.9765625-2.24689 1.9765625-2.24689.0540364-.123349-.6972656-1.097153-1.7786459-2.452688l-.0820312.000649s-.6920573-.129191-1.4798177.954328c-.5970052.821891-3.4010417 6.931538-4.7923177 10.76443 1.2636719 1.80024 2.1497396 3.007757 2.1497396 3.007757s2.5410156-5.769465 4.0065104-10.027586" fill="#ccd8e0"/><path d="m34.4145182 176.294703c0 .649202.4186198 1.740512 1.0859375 3.070079 1.9290365-2.720808 5.4895834-7.378189 7.6588542-8.009863-.4726563-.770604-.7545573-1.375011-.7304688-1.700911.0384115-.51287.2480469-.954977.5253907-1.328269-.1953125-.19541-.655599-.560911-1.28125-.527152-3.9596354 3.043462-7.2584636 7.898849-7.2584636 8.496116" fill="#ccd8e0"/><path d="m38.3284505 173.362514c.1595052.307722.4433594.771902.8007813 1.330216.7792968-.888109 1.5690104-1.697016 2.3072916-2.307266-.5403645-.829682-.9238281-1.48213-1.0533854-1.834647-.1451823-.394716-.1555989-1.005615-.0839844-1.606128-.985677.886162-1.9029947 1.846333-2.7076822 2.774043.15625.429773.3854166.967312.7369791 1.643782" fill="#f2f6f9"/><path d="m47.6522135 181.046412c-.3717447.671276-.9902343 1.948907-1.6809895 3.468691.8535156 1.186093 1.610677 2.230011 2.1484375 2.970751.0748698-.194111.1503906-.388223.2246093-.582335.0104167-.027915.0208334-.054533.0319011-.083098.1861979-.488849.3665364-.975102.5384114-1.451617.0494792-.135683.0970052-.269419.1445313-.403155.0709635-.199954.1419271-.399259.2089844-.59402.1035156-.299932.2018229-.55377.298177-.788782-.4192708-.550524-1.1041666-1.454863-1.9140625-2.536435" fill="#f2f6f9"/><path d="m37.332487 176.880478c-.6074219-.979647-1.0299479-1.718439-1.1575521-2.065114-.1119792-.304476-.1425781-.74074-.1191406-1.200375-.8938802 1.191287-1.4798177 2.148861-1.6145834 2.545524-.0039062.011036-.0039062.018177-.0071614.028564-.0123698.0409-.0221354.080502-.0227865.10582.0006511.011686.0026042.026618.0032552.038953.0013021.078553.0097657.164897.0227865.256435.0091146.059077.0214844.121401.0345052.185023.0097656.044795.0195312.091537.03125.138929.0214844.087642.0449219.177232.0742187.273314.0019532.005843.0039063.012984.0058594.019476.1816406.592722.499349 1.325023.9140625 2.15016.5143229-.72516 1.1464844-1.589249 1.8352865-2.476709" fill="#f2f6f9"/><path d="m44.5714844 187.714049c-.5455729 1.293861-1.0611979 2.579282-1.4596354 3.677084 1.2636718 1.800889 2.1497395 3.008406 2.1497395 3.008406s.6588542-1.497711 1.498698-3.527119c-.5266927-.755672-1.2988282-1.867756-2.1888021-3.158371" fill="#f2f6f9"/><path d="m41.2959635 182.90904-.5019531-.744636-.0039062.005194c-.3411459-.507027-.6757813-1.007563-1.0019532-1.497711-.5989583 1.082221-1.1855468 2.184567-1.6953125 3.202517.8457032 1.355536 1.7532553 2.740285 2.6308594 4.045183.3528646-.803064.9238281-2.075502 1.6002604-3.484272-.3430989-.50443-.688151-1.012756-1.03125-1.520432z" fill="#f2f6f9"/><path d="m43.2229818 174.994999c-.4674479.652449-1.1419271 1.720387-1.8867188 2.975945l2.4726563 3.519977c.6165364-1.156879 1.25-2.251435 1.8489583-3.128508-.8255208-1.122471-1.6686198-2.284544-2.4348958-3.367414" fill="#f2f6f9"/><path d="m34.771224 177.794036c.6347656 1.512643 1.4921875 2.913622 2.3476562 4.30811.875651 1.384749 1.7832031 2.747426 2.6953125 4.108155 1.8359375 2.713018 3.7584636 5.370205 5.6777344 8.022198l-.4960938.063622c1.2148438-3.109681 2.4388021-6.21287 3.7291667-9.296583.3313802-.769306.6608073-1.534716 1.0299479-2.29688.0911458-.191514.1959636-.381731.3001302-.578439.1705729-.263577.3307292-.44016.6634115-.532347.1627604-.047391.3971354-.019476.5494791.096732.077474.053883.1386719.118155.186198.185022.0494791.066868.0878906.157757.1035156.190217l.2695312.564157 2.155599 4.514556c1.4479167 3.00451 2.843099 6.03369 4.2610677 9.053781 1.4173177 3.019442 2.8001302 6.055114 4.1751302 9.09598-1.5247396-2.968804-3.0403646-5.943451-4.5221354-8.933679-1.4811198-2.991526-2.985026-5.972665-4.4355469-8.977825l-2.1933594-4.501572-.2740885-.562209c-.0299479-.061025-.03125-.068166-.0449219-.085046-.0123698-.017528-.0260416-.029214-.0345052-.034407-.0175781-.009738-.0097656-.00844-.0481771-.001948-.0351562.009738-.0963541.038303-.157552.090239-.0664063.047392-.0651042.110365-.1119792.156458-.0885417.172688-.1848958.348622-.2708333.534294-.3541667.741389-.6731771 1.513291-1.0039063 2.275455-1.3092448 3.060991-2.5585937 6.15639-3.7955729 9.251139l-.1927083.481709-.3033855-.418087c-1.9257812-2.663029-3.7434895-5.396173-5.53125-8.150091-.8893229-1.380205-1.7480468-2.779886-2.5670572-4.202938-.8040365-1.429545-1.6139323-2.870126-2.1608073-4.419773" fill="#759aac"/><path d="m74.0416016 182.132464 1.9361979-1.642483 11.703125-5.486413s26.8391925 10.779363 29.9283855 12.728918l-7.367188 29.031697 2.134115 22.085877-8.343099 46.149875h-42.0305989v-77.983531z" fill="#b3ccdb"/><path d="m61.9824219 238.473588c10.1510416.566104 30.5618489 1.778166 35.016276 2.602653l.1614584 4.967051c-6.5175782-.899795-24.6966146-1.922939-35.1777344-2.463076z" fill="#e9eef2"/><path d="m72.8571615 184.580282c8.75 2.84221 28.1184895 9.236857 32.2285155 11.463622l-1.386068 4.774237c-6.2845048-3.041515-23.9316402-9.253736-32.7473955-12.301093z" fill="#e9eef2"/><path d="m61.9824219 227.998247c7.9863281.742688 30.9016927 2.954522 35.7167968 4.321094l-.3053385 4.960558c-6.9915365-1.641834-26.436849-3.935467-35.4114583-4.945627z" fill="#e9eef2"/><path d="m73.2872396 284.376181h-5.8769531s2.3177083-72.936629 8.8515625-104.002927l5.9661458-2.797415c-2.9778646 10.605376-7.078125 37.682324-8.9407552 106.800342" fill="#ccd8e0"/><path d="m86.9575521 285c.8105469-20.494681 3.8951823-86.197893 10.7643229-105.929112 1.5735677.645957 3.230469 1.328918 4.891276 2.018372-2.8951822 7.521663-7.6425781 30.962426-9.828125 103.91074z" fill="#ccd8e0"/><path d="m11.6404948.01967084c.9420573.3797836 2.7096354 1.09390661 4.9316406 1.99824602-2.8971354 6.79520501-7.99023436 29.81593394-10.20507811 107.69754014h-5.85416666c.59049479-16.0047953 3.68424479-89.7717543 11.12760417-109.69578616" fill="#ccd8e0" mask="url(#d)" transform="translate(76.822917 175.284738)"/><path d="m62.0027344 211.33133c.1731771-1.828155.3867187-3.637483.5722656-5.426685l6.7669271-13.988372c-2.2402344 16.270319-4.484375 43.686151-5.7291667 89.877574h-1.5755208z" fill="#ccd8e0"/><path d="m78.7565755 176.205308s23.8014325 8.588302 29.0546875 11.655136l-1.53776 4.727494c-8.3802087-4.38861-30.3710941-12.908097-30.3710941-12.908097z" fill="#e9eef2"/><path d="m68.2378906 194.131288c7.5416667 2.040444 30.1080729 8.227346 34.6588544 10.416458l-1.153646 4.835262c-7.0045573-2.983087-27.5950521-9.053781-35.4069011-11.321446z" fill="#e9eef2"/><path d="m63.5594401 203.798956c7.9140625 1.818416 32.3977865 7.497642 37.1686199 9.264772l-.694662 4.922255c-7.1406246-2.279351-38.0305985-9.294636-38.0305985-9.294636v-1.674943z" fill="#e9eef2"/><path d="m62.0345703 216.763989c8.3522136 1.152334 32.7421875 4.574931 37.5904948 5.89541l-.2519531 4.964453c-6.9869792-1.563929-27.6816406-4.408736-37.3704427-5.705843z" fill="#e9eef2"/><path d="m78.6815755 197.005763c-.1848958 1.436037-.3691406 2.949977-.5527344 4.547665-1.7226562-.520011-3.3867187-1.01795-4.9407552-1.478884.1822917-1.510045.3697917-2.988929.5625-4.4373 1.5214844.418086 3.1875.880319 4.9309896 1.368519" fill="#f2f6f9"/><path d="m77.5343099 207.061459c-.1647135 1.62041-.328125 3.310285-.4895833 5.077415-1.7246094-.403805-3.420573-.797221-5.0475261-1.172461.1705729-1.715842.3463542-3.412858.5279948-5.087152 1.5970052.37459 3.2838542.771902 5.0091146 1.182198" fill="#f2f6f9"/><path d="m88.0215495 204.60981c-1.6197917-.514169-3.2773438-1.031583-4.9303386-1.541857.1940105-1.582107.3932292-3.133701.5983073-4.646993 1.6471354.470023 3.3040365.949784 4.9225261 1.424351-.1972657 1.499009-.3938802 3.083713-.5904948 4.764499" fill="#f2f6f9"/><path d="m98.713151 198.657919c-1.4752604-.597266-3.1087239-1.234783-4.8372395-1.895023.2558593-1.674943.5188802-3.290808.7903645-4.833963 1.7460938.621287 3.3860678 1.219203 4.8463542 1.771025-.2649739 1.508098-.53125 3.156424-.7994792 4.957961" fill="#f2f6f9"/><path d="m90.0611328 190.317871c-.2558594 1.440581-.5136719 3.011003-.7727864 4.724898-1.6022136-.592073-3.234375-1.187392-4.8548178-1.771025.2467448-1.598337.5006511-3.137597.7617188-4.612586 1.6184896.54598 3.2565104 1.103645 4.8658854 1.658713" fill="#f2f6f9"/><path d="m76.4731771 218.808588c-.1308594 1.627551-.2604167 3.310284-.3880208 5.049499-1.7727865-.251891-3.5182292-.496641-5.1907553-.729704.139974-1.691173.2851563-3.380399.4348959-5.061834 1.6445312.235661 3.3776041.484954 5.1438802.742039" fill="#f2f6f9"/><path d="m80.1069661 234.52637c.1158855-1.552244.2356771-3.107733.358724-4.66582 1.780599.197358 3.5429688.39926 5.2298177.601811-.1080729 1.550296-.2141927 3.144089-.3196614 4.780729-1.7089844-.241503-3.4817709-.482358-5.2688803-.71672" fill="#f2f6f9"/><path d="m65.6477214 232.751255c-1.3261719-.153212-2.5423178-.291492-3.6126303-.412893v-4.336025c1.061849.09803 2.3841146.222677 3.8860678.367449-.092448 1.425649-.1835938 2.887004-.2734375 4.381469" fill="#f2f6f9"/><path d="m67.3391927 209.89854c-1.921875-.438212-3.6386719-.825786-5.0488281-1.143246.09375-.951731.1816406-1.969681.2792969-2.909727l1.0182291-2.041093c1.1236979.258382 2.5696615.591423 4.2402344.978998-.1640625 1.631446-.327474 3.336252-.4889323 5.115068" fill="#f2f6f9"/><path d="m75.4072917 233.924105c-1.8164063-.22787-3.5996094-.445353-5.296875-.647905.1067708-1.482779.2174479-2.9714.3320312-4.464567 1.6731771.166845 3.4472656.347324 5.2591146.536891-.0996094 1.488622-.1979167 3.011002-.2942708 4.575581" fill="#f2f6f9"/><path d="m87.4858724 209.468703c-.1679688 1.608075-.3346354 3.288212-.5 5.046902-1.6373698-.401208-3.328776-.809556-5.0345052-1.216606.1731771-1.705456.3515625-3.390786.5358073-5.051447 1.6933594.409647 3.375.819943 4.9986979 1.221151" fill="#f2f6f9"/><path d="m80.9029948 224.553123c.1438802-1.682084.2923177-3.358326.4459635-5.02418 1.7382813.259681 3.4622396.52131 5.1230469.779693-.1354167 1.613918-.2688802 3.286913-.4016927 5.01574-1.6803385-.255786-3.4173177-.514818-5.1673177-.771253" fill="#f2f6f9"/><path d="m92.6042318 206.09142c.203125-1.658064.4127604-3.284316.6282552-4.865125 1.7903646.546629 3.453776 1.069886 4.9042969 1.549647-.2070313 1.564579-.4134115 3.226537-.6191407 4.99172-1.4798177-.526504-3.1399739-1.09131-4.9134114-1.676242" fill="#f2f6f9"/><path d="m79.7442708 239.549446c1.828125.121401 3.6289063.247347 5.343099.372643-.0970052 1.629499-.1920573 3.296651-.2858073 5.007301-1.7441406-.122051-3.5598958-.242802-5.3971354-.360308.1087239-1.657415.2220052-3.332358.3398437-5.019636" fill="#f2f6f9"/><path d="m80.1781901 186.981813c-.2415365 1.381504-.4856771 2.880513-.7298177 4.507415-1.7102865-.605706-3.3496094-1.181549-4.8626302-1.71.2330729-1.521731.4733073-2.989579.7200521-4.401595 1.4778646.483007 3.1276041 1.025741 4.8723958 1.60418" fill="#f2f6f9"/><path d="m81.1947917 181.764106c-1.8736979-.745934-3.3717448-1.334761-4.2910157-1.694419l5.3222657-2.494886c-.3313802 1.179601-.6770834 2.565649-1.03125 4.189305" fill="#f2f6f9"/><path d="m66.704362 217.412542c-.1289063 1.641185-.2571615 3.335604-.3828125 5.087802-1.5768229-.214886-3.0566406-.412893-4.3190104-.582335v-5.15402c1.2415364.171389 2.8704427.391469 4.7018229.648553" fill="#f2f6f9"/><path d="m69.0170573 194.342993c-.1770833 1.375661-.3541667 2.822084-.530599 4.345763-.7805989-.22787-1.4928385-.436264-2.1243489-.619339l1.9016927-3.930273c.2369792.063621.4882812.132437.7532552.203849" fill="#f2f6f9"/><path d="m90.9559896 185.729047c-1.6477865-.68426-3.2714844-1.350342-4.8098958-1.974875.3404947-1.59639.6920572-3.07787 1.0559895-4.430159 1.5384115.577141 3.1881511 1.202972 4.8704427 1.850227-.3574218 1.264647-.7317708 2.770148-1.1165364 4.554807" fill="#f2f6f9"/><path d="m100.266732 189.726967c-1.5136721-.679715-3.1282554-1.3841-4.7838544-2.091731.3502604-1.700262.7148438-3.264192 1.0898438-4.705422 1.688151.669328 3.3268229 1.332814 4.8287756 1.961242-.364583 1.349043-.744791 2.946731-1.134765 4.835911" fill="#f2f6f9"/><path d="m90.547526 226.025904c.1464844-1.673644.296875-3.341446.453125-4.996264 1.920573.314863 3.65625.612847 5.1015625.881617-.1386718 1.602882-.2753906 3.264841-.4101562 4.986527-1.5201823-.274613-3.2597656-.568053-5.1445313-.87188" fill="#f2f6f9"/><path d="m89.7410156 235.888203c.1236979-1.619761.2526042-3.242768.3847657-4.865126 2.016927.270718 3.7962239.536242 5.1972656.786185-.1152344 1.608724-.2298177 3.260296-.3424479 4.966401-1.5078125-.286299-3.2864584-.584932-5.2395834-.88746" fill="#f2f6f9"/><path d="m91.5310547 215.648788c.1751302-1.698963.3554687-3.374556.5416667-5.026777 1.8658854.477164 3.5598958.925114 4.9817708 1.31918-.1699219 1.601583-.3385417 3.273281-.5052083 5.026777-1.4772136-.405752-3.1757813-.850455-5.0182292-1.31918" fill="#f2f6f9"/><path d="m89.4177083 240.258895c2.078125.172039 3.8958334.340832 5.3092448.501834-.0996093 1.61197-.1972656 3.268736-.2936198 4.963155-1.5429687-.157756-3.3626302-.31811-5.3645833-.475866.1119792-1.650922.2285156-3.315478.3489583-4.989123" fill="#f2f6f9"/><path d="m69.7167318 238.918032c1.734375.103223 3.5449218.214237 5.3769531.329795-.093099 1.640535-.1842448 3.320023-.2734375 5.04041-1.8463542-.109715-3.6738281-.214886-5.4329427-.312267.1054687-1.666503.2148437-3.353781.3294271-5.057938" fill="#f2f6f9"/><path d="m62.0348958 238.474886c1.0013021.055832 2.0996094.118155 3.2727865.185023-.0904948 1.653519-.1790365 3.347289-.266276 5.079362-1.0546875-.056481-2.061198-.109066-3.0065105-.157756z" fill="#f2f6f9"/><path d="m80.5110026 166.898986s2.2161458.956925 2.3496094 2.755217c.1334635 1.79959-9.0032552 12.056344-8.8190104 12.478325 0 0 .75-1.315933 1.9765625 2.246891 1.4654948 4.257472 4.0065104 10.027586 4.0065104 10.027586s10.8509114-14.794682 10.8502604-18.112108c0-.76476-5.4127604-8.51689-10.6927083-10.497608 0 0 .0930989.362255.1712239.622586.078125.259681.1575521.479111.1575521.479111" fill="#b3ccdb"/><path d="m75.7169271 183.594403c1.8079427-2.376731 8.547526-11.298075 9.1861979-13.035991.1451823-.394715.1549479-1.005615.0839844-1.606127.985026.886161 1.9023437 1.846332 2.7076823 2.774043-.1569011.429772-.3854167.967312-.7369792 1.643781-1.0885417 2.093679-7.4628906 10.91959-9.7942708 14.126652-.4095052-1.056253-.8066407-2.122244-1.1458334-3.107084-.1041666-.303178-.203776-.559613-.3007812-.795274" fill="#e9eef2"/><path d="m78.5232422 190.883976c2.4108073-3.461549 9.9680989-14.374647 10.5878906-16.060626.1119792-.305126.1425781-.74139.1191406-1.201025 1.0240886 1.364624 1.6445313 2.424123 1.6451823 2.682505.0006511 3.317426-10.8502604 18.112107-10.8502604 18.112107s-.6608073-1.500307-1.5019531-3.532961" fill="#e9eef2"/><path d="m78.199349 176.703571c.750651-.946538 1.5091145-1.919693 2.1920573-2.837016.2591145.037004.6341145.153212 1.1158854.473918.5983073.399909 3.7135416 5.600022 5.6861979 9.541981-.8463542 1.355536-1.7532552 2.739636-2.6315104 4.044533-1.1165365-2.542277-4.4179688-9.78738-6.3626302-11.223416" fill="#ccd8e0"/><path d="m76.0179688 184.379289c-1.2259115-3.562175-1.9765625-2.24689-1.9765625-2.24689-.0540365-.123349.6972656-1.097153 1.7786458-2.452688l.0820312.000649s.6920573-.129191 1.4798177.954328c.5976563.821891 3.4010417 6.931538 4.7929688 10.76443-1.2643229 1.80024-2.1497396 3.007757-2.1497396 3.007757s-2.5416667-5.769465-4.0071614-10.027586" fill="#ccd8e0"/><path d="m90.8752604 176.294703c0 .649202-.4186198 1.740512-1.0859375 3.070079-1.9290364-2.720808-5.4895833-7.378189-7.6588541-8.009863.4720052-.770604.7545572-1.375011.7298177-1.700911-.0377605-.51287-.2473959-.954977-.5253907-1.328269.1959636-.19541.65625-.560911 1.2819011-.527152 3.9589844 3.043462 7.2584635 7.898849 7.2584635 8.496116" fill="#ccd8e0"/><path d="m86.9613932 173.362514c-.1601562.307722-.4433593.771902-.8007812 1.330216-.7792969-.888109-1.5690104-1.697016-2.3072917-2.307266.5397136-.829682.9238281-1.48213 1.0533854-1.834647.1451823-.394716.1549479-1.005615.0839844-1.606128.9856771.886162 1.9029948 1.846333 2.7076823 2.774043-.156901.429773-.3854167.967312-.7369792 1.643782" fill="#f2f6f9"/><path d="m77.6376302 181.046412c.3717448.671276.9902344 1.948907 1.6803386 3.468691-.8535157 1.186093-1.6100261 2.230011-2.1477865 2.970751-.0755208-.194111-.1510417-.388223-.2246094-.582335-.0110677-.027915-.0214844-.054533-.031901-.083098-.1861979-.488849-.3665365-.975102-.5384115-1.451617-.0494791-.135683-.0970052-.269419-.1445312-.403155-.0709636-.199954-.1419271-.399259-.2089844-.59402-.1035156-.299932-.2018229-.55377-.2981771-.788782.4192708-.550524 1.1035156-1.454863 1.9140625-2.536435" fill="#f2f6f9"/><path d="m87.9570313 176.880478c.6074218-.979647 1.0305989-1.718439 1.157552-2.065114.1126302-.304476.1425782-.74074.1191407-1.200375.8938802 1.191287 1.4804687 2.148861 1.6145833 2.545524.0039062.011036.0045573.018177.0071615.028564.0123697.0409.0221354.080502.0227864.10582 0 .011686-.0026042.026618-.0032552.038953-.0013021.078553-.0097656.164897-.0227865.256435-.0084635.059077-.0208333.121401-.0345052.185023-.0091145.044795-.0195312.091537-.03125.138929-.0214843.087642-.0449218.177232-.0735677.273314-.0019531.005843-.0039062.012984-.0058593.019476-.1822917.592722-.5 1.325023-.9140625 2.15016-.514323-.72516-1.1464844-1.589249-1.8359375-2.476709" fill="#f2f6f9"/><path d="m80.7182943 187.714049c.5455729 1.293861 1.0611979 2.579282 1.4596354 3.677084-1.2636719 1.800889-2.1497396 3.008406-2.1497396 3.008406s-.6588542-1.497711-1.4986979-3.527119c.5260417-.755672 1.2988281-1.867756 2.1888021-3.158371" fill="#f2f6f9"/><path d="m83.9935547 182.90904.5019531-.744636.0039063.005194c.3411458-.507027.6757812-1.007563 1.0019531-1.497711.5996094 1.082221 1.1855469 2.184567 1.6953125 3.202517-.8457031 1.355536-1.7532552 2.740285-2.6308594 4.045183-.3528646-.803064-.9238281-2.075502-1.6002604-3.484272.343099-.50443.6888021-1.012756 1.03125-1.520432z" fill="#f2f6f9"/><path d="m82.0667969 174.994999c.4667968.652449 1.141276 1.720387 1.8867187 2.975945l-2.4726562 3.519977c-.6165365-1.156879-1.25-2.251435-1.8489584-3.128508.8255209-1.122471 1.6686198-2.284544 2.4348959-3.367414" fill="#f2f6f9"/><path d="m90.5182292 177.794036c-.545573 1.549647-1.3561198 2.990877-2.1588542 4.420422-.8183594 1.423701-1.6783854 2.823383-2.5670573 4.203588-1.7858073 2.755216-3.6067708 5.486412-5.5325521 8.149441l-.3046875.420684-.1933594-.484955c-1.2063802-3.019442-2.4257812-6.038234-3.7005208-9.025865-.3144531-.747882-.6308594-1.497062-.9680989-2.228064-.0852865-.180478-.1673178-.368747-.2584636-.538189l-.1334635-.26033c-.0442709-.050638-.0546875-.103873-.1054688-.155809-.1302083-.108417-.2213541-.115558-.2161458-.103223-.0130208.005843-.046224.035706-.0657552.082449l-.1341146.274612-2.141276 4.389909c-1.4160157 2.932449-2.8873698 5.83828-4.3339844 8.755797-1.4472656 2.916868-2.9277344 5.818155-4.4179688 8.71295 1.3404948-2.966856 2.6907552-5.928519 4.0735677-8.873952 1.3847657-2.944783 2.7434896-5.901253 4.1575521-8.831754l2.1041667-4.404191.1321614-.274613c.061849-.13828.1627605-.275911.328125-.370046.1679688-.096082.389323-.098678.5377605-.046093.1516927.050638.2682291.125945.3652343.20385.0970052.085045.1809896.220079.2578125.331742l.1477865.281105c.1028646.188269.1842448.373292.2740885.558964.3509115.744635.6744792 1.492517.9960938 2.241697 1.2552083 3.010353 2.4498698 6.036936 3.6341146 9.07131l-.4980469-.063622c1.9192708-2.651994 3.8391927-5.311128 5.6770833-8.022848.9121094-1.360079 1.8183594-2.724054 2.6953125-4.107505.8567709-1.393839 1.7135417-2.794818 2.3489584-4.307461" fill="#759aac"/></g><g transform="translate(15 39)"><path d="m127.931857 90.3209438s-5.8-3.9427902-7.796743-12.3467143c-3.643648-15.3288148.624104-31.5702523-12.196091-34.7563125-18.3993487-4.5715581-59.5446256-9.1885849-81.8618894.1097745-11.4058632 4.7527835-7.3055375 18.7370223-10.8788274 32.4666362-2.6039088 10.0057232-7.84299675 12.8793482-7.84299675 12.8793482s-1.00846906-3.7414286-2.20130294-9.1729955c-.06905537-.314384-.43322475-.1701831-.50293159-.4956094-.04625407-.2137031.2019544-.8937857.15504886-1.1126853-.14462541-.6820312-.43778502-2.1052031-.43778502-2.1052031l-.93420195-2.3916563-.26254072.5891451-.16807817-.9912187-.58306189-.9639375.0228013-2.6241964-.09250814-.6515023-.74136808-.0746986.28534202-3.5147344-.10814333-1.0009621-.73485342-2.2922745.34267101-2.7287746-.64690553-1.1627009.5693811-1.5667232-.82345276-.528087.93420195-3.0736875-.42605863-.8457188 1.28273615-4.0908884-.76872964-1.6706518 1.03257329-1.2575357-.6267101-1.1678973 1.04625408-4.558567-.22084691-1.6076451.90032573-.7320468-.14006514-1.5420402.94267101-1.2835179-.28338763-1.5972522 1.0801303-1.2822187-.87752443-1.1432143 1.4762215-1.0737121-.05667753-1.4537009 2.84755701-2.3994509 14.79804559-12.1408058 27.7433225-11.32561605 4.5817589 1.33808036 18.1661238-2.76125223 1.7895766 2.76125223 19.3674267 1.76158928 5.2651467 3.26530581 15.277524 2.9574174-1.330944 1.5413906 11.813029 9.7972166 1.818892.8567611 5.654072 18.8714799 2.039088 2.6690156-1.907492 1.9324219-1.372638 15.3963683-.926385 1.0107054.160261 15.1151116 1.433225.5618638-3.077525-7.2438214c1.360261 7.0768862-1.996742 18.8513438-1.996742 18.8513438" fill="#efefed" mask="url(#e)" transform="translate(31.921824)"/><path d="m99.1563518 46.8909475.0130293 1.0906005.6423453 54.648241h-46.619544l-1.7185668-36.5958482-15.6397394 36.5958482h-35.8338762s38.2169381-87.9709888 39.1296417-91.5675669c.9127036-3.59657813 3.9543974-8.87485045 12.7765472-10.55784375 8.8221499-1.68364286 45.9785017 42.13394195 47.2501629 46.38656915" fill="#5b6882" mask="url(#f)" transform="translate(0 188.370536)"/><path d="m99.1563518 235.261483s-2.1511401-5.582913-5.7127036-12.766326c-2.0612378-4.157792-4.608469-8.950848-7.4612378-13.537995-3.1407166-5.050279-6.6534202-9.851779-10.2977198-13.281422-14.876873-14.002426-6.5654724-19.835417-2.3472313-22.744768l-.952443-1.198426s-7.6436482-2.650179-13.2918567 5.264631c-1.1895765 1.666755-4.6462541 2.522867-5.5791531 6.777442-.932899 4.255226-3.6429967-1.1627-3.9641694 7.321119-.3218241 8.483169 12.619544 12.220051 22.8351792 18.084221 8.0501629 4.620924 20.0384365 18.156321 24.7583062 23.685971 1.2690554 1.487477 2.0130293 2.395553 2.0130293 2.395553" fill="#697895"/><path d="m93.4330945 222.494963c-2.0612378-4.157143-4.6078176-8.950199-7.4612378-13.537996-3.1407166-5.050279-6.6527688-9.851779-10.2970684-13.281422-14.876873-14.002426-6.5661238-19.835417-2.3478828-22.744768l1.0234528-3.86939s-6.8026059 1.420573-9.4358306 2.671613c-1.6351792 2.019463-2.7589577 7.59523-2.1003257 11.784851 1.4899022 9.470491 15.9967426 21.739259 19.8143322 29.063625 1.0736156 2.061033 3.5205212 6.584524 5.3713355 10.145377 4.2149837 4.335121 6.9368078 7.565351 9.132899 10.139531 1.2697069 1.486829 2.0136808 2.394904 2.0136808 2.394904s-2.1511401-5.582263-5.713355-12.766325" fill="#7d8da8"/><path d="m82.6282736 164.399865s-16.2872964 5.576418-16.2879479 15.162529c-.0013029 7.87259 8.5973942 16.032931 11.6755701 19.007237 3.0781759 2.975605 6.3315961 7.836214 6.3315961 7.836214-2.2482085-6.055138-11.7074919-19.415805-11.7074919-24.61808 0-4.304592-1.0690554-7.762165 9.971987-12.429208 0 0 .0162866-2.580676.0162866-4.958692" fill="#aaaeb0"/><path d="m68.5673616 177.29896c2.4299674-4.825533 8.5309446-8.887841 14.0540716-10.635141.0039088-1.171794.0065147-1.214015.0065147-2.263694 0 0-5.2156352 1.080208-9.7550489 4.96194-.2117264 1.024995-.513355 1.958404-.9452769 2.37087-1.2052117 1.151009-1.8703583.701518-3.7771986 4.943103-1.906189 4.241585 1.1713355 10.427933 2.8117263 12.694875l.0781759-.496259s-4.903583-6.748212-2.4729641-11.575694" fill="#c3c7c9"/><g fill="#465266"><path d="m91.0865147 225.15339c.9263843.087041 1.6273615.689177 1.5654723 1.343927-.0618893.656049-.8631922 1.117232-1.7895766 1.030192-.9257329-.086391-1.6267101-.687878-1.5648208-1.343927.0618892-.656049.8625407-1.117232 1.7889251-1.030192"/><path d="m90.6748534 225.647571c-3.742671-3.861596-7.5302931-7.693962-11.5420195-11.268456-1.0084691-.882743-2.0247557-1.769384-3.1211727-2.517669-1.1074918-.733346-2.3120521-1.340029-3.5009772-1.962951l-7.2228013-3.615415c-2.4058632-1.217264-4.8-2.461808-7.1276873-3.84211-1.1635179-.689176-2.2944625-1.44006-3.3915309-2.248105-.2814332-.18902-.5335505-.427406-.8013029-.63981-.2612378-.221498-.5361564-.423509-.7726385-.681382-.2416938-.24683-.4964169-.489763-.7263843-.740491l-.6625408-.762576c-.4332247-.517044-.8677524-1.031491-1.2879478-1.566723-.4149838-.537181-.8416938-1.07566-1.1498372-1.736256-.1504886-.331273-.2469055-.709313-.2530006-1.078259-.0036769-.366998.0425772-.707364.0823166-1.043183l.2319218-1.997378c.0807818-.66904.1667753-1.340678.304886-2.010368.1583062-.653451.3016287-1.373156.8599349-1.900594.1407166-.127312.3211726-.209156.504886-.257872l.4996742-.096134c.3276873-.063657.6534202-.127962.934202-.279958.5863192-.295547.8241042-.991219.9491856-1.632328l.0644952.010393c-.0905538.646306-.2814333 1.398489-.9231271 1.778477-.3042345.187072-.6469055.272163-.9732899.355956l-.4872964.123415c-.1374593.048067-.2677524.112373-.371987.2189-.4247557.427406-.5674267 1.115283-.6872964 1.751196-.1081433.651502-.1680782 1.316645-.2221498 1.983087-.0521173.665143-.0931596 1.341978-.1700326 2.012317-.0332248.331922-.067101.659946-.0566775.965886.0136808.303991.0925081.585897.2241042.863906.2723127.554719.6944626 1.07761 1.1127036 1.590757.4214984.513797.8664495 1.016551 1.3081433 1.521255 1.6540717 2.096758 3.9127036 3.542665 6.1954398 4.94635 2.2827361 1.401737 4.6501628 2.679408 7.0312703 3.929799l7.180456 3.703105c1.1869707.64046 2.3863193 1.262083 3.5153095 2.028556 1.1198697.784011 2.12443 1.684942 3.1283388 2.584573 3.9680781 3.651791 7.6899022 7.541967 11.3719869 11.46592z"/><path d="m90.323127 270.780696h1.3029316v-43.624017h-1.3029316z" mask="url(#g)"/></g><path d="m98.4848208 291h1.3270359s1.0788273-53.047092-1.3270359-57.175004l-.7244299-.23319s2.0521172 12.069355.7244299 57.408194" fill="#697895" mask="url(#g)"/><path d="m51.7949837 254.455012-.6429967-.101331c.056026-.356604 5.5863192-35.746232.8716612-45.353779-4.6775244-9.53025-12.570684-10.133035-12.6501629-10.138232l.0410424-.648254c.085342.005196 2.1257329.147449 4.7843648 1.516707 2.4416938 1.257536 5.8833876 3.836913 8.409772 8.984625 4.8052117 9.790072-.581759 44.27682-.8136808 45.740264" fill="#465266" mask="url(#g)"/><path d="m65.191987 173.055297c-.5739414 1.449154-.9309447 2.963263-1.1042346 4.485817-.2905537 1.503067-.3641693 3.042509-.2846905 4.56831.1016287 1.507614.5563518 2.965212 1.1602606 4.374743.6540716 1.387447 1.3726384 2.752808 2.2247557 4.04477 1.656026 2.611855 3.5719869 5.062621 5.5407166 7.465969.9824104 1.202973 1.9928339 2.38581 3.0006515 3.572545.9270358 1.254288 1.8794788 2.492337 2.7667752 3.778453l-3.2625407-3.358192c-1.009772-1.186735-2.0221499-2.372819-3.0091205-3.582288-1.9771987-2.413092-3.9068404-4.878797-5.5863193-7.528326-.8625407-1.3095-1.5993485-2.704741-2.2710097-4.131161-.6221499-1.447205-1.1081434-2.993792-1.2143323-4.599489-.085342-1.577765-.0006514-3.167872.2892508-4.722904.1863193-.77037.4319219-1.523203.7172639-2.256549.2833876-.733995.6162866-1.449154 1.0325733-2.111698" fill="#92a1b7" mask="url(#g)"/><path d="m100.489511 235.261483-.013029 1.090601-.6423452 54.648241h46.6195442l1.718567-36.595848 15.639739 36.595848h35.833876s-38.216938-87.970989-39.12899-91.567567c-.912704-3.596578-3.955049-8.874851-12.777199-10.557844-8.82215-1.683643-45.978501 42.133942-47.250163 46.386569" fill="#5b6882" mask="url(#g)"/><path d="m100.489511 235.261483s2.15114-5.582913 5.713355-12.766326c2.060587-4.157792 4.607818-8.950848 7.460587-13.537995 3.140716-5.050279 6.65342-9.851779 10.29772-13.281422 14.876873-14.002426 6.565472-19.835417 2.347231-22.744768l.952443-1.198426s7.643648-2.650179 13.291857 5.264631c1.189576 1.666755 4.646254 2.522867 5.579153 6.777442.932899 4.255226 3.642996-1.1627 3.964169 7.321119.321824 8.483169-12.619544 12.220051-22.835179 18.084221-8.050163 4.620924-20.038437 18.156321-24.758306 23.685971-1.269056 1.487477-2.01303 2.395553-2.01303 2.395553" fill="#697895" mask="url(#g)"/><path d="m106.212704 222.494963c2.061237-4.157143 4.607817-8.950199 7.461237-13.538646 3.140717-5.049629 6.652769-9.851129 10.297069-13.281421 14.876873-14.001777 6.566124-19.834768 2.347883-22.744119l-1.023453-3.86939s6.802606 1.420573 9.43583 2.671613c1.63518 2.019463 2.758958 7.59523 2.100326 11.784851-1.489902 9.470491-15.996743 21.739259-19.814332 29.063625-1.073616 2.061033-3.520521 6.584524-5.371336 10.145377-4.214983 4.335121-6.936807 7.565351-9.132899 10.138882-1.269707 1.487478-2.01368 2.395553-2.01368 2.395553s2.15114-5.582263 5.713355-12.766325" fill="#7d8da8" mask="url(#g)"/><path d="m117.01759 163.750312s16.287296 6.225971 16.287947 15.812082c.001303 7.87259-8.597394 16.032931-11.67557 19.007237-3.078175 2.975605-6.331596 7.836214-6.331596 7.836214 2.24886-6.055138 11.707492-19.415805 11.707492-24.61808 0-4.304592 1.069056-7.762165-9.971987-12.429208 0 0-.016286-3.23023-.016286-5.608245" fill="#aaaeb0" mask="url(#g)"/><path d="m131.078502 177.29896c-2.429968-4.825533-8.530945-8.887841-14.054072-10.635141-.003909-1.171794-.006515-1.863569-.006515-2.913247 0 0 5.201303 1.428368 9.740717 5.31075.211726 1.024995.527687 2.259147.959609 2.671613 1.205212 1.151009 1.870358.701518 3.777199 4.943103 1.906189 4.241585-1.171336 10.427933-2.811727 12.694875l-.078176-.496259s4.903584-6.748212 2.472965-11.575694" fill="#c3c7c9" mask="url(#g)"/><path d="m108.559349 225.15339c-.926385.087041-1.627362.689177-1.565473 1.343927.061889.656049.863192 1.117232 1.789577 1.030192.926384-.086391 1.62671-.687878 1.564821-1.343927-.06189-.656049-.862541-1.117232-1.788925-1.030192" fill="#465266" mask="url(#g)"/><path d="m108.923583 225.603141c3.682085-3.923953 7.40456-7.81348 11.371987-11.46527 1.003909-.900281 2.008469-1.801212 3.127687-2.585223 1.129642-.766473 2.328991-1.388096 3.515961-2.028556l7.179805-3.703105c2.381759-1.25039 4.748534-2.528062 7.031922-3.929799 2.282736-1.403685 4.541368-2.849591 6.195439-4.94635.441694-.504054.885994-1.007458 1.308144-1.521255.417589-.513147.840391-1.036038 1.112052-1.590107.131596-.278658.211075-.559915.224756-.863906.010423-.306589-.024105-.634614-.056678-.966536-.076873-.670339-.117915-1.347174-.170684-2.011667-.05342-.667092-.113355-1.332235-.221498-1.983737-.11987-.635263-.262541-1.32379-.687948-1.750547-.103583-.106527-.233877-.171482-.371336-.219549l-.486645-.123415c-.327036-.083143-.669707-.168234-.974593-.355306-.641042-.379989-.831921-1.132821-.922475-1.779127l.064495-.009743c.125081.640459.362866 1.336131.949186 1.631678.280781.152645.606514.216302.934202.279958l.499022.096134c.184365.049366.364821.13121.505538.257872.558306.527438.701628 1.247793.859935 1.901244.13811.66904.224104 1.340678.304234 2.009719l.232573 1.998026c.03974.33517.085994.676186.082317 1.042534-.006746.368946-.103163.746986-.253001 1.078259-.308794.661245-.734853 1.199076-1.150488 1.736256-.419544.535233-.854723 1.049679-1.287948 1.566724l-.661889.762576c-.229968.251377-.484691.49431-.726385.74114-.236482.257223-.5114.459884-.77329.681382-.267752.212404-.519218.45014-.801302.63981-1.096417.807395-2.227362 1.558279-3.39088 2.248105-2.327687 1.380301-4.722476 2.624846-7.127687 3.84146l-7.222802 3.615415c-1.188925.622922-2.393485 1.230255-3.500977 1.9636-1.097068.747637-2.113355 1.634277-3.121172 2.51767-4.012378 3.574493-7.799349 7.40621-11.54202 11.267806z" fill="#465266" mask="url(#g)"/><path d="m108.019544 270.780696h1.302932v-43.624017h-1.302932z" fill="#465266" mask="url(#g)"/><path d="m101.160977 291h-1.3270356s-1.0781759-53.047092 1.3270356-57.175004l.72443-.23319s-2.0514656 12.069355-.72443 57.408194" fill="#697895" mask="url(#g)"/><path d="m147.850879 254.455012c-.231921-1.463444-5.618892-35.950192-.81368-45.740264 2.526384-5.147712 5.968078-7.726439 8.410423-8.984625 2.658632-1.368609 4.699023-1.510861 4.784365-1.516058l.041042.648255c-.079479.005196-7.98241.62617-12.650814 10.137582-4.714658 9.607547.815635 44.997175.871661 45.353779z" fill="#465266" mask="url(#g)"/><path d="m134.454137 173.055297c.416286.662544.748534 1.377703 1.031922 2.111698.285993.733346.531596 1.486179.717915 2.256549.289902 1.555032.373941 3.145139.289251 4.722904-.106841 1.605697-.592183 3.152284-1.214332 4.599489-.671662 1.42642-1.40847 2.821661-2.27101 4.131161-1.680131 2.649529-3.609772 5.115234-5.586319 7.528326-.987623 1.209469-2 2.395553-3.009121 3.582288l-3.263192 3.358192c.887948-1.286116 1.840391-2.524165 2.767427-3.778453 1.007817-1.186735 2.018241-2.369572 3.000651-3.572545 1.968078-2.403348 3.884691-4.854114 5.540065-7.465969.852117-1.291962 1.570684-2.657323 2.225407-4.04477.603909-1.409531 1.058632-2.867129 1.159609-4.374743.080131-1.525801.006515-3.065243-.28469-4.56831-.172639-1.522554-.530293-3.036663-1.103583-4.485817" fill="#92a1b7" mask="url(#g)"/></g><g transform="translate(53 48)"><path d="m10.7996745 49.7465804-2.92187502-10.0166749h1.4609375l-1.4609375-1.6205644h1.4609375l1.46093752-3.1234233-2.92187502-2.8249325 4.72395832 1.4540859v-2.0816319h3.4557292l-6.87565106-8.1776074 10.48828126 7.0798896-1.4134115-3.7659264 2.421224 2.4048343v-1.1503926l1.360026.9422945 3.8710938.4200981-5.296224-16.582822 5.9121094 7.2184049s-.0729167-10.59219635.6861979-13.02434359c0 0 0 6.74758279 1.0996094 8.78759509l2.1992187-4.7075705.9654948 7.2177546s-.3372396-5.0210185 5.0039063-10.04203686l-1.3984375 4.70692026 11.7135416-10.04203682-1.203776 4.07937423 3.2988281-.94164417v3.29510429l13.1985677-8.63282208.311198 5.18099386 10.6829427-2.99206135-3.9277344 2.83533743 12.6458333-4.13595092-2.1204427 5.7051411h2.7714844l-1.6282552 1.56919019 12.2096354-.47082209-2.0423177 2.04001223 2.0423177.6275461-1.4140625 1.098368s8.8574221.9416442 10.3196611.9416442c1.46224 0 3.347006 1.5691902 3.347006 1.5691902l-6.9114588 1.255092 4.2102868 1.0782086 1.916015.4909816 1.727865 2.8242822h-4.289714l7.746094 3.4524786 2.4375 3.4518282-3.69401-1.8826381 4.555338 5.1783927-3.455729-1.5691902 4.869141 6.7469325v3.1383804l3.299479 1.7259141 2.513021 4.2367484-2.041667-1.255092.313802 1.5061105.471354 2.2598159-2.042317-.9416442 2.513671 7.2053988-3.298828-3.5961963-1.099609 3.5961963.309896 3.7262577.160807 1.9353129-3.374349-2.9816565v3.0414847s-1.091146-18.8055706-5.103516-22.7906503c-4.492187-4.4617546-14.0436193-9.4606626-35.4082026-9.7741105-21.3645834-.3140981-31.1106771.2152516-41.4433594 3.7139019-9.2897136 3.1448834-18.421224 2.9920613-19.3671875 19.3869448" fill="#dbdbd7"/><path d="m107.130924 32.1146184c-1.039713-.7094847-4.521484-2.1193497-4.521484-2.1193497l.442057-.8668589-11.6569006-1.2420859 4.7532552-1.7545276-13.1764323.4220491 5.7369791-3.8511166s-11.40625 1.0359387-13.3177083.6555092l2.8997396-3.7236564-21.5501302 2.7293374 3.0429687-6.7618896-13.9733073 7.1338651-.9941406-8.3122209-7.0182292 10.3600368-8.797526-10.5739877.453125 12.3343681c-.6679687.1573742.2682292.2510184.2682292.2510184l-5.9674479-8.219227 4.1438802 12.0157178-5.2636719-3.8088466 2.8496094 4.4864662-4.8059896-2.1947852 2.656901 2.7013742-4.3229166-.6268957.6035156 2.3398037-4.8541667.5547116.6764323 1.9053988-1.6178385 1.712908-2.8014323.2217546 1.3847656 1.7863926-1.6503906.7179387 1.2460937 1.1386871-1.4505208.7667116 1.5078125.0221105s1.4407552-4.7446381 4.8626302-6.9277178c4.6686198-2.9784049 12.40625-4.5768589 12.6080729-4.6503436 32.3977865-5.6888834 66.2877604 1.3240246 74.0019532 3.8992393 6.986328 2.332 8.111328 18.8523926 8.111328 18.8523926s1.709635-17.1336319-4.509115-21.3742822" fill="#a59f9b"/><path d="m31.4753255 28.8993067s2.0651042-14.6572638 2.53125-16.6016809v13.909411l3.7408854-9.6531534-.6236979 7.99227 1.9746094-3.9480123v5.0899509l5.3001302-12.5600245-.7610677 11.522135s3.0585937-4.4637056 3.156901-4.7752025c.0983073-.3108466-.9414062 4.6711534-.9414062 4.6711534l11.3066406-14.64620861-4.6555989 11.42784051 1.4550781-.7296442-1.2467448 4.4669571 5.8190104-1.0378896s-7.3782552 3.4251656-11.2233073 3.7366626c-3.844401.3114969-12.3255208-.016908-15.8326823 1.1354355" fill="#efefed"/><path d="m56.1268229 25.6712491s8.6458334 5.5887362 14.2037761 5.993227l-9.1835938-5.0275215 16.9433594 4.3446994-9.8138021-4.5866135 14.5 1.0866626s-10.8704427-3.4940982-26.6497396-1.810454" fill="#c9c9c3"/><path d="m64.0436198 16.1579767s6.7558594-5.9431534 9.250651-7.4765767c2.4954427-1.53277301 5.9016927-5.01776687 5.9016927-5.01776687l-5.9485677 8.63347237 12.5266927-5.14847851-5.4348958 5.14847851s14.4016927-1.1230797 17.1126302-1.4105153c2.7109371-.2880859 0 2.8541963 0 2.8541963l8.8528651 2.4171902-15.3535161 3.4511779-10.1282552.9891166v-4.248454z" fill="#efefed"/><path d="m10.8848307 75.7753681-2.94205726-1.8780859-7.70247396 8.7199632.52278646 3.1273252 8.29296875-8.0117792z" fill="#aab8ba"/><path d="m111.370638 75.7753681 2.942057-1.8780859 7.702474 8.7199632-.522786 3.1273252-8.292969-8.0117792z" fill="#aab8ba"/><path d="m115.507682 29.9147607 6.573568 5.0808467-.804687-2.5407485h1.341145l-2.026041-1.076908h3.904297l-4.494141-2.4789693h2.884115l-2.294271-1.7350184h.81901l-2.817708-2.4861227h4.561849l-4.025391-2.1447117 3.820313-1.573092-2.537761-.799227 2.989584-2.103092-4.0625.0409693.938802-.7517546-1.093099-1.3201227 1.207682-1.7421718-5.205078-.0747852.78776-2.9250798-7.979817.8460491 4.509114 2.6304908-1.557943.8044294.939454.5358528-.939454.8037791 3.602214.5560123-4.406901.9182331 4.531901 1.019681-.985026 1.1991657h1.953125l-4.427083.862957 3.458984 2.1017914-2.169271-.4935828 5.954427 4.0943313h-2.213541l1.140625 1.7350184h-2.71224z" fill="#dbdbd7"/><path d="m18.3327474 17.4611264-1.0143229-1.1094233.2252604 1.3506871-2.1790365-1.6511289.5260417 1.4098651-4.4075521-3.4167117 3.1210938 4.0715706-2.6419271-1.1562454 1.4049479 2.5095337-2.7903646-1.4293742 1.3059896 2.6545521-3.31054687-2.6545521 2.15429687 4.6893619-3.02994791-2.8060736.3359375 2.6363436-3.16471354-1.8306135 1.73958333 3.6677301-1.07682292-.5371534-.74283854 1.5444785-2.08919271-.3661227 2.11132813 4.753092-2.98893229.5104908 4.11132812 6.883497.50390625-5.1913988 1.3828125 1.0762577.09440104-1.0762577 1.12369792.5150429-1.00325521-3.4999509 2.68033853 3.612454-.97070311-4.5378405 1.50260421.3914847-1.41536463-3.4485767 4.47656253 1.630319-.6061198-4.0058896 3.6842448.5592638-2.0651042-2.8867116 2.0279948.8876687-.1425781-2.3820736 1.6529948.7875214z" fill="#dbdbd7"/><path d="m56.1570313 84.1010503.8372395-1.0235828s.8027344-4.0442577 1.4303386-4.4331411c.6276041-.3882331 2.6927083-.7537055 2.6927083-.7537055s2.2272136.6587607 2.6100261.7517546c.3828125.0936441.8736979 1.3116687 1.5130208 4.435092.6386719 3.1234233 2.0403646-.8636074 2.0403646-.8636074l-.639974-5.8150429-9.2643229-.4565154-1.828776 3.0792025z" fill="#443e3b"/><path d="m100.576953 99.3832589c-7.6874999 6.7222211-20.6966145 3.9753251-24.329427.5599141-3.6334635-3.4160613-7.8033854-10.029681-7.6966145-14.619546.1067708-4.5905153 1.2337239-9.0139018 5.7727864-10.9992883 0 0 5.984375-3.8426626 15.4954427-3.4160614 9.5110677.4272515 14.2441404 5.2050552 15.2122394 6.8516319 1.202474 2.0465153 3.05599 15.0565521-4.454427 21.6233497m-54.5898436.5599141c-3.6334636 3.415411-16.6419271 6.162307-24.3300782-.5599141-7.5097656-6.5667976-5.656901-19.5768344-4.453776-21.6233497.9674479-1.6465767 5.7005208-6.4243804 15.2115885-6.8516319 9.5110678-.4266012 15.4954428 3.4160614 15.4954428 3.4160614 4.5397135 1.9853865 5.6660156 6.408773 5.7727864 10.9992883.1074219 4.589865-4.063151 11.2034847-7.6959635 14.619546m58.5794266-28.6076442c-6.3059891-2.4744171-15.4511714-3.1045644-22.2070308-2.0731779-8.2408854 1.257043-14.7682292 6.4503927-14.7682292 6.4503927s-1.0690104-1.1751043-2.1373698-1.2817546c-.6582031-.065681-3.9244791-.2848344-4.3365885-.2828835-.4127604-.0019509-3.6790365.2172025-4.3365885.2828835-1.0690105.1066503-2.1380209 1.2817546-2.1380209 1.2817546s-6.5273437-5.1933497-14.7675781-6.4503927c-6.7565104-1.0313865-15.9016927-.4012392-22.2076823 2.0731779-2.0507812.8044295-9.72460936 2.5622086-9.72460936 2.5622086v4.6965154s3.15039066-.8889694 4.48828126 1.9210061c.6588542 1.3838528.5755208 11.0025399 5.7070312 18.2007853 4.186849 5.8729198 10.6901042 7.3549688 18.0397136 7.0291658 12.0214844-.532601 17.7278646-10.099264 20.8164062-22.6677425 0 0-3.8417968-4.7017178 4.1230469-4.6750552 7.9648438.0266625 4.1230469 4.6750552 4.1230469 4.6750552 3.0878906 12.5684785 8.7942708 22.1351415 20.8157552 22.6677425 7.3496094.325803 13.8528646-1.156246 18.0397132-7.0291658 5.131511-7.1982454 5.048828-16.8169325 5.707032-18.2007853 1.33789-2.8099755 4.488281-1.9210061 4.488281-1.9210061v-4.6965154s-7.673828-1.7577791-9.72461-2.5622086" fill="#142019"/></g></g></svg>