<svg height="330" viewBox="0 0 230 330" width="230" xmlns="http://www.w3.org/2000/svg" xmlns:xlink="http://www.w3.org/1999/xlink"><linearGradient id="a" x1="50.000093%" x2="50.000093%" y1="100%" y2="-.000169%"><stop offset="0" stop-color="#fdddc8"/><stop offset="1" stop-color="#e9cdba"/></linearGradient><mask id="b" fill="#fff"><path d="m111.052311.54855617h-.03466-17.328197v26.55687783c0 10.0891438-10.8813778 14.8948598-25.1575048 19.6271317-14.2839746 4.7277222-16.0908889 13.5072206-16.0908889 13.5072206l-52.4410603 89.2482687h24.7461587l36.4188381-50.8181396 9.6447238 50.8181396h79.4336004c5.02313-40.647102.193574-55.8734356.193574-55.8734356l31.972508 55.8734356h23.134127l-38.467067-88.6262684s-2.041688-8.8652916-16.326317-13.5930138c-14.275473-4.7316219-22.369638-10.074195-22.369638-20.1633388v-26.55687783z" fill="#fff" fill-rule="evenodd"/></mask><g fill="none" fill-rule="evenodd"><path d="m111.052311.54855617h-.03466-17.328197v26.55687783c0 10.0891438-10.8813778 14.8948598-25.1575048 19.6271317-14.2839746 4.7277222-16.0908889 13.5072206-16.0908889 13.5072206l-52.4410603 89.2482687h24.7461587l36.4188381-50.8181396 9.6447238 50.8181396h79.4336004c5.02313-40.647102.193574-55.8734356.193574-55.8734356l31.972508 55.8734356h23.134127l-38.467067-88.6262684s-2.041688-8.8652916-16.326317-13.5930138c-14.275473-4.7316219-22.369638-10.074195-22.369638-20.1633388v-26.55687783z" fill="url(#a)" mask="url(#b)" transform="translate(6 180.511945)"/><g transform="translate(34.696517 30)"><path d="m144.798839 74.2990672c0 49.2670278-17.603862 89.4943598-62.8650329 89.4943598-45.2565822 0-61.9970334-40.709544-61.9970334-89.9765723 0-49.2761389 42.1182803-59.1995662 62.7607939-59.1995662 20.6425134 0 62.1012724 10.4056399 62.1012724 59.6817787" fill="#fedec8"/><path d="m67.7572302 105.851323c0 6.765944-5.5934807 12.255098-12.4837153 12.255098-6.8948238 0-12.4771595-5.489154-12.4771595-12.255098 0-6.7665941 5.5823357-12.2531451 12.4771595-12.2531451 6.8902346 0 12.4837153 5.486551 12.4837153 12.2531451" fill="#6dcff6"/><path d="m64.5465513 105.848785c0 4.721909-3.8620716 8.557484-8.6170546 8.557484-4.7589166 0-8.6157435-3.835575-8.6157435-8.557484 0-4.7141 3.8568269-8.5509759 8.6157435-8.5509759 4.754983 0 8.6170546 3.8368759 8.6170546 8.5509759" fill="#2a1d01"/><path d="m52.2993723 101.41679c0 1.364642-1.1184339 2.480694-2.489925 2.480694-1.3767357 0-2.4951696-1.116052-2.4951696-2.480694 0-1.363992 1.1184339-2.4683301 2.4951696-2.4683301 1.3714911 0 2.489925 1.1043381 2.489925 2.4683301" fill="#fff"/><path d="m54.892618 132.979848c8.5403508 5.139046 17.6831874 8.312798 26.948619 8.195011 9.3218122 0 18.252894-3.579826 27.133495-8.195011-3.262208 3.816703-7.34128 6.981996-11.9677673 9.261605-4.6173095 2.316703-9.8449718 3.579827-15.1191809 3.661883-5.26962.009701-10.5346509-1.157761-15.1834286-3.438021-4.6448442-2.243818-8.8392992-5.40846-11.8117372-9.485467" fill="#c42c76"/><path d="m98.2933604 105.851323c0 6.765944 5.5934806 12.255098 12.4837156 12.255098 6.894823 0 12.477159-5.489154 12.477159-12.255098 0-6.7665941-5.582336-12.2531451-12.477159-12.2531451-6.890235 0-12.4837156 5.486551-12.4837156 12.2531451" fill="#6dcff6"/><path d="m101.504039 105.848785c0 4.721909 3.862072 8.557484 8.616399 8.557484 4.759572 0 8.616399-3.835575 8.616399-8.557484 0-4.7141-3.856827-8.5509759-8.616399-8.5509759-4.754327 0-8.616399 3.8368759-8.616399 8.5509759" fill="#2a1d01"/><path d="m101.991928 101.41679c0 1.364642 1.118434 2.480694 2.489925 2.480694 1.376736 0 2.49517-1.116052 2.49517-2.480694 0-1.363992-1.118434-2.4683301-2.49517-2.4683301-1.371491 0-2.489925 1.1043381-2.489925 2.4683301" fill="#fff"/><path d="m22.8517156 105.164382s8.0866836-47.9811282 32.3893476-55.3002171c28.82688-8.6804773 53.4553718-1.6360087 61.2168828 1.6073752 12.308018 5.1442517 25.587618 52.4062909 25.587618 52.4062909s6.477869-39.8668115 2.591541-52.0848158c-3.886984-12.2167028-13.604116-24.1132321-13.604116-24.1132321s-3.238607-13.5032538-15.546625-16.7186551c-12.308673-3.21475056-20.7297067-9.96637746-20.7297067-9.96637746v3.21475054l-21.3774283-3.85770065 1.2960984 3.85770065-25.9121337 2.25032538 3.2392626 3.85835144-17.4904444 5.1442516 3.8863284 1.9288503-17.4897888 10.2885033h7.1255909l-8.3128616 15.6527115-2.0519919 2.6739696 3.8863284 1.2859002-5.8294926 16.0750543h5.1824268l-3.7558663 16.1557483-.1311177.5635575 3.238607-.6429501z" fill="#edc866"/><path d="m117.429594 51.7932104 11.660296-19.2904555-12.956394 14.7898048s-46.6405298-11.5744035-64.7793512 4.5006507c0 0 27.5314372-14.4676789 66.0754492 0" fill="#c6a956"/><path d="m114.838315 49.8644252s11.660296 7.394577 20.405191 31.8292841c0 0-4.534706-21.8629067-19.109748-34.4010846z" fill="#c6a956"/><path d="m100.910863 46.006269-18.4620266-8.3596529.9715821 2.8939262-16.842723-4.1791757 5.1824267 5.1436009-11.6602963-1.2859003 2.5908856 1.6073753-13.9273211 2.2503254 7.1255909.9650759s-10.3648535 1.9288503-13.2795997 5.4657267c-2.9147463 3.5368764-12.3080177 27.6494577-12.3080177 27.6494577s14.5750425-26.0420824 21.7006335-27.9709328c7.1262465-1.929501 48.9088656-4.1798264 48.9088656-4.1798264" fill="#c6a956"/><g fill="#efe08a"><path d="m116.781676 21.2500868-8.744894-5.7878525 5.181771 5.1449024-6.676513-1.2832972-3.363825-.6462039.323861 3.2154013 4.858566.9644251-12.6325337.9644252 8.0978287 2.2503254-2.914746 4.5013015h9.716476z"/><path d="m130.709128 41.5049675c-.647721.9644251-4.534705 5.1442516-3.238607 10.2885032 1.295443 5.1442516 5.181771 13.8253796 5.181771 13.8253796l-1.295442-12.8609544 3.239262 2.2509761z"/><path d="m109.332028 38.933102c-9.068755-.3214751-25.5876177-7.073102-25.5876177-7.073102l13.9273211 2.8932755-1.2954428-3.2147506 8.0971734.9644252s-11.6602966-5.7872017-10.3648539-5.4657267c1.2960984.3214751 14.2518379 2.2509762 14.2518379 2.2509762z"/><path d="m37.7509467 48.8997397c-1.9431642 6.4301518-8.0978286 26.3642082-8.0978286 26.3642082l2.2676804-11.8965292s-.9715821-.9637744-.9715821-2.2503254c0-1.2859002 6.8017303-12.2173536 6.8017303-12.2173536"/></g><path d="m33.5402331 258.524902s2.5948191 24.038395 4.6107536 41.474838h82.6572483c1.979221-19.145337 6.014368-40.510412 6.014368-40.510412l8.744895 16.39783 26.235994-22.184381-20.405846-50.155966-18.462027-9.645553s-8.744894 28.936009-37.8956348 29.901085c-29.1507407.963774-44.6980209-29.901085-44.6980209-29.901085l-13.6034604 4.822126-26.23599435 44.368764 19.43426415 33.758785z" fill="#542f82"/><path d="m57.9752604 300h43.2393366c7.19115-5.42603 12.72825-13.519523 12.328341-21.862907-.648377-13.503904-5.830148-35.36616-12.308018-36.65206-6.4785249-1.286551-20.7297067-3.858352-20.7297067-3.858352s-8.4210337-1.929501-19.4336086 7.073102c-11.0125748 9.002603-18.7865427 30.86551-10.3648535 46.297614 2.0500251 3.756182 4.5235604 6.707375 7.2685092 9.002603" fill="#c42c76"/><path d="m86.1291133 260.268742c-1.5071979 0-2.7285592-1.213015-2.7285592-2.70846 0-1.496095 1.2213613-2.709111 2.7285592-2.709111 1.5071978 0 2.7285591 1.213016 2.7285591 2.709111 0 1.495445-1.2213613 2.70846-2.7285591 2.70846m9.2772322 7.041865c-2.4558344-5.958351-4.3655635-11.646637-1.0908992-11.917353 0 0-4.3662191-6.77115-12.8252769-1.083514-8.4584023 5.687635-10.6415118 33.314967-21.556404 31.960737 0 0 15.271933 2.294577 25.3765179-.541431 9.8915186-2.77679 12.5518965-12.458786 10.0960622-18.418439" fill="#fff"/></g></g></svg>