<?xml version="1.0" encoding="UTF-8"?>
<svg width="69px" height="88px" viewBox="0 0 69 88" version="1.1" xmlns="http://www.w3.org/2000/svg" xmlns:xlink="http://www.w3.org/1999/xlink">
    <!-- Generator: Sketch 61.2 (89653) - https://sketch.com -->
    <title>icon-informatieveiligheid</title>
    <desc>Created with Sketch.</desc>
    <g id="Page-1" stroke="none" stroke-width="1" fill="none" fill-rule="evenodd">
        <g id="Artboard" transform="translate(-9.000000, 0.000000)" fill="#FFFFFF">
            <path d="M42.3506,-0.0013 C30.3266,10.8977 22.5966,11.6357 9.7066,12.0457 L11.0506,54.3317 C11.5876,71.2067 23.4696,75.2357 45.1476,87.9817 C65.9726,73.8847 77.5746,69.1087 77.0386,52.2347 L75.6936,9.9477 C62.8046,10.3577 55.0426,10.1127 42.3506,-0.0013 L42.3506,-0.0013 Z M42.6466,9.3247 C52.0226,15.6507 59.6126,17.1967 68.5906,17.3667 L69.7056,52.4677 C70.0606,63.6197 63.9716,66.6937 44.8726,79.3367 C25.0286,67.9387 18.7376,65.2507 18.3826,54.0987 L17.2676,18.9977 C26.2236,18.2577 33.6926,16.2337 42.6466,9.3247 L42.6466,9.3247 Z M57.0796,29.0607 L41.5406,45.9757 L33.1736,38.4517 L28.7866,43.1377 L41.8296,55.0607 L61.7626,33.4547 L57.0796,29.0607 Z" id="icon-informatieveiligheid"></path>
        </g>
    </g>
</svg>