<?xml version="1.0" encoding="UTF-8"?>
<svg width="58px" height="86px" viewBox="0 0 58 86" version="1.1" xmlns="http://www.w3.org/2000/svg" xmlns:xlink="http://www.w3.org/1999/xlink">
    <!-- Generator: Sketch 61.2 (89653) - https://sketch.com -->
    <title>icon-procesaanpak</title>
    <desc>Created with Sketch.</desc>
    <g id="Page-1" stroke="none" stroke-width="1" fill="none" fill-rule="evenodd">
        <g id="Artboard" transform="translate(-44.000000, -1402.000000)" fill="#FFFFFF">
            <path d="M93.69,1444.8536 C88.616,1447.3886 85.352,1445.7586 81.237,1443.1086 C77.18,1440.5006 71.625,1436.9246 62.444,1437.2166 C59.36,1437.3146 56.196,1438.1936 53.212,1439.4326 L52.492,1416.7886 C57.667,1413.8336 64.396,1412.8946 70.817,1417.6046 C77.11,1422.2166 83.627,1425.1286 92.992,1422.9006 L93.69,1444.8536 Z M87.579,1415.5436 C75.741,1415.9196 75.151,1405.7296 61.409,1406.1656 C58.107,1406.2716 54.977,1407.0876 52.218,1408.1556 L52.036,1402.4336 L43.983,1402.6896 L46.543,1483.2196 C46.614,1485.4436 48.474,1487.1886 50.697,1487.1186 C52.921,1487.0466 54.667,1485.1876 54.596,1482.9626 L53.492,1448.2346 C56.431,1446.5976 59.793,1445.3586 62.7,1445.2656 C75.678,1444.8536 77.81,1454.4996 89.378,1454.1316 C96.851,1453.8936 101.885,1448.9416 101.885,1448.9416 L100.65,1410.0856 C100.646,1410.0856 95.097,1415.3046 87.579,1415.5436 L87.579,1415.5436 Z" id="icon-procesaanpak"></path>
        </g>
    </g>
</svg>