<svg height="120" viewBox="0 0 120 120" width="120" xmlns="http://www.w3.org/2000/svg"><path d="m80.707 60.42c-5.074 2.535-8.338.905-12.453-1.745-4.057-2.608-9.612-6.184-18.793-5.892-3.084.098-6.248.977-9.232 2.216l-.72-22.644c5.175-2.955 11.904-3.894 18.325.816 6.293 4.612 12.81 7.524 22.175 5.296zm-6.111-29.31c-11.838.376-12.428-9.814-26.17-9.378-3.302.106-6.432.922-9.191 1.99l-.182-5.722-8.053.256 2.56 80.53c.071 2.224 1.931 3.969 4.154 3.899 2.224-.072 3.97-1.931 3.899-4.156l-1.104-34.728c2.939-1.637 6.301-2.876 9.208-2.969 12.978-.412 15.11 9.234 26.678 8.866 7.473-.238 12.507-5.19 12.507-5.19l-1.235-38.856c-.004 0-5.553 5.219-13.071 5.458z" fill="#fff" fill-rule="evenodd"/></svg>