<svg height="120" viewBox="0 0 120 120" width="120" xmlns="http://www.w3.org/2000/svg"><g fill="#fff" fill-rule="evenodd" transform="translate(8 28)"><path d="m82.5552 11.6505c-5.425.17-9.534 3.61-9.336 9.713.494 15.223 9.273 7.493 10.413 24.647.028.434-.081 7.253-.154 12.067 6.956-2.366 13.526-5.409 19.61-9.05l-.109-3.404c-.124-3.831-.513-6.036-5.341-6.932-5.572-1.034-10.753-1.931-8.405-6.455 7.148-13.773 1.338-20.836-6.678-20.586m6.431 30.475c2.219.896 4.79 1.373 7.318 1.841l.214.04c.26.048.464.096.621.138.046.376.081.93.104 1.655l.008.25c-2.561 1.416-5.204 2.721-7.913 3.908.046-3.352.042-3.975.021-4.299-.085-1.278-.211-2.451-.373-3.533m-6.255-25.061c1.085-.033 2.539.16 3.303 1.276 1.106 1.619 1.175 5.495-1.954 11.523-.122.234-.233.466-.333.694-.584-.603-1.19-1.16-1.804-1.701-1.818-1.6-2.82-2.48-2.988-7.672-.088-2.727 1.112-4.037 3.776-4.12"/><path d="m49.9962.504c-10.893.34-17.825 10.59-7.105 27.943 3.62 5.86-3.454 7.487-10.624 9.287-6.337 1.593-6.67 4.55-6.505 9.65l1.403 14.297c7.976 1.605 16.314 2.343 24.884 2.075 8.569-.268 16.843-1.523 24.699-3.621.131-3.971.475-14.341.475-14.341-.166-5.106-.686-8.042-7.122-9.235-7.424-1.378-14.336-2.574-11.204-8.607 9.536-18.362 1.782-27.781-8.901-27.448m.176 5.414c1.939-.06 4.567.329 6.07 2.526 2.278 3.331 1.345 9.737-2.497 17.134-2.098 4.041-1.38 7.098-.409 8.95 2.582 4.923 9.077 6.127 15.359 7.292l.286.054c1.447.268 1.985.563 2.116.648.191.387.32 1.493.384 3.288l-.335 10.106c-6.301 1.408-12.766 2.223-19.273 2.426s-13.011-.207-19.391-1.22l-.989-10.081c-.053-1.788.004-2.895.17-3.294.125-.093.642-.42 2.066-.778l.451-.112c6.142-1.54 12.494-3.132 14.732-8.232.842-1.92 1.342-5.024-1.062-8.915-4.337-7.021-5.694-13.312-3.631-16.828 1.373-2.339 3.995-2.902 5.953-2.964"/><path d="m18.2335 13.6574c-8.016.25-13.356 7.661-5.327 20.96 2.637 4.373-2.476 5.586-7.969 6.966-4.766 1.194-5.011 3.42-4.887 7.251 0 0 .076 2.292.113 3.407 6.308 3.254 13.064 5.882 20.161 7.809-.385-4.856-.942-11.782-.938-12.264.111-16.899 9.285-9.859 8.793-25.018-.198-6.103-4.521-9.28-9.946-9.111m-4.444 30.816c-.085 1.017-.134 2.111-.142 3.293-.002.356.043 1.103.31 4.548-2.785-1.016-5.511-2.154-8.162-3.41l-.009-.249c-.023-.727-.025-1.281-.004-1.66.157-.053.359-.112.618-.178l.222-.056c2.486-.624 5.014-1.258 7.167-2.288m4.619-25.402c2.665-.083 3.947 1.148 4.035 3.876.168 5.194-.774 6.136-2.484 7.846-.577.576-1.144 1.169-1.687 1.805-.116-.22-.241-.445-.378-.672-3.514-5.82-3.698-9.693-2.699-11.376.69-1.162 2.128-1.446 3.213-1.479"/></g></svg>