<?xml version="1.0" encoding="UTF-8"?>
<svg width="76px" height="96px" viewBox="0 0 76 96" version="1.1" xmlns="http://www.w3.org/2000/svg" xmlns:xlink="http://www.w3.org/1999/xlink">
    <!-- Generator: Sketch 61.2 (89653) - https://sketch.com -->
    <title>icon-mobiel</title>
    <desc>Created with Sketch.</desc>
    <g id="Page-1" stroke="none" stroke-width="1" fill="none" fill-rule="evenodd">
        <g id="Artboard" transform="translate(-29.000000, -1105.000000)" fill="#FFFFFF">
            <g id="icon-mobiel" transform="translate(29.000000, 1105.000000)">
                <path d="M67.626,76.6867 L10.543,78.5007 L8.423,11.8347 L65.507,10.0207 L67.626,76.6867 Z M39.094,89.9207 C36.898,89.9917 35.061,88.2677 34.991,86.0717 C34.921,83.8747 36.645,82.0377 38.841,81.9677 C41.038,81.8977 42.875,83.6227 42.944,85.8187 C43.014,88.0147 41.291,89.8517 39.094,89.9207 L39.094,89.9207 Z M65.23,1.2907 L8.146,3.1057 C4.01,3.2377 0.764,6.6967 0.896,10.8327 L3.355,88.2247 C3.487,92.3597 6.946,95.6057 11.082,95.4747 L68.166,93.6607 C72.301,93.5287 75.547,90.0697 75.416,85.9337 L72.956,8.5407 C72.824,4.4067 69.365,1.1607 65.23,1.2907 L65.23,1.2907 Z" id="Fill-18"></path>
                <polygon id="Fill-20" points="52.3951 37.5919 47.7421 33.2259 34.4891 47.7029 27.8781 41.8239 23.5131 46.4789 34.7751 56.7269"></polygon>
                <path d="M74.3409,51.1212 L72.9559,7.5412 C72.8239,3.4062 69.3649,0.1602 65.2299,0.2912 L8.4329,2.0972 L16.4409,10.5252 L65.5069,9.0202 L66.6359,44.5332 L74.3409,51.1212 Z" id="Fill-22"></path>
            </g>
        </g>
    </g>
</svg>