<svg height="120" viewBox="0 0 120 120" width="120" xmlns="http://www.w3.org/2000/svg"><g fill="#fff" fill-rule="evenodd" transform="translate(26 11)"><path d="m20.3243 44.3883 11.316-.349-16.43-27.211-14.612 28.168 11.316-.349.636 19.372 8.285-4.084z"/><path d="m67.7803 27.4191-16.43-27.21-14.613 28.167 11.317-.349.533 16.227c.163 4.981-2.65 9.683-7.39 12.3l-19.094 12.307c-5.689 3.189-9.101 8.939-8.902 15.006l.337 10.236c.069 2.109 2.012 3.768 4.33 3.696 2.319-.071 4.149-1.846 4.08-3.955l-.336-10.236c-.11-3.356 1.786-6.526 4.996-8.3l19.092-12.306c7.221-4.034 11.55-11.317 11.297-19.007l-.533-16.227z"/></g></svg>