<svg height="60" viewBox="0 0 100 60" width="100" xmlns="http://www.w3.org/2000/svg"><path d="m75.6959 295.2033 9.145 30.969 14.271-4.136-8.972-30.976zm-20.049 45.65-1.018-.844c-.229.996-.654 1.939-1.287 2.728l-1.42 1.868c.564.421 1.212.689 1.874.668.615-.019 1.212-.228 1.695-.624 1.143-.958 1.226-2.652.156-3.796zm-6.041-4.495c-1.244-.887-3.056-.56-4.058.703l-2.429 3.182c-.989 1.268-.785 3.009.462 3.883 1.248.874 3.057.565 4.053-.715l2.421-3.178c1.006-1.259.802-3.002-.449-3.875zm-7.612 3.098 2.413-3.165c.997-1.267.793-3.005-.454-3.887-1.252-.878-3.056-.553-4.053.716l-2.417 3.156c-.997 1.272-.785 3.018.462 3.892 1.239.874 3.052.564 4.049-.712zm-5.676-3.92 2.449-3.199c.985-1.259.785-3.009-.463-3.884-1.243-.874-3.051-.56-4.045.716l-2.444 3.195c-.997 1.272-.774 2.967.478 3.854 1.256.878 3.032.593 4.025-.682zm-5.616-3.98 2.417-3.165c.993-1.272.793-3.01-.455-3.888-1.251-.882-3.064-.556-4.053.708l-2.421 3.173c-.997 1.263-.789 3.006.454 3.88s3.065.559 4.058-.708zm45.464-5.062c.554 1.168.851 2.444.759 3.737-.217 3.434-2.692 6.072-5.806 6.807-.979 2.234-2.911 3.759-5.175 4.307-.941 2.146-2.865 3.77-5.22 4.34-1.254 2.802-3.873 4.307-6.78 4.399-2.131.068-4.17-.623-5.67-2.043-3.78 1.79-7.861.051-9.331-3.271-2.47-.203-4.631-1.721-5.631-3.942-2.483-.215-4.661-1.746-5.666-3.967-4.924-.413-7.821-5.704-5.275-10.146-.969-.209-2.053-.365-3.121-.529l1.389-6.096c2.178.344 4.2.772 6.048 1.288 3.684-2.825 8.844-1.501 10.615 2.469 2.52.205 4.67 1.77 5.641 3.955 2.478.202 4.647 1.716 5.644 3.946 3.058.242 5.702 2.518 6.172 5.731l.038.93 1.911 1.601c1.079 1.168 2.85 1.248 3.978.311 1.152-.958 1.256-2.619.191-3.764l-6.185-5.09c-.667-.554.165-1.576.848-1.023l6.329 5.206c1.099 1.18 2.901 1.28 4.016.343 1.148-.946 1.223-2.647.161-3.791l-8.044-6.475c-.686-.536.149-1.575.828-1.026l8.247 6.637c1.061 1.132 2.844 1.294 4.008.344 1.14-.946 1.361-2.549-.139-4.109-5.267-4.43-11.346-9.581-17.607-15.132-1.402 2.061-8.789 6.488-13.344 6.633s-7.435-2.554-8.271-5.289c-.724-2.383.061-4.71 2.007-5.93 2.168-1.362 4.257-3.285 6.284-5.445-3.335-2.317-5.02-1.486-8.534.325-2.046 1.049-4.474 2.296-7.572 2.915l1.59-6.954c5.416-2.189 10.315-6.975 18.593-.934l1.955-2.344c1.573-1.898 3.669-3.072 6.113-3.15 1.801-.057 3.779.545 5.869 1.537 6.373 3.076 9.634 4.886 14.389 4.892l1.824 6.176-.032.001c-7.417.372-11.118-1.747-18.843-5.478-2.153-1.019-3.589-1.2-4.548-.037-3.917 4.754-8.084 9.802-12.78 13.068 2.427 1.816 8.278-2.157 10.583-4.14 1.006-.863 2.574-2.016 4.597-2.081 2.284-.072 3.987 1.242 5.219 2.393 2.897 2.719 10.926 9.529 14.482 12.528 1.76-1.056 3.527-1.91 5.334-2.67l1.775 6.008c-1.3.595-2.577 1.264-3.863 2.029zm-76.166-1.308 6.986-31.482 14.678 3.216-7.159 31.488z" fill="#fff" fill-rule="evenodd" transform="translate(0 -291)"/></svg>