<svg height="120" viewBox="0 0 120 120" width="120" xmlns="http://www.w3.org/2000/svg"><g fill="#fff" fill-rule="evenodd" transform="translate(22 12)"><path d="m67.626 76.6867-57.083 1.814-2.12-66.666 57.084-1.814zm-28.532 13.234c-2.196.071-4.033-1.653-4.103-3.849-.07-2.197 1.654-4.034 3.85-4.104 2.197-.07 4.034 1.655 4.103 3.851.07 2.196-1.653 4.033-3.85 4.102zm26.136-88.63-57.084 1.815c-4.136.132-7.382 3.591-7.25 7.727l2.459 77.392c.132 4.135 3.591 7.381 7.727 7.25l57.084-1.814c4.135-.132 7.381-3.591 7.25-7.727l-2.46-77.393c-.132-4.134-3.591-7.38-7.726-7.25z"/><path d="m52.3951 37.5919-4.653-4.366-13.253 14.477-6.611-5.879-4.365 4.655 11.262 10.248z"/><path d="m74.3409 51.1212-1.385-43.58c-.132-4.135-3.591-7.381-7.726-7.25l-56.797 1.806 8.008 8.428 49.066-1.505 1.129 35.513z"/></g></svg>