<svg height="120" viewBox="0 0 120 120" width="120" xmlns="http://www.w3.org/2000/svg"><path d="m34.6599658 42.0178184c7.3383317 0 12.448733 7.0061621 5.4968917 20.1068021-2.2827871 4.3046914 2.4336432 5.328315 7.4966682 6.4949722 4.3885369 1.0124296 4.6802748 3.1517157 4.6802748 6.8593971 0 0-.8041495 12.8108413-.9836806 15.6864399-1.7042982.4228822-4.3760693.8345703-7.6437838.8345703-7.0270834 0-16.8038941-1.9100157-25.6015533-9.7425399l-.4703452-.425288-.6445663-6.3656201c0-3.7014624.2942315-5.838261 4.6777813-6.8494469 4.9595454-1.1442693 9.8505198-2.1641615 7.4954214-6.4949722-6.9692956-12.8270104-1.9848155-20.1043145 5.4968918-20.1043145zm22.0920441 8.8209483c5.5056189 0 9.3356147 5.2536888 4.1242272 15.078236-1.7117787 3.2288295 1.8239857 3.9962362 5.6240596 4.871851 3.1945966.7363856 3.4940901 2.2730313 3.5089438 4.9067523l.0006389.2424597v5.2648826c-3.7140486 3.6641494-9.1610707 7.0870072-13.9872145 8.6466961.1570897-3.4887778.7143841-13.7536199.7044101-14.0695376-.4002046-12.4663169-6.5965194-7.0584006-6.5965194-18.1093059 0-4.4303123 2.8961849-6.8320342 6.6214543-6.8320342zm-22.0920441-4.7849113c-1.3165611 0-3.090677.3395494-4.0581498 1.9626706-1.4761443 2.4713729-.6832154 7.0260624 2.118217 12.1839807 1.5833641 2.9116679 1.1632117 5.1865251.5323595 6.5820362-1.5728203 3.4817415-5.5917236 4.5862558-9.6281386 5.524696l-.733546.1692876-.3129325.0708951c-.8926684.2064659-1.2604577.4092006-1.3714179.4838268-.1001231.2720989-.1556289.9341972-.1684789 1.9706429l-.002325.2669011.4650354 4.5870276c7.8831586 6.6715877 16.3635073 8.1093869 22.2057471 8.1093869 1.4711572 0 2.7528094-.0932828 3.8050609-.2164161.2780237-4.4352875.7131372-11.3668233.7779679-12.3941781-.0037402-1.2387959-.0623372-2.0186404-.1732974-2.3196329-.1024247-.0688858-.4236862-.2469291-1.1755933-.4363038l-.1970711-.0475232-.1957388-.0447758c-4.3087453-.9925292-8.7646063-2.0186403-10.4477098-5.6939836-.6358392-1.3868046-1.0684591-3.6541992.4812429-6.5745735 2.783978-5.2449823 3.5681797-9.8295223 2.0970224-12.2660697-.9574989-1.585808-2.7129136-1.9178948-4.018254-1.9178948zm25.9519617 27.2038837c.077298.7375563.1309081 1.5348134.1570897 2.3930155.0099739.2810922.0112207.330843-.3029586 6.4029331-.024935.456464-.0486231.9203905-.0723112 1.3855609 1.7576312-1.0226562 3.4738889-2.219256 5.0060459-3.5033191l.5656504-.4854546v-3.5124092c0-.4825832-.0099739-.8594458-.0274283-1.1256128-.0631683-.0190712-.1352024-.0386951-.2175798-.0596088l-.1315083-.0324303-.1458691-.032338c-1.6656491-.3843252-3.3587267-.7748694-4.8311307-1.4303367zm-3.8599176-18.3841792c-1.7579082 0-2.575772.8892962-2.575772 2.797241 0 3.483602.5400761 4.2449619 1.6171661 5.3275936l.2305078.2295752c.3740229.3706438.743059.7512377 1.0983808 1.1567071.0561035-.1169145.1147005-.2350727.1782843-.353231 2.2603458-4.2611595 2.3077222-7.0347688 1.5995718-8.2088886-.4737625-.7848196-1.4287679-.9489973-2.1481388-.9489973zm29.5826032-3.8923814.2917379 4.024843-10.6471888.7698942-.2917379-4.024843zm-85.66897679.0002487 10.64843559.7698944-.2929847 4.0248429-10.64718885-.7698943zm84.12513439-18.6885299 2.2092293 3.3793257-13.8962022 9.0447029-2.2092293-3.3793258zm-82.58154136-.0003731 13.89869566 9.0459465-2.2117228 3.3780821-13.8962022-9.0447028zm41.29052136-32.2925242 10.9513941 17.8506015 15.8884982-8.92405698-6.709973 24.54457698v3.4129077s-8.1474683-3.8059393-20.1299193-3.8059393c-11.9812043 0-20.1286725 3.8059393-20.1286725 3.8059393v-3.4129077l-6.7112198-24.54457698 15.8897448 8.92405698zm0 8.55092566-9.3867313 15.30087094-10.3230354-5.7984604 3.6055819 13.1852164s8.0090797-2.8432606 16.1041848-2.8432606c8.0963517 0 16.1041848 2.8432606 16.1041848 2.8432606l3.6068287-13.1852164-10.3230356 5.7984604z" fill="#fefefe" transform="translate(16 14)"/></svg>