<svg height="120" viewBox="0 0 120 120" width="120" xmlns="http://www.w3.org/2000/svg"><path d="m58.644 16c-12.024 10.899-19.754 11.637-32.644 12.047l1.344 42.286c.537 16.875 12.419 20.904 34.097 33.65 20.825-14.097 32.427-18.873 31.891-35.747l-1.345-42.287c-12.889.41-20.651.165-33.343-9.949zm.296 9.326c9.376 6.326 16.966 7.872 25.944 8.042l1.115 35.101c.355 11.152-5.734 14.226-24.833 26.869-19.844-11.398-26.135-14.086-26.49-25.238l-1.115-35.101c8.956-.74 16.425-2.764 25.379-9.673zm14.433 19.736-15.539 16.915-8.367-7.524-4.387 4.686 13.043 11.923 19.933-21.606z" fill="#fff" fill-rule="evenodd"/></svg>