<?xml version="1.0" encoding="utf-8"?>
<!-- Generator: Adobe Illustrator 24.1.0, SVG Export Plug-In . SVG Version: 6.00 Build 0)  -->
<svg version="1.1" id="Layer_1" xmlns="http://www.w3.org/2000/svg" xmlns:xlink="http://www.w3.org/1999/xlink" x="0px" y="0px"
	 viewBox="0 0 512 512" style="enable-background:new 0 0 512 512;" xml:space="preserve">
<style type="text/css">
	.st0{fill:#FFFFFF;}
</style>
<g>
	<path class="st0" d="M414.3,267.2c6,0,17,1.4,22.7,11c8.1,13.5,4,38.6-11.2,67.2c-3.6,6.7-5.1,12.8-5.4,18
		c-5-8.7-11-15.3-17.4-21.7c-9.5-9.4-15.7-15.6-15.7-45.9C387.2,270.9,404.2,267.2,414.3,267.2 M430.2,389.4
		c11,11.2,29.1,15.4,48,19.7l1,0.2c6.5,1.5,8.2,3,8.2,3c0,0,0,0,0,0c0.8,1.3,1.2,6.1,1.2,14.1l0,6c-17.9,9.9-36.5,18.7-55.7,26.3
		c1.2-27.2,1.4-32.3,1.3-34C433.8,410.5,432.4,399,430.2,389.4 M414.3,247c-26.6,0-47.2,17.2-47.2,48.8c0,79,44.2,40.3,47,129.5
		c0.1,2.3-1.5,37.6-2.7,62.5c34.4-11.1,67-25.9,97.4-43.7l0-17.7c0-19.9-1.6-31.4-25-36.8c-27.1-6.3-52.3-11.7-40.1-34.8
		C480.9,284.6,453.6,247,414.3,247L414.3,247z"/>
	<path class="st0" d="M256.7,204.2c9.4,0,26.7,2.3,36.1,17.9c12.2,20.3,6.9,55.4-14.7,96.2c-9.4,17.8-6.9,31.2-3.2,39.4
		c10.2,22.4,38.6,28.9,68.6,35.9l1.4,0.3c16.6,3.8,17.7,5.5,17.7,28.7l-3.6,58.6c-33.5,7.2-67.8,10.9-102.2,10.9
		c-34.4,0-68.8-3.6-102.2-10.9l-3.6-58.7c0-23.2,1.1-24.8,17.7-28.7l2.2-0.5c29.7-6.9,57.8-13.3,68-35.8c3.7-8.2,6.1-21.7-3.5-39.4
		c-21.8-40.2-27.2-75-14.9-95.7C229.8,206.5,247.2,204.2,256.7,204.2 M256.7,184c-53.4,0-88.9,52-39.2,143.7
		c16.8,31-18.1,38.3-53.5,46.4c-31.3,7.2-33.4,22.5-33.4,49l4.6,74.4c38.8,9.6,79.5,14.8,121.4,14.8c42,0,82.7-5.2,121.4-14.8
		c1.3-20.6,4.6-74.3,4.6-74.3c0-26.5-2.1-41.8-33.4-49c-36.1-8.3-69.7-15.7-53.5-46.4C345.5,234.1,309.1,184,256.7,184L256.7,184z"
		/>
	<path class="st0" d="M99.2,267.2c10.1,0,27,3.7,27,28.7c0,30.2-6.3,36.5-15.7,45.9c-6.4,6.4-12.4,13-17.4,21.7
		c-0.3-5.3-1.9-11.3-5.4-18c-15.1-28.6-19.3-53.7-11.2-67.2C82.2,268.7,93.2,267.2,99.2,267.2 M83.3,389.4c-2.1,9.3-3.5,20.4-4,34
		c-0.1,1.9,0.1,7.4,1.3,35.3c-19.2-7.6-37.9-16.4-55.7-26.3l0-6c0-8,0.4-12.7,1.2-14c0,0,1.6-1.6,8.3-3.1l1.1-0.3
		C54.3,404.7,72.3,400.5,83.3,389.4 M99.2,247c-39.3,0-66.6,37.6-29.4,107.8c12.2,23.1-13,28.6-40.1,34.8
		c-23.5,5.4-25.1,16.9-25.1,36.8c0,0,0,11.9,0,17.7c30.4,17.9,63,32.6,97.4,43.7c-1.1-25.2-2.7-61.2-2.6-63.7
		c3.2-87.6,47-49.6,47-128.3C146.4,264.2,125.8,247,99.2,247L99.2,247z"/>
</g>
</svg>
