<?xml version="1.0" encoding="utf-8"?>
<!-- Generator: Adobe Illustrator 24.1.0, SVG Export Plug-In . SVG Version: 6.00 Build 0)  -->
<svg version="1.1" id="Layer_1" xmlns="http://www.w3.org/2000/svg" xmlns:xlink="http://www.w3.org/1999/xlink" x="0px" y="0px"
	 viewBox="0 0 512 512" style="enable-background:new 0 0 512 512;" xml:space="preserve">
<style type="text/css">
	.st0{fill:#FFFFFF;}
	.st1{fill:#E5E5E5;}
</style>
<g>
	<g>
		<path class="st0" d="M385.5,99.3H130.4c-18.5,0-33.5,15-33.5,33.5v345.8c0,18.5,15,33.5,33.5,33.5h255.1c18.5,0,33.5-15,33.5-33.5
			V132.7C419,114.3,404,99.3,385.5,99.3z M256.3,491.2c-9.8,0-17.8-8-17.8-17.8s8-17.8,17.8-17.8s17.8,8,17.8,17.8
			S266.1,491.2,256.3,491.2z M385.5,436.2H130.4V138.3h255.1V436.2z"/>
		<polygon class="st0" points="323.1,259.5 302.9,239.3 241.7,302.1 213,274.9 192.9,295.1 241.7,342.4 		"/>
	</g>
	<path class="st1" d="M419,327.5V132.7c0-18.5-15-33.5-33.5-33.5H131.7l34.5,38.8l219.2,0.2V297L419,327.5z"/>
</g>
</svg>
