<?xml version="1.0" encoding="utf-8"?>
<!-- Generator: Adobe Illustrator 24.1.0, SVG Export Plug-In . SVG Version: 6.00 Build 0)  -->
<svg version="1.1" id="Layer_1" xmlns="http://www.w3.org/2000/svg" xmlns:xlink="http://www.w3.org/1999/xlink" x="0px" y="0px"
	 viewBox="0 0 512 512" style="enable-background:new 0 0 512 512;" xml:space="preserve">
<style type="text/css">
	.st0{fill:#FFFFFF;}
</style>
<g>
	<path class="st0" d="M255.2,38.3l-56.1,91.7l-81.4-45.8l34.4,126v17.5c0,0,41.7-19.5,103.1-19.5s103.1,19.5,103.1,19.5v-17.5
		l34.4-126l-81.4,45.8L255.2,38.3z M337.7,198.7c0,0-41-14.6-82.5-14.6c-41.5,0-82.5,14.6-82.5,14.6L154.2,131l52.9,29.8l48.1-78.6
		l48.1,78.6l52.9-29.8L337.7,198.7z"/>
	<path class="st0" d="M373,401.7c-19.5-4.5-37.6-8.4-28.8-25c26.7-50.5,7.1-77.4-21.1-77.4c-19.1,0-33.9,12.3-33.9,35.1
		c0,56.7,31.7,29,33.8,93c0.1,1.6-2.8,54.3-3.6,72.2c24.7-8,52.6-25.6,71.7-44.4v-27C391,413.9,389.9,405.6,373,401.7z M325.9,367
		c-0.3,0.6-0.6,1.2-0.9,1.8c-1.8-2.1-3.7-4-5.6-5.9c-6.3-6.3-9.5-9.4-9.5-28.5c0-9.8,4.2-14.4,13.2-14.4c3.7,0,8.6,0.8,11,4.9
		C337.7,330.9,337.5,345.2,325.9,367z M370.3,446.2c-8.5,7.5-18.4,14.6-28.5,20.5c0.1-2.4,0.2-4.8,0.4-7.1
		c1.6-31.2,1.6-31.4,1.6-32.9c-0.1-4.4-0.4-8.5-0.8-12.3c7.5,3.4,16.2,5.4,24.8,7.3l0.7,0.2c0.7,0.2,1.3,0.3,1.8,0.5
		c0.1,1.4,0.1,3.3,0.1,5.8V446.2z"/>
	<path class="st0" d="M276.5,390.6c-25.9-6-50.1-11.2-38.4-33.3C273.7,290,247.5,254,209.9,254c-38.3,0-63.9,37.4-28.2,103.2
		c12.1,22.2-13,27.5-38.4,33.3c-22.5,5.2-24,16.2-24,35.2l3.3,32.7c45.7,42.1,96.9,52.2,133.6,52.2c16.7,0,30.4-2.1,39.2-4.3
		c0.9-14.8,5-80.6,5-80.6C300.4,406.8,298.9,395.8,276.5,390.6z M275.7,488.8c-5.4,0.6-12,1.1-19.5,1.1c-29.9,0-73.4-7.4-113.8-41.6
		l-2.4-23.6c0-6.1,0.3-10,0.9-11.5c0.6-0.4,2.5-1.4,7-2.5l1.6-0.4c21.9-5.1,44.5-10.3,53.1-29.2c3.2-7.2,5.4-18.8-2.7-33.8
		c-14.4-26.5-18.4-49.9-10.9-62.6c5-8.3,14-10.1,20.8-10.1c6.7,0,15.7,1.7,20.6,9.8c7.5,12.5,3.5,36.1-10.7,63
		c-7.9,15-5.7,26.6-2.5,33.8c8.6,18.9,31.4,24.1,53.5,29.2l1,0.2c4.6,1.1,6.5,2.1,7,2.5c0.6,1.6,0.9,5.6,0.9,11.9
		C279.4,430.5,277.2,466,275.7,488.8z"/>
	
		<rect x="63.3" y="193.5" transform="matrix(0.5464 -0.8375 0.8375 0.5464 -164.2381 168.689)" class="st0" width="20.7" height="85"/>
	
		<rect x="51.9" y="285" transform="matrix(7.233828e-02 -0.9974 0.9974 7.233828e-02 -253.7329 351.875)" class="st0" width="20.7" height="54.7"/>
	
		<rect x="394.3" y="225.6" transform="matrix(0.8375 -0.5464 0.5464 0.8375 -57.9685 276.9835)" class="st0" width="85" height="20.7"/>
	
		<rect x="420.7" y="302" transform="matrix(0.9974 -7.225315e-02 7.225315e-02 0.9974 -21.3963 33.192)" class="st0" width="54.7" height="20.7"/>
</g>
</svg>
