<?xml version="1.0" encoding="utf-8"?>
<!-- Generator: Adobe Illustrator 24.1.0, SVG Export Plug-In . SVG Version: 6.00 Build 0)  -->
<svg version="1.1" id="Layer_1" xmlns="http://www.w3.org/2000/svg" xmlns:xlink="http://www.w3.org/1999/xlink" x="0px" y="0px"
	 viewBox="0 0 512 512" style="enable-background:new 0 0 512 512;" xml:space="preserve">
<style type="text/css">
	.st0{fill:#FFFFFF;}
</style>
<path class="st0" d="M321.4,238L246.1,315L208,278.5l-21.2,21.3l59.3,57.8l96.6-98.2L321.4,238z M256.7,143.5
	c43,31,78.3,39.4,120.3,41.5v164.6c0,52.3-29,65.8-120.3,122.2c-91.3-56.3-120.3-69.9-120.3-122.2V185
	C178.5,182.9,213.8,174.5,256.7,143.5z M256.7,99.7c-57.9,49.3-94.3,51.6-154.7,51.6v198.3c0,79.1,55.1,99.8,154.7,162.7
	c99.6-62.9,154.7-83.6,154.7-162.7V151.3C351,151.3,314.7,149,256.7,99.7z"/>
</svg>
