<?xml version="1.0" encoding="utf-8"?>
<!-- Generator: Adobe Illustrator 24.1.0, SVG Export Plug-In . SVG Version: 6.00 Build 0)  -->
<svg version="1.1" id="Layer_1" xmlns="http://www.w3.org/2000/svg" xmlns:xlink="http://www.w3.org/1999/xlink" x="0px" y="0px"
	 viewBox="0 0 512 512" style="enable-background:new 0 0 512 512;" xml:space="preserve">
<style type="text/css">
	.st0{fill:#FFFFFF;}
</style>
<g>
	<polygon class="st0" points="174.5,376.2 204.9,360.9 204.9,298.6 245.9,298.6 189.7,187.8 133.5,298.6 174.5,298.6 	"/>
	<path class="st0" d="M322.3,125.7l-56.2,110.9h41v65c0,19.9-10.7,38.4-28.2,48.3l-70.5,46.9c-21,12.1-34,34.6-34,58.9v41
		c0,8.4,6.8,15.3,15.2,15.3c8.4,0,15.2-6.9,15.2-15.3v-41c0-13.4,7.2-25.9,19.1-32.6l70.5-46.9c26.6-15.2,43.1-43.8,43.1-74.6v-65
		h41L322.3,125.7z"/>
</g>
</svg>
