<?xml version="1.0" encoding="utf-8"?>
<!-- Generator: Adobe Illustrator 24.1.0, SVG Export Plug-In . SVG Version: 6.00 Build 0)  -->
<svg version="1.1" id="Layer_1" xmlns="http://www.w3.org/2000/svg" xmlns:xlink="http://www.w3.org/1999/xlink" x="0px" y="0px"
	 viewBox="0 0 512 512" style="enable-background:new 0 0 512 512;" xml:space="preserve">
<style type="text/css">
	.st0{fill:#FFFFFF;}
</style>
<path class="st0" d="M327.7,178.5c-56.2,0-57.4-48.4-122.7-48.4c-15.7,0-30.6,3.4-43.9,8V111H123v382.2c0,10.6,8.6,19.1,19.1,19.1h0
	c10.6,0,19.1-8.6,19.1-19.1V328.3c14.2-7.3,30.3-12.7,44.1-12.7c61.6,0,70.2,46,125.1,46c35.5,0,60.1-22.7,60.1-22.7V154.6
	C390.5,154.6,363.4,178.5,327.7,178.5z M352.3,318.4c-24.4,11.3-39.7,3-58.8-10.1c-18.8-13-44.6-30.8-88.2-30.8
	c-14.6,0-29.8,3.7-44.1,9.1V179.1c25-13.2,57-16.7,86.7,6.6c29.1,22.8,59.6,37.6,104.3,28.5V318.4z"/>
</svg>
