<?xml version="1.0" encoding="utf-8"?>
<!-- Generator: Adobe Illustrator 24.1.0, SVG Export Plug-In . SVG Version: 6.00 Build 0)  -->
<svg version="1.1" id="Layer_1" xmlns="http://www.w3.org/2000/svg" xmlns:xlink="http://www.w3.org/1999/xlink" x="0px" y="0px"
	 viewBox="0 0 512 512" style="enable-background:new 0 0 512 512;" xml:space="preserve">
<style type="text/css">
	.st0{fill:#FFFFFF;}
</style>
<path class="st0" d="M10.8,375.5L50,221.8l71.7,18.1L81.6,393.6L10.8,375.5z M385.1,393.8c2.5,5.8,3.8,12.2,3.2,18.5
	c-1.6,16.9-14.2,29.4-29.6,32.6c-5.2,10.8-14.9,18-26.1,20.4c-5,10.4-14.7,18.1-26.3,20.5c-6.6,13.6-19.7,20.6-34,20.6
	c-10.5,0-20.4-3.7-27.6-10.9c-18.9,8.2-38.7-1-45.4-17.5c-12.1-1.4-22.5-9.2-27.1-20.3c-12.2-1.4-22.6-9.3-27.2-20.4
	c-24.1-2.8-37.6-29.3-24.4-50.7c-4.7-1.2-10-2.1-15.3-3.1l7.8-29.8c10.7,2,20.5,4.5,29.5,7.3c18.6-13.3,43.7-6,51.8,13.8
	c12.4,1.4,22.7,9.4,27.1,20.3c12.2,1.4,22.6,9.2,27.1,20.3c15,1.7,27.6,13.3,29.5,29.1l0,4.6l9.1,8.2c5.1,5.9,13.8,6.6,19.5,2.2
	c5.8-4.5,6.6-12.7,1.5-18.5l-29.6-26c-3.2-2.8,1.1-7.7,4.3-4.9l30.3,26.6c5.2,6,14.1,6.7,19.7,2.3c5.8-4.5,6.4-12.8,1.4-18.6
	l-38.5-33.1c-3.3-2.7,1-7.7,4.2-4.9l39.5,33.9c5,5.7,13.8,6.8,19.7,2.3c5.8-4.5,7.1-12.3,0-20.2c-25.2-22.6-54.3-48.9-84.2-77.2
	c-7.2,9.9-44.2,30.5-66.6,30.5s-36.2-13.7-39.8-27.3c-3.2-11.8,1-23.2,10.8-28.8c10.9-6.4,21.4-15.5,31.7-25.8
	c-16-11.9-24.5-8.1-42,0.3c-10.2,4.8-22.4,10.6-37.7,13.2l8.9-33.9c27-9.9,51.8-32.7,91.6-1.7l10-11.2c8-9.1,18.5-14.5,30.5-14.5
	c8.9,0,18.5,3.3,28.6,8.5c30.9,16.1,46.6,25.5,70,26.3l8,30.7h-0.2c-36.5,0.7-54.4-10.3-91.8-29.9c-10.4-5.3-17.5-6.5-22.4-0.9
	c-20,22.8-41.3,46.9-64.9,62.3c11.6,9.3,41-9.3,52.7-18.7c5.1-4.1,13-9.5,22.9-9.5c11.2,0,19.4,6.7,25.3,12.6
	c13.8,13.8,52.2,48.6,69.3,63.9c8.8-4.9,17.6-8.8,26.6-12.3l7.8,29.8C397.9,387.2,391.5,390.3,385.1,393.8z M160.7,411.6l12.4-15.2
	c5.1-6.1,4.4-14.7-1.6-19.2c-6-4.5-15-3.2-20,2.8L139,395.3c-5.1,6.1-4.3,14.7,1.6,19.1C146.6,418.9,155.6,417.7,160.7,411.6z
	 M187.7,432l12.5-15.3c5-6,4.3-14.7-1.7-19.2c-6-4.5-14.9-3.2-20,2.9l-12.5,15.3c-5.1,6.1-4.3,14.5,1.7,19
	C173.8,439.3,182.6,438.2,187.7,432z M215,452.2l12.4-15.2c5.1-6.1,4.4-14.7-1.6-19.2c-6-4.5-14.9-3.2-20,2.9l-12.4,15.1
	c-5.1,6.1-4.3,14.7,1.7,19.2C200.9,459.6,209.9,458.3,215,452.2z M252.9,438.2c-6-4.6-14.9-3.2-20.1,2.8l-12.4,15.3
	c-5.1,6.1-4.3,14.7,1.7,19.2c6,4.5,14.9,3.3,20-2.9l12.4-15.2C259.7,451.3,258.9,442.7,252.9,438.2z M281.9,461.2l-4.9-4.3
	c-1.3,4.9-3.5,9.4-6.7,13.2l-7.3,9c2.7,2.2,5.9,3.6,9.1,3.6c3,0,6-0.9,8.4-2.8C286.3,475.3,287,467,281.9,461.2z M387.6,239.9
	l40.1,153.7l70.8-18.1l-39.3-153.7L387.6,239.9z"/>
</svg>
