<svg height="71" viewBox="0 0 70 71" width="70" xmlns="http://www.w3.org/2000/svg"><g fill="none"><g fill="#00a39c"><ellipse cx="34.957831" cy="35.111122" rx="34.957831" ry="35.026619"/><ellipse cx="34.957831" cy="35.111122" rx="34.957831" ry="35.026619"/></g><path d="m59.6771084 10.3432042c-13.6542168-13.68108465-35.7843373-13.68108465-49.4385542 0l49.4385542 49.5358359c13.6542169-13.6810846 13.6542169-35.8547512 0-49.5358359z" fill="#00b3ab"/><path d="m14.899307 14.848485h26.156391v31.72893h-26.156391z" fill="#213a38" opacity=".3"/><path d="m15.881866 15.735422h26.156391v31.578318h-26.156391z" fill="#fff"/><g transform="translate(30.688009 27.483159)"><path d="m6.88638141 9.09529198h-6.7085044v-8.96978197h6.66615273c.12705501 0 .22022868.10040801.22022868.21755068v8.56814994c.00847033.10040801-.076233.18408135-.17787701.18408135z" fill="#231f20" opacity=".3"/><path d="m6.77626707 8.98651664h-6.70003407v-8.96141464h6.59839006c.16093635 0 .28799135.12551001.28799135.28448936v8.49284393c.00847034.10040801-.076233.18408135-.18634734.18408135z" fill="#4c2974"/><path d="m1.592423 2.38469h3.854002v1h-3.854002z" fill="#e9be40"/><path d="m6.97108475 8.50121127v-2.73611819l-6.89485175-2.58550619v5.79856242h6.40357239c.27105068.00836733.49127936-.20918335.49127936-.47693804z" fill="#452369"/><path d="m2.54957 1.38061h1.931236v1h-1.931236z" fill="#e9be40"/><path d="m3.04932 7.472029h1v1h-1z" fill="#e9be40"/><g transform="translate(2.03288 2.5102)"><path d="m.13552534 3.92427961.94020706-3.58958625c.04235167-.15897935.21175834-.25938735.37269469-.21755068l5.17537397 1.32203876c.16093634.04183667.26258035.20918334.22022868.36816269l-.94020706 3.58958625c-.04235166.15897935-.21175834.25938736-.37269468.21755069l-5.17537398-1.32203876c-.16940668-.04183667-.26258035-.20918335-.22022868-.3681627z" fill="#231f20" opacity=".3"/><path d="m.076233 3.85734094.94867739-3.63142292c.04235167-.15061201.19481768-.24265269.34728369-.20081602l5.21772565 1.3304061c.152466.04183667.24563968.19244868.20328801.34306069l-.94867739 3.63142292c-.04235167.15061201-.19481768.24265269-.34728369.20081602l-5.21772564-1.3304061c-.15246601-.03346933-.24563968-.19244868-.20328802-.34306069z" fill="#b7eae6"/><path d="m1.40607542.03346934c-.16940668-.04183667-.34728369.05857133-.38963536.22591801l-.93173672 3.55611692c-.04235167.16734668.05929233.34306069.22869901.38489736l.05929234.01673467 4.81961995-3.2297909z" fill="#ddeed6"/><g fill="#6daaaa"><path d="m3.56006095 1.12806641.25958448.00075671.01005685 3.48732912-.25958448-.0007567z" transform="matrix(.24439395 -.96967603 .96967603 .24439395 .00686 5.753021)"/><path d="m2.85130529 2.3115836.25958449.0007567.00742058 2.57317489-.25958448-.0007567z" transform="matrix(.24439395 -.96967603 .96967603 .24439395 -1.234088 5.613382)"/></g></g></g><g fill="#dadbdc"><path d="m19.388584 38.938039h7.165902v1h-7.165902z"/><path d="m19.388584 41.623954h5.971585v1h-5.971585z"/><path d="m30.764242 38.938039h7.165902v1h-7.165902z"/><path d="m30.764242 41.623954h5.971585v1h-5.971585z"/></g><path d="m19.388584 19.927457h9.673121v1h-9.673121z" fill="#858789"/><path d="m19.388584 23.081942h17.575943v1h-17.575943z" fill="#dadbdc"/><g transform="translate(19.337762 27.399486)"><path d="m.050822.058571h7.377661v8.978149h-7.377661z" fill="#c32c76"/><path d="m.050822 4.76101301v4.41795231h7.37766077v-4.07489162z" fill="#b0256b"/><g transform="translate(.847033 1.924487)"><path d="m2.32087147 5.44713439s-.11011434-.54387671-.04235167-.58571338c.06776267-.050204.88938506-.16734668 1.23666874-.025102l.05929234.61081538-1.09267307.48530537z" fill="#afb1b4"/><path d="m4.58245061 5.76509308s-.05082201-.25102002-.46586837-.38489736c-.41504635-.13387735-.72844871-.27612202-.72844871-.56061138 0-.29285668 0-.76142738 0-.76142738h-.49974969-.4997497v.76142738c0 .29285669-.31340235.42673403-.72844871.56061138-.41504636.13387734-.46586836.38489736-.46586836.38489736l-1.13502473 2.56040418h.71150804l.67762671-1.4559161.27952101 1.4559161h1.16043574 1.16043573l.27952102-1.4559161.67762671 1.4559161h.71150804z" fill="#bfa573"/><path d="m4.69256495 1.8491808c0 1.41407943-.50822003 2.56877151-1.81265145 2.56877151-1.30443141 0-1.78724044-1.17142675-1.78724044-2.57713885 0-1.41407943 1.21125774-1.69856878 1.81265145-1.69856878.59292336 0 1.78724044.29285668 1.78724044 1.70693612z" fill="#d0b37d"/><path d="m2.23616813 3.56448425c.19481768.11714268.40657603.13387735.62680471.13387735.21175834 0 .42351669-.02510201.6268047-.13387735-.076233.08367334-.28799135.24265269-.6268047.24265269-.33881336 0-.55904204-.14224468-.62680471-.24265269z" fill="#494032"/><path d="m2.45639681 2.75285286c0 .19244868-.16093634.35142803-.35575402.35142803s-.35575402-.15897935-.35575402-.35142803.16093634-.35142802.35575402-.35142802.35575402.15897934.35575402.35142802z" fill="#896b4e"/><path d="m2.36322314 2.75285286c0 .13387735-.11011434.24265269-.24563968.24265269s-.24563968-.10877534-.24563968-.24265269c0-.13387734.11011434-.24265268.24563968-.24265268.12705501 0 .24563968.10877534.24563968.24265268z" fill="#2a1d01"/><path d="m2.00746912 2.62734285c0 .04183667-.03388134.07530601-.06776267.07530601-.04235167 0-.06776267-.03346934-.06776267-.07530601s.03388133-.06693867.06776267-.06693867c.03388133-.00836733.06776267.025102.06776267.06693867z" fill="#fff"/><path d="m3.3288412 2.75285286c0 .19244868.16093634.35142803.35575402.35142803s.35575402-.15897935.35575402-.35142803-.16093634-.35142802-.35575402-.35142802c-.18634735 0-.35575402.15897934-.35575402.35142802z" fill="#896b4e"/><path d="m3.42201487 2.75285286c0 .13387735.11011434.24265269.24563968.24265269s.24563968-.10877534.24563968-.24265269c0-.13387734-.11011434-.24265268-.24563968-.24265268-.12705501 0-.24563968.10877534-.24563968.24265268z" fill="#2a1d01"/><path d="m3.43895554 2.62734285c0 .04183667.03388133.07530601.06776267.07530601.04235167 0 .06776267-.03346934.06776267-.07530601s-.03388134-.06693867-.06776267-.06693867c-.03388134-.00836733-.06776267.025102-.06776267.06693867z" fill="#fff"/><path d="m4.70103528 5.53080773s-.025411-.05020401-.16093634-.10877534c-.18634735-.08367334-.18634735-.08367334-.87244439-.31795869l-.77927071.57734604-.77927071-.57734604c-.67762671.23428535-.67762671.23428535-.87244439.31795869-.13552534.05857133-.16093634.10877534-.16093634.10877534l-1.0757324 2.79468953h.81315205l.61833437-1.29693676.101644 1.29693676 1.32984242.03346933h.025411.025411l1.32984241-.03346933.10164401-1.29693676.61833437 1.29693676h.81315205z" fill="#00b4ac"/><path d="m2.27004947 4.86142101c.01694067.21755068.6268047.81163139.6268047.81163139s.64374537-.52714203.61833437-.83673339l.28799135.30959136c0 .23428535-.5505717.99571273-.5505717.99571273l-.34728368-.45183603-.33881336.4685707s-.58445303-.68612138-.58445303-1.0124474z" fill="#f4f4f4"/><path d="m2.56651115 6.19182711-.01694067-.01673467c-.025411-.025102-.59292336-.69448872-.59292336-1.02918207h.04235167c0 .28448935.46586836.87020272.56751236.97897807l.33881336-.4685707.34728368.45183603c.09317368-.11714268.55904204-.75306006.55904204-.9622434l.04235167.01673466c0 .24265269-.55904204.96224341-.57598271.98734541l-.01694066.01673467-.34728369-.45183604z" fill="#dbdcdd"/><path d="m4.74338695 1.30530409c-.00847034-.05857133-.025411-.10877534-.04235167-.16734668-.01694067-.050204-.03388134-.16734667-.03388134-.16734667s-.025411-.00836734-.03388133-.01673467c-.01694067-.03346934-.025411-.12551001-.025411-.12551001s-.09317367-.07530601-.13552534-.13387734c-.03388134-.03346934-.12705501-.15061202-.12705501-.15061202h-.04235167l-.11858467-.08367333s-.05929234-.09204068-.09317368-.12551001c-.01694066-.00836734-.050822.01673467-.05929233 0-.02541101-.01673467-.06776267-.05020401-.06776267-.05020401l-.05082201-.06693867-.16093634-.04183667s-.03388134-.025102-.05929234-.03346933c-.03388133-.00836734-.11858467.00836733-.11858467.00836733l-.04235167-.04183667-.14399568.01673467-.101644-.050204-.04235167.03346933-.09317367-.00836733s-.04235167-.025102-.05929234-.025102c-.025411 0-.08470334.00836733-.08470334.00836733s-.06776267-.025102-.101644-.025102c-.05082201 0-.18634735.03346933-.18634735.03346933l-.06776267-.00836733-.11011434.03346934s-.05929234-.00836734-.08470334-.00836734c-.03388133.00836734-.09317367.03346934-.09317367.03346934h-.10164401l-.04235166.01673467-.09317368-.00836734-.06776267.03346934s-.04235167-.00836734-.05929233 0c-.00847034 0-.02541101-.00836734-.02541101-.00836734l-.101644.07530601-.08470334.05857134h-.04235167s-.025411.05857133-.050822.075306c-.025411.025102-.09317367.04183667-.11858468.05857134-.01694066.01673467 0 .025102-.025411.04183667-.00847033.00836733-.05929233.01673467-.06776267.01673467-.01694067.00836733.00847034.025102-.00847033.03346933-.05929234.04183667-.11858468.09204068-.15246601.13387734-.025411.02510201-.050822.05857134-.06776267.09204068-.04235167.05857134-.07623301.12551001-.10164401.19244868-.00847033.025102-.01694067.050204-.03388133.075306-.03388134.08367334-.05082201.16734668-.07623301.25938735-.025411.13387735-.00847033.26775469-.00847033.40999937-.025411.84510072.21175834 1.32203876.21175834 1.32203876.17787701-.12551001-.050822-1.17979409.48280903-1.53122211.16940668-.10877534 1.06726207-.11714268 1.16890607-.11714268.10164401 0 .99102906.00836734 1.16043574.11714268.53363103.35142802.31340235 1.39734477.48280903 1.53122211 0 0 .24563968-.47693804.21175834-1.32203876 0-.12551001.025411-.26775469-.00847033-.3932647z" fill="#272524"/><path d="m4.54856927 2.45162884s-.03388133-.050204-.04235167-.16734668c-.025411-.28448935-.09317367-.81999872-.20328801-.9120394-.15246601-.12551-.46586836-.05857133-.54210137-.05857133-.076233 0-.34728368-.07530601-.40657602-.15061201 0 0-.24563968.08367334-.45739803.08367334-.21175834 0-.33034302-.08367334-.33034302-.08367334s-.20328801.100408-.27105068.100408-.16093634-.050204-.16093634-.050204-.00847034.05857134-.07623301.08367334c-.11858467.05857134-.42351669-.01673467-.48280903.05857134-.05929233.075306-.23716934.28448935-.25411001.66101938-.00847034.36816269-.08470334-.04183667-.08470334-.07530601 0-.03346933.050822-.58571337.06776267-.60244804.025411-.01673467.11011434-.06693867.11011434-.06693867s-.11011434-.20918335.06776267-.3681627c.050822-.04183666.30493202 0 .30493202 0s-.025411-.29285668.076233-.34306069c.10164401-.050204.22869902.05857134.37269469-.01673467.22869902-.10877534.31340235.19244869.38963536.13387735.076233-.050204.10164401-.31795869.28799135-.21755068.37269469.19244868.22022868 0 .48280903.03346933.26258035.03346934.16940668.15061201.35575402.25938735.19481768.10877535.34728369.02510201.39810569.08367334.050822.05857134.06776267.30122402.30493202.3932647.23716935.09204067.101644.94550873.11011434 1.00408007.01694067.075306.03388133.21755068-.01694067.21755068z" fill="#393735"/><g fill="#4f4c49"><path d="m2.51568915 1.11285541s-.17787701.10877534-.24563968.10877534-.16093634-.12551001-.16940668-.26775468c0 0 .09317367.18408134.14399568.20081601.050822.00836734.04235167-.10877534.09317367-.09204067s.08470334.04183667.11011434.025102c.05929234-.03346934-.025411-.48530537-.16940668-.71122338-.00847033.00836733.33881336.56061137.23716935.73632538z"/><path d="m3.36272253.80326406s-.00847033.29285668-.11011434.30959135c-.101644.01673467 0-.86183539 0-.86183539s-.08470333.56897871-.09317367.64428471c-.00847033.07530601-.04235167.10877534-.076233.10877534-.025411 0 .00847033.10877534-.025411.12551001-.03388134.01673467-.11858468.03346934-.14399568-.09204067 0 0-.00847033.12551001.08470334.14224467.09317367.01673467.30493202-.025102.33881335-.06693867.050822-.04183667.050822-.23428535.025411-.30959135z"/><path d="m1.68559643 1.23836542h.12705501.12705501c.01694067 0 .04235167 0 .05929234-.00836733.01694066 0 .025411-.01673467.03388133-.03346934s.00847033-.04183667 0-.05857134c0-.01673466-.00847033-.04183667-.01694067-.05857133.01694067.01673466.025411.03346933.03388134.05857133.00847033.02510201.00847033.04183667.00847033.06693868 0 .00836733-.00847033.025102-.01694067.03346933-.00847033.00836734-.00847033.00836734-.01694066.01673467-.00847034 0-.01694067.00836733-.01694067.00836733-.025411.00836734-.04235167.00836734-.06776267.00836734-.04235167 0-.08470334 0-.13552534-.00836734-.03388134-.00836733-.07623301-.01673466-.11858468-.025102z"/><path d="m3.48977754.60244804c-.00847033.10040801-.01694067.20081602-.01694067.29285669 0 .050204 0 .10040801.00847034.14224468 0 .025102.00847033.050204.00847033.06693867.00847033.025102.01694067.04183667.025411.05857134.00847034.00836733.01694067.01673466.025411.025102.00847034.00836733.01694067.00836733.02541101.01673467.01694066.00836733.04235166.00836733.05929233.00836733.00847034 0 .025411-.00836733.03388134-.00836733.00847033 0 .025411-.00836734.04235167-.00836734h.01694066c.00847034 0 .00847034 0 .01694067.00836734.00847034 0 .00847034.00836733.00847034.00836733s.00847033.00836733.00847033.00836733c.00847033.00836734.00847033.01673467.00847033.01673467 0 .00836734 0 0 .00847034.00836734.00847033 0 .01694067.00836733.03388133.00836733h.03388134c.025411 0 .050822 0 .06776267-.00836733.050822-.00836734.09317367-.03346934.13552534-.06693868-.03388134.03346934-.076233.06693868-.12705501.08367334-.025411.00836734-.050822.01673467-.076233.01673467-.01694067 0-.025411 0-.04235167 0s-.025411 0-.04235167-.00836733c0 0-.00847033-.00836734-.01694067-.00836734 0 0 0-.00836733-.00847033-.00836733v-.00836733c0-.00836734 0-.00836734-.00847034-.00836734 0 0 0 0-.00847033 0 0 0 0 0-.00847033 0 0 0 0 0-.00847034 0 0 0 0 0-.00847033 0-.01694067 0-.04235167.01673467-.06776267.01673467-.025411.00836733-.05929234 0-.08470334-.00836733-.01694067-.00836734-.025411-.00836734-.03388134-.01673467-.00847033-.00836734-.025411-.01673467-.03388133-.025102-.01694067-.02510201-.025411-.05020401-.03388134-.07530601-.00847033-.025102-.00847033-.050204-.00847033-.07530601 0-.050204 0-.100408 0-.15061201.025411-.100408.04235167-.20081601.06776267-.30122402z"/></g></g></g><path d="m20.972536 19.325009h26.156391v31.72893h-26.156391z" fill="#213a38" opacity=".3"/><path d="m21.955095 20.211946h26.156391v31.578318h-26.156391z" fill="#fff"/><g transform="translate(36.786649 31.917846)"><path d="m6.86097041 9.13712865h-6.7085044v-8.96978197h6.66615273c.12705501 0 .22022868.10040801.22022868.21755068v8.56814994c.00847033.10040801-.07623301.18408135-.17787701.18408135z" fill="#231f20" opacity=".3"/><path d="m6.75085607 9.03672064h-6.70003407v-8.96978197h6.59839006c.16093634 0 .28799135.12551001.28799135.28448936v8.49284393c.00847034.10877534-.076233.19244868-.18634734.19244868z" fill="#4c2974"/><path d="m1.567012 2.434894h3.854002v1h-3.854002z" fill="#e9be40"/><path d="m6.94567375 8.54304794v-2.73611819l-6.89485175-2.58550619v5.79856241h6.40357238c.27105069.00836734.49127937-.20918334.49127937-.47693803z" fill="#452369"/><path d="m2.524159 1.430814h1.931236v1h-1.931236z" fill="#e9be40"/><path d="m3.023909 7.522233h1v1h-1z" fill="#e9be40"/><g transform="translate(2.03288 2.5102)"><path d="m.11011434 3.96611628.94020706-3.58958625c.04235166-.15897935.21175834-.25938735.37269468-.21755068l5.17537398 1.32203876c.16093634.04183666.26258035.20918334.22022868.36816269l-.93173672 3.58958625c-.04235167.15897935-.21175835.25938736-.37269469.21755069l-5.17537398-1.32203877c-.17787701-.04183666-.27105068-.20081601-.22869901-.36816269z" fill="#231f20" opacity=".3"/><path d="m.050822 3.90754494.94867739-3.63142292c.04235167-.15061201.19481768-.24265268.34728369-.20081601l5.21772564 1.33040609c.15246601.04183667.24563968.19244868.20328802.34306069l-.94867739 3.63142293c-.04235167.15061201-.19481768.24265268-.34728369.20081601l-5.21772564-1.33040609c-.15246601-.04183667-.24563969-.19244868-.20328802-.3430607z" fill="#b7eae6"/><path d="m1.38066442.08367334c-.16940668-.04183667-.34728369.05857134-.38963536.22591802l-.93173672 3.55611691c-.04235167.16734668.05929233.3430607.22869901.38489737l.05929234.01673466 4.81961995-3.22979089z" fill="#ddeed6"/><g fill="#6daaaa"><path d="m3.53313674 1.17225424.25958448.0007567.01005685 3.48732913-.25958448-.0007567z" transform="matrix(.24439395 -.96967603 .96967603 .24439395 -.056333 5.760302)"/><path d="m2.82438858 2.35577982.25958449.00075671.00742058 2.57317489-.25958448-.00075671z" transform="matrix(.24439395 -.96967603 .96967603 .24439395 -1.297283 5.620677)"/></g></g></g><path d="m25.461813 43.414563h7.165902v1h-7.165902z" fill="#dadbdc"/><path d="m25.461813 46.100477h5.971585v1h-5.971585z" fill="#dadbdc"/><path d="m36.837471 43.414563h7.165902v1h-7.165902z" fill="#dadbdc"/><path d="m36.837471 46.100477h5.971585v1h-5.971585z" fill="#dadbdc"/><path d="m25.461813 24.40398h9.673121v1h-9.673121z" fill="#858789"/><path d="m25.461813 27.558465h17.575943v1h-17.575943z" fill="#dadbdc"/><g transform="translate(25.436402 31.917846)"><path d="m.025411.025102h7.377661v8.978149h-7.377661z" fill="#0095da"/><path d="m.025411 4.71917634v4.41795231h7.37766077v-4.06652429z" fill="#1b88c0"/><g transform="translate(.76233 1.924487)"><path d="m2.38016381 5.41366505s-.11011434-.5438767-.04235167-.58571337c.06776267-.05020401.88938505-.16734668 1.23666874-.02510201l.05929234.61081538-1.09267307.48530537z" fill="#afb1b4"/><path d="m4.64174294 5.72325641s-.050822-.25102002-.46586836-.38489736c-.41504636-.13387735-.72844871-.27612202-.72844871-.56061138 0-.29285668 0-.76142738 0-.76142738h-.49974969-.49127937v.76142738c0 .29285669-.31340235.42673403-.72844871.56061138-.41504636.13387734-.46586836.38489736-.46586836.38489736l-1.13502473 2.56040418h.71150804l.67762671-1.4559161.27952101 1.4559161h1.16043574 1.16043573l.27952102-1.4559161.67762671 1.4559161h.71150804z" fill="#bfa573"/><path d="m4.75185728 1.80734413c0 1.41407943-.50822003 2.56877151-1.81265144 2.56877151s-1.78724044-1.17142675-1.78724044-2.57713885c0-1.41407943 1.21125774-1.69856878 1.81265144-1.69856878.59292337 0 1.78724044.29285669 1.78724044 1.70693612z" fill="#d0b37d"/><path d="m2.29546047 3.53101492c.19481768.11714267.40657602.13387734.6268047.13387734.21175835 0 .4235167-.025102.62680471-.13387734-.07623301.08367334-.28799135.24265268-.62680471.24265268-.33881335 0-.55904203-.15061201-.6268047-.24265268z" fill="#494032"/><path d="m2.51568915 2.71101619c0 .19244868-.16093634.35142803-.35575402.35142803s-.35575402-.15897935-.35575402-.35142803.16093634-.35142802.35575402-.35142802.35575402.15897934.35575402.35142802z" fill="#896b4e"/><path d="m2.42251548 2.71101619c0 .13387735-.11011434.24265269-.24563968.24265269-.13552535 0-.24563969-.10877534-.24563969-.24265269 0-.13387734.11011434-.24265268.24563969-.24265268.13552534 0 .24563968.10877534.24563968.24265268z" fill="#2a1d01"/><path d="m2.06676146 2.58550618c0 .04183667-.03388134.07530601-.06776267.07530601-.04235167 0-.06776268-.03346934-.06776268-.07530601s.03388134-.06693867.06776268-.06693867c.03388133 0 .06776267.025102.06776267.06693867z" fill="#fff"/><path d="m3.39660387 2.71101619c0 .19244868.16093634.35142803.35575402.35142803s.35575402-.15897935.35575402-.35142803-.16093634-.35142802-.35575402-.35142802-.35575402.15897934-.35575402.35142802z" fill="#896b4e"/><path d="m3.48977754 2.71101619c0 .13387735.11011434.24265269.24563968.24265269s.24563968-.10877534.24563968-.24265269c0-.13387734-.11011434-.24265268-.24563968-.24265268s-.24563968.10877534-.24563968.24265268z" fill="#2a1d01"/><path d="m3.49824787 2.58550618c0 .04183667.03388134.07530601.06776268.07530601.04235166 0 .06776267-.03346934.06776267-.07530601s-.03388134-.06693867-.06776267-.06693867c-.03388134 0-.06776268.025102-.06776268.06693867z" fill="#fff"/><path d="m4.76032762 5.48897106s-.02541101-.05020401-.16093635-.10877534c-.18634734-.08367334-.18634734-.08367334-.87244438-.31795869l-.77927071.57734604-.77927072-.57734604c-.6776267.23428535-.6776267.23428535-.87244438.31795869-.13552534.05857133-.16093635.10877534-.16093635.10877534l-1.06726206 2.79468953h.81315205l.61833437-1.29693676.10164401 1.29693676 1.32984241.03346933h.025411.025411l1.32984241-.03346933.10164401-1.29693676.61833437 1.29693676h.81315205z" fill="#00b4ac"/><path d="m2.32934181 4.81958434c.01694066.21755068.6268047.81163139.6268047.81163139s.64374537-.52714203.61833437-.83673339l.28799135.30959136c0 .23428535-.5505717.99571273-.5505717.99571273l-.34728369-.45183603-.33881335.4685707s-.58445304-.68612138-.58445304-1.0124474z" fill="#f4f4f4"/><path d="m2.62580349 6.14999044-.01694067-.01673467c-.025411-.025102-.59292337-.69448872-.59292337-1.02918207h.04235167c0 .28448935.46586836.87020272.56751237.97897807l.33881335-.4685707.34728369.45183603c.09317367-.11714268.55904203-.75306006.55904203-.9622434l.04235167.01673466c0 .24265269-.55904203.96224341-.5759827.98734541l-.01694067.01673467-.34728368-.45183604z" fill="#dbdcdd"/><path d="m4.81114962 1.26346742c-.00847033-.05857133-.025411-.10877534-.04235167-.16734668-.01694067-.050204-.03388134-.16734667-.03388134-.16734667s-.025411-.00836734-.03388133-.01673467c-.01694067-.03346934-.025411-.12551001-.025411-.12551001s-.09317367-.07530601-.13552534-.13387734c-.03388134-.03346934-.12705501-.15061201-.12705501-.15061201h-.04235167l-.11858467-.08367334s-.05929234-.09204068-.09317368-.12551001c-.01694066-.00836734-.050822.01673467-.05929233 0-.025411-.01673467-.06776267-.05020401-.06776267-.05020401l-.05082201-.06693867-.16093634-.04183667s-.03388133-.025102-.05929234-.03346933c-.03388133-.00836734-.11858467.00836733-.11858467.00836733l-.04235167-.04183667-.14399567.01673467-.10164401-.050204-.04235167.03346933-.09317367-.00836733s-.04235167-.025102-.05929234-.025102c-.025411 0-.08470334.00836733-.08470334.00836733s-.06776267-.025102-.101644-.025102c-.05082201 0-.18634735.03346933-.18634735.03346933l-.06776267-.00836733-.11011434.03346934s-.05929234-.00836734-.08470334-.00836734c-.03388133.00836734-.09317367.03346934-.09317367.03346934h-.101644l-.04235167.01673467-.09317368-.00836734-.06776267.03346934s-.04235167-.00836734-.05929233 0c-.00847034 0-.02541101-.00836734-.02541101-.00836734l-.101644.07530601-.08470334.05857134h-.04235167s-.025411.05857133-.050822.075306c-.025411.025102-.09317367.04183667-.11858468.05857134-.01694066.01673467 0 .025102-.025411.04183667-.00847033.00836733-.05929233.01673467-.06776267.01673467-.01694067.00836733.00847034.025102-.00847033.03346933-.05929234.04183667-.11858468.09204068-.15246601.13387735-.025411.025102-.050822.05857133-.06776267.09204067-.04235167.05857134-.07623301.12551001-.10164401.19244868-.00847033.025102-.01694067.050204-.03388133.075306-.03388134.08367334-.05082201.16734668-.07623301.25938736-.025411.13387734-.00847033.26775468-.00847033.40999936-.025411.84510072.21175834 1.32203876.21175834 1.32203876.17787702-.12551001-.050822-1.17979409.48280903-1.53122211.16940668-.10877534 1.06726207-.11714268 1.16890607-.11714268.10164401 0 .99102906.00836734 1.16043574.11714268.53363103.35142802.31340235 1.39734477.48280903 1.53122211 0 0 .24563968-.47693804.21175834-1.32203876-.00847033-.12551001.01694067-.25938735-.00847033-.3932647z" fill="#272524"/><path d="m4.60786161 2.40979217s-.03388134-.050204-.04235167-.16734668c-.025411-.28448935-.09317367-.81999872-.20328801-.9120394-.15246601-.12551-.46586837-.05857133-.54210137-.05857133s-.34728369-.07530601-.40657602-.15061201c0 0-.24563968.08367334-.45739803.08367334s-.33034302-.08367334-.33034302-.08367334-.20328801.100408-.27105068.100408-.16093635-.050204-.16093635-.050204-.00847033.05857134-.076233.08367334c-.11858467.05857134-.42351669-.01673467-.48280903.05857134-.05929234.075306-.23716935.28448935-.25411001.66101938-.00847034.36816269-.08470334-.04183667-.08470334-.07530601 0-.03346933.050822-.58571337.06776267-.60244804.025411-.01673467.11011434-.06693867.11011434-.06693867s-.11011434-.20918335.06776267-.36816269c.050822-.04183667.30493202 0 .30493202 0s-.02541101-.29285669.076233-.3430607c.10164401-.050204.22869901.05857134.37269469-.01673466.22869901-.10877534.31340235.19244868.38963536.13387734.076233-.050204.101644-.31795869.28799135-.21755068.37269469.19244868.22022868 0 .48280903.03346933.26258034.03346934.16940667.15061201.35575402.25938735.19481767.10877535.34728368.02510201.39810569.08367334.05929233.05857134.06776267.30122402.30493202.3932647.23716934.09204067.101644.94550873.11011433 1.00408007.01694067.075306.03388134.21755068-.01694066.21755068z" fill="#393735"/><g fill="#4f4c49"><path d="m2.57498149 1.07938608s-.17787701.10877534-.24563968.10877534c-.06776268 0-.16093635-.12551001-.16940668-.26775469 0 0 .09317367.18408135.14399567.20081602.05082201.00836733.04235167-.10877534.09317368-.09204068.04235167.025102.08470333.04183667.11011434.025102.05929233-.03346933-.02541101-.48530536-.16940668-.71122338-.00847033 0 .34728369.55224404.23716935.73632539z"/><path d="m3.4304852.76142739s-.00847033.29285668-.11011434.30959135c-.101644.01673467 0-.86183539 0-.86183539s-.08470333.56897871-.09317367.64428471c-.00847033.07530601-.04235167.10877534-.076233.10877534-.025411 0 .00847033.10877534-.025411.12551001-.03388134.01673467-.11858468.03346934-.14399568-.09204067 0 0-.00847033.12551001.08470334.14224467.09317367.01673467.30493202-.025102.33881335-.06693867.04235167-.04183667.04235167-.22591801.025411-.30959135z"/><path d="m1.74488877 1.19652875h.12705501.12705501c.01694066 0 .04235166 0 .05929233-.00836733.01694067 0 .025411-.01673467.03388134-.03346934.00847033-.01673467.00847033-.04183667 0-.05857134 0-.01673466-.00847034-.04183667-.01694067-.05857133.01694067.01673466.025411.03346933.03388134.05857133.00847033.02510201.00847033.04183667.00847033.06693868 0 .00836733-.00847033.025102-.01694067.03346933-.00847033.00836734-.00847033.00836734-.01694067.01673467-.00847033 0-.01694066.00836733-.01694066.00836733-.02541101.00836734-.04235167.00836734-.06776267.00836734-.04235167 0-.08470334 0-.13552535-.00836734-.03388133 0-.076233-.00836733-.11858467-.025102z"/><path d="m3.54906988.56897871c-.00847034.100408-.01694067.20081601-.01694067.29285669 0 .050204 0 .100408.00847033.14224467 0 .025102.00847034.050204.00847034.06693867.00847033.025102.01694067.04183667.025411.05857134.00847033.00836733.01694067.01673467.025411.025102.00847033.00836734.01694067.00836734.025411.01673467.01694067.00836733.04235167.00836733.05929234.00836733.00847033 0 .025411-.00836733.03388133-.00836733.00847034 0 .02541101-.00836733.04235167-.00836733h.01694067c.00847034 0 .00847034 0 .01694067.00836733.00847033 0 .00847033.00836733.00847033.00836733s.00847034.00836734.00847034.00836734c.00847033.00836733.00847033.01673467.00847033.01673467 0 .00836733 0 0 .00847033.00836733.00847034 0 .01694067.00836733.03388134.00836733h.03388133c.02541101 0 .05082201 0 .06776268-.00836733.050822-.00836733.09317367-.03346934.13552534-.06693867-.03388134.03346933-.07623301.06693867-.12705501.08367334-.025411.00836733-.050822.01673467-.07623301.01673467-.01694066 0-.025411 0-.04235166 0-.01694067 0-.02541101 0-.04235167-.00836734 0 0-.00847034-.00836733-.01694067-.00836733 0 0 0-.00836734-.00847033-.00836734v-.00836733c0-.00836733 0-.00836733-.00847034-.00836733 0 0 0 0-.00847033 0 0 0 0 0-.00847034 0 0 0 0 0-.00847033 0 0 0 0 0-.00847033 0-.01694067 0-.04235167.01673466-.06776267.01673466-.02541101.00836734-.05929234 0-.08470334-.00836733-.01694067-.00836733-.025411-.00836733-.03388134-.01673467-.00847033-.00836733-.025411-.01673467-.03388133-.025102-.01694067-.025102-.02541101-.050204-.03388134-.07530601-.00847033-.025102-.00847033-.050204-.00847033-.075306 0-.050204 0-.10040801 0-.15061201.025411-.10877534.04235167-.20918335.06776267-.30122402z"/></g></g></g><path d="m27.045766 23.801532h26.156391v31.72893h-26.156391z" fill="#213a38" opacity=".3"/><path d="m28.028325 24.696837h26.156391v31.578318h-26.156391z" fill="#fff"/><g transform="translate(42.88529 36.436206)"><path d="m6.83555941 9.10365931h-6.7085044v-8.96978197h6.66615273c.127055 0 .22022868.10040801.22022868.21755069v8.56814994c.00847033.100408-.06776267.18408134-.17787701.18408134z" fill="#231f20" opacity=".3"/><path d="m6.72544507 8.99488397h-6.70003407v-8.96978197h6.59839006c.16093634 0 .28799135.12551001.28799135.28448936v8.49284393c.00847033.10877534-.076233.19244868-.18634734.19244868z" fill="#4c2974"/><path d="m1.541601 2.393058h3.854002v1h-3.854002z" fill="#e9be40"/><path d="m6.92026274 8.50957861v-2.7361182l-6.89485174-2.58550618v5.79856241h6.40357238c.27105068 0 .49127936-.21755068.49127936-.47693803z" fill="#452369"/><path d="m2.498748 1.388977h1.931236v1h-1.931236z" fill="#e9be40"/><path d="m3.006969 7.480397h1v1h-1z" fill="#e9be40"/><g transform="translate(2.03288 2.5102)"><path d="m.08470334 3.92427961.94020705-3.58958625c.04235167-.15897935.21175835-.25938735.37269469-.21755068l5.17537398 1.32203876c.16093634.04183667.26258035.20918334.22022868.36816269l-.94020706 3.58958625c-.04235167.15897935-.21175834.25938736-.37269469.21755069l-5.17537397-1.32203876c-.16093635-.03346934-.26258035-.20081602-.22022868-.3681627z" fill="#231f20" opacity=".3"/><path d="m.025411 3.86570827.94867739-3.63142292c.04235167-.15061201.19481768-.24265268.34728369-.20081601l5.21772564 1.33040609c.15246601.04183667.24563968.19244868.20328801.34306069l-.94867739 3.63142293c-.04235166.15061201-.19481767.24265268-.34728368.20081601l-5.21772565-1.33040609c-.15246601-.04183667-.23716934-.19244868-.20328801-.3430607z" fill="#b7eae6"/><path d="m1.36372375.04183667c-.16940668-.04183667-.34728369.05857134-.38963536.22591802l-.93173672 3.55611692c-.04235167.16734667.05929234.34306069.22869901.38489736l.05929234.01673466 4.81961995-3.22979089z" fill="#ddeed6"/><g fill="#6daaaa"><path d="m3.51442513 1.13481506.25958448.00075671.01005685 3.48732913-.25958448-.00075671z" transform="matrix(.24439395 -.96967603 .96967603 .24439395 -.034167 5.713869)"/><path d="m2.7974723 2.31630394.25958449.0007567.00742058 2.57317489-.25958448-.0007567z" transform="matrix(.24439395 -.96967603 .96967603 .24439395 -1.279342 5.564749)"/></g></g></g><path d="m31.535043 47.899454h7.165902v1h-7.165902z" fill="#dadbdc"/><path d="m31.535043 50.577001h5.971585v1h-5.971585z" fill="#dadbdc"/><path d="m42.910701 47.899454h7.165902v1h-7.165902z" fill="#dadbdc"/><path d="m42.910701 50.577001h5.971585v1h-5.971585z" fill="#dadbdc"/><path d="m31.535043 28.888871h9.673121v1h-9.673121z" fill="#858789"/><path d="m31.535043 32.034989h17.575943v1h-17.575943z" fill="#dadbdc"/><g transform="translate(31.535043 36.352533)"><path d="m0 .066939h7.377661v8.978149h-7.377661z" fill="#f05a24"/><path d="m0 4.76101301v4.42631964h7.37766077v-4.07489162z" fill="#da5222"/><g transform="translate(.76233 1.924487)"><path d="m2.35475281 5.45550172s-.11011434-.5438767-.04235167-.58571337c.06776267-.05020401.88938505-.16734668 1.23666874-.02510201l.05929233.61081538-1.09267306.48530537z" fill="#afb1b4"/><path d="m4.61633194 5.76509308s-.050822-.25102002-.46586836-.38489736c-.41504636-.13387735-.72844871-.27612202-.72844871-.56061138 0-.29285668 0-.76142738 0-.76142738h-.4997497-.49974969v.76142738c0 .29285669-.31340235.42673403-.72844871.56061138-.41504636.13387734-.46586836.38489736-.46586836.38489736l-1.13502474 2.56040418h.71150805l.6776267-1.4559161.27952102 1.4559161h1.16043573 1.16043574l.27952102-1.4559161.6776267 1.4559161h.71150805z" fill="#bfa573"/><path d="m4.72644628 1.85754813c0 1.41407944-.50822003 2.56877152-1.81265144 2.56877152s-1.78724044-1.17142675-1.78724044-2.57713885c0-1.41407944 1.21125774-1.69856879 1.81265144-1.69856879.59292337-.00836733 1.78724044.29285669 1.78724044 1.70693612z" fill="#d0b37d"/><path d="m2.27004947 3.57285159c.19481768.11714267.40657602.13387734.6268047.13387734.21175835 0 .42351669-.025102.62680471-.13387734-.07623301.08367334-.28799135.24265268-.62680471.24265268-.33881335 0-.55904203-.15061201-.6268047-.24265268z" fill="#494032"/><path d="m2.49027815 2.76122019c0 .19244869-.16093634.35142803-.35575402.35142803s-.35575402-.15897934-.35575402-.35142803c0-.19244867.16093634-.35142802.35575402-.35142802s.35575402.15061201.35575402.35142802z" fill="#896b4e"/><path d="m2.39710448 2.7612202c0 .13387734-.11011434.24265268-.24563968.24265268-.13552535 0-.24563969-.10877534-.24563969-.24265268 0-.13387735.11011434-.24265269.24563969-.24265269.13552534-.00836733.24563968.10040801.24563968.24265269z" fill="#2a1d01"/><path d="m2.04135045 2.62734285c0 .04183667-.03388133.07530601-.06776267.07530601-.04235167 0-.06776267-.03346934-.06776267-.07530601s.03388134-.06693867.06776267-.06693867c.03388134 0 .06776267.03346934.06776267.06693867z" fill="#fff"/><path d="m3.37119287 2.76122019c0 .19244869.16093634.35142803.35575402.35142803s.35575402-.15897934.35575402-.35142803c0-.19244867-.16093634-.35142802-.35575402-.35142802s-.35575402.15061201-.35575402.35142802z" fill="#896b4e"/><path d="m3.46436654 2.7612202c0 .13387734.11011434.24265268.24563968.24265268s.24563968-.10877534.24563968-.24265268c0-.13387735-.11011434-.24265269-.24563968-.24265269-.13552534-.00836733-.24563968.10040801-.24563968.24265269z" fill="#2a1d01"/><path d="m3.47283687 2.62734285c0 .04183667.03388134.07530601.06776267.07530601.04235167 0 .06776267-.03346934.06776267-.07530601s-.03388133-.06693867-.06776267-.06693867c-.03388133 0-.06776267.03346934-.06776267.06693867z" fill="#fff"/><path d="m4.73491661 5.53917506s-.025411-.050204-.16093634-.10877534c-.18634734-.08367334-.18634734-.08367334-.87244438-.31795869l-.77927072.57734604-.77927071-.57734604c-.67762671.23428535-.67762671.23428535-.87244438.31795869-.13552535.05857134-.16093635.10877534-.16093635.10877534l-1.07573239 2.79468953h.81315204l.61833437-1.29693676.10164401 1.29693676 1.32984241.03346934h.025411.02541101l1.32984241-.03346934.101644-1.29693676.61833437 1.29693676h.81315205z" fill="#00b4ac"/><path d="m2.3039308 4.86978835c.01694067.21755068.62680471.81163139.62680471.81163139s.64374537-.52714204.61833437-.8367334l.28799135.30959136c0 .23428535-.5505717.99571274-.5505717.99571274l-.34728369-.45183603-.33881335.4685707s-.58445304-.68612139-.58445304-1.01244741z" fill="#f4f4f4"/><path d="m2.60039249 6.19182711-.01694067-.01673467c-.025411-.025102-.59292337-.69448872-.59292337-1.02918207h.04235167c0 .28448935.46586836.87020272.56751237.97897807l.33881335-.4685707.34728369.45183603c.09317367-.11714268.55904203-.75306006.55904203-.9622434l.04235167.01673466c0 .24265269-.55904203.96224341-.5759827.98734541l-.01694067.01673467-.34728368-.45183604z" fill="#dbdcdd"/><path d="m4.78573862 1.30530409c-.00847034-.05857133-.025411-.10877534-.04235167-.16734668-.01694067-.050204-.03388134-.16734667-.03388134-.16734667s-.025411-.00836734-.03388133-.01673467c-.01694067-.03346934-.025411-.12551001-.025411-.12551001s-.09317368-.07530601-.13552534-.13387734c-.03388134-.03346934-.12705501-.15061202-.12705501-.15061202h-.04235167l-.11858468-.08367333s-.05929233-.09204068-.09317367-.12551001c-.01694067-.00836734-.050822.01673467-.05929233 0-.02541101-.01673467-.06776268-.05020401-.06776268-.05020401l-.050822-.06693867-.16093634-.04183667s-.03388134-.025102-.05929234-.03346933c-.03388133-.00836734-.11858467.00836733-.11858467.00836733l-.04235167-.04183667-.14399568.01673467-.127055-.04183667-.04235167.03346934-.09317367-.00836734s-.04235167-.025102-.05929234-.025102c-.025411 0-.08470334.00836733-.08470334.00836733s-.06776267-.025102-.10164401-.025102c-.050822 0-.18634734.03346934-.18634734.03346934l-.06776267-.00836734-.11011434.03346934s-.05929234-.00836733-.08470334-.00836733c-.03388133.00836733-.09317367.03346933-.09317367.03346933h-.10164401l-.04235167.01673467-.09317367-.00836733-.06776267.03346933s-.04235167-.00836733-.05929234 0c-.00847033 0-.025411-.00836733-.025411-.00836733l-.101644.075306-.08470334.05857134h-.04235167s-.025411.05857134-.050822.07530601c-.02541101.025102-.09317368.04183666-.11858468.05857133-.01694067.01673467 0 .025102-.025411.04183667-.00847033.00836734-.05929234.01673467-.06776267.01673467-.01694067.00836733.00847033.025102-.00847033.03346933-.05929234.04183668-.11858468.09204068-.15246601.13387735-.02541101.025102-.05082201.05857134-.06776267.09204067-.04235167.05857134-.07623301.12551001-.10164401.19244868-.00847033.025102-.01694067.05020401-.03388134.07530601-.03388133.08367334-.050822.16734668-.076233.25938735-.025411.13387734-.00847033.26775468-.00847033.40999936-.02541101.84510073.21175834 1.32203876.21175834 1.32203876.17787701-.12551001-.050822-1.17979408.48280903-1.53122211.16940668-.10877534 1.06726206-.11714267 1.16890607-.11714267s.99102906.00836733 1.16043574.11714267c.53363103.35142803.31340235 1.39734477.48280902 1.53122211 0 0 .24563969-.47693803.21175835-1.32203876.01694067-.13387734.04235167-.26775468.01694067-.40163203z" fill="#272524"/><path d="m4.58245061 2.45999617s-.03388134-.050204-.04235167-.16734667c-.025411-.28448936-.09317368-.81999873-.20328802-.9120394-.152466-.12551001-.46586836-.05857134-.54210136-.05857134-.07623301 0-.34728369-.075306-.40657603-.15061201 0 0-.24563968.08367334-.45739802.08367334-.21175835 0-.33034302-.08367334-.33034302-.08367334s-.20328801.10040801-.27105068.10040801c-.06776268 0-.16093635-.05020401-.16093635-.05020401s-.00847033.05857134-.076233.08367334c-.11858468.05857134-.42351669-.01673467-.48280903.05857134s-.23716935.28448935-.25411002.66101938c-.00847033.36816269-.08470333-.04183667-.08470333-.075306 0-.03346934.050822-.58571338.06776267-.60244805.025411-.01673467.11011434-.06693867.11011434-.06693867s-.11011434-.20918335.06776267-.36816269c.050822-.04183667.30493201 0 .30493201 0s-.025411-.29285669.07623301-.34306069c.10164401-.05020401.22869901.05857134.37269469-.01673467.22869901-.10877534.31340235.19244868.38963535.13387734.07623301-.050204.10164401-.31795869.28799136-.21755068.37269468.19244868.22022868 0 .48280902.03346934.26258035.03346933.16940668.15061201.35575403.25938735.19481767.10877534.34728368.025102.39810569.08367334.050822.05857133.06776267.30122402.30493201.39326469.23716935.09204067.10164401.94550874.11011434 1.00408007.00847034.05857134.03388134.21755068-.01694066.21755068z" fill="#393735"/><g fill="#4f4c49"><path d="m2.54957048 1.12122275s-.17787701.10877534-.24563968.10877534-.16093634-.12551001-.16940667-.26775469c0 0 .09317367.18408135.14399567.20081602.05082201.00836733.04235167-.10877535.09317367-.09204068.04235167.025102.08470334.04183667.11011434.025102.05929234-.03346933-.025411-.48530536-.16940667-.71122338-.00847034 0 .34728368.55224404.23716934.73632539z"/><path d="m3.4050742.80326406s-.00847033.29285668-.11011434.30959135c-.101644.01673467 0-.86183539 0-.86183539s-.08470334.56897871-.09317367.64428471c-.00847033.07530601-.04235167.10877534-.076233.10877534-.03388134 0 .00847033.10877534-.02541101.12551001-.03388133.01673467-.11858467.03346934-.14399567-.09204067 0 0-.00847033.12551001.08470334.14224467.09317367.01673467.30493202-.025102.33881335-.06693867.04235167-.04183667.04235167-.22591801.025411-.30959135z"/><path d="m1.71947777 1.23836542h.12705501.127055c.01694067 0 .04235167 0 .05929234-.00836733.01694067 0 .025411-.01673467.03388134-.03346934.00847033-.01673467.00847033-.04183667 0-.05857134 0-.01673466-.00847034-.04183667-.01694067-.05857133.01694067.01673466.025411.03346933.03388133.05857133.00847034.02510201.00847034.04183667.00847034.06693868 0 .00836733-.00847034.025102-.01694067.03346933-.00847033.00836734-.00847033.00836734-.01694067.01673467-.00847033 0-.01694067.00836733-.01694067.00836733-.025411.00836734-.04235166.00836734-.06776267.00836734-.04235167 0-.08470333 0-.13552534-.00836734-.025411 0-.076233-.00836733-.11858467-.025102z"/><path d="m3.52365888.61081538c-.00847034.100408-.01694067.20081601-.01694067.29285668 0 .05020401 0 .10040801.00847033.14224468 0 .025102.00847034.050204.00847034.06693867.00847033.025102.01694066.04183667.025411.05857134.00847033.00836733.01694067.01673467.025411.025102.00847033.00836734.01694067.00836734.025411.01673467.01694067.00836733.04235167.00836733.05929234.00836733.00847033 0 .025411-.00836733.03388133-.00836733.00847034 0 .025411-.00836733.04235167-.00836733h.01694067c.00847033 0 .00847033 0 .01694067.00836733.00847033 0 .00847033.00836733.00847033.00836733s.00847034.00836734.00847034.00836734c.00847033.00836733.00847033.01673467.00847033.01673467 0 .00836733 0 0 .00847033.00836733.00847034 0 .01694067.00836733.03388134.00836733h.03388133c.025411 0 .05082201 0 .06776267-.00836733.05082201-.00836733.09317368-.03346934.13552535-.06693867-.03388134.03346933-.07623301.06693867-.12705501.08367334-.025411.00836733-.05082201.01673466-.07623301.01673466-.01694066 0-.025411 0-.04235167 0-.01694066 0-.025411 0-.04235166-.00836733 0 0-.00847034-.00836733-.01694067-.00836733 0 0 0-.00836734-.00847034-.00836734v-.00836733c0-.00836733 0-.00836733-.00847033-.00836733 0 0 0 0-.00847033 0 0 0 0 0-.00847034 0 0 0 0 0-.00847033 0 0 0 0 0-.00847034 0-.01694066 0-.04235166.01673466-.06776267.01673466-.025411.00836734-.05929233 0-.08470333-.00836733-.01694067-.00836733-.02541101-.00836733-.03388134-.01673467-.00847033-.00836733-.025411-.01673467-.03388134-.025102-.01694066-.025102-.025411-.050204-.03388133-.07530601-.00847033-.025102-.00847033-.050204-.00847033-.075306 0-.050204 0-.10040801 0-.15061201.025411-.10877534.04235166-.20918335.06776267-.30122402z"/></g></g></g></g></svg>