<?xml version="1.0" encoding="utf-8"?>
<!-- Generator: Adobe Illustrator 24.1.0, SVG Export Plug-In . SVG Version: 6.00 Build 0)  -->
<svg version="1.1" id="Layer_1" xmlns="http://www.w3.org/2000/svg" xmlns:xlink="http://www.w3.org/1999/xlink" x="0px" y="0px"
	 viewBox="0 0 507.9 507.9" style="enable-background:new 0 0 507.9 507.9;" xml:space="preserve">
<style type="text/css">
	.st0{fill:#70C3E0;}
	.st1{fill:none;}
	.st2{fill:#98D0E8;}
	.st3{fill:#B3E1CA;}
	.st4{fill:#43160A;}
	.st5{fill:#080808;}
	.st6{fill:#121212;}
	.st7{fill:#313131;}
	.st8{fill:#EDEDED;}
	.st9{fill:#CFCFCF;}
	.st10{fill:none;stroke:#A7A7A7;stroke-width:2;stroke-miterlimit:10;}
	.st11{fill:#F7F2EB;}
	.st12{fill:#CEBBA3;}
	.st13{fill:#EF6A50;}
	.st14{fill:#D94721;}
	.st15{fill:#BA371C;}
	.st16{fill:#FFFDCE;}
	.st17{opacity:0.2;}
	.st18{fill:#FFFFFF;}
	.st19{fill:#004152;}
</style>
<g>
	<g id="Layer_3">
	</g>
	<g id="Layer_5">
	</g>
	<circle class="st0" cx="247.4" cy="271.2" r="181"/>
	<circle class="st1" cx="247.4" cy="271.2" r="181"/>
	<path class="st1" d="M247.4,90.1c100,0,181,81.1,181,181s-81.1,181-181,181c-44.5,0-85.3-16-116.8-42.7c-1.9-1.6-3.8-3.3-5.6-4.9
		c-36-33.2-58.6-80.6-58.6-133.4C66.4,171.2,147.5,90.1,247.4,90.1z"/>
	<path class="st2" d="M247.4,452.3c100,0,181-81.1,181-181c0-61-30.2-115-76.5-147.8L121,400.8C153.6,432.6,198.2,452.3,247.4,452.3
		z"/>
	<g>
		<path class="st3" d="M417.9,178.3l22.5,3.2c0,0,26.8,29.7,40.9,61.7s-55.4-10.3-55.4-10.3L417.9,178.3z"/>
		<path class="st4" d="M86.8,325.6c0,0-70,27.3-68.2,30c1.8,2.7,1.9,9.6,15.1,13.2s457.7,0.3,461.1,0.2s4-2.9,4-2.9l-79.4-59.6
			l-270-23.9L86.8,325.6z"/>
		<g>
			<circle class="st5" cx="106.5" cy="373.5" r="48.1"/>
			<circle class="st6" cx="106.5" cy="373.5" r="27.4"/>
			<path class="st7" d="M139.9,373c0.3,4.4-0.3,8.8-1.8,13c-1.5,4.2-3.9,8.1-7,11.4c-3.1,3.3-6.8,5.9-11,7.8
				c-4.1,1.8-8.7,2.8-13.2,2.9c-4.5,0-9.1-0.8-13.2-2.5c-4.2-1.7-8-4.3-11.2-7.5c-3.2-3.2-5.6-7-7.3-11.2c-1.6-4.1-2.4-8.6-2.2-13
				c0.3,4.4,1.4,8.6,3.2,12.5c1.8,3.9,4.4,7.4,7.5,10.3c6.2,5.8,14.6,9.1,23.1,9c8.5-0.1,16.8-3.6,22.9-9.5c3-3,5.5-6.6,7.2-10.5
				C138.7,381.7,139.7,377.4,139.9,373z"/>
			<g>
				<circle class="st8" cx="106.1" cy="374" r="18.7"/>
				<path class="st9" d="M106.4,392.7c10.3-0.1,18.6-8.6,18.5-19c0-0.9-0.1-1.8-0.2-2.7c-5.3,1.4-12.4,2.8-18.5,2.9
					c-5.6,0.1-12.7-1-18.6-2.1c-0.1,0.8-0.1,1.6-0.1,2.4C87.5,384.6,96,392.9,106.4,392.7z"/>
			</g>
			<circle class="st10" cx="106.1" cy="374" r="6"/>
		</g>
		<path class="st11" d="M493.8,270.2c-2.6-8.5-8.8-21.9-9.8-24.2c-1-2.3-3.2-5.4-5.5-5.4c-1.2,0-2.4-0.9-5.2-1.6l-35.8-57.3
			c2-0.1,3-0.2,3.1-0.2c0.4-1.1-8-9.8-21.6-10.9c-56.7-4.5-321.3,6.7-332.5,7.5c-32.3,2.4-50.6,10.2-50.5,15.3
			c0,0.2,0.9,0.2,2.5,0.2C30,205.1,25.1,238.1,24,246.2c-0.1,0.1-0.3,0.1-0.4,0.2c-1.4,0.7-2,2.9-2.3,3.8c-0.3,0.9-1.6,4.4-1.6,5
			s1.1,1.1,1.9,1.2s473.7,44.9,473.7,44.9l1.4,0l5-4C501.7,297.1,496.4,278.8,493.8,270.2z M440.6,193.3l-1.5-2.6
			C440.2,192.1,440.6,193.3,440.6,193.3z"/>
		<path class="st12" d="M496.7,300.6l5-4c0,0-2.2-7.8-4.5-15.6c-2.5-4-12.3-19.4-17.1-23.2c-5.6-4.4-15.6-8.7-35.1-10.3
			c-19.5-1.5-54.3-1.9-76.1-1.9c-21.8,0.1-328.7,5.9-332.8,5.9c-3.3,0-11.3-0.7-16.4,2.7c0,0.2-0.1,0.3-0.1,0.4
			c0,0.6,1.1,1.1,1.9,1.2c0.8,0.1,473.7,44.9,473.7,44.9L496.7,300.6z"/>
		<path class="st13" d="M49.6,344.5l-5.6,20c1.5,0,4.8-0.1,5.7-0.2c0.8,0,1.5-0.5,1.8-1.3c1.1-3.1,3.9-10.9,4.5-12
			c0.6-1.3,2.1-4.7,6.6-5.5c0,0-1.9,0-1.9,0C57.2,345.2,49.6,344.5,49.6,344.5z"/>
		<path class="st14" d="M502.9,361.2c0,0,1.4-50.5-0.8-62.3c-2.2-11.8-17.1-33.1-24.8-38.6c-7.7-5.5-25.4-11.3-66.4-11.7
			c-41-0.4-354.1,5.4-354.1,5.4s-30.1,0.6-32.2,0.6c-2.1,0-3.9,1-3.9,1s-5.3,59.1-3.6,81.8c1.7,22.7,1.5,25.2,5.4,26.6
			c3.3,1.1,17.4,0.6,21.8,0.5c0.8,0,1.5-0.5,1.8-1.3c1.1-3.1,3.9-10.9,4.5-12c0.7-1.4,2.3-5.1,7.4-5.7c5.1-0.5,87.1,0,88.9,0
			c1.9,0,4.4-0.2,6.3,2.7c1.9,3,7.6,13.3,9,14.5s3,1.6,4.7,2.7c1.6,1.1,165,0.7,165,0.7s5,0.5,6.1-3.5c1.1-4.1,6.9-21.5,12.2-26.7
			c5.4-5.2,17.1-13.9,33.7-14.1c28.6-0.4,43.3,11.8,48.9,23.1c5.6,11.3,6.9,17,9,19.5c2.1,2.4,3.9,3.2,11.1,3.2
			c7.2,0,44.3-1.4,46.1-1.4C500.6,366.2,502.8,363.5,502.9,361.2z"/>
		<path class="st14" d="M477.4,243.2"/>
		<path class="st15" d="M22.6,364.6c3.3,1.1,17.4,0.6,21.8,0.5c0.8,0,1.5-0.5,1.8-1.3c1.1-3.1,3.9-10.9,4.5-12
			c0.7-1.4,2.3-5.1,7.4-5.7c5.1-0.5,87.1,0,88.9,0c1.9,0,4.4-0.2,6.3,2.7c1.9,3,7.6,13.3,9,14.5c1.4,1.1,3,1.6,4.7,2.7
			c1.6,1.1,165,0.7,165,0.7s5,0.5,6.1-3.5c1.1-4.1,6.9-21.5,12.2-26.7c5.4-5.2,17.1-13.9,33.7-14.1c28.6-0.4,43.3,11.8,48.9,23.1
			c5.6,11.3,6.9,17,9,19.5s3.9,3.2,11.1,3.2c7.2,0,44.3-1.4,46.1-1.4c1.7,0,4-2.7,4.1-5c0,0,1.4-50.5-0.8-62.3
			c-1.1-5.8-5.2-13.9-10.1-21.3c0,0-30.6-7.7-44.2-8c-131.4-3.2-279.3,62.1-398.3,52.3c-11.7-1-34.4-11.4-32.4-10
			c-0.4,10-0.4,19.2,0,25.6C18.8,360.7,18.6,363.3,22.6,364.6z"/>
		<g>
			<path class="st3" d="M461.1,228.8L438.3,193c-2.7-4.2-7.3-6.7-12.3-6.6l-86.2,1.1c-3.4,0-6.2,2.9-6.1,6.3l0.6,43.4l123.1-1.6
				C460.9,235.6,463,231.7,461.1,228.8z"/>
			<path class="st3" d="M311.8,187.8l-63,0.8c-3.8,0-6.8,3.2-6.8,7l0.5,35.8c0,3.8,3.2,6.8,7,6.8l63-0.8c3.8,0,6.8-3.2,6.8-7
				l-0.5-35.8C318.7,190.8,315.6,187.8,311.8,187.8z"/>
			<path class="st3" d="M219.6,189l-63,0.8c-3.8,0-6.8,3.2-6.8,7l0.5,35.8c0,3.8,3.2,6.8,7,6.8l63-0.8c3.8,0,6.8-3.2,6.8-7
				l-0.5-35.8C226.5,192,223.4,189,219.6,189z"/>
			<path class="st3" d="M127.4,190.2l-63,0.8c-3.8,0-6.8,3.2-6.8,7l0.5,35.8c0,3.8,3.2,6.8,7,6.8l63-0.8c3.8,0,6.8-3.2,6.8-7
				l-0.5-35.8C134.3,193.2,131.2,190.1,127.4,190.2z"/>
			<path class="st3" d="M38.2,193.6C38.2,193.6,38.2,193.6,38.2,193.6C37.8,193.6,37.9,193.6,38.2,193.6z"/>
			<path class="st3" d="M38.2,193.6c-7.1,9.8-11.7,35.2-13.6,47.5l11.9-0.2c3.8,0,6.8-3.2,6.8-7l-0.5-35.8
				C42.8,194.3,39.2,193.7,38.2,193.6z"/>
		</g>
		<polyline class="st11" points="418.3,181.3 447.8,241.6 444.8,241.6 412.4,176.5 		"/>
		<circle class="st5" cx="386.9" cy="374.4" r="48.1"/>
		<circle class="st6" cx="386.9" cy="374.4" r="27.4"/>
		<path class="st7" d="M420.3,373.9c0.3,4.4-0.3,8.8-1.8,13c-1.5,4.2-3.9,8.1-7,11.4c-3.1,3.3-6.8,5.9-11,7.8
			c-4.1,1.8-8.7,2.8-13.2,2.9c-4.5,0-9.1-0.8-13.2-2.5c-4.2-1.7-8-4.3-11.2-7.5c-3.2-3.2-5.6-7-7.3-11.2c-1.6-4.1-2.4-8.6-2.2-13
			c0.3,4.4,1.4,8.6,3.2,12.5c1.8,3.9,4.4,7.4,7.5,10.3c6.2,5.8,14.6,9.1,23.1,9c8.5-0.1,16.8-3.6,22.9-9.5c3-3,5.5-6.6,7.2-10.5
			C419.2,382.6,420.1,378.3,420.3,373.9z"/>
		<g>
			<circle class="st8" cx="386.6" cy="374.9" r="18.7"/>
			<path class="st9" d="M386.8,393.6c10.3-0.1,18.6-8.6,18.5-19c0-0.9-0.1-1.8-0.2-2.7c-5.3,1.4-12.4,2.8-18.5,2.9
				c-5.6,0.1-12.7-1-18.6-2.1c-0.1,0.8-0.1,1.6-0.1,2.4C368,385.5,376.5,393.8,386.8,393.6z"/>
		</g>
		<circle class="st10" cx="386.6" cy="374.9" r="6"/>
		<path class="st8" d="M500.9,294.5c0.1,9-5.2,16.4-8.2,16.5c-3.1,0-5.7-7.3-5.8-16.3c-0.1-9,2.3-16.4,5.4-16.4
			S500.8,285.5,500.9,294.5z"/>
		<path class="st9" d="M486.9,295.4c0.2,8.7,2.8,15.7,5.8,15.6c3,0,8.1-7.1,8.2-15.8l-9.9-1.3C491,293.9,491.8,295.2,486.9,295.4z"
			/>
		<path class="st16" d="M501.1,294.6c0.1,7.6-3.5,13.8-4.6,13.8c-2.7,0-5.4-6.1-5.5-13.7c-0.1-7.6,2-13.8,4.7-13.8
			C497.7,280.9,501,287,501.1,294.6z"/>
		<path class="st8" d="M506,358.5l-51.4,0.7c-4.2,0.1-7.6-4.3-7.4-9.5v0c0.2-4.8,3.3-8.5,7.2-8.6l52-0.7c1.3,0,1.3,0.6,1.3,2.9
			C507.8,348.1,507.7,358.5,506,358.5z"/>
		<path class="st8" d="M14.6,364.8l13.6-0.2c4.2-0.1,7.5-4.5,7.2-9.7l0,0c-0.3-4.8-3.6-8.4-7.4-8.4l-14.3,0.2
			c-1.3,0-1.3,0.6-1.2,2.9C12.6,354.4,13,364.8,14.6,364.8z"/>
	</g>
	<g>
		<path class="st17" d="M218.8,88.7c-20-55.2-80.9-83.8-136.2-63.9C27.3,44.8-1.3,105.7,18.7,161c18,49.9,69.5,78,119.9,68.3
			l42.5,29.7l-1.5-47C218.1,185.3,235.5,135,218.8,88.7z"/>
		<g>
			<circle class="st18" cx="106.5" cy="115.7" r="106.4"/>
			<path class="st19" d="M84.8,149.4c5-11.4,14.1-20.7,26.4-25.1c12.2-4.4,25.2-3.2,36.3,2.4l8.1-18.8c-15.8-8-34.2-9.8-51.6-3.5
				S73.6,124,66.5,140.2C66.5,140.2,84.8,149.4,84.8,149.4z M52.8,133.3c8.6-19.8,24.6-35.9,45.8-43.6s43.8-5.5,63.1,4.2l8.3-19.2
				c-24.1-12.2-52.2-14.9-78.8-5.3s-46.5,29.7-57.2,54.5L52.8,133.3z"/>
			<polygon class="st18" points="168.9,250 106.4,206.2 166.4,173.7 			"/>
			<circle class="st19" cx="123.8" cy="159.7" r="15.8"/>
		</g>
	</g>
</g>
</svg>
