<svg height="435" viewBox="0 0 435 435" width="435" xmlns="http://www.w3.org/2000/svg" xmlns:xlink="http://www.w3.org/1999/xlink"><mask id="a" fill="#fff"><path d="m0 512h512v-512h-512z" fill="#fff" fill-rule="evenodd"/></mask><g fill="none" fill-rule="evenodd"><path d="m370.7559 64.0879c84.704 84.704 84.704 222.037 0 306.742-84.705 84.704-222.038 84.704-306.742 0-84.705-84.705-84.705-222.038 0-306.742 84.704-84.705 222.037-84.705 306.742 0" fill="#d88a3c"/><path d="m370.7559 64.0879c-84.705-84.705-222.038-84.705-306.742 0l306.742 306.742c84.704-84.705 84.704-222.038 0-306.742" fill="#e6a244"/><path d="m99.857 349.558h208.689v-253.412h-208.689z" fill="#9f6535"/><path d="m84.02 333.721h208.688v-253.412h-208.688z" fill="#f7ecd7"/><g transform="translate(-47 -37)"><path d="m131.0195 117.3086v223.354h19.329c87.98 0 159.302-71.322 159.302-159.302v-64.052z" fill="#fffffe"/><g fill="#b69576"><path d="m168.352 193.554h118.576v-19.066h-118.576z" mask="url(#a)"/><path d="m168.352 249.164h118.576v-19.066h-118.576z" mask="url(#a)"/><path d="m168.351 304.775h89.14v-19.066h-89.14z" mask="url(#a)"/></g><path d="m235.3633 309.0127 22.336-9.435s38.513-52.996 43.988-88.327 3.708-58.296 3.708-58.296l-73.056 11.313-30.595 64.718 30.635 81.262" fill="#fffffe" mask="url(#a)"/><path d="m204.8789 233.4375 56.691 83.594s31.473-16.764 50.71-67.867c19.238-51.103 12.657-85.528 12.657-85.528l-71.231.892z" fill="#fffffe" mask="url(#a)"/><path d="m201.744 260.733h88.435v-43.348h-88.435z" fill="#e1cab7" mask="url(#a)"/></g><g transform="translate(148 109)"><path d="m28.791 97.6357c3.378 36.173 35.44 62.758 71.613 59.379 36.173-3.378 62.758-35.441 59.38-71.613-3.379-36.173-35.441-62.758-71.614-59.38-36.173 3.379-62.758 35.441-59.379 71.614" fill="#fffffe"/><path d="m66.1982 32.0156c13.053-6.157 27.105-7.644 40.277-5.145l-43.892 122.289c-11.755-6.447-21.655-16.531-27.813-29.583-15.5-32.859-1.429-72.06 31.428-87.561" fill="#fffffe"/><path d="m31.3252 99.0107c-3.375-36.13 23.121-68.142 59.302-71.521 36.129-3.375 68.14 23.122 71.519 59.302 3.374 36.129-23.121 68.141-59.301 71.52-36.129 3.375-68.141-23.121-71.52-59.301m73.729 82.948c20.679-1.931 39.034-10.729 53.044-23.958l.652 6.98c.257 2.739 1.571 5.252 3.678 6.998l17.62-22.95c-2.107-1.747 1.744-8.789-.996-8.533l-6.979.652c10.405-16.218 15.651-35.884 13.72-56.565-1.912-20.48-24.29-93.292-107.954-82.551-5.087.653-21.512 3.402-12.629 7.163-36.82 13.838-61.366 50.967-57.532 92.024 4.595 49.196 48.179 85.335 97.376 80.74" fill="#004e56"/><path d="m158.7305 114.9209 4.537.202s1.298 2.558 4.228 4.298c4.154 2.468 10.7 4.235 13.82 2.876-2.295 6.447-5.299 12.581-8.957 18.281l-38.317 6.042c11.294-7.711 19.967-18.81 24.689-31.699" fill="#044348"/><path d="m9.2695 99.4785c-1.681-36.967 19.327-69.671 50.711-84.716l4.062 10.65 41.868-12.382 19.775 20.701c-27.532-13.178-59.608 4.654-59.608 4.654l-.013-.03c-20.727 11.836-34.229 34.562-33.07 60.045 1.65 36.301 32.362 64.292 68.611 62.644 4.623-.21 47.667-21.66 51.977-22.764l3.51 22.411c-22.033 18.704-47.878 22.156-55.1 22.484-49.36 2.243-90.48-34.338-92.723-83.697" fill="#004e56"/><path d="m36.9414 118.0967c.004-.004-.002.005 0 0 9.153 25.348 34.332 41.242 62.287 39.972 4.623-.21 9.109-.898 13.42-2.002 0 0-51.551 30.236-84.724-39.699 2.887 2.604 6.593 3.736 9.017 1.729" fill="#044348"/><path d="m195.0166 141.1719c1.934 1.24 27.699 23.449 35.873 30.37.01.008 4.991 3.894 6.184 5.943 2.325 3.999.361 8.291-.943 12.49.099-.606.041-1.677-.881-3.115-.163 1.067-.369 2.115-.612 3.112-1.471 6.028-47.181-26.419-47.181-26.419l-12.64-16.96-9.638-7.641s10.197-10.376 29.838 2.22" fill="#004e56"/><path d="m235.9561 190.5449c.056-.189.115-.38.175-.57-.061.371-.175.57-.175.57" fill="#004e56"/><path d="m96.0703 157.4023c-36.839 3.44-69.48-23.576-72.926-60.468-3.44-36.839 23.576-69.479 60.468-72.926 36.839-3.44 69.479 23.577 72.925 60.468 3.441 36.839-23.575 69.48-60.467 72.926m130.32 21.916-46.674-38.701c-2.107-1.746-4.819-2.573-7.559-2.318l-6.979.653c10.406-16.218 15.652-35.884 13.72-56.565-4.595-49.195-48.18-85.335-97.375-80.739-49.196 4.595-85.335 48.179-80.74 97.375 4.595 49.195 48.18 85.335 97.376 80.74 20.68-1.931 39.034-10.729 53.045-23.958l.651 6.979c.256 2.74 1.57 5.252 3.678 6.999l46.674 38.701c4.401 3.648 10.909 3.041 14.514-1.355l10.986-13.249c3.649-4.401 3.041-10.909-1.317-14.562" fill="#005f6d"/><path d="m217.6768 210.9736c-3.897 4.464-10.658 4.921-15.118 1.067l-47.34-41.34c-2.137-1.866-3.433-4.503-3.625-7.35l-.49-7.249c4.591-4.778 7.433-8.992 7.433-8.992s-.143 4.477 1.846 7.47c1.99 2.994 53.806 49.08 57.027 51.339 2.425 1.701 4.018.651 4.658.027z" fill="#006b79"/><path d="m198.8623 198.2031c.043.63-.16 1.275-.616 1.781-.894.99-2.42 1.068-3.409.174l-38.216-34.506c-.989-.893-1.068-2.42-.174-3.409.894-.988 2.42-1.066 3.409-.174l38.216 34.506c.483.438.75 1.025.79 1.628" fill="#078"/><path d="m208.3574 212.9063c4.156 3.223 13.748-2.188 21.424-12.087 7.676-9.898 10.529-20.536 6.373-23.759-4.156-3.222-13.748 2.189-21.425 12.087-7.676 9.899-10.528 20.535-6.372 23.759" fill="#044348"/><path d="m9.3457 109.7559c-8.443-47.435 23.167-92.733 70.602-101.176 33.241-5.916 65.414 7.853 84.608 32.937-17.603-26.692-48.967-43.051-83.032-39.869-49.197 4.594-85.335 48.18-80.741 97.376 3.667 39.264 32.181 70.186 68.553 78.745-30.112-9.391-54.082-34.815-59.99-68.013" fill="#006b79"/></g></g></svg>