<svg enable-background="new 0 0 507.9 507.9" viewBox="0 0 507.9 507.9" xmlns="http://www.w3.org/2000/svg"><circle cx="247.4" cy="271.2" fill="#70c3e0" r="181"/><circle cx="247.4" cy="271.2" fill="none" r="181"/><path d="m247.4 90.1c100 0 181 81.1 181 181s-81.1 181-181 181c-44.5 0-85.3-16-116.8-42.7-1.9-1.6-3.8-3.3-5.6-4.9-36-33.2-58.6-80.6-58.6-133.4 0-99.9 81.1-181 181-181z" fill="none"/><path d="m247.4 452.3c100 0 181-81.1 181-181 0-61-30.2-115-76.5-147.8l-230.9 277.3c32.6 31.8 77.2 51.5 126.4 51.5z" fill="#98d0e8"/><path d="m417.9 178.3 22.5 3.2s26.8 29.7 40.9 61.7-55.4-10.3-55.4-10.3z" fill="#b3e1ca"/><path d="m86.8 325.6s-70 27.3-68.2 30 1.9 9.6 15.1 13.2 457.7.3 461.1.2 4-2.9 4-2.9l-79.4-59.6-270-23.9z" fill="#43160a"/><circle cx="106.5" cy="373.5" fill="#080808" r="48.1"/><circle cx="106.5" cy="373.5" fill="#121212" r="27.4"/><path d="m139.9 373c.3 4.4-.3 8.8-1.8 13s-3.9 8.1-7 11.4-6.8 5.9-11 7.8c-4.1 1.8-8.7 2.8-13.2 2.9-4.5 0-9.1-.8-13.2-2.5-4.2-1.7-8-4.3-11.2-7.5s-5.6-7-7.3-11.2c-1.6-4.1-2.4-8.6-2.2-13 .3 4.4 1.4 8.6 3.2 12.5s4.4 7.4 7.5 10.3c6.2 5.8 14.6 9.1 23.1 9s16.8-3.6 22.9-9.5c3-3 5.5-6.6 7.2-10.5 1.8-4 2.8-8.3 3-12.7z" fill="#313131"/><circle cx="106.1" cy="374" fill="#ededed" r="18.7"/><path d="m106.4 392.7c10.3-.1 18.6-8.6 18.5-19 0-.9-.1-1.8-.2-2.7-5.3 1.4-12.4 2.8-18.5 2.9-5.6.1-12.7-1-18.6-2.1-.1.8-.1 1.6-.1 2.4 0 10.4 8.5 18.7 18.9 18.5z" fill="#cfcfcf"/><circle cx="106.1" cy="374" fill="none" r="6" stroke="#a7a7a7" stroke-miterlimit="10" stroke-width="2"/><path d="m493.8 270.2c-2.6-8.5-8.8-21.9-9.8-24.2s-3.2-5.4-5.5-5.4c-1.2 0-2.4-.9-5.2-1.6l-35.8-57.3c2-.1 3-.2 3.1-.2.4-1.1-8-9.8-21.6-10.9-56.7-4.5-321.3 6.7-332.5 7.5-32.3 2.4-50.6 10.2-50.5 15.3 0 .2.9.2 2.5.2-8.5 11.5-13.4 44.5-14.5 52.6-.1.1-.3.1-.4.2-1.4.7-2 2.9-2.3 3.8s-1.6 4.4-1.6 5 1.1 1.1 1.9 1.2 473.7 44.9 473.7 44.9h1.4l5-4c0-.2-5.3-18.5-7.9-27.1zm-53.2-76.9-1.5-2.6c1.1 1.4 1.5 2.6 1.5 2.6z" fill="#f7f2eb"/><path d="m496.7 300.6 5-4s-2.2-7.8-4.5-15.6c-2.5-4-12.3-19.4-17.1-23.2-5.6-4.4-15.6-8.7-35.1-10.3-19.5-1.5-54.3-1.9-76.1-1.9-21.8.1-328.7 5.9-332.8 5.9-3.3 0-11.3-.7-16.4 2.7 0 .2-.1.3-.1.4 0 .6 1.1 1.1 1.9 1.2s473.7 44.9 473.7 44.9z" fill="#cebba3"/><path d="m49.6 344.5-5.6 20c1.5 0 4.8-.1 5.7-.2.8 0 1.5-.5 1.8-1.3 1.1-3.1 3.9-10.9 4.5-12 .6-1.3 2.1-4.7 6.6-5.5h-1.9c-3.5-.3-11.1-1-11.1-1z" fill="#ef6a50"/><path d="m502.9 361.2s1.4-50.5-.8-62.3-17.1-33.1-24.8-38.6-25.4-11.3-66.4-11.7-354.1 5.4-354.1 5.4-30.1.6-32.2.6-3.9 1-3.9 1-5.3 59.1-3.6 81.8 1.5 25.2 5.4 26.6c3.3 1.1 17.4.6 21.8.5.8 0 1.5-.5 1.8-1.3 1.1-3.1 3.9-10.9 4.5-12 .7-1.4 2.3-5.1 7.4-5.7 5.1-.5 87.1 0 88.9 0 1.9 0 4.4-.2 6.3 2.7 1.9 3 7.6 13.3 9 14.5s3 1.6 4.7 2.7c1.6 1.1 165 .7 165 .7s5 .5 6.1-3.5c1.1-4.1 6.9-21.5 12.2-26.7 5.4-5.2 17.1-13.9 33.7-14.1 28.6-.4 43.3 11.8 48.9 23.1s6.9 17 9 19.5c2.1 2.4 3.9 3.2 11.1 3.2s44.3-1.4 46.1-1.4c1.6 0 3.8-2.7 3.9-5z" fill="#d94721"/><path d="m22.6 364.6c3.3 1.1 17.4.6 21.8.5.8 0 1.5-.5 1.8-1.3 1.1-3.1 3.9-10.9 4.5-12 .7-1.4 2.3-5.1 7.4-5.7 5.1-.5 87.1 0 88.9 0 1.9 0 4.4-.2 6.3 2.7 1.9 3 7.6 13.3 9 14.5 1.4 1.1 3 1.6 4.7 2.7 1.6 1.1 165 .7 165 .7s5 .5 6.1-3.5c1.1-4.1 6.9-21.5 12.2-26.7 5.4-5.2 17.1-13.9 33.7-14.1 28.6-.4 43.3 11.8 48.9 23.1s6.9 17 9 19.5 3.9 3.2 11.1 3.2 44.3-1.4 46.1-1.4c1.7 0 4-2.7 4.1-5 0 0 1.4-50.5-.8-62.3-1.1-5.8-5.2-13.9-10.1-21.3 0 0-30.6-7.7-44.2-8-131.4-3.2-279.3 62.1-398.3 52.3-11.7-1-34.4-11.4-32.4-10-.4 10-.4 19.2 0 25.6 1.4 22.6 1.2 25.2 5.2 26.5z" fill="#ba371c"/><g fill="#b3e1ca"><path d="m461.1 228.8-22.8-35.8c-2.7-4.2-7.3-6.7-12.3-6.6l-86.2 1.1c-3.4 0-6.2 2.9-6.1 6.3l.6 43.4 123.1-1.6c3.5 0 5.6-3.9 3.7-6.8z"/><path d="m311.8 187.8-63 .8c-3.8 0-6.8 3.2-6.8 7l.5 35.8c0 3.8 3.2 6.8 7 6.8l63-.8c3.8 0 6.8-3.2 6.8-7l-.5-35.8c-.1-3.8-3.2-6.8-7-6.8z"/><path d="m219.6 189-63 .8c-3.8 0-6.8 3.2-6.8 7l.5 35.8c0 3.8 3.2 6.8 7 6.8l63-.8c3.8 0 6.8-3.2 6.8-7l-.5-35.8c-.1-3.8-3.2-6.8-7-6.8z"/><path d="m127.4 190.2-63 .8c-3.8 0-6.8 3.2-6.8 7l.5 35.8c0 3.8 3.2 6.8 7 6.8l63-.8c3.8 0 6.8-3.2 6.8-7l-.5-35.8c-.1-3.8-3.2-6.9-7-6.8z"/><path d="m38.2 193.6c-.4 0-.3 0 0 0z"/><path d="m38.2 193.6c-7.1 9.8-11.7 35.2-13.6 47.5l11.9-.2c3.8 0 6.8-3.2 6.8-7l-.5-35.8c0-3.8-3.6-4.4-4.6-4.5z"/></g><path d="m418.3 181.3 29.5 60.3h-3l-32.4-65.1" fill="#f7f2eb"/><circle cx="386.9" cy="374.4" fill="#080808" r="48.1"/><circle cx="386.9" cy="374.4" fill="#121212" r="27.4"/><path d="m420.3 373.9c.3 4.4-.3 8.8-1.8 13s-3.9 8.1-7 11.4-6.8 5.9-11 7.8c-4.1 1.8-8.7 2.8-13.2 2.9-4.5 0-9.1-.8-13.2-2.5-4.2-1.7-8-4.3-11.2-7.5s-5.6-7-7.3-11.2c-1.6-4.1-2.4-8.6-2.2-13 .3 4.4 1.4 8.6 3.2 12.5s4.4 7.4 7.5 10.3c6.2 5.8 14.6 9.1 23.1 9s16.8-3.6 22.9-9.5c3-3 5.5-6.6 7.2-10.5 1.9-4 2.8-8.3 3-12.7z" fill="#313131"/><circle cx="386.6" cy="374.9" fill="#ededed" r="18.7"/><path d="m386.8 393.6c10.3-.1 18.6-8.6 18.5-19 0-.9-.1-1.8-.2-2.7-5.3 1.4-12.4 2.8-18.5 2.9-5.6.1-12.7-1-18.6-2.1-.1.8-.1 1.6-.1 2.4.1 10.4 8.6 18.7 18.9 18.5z" fill="#cfcfcf"/><circle cx="386.6" cy="374.9" fill="none" r="6" stroke="#a7a7a7" stroke-miterlimit="10" stroke-width="2"/><path d="m500.9 294.5c.1 9-5.2 16.4-8.2 16.5-3.1 0-5.7-7.3-5.8-16.3s2.3-16.4 5.4-16.4 8.5 7.2 8.6 16.2z" fill="#ededed"/><path d="m486.9 295.4c.2 8.7 2.8 15.7 5.8 15.6 3 0 8.1-7.1 8.2-15.8l-9.9-1.3s.8 1.3-4.1 1.5z" fill="#cfcfcf"/><path d="m501.1 294.6c.1 7.6-3.5 13.8-4.6 13.8-2.7 0-5.4-6.1-5.5-13.7s2-13.8 4.7-13.8c2 0 5.3 6.1 5.4 13.7z" fill="#fffdce"/><path d="m506 358.5-51.4.7c-4.2.1-7.6-4.3-7.4-9.5.2-4.8 3.3-8.5 7.2-8.6l52-.7c1.3 0 1.3.6 1.3 2.9.1 4.8 0 15.2-1.7 15.2z" fill="#ededed"/><path d="m14.6 364.8 13.6-.2c4.2-.1 7.5-4.5 7.2-9.7-.3-4.8-3.6-8.4-7.4-8.4l-14.3.2c-1.3 0-1.3.6-1.2 2.9.1 4.8.5 15.2 2.1 15.2z" fill="#ededed"/><path d="m218.8 88.7c-20-55.2-80.9-83.8-136.2-63.9-55.3 20-83.9 80.9-63.9 136.2 18 49.9 69.5 78 119.9 68.3l42.5 29.7-1.5-47c38.5-26.7 55.9-77 39.2-123.3z" opacity=".2"/><circle cx="106.5" cy="115.7" fill="#fff" r="106.4"/><path d="m84.8 149.4c5-11.4 14.1-20.7 26.4-25.1 12.2-4.4 25.2-3.2 36.3 2.4l8.1-18.8c-15.8-8-34.2-9.8-51.6-3.5s-30.4 19.6-37.5 35.8c0 0 18.3 9.2 18.3 9.2zm-32-16.1c8.6-19.8 24.6-35.9 45.8-43.6s43.8-5.5 63.1 4.2l8.3-19.2c-24.1-12.2-52.2-14.9-78.8-5.3s-46.5 29.7-57.2 54.5z" fill="#004152"/><path d="m168.9 250-62.5-43.8 60-32.5z" fill="#fff"/><circle cx="123.8" cy="159.7" fill="#004152" r="15.8"/></svg>