<svg enable-background="new 0 0 571.5 323.8" viewBox="0 0 571.5 323.8" xmlns="http://www.w3.org/2000/svg" xmlns:xlink="http://www.w3.org/1999/xlink"><linearGradient id="a"><stop offset="0" stop-color="#efb698"/><stop offset="1" stop-color="#f3d9a6"/></linearGradient><radialGradient id="b" cx="418.9643" cy="171.0384" gradientUnits="userSpaceOnUse" r="10.8831" xlink:href="#a"/><radialGradient id="c" cx="488.5158" cy="171.0384" gradientUnits="userSpaceOnUse" r="10.8831" xlink:href="#a"/><path d="m521 323.8h-470.6c-27.8 0-50.4-22.6-50.4-50.5v-222.8c0-27.9 22.6-50.5 50.4-50.5h470.6c27.9 0 50.4 22.6 50.4 53.3v222.9c.1 25-22.5 47.6-50.4 47.6z" fill="#20b24b"/><path d="m571.5 276.2v-98.6l-571.5-33.8v129.5c0 27.9 22.6 50.4 50.4 50.4h470.6c27.9.1 50.5-22.5 50.5-47.5z" fill="#1ca345"/><path d="m504.7 63.6s-16-30.9-66.7-20.4-65.6 60.1-64 88.8 8.1 45.7 21.3 65.7c13.1 19.7 7.3 32.5-2.6 35.8 0 0 56.8 40.3 115.8.6 0 0-14.3-4.4-12.7-16s22.6-25.9 35.3-50.2c12.8-24.3 18.3-92.7-26.4-104.3z" fill="#4c360d"/><path d="m499.1 242.8c-13.4-4.5-27.8-10.2-27.8-19.8 0-9.5 0-27.5 0-27.5h-15.4-15.4v27.5c0 9.5-14.4 15.3-27.8 19.8s-3.1 43.5-3.1 43.5 6 13 10 37.5h36.3 36.3c4-24.5 10-37.5 10-37.5s10.3-39.1-3.1-43.5z" fill="#eacb8c"/><path d="m502.2 286.3 24 37.2c8.3-.9 16.1-3.7 22.7-8l-37.3-66.7-55.4 49.5-56.1-49.5-41.9 75h27.2l24.2-37.5s6 13 10 37.5h72.7c3.9-24.5 9.9-37.5 9.9-37.5z" fill="#f4d89a"/><path d="m434.1 267.2h43.6l-18.2 34.7z" fill="#c42c76"/><path d="m520.1 123.1c0 46.5-21.9 84.7-64.3 84.7s-66-38.5-66-85.1 24.3-51.3 66.7-51.3 63.6 5.1 63.6 51.7z" fill="#f4d89a"/><path d="m440.7 150.3c0 6.4-5.2 11.6-11.7 11.6s-11.7-5.2-11.7-11.6 5.2-11.6 11.7-11.6c6.4 0 11.7 5.2 11.7 11.6z" fill="#00ade9"/><path d="m437.7 150.3c0 4.5-3.6 8.1-8.1 8.1s-8.1-3.6-8.1-8.1 3.6-8.1 8.1-8.1c4.4 0 8.1 3.6 8.1 8.1z" fill="#234471"/><path d="m426.2 146.1c0 1.3-1 2.3-2.3 2.3s-2.3-1.1-2.3-2.3c0-1.3 1-2.3 2.3-2.3 1.2-.1 2.3 1 2.3 2.3z" fill="#fff"/><path d="m430.4 178.6c8 4.9 16.6 7.9 25.3 7.7 8.7 0 17.1-3.4 25.4-7.7-3.1 3.6-6.9 6.6-11.2 8.8s-9.2 3.4-14.2 3.5c-4.9 0-9.9-1.1-14.2-3.2-4.4-2.2-8.3-5.2-11.1-9.1z" fill="#c42c76"/><path d="m495.3 85.8s-2 14.6 6 36.1c8.7 23.7 18.1 32.4 26.9 26.1 0 0-9.5 3.3-6.9-6.9 3.6-13.8 11-37.1-.1-53-9.5-13.7-19.8-11.5-19.8-11.5s-8.3-28.1-45.7-28.5c-53.7-.5-90.6 67.1-62.7 113.7 0 0-9.1-35.8 9.9-38.1 19-2.2 87.1-26 92.3-39.1" fill="#5f3f12"/><path d="m497.8 89.5s-7.1 13.8-30.8 25.4c-18.9 9.2-40.6 10.7-61.6 10.2 0 0-7.2 12.1-6.6 32s10.6 40.8 10.6 40.8-39.2-59-8.5-106.7c35.8-55.8 91.5-28.4 100.1-11.9-.1.1 0 5.4-3.2 10.2z" fill="#754b1d"/><g fill="#a26527"><path d="m446.3 113.5s28.2-6.2 40.5-27.7c0 0-8.1 9.2-20.3 13.8 0 0 8.6-7.2 10.3-11.1 0 0-23.5-.2-41.7 12.4 0 0 19.1-22.4 58.1-21.5 0 0-4.7 26.6-46.9 34.1z"/><path d="m494.9 77.7c-6.5-2.3-13-3.8-19.6-5.1-6.6-1.1-13.2-1.8-19.8-1.6-13.2.2-26.2 4-38 10.9 4.9-4.8 10.8-8.7 17.4-11.3 6.5-2.6 13.6-3.9 20.6-4.1 13.9-.1 27.9 3.7 39.4 11.2z"/><path d="m515.5 120.1c-2.3-2.8-4.1-5.9-5.8-9.1s-3-6.6-4.1-10.1c-2-7-4.2-21.6-4.2-21.6s11.1 3 15.5 11.3 4.1 17.7 4.1 17.7-2.4-8.4-6.1-14.1-7.3-6.6-8.8-8.3c0 0 1.4 8.7 2.8 15.4 1.4 6.9 4 12.2 6.6 18.8z"/></g><path d="m429.8 171c0 6-4.9 10.9-10.9 10.9s-10.9-4.9-10.9-10.9 4.9-10.9 10.9-10.9c6.1.1 10.9 4.9 10.9 10.9z" fill="url(#b)"/><path d="m499.4 171c0 6-4.9 10.9-10.9 10.9s-10.9-4.9-10.9-10.9 4.9-10.9 10.9-10.9 10.9 4.9 10.9 10.9z" fill="url(#c)"/><path d="m472 150.3c0 6.4 5.2 11.6 11.7 11.6s11.7-5.2 11.7-11.6-5.2-11.6-11.7-11.6c-6.4 0-11.7 5.2-11.7 11.6z" fill="#00ade9"/><path d="m475 150.3c0 4.5 3.6 8.1 8.1 8.1s8.1-3.6 8.1-8.1-3.6-8.1-8.1-8.1c-4.4 0-8.1 3.6-8.1 8.1z" fill="#234471"/><path d="m475.5 146.1c0 1.3 1 2.3 2.3 2.3s2.3-1.1 2.3-2.3c0-1.3-1-2.3-2.3-2.3-1.2-.1-2.3 1-2.3 2.3z" fill="#fff"/><circle cx="456.2" cy="236.2" fill="#00ade9" r="4.3"/><circle cx="457.8" cy="235.2" fill="#fffeef" opacity=".2" r="1.1"/><circle cx="448.2" cy="235.6" fill="#00ade9" r="3.7"/><circle cx="449.6" cy="234.7" fill="#fffeef" opacity=".2" r=".9"/><circle cx="441.6" cy="233.3" fill="#00ade9" r="3.3"/><circle cx="442.8" cy="232.6" fill="#fffeef" opacity=".2" r=".9"/><circle cx="436.9" cy="229.2" fill="#00ade9" r="2.9"/><circle cx="438" cy="228.5" fill="#fffeef" opacity=".2" r=".7"/><circle cx="464.1" cy="234.7" fill="#00ade9" r="3.7"/><circle cx="464.6" cy="233.1" fill="#fffeef" opacity=".2" r=".9"/><circle cx="470.7" cy="232.5" fill="#00ade9" r="3.3"/><circle cx="470.6" cy="230.8" fill="#fffeef" opacity=".2" r=".9"/><circle cx="475.4" cy="228.4" fill="#00ade9" r="2.9"/><circle cx="475.1" cy="227" fill="#fffeef" opacity=".2" r=".7"/><path d="m511 247.5c-6.3-4.2-25.8-10.9-29.8-13.2-1.9 15.8-25.1 54.1-25.1 54.1h-.1-.1s-23.2-38.3-25.1-54.1c-4.1 2.3-23.6 8.9-29.8 13.2-4.7 3.2-29 51.5-29 51.5l20.2 14.9 16.2-24.6s5 15.7 7.8 34.5h39.6.5 39.6c2.8-18.8 7.8-34.5 7.8-34.5l16.2 24.6 20.2-14.3c-.1 0-24.4-48.9-29.1-52.1z" fill="#f99d1c"/><path d="m92.6 242.7s-3.9-19.1-1.6-20.7 30.7-5.7 43-.9l1.9 21.6-37.8 17.1z" fill="#afb1b4"/><path d="m171.1 253.7s-1.8-8.9-16.1-13.6c-14.3-4.8-25.2-9.6-25.2-19.8s0-26.8 0-26.8h-17.3-17.4v26.8c0 10.2-10.9 15-25.2 19.8s-16.1 13.6-16.1 13.6l8.8 38.8 18.2 19.9 36.1-25.3 25.1 22.4 20.5-17.1z" fill="#bfa573"/><path d="m174.9 116.2c0 49.7-17.6 90.2-62.9 90.2s-62-41-62-90.7 42.1-59.7 62.8-59.7 62.1 10.6 62.1 60.2z" fill="#d0b37d"/><path d="m89.6 176.6c6.9 4.2 14.2 4.8 21.6 4.7 7.5 0 14.7-.9 21.8-4.7-2.6 3.1-10 8.5-21.7 8.5s-19.3-5.2-21.7-8.5z" fill="#494032"/><path d="m97.1 147.9c0 6.8-5.6 12.4-12.5 12.4s-12.5-5.5-12.5-12.4c0-6.8 5.6-12.4 12.5-12.4 6.9.1 12.5 5.6 12.5 12.4z" fill="#896b4e"/><path d="m93.9 147.9c0 4.8-3.9 8.6-8.6 8.6-4.8 0-8.6-3.9-8.6-8.6 0-4.8 3.9-8.6 8.6-8.6 4.8 0 8.6 3.9 8.6 8.6z" fill="#2a1d01"/><path d="m81.7 143.5c0 1.4-1.1 2.5-2.5 2.5s-2.5-1.1-2.5-2.5 1.1-2.5 2.5-2.5 2.5 1.1 2.5 2.5z" fill="#fff"/><path d="m127.7 147.9c0 6.8 5.6 12.4 12.5 12.4s12.5-5.5 12.5-12.4c0-6.8-5.6-12.4-12.5-12.4-6.9.1-12.5 5.6-12.5 12.4z" fill="#896b4e"/><path d="m130.9 147.9c0 4.8 3.9 8.6 8.6 8.6 4.8 0 8.6-3.9 8.6-8.6 0-4.8-3.9-8.6-8.6-8.6s-8.6 3.9-8.6 8.6z" fill="#2a1d01"/><path d="m131.4 143.5c0 1.4 1.1 2.5 2.5 2.5s2.5-1.1 2.5-2.5-1.1-2.5-2.5-2.5-2.5 1.1-2.5 2.5z" fill="#fff"/><path d="m169.6 241.7c-6.5-3-6.6-2.8-30.2-11.1l-27 20.3-27-20.3c-23.6 8.3-23.7 8.2-30.2 11.1-4.7 2.2-5.5 3.9-5.5 3.9l-26.7 70.1c7.7 5 16.9 8 26.7 8.1l12-25.7 2 25.7h97.3l2-25.7 12 25.7h29.8l-29.7-78.2s-.8-1.7-5.5-3.9z" fill="#00b4ac"/><path d="m90.8 222.1c.6 7.8 21.8 28.5 21.8 28.5s22.4-18.5 21.4-29.5l10.6 12.3c0 8.3-19.9 33.5-19.9 33.5l-12-15.9-11.6 16.6s-20.3-24-20.3-35.6z" fill="#f4f4f4"/><path d="m101 268.3-.3-.4c-.8-1-20.4-24.3-20.4-35.9h.7c0 10.5 17.3 31.8 19.9 35l11.6-16.6 12 16c2.5-3.3 19.6-25.4 19.6-32.9h.8c0 8.4-19.2 32.7-20 33.8l-.3.4-12-15.9z" fill="#dbdcdd"/><path d="m176.8 97c-.4-2-.9-4-1.5-5.9-.5-1.8-1.2-5.9-1.2-5.9s-1-.2-1.2-.7c-.5-1.1-.9-4.5-.9-4.5s-3.2-2.8-4.8-4.7c-1.1-1.3-4.5-5.4-4.5-5.4l-1.5.1-4.1-2.9s-1.9-3.3-3.3-4.4c-.5-.4-1.7.5-2.2.1-.8-.6-2.5-1.9-2.5-1.9l-1.9-2.4-5.5-1.5s-1.3-1-1.9-1.1c-1.3-.2-4.1.3-4.1.3l-1.6-1.3-5 .6-3.5-1.8-1.6 1.3-3.4-.4s-1.3-.8-2-.9c-1-.1-2.9.4-2.9.4s-2.4-.8-3.4-.8c-1.7 0-6.3 1.1-6.3 1.1l-2.3-.4-3.8 1.2s-2-.3-2.9-.2c-1 .3-3 1.3-3 1.3l-3.5.1-1.5.7-3.1-.4-2.5 1.2s-1.4-.2-2.1.1c-.3.1-.8-.3-.8-.3l-3.5 2.7-2.9 2.1h-1.5s-.9 1.9-1.7 2.5c-1 .8-3.2 1.5-4.1 2.2-.7.5-.1 1-.9 1.5-.3.2-2 .5-2.3.7-.5.4.2.8-.3 1.2-2.1 1.6-4.1 3.2-5.4 4.8-.9 1-1.7 2.1-2.4 3.1-1.5 2.1-2.7 4.4-3.7 6.8-.4.9-.7 1.8-1.1 2.7-1 2.9-1.9 5.9-2.5 9-1 4.6-.2 9.4-.4 14.3-1 29.6 7.4 46.4 7.4 46.4 6.1-4.5-1.6-41.5 16.9-53.7 5.9-3.9 36.9-4.3 40.5-4.3s34.4.4 40.3 4.3c18.5 12.2 10.8 49.2 16.9 53.7 0 0 8.4-16.9 7.4-46.4-.2-4.9.6-9.7-.4-14.3z" fill="#272524"/><path d="m169.8 137.4s-1.1-1.9-1.5-5.8c-.9-10.1-3.1-28.8-7-32-5.4-4.5-16.1-1.9-18.8-2s-12.1-2.5-14.2-5.4c0 0-8.6 2.9-15.9 2.9-7.2 0-11.4-2.8-11.4-2.8s-7.1 3.7-9.3 3.7-5.7-1.8-5.7-1.8-.4 2-2.7 3.1c-4.2 1.9-14.7-.6-16.7 2.1s-8.4 10-8.7 23.1c-.4 13.1-3.1-1.4-3.1-2.7s1.6-20.5 2.5-21.1c.8-.6 3.8-2.2 3.8-2.2s-3.8-7.4 2.5-13.1c1.8-1.6 10.5 0 10.5 0s-.9-10.4 2.6-12 8 2 12.9-.5c7.8-3.9 11 6.7 13.7 4.8s3.7-11.2 10.1-7.8c12.9 6.8 7.7-.1 16.6 1.1s5.8 5.3 12.4 9.1c6.8 3.9 11.9.9 13.9 3.1s2.5 10.5 10.7 13.8 3.4 33.2 3.8 35.3.7 7.1-1 7.1z" fill="#393735"/><g fill="#4f4c49"><path d="m99.4 90.4s-6.2 3.9-8.7 3.8c-2.4-.1-5.7-4.5-6-9.5 0 0 3.2 6.6 5 7s1.6-3.9 3.2-3.1 2.9 1.4 3.7.9c2.2-1.2-1-16.9-5.8-24.9 0 0 12.2 19.4 8.6 25.8z"/><path d="m128.9 79.4s-.3 10.4-3.9 10.8c-3.7.4 0-30.4 0-30.4s-3 20-3.2 22.6c-.2 2.5-1.6 3.8-2.5 3.9s.2 3.9-.9 4.5c-1.1.5-4.1 1.3-4.9-3.1 0 0-.2 4.4 3 5s10.7-1 11.9-2.4c1.2-1.5 1.3-8.1.5-10.9z"/><path d="m70.6 94.7c1.5-.1 3-.1 4.5-.1h4.5c.7 0 1.5-.1 2.1-.2s.9-.5 1.2-1.1c.2-.6.2-1.3.1-2.1-.1-.7-.2-1.5-.5-2.2.5.6.8 1.3 1.1 2.1.2.7.4 1.6.3 2.4-.1.4-.3.9-.6 1.3-.2.2-.3.4-.6.5-.2.1-.5.3-.7.3-.8.3-1.6.3-2.4.3-1.6 0-3.1-.1-4.6-.3s-3-.4-4.4-.9z"/><path d="m133 72.5c-.3 3.5-.5 6.9-.5 10.4 0 1.7 0 3.4.2 5.1.1.8.2 1.7.4 2.5s.5 1.6.9 2.1c.2.2.5.5.8.7s.7.4 1 .6c.7.3 1.4.4 2.2.2l1.2-.3c.4-.1.8-.3 1.4-.3h.4c.2 0 .3.1.5.1.2.1.3.1.4.2s.2.2.3.3c.2.2.4.5.4.7.1.2 0 .1.1.2.2.1.7.2 1.1.2s.9.1 1.3.1c.8 0 1.7-.1 2.5-.3 1.6-.4 3.2-1.3 4.6-2.3-1.2 1.3-2.7 2.3-4.4 2.9-.8.3-1.7.5-2.7.6-.5 0-.9 0-1.3 0-.5 0-.9 0-1.5-.2-.1-.1-.3-.2-.4-.3s-.1-.1-.2-.2l-.1-.2c-.1-.2-.1-.3-.2-.4-.1 0-.1-.1-.2-.1s-.1-.1-.2-.1c0 0-.1 0-.2 0s-.1 0-.2 0c-.6.1-1.5.5-2.4.7s-2 .1-2.9-.3c-.5-.2-.9-.4-1.3-.7s-.7-.5-1.1-1c-.6-.8-.9-1.7-1.1-2.6s-.3-1.8-.4-2.7c-.1-1.8-.1-3.5 0-5.3.3-3.5.8-7 1.6-10.3z"/></g><path d="m311.1 249.8c0 4.4-10.7 26.4-24.6 26.4s-25.9-22.1-25.9-26.4 11.3-5.6 25.3-5.6 25.2 1.3 25.2 5.6z" fill="#bfc9d2" stroke="#e9edf4" stroke-miterlimit="10"/><path d="m232.1 309.5h107.5l9.4-26.1s-2-9.5-17.4-14.7c-15.4-5.1-27.2-10.4-27.2-21.3 0-11 0-28.8 0-28.8h-18.6-18.6v28.8c0 11-11.7 16.2-27.2 21.3-15.4 5.1-17.4 14.7-17.4 14.7z" fill="#dcb995"/><path d="m285.9 78.5c-10.3 0-59.4-.6-59.4 60.4 0 25.3 2.4 46.7 9.9 64 10.7 24.7 33.2 37.7 49.4 37.7 16.3 0 40.4-13.2 51-37.7 7.5-17.4 8.4-38.7 8.4-64 0-60.2-49-60.4-59.3-60.4z" fill="#eecba1"/><path d="m262.9 202.4c7.3 4.4 15.1 7.2 23 7.1 8 0 15.6-3.1 23.2-7.1-2.8 3.3-6.3 6-10.2 8s-8.4 3.1-12.9 3.2c-4.5 0-9-1-13-3-4-1.9-7.6-4.7-10.1-8.2z" fill="#a8856f"/><path d="m285.9 78.5c-10.3 0-59.4-.6-59.4 60.4 0 7.1.3 14 1 20.5.5-2.8 1-6.2 1.3-9.5.7-8.3.3-18.9 4.7-34.2 4.5-15.3 15.9-26.9 24.5-28.8 8.5-1.8 10.6-1.3 14.9 1.3 4.4 2.6 9.1 3.4 12.5 3.4h.2.2c3.4 0 8.1-.8 12.5-3.4s6.4-3.1 14.9-1.3 20 13.5 24.5 28.8 4 25.9 4.7 34.2c.4 4.4 1.1 8.6 1.8 11.8.6-7.3.8-14.9.8-22.8.2-60.2-48.8-60.4-59.1-60.4z" fill="#9f816c"/><path d="m285.9 275.3c-12.2 0-22.9-2.4-28.9-6.1v45.4h57.8v-45.4c-6.1 3.6-16.8 6.1-28.9 6.1z" fill="#fff"/><path d="m271.8 170.7c0 7-5.7 12.6-12.8 12.6s-12.8-5.7-12.8-12.6c0-7 5.7-12.6 12.8-12.6s12.8 5.7 12.8 12.6z" fill="#7e9ea3"/><path d="m268.5 170.7c0 4.9-4 8.8-8.8 8.8-4.9 0-8.8-4-8.8-8.8 0-4.9 3.9-8.8 8.8-8.8s8.8 4 8.8 8.8z" fill="#2a1d01"/><path d="m256 166.2c0 1.4-1.1 2.6-2.6 2.6-1.4 0-2.6-1.2-2.6-2.6s1.1-2.5 2.6-2.5c1.5-.1 2.6 1.1 2.6 2.5z" fill="#fff"/><path d="m241.1 160.8c-.5-.3-1-1.2-.5-2 .7-1.3.4-5.1 30.6-3.5.9 0 1.4 2.3 1.4 3.2s-.8 1.5-1.6 1.5c-22.5-1.2-27.1-.2-27.7.1-.7.3-1.7 1-2.2.7zm2.6-1.7v.3c0-.2 0-.2 0-.3z" fill="#bba28d"/><path d="m373.9 323.8c-9.2-22.8-17.9-44.1-18.2-45-.7-1.9-6.2-3.9-6.2-3.9l-34.5-14.6-22.4 7.9-6.7 25.7-6.7-25.7-22.4-7.9-34.5 14.6s-5.5 2-6.2 3.9c-.3.9-8.9 22.2-18.2 45z" fill="#dfe2e7"/><path d="m327.4 170.7c0 7-5.7 12.6-12.8 12.6s-12.8-5.7-12.8-12.6c0-7 5.7-12.6 12.8-12.6s12.8 5.7 12.8 12.6z" fill="#7e9ea3"/><path d="m324.1 170.7c0 4.9-4 8.8-8.8 8.8-4.9 0-8.8-4-8.8-8.8 0-4.9 3.9-8.8 8.8-8.8s8.8 4 8.8 8.8z" fill="#2a1d01"/><path d="m311.6 166.2c0 1.4-1.1 2.6-2.6 2.6-1.4 0-2.6-1.2-2.6-2.6s1.1-2.5 2.6-2.5c1.4-.1 2.6 1.1 2.6 2.5z" fill="#fff"/><path d="m328.6 160c-.6-.4-5.3-1.4-27.7-.1-.9 0-1.6-.6-1.6-1.5s.5-3.1 1.4-3.2c30.2-1.7 29.9 2.2 30.6 3.5.5.9 0 1.7-.5 2-.6.4-1.6-.3-2.2-.7zm-.4-.7c0-.1 0-.2 0-.3-.1.2 0 .2 0 .3z" fill="#bba28d"/><path d="m292.4 268.2 7.2 14.5c14.5-16.8 15.2-22.3 15.2-22.3s-3.4-11.7-4.5-12.5c0 0-.3.2-.4.7 0 0 .3.2-.1 1.2-.3.8-6.8 11.3-17.4 18.4z" fill="#e9edf4"/><path d="m279.1 268.2-7.2 14.5c-14.5-16.8-15.2-22.3-15.2-22.3s3.4-11.7 4.5-12.5c0 0 .3.2.4.7 0 0-.3.2.1 1.2.3.8 6.8 11.3 17.4 18.4z" fill="#e9edf4"/><path d="m286.4 323.8v-30c0-.2-.1-.4-.3-.5l-.2.7-.2-.8c-.4 0-.7.3-.7.7v30h1.4z" fill="#b9bcc1"/><circle cx="291.8" cy="299" fill="#b9bcc1" r="1.8"/><circle cx="291.8" cy="313.9" fill="#b9bcc1" r="1.8"/></svg>