<svg enable-background="new 0 0 731.2 414.2" viewBox="0 0 731.2 414.2" xmlns="http://www.w3.org/2000/svg" xmlns:xlink="http://www.w3.org/1999/xlink"><linearGradient id="a" gradientUnits="userSpaceOnUse" x1="1593.8052" x2="1593.8052" y1="-2590.0142" y2="-2637.4021"><stop offset=".4451" stop-color="#e9cbac"/><stop offset="1" stop-color="#cab298"/></linearGradient><linearGradient id="b" gradientUnits="userSpaceOnUse" x1="1355.8394" x2="1355.8394" y1="-2542.7283" y2="-2635.656"><stop offset="0" stop-color="#caaa6e"/><stop offset="1" stop-color="#a58c5b"/></linearGradient><linearGradient id="c"><stop offset="0" stop-color="#c88c66"/><stop offset="1" stop-color="#caaa6e"/></linearGradient><radialGradient id="d" cx="1317.6755" cy="-2651.8142" gradientUnits="userSpaceOnUse" r="7.1781" xlink:href="#c"/><radialGradient id="e" cx="1363.5494" cy="-2651.8142" gradientUnits="userSpaceOnUse" r="7.1781" xlink:href="#c"/><linearGradient id="f"><stop offset=".293" stop-color="#f4d89a"/><stop offset=".3714" stop-color="#f3d799"/><stop offset="1" stop-color="#dfc48e"/></linearGradient><linearGradient id="g" gradientUnits="userSpaceOnUse" x1="1462.0651" x2="1462.0651" xlink:href="#f" y1="-2549.0273" y2="-2603.7769"/><linearGradient id="h"><stop offset="0" stop-color="#efb698"/><stop offset="1" stop-color="#f3d9a6"/></linearGradient><radialGradient id="i" cx="1438.2313" cy="-2620.9844" gradientUnits="userSpaceOnUse" r="7.6444" xlink:href="#h"/><radialGradient id="j" cx="1487.0852" cy="-2620.9844" gradientUnits="userSpaceOnUse" r="7.6444" xlink:href="#h"/><linearGradient id="k" gradientUnits="userSpaceOnUse" x1="148.0168" x2="148.0168" y1="387.4233" y2="251.3211"><stop offset="0" stop-color="#fedec8"/><stop offset="1" stop-color="#eacdba"/></linearGradient><linearGradient id="l" gradientUnits="userSpaceOnUse" x1="360.6998" x2="360.6998" xlink:href="#f" y1="402.8417" y2="302.6659"/><radialGradient id="m" cx="317.0907" cy="271.1805" gradientUnits="userSpaceOnUse" r="13.9872" xlink:href="#h"/><radialGradient id="n" cx="406.4796" cy="271.1805" gradientUnits="userSpaceOnUse" r="13.9872" xlink:href="#h"/><path d="m666.6 414.2h-602.1c-35.6 0-64.5-28.9-64.5-64.5v-285.2c0-35.6 28.9-64.5 64.5-64.5h602.1c35.6 0 64.5 28.9 64.5 68.2v285.2c.1 31.9-28.8 60.8-64.5 60.8z" fill="#20b24b"/><path d="m731.2 353.3v-126.1l-729.7-43.2v179.4c6.3 29.1 32.1 50.8 63.1 50.8h602.1c35.6 0 64.5-28.9 64.5-60.9z" fill="#1ca345"/><g fill="#004152"><path d="m1745-2704.1v-15.4c0-2.7-.5-4.6-1.9-6.3-.7-.7-1.8-1.1-3-1.1-2.6 0-3.8 1.9-4.4 3.7-.4 1.1-.5 2.3-.5 3.7v60.1c0 2.9.7 4.8 2 6.3.7.7 1.6 1.1 2.9 1.1 2.6 0 3.8-1.6 4.4-3.7.4-1 .5-2.2.5-3.7v-18.1h-5.8v-12.4h20.5v49.8h-8.7l-1.8-4.8c-2.7 3.4-6.7 5.8-11.4 5.8-4.8 0-8-1.2-10.5-3.4-2.4-2-4.1-4.6-5.2-7.3-1.2-3.1-1.8-6.8-1.6-10.9v-58.9c.1-3.9 1-7.6 2.4-10.7 1.2-2.7 3-5.4 5.7-7.5 2.7-2 6.5-3.4 11.4-3.4s8.6 1.4 11.3 3.4 4.6 4.8 5.8 7.5c1.5 3.1 2.3 6.8 2.4 10.7v15.4h-14.5z"/><path d="m1770.4-2740h33.6v15.1h-18.9v26.2h13.6v16h-13.6v27.5h18.9v15.1h-33.6z"/><path d="m1812.2-2640v-99.9h12.9c8.7 0 15.5 1.6 20 5.8s6.8 10.7 6.8 20.7c0 4.8-.4 8.3-1.9 11.6s-3.8 6-7.2 9.1c3.7 2 6.4 5.8 8.6 12.2 1.1 3.1 1.6 7.2 1.6 12.2 0 7.5-1.4 14.1-4.8 19.3s-9.2 8.6-17.9 9zm14.7-58.8c1.2 0 4.1.1 6.5-1.5s4.4-4.9 4.4-11.8-1.9-10.2-4.4-11.8c-2.4-1.6-5.3-1.5-6.5-1.5zm0 44.2c1.2 0 4.1.3 6.5-1.5s4.4-5.7 4.4-13.9-1.9-12.1-4.4-13.9c-2.4-1.8-5.3-1.5-6.5-1.5z"/><path d="m1887.9-2640-7.6-42.2h-3.9v42.2h-14.7v-99.9h14.7c17.5 0 25 9.9 25 28.8 0 9.9-2.6 18.9-8.2 22.7l9.4 48.4zm-11.5-55.8c2 0 4.8-.3 6.9-2.2 2.2-1.9 3.9-5.6 3.9-12.6 0-7.1-1.8-10.9-3.9-12.8-2.2-1.9-4.9-2-6.9-2z"/><path d="m1949.8-2740v79.4c-.1 4.1-1 7.8-2.4 10.9-1.2 2.7-3.1 5.3-5.8 7.3-2.7 2.2-6.4 3.4-11.3 3.4s-8.7-1.2-11.4-3.4c-2.7-2-4.5-4.6-5.7-7.3-1.5-3.1-2.3-6.8-2.4-10.9v-79.4h14.7v79.4c0 2.9.7 4.8 2 6.3.7.7 1.6 1.1 2.9 1.1 2.6 0 3.8-1.6 4.4-3.7.4-1 .5-2.2.5-3.7v-79.4z"/><path d="m1960.5-2740h14.7v99.9h-14.7z"/><path d="m2000.8-2740v34.9h.5l.7-1.6 12.2-33.3h14.3l-13.5 32.9 15.2 67h-14.2l-10.2-43.5-.4-2h-.4l-.8 2-3.4 8.2v35.4h-14.7v-99.9h14.7z"/><path d="m2037.1-2740h33.6v15.1h-18.9v26.2h13.6v16h-13.6v27.5h18.9v15.1h-33.6z"/><path d="m2105.1-2640-7.6-42.2h-3.9v42.2h-14.7v-99.9h14.7c17.5 0 25 9.9 25 28.8 0 9.9-2.6 18.9-8.2 22.7l9.4 48.4zm-11.6-55.8c2 0 4.8-.3 6.9-2.2 2.2-1.9 3.9-5.6 3.9-12.6 0-7.1-1.8-10.9-3.9-12.8-2.2-1.9-4.9-2-6.9-2z"/><path d="m2187-2674.3v13.7c-.1 4.1-1 7.8-2.4 10.9-1.2 2.7-3.1 5.3-5.8 7.3-2.7 2.2-6.4 3.4-11.3 3.4s-8.7-1.2-11.4-3.4c-2.7-2-4.5-4.6-5.7-7.3-1.5-3.1-2.3-6.8-2.4-10.9v-58.9c.1-3.9 1-7.6 2.4-10.7 1.2-2.7 3-5.4 5.7-7.5 2.7-2 6.5-3.4 11.4-3.4s8.6 1.4 11.3 3.4 4.6 4.8 5.8 7.5c1.5 3.1 2.3 6.8 2.4 10.7v13.7h-13.7v-13.7c0-2.7-.7-4.6-2.2-6.3-.7-.7-1.9-1.1-3.4-1.1-2.6 0-3.8 1.9-4.5 3.7-.4 1.1-.5 2.3-.7 3.7v58.9c.1 2.9 1 4.8 2.3 6.3.7.7 1.6 1.1 2.9 1.1 3.1 0 4.4-1.6 5-3.7.4-1 .5-2.2.5-3.7v-13.7z"/><path d="m2195.9-2740h33.6v15.1h-18.9v26.2h13.6v16h-13.6v27.5h18.9v15.1h-33.6z"/><path d="m2253.1-2692.1-1.2-4.6h-.8v56.7h-13.5v-99.9h13.1l14.3 52.1 1.2 4.6h.8v-56.7h13.5v99.9h-13.1z"/><path d="m2286.2-2724.9v-15.1h42.4v15.1h-13.9v84.8h-14.7v-84.8z"/><path d="m2360.5-2640-7.6-42.2h-3.9v42.2h-14.7v-99.9h14.7c17.5 0 25 9.9 25 28.8 0 9.9-2.6 18.9-8.2 22.7l9.4 48.4zm-11.5-55.8c2 0 4.8-.3 6.9-2.2 2.2-1.9 3.9-5.6 3.9-12.6 0-7.1-1.8-10.9-3.9-12.8-2.2-1.9-4.9-2-6.9-2z"/><path d="m2379.3-2640 15.1-99.9h17.9l15.1 99.9h-14.3l-2.7-20.4h-14.1l-2.7 20.4zm24.9-67.5-.4-2.6h-.8l-.4 2.6-4.2 31.5h10.1z"/><path d="m2430.2-2640 15.1-99.9h17.9l15.1 99.9h-14.3l-2.7-20.4h-14.1l-2.7 20.4zm24.8-67.5-.4-2.6h-.8l-.4 2.6-4.2 31.5h10.1z"/><path d="m2485.1-2740h14.7v86.3h19.4v13.6h-34.1z"/><path d="m1749.1-2603.1-12.6 28.9h-5.3l-12.6-28.9h5.8l9.6 22.3 9.7-22.3z"/><path d="m1753.9-2575.4c-1.8-1-3.2-2.3-4.2-4s-1.5-3.7-1.5-5.8.5-4.1 1.5-5.8 2.4-3 4.2-4 3.8-1.4 6-1.4c2.3 0 4.3.5 6.1 1.4 1.8 1 3.2 2.3 4.2 4s1.5 3.6 1.5 5.8-.5 4.1-1.5 5.8-2.4 3.1-4.2 4c-1.8 1-3.8 1.4-6.1 1.4-2.2.1-4.2-.4-6-1.4zm10.7-4.9c1.2-1.3 1.9-2.9 1.9-5s-.6-3.7-1.9-5c-1.2-1.3-2.8-1.9-4.7-1.9s-3.5.6-4.7 1.9-1.8 2.9-1.8 5 .6 3.7 1.8 5 2.8 1.9 4.7 1.9 3.5-.6 4.7-1.9z"/><path d="m1780.5-2575.4c-1.8-1-3.2-2.3-4.2-4s-1.5-3.7-1.5-5.8.5-4.1 1.5-5.8 2.4-3 4.2-4 3.8-1.4 6-1.4c2.3 0 4.3.5 6.1 1.4 1.8 1 3.2 2.3 4.2 4s1.5 3.6 1.5 5.8-.5 4.1-1.5 5.8-2.4 3.1-4.2 4c-1.8 1-3.8 1.4-6.1 1.4-2.2.1-4.2-.4-6-1.4zm10.8-4.9c1.2-1.3 1.9-2.9 1.9-5s-.6-3.7-1.9-5c-1.2-1.3-2.8-1.9-4.7-1.9s-3.5.6-4.7 1.9-1.8 2.9-1.8 5 .6 3.7 1.8 5 2.8 1.9 4.7 1.9 3.4-.6 4.7-1.9z"/><path d="m1816-2596.5v4.9c-.4-.1-.8-.1-1.2-.1-2 0-3.6.6-4.7 1.8s-1.7 2.9-1.7 5.1v10.7h-5.2v-22h4.9v3.2c1.6-2.5 4.2-3.6 7.9-3.6z"/><path d="m1852.7-2583.6h-17.3c.3 1.6 1.1 2.9 2.4 3.9s2.9 1.4 4.8 1.4c2.4 0 4.4-.8 6-2.4l2.8 3.2c-1 1.2-2.2 2.1-3.8 2.7s-3.2.9-5.1.9c-2.4 0-4.6-.5-6.4-1.4-1.8-1-3.3-2.3-4.3-4s-1.5-3.7-1.5-5.8.5-4.1 1.5-5.8 2.3-3.1 4.1-4c1.7-1 3.7-1.4 5.9-1.4 2.1 0 4.1.5 5.8 1.4 1.7 1 3 2.3 4 4s1.4 3.7 1.4 6c-.3.1-.3.6-.3 1.3zm-15.3-7.3c-1.1 1-1.8 2.3-2.1 3.9h12.5c-.2-1.6-.9-2.9-2-3.9s-2.5-1.5-4.2-1.5-3.1.5-4.2 1.5z"/><path d="m1878.3-2583.6h-17.3c.3 1.6 1.1 2.9 2.4 3.9s2.9 1.4 4.8 1.4c2.4 0 4.4-.8 6-2.4l2.8 3.2c-1 1.2-2.2 2.1-3.8 2.7s-3.2.9-5.1.9c-2.4 0-4.6-.5-6.4-1.4-1.8-1-3.3-2.3-4.3-4s-1.5-3.7-1.5-5.8.5-4.1 1.5-5.8 2.3-3.1 4.1-4c1.7-1 3.7-1.4 5.9-1.4 2.1 0 4.1.5 5.8 1.4 1.7 1 3 2.3 4 4s1.4 3.7 1.4 6c-.2.1-.2.6-.3 1.3zm-15.2-7.3c-1.1 1-1.8 2.3-2.1 3.9h12.5c-.2-1.6-.9-2.9-2-3.9s-2.5-1.5-4.2-1.5-3.1.5-4.2 1.5z"/><path d="m1902.6-2594.1c1.7 1.6 2.5 4 2.5 7.2v12.6h-5.2v-12c0-1.9-.5-3.4-1.4-4.4s-2.2-1.5-3.9-1.5c-1.9 0-3.4.6-4.5 1.7s-1.7 2.8-1.7 4.9v11.1h-5.2v-22h4.9v2.8c.9-1 1.9-1.8 3.2-2.3s2.8-.8 4.4-.8c3 .3 5.2 1.1 6.9 2.7z"/><path d="m1944.9-2596.3v18.7c0 7.8-4 11.6-11.9 11.6-2.1 0-4.1-.3-6-.8s-3.5-1.3-4.7-2.3l2.3-3.9c1 .8 2.2 1.4 3.7 1.9s3 .7 4.5.7c2.4 0 4.2-.6 5.3-1.7s1.7-2.8 1.7-5v-1.2c-.9 1-2 1.7-3.2 2.2-1.3.5-2.7.7-4.2.7-2.1 0-4-.4-5.7-1.3s-3-2.2-4-3.8-1.5-3.5-1.5-5.6.5-3.9 1.5-5.6c1-1.6 2.3-2.9 4-3.7 1.7-.9 3.6-1.3 5.7-1.3 1.6 0 3 .3 4.4.8 1.3.5 2.4 1.3 3.3 2.4v-2.9h4.8zm-6.9 14.9c1.3-1.2 1.9-2.7 1.9-4.6 0-1.8-.6-3.3-1.9-4.5s-2.9-1.7-4.8-1.7c-2 0-3.6.6-4.9 1.7s-1.9 2.7-1.9 4.5c0 1.9.6 3.4 1.9 4.6s2.9 1.8 4.9 1.8c1.9 0 3.5-.6 4.8-1.8z"/><path d="m1972.4-2583.6h-17.3c.3 1.6 1.1 2.9 2.4 3.9s2.9 1.4 4.8 1.4c2.4 0 4.4-.8 6-2.4l2.8 3.2c-1 1.2-2.2 2.1-3.8 2.7s-3.2.9-5.1.9c-2.4 0-4.6-.5-6.4-1.4-1.8-1-3.3-2.3-4.3-4s-1.5-3.7-1.5-5.8.5-4.1 1.5-5.8 2.3-3.1 4.1-4c1.7-1 3.7-1.4 5.9-1.4 2.1 0 4.1.5 5.8 1.4 1.7 1 3 2.3 4 4s1.4 3.7 1.4 6c-.3.1-.3.6-.3 1.3zm-15.3-7.3c-1.1 1-1.8 2.3-2.1 3.9h12.5c-.2-1.6-.9-2.9-2-3.9s-2.5-1.5-4.2-1.5-3.1.5-4.2 1.5z"/><path d="m1995.4-2595.1c1.7.9 3 2.3 4 4s1.4 3.7 1.4 5.9-.5 4.2-1.4 5.9c-1 1.7-2.3 3-4 4-1.7.9-3.6 1.4-5.8 1.4-1.5 0-2.9-.3-4.2-.8s-2.3-1.3-3.2-2.4v2.8h-4.9v-30.6h5.2v11.3c.9-1 1.9-1.7 3.1-2.2s2.5-.7 3.9-.7c2.3 0 4.2.4 5.9 1.4zm-1.7 14.8c1.2-1.3 1.8-2.9 1.8-5s-.6-3.7-1.8-5-2.8-1.9-4.7-1.9c-1.2 0-2.4.3-3.3.8-1 .6-1.8 1.4-2.4 2.4s-.9 2.3-.9 3.6c0 1.4.3 2.6.9 3.6s1.4 1.9 2.4 2.4c1 .6 2.1.8 3.3.8 1.9.2 3.5-.4 4.7-1.7z"/><path d="m2018.5-2596.5v4.9c-.4-.1-.8-.1-1.2-.1-2 0-3.6.6-4.7 1.8s-1.7 2.9-1.7 5.1v10.7h-5.2v-22h4.9v3.2c1.5-2.5 4.1-3.6 7.9-3.6z"/><path d="m2044.4-2596.3v22h-4.9v-2.8c-.8 1-1.9 1.8-3.1 2.3s-2.6.8-4 .8c-2.9 0-5.3-.8-7-2.5-1.7-1.6-2.5-4.1-2.5-7.3v-12.6h5.2v11.9c0 2 .4 3.5 1.3 4.4.9 1 2.2 1.5 3.8 1.5 1.8 0 3.3-.6 4.4-1.7s1.6-2.8 1.6-4.9v-11.1z"/><path d="m2051.4-2600.8c-.6-.6-1-1.3-1-2.2s.3-1.6 1-2.2c.6-.6 1.4-.9 2.4-.9.9 0 1.7.3 2.4.8.6.6 1 1.3 1 2.1 0 .9-.3 1.7-.9 2.3s-1.4.9-2.4.9c-1.1.1-1.8-.2-2.5-.8zm-.2 4.5h5.2v22h-5.2z"/><path d="m2072.1-2583.7-3.8 3.6v5.8h-5.2v-30.6h5.2v18.5l10.7-9.9h6.2l-9.2 9.2 10.1 12.8h-6.3z"/><path d="m2090.2-2574.6c-1.7-.5-3.1-1.1-4.1-1.8l2-3.9c1 .7 2.2 1.2 3.6 1.6s2.8.6 4.1.6c3.1 0 4.6-.8 4.6-2.4 0-.8-.4-1.3-1.2-1.6s-2-.6-3.8-.9-3.3-.6-4.4-1-2.1-1-3-1.9c-.8-.9-1.3-2.1-1.3-3.7 0-2.1.9-3.8 2.6-5 1.7-1.3 4.1-1.9 7.1-1.9 1.5 0 3 .2 4.5.5s2.8.8 3.7 1.4l-2 3.9c-1.9-1.1-4-1.7-6.3-1.7-1.5 0-2.7.2-3.4.7-.8.5-1.2 1.1-1.2 1.8 0 .8.4 1.4 1.3 1.8.8.3 2.1.7 3.9 1s3.2.6 4.3.9c1.1.4 2.1 1 2.9 1.8.8.9 1.2 2.1 1.2 3.6 0 2.1-.9 3.7-2.7 5-1.8 1.2-4.2 1.9-7.3 1.9-1.6 0-3.4-.3-5.1-.7z"/><path d="m2130.2-2596.3-9.5 22h-5.3l-9.5-22h5.4l6.9 16.4 7.1-16.4z"/><path d="m2146.2-2596.5v4.9c-.4-.1-.8-.1-1.2-.1-2 0-3.6.6-4.7 1.8s-1.7 2.9-1.7 5.1v10.7h-5.2v-22h4.9v3.2c1.5-2.5 4.1-3.6 7.9-3.6z"/><path d="m2150.8-2600.8c-.6-.6-1-1.3-1-2.2s.3-1.6 1-2.2c.6-.6 1.4-.9 2.4-.9.9 0 1.7.3 2.4.8.6.6 1 1.3 1 2.1 0 .9-.3 1.7-.9 2.3s-1.4.9-2.4.9c-1.1.1-1.9-.2-2.5-.8zm-.3 4.5h5.2v22h-5.2z"/><path d="m2183.1-2583.6h-17.3c.3 1.6 1.1 2.9 2.4 3.9s2.9 1.4 4.8 1.4c2.4 0 4.4-.8 6-2.4l2.8 3.2c-1 1.2-2.2 2.1-3.8 2.7s-3.2.9-5.1.9c-2.4 0-4.6-.5-6.4-1.4-1.8-1-3.3-2.3-4.3-4s-1.5-3.7-1.5-5.8.5-4.1 1.5-5.8 2.3-3.1 4.1-4c1.7-1 3.7-1.4 5.9-1.4 2.1 0 4.1.5 5.8 1.4 1.7 1 3 2.3 4 4s1.4 3.7 1.4 6c-.2.1-.2.6-.3 1.3zm-15.2-7.3c-1.1 1-1.8 2.3-2.1 3.9h12.5c-.2-1.6-.9-2.9-2-3.9s-2.5-1.5-4.2-1.5-3.1.5-4.2 1.5z"/><path d="m2207.3-2594.1c1.7 1.6 2.5 4 2.5 7.2v12.6h-5.2v-12c0-1.9-.5-3.4-1.4-4.4s-2.2-1.5-3.9-1.5c-1.9 0-3.4.6-4.5 1.7s-1.7 2.8-1.7 4.9v11.1h-5.2v-22h4.9v2.8c.9-1 1.9-1.8 3.2-2.3s2.8-.8 4.4-.8c3 .3 5.3 1.1 6.9 2.7z"/><path d="m2238.2-2604.9v30.6h-5v-2.8c-.9 1-1.9 1.8-3.2 2.4-1.3.5-2.6.8-4.1.8-2.1 0-4-.5-5.7-1.4s-3-2.3-4-4-1.4-3.7-1.4-5.9.5-4.2 1.4-5.9c1-1.7 2.3-3 4-4 1.7-.9 3.6-1.4 5.7-1.4 1.5 0 2.8.2 4 .7s2.2 1.2 3.1 2.2v-11.3zm-8.3 25.7c1-.6 1.8-1.4 2.4-2.4s.9-2.3.9-3.6c0-1.4-.3-2.6-.9-3.6s-1.4-1.9-2.4-2.4c-1-.6-2.1-.8-3.3-.8s-2.4.3-3.3.8c-1 .6-1.8 1.4-2.4 2.4s-.9 2.3-.9 3.6c0 1.4.3 2.6.9 3.6s1.4 1.9 2.4 2.4c1 .6 2.1.8 3.3.8s2.3-.2 3.3-.8z"/><path d="m2265.6-2583.6h-17.3c.3 1.6 1.1 2.9 2.4 3.9s2.9 1.4 4.8 1.4c2.4 0 4.4-.8 6-2.4l2.8 3.2c-1 1.2-2.2 2.1-3.8 2.7s-3.2.9-5.1.9c-2.4 0-4.6-.5-6.4-1.4-1.8-1-3.3-2.3-4.3-4s-1.5-3.7-1.5-5.8.5-4.1 1.5-5.8 2.3-3.1 4.1-4c1.7-1 3.7-1.4 5.9-1.4 2.1 0 4.1.5 5.8 1.4 1.7 1 3 2.3 4 4s1.4 3.7 1.4 6c-.2.1-.2.6-.3 1.3zm-15.2-7.3c-1.1 1-1.8 2.3-2.1 3.9h12.5c-.2-1.6-.9-2.9-2-3.9s-2.5-1.5-4.2-1.5-3.1.5-4.2 1.5z"/><path d="m2270.7-2604.9h5.2v30.6h-5.2z"/><path d="m2282.9-2600.8c-.6-.6-1-1.3-1-2.2s.3-1.6 1-2.2c.6-.6 1.4-.9 2.4-.9.9 0 1.7.3 2.4.8.6.6 1 1.3 1 2.1 0 .9-.3 1.7-.9 2.3s-1.4.9-2.4.9c-1.1.1-1.9-.2-2.5-.8zm-.3 4.5h5.2v22h-5.2z"/><path d="m2287.3-2567.2 1.5-3.8c.8.6 1.8.9 3 .9 1 0 1.7-.3 2.2-.9s.8-1.5.8-2.6v-22.6h5.2v22.5c0 2.4-.7 4.4-2 5.8s-3.2 2.1-5.7 2.1c-2.2-.1-3.8-.6-5-1.4zm7.7-33.6c-.6-.6-.9-1.3-.9-2.2s.3-1.6.9-2.2 1.4-.9 2.4-.9 1.7.3 2.4.8c.6.6.9 1.3.9 2.1 0 .9-.3 1.7-.9 2.3s-1.4.9-2.4.9c-1 .1-1.8-.2-2.4-.8z"/><path d="m2315.7-2583.7-3.8 3.6v5.8h-5.2v-30.6h5.2v18.5l10.7-9.9h6.2l-9.2 9.2 10.1 12.8h-6.3z"/><path d="m2352.7-2583.6h-17.3c.3 1.6 1.1 2.9 2.4 3.9s2.9 1.4 4.8 1.4c2.4 0 4.4-.8 6-2.4l2.8 3.2c-1 1.2-2.2 2.1-3.8 2.7s-3.2.9-5.1.9c-2.4 0-4.6-.5-6.4-1.4-1.8-1-3.3-2.3-4.3-4s-1.5-3.7-1.5-5.8.5-4.1 1.5-5.8 2.3-3.1 4.1-4c1.7-1 3.7-1.4 5.9-1.4 2.1 0 4.1.5 5.8 1.4 1.7 1 3 2.3 4 4s1.4 3.7 1.4 6c-.2.1-.2.6-.3 1.3zm-15.2-7.3c-1.1 1-1.8 2.3-2.1 3.9h12.5c-.2-1.6-.9-2.9-2-3.9s-2.5-1.5-4.2-1.5-3.1.5-4.2 1.5z"/><path d="m2373-2575.4c-1.8-1-3.2-2.3-4.2-4s-1.5-3.7-1.5-5.8.5-4.1 1.5-5.8 2.4-3 4.2-4 3.8-1.4 6-1.4c2.3 0 4.3.5 6.1 1.4 1.8 1 3.2 2.3 4.2 4s1.5 3.6 1.5 5.8-.5 4.1-1.5 5.8-2.4 3.1-4.2 4c-1.8 1-3.8 1.4-6.1 1.4-2.2.1-4.2-.4-6-1.4zm10.8-4.9c1.2-1.3 1.9-2.9 1.9-5s-.6-3.7-1.9-5c-1.2-1.3-2.8-1.9-4.7-1.9s-3.5.6-4.7 1.9-1.8 2.9-1.8 5 .6 3.7 1.8 5 2.8 1.9 4.7 1.9 3.4-.6 4.7-1.9z"/><path d="m2415.8-2596.3-9.5 22h-5.3l-9.5-22h5.4l6.9 16.4 7.1-16.4z"/><path d="m2439.1-2583.6h-17.3c.3 1.6 1.1 2.9 2.4 3.9s2.9 1.4 4.8 1.4c2.4 0 4.4-.8 6-2.4l2.8 3.2c-1 1.2-2.2 2.1-3.8 2.7s-3.2.9-5.1.9c-2.4 0-4.6-.5-6.4-1.4-1.8-1-3.3-2.3-4.3-4s-1.5-3.7-1.5-5.8.5-4.1 1.5-5.8 2.3-3.1 4.1-4c1.7-1 3.7-1.4 5.9-1.4 2.1 0 4.1.5 5.8 1.4 1.7 1 3 2.3 4 4s1.4 3.7 1.4 6c-.2.1-.3.6-.3 1.3zm-15.3-7.3c-1.1 1-1.8 2.3-2.1 3.9h12.5c-.2-1.6-.9-2.9-2-3.9s-2.5-1.5-4.2-1.5c-1.6 0-3 .5-4.2 1.5z"/><path d="m2456.9-2596.5v4.9c-.4-.1-.8-.1-1.2-.1-2 0-3.6.6-4.7 1.8s-1.7 2.9-1.7 5.1v10.7h-5.2v-22h4.9v3.2c1.5-2.5 4.1-3.6 7.9-3.6z"/><path d="m2480.4-2594.1c1.7 1.6 2.5 4 2.5 7.2v12.6h-5.2v-12c0-1.9-.5-3.4-1.4-4.4s-2.2-1.5-3.9-1.5c-1.9 0-3.4.6-4.5 1.7s-1.7 2.8-1.7 4.9v11.1h-5.2v-30.6h5.2v11.1c.9-.9 1.9-1.6 3.2-2.1s2.6-.7 4.2-.7c2.9.3 5.2 1.1 6.8 2.7z"/><path d="m2510.4-2583.6h-17.3c.3 1.6 1.1 2.9 2.4 3.9s2.9 1.4 4.8 1.4c2.4 0 4.4-.8 6-2.4l2.8 3.2c-1 1.2-2.2 2.1-3.8 2.7s-3.2.9-5.1.9c-2.4 0-4.6-.5-6.4-1.4-1.8-1-3.3-2.3-4.3-4s-1.5-3.7-1.5-5.8.5-4.1 1.5-5.8 2.3-3.1 4.1-4c1.7-1 3.7-1.4 5.9-1.4 2.1 0 4.1.5 5.8 1.4 1.7 1 3 2.3 4 4s1.4 3.7 1.4 6c-.2.1-.3.6-.3 1.3zm-15.3-7.3c-1.1 1-1.8 2.3-2.1 3.9h12.5c-.2-1.6-.9-2.9-2-3.9s-2.5-1.5-4.2-1.5c-1.6 0-3 .5-4.2 1.5z"/><path d="m2515.7-2600.8c-.6-.6-1-1.3-1-2.2s.3-1.6 1-2.2c.6-.6 1.4-.9 2.4-.9.9 0 1.7.3 2.4.8.6.6 1 1.3 1 2.1 0 .9-.3 1.7-.9 2.3s-1.4.9-2.4.9c-1.1.1-1.9-.2-2.5-.8zm-.3 4.5h5.2v22h-5.2z"/><path d="m2548.9-2604.9v30.6h-5v-2.8c-.9 1-1.9 1.8-3.2 2.4-1.3.5-2.6.8-4.1.8-2.1 0-4-.5-5.7-1.4s-3-2.3-4-4-1.4-3.7-1.4-5.9.5-4.2 1.4-5.9c1-1.7 2.3-3 4-4 1.7-.9 3.6-1.4 5.7-1.4 1.5 0 2.8.2 4 .7s2.2 1.2 3.1 2.2v-11.3zm-8.3 25.7c1-.6 1.8-1.4 2.4-2.4s.9-2.3.9-3.6c0-1.4-.3-2.6-.9-3.6s-1.4-1.9-2.4-2.4c-1-.6-2.1-.8-3.3-.8s-2.4.3-3.3.8c-1 .6-1.8 1.4-2.4 2.4s-.9 2.3-.9 3.6c0 1.4.3 2.6.9 3.6s1.4 1.9 2.4 2.4c1 .6 2.1.8 3.3.8s2.4-.2 3.3-.8z"/></g><path d="m1630-2542.7h-329c-19.5 0-35.3-15.8-35.3-35.3v-155.8c0-19.5 15.8-35.3 35.3-35.3h329c19.5 0 35.3 15.8 35.3 37.3v155.8c0 17.5-15.8 33.3-35.3 33.3z" fill="#20b24b"/><path d="m1665.3-2576v-69l-398.8-23.6v98.1c3.4 15.9 17.6 27.8 34.5 27.8h329c19.5 0 35.3-15.8 35.3-33.3z" fill="#1ca345"/><path d="m1579.3-2603.4s-2.3-12.2-.7-13.4c1.6-1.1 21.6-4.1 30.3-.7l1 14-26.7 12.1z" fill="#8a6111"/><path d="m1636.7-2594.5s-1.4-6.3-11.5-9.7-19.2-7.2-19.2-14.3c0-7.2 0-18.9 0-18.9h-12.2-12.2v18.9c0 7.2-9.1 10.6-19.1 14-10.1 3.4-11.4 9.6-11.4 9.6s35 10.8 85.6.4z" fill="url(#a)"/><path d="m1539.4-2542.8h1.4l15.4-22.3s.7 10.6 1.4 22.3h70c1-12.8 1.9-24.9 1.9-24.9l12.2 23s6.8-1.8 14.5-9.4c-9-22.1-18.8-45.6-20.2-47.5-2.7-3.7-22.1-8.2-22.1-8.2l-6.4 8.5-12.6 29.5-13.7-27.6-8.4-9.9s-17.6 4-19.5 4.9c-1.2.6-20.6 36.1-34.3 61.5" fill="#8a6111"/><path d="m1637.6-2687c0 35-12.4 58.8-44.3 58.8s-43.7-24.1-43.7-59.1 29.7-38.6 44.2-38.6 43.8 3.9 43.8 38.9z" fill="#e9cbac"/><path d="m1583.3-2664.6c0 4.8-3.9 8.7-8.8 8.7s-8.8-3.9-8.8-8.7 3.9-8.7 8.8-8.7 8.8 3.9 8.8 8.7z" fill="#8c7163"/><path d="m1581-2664.6c0 3.4-2.7 6.1-6.1 6.1s-6.1-2.7-6.1-6.1c0-3.3 2.7-6.1 6.1-6.1s6.1 2.8 6.1 6.1z" fill="#2a1d01"/><path d="m1572.4-2667.7c0 1-.8 1.8-1.8 1.8s-1.8-.8-1.8-1.8.8-1.8 1.8-1.8 1.8.8 1.8 1.8z" fill="#fff"/><path d="m1604.8-2664.6c0 4.8 3.9 8.7 8.8 8.7s8.8-3.9 8.8-8.7-3.9-8.7-8.8-8.7c-4.8 0-8.8 3.9-8.8 8.7z" fill="#8c7163"/><path d="m1607.1-2664.6c0 3.4 2.7 6.1 6.1 6.1s6.1-2.7 6.1-6.1c0-3.3-2.7-6.1-6.1-6.1s-6.1 2.8-6.1 6.1z" fill="#2a1d01"/><path d="m1607.4-2667.7c0 1 .8 1.8 1.8 1.8s1.8-.8 1.8-1.8-.8-1.8-1.8-1.8-1.8.8-1.8 1.8z" fill="#fff"/><path d="m1608.8-2643.3c-.6-.9-4-7.1-7.8-9.1-3.5-1.8-7.5.6-7.5.6h-.1s-4-2.4-7.5-.6c-3.8 2-7.3 8.3-7.8 9.1-1 1.5-2.2 2-2.2 2s1.1.2 2.8.1c2.2-.2 11.8-2.7 14.7-2.7s12.5 2.4 14.7 2.7c1.7.2 2.8-.1 2.8-.1s-1.1-.5-2.1-2z" fill="#fff"/><path d="m1607.6-2645.6c-.4-.7-.8-1.5-1.3-2.2-.9-1.4-2-2.8-3.3-3.9-.3-.3-.7-.6-1-.8-.2-.1-.4-.2-.6-.4l-.1-.1h-.1-.1c-.1 0-.2-.1-.3-.1-.5-.2-.9-.3-1.4-.4s-.9-.1-1.4-.1c-.9 0-1.8.2-2.7.5-.4.2-.8.3-1.2.5-.3.1-.5.3-.8.4-.3-.2-.5-.3-.8-.4-.4-.2-.8-.4-1.2-.5-.8-.3-1.7-.5-2.6-.5s-1.9.1-2.7.5c-.4.2-.8.4-1.2.7s-.7.5-1 .8c-1.3 1.2-2.3 2.5-3.3 3.9-.5.7-.9 1.4-1.3 2.2-.4.7-.8 1.5-1.2 2.2 1-1.4 1.9-2.7 3-4 .5-.6 1.1-1.3 1.6-1.9.6-.6 1.2-1.2 1.8-1.7.3-.2.6-.5 1-.7.3-.2.7-.4 1-.5.7-.3 1.4-.4 2.2-.3.8 0 1.5.2 2.2.5.4.1.7.3 1.1.5.3.2.7.4 1 .6l.4.3.4-.3c.3-.2.6-.4 1-.6s.7-.3 1.1-.5c.7-.3 1.5-.5 2.2-.5h1.1c.4 0 .7.1 1.1.3.1 0 .2.1.3.1h.1l.1.1c.2.1.3.2.5.3.3.2.7.4 1 .7.6.5 1.2 1.1 1.8 1.7s1.1 1.2 1.6 1.9c1.1 1.3 2 2.7 3 4-.2-.8-.5-1.5-1-2.3z" fill="#e6e7e8"/><path d="m1538.5-2542.8-10.6-16.2c-1.1 1.9-2.1 3.9-3.2 5.8l6.8 10.4" fill="#877a45"/><path d="m1543.6-2546.9 4-5.8-12.6-19.4c-1.2 2.1-2.4 4.3-3.5 6.5z" fill="#877a45"/><path d="m1523.7-2542.8-2.5-4c-.7 1.3-1.4 2.7-2.2 4" fill="#877a45"/><path d="m1649.6-2548.9-37.5-57.9 1.9-2.9s1.5.4 3.8.9l34.2 52.7s.6 6.2-2.4 7.2z" fill="#877a45"/><path d="m1608.2-2600.9-2.4 3.8-1.1 2.7 24.1 37.2c.5-6.1.8-10.4.8-10.4" fill="#877a45"/><path d="m1599.4-2542.8-40.9-63c-2.5.6-4.5 1.2-5 1.5-.1 0-.3.3-.5.7l39.5 60.9" fill="#877a45"/><path d="m1542-2584.7c-1.1 2-2.2 4-3.4 6.1l13 20.1 3.8-5.5z" fill="#877a45"/><path d="m1627.6-2542.8c.1-1.3.2-2.6.3-3.8l-26.4-40.6-3.1 7.2 24.1 37.1" fill="#877a45"/><path d="m1614.9-2542.8-19.4-29.9-.4 1-3.6-7.3-19.5-30c-1.4.3-3.9.9-6.7 1.6l42 64.6" fill="#877a45"/><path d="m1627.4-2606 20.7 31.9c-6-14.4-11-26.2-12-27.5-1.1-1.4-4.7-3-8.7-4.4z" fill="#877a45"/><path d="m1584.7-2542.8-35.5-54.7c-1.1 1.8-2.3 4-3.6 6.4l31.4 48.3" fill="#877a45"/><path d="m1569.1-2542.8-12.8-19.7c.2 2.7.5 7.2.8 12.5l4.6 7.2" fill="#877a45"/><path d="m1571.8-2609s11.6 26.4 23.2 45.5c10.6-18.3 21-45.8 21-45.8l-6.8-2.9-11.8 15.5-9-3.7-14.2-9.7z" fill="#65682f"/><path d="m1561.4-2542.7 25.8-42.7.5-.9-3.1-6.2-1 1.7-26.4 43.6c.1 1.4.2 2.9.3 4.4" fill="#65682f"/><path d="m1576.7-2542.8 17.9-29.7-3.4-6.9-22.1 36.5" fill="#65682f"/><path d="m1531.9-2542.8 40-66.3c-1.7.4-5.3 1.2-8.9 2.1l-38.8 64.1" fill="#65682f"/><path d="m1616.7-2609.1c-1.7-.4-2.7-.7-2.7-.7l-8.2 12.7-8.8 20.7z" fill="#65682f"/><path d="m1606.7-2542.8 32.1-53.2c-1.4-3.1-2.3-5.1-2.7-5.6-.2-.3-.6-.6-1-.9l-36.1 59.7" fill="#65682f"/><path d="m1540.8-2542.8 15.4-22.3s.2 2.6.4 6.5l23.2-38.3-3.9-6.2-36.4 60.3" fill="#65682f"/><path d="m1621-2542.8 7.6-12.5c.6-7.2 1-12.4 1-12.4l3 5.7 12.1-20.1c-1-2.4-1.9-4.6-2.8-6.6l-27.7 45.8" fill="#65682f"/><path d="m1553.9-2604.6c-.2.1-.4.1-.5.2-.5.3-5 8.1-11.1 19z" fill="#65682f"/><path d="m1636.2-2555.2 3.6 6.7 11.2-18.6c-1-2.5-2.1-5.1-3.1-7.5z" fill="#65682f"/><path d="m1656.3-2554.1c-.7-1.8-1.5-3.7-2.3-5.5l-7.9 13.1c3.9-2 7.3-4.5 10.2-7.6z" fill="#65682f"/><path d="m1607.1-2604.2-.1-1" fill="#9e7525"/><path d="m1576.9-2609.1s7.7 7.1 17.7 7.2c5.4.1 17.3-7.7 17.3-7.7l-17 35.5z" fill="#fff"/><path d="m1639.7-2670.3c-.6-1-1.6-1.6-2.9-1.9-3-.6-8.6 2.2-10.1 3-2-5.3-7.3-9-13.9-9-6.9 0-12.4 3.9-14.1 9.6-4.2-2.4-7.9-.8-9.4.1-2.1-6.1-9-9.7-15.5-9.7-6.3 0-11 3.5-12.7 9-1.5-.8-7-3.6-10-3-1.3.3-2.3.9-2.9 1.9-1.2 1.9-.7 4.3-.7 4.4l1.3-.3s-.4-2 .5-3.4c.4-.7 1.1-1.1 2.1-1.3 2.4-.5 7.6 2 9.4 3-.2 1.1-.3 2.2-.3 3.4 0 8.1 5.1 13.2 13.4 13.2 7.9 0 16.1-4.9 16.1-13.2 0-.9-.1-1.8-.3-2.6 1.1-.7 4.6-2.6 8.7 0-.2.9-.3 1.7-.3 2.7 0 7.8 6.1 13.2 14.8 13.2s14.8-5.4 14.8-13.2c0-1.2-.2-2.3-.4-3.4 1.9-1 7-3.4 9.4-3 1 .2 1.6.6 2.1 1.3.9 1.4.5 3.3.5 3.4l1.3.3c-.2-.2.3-2.7-.9-4.5zm-66 17.6c-7.4 0-12-4.5-12-11.8 0-7.5 4.7-12.3 12-12.3 7.1 0 14.8 4.7 14.8 12.3 0 7.3-7.5 11.8-14.8 11.8zm39.1 0c-7.9 0-13.4-4.9-13.4-11.8 0-7.1 5.6-12.3 13.4-12.3s13.4 5.2 13.4 12.3c0 6.9-5.5 11.8-13.4 11.8z" fill="#6d3926"/><path d="m1551.7-2669.2s-4.1-2.3-5.9.2 1.1 10.5 3.9 10.5c2.7 0 3.7-3 3.7-3z" fill="#e9cbac"/><path d="m1635.8-2669.2s4.1-2.3 5.9.2-1.1 10.5-3.9 10.5c-2.7 0-3.7-3-3.7-3z" fill="#e9cbac"/><path d="m1570.8-2722.1s3.7 12.1 2.3 16.2-13.7 7.3-16.2 14.8-6.6 18-6.6 18-3.3-12.8-.9-24.7c2.8-13.8 11.8-26.8 21.4-24.3z" fill="#e6e7e8"/><path d="m1616.4-2722.1s-3.7 12.1-2.3 16.2 13.7 7.3 16.2 14.8 6.6 18 6.6 18 3.3-12.8.9-24.7c-2.7-13.8-11.8-26.8-21.4-24.3z" fill="#e6e7e8"/><path d="m1608.5-2708.8s2.1 5.9-13.5 8.9c-15.5 3-32.4-1.1-40 13.5 0 0 1.8-12.3 14.2-20.1 12.3-7.8 29.2-5.5 29.2-5.5s-8.9-4.6-23.7.5c0 0 19.4-10.5 33.8 2.7z" fill="#fff"/><path d="m1612.7-2707.5s0 .1-.1.3-.2.5-.4.9-.4.8-.7 1.3c-.3.4-.7 1-1.2 1.5-.4.5-1 1-1.6 1.5-.6.4-1.2 1-2 1.4-.4.2-.7.4-1.1.7-.4.2-.8.4-1.2.6-.8.4-1.6.7-2.5 1-.8.4-1.7.6-2.5.8-.8.3-1.7.4-2.5.6s-1.6.4-2.4.5-1.5.2-2.1.3c-.7.1-1.3.1-1.8.2-.5 0-1 .1-1.4.1-.8.1-1.2.1-1.2.1s.4 0 1.2-.1c.4 0 .9-.1 1.4-.2s1.1-.1 1.8-.2 1.4-.2 2.1-.4c.8-.1 1.5-.3 2.3-.5s1.6-.4 2.5-.7c.8-.3 1.7-.5 2.5-.9.8-.3 1.6-.7 2.4-1.1.4-.2.8-.4 1.1-.6.4-.2.7-.5 1.1-.7.7-.4 1.3-1 1.9-1.4.5-.5 1.1-1 1.5-1.5s.8-1 1.1-1.4c.3-.5.5-.9.6-1.2.2-.3.2-.6.3-.8s.1-.3.1-.3c0-.2.2-.3.4-.3.3.2.5.3.4.5z" fill="#fff"/><path d="m1617.1-2721.6s-3.3 13 .7 16.4c3.9 3.4 10.6 3.3 14.6 10.1 0 0 .3-2.6-.2-6.3 0 0 4.1 5.5 5.5 13.2 0 0-.3-25.8-15.9-32.9-1.6-.7-3.7-.7-4.7-.5z" fill="#fff"/><path d="m1570.6-2721.6s3.3 13-.7 16.4c-3.9 3.4-10.6 3.3-14.6 10.1 0 0-.3-2.6.2-6.3 0 0-4.1 5.5-5.5 13.2 0 0 .3-25.8 15.9-32.9 1.6-.7 3.7-.7 4.7-.5z" fill="#fff"/><path d="m1571-2721s.7 9.7-6.6 12.4-10 4.3-11.6 9.9c0 0 3-5.6 7.2-7.1s8.6-1.6 9.7-4.7c0 0-.8 4-8.3 7.4 0 0 7.8-1.8 8.8-3.8.9-1.8 2.5-6.2.8-14.1z" fill="#e6e7e8"/><path d="m1617.8-2721s-.7 9.7 6.6 12.4 10 4.3 11.6 9.9c0 0-3-5.6-7.2-7.1s-8.6-1.6-9.7-4.7c0 0 .8 4 8.3 7.4 0 0-7.8-1.8-8.8-3.8-.9-1.8-2.5-6.2-.8-14.1z" fill="#e6e7e8"/><path d="m1587.3-2542.9-3.1.1 39-64.6 3.9 1.4 1.4 1.7-37 61.5" fill="#65682f"/><path d="m1608.3-2708.7c-.1-.1-.3-.1-.5 0-.6.6-1.5 1.1-2.3 1.6s-1.7.8-2.6 1.2c-.9.3-1.8.6-2.7.9-.5.1-.9.2-1.4.4-.5.1-.9.2-1.4.3-.9.2-1.9.4-2.8.5s-1.9.2-2.8.3-1.9.2-2.8.2c-1 .1-1.9.1-2.9.1-1.9.1-3.8 0-5.7 0s-3.8-.1-5.7-.1-3.9.1-5.7.6c-1.9.5-3.6 1.4-5.1 2.6 1.6-1.1 3.3-2 5.2-2.4s3.8-.5 5.7-.5 3.8.1 5.7.2 3.8.1 5.7.1 3.8-.1 5.8-.2c1-.1 1.9-.2 2.9-.3s1.9-.3 2.8-.5c.5-.1.9-.2 1.4-.3s.9-.2 1.4-.4c.9-.3 1.8-.6 2.8-.9.9-.4 1.8-.7 2.6-1.2.6-.3 1.1-.6 1.6-1-.1.2-.1.3-.2.4-.3.4-.6.8-.9 1.2-.7.7-1.6 1.3-2.5 1.8-1.8 1-3.9 1.7-5.9 2.2-2.1.5-4.1.9-6.2 1.2-1.1.1-2.1.3-3.2.4s-2.1.2-3.2.3l-3.2.2c-1.1.1-2.1.1-3.2.2s-2.1.2-3.2.3l-1.6.2-1.6.2c-1.1.1-2.1.4-3.2.6-1 .2-2.1.5-3.1.8s-2 .6-3 1-2 .9-2.7 1.7c.8-.8 1.8-1.2 2.7-1.6 1-.4 2-.7 3-1s2.1-.5 3.1-.7c1.1-.2 2.1-.4 3.2-.5l1.6-.2 1.6-.2c1.1-.1 2.1-.2 3.2-.3s2.1-.1 3.2-.2l3.2-.2c1.1 0 2.1-.1 3.2-.2s2.1-.2 3.2-.3c2.1-.3 4.2-.6 6.3-1.2 2.1-.5 4.1-1.2 6.1-2.2 1-.5 1.9-1.1 2.7-1.9.4-.4.8-.8 1-1.3.3-.5.5-1 .6-1.7-.1 0-.1-.1-.2-.2z" fill="#e6e7e8"/><path d="m1591.9-2704.9c.9-.1 1.8-.1 2.7-.2l1.3-.1 1.3-.2c.4-.1.9-.1 1.3-.2s.9-.2 1.3-.3l1.3-.3 1.3-.4c.9-.3 1.7-.6 2.6-.9.4-.2.8-.4 1.2-.6s.8-.4 1.2-.7.1-.1.1-.1c.1-.1 0-.3-.1-.4l-.6-.4c-.2-.1-.4-.2-.7-.3-.2-.1-.4-.2-.7-.3-.2-.1-.4-.2-.7-.2-.5-.1-.9-.3-1.4-.3-.5-.1-.9-.2-1.4-.3-.9-.2-1.9-.2-2.8-.3s-1.9-.1-2.8 0c.9 0 1.9.1 2.8.2.5.1.9.1 1.4.2s.9.1 1.4.2.9.2 1.4.3c.4.1.9.2 1.3.4.2.1.4.2.6.2l.6.3.6.3.1.1c-.2.1-.5.2-.7.4-.4.2-.8.4-1.2.5-.8.3-1.7.6-2.5.9l-1.3.4-1.3.3c-.4.1-.9.2-1.3.3s-.9.2-1.3.2c-.9.2-1.8.3-2.6.4-.9.1-1.8.2-2.7.3l-2.7.2c-.9 0-1.8.1-2.7.2.9 0 1.8.1 2.7.1 1.2.1 2.1.1 3 .1z" fill="#e6e7e8"/><path d="m1591.4-2567.1-4-6.1-3.7 6.3 3.9 6z" fill="#9e7525"/><path d="m1576-2590.7-4-6.1-3.7 6.2 4 6z" fill="#9e7525"/><path d="m1564.9-2585.1-3.7 6.1 4 6.2 3.7-6.2z" fill="#9e7525"/><path d="m1561.5-2566.6-4-6-3.7 6.1 1.7 2.5.7-1.1.1 2.5 1.4 2.2z" fill="#9e7525"/><path d="m1584.3-2555.2-3.9-6.2-3.8 6.2 3.9 6.2z" fill="#9e7525"/><path d="m1576.8-2542.8v-.1l-4-6.1-3.7 6.2" fill="#9e7525"/><path d="m1572.8-2572.9-3.7 6.2 3.6 5.4 3.7-6.2z" fill="#9e7525"/><path d="m1568.9-2555.1-3.6-5.5-3.7 6.2 3.6 5.5z" fill="#9e7525"/><path d="m1561.4-2542.8.1-.3-3.5-5.4-.7 1.2.3 4.5" fill="#9e7525"/><path d="m1591.5-2542.8.4-.8-3.7-5.7-3.7 6.2.2.3" fill="#9e7525"/><path d="m1599-2555.4-3.7-5.7-3.7 6.2 3.7 5.8z" fill="#9e7525"/><path d="m1606.4-2567.8-3.7-5.7-3.7 6.2 3.7 5.8z" fill="#9e7525"/><path d="m1614-2580.1-3.8-5.7-3.6 6.2 3.6 5.7z" fill="#9e7525"/><path d="m1621.3-2592.5-3.7-5.7-3.7 6.2 3.7 5.8z" fill="#9e7525"/><path d="m1628.5-2604.3-1.4-1.7-3.9-1.4-2.1 3.6 3.6 5.8z" fill="#9e7525"/><path d="m1606.5-2542.8.2-.4-3.8-6.1-3.7 6.1.2.3" fill="#9e7525"/><path d="m1614.2-2567.7 3.9 6.2 3.7-6.2-3.9-6.1z" fill="#9e7525"/><path d="m1621.7-2580.2 3.9 6.2 3.7-6.2-3.9-6.1z" fill="#9e7525"/><path d="m1636.3-2592.1-3.9-6.1-3.7 6.1 3.9 6.2z" fill="#9e7525"/><path d="m1614.3-2555.4-3.9-6.2-3.7 6.2 3.9 6.2z" fill="#9e7525"/><path d="m1621-2542.8.7-1.3-3.4-5.3-3.7 6.1.3.5" fill="#9e7525"/><path d="m1629.5-2567.9 3.5 5.4 3.7-6.2-3.5-5.4z" fill="#9e7525"/><path d="m1643.9-2580.4-3.6-5.5-3.7 6.2 3.6 5.4z" fill="#9e7525"/><path d="m1583.4-2579.3-3.5-5.4-3.7 6.2 3.5 5.4z" fill="#9e7525"/><path d="m1568.1-2602.8-3-4.7-2.1.5-2.5 4.3 3.9 6z" fill="#9e7525"/><path d="m1561-2591.1-3.9-6.1-3.8 6.2 4 6.1z" fill="#9e7525"/><path d="m1545.9-2578.6 3.9 6.1 3.8-6.2-4-6.1z" fill="#9e7525"/><path d="m1538.6-2566.6 3.9 6.1 3.8-6.2-4-6z" fill="#9e7525"/><path d="m1531.1-2554.2 4 6.1 3.7-6.1-4-6.2z" fill="#9e7525"/><path d="m1531.5-2542.8-3.8-5.9-3.5 5.9" fill="#9e7525"/><path d="m1637.1-2556.7 3.8 6.2 3.7-6.2-3.8-6.1z" fill="#9e7525"/><path d="m1649-2571.9-1.1-2.6-3.7 6.2 3.8 6.1 3-4.9z" fill="#9e7525"/><path d="m1648.6-2550.6-2.4 4c1.3-.6 2.5-1.3 3.6-2.1z" fill="#9e7525"/><path d="m1654-2559.6-2.1 3.5 2.5 3.8s.9-.8 1.8-1.8c0-.2-2.2-5.5-2.2-5.5z" fill="#9e7525"/><path d="m1622-2555.7 3.6 5.5 3-5.1.2-1.9-3.1-4.7z" fill="#9e7525"/><path d="m1641.7-2544.7-2-3.9 1.2-1.9 3.2 4.9z" fill="#877a45"/><path d="m1633-2562.5 4.1 5.8-.9 1.5-3.6-6.8z" fill="#877a45"/><path d="m1578.5-2616.8c0 8.4 16.1 14.9 16.1 14.9s14.2-4.9 14.2-15.6l5.1 7.7c0 5.3-14.9 15.4-14.9 15.4l-4.5-7.5-4.3 8.4s-17-8.6-17-15.9z" fill="#efeff0"/><path d="m1349.6-2730c-15-5.7-32.8-2.4-47.2 11.1s-21.6 48.7-9 69.1-6.3 23.7-6.3 23.7 7.2 3.9 11.7-.9c0 0 .7 9.3-4.2 18.6-6.3 12-3.7 19.4 3.3 36.1 3.3 7.8 11.4 16.8 6.3 20.7l33.1-14.4 35.8-19.8-17.4-14.1-8.1-82.3z" fill="#281d0a"/><path d="m1330.4-2727.3s12-5.4 23.7-5.7 30 8.8 38.4 27.1-2.9 56.1-1.4 62.1 6.3 7.5 8.7 4.8c0 0-1.8 7.5-11.1 3.3 0 0-1.2 4.8 2.1 14.1s3.9 20.5 3.6 30.7c-.6 20.7-21.9 32.2-19.8 36.7s5.4 2.4 5.4 2.4-1.5 4.2-7.2 2.1-8.4-16.5-8.4-16.5l-40.9-.6-4.8-19.8z" fill="#281d0a"/><path d="m1311.4-2574.4s11.5 5.3 17.1 31.7h28.2c6.2-26.1 18.5-31.1 18.5-31.1l16.5 31.1h12.9l-27.9-54.4s2.5-4.4-6.3-7.4c-8.9-3-17.3-8.3-17.3-14.6s0-16.6 0-16.6h-10.7-10.7v16.6c0 6.3-5.5 9.3-14.4 12.2s-10 8.4-10 8.4z" fill="url(#b)"/><path d="m1380.8-2683.4c0 30.7-10.9 55.8-38.9 55.8s-38.3-25.4-38.3-56.1 10.8-33.9 38.8-33.9 38.4 3.5 38.4 34.2z" fill="#caaa6e"/><path d="m1332-2665.5c0 4.2-3.5 7.6-7.7 7.6-4.3 0-7.7-3.4-7.7-7.6s3.5-7.6 7.7-7.6c4.2-.1 7.7 3.4 7.7 7.6z" fill="#c88e2f"/><path d="m1330-2665.5c0 2.9-2.4 5.3-5.3 5.3s-5.3-2.4-5.3-5.3 2.4-5.3 5.3-5.3 5.3 2.3 5.3 5.3z" fill="#3e2c09"/><path d="m1322.4-2668.3c0 .9-.7 1.5-1.5 1.5-.9 0-1.5-.7-1.5-1.5s.7-1.5 1.5-1.5 1.5.7 1.5 1.5z" fill="#fff"/><path d="m1325.2-2646.8c5.3 3.2 10.9 5.2 16.7 5.1 5.8 0 11.3-2.2 16.8-5.1-2 2.4-4.5 4.4-7.4 5.8s-6.1 2.2-9.4 2.3c-3.3 0-6.5-.7-9.4-2.1-2.8-1.5-5.4-3.5-7.3-6z" fill="#3e2c09"/><path d="m1324.9-2651.8c0 4-3.2 7.2-7.2 7.2s-7.2-3.2-7.2-7.2 3.2-7.2 7.2-7.2c3.9 0 7.2 3.2 7.2 7.2z" fill="url(#d)"/><path d="m1370.7-2651.8c0 4-3.2 7.2-7.2 7.2s-7.2-3.2-7.2-7.2 3.2-7.2 7.2-7.2 7.2 3.2 7.2 7.2z" fill="url(#e)"/><path d="m1352.7-2665.5c0 4.2 3.5 7.6 7.7 7.6 4.3 0 7.7-3.4 7.7-7.6s-3.5-7.6-7.7-7.6c-4.3-.1-7.7 3.4-7.7 7.6z" fill="#c88e2f"/><path d="m1354.7-2665.5c0 2.9 2.4 5.3 5.3 5.3s5.3-2.4 5.3-5.3-2.4-5.3-5.3-5.3-5.3 2.3-5.3 5.3z" fill="#3e2c09"/><path d="m1355-2668.3c0 .9.7 1.5 1.5 1.5.9 0 1.5-.7 1.5-1.5s-.7-1.5-1.5-1.5-1.5.7-1.5 1.5z" fill="#fff"/><path d="m1329.2-2614s.9 13.3 13.2 12.9c11.1-.3 13.2-12.6 13.2-12.6" fill="none" stroke="#231c1e" stroke-linecap="round" stroke-miterlimit="10"/><path d="m1296.1-2567.9 12.5-6.5c4 5.5 9.2 20.2 10.6 31.7h45.5c2-9.3 2.5-34.1 2.5-34.1l21.5 34.1h19.5l-36.1-62.5-11.6-5.6s-2 21.2-17.2 22.4c-18.4 1.5-18.4-22.4-18.4-22.4s-16.4 9.6-17.6 10c-1.4.4-11.2 32.9-11.2 32.9z" fill="#fef3f7"/><path d="m1319.9-2610s-12.8 5.2-13 6c-.3 1.3-18.2 30.3-30.9 51 5.1 5.1 11.7 8.7 19.2 9.9l14.7-23.6s4.6 15.8 6.3 24h20.9l.5-41.7c-16.1-1.2-17.7-25.6-17.7-25.6z" fill="#687167"/><path d="m1367.6-2542.7c1.1-8.2 4.2-23.8 4.2-23.8l14.8 23.8h22.8c-11.4-21.4-32.7-61.4-33-62.9l-12.4-4.4s-1.6 24.4-17.6 25.6l.5 41.7z" fill="#687167"/><path d="m1352-2542.7-.5-37.3c2-.6 16-5.4 17.7-26.7 0-.2-.1-.3-.3-.3-.1 0-.3.1-.3.3-1.8 22.3-17.3 26.1-17.5 26.2l-.2.1.5 37.8h.6z" fill="#fff"/><path d="m1359-2542.7-1.5-40.1h-.6l1.5 40.1z" fill="#fef3f7"/><path d="m1332.2-2580.1-.5 37.3h.6l.5-37.8-.2-.1c-.2 0-15.7-3.8-17.5-26.2 0-.2-.2-.3-.3-.3-.2 0-.3.2-.3.3 1.6 21.4 15.6 26.3 17.7 26.8z" fill="#fff"/><path d="m1326.9-2582.8h-.6l-1.5 40.1h.6z" fill="#fef3f7"/><path d="m1337.9-2609.2c-.3 0-.6-.3-.6-.6" fill="#fffeef" opacity=".2"/><path d="m1348.4-2610.9c0-.3-.3-.6-.6-.6s-.6.3-.6.6" fill="#caaa6e"/><path d="m1342.2-2589.1c2.4 0 3.2-1.6 3.2-3.4 0-2-1.9-4.6-2.5-6.4-.5-1.4-.6-2.1-.6-2.1s-.1.5-.6 1.9c-.7 1.9-2.7 4.9-2.6 6.9 0 1.7.8 3.1 3.1 3.1z" fill="#542f82"/><circle cx="1342.2" cy="-2600.9" fill="#542f82" r=".7" stroke="#231f20" stroke-miterlimit="10"/><path d="m1342.5-2597.3c-.9.9-2.3 4.6-1.7 6.2.6 1.5 2.3 1.5 2.9 1.1s1.3-1.3.9-3.3-1.4-3.6-1.7-3.8c-.1-.3-.2-.4-.4-.2z" fill="#6f2c87"/><circle cx="1340.4" cy="-2591" fill="#fff" r=".6"/><circle cx="1341.6" cy="-2590.2" fill="#fff" r=".3"/><path d="m1348.5-2594.8c1.6 0 2.2-1.1 2.1-2.3 0-1.3-1.3-3.1-1.7-4.3-.4-.9-.4-1.4-.4-1.4s0 .4-.4 1.3c-.5 1.3-1.8 3.3-1.8 4.7.2 1.1.7 2 2.2 2z" fill="#542f82"/><circle cx="1348.5" cy="-2602.8" fill="#542f82" r=".5" stroke="#231f20" stroke-miterlimit="10"/><path d="m1348.8-2600.3c-.6.6-1.6 3.1-1.1 4.2.4 1 1.6 1 2 .8s.9-.9.6-2.2c-.3-1.4-1-2.4-1.1-2.6-.2-.3-.3-.4-.4-.2z" fill="#6f2c87"/><circle cx="1347.4" cy="-2596.1" fill="#fff" r=".4"/><circle cx="1348.2" cy="-2595.6" fill="#fff" r=".2"/><path d="m1335.8-2594.4c1.6 0 2.2-1.1 2.1-2.3 0-1.3-1.3-3.1-1.7-4.3-.4-.9-.4-1.4-.4-1.4s0 .4-.4 1.3c-.5 1.3-1.8 3.3-1.8 4.7.2 1 .7 2 2.2 2z" fill="#542f82"/><circle cx="1335.8" cy="-2602.5" fill="#542f82" r=".5" stroke="#231f20" stroke-miterlimit="10"/><path d="m1336.1-2600c-.6.6-1.6 3.1-1.1 4.2.4 1 1.6 1 2 .8s.9-.9.6-2.2-1-2.4-1.1-2.6-.3-.3-.4-.2z" fill="#6f2c87"/><circle cx="1334.7" cy="-2595.7" fill="#fff" r=".4"/><circle cx="1335.5" cy="-2595.2" fill="#fff" r=".2"/><path d="m1331.5-2601.8c.9 0 1.2-.6 1.2-1.3 0-.8-.7-1.8-1-2.5-.2-.5-.2-.8-.2-.8s0 .2-.2.8c-.3.8-1.1 1.9-1 2.7 0 .5.3 1.1 1.2 1.1z" fill="#542f82"/><path d="m1331.7-2605c-.3.3-.9 1.8-.6 2.4s.9.6 1.1.4.5-.5.4-1.3-.6-1.4-.6-1.5c-.2-.1-.3-.1-.3 0z" fill="#6f2c87"/><circle cx="1330.8" cy="-2602.6" fill="#fff" r=".2"/><circle cx="1331.3" cy="-2602.3" fill="#fff" r=".1"/><path d="m1352.7-2601.8c.9 0 1.2-.6 1.2-1.3 0-.8-.7-1.8-1-2.5-.2-.5-.2-.8-.2-.8s0 .2-.2.8c-.3.8-1.1 1.9-1 2.7 0 .5.3 1.1 1.2 1.1z" fill="#542f82"/><path d="m1352.8-2605c-.3.3-.9 1.8-.6 2.4s.9.6 1.1.4.5-.5.4-1.3-.6-1.4-.6-1.5c-.1-.1-.2-.1-.3 0z" fill="#6f2c87"/><circle cx="1352" cy="-2602.6" fill="#fff" r=".2"/><circle cx="1352.5" cy="-2602.3" fill="#fff" r=".1"/><path d="m1356.5-2695.3s4.8-1.2 8.7 2.1 5.4 13.8-1.5 15.6c0 0 10.8 1.8 11.9-10.7 1.1-12.3-17.6-14.5-19.1-7z" fill="#3a2c1c"/><path d="m1353.3-2717 3.2 21.7s6.6-1.8 12 .3 10.5 6.5 4 22.8c-4 10-10.2 32.9-3.4 46.2 5.7 11.1 19 4.3 19 4.3s-13.6 3.8-12.4-7.3 28.9-64.6 4.4-85.6c-12.8-11-26.8-2.4-26.8-2.4z" fill="#3a2c1c"/><path d="m1354.8-2716.6 1.7 21.3s-6.3-7.8-15.9-1.8-5.4 19.7-26.4 22.7c0 0-1.2 20.1-13.2 21.9s-15.9-3.9-15.9-3.9 5.1 3.9 11.7-3.3-1.5-37 12.3-54.7c13.7-17.7 43.3-10 45.7-2.2z" fill="#3a2c1c"/><path d="m1356.5-2695.3c-.7-3-2.8-5.4-5.4-6.8-1.3-.7-2.7-1.2-4.1-1.6-1.4-.3-2.9-.5-4.4-.6-3-.1-6 .1-8.8 1-1.4.4-2.7 1-4 1.8-1.2.8-2.3 1.7-3.3 2.8-1.9 2.1-3.1 4.9-3.8 7.7-.2.7-.3 1.4-.4 2.2-.1.7-.1 1.5-.3 2.3-.2 1.6-.7 3.1-1.4 4.6-1.3 2.9-3.6 5.4-6.6 6.6-1.5.6-3.1.9-4.6.8-.8 0-1.6-.2-2.3-.4s-1.5-.5-2.2-.8c1.4.5 3 .8 4.5.7s3-.4 4.3-1.1c2.6-1.3 4.6-3.7 5.7-6.4.6-1.4.9-2.8 1.1-4.2.1-.7.1-1.4.2-2.2s.2-1.6.3-2.3c.6-3.1 1.9-6.1 4.1-8.6 1.1-1.2 2.3-2.2 3.7-3.1 1.4-.8 2.9-1.5 4.4-1.9 3.1-.9 6.3-1 9.4-.7s6.3 1.1 8.9 2.8c2.7 1.5 4.7 4.3 5 7.4z" fill="#745b45"/><path d="m1358.4-2696.2c1.1-1.4 2.7-2.4 4.4-3.1s3.5-1.1 5.3-1.1c1.8-.1 3.7.1 5.4.6 1.8.5 3.5 1.4 4.9 2.6 1.5 1.2 2.6 2.8 3.3 4.6s1 3.7.9 5.5c0 1.9-.4 3.7-.8 5.5-.2.9-.5 1.8-.8 2.6l-.9 2.5c-2.3 6.7-4.5 13.5-6.6 20.3-1 3.4-2 6.8-2.9 10.2-.4 1.7-.8 3.4-1.1 5.2-.2.9-.3 1.7-.3 2.6s-.1 1.8.3 2.6c-.4-.8-.5-1.7-.5-2.6s0-1.8.1-2.7c.2-1.8.5-3.6.8-5.3.7-3.5 1.5-7 2.4-10.4 1.8-6.9 4-13.7 6.2-20.4.5-1.7 1.2-3.4 1.7-5 .5-1.7.8-3.3.8-5s-.1-3.4-.7-4.9c-.6-1.6-1.5-3-2.7-4.1s-2.7-2-4.4-2.5c-1.6-.5-3.3-.8-5.1-.9-1.7-.1-3.5.2-5.1.7-.8.3-1.6.6-2.4 1.1-.8.3-1.6.8-2.2 1.4z" fill="#745b45"/><path d="m1357.6-2701.4c-.2-1.7-.6-3.4-1.2-5.1-.6-1.6-1.3-3.2-2.2-4.7-.9-1.4-2-2.8-3.3-3.9s-2.7-2-4.3-2.6-3.2-1-4.9-1.1c-1.7-.2-3.4-.1-5 .1-3.3.5-6.5 1.8-9.1 3.9s-4.7 4.8-6.1 7.9c-1.5 3-2.5 6.3-3 9.7-.1.8-.2 1.7-.4 2.6-.1.9-.2 1.8-.5 2.6-.4 1.7-1.1 3.5-2.3 4.9s-2.9 2.4-4.6 2.7c-1.8.3-3.6 0-5.2-.6 1.7.4 3.5.5 5.1.1s3.1-1.4 4-2.7c1-1.3 1.5-2.9 1.8-4.6.2-.8.3-1.7.3-2.5.1-.9.1-1.8.2-2.6.4-3.5 1.4-7 2.9-10.3 1.6-3.2 3.7-6.2 6.6-8.5s6.4-3.7 10-4.1c1.8-.2 3.6-.2 5.4 0s3.6.7 5.2 1.4c1.7.7 3.2 1.8 4.5 3s2.4 2.7 3.2 4.3 1.5 3.2 1.9 4.9c.7 1.7 1 3.4 1 5.2z" fill="#745b45"/><path d="m1499.8-2696.4s-11.2-21.7-46.9-14.3-46.1 42.2-44.9 62.4c1.2 20.1 5.7 32.1 15 46.1 9.2 13.8 5.2 22.8-1.8 25.2 0 0 39.9 28.3 81.3.4 0 0-10.1-3.1-8.9-11.2s15.9-18.2 24.8-35.3c9-17.2 12.8-65.2-18.6-73.3z" fill="#4c360d"/><path d="m1431.3-2549 63.4-5.2s10.3-7.6 9.4-9c-1.2-2-2.8-6.5-5.6-6.4-6 .2-23.4-10.6-23.3-16.4.2-6.7 0-17.6 0-17.6h-22.5v17.6c0 6.7-9 12.4-18.4 15.5s-14.4 6.7-14.4 6.7z" fill="url(#g)"/><path d="m1509.3-2654.7c0 32.7-15.4 59.5-45.2 59.5s-46.4-27.1-46.4-59.8 17.1-36 46.9-36 44.7 3.6 44.7 36.3z" fill="#f4d89a"/><path d="m1446.3-2615.7c5.6 3.4 11.6 5.5 17.8 5.4 6.1 0 12-2.4 17.9-5.4-2.1 2.5-4.8 4.6-7.9 6.1-3 1.5-6.5 2.4-10 2.4s-6.9-.8-10-2.3c-3.1-1.3-5.9-3.4-7.8-6.2z" fill="#c42c76"/><path d="m1491.9-2680.9s-1.4 10.2 4.2 25.4c6.1 16.6 12.7 22.8 18.9 18.4 0 0-6.7 2.3-4.8-4.8 2.5-9.7 7.7-26-.1-37.3-6.7-9.6-13.9-8.1-13.9-8.1s-5.8-19.8-32.1-20c-37.7-.4-63.6 47.1-44 79.9 0 0-6.4-25.2 7-26.7 13.4-1.6 61.2-18.3 64.8-27.5" fill="#5f3f12"/><path d="m1493.6-2678.3s-5 9.7-21.7 17.9c-13.3 6.5-28.6 7.5-43.3 7.2 0 0-5 8.5-4.6 22.5.4 13.9 7.4 28.7 7.4 28.7s-27.5-41.4-6-75c25.1-39.2 64.3-19.9 70.3-8.3.1-.1.2 3.7-2.1 7z" fill="#754b1d"/><path d="m1491.6-2686.5c-4.5-1.6-9.2-2.7-13.8-3.6-4.6-.8-9.3-1.3-13.9-1.1-9.3.1-18.4 2.8-26.7 7.6 3.4-3.4 7.6-6.1 12.2-7.9s9.5-2.7 14.4-2.9c9.9-.1 19.7 2.6 27.8 7.9z" fill="#a26527"/><path d="m1506.1-2656.7c-1.6-2-2.9-4.2-4.1-6.4-1.2-2.3-2.1-4.6-2.8-7.1-1.4-4.9-3-15.1-3-15.1s7.8 2.1 10.9 7.9 2.9 12.4 2.9 12.4-1.7-5.9-4.3-9.9-5.1-4.7-6.2-5.8c0 0 1 6.1 1.9 10.8 1 4.8 2.8 8.5 4.7 13.2z" fill="#a26527"/><path d="m1445.9-2621c0 4.2-3.4 7.6-7.6 7.6s-7.6-3.4-7.6-7.6 3.4-7.6 7.6-7.6c4.1 0 7.6 3.4 7.6 7.6z" fill="url(#i)"/><path d="m1494.7-2621c0 4.2-3.4 7.6-7.6 7.6s-7.6-3.4-7.6-7.6 3.4-7.6 7.6-7.6 7.6 3.4 7.6 7.6z" fill="url(#j)"/><path d="m1453.5-2635.6c0 4.5-3.7 8.1-8.2 8.1s-8.2-3.6-8.2-8.1 3.7-8.1 8.2-8.1 8.2 3.6 8.2 8.1z" fill="#00ade9"/><path d="m1451.4-2635.6c0 3.1-2.5 5.7-5.7 5.7-3.1 0-5.7-2.5-5.7-5.7 0-3.1 2.5-5.7 5.7-5.7 3.1 0 5.7 2.6 5.7 5.7z" fill="#234471"/><path d="m1443.3-2638.5c0 .9-.7 1.6-1.6 1.6s-1.6-.7-1.6-1.6.7-1.6 1.6-1.6c.9-.1 1.6.7 1.6 1.6z" fill="#fff"/><path d="m1475.5-2635.6c0 4.5 3.7 8.1 8.2 8.1s8.2-3.6 8.2-8.1-3.7-8.1-8.2-8.1-8.2 3.6-8.2 8.1z" fill="#00ade9"/><path d="m1477.6-2635.6c0 3.1 2.5 5.7 5.7 5.7 3.1 0 5.7-2.5 5.7-5.7 0-3.1-2.5-5.7-5.7-5.7-3.1 0-5.7 2.6-5.7 5.7z" fill="#234471"/><path d="m1477.9-2638.5c0 .9.7 1.6 1.6 1.6s1.6-.7 1.6-1.6-.7-1.6-1.6-1.6c-.8-.1-1.6.7-1.6 1.6z" fill="#fff"/><circle cx="1464.4" cy="-2575.2" fill="#00ade9" r="3"/><circle cx="1465.5" cy="-2575.9" fill="#fffeef" opacity=".2" r=".8"/><circle cx="1458.8" cy="-2575.7" fill="#00ade9" r="2.6"/><circle cx="1459.7" cy="-2576.3" fill="#fffeef" opacity=".2" r=".7"/><circle cx="1454.2" cy="-2577.2" fill="#00ade9" r="2.3"/><circle cx="1455" cy="-2577.8" fill="#fffeef" opacity=".2" r=".6"/><circle cx="1450.9" cy="-2580.1" fill="#00ade9" r="2"/><circle cx="1451.6" cy="-2580.6" fill="#fffeef" opacity=".2" r=".5"/><circle cx="1469.9" cy="-2576.2" fill="#00ade9" r="2.6"/><circle cx="1470.3" cy="-2577.4" fill="#fffeef" opacity=".2" r=".7"/><circle cx="1474.6" cy="-2577.8" fill="#00ade9" r="2.3"/><circle cx="1474.5" cy="-2579" fill="#fffeef" opacity=".2" r=".6"/><circle cx="1477.9" cy="-2580.7" fill="#00ade9" r="2"/><circle cx="1477.7" cy="-2581.7" fill="#fffeef" opacity=".2" r=".5"/><path d="m1473.4-2542.8 5.5-10.7h-30.6l7.8 10.7z" fill="#c42c76"/><path d="m1462.7-2542.7c-4.2-8.4-13.1-27-14.2-35.4-3.5 3.1-6.2 4.3-11.6 6.1-2.7.9-9 2.3-13.9 4.4-3.2 1.4-10.6 15.4-15.4 25h55.1z" fill="#f99d1c"/><path d="m1522.5-2542.7c-7.4-10.7-16.2-23.1-17-24.6-1.7-3.1-9.1-4-11.8-5-5.4-2-7.5-2.3-12.3-5.7-2.8 10-10.8 27.4-14.5 35.3z" fill="#f99d1c"/><path d="m617.1 290.8c0 6.6-13.5 43.2-30.1 43.2s-30.1-36.6-30.1-43.2c0-1.7 14.9-4.7 29.9-4.7 15.1 0 30.3 2.8 30.3 4.7z" fill="#afb1b4"/><path d="m667.6 334.2s-2.5-12.2-22.2-18.8-34.8-13.3-34.8-27.3 0-36.9 0-36.9h-23.8-23.8v36.9c0 14-15 20.7-34.8 27.3-19.7 6.6-22.2 18.8-22.2 18.8l12.1 53.4h137.6z" fill="#bfa573"/><path d="m672.8 144.8c0 68.4-24.3 124.3-86.7 124.3s-85.5-56.5-85.5-125c0-68.4 58.1-82.2 86.5-82.2s85.7 14.5 85.7 82.9z" fill="#d0b37d"/><path d="m555.3 228c9.4 5.7 19.6 6.6 29.8 6.4 10.3 0 20.2-1.3 30-6.4-3.6 4.3-13.8 11.7-30 11.7s-26.5-7.2-29.8-11.7z" fill="#494032"/><path d="m565.7 188.5c0 9.4-7.7 17-17.2 17s-17.2-7.6-17.2-17 7.7-17 17.2-17 17.2 7.6 17.2 17z" fill="#896b4e"/><path d="m561.3 188.5c0 6.6-5.3 11.9-11.9 11.9s-11.9-5.3-11.9-11.9c0-6.5 5.3-11.9 11.9-11.9 6.5.1 11.9 5.4 11.9 11.9z" fill="#2a1d01"/><path d="m544.4 182.4c0 1.9-1.5 3.4-3.4 3.4s-3.4-1.5-3.4-3.4 1.5-3.4 3.4-3.4c1.8-.1 3.4 1.5 3.4 3.4z" fill="#fff"/><path d="m607.8 188.5c0 9.4 7.7 17 17.2 17s17.2-7.6 17.2-17-7.7-17-17.2-17-17.2 7.6-17.2 17z" fill="#896b4e"/><path d="m612.2 188.5c0 6.6 5.3 11.9 11.9 11.9s11.9-5.3 11.9-11.9c0-6.5-5.3-11.9-11.9-11.9-6.6.1-11.9 5.4-11.9 11.9z" fill="#2a1d01"/><path d="m612.9 182.4c0 1.9 1.5 3.4 3.4 3.4s3.4-1.5 3.4-3.4-1.5-3.4-3.4-3.4c-1.9-.1-3.4 1.5-3.4 3.4z" fill="#fff"/><path d="m673.1 323.1s-1.1-2.4-7.6-5.4c-9-4.1-9.1-3.9-41.6-15.4l-37.3 27.9-37.3-27.9c-32.5 11.5-32.6 11.3-41.6 15.4-6.5 3-7.6 5.4-7.6 5.4l-34.7 91.2h42.5l8.8-18.8 1.4 18.8h136.9l1.4-18.8 8.8 18.8h1.5c13.7 0 26.3-4.3 36.8-11.3z" fill="#00b4ac"/><path d="m556.9 290.7c.9 10.7 30.1 39.3 30.1 39.3l-15.9 23.4s-28-33.1-28-49.1z" fill="#f4f4f4"/><path d="m617.1 290.7c-.9 10.7-30.1 39.3-30.1 39.3l15.9 23.4s28-33.1 28-49.1z" fill="#f4f4f4"/><path d="m675.4 118.3c-.6-2.8-1.3-5.5-2.1-8.1-.7-2.5-1.6-8.1-1.6-8.1s-1.4-.3-1.7-.9c-.7-1.5-1.3-6.2-1.3-6.2s-4.4-3.8-6.6-6.4c-1.5-1.8-6.2-7.5-6.2-7.5l-2.1.2-5.7-4s-2.7-4.5-4.5-6c-.7-.6-2.3.7-3 .1-1.1-.9-3.4-2.6-3.4-2.6l-2.6-3.3-7.6-2s-1.7-1.4-2.7-1.5c-1.8-.3-5.7.5-5.7.5l-2.1-1.9-6.9.9-4.9-2.5-2 1.5-4.6-.6s-1.9-1.1-2.7-1.2c-1.4-.1-4 .5-4 .5s-3.4-1.1-4.7-1.1c-2.3 0-8.7 1.6-8.7 1.6l-3.1-.5-5.2 1.7s-2.7-.5-4-.3c-1.5.3-4.3 1.7-4.3 1.7l-4.8.1-2.1.9-4.3-.6-3.4 1.6s-2-.2-2.9.2c-.4.2-1.1-.4-1.1-.4l-4.8 3.7-4 2.9h-2.1s-1.3 2.6-2.3 3.5c-1.3 1.1-4.4 2.1-5.7 3-.9.6-.1 1.4-1.2 2.1-.5.3-2.7.7-3.2 1-.7.5.3 1.1-.4 1.6-2.9 2.2-5.6 4.4-7.4 6.6-1.2 1.4-2.3 2.8-3.3 4.3-2 3-3.7 6.1-5.1 9.3-.5 1.2-1 2.4-1.5 3.7-1.4 4-2.6 8.1-3.5 12.4-1.4 6.3-.3 12.9-.5 19.7-1.4 40.8 10.2 64 10.2 64 8.4-6.2-2.3-57.2 23.3-74 8.1-5.4 50.9-5.9 55.8-5.9s47.4.6 55.5 5.9c25.5 16.9 14.9 67.8 23.3 74 0 0 11.6-23.2 10.2-64-.4-6.7.7-13.3-.7-19.6z" fill="#272524"/><path d="m665.8 174s-1.6-2.6-2.1-8c-1.3-13.9-4.3-39.7-9.7-44.1-7.5-6.2-22.2-2.7-25.9-2.8s-16.7-3.5-19.6-7.4c0 0-11.9 4.1-21.8 4.1-10 0-15.7-3.9-15.7-3.9s-9.7 5-12.8 5-7.8-2.4-7.8-2.4-.5 2.7-3.7 4.2c-5.8 2.6-20.3-.8-23.1 2.9s-11.5 13.8-12 31.8-4.2-1.9-4.2-3.7 2.3-28.2 3.4-29.1 5.2-3.1 5.2-3.1-5.3-10.2 3.4-18c2.5-2.2 14.4 0 14.4 0s-1.2-14.3 3.6-16.6 11 2.7 17.8-.6c10.8-5.3 15.1 9.3 18.8 6.7s5-15.4 14-10.7c17.7 9.4 10.6-.2 22.9 1.5 12.3 1.6 8 7.4 17 12.5 9.3 5.3 16.4 1.3 19.2 4.2s3.4 14.4 14.8 19c11.4 4.5 4.7 45.8 5.2 48.7.6 2.8 1.1 9.8-1.3 9.8z" fill="#393735"/><path d="m568.7 109.2s-8.6 5.4-11.9 5.3-7.9-6.2-8.3-13.1c0 0 4.4 9 6.9 9.6s2.2-5.4 4.4-4.3 4 1.9 5.1 1.3c3-1.7-1.3-23.3-8.1-34.3.1 0 16.9 26.8 11.9 35.5z" fill="#4f4c49"/><path d="m609.4 94.1s-.4 14.3-5.4 14.9c-5.1.6 0-41.9 0-41.9s-4.2 27.6-4.4 31.1-2.2 5.3-3.5 5.4c-1.2.1.2 5.4-1.2 6.2-1.5.7-5.7 1.7-6.8-4.3 0 0-.2 6 4.2 6.9s14.7-1.4 16.4-3.3c1.7-2.1 1.8-11.1.7-15z" fill="#4f4c49"/><path d="m529.1 115.2c2.1-.1 4.2-.1 6.3-.1h6.2c1 0 2-.1 2.9-.3.8-.1 1.3-.7 1.6-1.5.2-.8.3-1.8.1-2.8-.1-1-.3-2-.6-3 .7.8 1.1 1.8 1.5 2.8.3 1 .6 2.1.4 3.4-.1.6-.3 1.2-.8 1.7-.2.2-.5.5-.8.7s-.6.3-.9.4c-1.2.3-2.2.4-3.3.5-2.1.1-4.2-.1-6.3-.4-2.2-.4-4.3-.8-6.3-1.4z" fill="#4f4c49"/><path d="m615.2 84.5c-.4 4.8-.7 9.6-.7 14.3 0 2.4 0 4.7.3 7.1.1 1.2.3 2.3.6 3.4s.7 2.2 1.3 2.9c.3.3.7.7 1.2 1 .4.3.9.6 1.4.8 1 .4 2 .5 3 .3.5-.1 1.1-.2 1.6-.4.6-.2 1.2-.4 1.9-.4h.6c.2 0 .4.1.6.2s.4.2.5.3.3.3.4.4c.3.3.5.7.6 1s0 .2.2.3c.3.2 1 .2 1.5.3.6 0 1.2.1 1.7.1 1.1 0 2.3-.1 3.4-.4 2.2-.6 4.4-1.7 6.3-3.2-1.7 1.7-3.7 3.1-6 4-1.2.4-2.4.7-3.7.8-.6 0-1.2 0-1.8 0s-1.2 0-2-.3c-.2-.1-.4-.2-.6-.4-.1-.1-.2-.2-.2-.3l-.1-.3c-.1-.3-.2-.4-.3-.5s-.1-.1-.2-.2-.2-.1-.3-.1-.1-.1-.2-.1-.2 0-.3 0c-.9.1-2.1.7-3.4 1s-2.8.1-4-.4c-.6-.2-1.2-.6-1.7-1s-1-.8-1.5-1.3c-.9-1.1-1.3-2.4-1.6-3.6s-.5-2.5-.6-3.7c-.2-2.4-.2-4.9 0-7.3.3-4.8 1-9.6 2.1-14.3z" fill="#4f4c49"/><path d="m602.8 354.4-15.8-23.3-15.8 23.4-.5-.6c-1.1-1.3-27.7-33-28.1-49.1.5-.3 1-.8 1-.8.1.1.2.3.2.4 0 14.3 23.5 43.4 27.3 48l15.5-22.9.4.4.5-.4 15.5 22.9c3.8-4.6 27.3-33.7 27.3-48 0-.2.2-.4.2-.4s.4.5 1 1c-.6 16.1-27 47.6-28.1 48.9z" fill="#dbdcdd"/><path d="m228.7 334.1s-2.5-12.2-22.2-18.7c-19.7-6.6-34.7-13.2-34.7-27.2s0-36.8 0-36.8h-23.8-23.8v36.8c0 14-15 20.7-34.7 27.2-19.7 6.6-22.2 18.7-22.2 18.7l12 53.3h137.2z" fill="url(#k)"/><circle cx="119.8" cy="301.5" fill="#f4e6ed" r="4.4"/><circle cx="119" cy="299.4" fill="#fff" r="1.1"/><circle cx="127" cy="306.6" fill="#f4e6ed" r="4.4"/><circle cx="126.3" cy="304.4" fill="#fff" r="1.1"/><circle cx="135.3" cy="309.9" fill="#f4e6ed" r="4.4"/><circle cx="134.5" cy="308" fill="#fff" r="1.1"/><circle cx="153" cy="311.1" fill="#f4e6ed" r="4.4"/><circle cx="152.3" cy="309.2" fill="#fff" r="1.1"/><circle cx="144.1" cy="311.2" fill="#f4e6ed" r="4.4"/><circle cx="143.7" cy="308.9" fill="#fff" r="1.1"/><path d="m231.7 335.8s-1.2-12.2-14.1-18.5c-12.8-6.3-28.2-8.7-28.2-8.7s-3.2 32.8-42.1 32.8c-38.8-.1-42.1-32.8-42.1-32.8s-15.3 2.4-28.2 8.7c-12.8 6.2-14 18.5-14 18.5-13.5 18.6-27.5 42.3-39.4 63.8 10.9 9 24.8 14.4 39.9 14.6l14.7-19.9 3.9 20h130.3l3.9-20 14.7 20h48c-13.2-24.9-30.7-55.6-47.3-78.5z" fill="#cc92b0"/><circle cx="161.8" cy="309.9" fill="#f4e6ed" r="4.4"/><circle cx="161.1" cy="308" fill="#fff" r="1.1"/><circle cx="170.1" cy="306.6" fill="#f4e6ed" r="4.4"/><circle cx="169.3" cy="304.7" fill="#fff" r="1.1"/><circle cx="177.3" cy="301.5" fill="#f4e6ed" r="4.4"/><circle cx="176.5" cy="299.6" fill="#fff" r="1.1"/><g fill="#ddb6cc"><path d="m97.9 345.4c-1.2 0-2.5.2-3.7.5.7-.6 1.5-1.4 2.1-2 1.9-2.2 1.5-3.3.6-4.1s-2-1-3.9 1.3c-.5.6-1.1 1.4-1.6 2.2-.1-1-.2-2-.4-2.9-.7-2.9-1.7-3.2-2.9-2.9s-2 1.1-1.3 3.9c.2 1 .6 2 1 3-.9-.6-1.8-1.1-2.6-1.5-2.7-1.2-3.6-.6-4.1.5s-.4 2.2 2.3 3.4c.9.4 1.9.7 2.9 1-1 .3-2 .7-2.8 1.1-2.6 1.3-2.7 2.4-2.2 3.5s1.5 1.7 4.1.4c.8-.4 1.7-.9 2.5-1.5-.3.9-.6 1.9-.8 2.8-.5 2.9.3 3.6 1.5 3.9 1.2.2 2.2-.2 2.7-3.1.2-1 .3-2.2.3-3.3.6.9 1.3 1.9 2 2.7 2 2.2 3.1 2 4 1.2s1.2-1.9-.8-4.1c-.5-.6-1.2-1.2-1.9-1.8 1.1.2 2.2.3 3.2.2 2.9-.1 3.5-1 3.5-2.2-.1-1.3-.7-2.2-3.7-2.2zm-6.8 3.6c-1 .2-2-.4-2.2-1.4s.4-2 1.4-2.2 2 .4 2.2 1.4c.3 1-.3 2-1.4 2.2z"/><path d="m105.6 374.4c-1.3 0-2.8.2-4.1.5.8-.7 1.6-1.5 2.3-2.3 2.1-2.5 1.7-3.7.7-4.6s-2.3-1.1-4.4 1.4c-.6.7-1.2 1.6-1.8 2.5-.1-1.1-.2-2.3-.5-3.3-.7-3.2-1.9-3.6-3.2-3.3s-2.2 1.2-1.4 4.4c.2 1.1.6 2.2 1.1 3.3-1-.6-2-1.2-3-1.7-3-1.4-4-.6-4.6.6-.5 1.2-.4 2.5 2.6 3.8 1 .4 2.1.8 3.2 1.1-1.1.3-2.2.8-3.2 1.2-2.9 1.5-3.1 2.7-2.5 3.9s1.6 1.9 4.6.4c.9-.4 1.9-1 2.8-1.7-.4 1-.7 2.2-.9 3.1-.6 3.2.4 4.1 1.7 4.3s2.5-.2 3.1-3.5c.2-1.1.3-2.4.3-3.7.7 1.1 1.4 2.1 2.2 3 2.2 2.4 3.4 2.2 4.4 1.3s1.3-2.1-.9-4.5c-.6-.7-1.3-1.3-2.1-2 1.2.2 2.5.3 3.6.3 3.3-.1 3.9-1.1 3.9-2.5 0-1-.6-2-3.9-2zm-7.6 4c-1.1.3-2.2-.4-2.5-1.6-.3-1.1.4-2.2 1.6-2.5s2.2.4 2.5 1.6c.2 1.1-.5 2.3-1.6 2.5z"/><path d="m107.4 401.5c-.6.6-1.2 1.4-1.8 2.1.1-.7.1-1.5.1-2.1-.1-2.2-.8-2.6-1.7-2.5-.9 0-1.6.5-1.5 2.7 0 .6.1 1.3.3 2-.5-.5-1.1-1-1.7-1.4-1.8-1.2-2.6-.9-3-.1-.5.7-.5 1.6 1.3 2.8.6.4 1.3.8 2 1.1-.8.1-1.5.3-2.2.5-2.1.7-2.2 1.5-2 2.3.3.8.9 1.4 3 .7.7-.2 1.4-.5 2-.9-.4.7-.7 1.4-1 2-.8 2-.3 2.7.6 3 .8.3 1.6.2 2.4-1.9.2-.6.4-1.3.6-2 .3.7.6 1.3 1 1.9 1.2 1.8 2 1.8 2.7 1.3s1.1-1.2-.1-3c-.4-.6-.9-1.3-1.5-1.9.8.2 1.6.4 2.4.4 2.2.2 2.7-.5 2.7-1.4.1-.9-.3-1.6-2.5-1.8-.6 0-1.2-.1-1.9 0 .7-.4 1.3-1 1.8-1.5 1.6-1.5 1.4-2.3.8-2.9-.4-.7-1.2-.9-2.8.6zm-1.9 5.4c-.4.6-1.3.8-1.9.4s-.8-1.3-.4-1.9 1.3-.8 1.9-.4c.7.4.9 1.3.4 1.9z"/><path d="m129.5 358.2c-.9 0-1.9.1-2.9.4.6-.5 1.2-1.1 1.6-1.6 1.5-1.8 1.2-2.6.5-3.2s-1.6-.7-3.1 1c-.4.5-.9 1.1-1.2 1.7-.1-.8-.2-1.6-.3-2.3-.5-2.2-1.4-2.5-2.3-2.3s-1.5.8-1 3.1c.2.7.5 1.6.8 2.3-.7-.5-1.4-.9-2.1-1.2-2.1-1-2.8-.5-3.2.4-.4.8-.3 1.7 1.8 2.7.7.3 1.5.6 2.2.8-.8.2-1.6.5-2.2.9-2.1 1-2.1 1.9-1.7 2.7s1.2 1.3 3.2.3c.6-.3 1.3-.7 1.9-1.2-.3.7-.5 1.5-.6 2.2-.4 2.3.3 2.8 1.2 3s1.7-.1 2.1-2.4c.1-.8.2-1.7.2-2.6.5.7 1 1.5 1.5 2.1 1.5 1.7 2.4 1.5 3.1.9s.9-1.5-.6-3.2c-.4-.5-.9-.9-1.5-1.4.8.1 1.7.2 2.5.2 2.3 0 2.7-.8 2.7-1.7.2-.9-.3-1.6-2.6-1.6zm-5.3 2.8c-.8.2-1.6-.3-1.8-1.1s.3-1.6 1.1-1.8 1.6.3 1.8 1.1c.2.9-.3 1.6-1.1 1.8z"/><path d="m139.1 386.6c-1.4 0-3 .2-4.4.6.9-.8 1.8-1.6 2.4-2.4 2.3-2.7 1.8-4 .8-4.9-1.1-.9-2.4-1.1-4.7 1.5-.6.8-1.3 1.7-1.9 2.6-.1-1.2-.3-2.4-.5-3.5-.8-3.4-2.1-3.8-3.5-3.5s-2.3 1.3-1.5 4.7c.3 1.1.7 2.4 1.2 3.6-1-.7-2.1-1.3-3.2-1.8-3.2-1.5-4.3-.7-4.9.6s-.4 2.6 2.8 4.1c1 .5 2.2.9 3.4 1.2-1.2.4-2.4.8-3.4 1.3-3.2 1.6-3.3 2.9-2.6 4.2.6 1.3 1.8 2 4.9.4 1-.5 2-1.1 2.9-1.8-.4 1.1-.7 2.3-.9 3.4-.6 3.5.4 4.3 1.8 4.6s2.7-.2 3.3-3.7c.2-1.2.3-2.6.3-3.9.7 1.1 1.5 2.3 2.4 3.2 2.4 2.6 3.7 2.3 4.7 1.4 1.1-1 1.4-2.2-.9-4.8-.6-.7-1.4-1.4-2.2-2.1 1.3.2 2.6.3 3.8.3 3.5-.1 4.2-1.2 4.2-2.6-.1-1.7-.8-2.8-4.3-2.7zm-8.1 4.2c-1.2.3-2.4-.5-2.7-1.7s.5-2.4 1.7-2.7 2.4.5 2.7 1.7-.5 2.5-1.7 2.7z"/><path d="m138.8 413.2c-.7-.6-1.6-.7-3 1h3.6c-.1-.4-.3-.7-.6-1z"/><path d="m134.1 413.7c-.5-2.2-1.4-2.5-2.3-2.3s-1.5.8-1 2.8h3.4c0-.2 0-.4-.1-.5z"/><path d="m89.9 412.8c-1.1-.9-2.4-1.1-4.5 1.4h5.4c-.1-.5-.5-1-.9-1.4z"/><path d="m83 414.2c0-.2-.1-.5-.1-.7-.4-1.6-.8-2.5-1.4-3l.7 3.7z"/><path d="m40.4 376.5c.9 1 2.2 1.4 4.8-.9.9-.8 1.8-1.8 2.6-2.9-.1 1.3-.2 2.7-.1 3.9.3 3.5 1.4 4.1 2.8 4s2.5-.9 2.2-4.3c-.1-.9-.2-2-.5-3 .9.9 1.8 1.8 2.8 2.5 2.8 2.1 4 1.6 4.8.5s1-2.4-1.8-4.5c-1.1-.8-2.4-1.6-3.8-2.3 1.2 0 2.3-.2 3.4-.4 3.4-.7 3.8-1.9 3.6-3.3-.3-1.4-1.2-2.3-4.6-1.7-1 .2-2 .5-3.1.9.7-1 1.3-2 1.7-3 1.5-3.1.7-4.2-.5-4.8-1.3-.6-2.6-.4-4.1 2.7-.5 1-.9 2.3-1.3 3.5-.4-1.2-.9-2.3-1.4-3.3-.3-.5-.5-.9-.8-1.3-1 1.6-2 3.2-3 4.9l1.2 1.8c-.6-.2-1.3-.5-1.9-.6-.9 1.5-1.8 3-2.8 4.5h.2c1 .2 2.2.4 3.4.4-1 .6-2 1.3-2.8 2.1-2.1 2.2-1.9 3.5-1 4.6zm7.8-9.3c.5-1.1 1.8-1.6 2.9-1.1s1.6 1.8 1.1 2.9-1.8 1.6-2.9 1.1-1.6-1.8-1.1-2.9z"/><path d="m33.6 398.3c-.1-.9-.2-1.9-.4-2.8.8.9 1.7 1.7 2.6 2.4 2.6 2 3.8 1.5 4.6.5.8-1.1.9-2.3-1.7-4.3-1-.8-2.3-1.5-3.6-2.1 1.1 0 2.2-.2 3.2-.4 3.2-.7 3.6-1.8 3.4-3.1-.3-1.3-1.1-2.2-4.3-1.6-.9.2-1.9.5-2.9.8.6-.9 1.2-1.9 1.6-2.9 1.4-3 .7-4-.5-4.6-.3-.1-.6-.2-.9-.3-3.8 6.5-7.4 13-10.9 19.3.7-.1 1.5-.6 2.6-1.6.9-.8 1.7-1.7 2.5-2.7-.1 1.2-.2 2.6-.1 3.7.2 3.3 1.4 3.9 2.7 3.8 1.3 0 2.3-.8 2.1-4.1zm-3.3-5.8c-1-.5-1.5-1.7-1-2.8.5-1 1.7-1.5 2.8-1 1 .5 1.5 1.7 1 2.8-.6 1.1-1.8 1.5-2.8 1z"/><path d="m67.5 396.1c-.7-.5-1.6-1.1-2.5-1.5.8 0 1.6-.1 2.2-.3 2.3-.5 2.6-1.3 2.4-2.2s-.8-1.6-3-1.1c-.6.1-1.4.3-2 .6.4-.6.9-1.4 1.2-2 1-2.1.5-2.8-.4-3.2-.8-.4-1.7-.3-2.7 1.8-.3.7-.6 1.5-.8 2.3-.2-.8-.6-1.5-.9-2.2-1.1-2-1.9-2.1-2.8-1.7-.8.4-1.3 1.2-.2 3.2.3.6.8 1.4 1.3 2-.8-.3-1.6-.5-2.3-.7-2.3-.5-2.9.2-3 1.1-.2.9.1 1.7 2.4 2.2.7.1 1.5.2 2.2.3-.7.4-1.3.9-1.8 1.4-1.7 1.5-1.6 2.4-.9 3.1.6.7 1.5 1 3.2-.6.6-.5 1.2-1.2 1.8-1.9-.1.9-.1 1.8-.1 2.6.2 2.3 1 2.7 1.9 2.6s1.6-.6 1.5-2.9c0-.6-.2-1.3-.3-2 .6.6 1.2 1.2 1.8 1.7 1.8 1.4 2.7 1.1 3.2.3.4-.6.5-1.5-1.4-2.9zm-5.9-1.1c-.7-.3-1-1.2-.7-1.9s1.2-1 1.9-.7 1 1.2.7 1.9-1.2 1.1-1.9.7z"/><path d="m54.3 409.6c-1.3-.6-2.6-.5-4.1 2.7 0 .1-.1.2-.1.3 1.7.4 3.4.7 5.2 1 .9-2.5.2-3.5-1-4z"/><path d="m43.3 410c-.2.1-.5.3-.6.5 1.5.5 3 1 4.5 1.4-1.5-2.5-2.7-2.5-3.9-1.9z"/><path d="m210.3 345.4c-1.2 0-2.5.2-3.7.5.7-.6 1.5-1.4 2.1-2 1.9-2.2 1.5-3.3.6-4.1s-2-1-3.9 1.3c-.5.6-1.1 1.4-1.6 2.2-.1-1-.2-2-.4-2.9-.7-2.9-1.7-3.2-2.9-2.9s-2 1.1-1.3 3.9c.2 1 .6 2 1 3-.9-.6-1.8-1.1-2.6-1.5-2.7-1.2-3.6-.6-4.1.5s-.4 2.2 2.3 3.4c.9.4 1.9.7 2.9 1-1 .3-2 .7-2.8 1.1-2.6 1.3-2.7 2.4-2.2 3.5s1.5 1.7 4.1.4c.8-.4 1.7-.9 2.5-1.5-.3.9-.6 1.9-.8 2.8-.5 2.9.3 3.6 1.5 3.9 1.2.2 2.2-.2 2.7-3.1.2-1 .3-2.2.3-3.3.6.9 1.3 1.9 2 2.7 2 2.2 3.1 2 4 1.2s1.2-1.9-.8-4.1c-.5-.6-1.2-1.2-1.9-1.8 1.1.2 2.2.3 3.2.2 2.9-.1 3.5-1 3.5-2.2-.2-1.3-.8-2.2-3.7-2.2zm-6.8 3.6c-1 .2-2-.4-2.2-1.4s.4-2 1.4-2.2 2 .4 2.2 1.4-.4 2-1.4 2.2z"/><path d="m222.7 400.9c-.4-.4-.9-.6-1.6-.3l1.7 2.3c.6-.9.4-1.5-.1-2z"/><path d="m213.5 402.3c-1.8-1.2-2.6-.9-3-.1-.5.7-.5 1.6 1.3 2.8.6.4 1.3.8 2 1.1-.8.1-1.5.3-2.2.5-2.1.7-2.2 1.5-2 2.3.3.8.9 1.4 3 .7.3-.1.6-.2.9-.4l1.2-6c-.4-.3-.8-.6-1.2-.9z"/><path d="m214.9 401.7v.3l.5-2.6c-.3.3-.6 1-.5 2.3z"/><path d="m210 314c-1.8-.7-3.6-1.3-5.4-1.8-.8.8-1.6 1.8-2.2 2.8.1-1.2.2-2.4.1-3.4-1.8-.5-3.6-1-5.1-1.4 0 .5-.1 1 0 1.6 0 1 .2 2.1.4 3.2-.9-.8-1.8-1.6-2.8-2.2-2.9-2-4.2-1.4-4.9-.2-.8 1.2-.9 2.5 2.1 4.5 1 .7 2.2 1.3 3.3 1.8-1.2.2-2.5.5-3.5.8-3.3 1.1-3.6 2.4-3.2 3.8.5 1.4 1.5 2.2 4.8 1.1 1.1-.4 2.2-.9 3.3-1.5-.6 1.1-1.2 2.2-1.6 3.3-1.2 3.3-.4 4.4.9 4.9s2.7.3 3.9-3c.4-1 .7-2.2.9-3.3.5 1.1 1 2.2 1.6 3.1 1.9 3 3.3 2.9 4.5 2.2 1.2-.8 1.8-2-.1-4.9-.7-1-1.5-2.1-2.5-3.1 1.3.3 2.7.6 3.9.7 3.5.3 4.3-.8 4.4-2.2s-.5-2.6-4-2.9c-1-.1-2-.1-3.1 0 1.1-.7 2.1-1.6 3-2.4.7-.7 1.1-1.1 1.3-1.5zm-7.7 6.3c-.7 1-2.1 1.3-3.1.6s-1.3-2.1-.6-3.1 2.1-1.3 3.1-.6 1.3 2.1.6 3.1z"/><path d="m241.9 358.2c-.9 0-1.9.1-2.9.4.6-.5 1.2-1.1 1.6-1.6 1.5-1.8 1.2-2.6.5-3.2s-1.6-.7-3.1 1c-.4.5-.9 1.1-1.2 1.7-.1-.8-.2-1.6-.3-2.3-.5-2.2-1.4-2.5-2.3-2.3s-1.5.8-1 3.1c.2.7.5 1.6.8 2.3-.7-.5-1.4-.9-2.1-1.2-2.1-1-2.8-.5-3.2.4-.4.8-.3 1.7 1.8 2.7.7.3 1.5.6 2.2.8-.8.2-1.6.5-2.2.9-2.1 1-2.1 1.9-1.7 2.7s1.2 1.3 3.2.3c.6-.3 1.3-.7 1.9-1.2-.3.7-.5 1.5-.6 2.2-.4 2.3.3 2.8 1.2 3s1.7-.1 2.1-2.4c.1-.8.2-1.7.2-2.6.5.7 1 1.5 1.5 2.1 1.5 1.7 2.4 1.5 3.1.9s.9-1.5-.6-3.2c-.4-.5-.9-.9-1.5-1.4.8.1 1.7.2 2.5.2 2.3 0 2.7-.8 2.7-1.7.1-.9-.3-1.6-2.6-1.6zm-5.4 2.8c-.8.2-1.6-.3-1.8-1.1s.3-1.6 1.1-1.8 1.6.3 1.8 1.1c.2.9-.3 1.6-1.1 1.8z"/><path d="m251.5 386.6c-1.4 0-3 .2-4.4.6.9-.8 1.8-1.6 2.4-2.4 2.3-2.7 1.8-4 .8-4.9-1.1-.9-2.4-1.1-4.7 1.5-.6.8-1.3 1.7-1.9 2.6-.1-1.2-.3-2.4-.5-3.5-.8-3.4-2.1-3.8-3.5-3.5s-2.3 1.3-1.5 4.7c.3 1.1.7 2.4 1.2 3.6-1-.7-2.1-1.3-3.2-1.8-3.2-1.5-4.3-.7-4.9.6s-.4 2.6 2.8 4.1c1 .5 2.2.9 3.4 1.2-1.2.4-2.4.8-3.4 1.3-3.2 1.6-3.3 2.9-2.6 4.2.6 1.3 1.8 2 4.9.4 1-.5 2-1.1 2.9-1.8-.4 1.1-.7 2.3-.9 3.4-.6 3.5.4 4.3 1.8 4.6s2.7-.2 3.3-3.7c.2-1.2.3-2.6.3-3.9.7 1.1 1.5 2.3 2.4 3.2 2.4 2.6 3.7 2.3 4.7 1.4 1.1-1 1.4-2.2-.9-4.8-.6-.7-1.4-1.4-2.2-2.1 1.3.2 2.6.3 3.8.3 3.5-.1 4.2-1.2 4.2-2.6-.1-1.7-.8-2.8-4.3-2.7zm-8.2 4.2c-1.2.3-2.4-.5-2.7-1.7s.5-2.4 1.7-2.7 2.4.5 2.7 1.7-.5 2.5-1.7 2.7z"/><path d="m243.4 414.2h.6c-.2 0-.4 0-.6 0z"/><path d="m254.7 412.3c-.7-.6-1.6-.7-3.1 1-.2.3-.5.6-.7.9h4.1c.5-.9.2-1.4-.3-1.9z"/><path d="m250.1 412.8c-.5-2.2-1.4-2.5-2.3-2.3s-1.5.8-1 3.1c.1.2.1.5.2.7h3.3c0-.6-.1-1.1-.2-1.5z"/><path d="m267.6 405.6c-.3.9-.6 1.9-.8 2.8-.5 2.9.3 3.6 1.5 3.9 1.2.2 2.2-.2 2.7-3.1.2-1 .3-2.2.3-3.3.6.9 1.3 1.9 2 2.7 1.6 1.8 2.6 2 3.4 1.5-1.4-2.7-2.9-5.4-4.4-8.1-.1.7-.7 1.3-1.4 1.4-1 .2-2-.4-2.2-1.4s.4-2 1.4-2.2c.4-.1.7-.1 1.1.1-1.4-2.5-2.8-5-4.2-7.6-.6.5-.8 1.5-.3 3.4.2 1 .6 2 1 3-.9-.6-1.8-1.1-2.6-1.5-2.7-1.2-3.6-.6-4.1.5s-.4 2.2 2.3 3.4c.9.4 1.9.7 2.9 1-1 .3-2 .7-2.8 1.1-2.6 1.3-2.7 2.4-2.2 3.5s1.5 1.7 4.1.4c.6-.5 1.5-1 2.3-1.5z"/><path d="m200.7 406.4c-1.1 0-2.3.2-3.4.4.7-.6 1.4-1.2 1.9-1.9 1.8-2.1 1.4-3.1.6-3.8s-1.9-.9-3.6 1.2c-.5.6-1 1.3-1.5 2-.1-.9-.2-1.9-.4-2.7-.6-2.6-1.6-3-2.7-2.7-1.1.2-1.8 1-1.2 3.6.2.9.5 1.9.9 2.8-.8-.5-1.6-1-2.4-1.4-2.5-1.1-3.3-.5-3.8.5s-.3 2 2.1 3.2c.8.4 1.7.7 2.6.9-.9.3-1.8.6-2.6 1-2.4 1.2-2.5 2.2-2 3.2s1.4 1.5 3.8.3c.7-.4 1.5-.9 2.3-1.4-.3.8-.5 1.7-.7 2.5h4c.1-.7.2-1.5.1-2.3.5.8 1.1 1.6 1.7 2.3h4.4c0-.6-.4-1.4-1.3-2.5-.5-.5-1.1-1.1-1.7-1.6 1 .2 2 .2 2.9.2 2.7 0 3.2-.9 3.2-2 .1-1-.5-1.9-3.2-1.8zm-6.3 3.3c-.9.2-1.9-.4-2.1-1.3s.4-1.9 1.3-2.1 1.9.4 2.1 1.3-.3 1.9-1.3 2.1z"/><path d="m188.3 372.3c-.6-.4-1.3-.9-2.1-1.2.6 0 1.3-.1 1.8-.2 1.9-.4 2.1-1.1 1.9-1.8s-.6-1.3-2.5-.9c-.5.1-1.1.3-1.7.5.4-.5.7-1.1.9-1.6.8-1.7.4-2.3-.3-2.6s-1.4-.2-2.2 1.5c-.3.6-.5 1.3-.7 1.9-.2-.6-.5-1.3-.7-1.8-.9-1.7-1.6-1.7-2.3-1.4-.7.4-1.1 1-.2 2.7.3.5.6 1.1 1 1.6-.6-.2-1.3-.4-1.9-.6-1.9-.4-2.3.1-2.5.9-.2.7.1 1.4 1.9 1.8.6.1 1.2.2 1.8.2-.5.3-1.1.7-1.5 1.1-1.4 1.3-1.3 2-.8 2.5.5.6 1.2.8 2.6-.5.5-.4 1-1 1.4-1.6-.1.7-.1 1.5-.1 2.1.1 1.9.8 2.2 1.5 2.2.8-.1 1.4-.5 1.2-2.4 0-.5-.1-1.1-.2-1.6.5.5 1 1 1.5 1.4 1.5 1.1 2.2.9 2.6.3 1.1-.7 1.1-1.4-.4-2.5zm-4.8-.9c-.6-.3-.9-1-.6-1.6s1-.9 1.6-.6.9 1 .6 1.6-1 .9-1.6.6z"/><path d="m179.9 396.1c-.7-.5-1.6-1.1-2.5-1.5.8 0 1.6-.1 2.2-.3 2.3-.5 2.6-1.3 2.4-2.2s-.8-1.6-3-1.1c-.6.1-1.4.3-2 .6.4-.6.9-1.4 1.2-2 1-2.1.5-2.8-.4-3.2-.8-.4-1.7-.3-2.7 1.8-.3.7-.6 1.5-.8 2.3-.2-.8-.6-1.5-.9-2.2-1.1-2-1.9-2.1-2.8-1.7-.8.4-1.3 1.2-.2 3.2.3.6.8 1.4 1.3 2-.8-.3-1.6-.5-2.3-.7-2.3-.5-2.9.2-3 1.1-.2.9.1 1.7 2.4 2.2.7.1 1.5.2 2.2.3-.7.4-1.3.9-1.8 1.4-1.7 1.5-1.6 2.4-.9 3.1.6.7 1.5 1 3.2-.6.6-.5 1.2-1.2 1.8-1.9-.1.9-.1 1.8-.1 2.6.2 2.3 1 2.7 1.9 2.6s1.6-.6 1.5-2.9c0-.6-.2-1.3-.3-2 .6.6 1.2 1.2 1.8 1.7 1.8 1.4 2.7 1.1 3.2.3.3-.6.4-1.5-1.4-2.9zm-5.9-1.1c-.7-.3-1-1.2-.7-1.9s1.2-1 1.9-.7 1 1.2.7 1.9-1.2 1.1-1.9.7z"/><path d="m163.2 363c-.3-1.4-1.2-2.3-4.6-1.7-1 .2-2 .5-3.1.9.7-1 1.3-2 1.7-3 1.5-3.1.7-4.2-.5-4.8-1.3-.6-2.6-.4-4.1 2.7-.5 1-.9 2.3-1.3 3.5-.4-1.2-.9-2.3-1.4-3.3-.5-.9-.9-1.6-1.4-2v15.9c.3-.4.7-.8 1-1.2-.1 1.3-.2 2.7-.1 3.9.3 3.5 1.4 4.1 2.8 4s2.5-.9 2.2-4.3c-.1-.9-.2-2-.5-3 .9.9 1.8 1.8 2.8 2.5 2.8 2.1 4 1.6 4.8.5s1-2.4-1.8-4.5c-1.1-.8-2.4-1.6-3.8-2.3 1.2 0 2.3-.2 3.4-.4 3.8-.8 4.2-2 3.9-3.4zm-9.1 3.3c-.5 1.1-1.8 1.6-2.9 1.1s-1.6-1.8-1.1-2.9 1.8-1.6 2.9-1.1 1.6 1.8 1.1 2.9z"/><path d="m66.7 343.9c-.7-.7-1.5-1.3-2.4-1.9 1.3.1 2.6.1 3.8 0 .6-.1 1.2-.2 1.6-.3-1.3-2.3-2.7-3.9-3.5-4.7-1 .2-2.1.4-3 .7.6-.6 1.1-1.2 1.6-1.8-.6-.3-1.3-.5-1.8-.5v.3c-.7.9-1.3 1.8-2 2.8.1.2.2.3.2.5.4 1.2-.3 2.4-1.4 2.8-.4.1-.8.1-1.2.1-1 1.4-1.9 2.8-2.9 4.3-.1.7-.3 1.4-.3 2.1-.3 3.5.8 4.3 2.2 4.4s2.6-.5 3-4c.1-1.2.1-2.6 0-4 .8 1.1 1.7 2.1 2.6 3 2.6 2.4 3.9 2 4.9 1 .9-1 1.2-2.4-1.4-4.8z"/><path d="m76 372.3c-.6-.4-1.3-.9-2.1-1.2.6 0 1.3-.1 1.8-.2.3-.1.6-.2.9-.2l-.4-2.6c-.3 0-.6 0-1 .1-.5.1-1.1.3-1.7.5.4-.5.7-1.1.9-1.6.8-1.7.4-2.3-.3-2.6s-1.4-.2-2.2 1.5c-.3.6-.5 1.3-.7 1.9-.2-.6-.5-1.3-.7-1.8-.9-1.7-1.6-1.7-2.3-1.4-.7.4-1.1 1-.2 2.7.3.5.6 1.1 1 1.6-.6-.2-1.3-.4-1.9-.6-1.9-.4-2.3.1-2.5.9-.2.7.1 1.4 1.9 1.8.6.1 1.2.2 1.8.2-.5.3-1.1.7-1.5 1.1-1.4 1.3-1.3 2-.8 2.5.5.6 1.2.8 2.6-.5.5-.4 1-1 1.4-1.6-.1.7-.1 1.5-.1 2.1.1 1.9.8 2.2 1.5 2.2.8-.1 1.4-.5 1.2-2.4 0-.5-.1-1.1-.2-1.6.5.5 1 1 1.5 1.4 1.5 1.1 2.2.9 2.6.3s1-1.4-.5-2.5zm-3.3-1.5c-.3.6-1 .9-1.6.6s-.9-1-.6-1.6 1-.9 1.6-.6.9 1 .6 1.6z"/><path d="m225.1 341.5c.8-1.4 1.9-3.1 3.3-4.4-.7-.3-1.3-.9-1.4-1.7-.3-1.3.5-2.6 1.8-2.9 1.1-.3 2.1.3 2.6 1.2-.6-2.5-2.2-7-6.2-11.1-1 .5-1.6 1.8-.9 4.7.3 1.2.7 2.6 1.3 3.8-1.1-.7-2.3-1.4-3.4-1.9-3.4-1.6-4.6-.7-5.2.6-.6 1.4-.5 2.8 3 4.4 1.1.5 2.4.9 3.6 1.3-1.3.4-2.5.9-3.6 1.4-3.4 1.7-3.5 3.1-2.8 4.5s1.9 2.1 5.3.5c1-.5 2.1-1.2 3.2-1.9-.4.5-.5 1-.6 1.5z"/><path d="m231.6 335.2v-.1z"/><path d="m217.1 374.8c-.2 0-.5.1-.7.1.3-.2.5-.4.7-.7.2-2.2.5-4.5.8-6.7-.8.1-1.7.6-2.9 2-.6.7-1.2 1.6-1.8 2.5-.1-1.1-.2-2.3-.5-3.3-.7-3.2-1.9-3.6-3.2-3.3s-2.2 1.2-1.4 4.4c.2 1.1.6 2.3 1.1 3.3-1-.6-2-1.2-3-1.7-3-1.4-4-.6-4.6.6-.5 1.2-.4 2.5 2.6 3.8 1 .4 2.1.8 3.2 1.1-1.1.3-2.2.8-3.2 1.2-2.9 1.5-3.1 2.7-2.5 3.9s1.6 1.9 4.6.4c.9-.4 1.9-1 2.8-1.7-.4 1-.7 2.2-.9 3.1-.6 3.2.4 4.1 1.7 4.3s2.5-.2 3.1-3.5c.2-1.1.3-2.4.3-3.7.7 1.1 1.4 2.1 2.2 3 .3.3.5.6.8.8.3-2.7.5-6.2.8-9.9zm-4.1 3.6c-1.1.3-2.2-.4-2.5-1.6-.3-1.1.4-2.2 1.6-2.5 1.1-.3 2.2.4 2.5 1.6.2 1.2-.5 2.3-1.6 2.5z"/><path d="m180.4 342c3.5-.4 4.1-1.6 3.9-3-.1-1.4-1-2.5-4.5-2.1-1.4.1-3 .5-4.4.9.8-.8 1.6-1.8 2.2-2.6 2-2.9 1.5-4.1.3-4.9-.1 0-.1-.1-.2-.1-1.3 1.1-3 2.1-5 3-.4.6-.7 1.2-1.1 1.9-.1-.4-.2-.9-.2-1.3-1.5.6-3 1.1-4.6 1.6.2.5.4.9.7 1.4-.7-.4-1.4-.7-2-1-2.1.6-4.2 1-6.3 1.4 0 1 .7 2 3.3 2.9 1.1.4 2.3.7 3.5.9-1.2.5-2.3 1-3.3 1.6-3 1.8-3 3.2-2.3 4.4s1.9 1.8 5 0c.9-.6 1.9-1.3 2.8-2-.3 1.2-.5 2.4-.6 3.4-.3 3.5.8 4.3 2.2 4.4s2.6-.5 3-4c.1-1.2.1-2.6 0-4 .8 1.1 1.7 2.1 2.6 3 2.6 2.4 3.9 2 4.9 1s1.2-2.4-1.3-4.8c-.7-.7-1.5-1.3-2.4-1.9 1.3 0 2.6 0 3.8-.1zm-8.3-.2c-1.2.4-2.4-.3-2.8-1.4-.4-1.2.3-2.4 1.4-2.8 1.2-.4 2.4.3 2.8 1.4s-.2 2.4-1.4 2.8z"/><path d="m122.2 337.8c1.4.2 2.8.3 4.1.3 1.4 0 2.4-.2 3.1-.5-2.4-1.2-4.7-2.8-6.7-4.6-.4.1-.8.1-1.2.2.2-.2.5-.4.7-.6-1.3-1.2-2.6-2.4-3.7-3.7-.2.3-.4.7-.6 1 0-.7-.1-1.3-.2-2-1.7-2-3.2-3.9-4.2-5.5-1.4.4-2.3 1.5-1.5 5 .3 1.2.7 2.6 1.3 3.8-1.1-.7-2.3-1.4-3.4-1.9-3.4-1.6-4.6-.7-5.2.6-.6 1.4-.5 2.8 3 4.4 1.1.5 2.4.9 3.6 1.3-1.3.4-2.5.9-3.6 1.4-3.4 1.7-3.5 3.1-2.8 4.5s1.9 2.1 5.3.5c1-.5 2.1-1.2 3.2-1.9-.4 1.2-.8 2.5-1 3.6-.7 3.7.4 4.7 1.9 4.9 1.5.3 2.8-.2 3.5-3.9.2-1.3.4-2.8.3-4.2.8 1.2 1.6 2.4 2.5 3.4 2.5 2.8 3.9 2.5 5.1 1.5 1.1-1 1.5-2.4-1-5.2-.8-.8-1.7-1.6-2.5-2.4zm-4.8-.6c-1.3.3-2.6-.5-2.9-1.8s.5-2.6 1.8-2.9 2.6.5 2.9 1.8-.5 2.6-1.8 2.9z"/><path d="m96.6 317.7c-1-.1-2-.1-3.1 0 1.1-.7 2.1-1.6 3-2.4 2.5-2.5 2.2-3.8 1.2-4.8-.1-.1-.3-.3-.4-.4-1.3.3-2.6.6-3.9 1-.2.1-.3.3-.5.5-1 1-2 2.2-2.9 3.4.1-1 .2-2 .1-2.9-1.8.6-3.4 1.1-5 1.7.1.4.1.8.2 1.3-.3-.3-.7-.6-1.1-.9-2.3.9-4.2 1.7-5.5 2.3.3.2.6.5 1 .7 1 .7 2.2 1.3 3.3 1.8-1.2.2-2.5.5-3.5.8-3.3 1.1-3.6 2.4-3.2 3.8.5 1.4 1.5 2.2 4.8 1.1 1.1-.4 2.2-.9 3.3-1.5-.6 1.1-1.2 2.2-1.6 3.3-1.2 3.3-.4 4.4.9 4.9s2.7.3 3.9-3c.4-1 .7-2.2.9-3.3.5 1.1 1 2.2 1.6 3.1 1.9 3 3.3 2.9 4.5 2.2 1.2-.8 1.8-2-.1-4.9-.7-1-1.5-2.1-2.5-3.1 1.3.3 2.7.6 3.9.7 3.5.3 4.3-.8 4.4-2.2.5-1.7-.1-2.9-3.7-3.2zm-6.7 2.6c-.7 1-2.1 1.3-3.1.6s-1.3-2.1-.6-3.1 2.1-1.3 3.1-.6 1.3 2.1.6 3.1z"/></g><path d="m148.3 341.4h.9v72.9h-.9z" fill="#e0b3c8"/><circle cx="160.5" cy="359.5" fill="#d1aabf" r="5.5"/><circle cx="160.5" cy="387.1" fill="#d1aabf" r="5.5"/><path d="m166 414.2c-.3-2.8-2.6-5-5.5-5s-5.2 2.2-5.5 5z" fill="#d1aabf"/><path d="m63.1 335-.1.5v.2.1c14.2 2.7 14.8 58.5 14.8 59l.3-.4.2-.3.1.3.1.5c.4.4-.4-57.1-15.4-59.9z" fill="#e0b3c8"/><path d="m231.6 335 .1.5v.2.1c-14.2 2.7-14.8 58.5-14.8 59l-.3-.4-.2-.3-.1.3-.1.5c-.4.4.4-57.1 15.4-59.9z" fill="#e0b3c8"/><circle cx="158.8" cy="357.5" fill="#fff3f9" r="1.4"/><circle cx="158.8" cy="385" fill="#fff3f9" r="1.4"/><circle cx="158.8" cy="412.8" fill="#fff3f9" r="1.4"/><path d="m148 334.2c-18.2 0-33.4-12-37.4-28.1-1.9.9-7.1 3.2-7.1 3.2-2.1 5.2 3.4 6.6 3.4 6.6-1.7 3.6.7 7.8 4.7 8.2l-.2 1.1c-.8 3.4 2 6.5 5.5 6.1l1.1-.1v1.4c-.1 3.3 3.2 5.6 6.3 4.6l1.4-.5.3 1.6c.6 3.1 4.1 4.7 6.9 3.1l1.4-.8.6 1.3c1.3 3 5.2 3.8 7.6 1.6l1.1-1 .7 1c1.9 2.8 6 2.8 8 0l.7-1 1.4 1.3c2.2 2.1 5.9 1.3 7.1-1.5l.7-1.7 1.4.8c2.7 1.6 6.3.1 6.9-3.1l.3-1.6 1.5.5c3.1 1 6.2-1.3 6.2-4.5v-1.5l.9.1c3.5.4 6.4-2.8 5.6-6.2l-.2-.9 1-.1c3.5-.3 5.6-4 4.1-7.1l-.4-.9s5.6-1.9 3.9-7.1c0 0-5.7-1.8-7.6-2.7-4.4 16-19.6 27.9-37.8 27.9z" fill="#fff"/><path d="m185.5 306.1c-.9 4.1-2.7 8-5 11.5s-5.3 6.6-8.7 9.2c-6.8 5.1-15.3 7.8-23.7 7.9-8.5 0-17-2.7-23.7-7.9-3.4-2.5-6.3-5.7-8.7-9.2-2.3-3.5-4.1-7.4-5-11.5 2.2 8.1 7.3 15.3 14.1 20.1 6.7 4.9 15 7.5 23.3 7.5s16.6-2.6 23.3-7.5c6.7-4.8 11.8-11.9 14.1-20.1z" fill="#be9ba9"/><path d="m233.9 145.2c0 68.3-24.2 124-86.4 124s-85.3-56.4-85.3-124.6c0-68.3 57.9-82 86.3-82s85.4 14.4 85.4 82.6z" fill="#fedec8"/><path d="m117.6 228.3c9.4 5.7 19.5 9.2 29.7 9.1 10.3 0 20.1-4 29.9-9.1-3.6 4.2-8.1 7.8-13.2 10.3-5.1 2.6-10.9 4-16.7 4.1-5.8 0-11.6-1.3-16.8-3.8-5-2.6-9.6-6.1-12.9-10.6z" fill="#cd9881"/><path d="m96 184.2-10.1-5.7 11.2 2.9z" fill="#e4c8b6"/><path d="m97.2 198.2-11.3 3.8 10-6.5z" fill="#e4c8b6"/><path d="m96.6 191.2-18.3-.5 18.2-2.5z" fill="#e4c8b6"/><path d="m200.6 181.4 11.2-2.9-10 5.7z" fill="#e4c8b6"/><path d="m201.9 195.5 9.9 6.5-11.3-3.8z" fill="#e4c8b6"/><path d="m201.3 188.2 18.1 2.5-18.3.5z" fill="#e4c8b6"/><path d="m127.9 188.9c0 9.4-7.7 17-17.2 17s-17.2-7.6-17.2-17 7.7-17 17.2-17c9.5.1 17.2 7.7 17.2 17z" fill="#a5693c"/><path d="m123.5 188.9c0 6.5-5.3 11.9-11.8 11.9s-11.8-5.3-11.8-11.9c0-6.5 5.3-11.8 11.8-11.8s11.8 5.3 11.8 11.8z" fill="#2a1d01"/><path d="m106.7 182.8c0 1.9-1.5 3.4-3.4 3.4s-3.4-1.5-3.4-3.4 1.5-3.4 3.4-3.4c1.8 0 3.4 1.5 3.4 3.4z" fill="#fff"/><path d="m169.9 188.9c0 9.4 7.7 17 17.2 17s17.2-7.6 17.2-17-7.7-17-17.2-17c-9.5.1-17.2 7.7-17.2 17z" fill="#a5693c"/><path d="m174.3 188.9c0 6.5 5.3 11.9 11.8 11.9s11.8-5.3 11.8-11.9c0-6.5-5.3-11.8-11.8-11.8s-11.8 5.3-11.8 11.8z" fill="#2a1d01"/><path d="m175 182.8c0 1.9 1.5 3.4 3.4 3.4s3.4-1.5 3.4-3.4-1.5-3.4-3.4-3.4-3.4 1.5-3.4 3.4z" fill="#fff"/><path d="m114.3 232.5c.6-1 1.2-2 1.8-2.9s1.2-1.8 1.9-2.7 1.3-1.8 2-2.6c.7-.9 1.5-1.7 2.4-2.5-.2 1.2-.6 2.3-1.1 3.3s-1.1 2-1.8 3c-.7.9-1.4 1.8-2.3 2.6-.8.7-1.7 1.4-2.9 1.8z" fill="#e4c8b6"/><path d="m181.3 232.5c-1.1-.4-2.1-1.1-3-1.9s-1.6-1.6-2.3-2.6c-.7-.9-1.3-1.9-1.8-3-.5-1-.9-2.1-1.1-3.3.9.8 1.7 1.6 2.4 2.5s1.4 1.7 2 2.6 1.3 1.8 1.9 2.7c.7 1.1 1.3 2 1.9 3z" fill="#e4c8b6"/><path d="m240.1 117.8c-2.1-17.4-47.6-66.1-93-66.1s-90.8 48.6-92.9 66.1c-4.8 40 11.9 77.4 11.9 77.4-.1-65.5 42.1-80.1 81.1-80.1s81.1 14.5 81.1 80.1c-.1.1 16.6-37.3 11.8-77.4z" fill="#d3d5d6"/><path d="m150.7 110.4c-2-3.6-2.8-7.6-3-11.6-.1-4 .8-7.9 1.8-11.8 1-3.8 2.2-7.6 3.4-11.4s2.4-7.5 3.3-11.4c-.8 3.9-2 7.7-3.1 11.5s-2.2 7.6-3.1 11.4-1.8 7.7-1.5 11.6c.2 3.9 1.1 7.8 3.1 11.1z" fill="#e8e8e8"/><path d="m64.8 99.2c.1 1.8-2.1 39.5 13.5 40.9 0 0 9.4-16 21.5-19.7 0 0-10.3 1.3-13.9-9-3.7-10.3-4.1-30.2-4.1-30.2s-8.3 6.9-17 18z" fill="#e8e8e8"/><path d="m179.3 97.8c-3.7 10.3-9.7 13.6-9.7 13.6 12.1 3.7 21.5 8.6 21.5 8.6 12.8-1.1 9.4-37 7.7-50-5.9-4-12.3-7.6-18.9-10.6.8 9.5 2.2 30.5-.6 38.4z" fill="#e8e8e8"/><path d="m66.8 148.4c2.3 2.8 5.1 2.3 5.1 2.3 4.7-.9 1.6-5.3 1.6-5.3-2.9 1.3-7.2-4.6-10.8-13.4-2.5-6-4.3-15.8-5.1-21.4-.4.8-.8 1.6-1.1 2.4 1.6 18.1 8.2 32.8 10.3 35.4z" fill="#e8e8e8"/><path d="m217.1 84.6c-.8 5.1-2.7 16.2-5.4 22.8-3.6 8.8-10.9 17.2-13.8 15.9 0 0 3.9 2.2 5.3 3.8 0 0 2.1-.5 4.4-3.2s9.4-18.8 10.6-38.2c-.4-.4-.8-.7-1.1-1.1z" fill="#e8e8e8"/><path d="m110.9 113.6c1.9 1.6 5 1.3 6.1.8s4.7-1.1 4.7-1.1c-5.1-1.8-6.1-6.9-6.1-6.9 2 4.9 8.5 6.6 9.5 6.4 1-.3 7.2-1.4 9.1-1.4 1.9-.1 4.7-1 4.7-1 .6-1.5-3.2-4-7.9-10.9-5.7-8.3-6.5-33.2-6.6-43.7-6.7 2.2-13.3 5.3-19.5 8.8-.9 8-2 20.8-1.6 29.6.6 13.6 5.7 17.8 7.6 19.4z" fill="#e8e8e8"/><path d="m153.3 83c-2.1 13.4-.5 27-.5 27 1.4 0 6.6.4 6.6.4 2.2-8.6 3.2-16 2.2-21.7-.9-5.7.9-15.9 2.3-23.1.9-4.8.6-9.4.3-11.8-1.5-.4-3.1-.7-4.6-.9.6 10-4.3 17.4-6.3 30.1z" fill="#e8e8e8"/><path d="m136.6 111.7c-2.9-3.1-5.7-6.3-8.3-9.7-1.2-1.7-2.5-3.5-3.2-5.6-.8-2-1.2-4.1-1.6-6.2-.8-4.2-1.2-8.4-1.5-12.6-.2-4.2-.3-8.5-.1-12.7-.1 4.2.1 8.5.4 12.7s.8 8.4 1.7 12.6c.4 2.1 1 4.1 1.7 6.1s2 3.7 3.2 5.4c2.6 3.3 5.4 6.5 8.4 9.5z" fill="#d3d5d6"/><path d="m235.9 107.3c-2.1-3.6-4.9-7.5-8.3-11.6 0 11.2-.9 37.3-10.3 44 0 0 4.1 4.4 7.3 12.9 0 0 11.9 2 11.3-45.3z" fill="#e8e8e8"/><path d="m173 113.7c1.5-.9 2.8-2.2 3.9-3.6 1.1-1.5 2.1-3 2.8-4.7.8-1.6 1.4-3.4 2-5.1l.7-2.7.5-2.7c.1-.5.2-.9.3-1.4l.2-1.4.3-2.7c.1-1.8.2-3.7.3-5.5 0-1.8 0-3.7-.1-5.5l-.3-5.5.5 5.5c.1 1.8.1 3.7.2 5.6 0 1.9-.1 3.7-.2 5.6l-.3 2.8-.1 1.4c-.1.5-.2.9-.2 1.4l-.5 2.7-.7 2.7c-.5 1.8-1.1 3.6-1.9 5.3s-1.7 3.3-2.8 4.9l-.9 1.1-1 1c-.7.7-1.4 1.3-2.3 1.8z" fill="#d3d5d6"/><path d="m222.3 151c.5 0 1.1-.3 1.6-.6s1-.8 1.4-1.2c.2-.2.4-.5.6-.7.2-.3.4-.5.6-.8.3-.6.7-1.1 1-1.7 1.2-2.3 2.1-4.8 2.8-7.3.3-1.3.7-2.5.9-3.8.3-1.3.5-2.6.7-3.9.5-2.6.7-5.2 1-7.9-.2 2.6-.4 5.3-.8 7.9-.1 1.3-.4 2.6-.6 3.9s-.5 2.6-.8 3.9c-.6 2.6-1.4 5.1-2.6 7.5-.3.6-.7 1.2-1 1.8-.2.3-.4.6-.6.8-.2.3-.4.6-.6.8-.4.5-1 1-1.5 1.4-.3.2-.6.4-.9.5-.3.2-.7.3-1.1.3z" fill="#d3d5d6"/><path d="m227.5 162c-2.2-2.2-2.4-2.6-3.4-8.5s-9.5-16-12.5-18.8.4-3.6-1.8-5.6c-2.2-1.9-2.2 1.1-6.5-1.1-4.2-2.2-18.6-9.7-19.8-9.7s0-3.8-1.4-3.4c-1.4.5-1.8 2.1-3.8 1.1s-13.8-2.6-14.6-2.6-4.1-3-2.6-8.2c-2.5 3-4.2 6.8-12.9 6.2s-21.7 3.2-26.1 3.5c-4.5.3-12.6 3.1-17.5-12.7 1.7 11.2 8.6 16 5.8 16.6s-3.5-1.5-5.3-2.4c.4 3.5-1.2 4.7-4.2 5.9s-17.8 12.1-18.8 14c-1 1.8-3.4 6.1-6.2 6.1s-.1 4.3-.1 6.4c0 2-4 3-4 3s-6.7 17.6-4.5 39c1.9-61.6 42.9-75.5 81-75.5 37 0 76.7 13.1 80.7 70.2.8-10-1.1-17.2-1.3-17.8-.4-.9 2-3.5-.2-5.7z" fill="#c2c4c6"/><path d="m143 108.4s-15.7-4.5-8.1 12.3-1.6 15.9-1.6 15.9 4.4-1.3 2.7-5.8-7.2-14.6-6.4-19.5c.7-4.9 9.3-10.9 13.4-2.9z" fill="#e8e8e8"/><path d="m167.1 110.1c-.1-.8.1-1.6.5-2.2.4-.7 1.1-1.2 1.8-1.6s1.4-.6 2.4-.7c1 .1 1.9.4 2.6 1 1.4 1.1 2.1 2.7 2.4 4.2s.3 3 .1 4.5-.7 2.9-1.4 4.2l-.5.9-.5.8c-.3.6-.6 1.1-.9 1.7-.5 1.2-1 2.5-.9 3.7 0 .6.2 1.2.6 1.7.4.4 1 .7 1.7.5l.1.3c-.7.2-1.5.1-2.1-.4s-.9-1.3-1-2c-.3-1.5 0-2.9.4-4.3.2-.7.5-1.3.8-2l.5-1 .4-.9c.5-1.2.8-2.4.9-3.6s-.1-2.5-.5-3.6-.9-2.1-1.6-2.8c-.3-.4-.7-.5-1.1-.7-.3-.1-1 0-1.6.1-1.1.2-2.2.8-2.7 2z" fill="#e8e8e8"/><path d="m226.2 158.7c.1-.8.6-1.4 1.3-1.9s1.5-.7 2.3-.8 1.5-.1 2.5.3c.9.4 1.6 1.1 2.1 1.9.9 1.6 1 3.2.7 4.8-.3 1.5-.8 3-1.6 4.2-.8 1.3-1.7 2.4-2.9 3.4l-.8.7-.8.6c-.5.4-1 .8-1.5 1.3-.9.9-1.8 1.9-2.2 3.1-.2.6-.3 1.2-.1 1.8s.7 1 1.4 1.1v.3c-.7 0-1.5-.4-1.8-1.1-.4-.7-.4-1.5-.2-2.2.3-1.5 1.1-2.7 2-3.8.4-.6.9-1.1 1.5-1.6l.8-.7.7-.7c.9-.9 1.6-1.9 2.1-3.1.5-1.1.8-2.3.8-3.5s-.1-2.3-.5-3.2c-.2-.5-.4-.7-.7-1-.3-.2-.9-.4-1.5-.5-1.1-.2-2.3-.1-3.3.9z" fill="#c2c4c6"/><path d="m124.5 110.5c-1.1.1-2.3-.2-3.3-.7-.5-.2-1-.5-1.5-.8s-.9-.7-1.4-1c-1.8-1.5-2.9-3.6-3.7-5.7-.5-1-.8-2.1-1.1-3.2s-.5-2.2-.7-3.2c-.1-1.1-.3-2.2-.4-3.3l-.1-3.3h.2l.5 3.2c.2 1.1.5 2.1.7 3.2.3 1 .6 2.1 1 3.1s.8 2 1.3 2.9c1 1.9 2.3 3.5 3.7 5s3 2.8 5 3.6z" fill="#fff"/><path d="m117.1 113.3c-1.8-.1-3.5-.9-4.9-1.9-1.5-1-2.5-2.5-3.4-4s-1.6-3.1-2.1-4.8c-.3-.8-.4-1.7-.6-2.5-.1-.8-.2-1.7-.3-2.5h.2c.2.8.4 1.6.7 2.4s.5 1.6.9 2.3c.6 1.5 1.5 2.9 2.5 4.3 1 1.3 2.2 2.3 3.4 3.4s2.4 2.1 3.8 3.2z" fill="#fff"/><path d="m219.4 140c2.2-2 3.7-4.6 4.8-7.3.3-.7.6-1.3.8-2s.6-1.3.8-2.1l.7-2.1.6-2.2c.2-.7.3-1.5.5-2.2l.4-2.2c.2-1.5.4-3 .5-4.5s.2-3 .3-4.5l.1-4.5h.2l.3 4.5c.1 1.5.1 3 .1 4.6 0 1.5-.2 3-.2 4.6l-.3 2.3c-.1.8-.2 1.5-.3 2.3-.5 3-1.2 6.1-2.7 8.9-.7 1.4-1.6 2.7-2.6 3.9s-2.3 2.2-3.7 2.8z" fill="#fff"/><path d="m78.9 137.1c-.9.1-1.7-.1-2.5-.5s-1.5-.9-2-1.5c-1.2-1.2-1.8-2.8-2.4-4.3-.3-.8-.5-1.5-.7-2.3s-.4-1.6-.5-2.3c-.1-.8-.3-1.6-.3-2.4l-.2-2.4h.2l.6 2.3c.2.8.4 1.5.7 2.2.2.7.5 1.5.8 2.2s.6 1.4.9 2.1c.7 1.4 1.6 2.6 2.4 3.7.9 1.2 1.8 2.3 3.2 3z" fill="#fff"/><path d="m190.9 114.8c.7-.5 1.2-1.3 1.6-2.1s.8-1.6 1-2.4c.3-.8.5-1.7.7-2.5.2-.9.4-1.7.5-2.6.6-3.5 1.1-7.1 1.2-10.7 0-1.8.2-3.6.1-5.4 0-1.8 0-3.6-.2-5.4-.1-3.6-.4-7.2-.7-10.9h.2c.5 3.6 1.1 7.2 1.5 10.8.2 1.8.3 3.6.4 5.5.2 1.8.1 3.7.2 5.5 0 3.7 0 7.4-.9 11-.2.9-.5 1.8-.8 2.7-.2.4-.3.9-.5 1.3s-.3.9-.6 1.3c-.2.4-.4.8-.7 1.2s-.5.8-.8 1.1c-.6.7-1.3 1.4-2.2 1.8z" fill="#fff"/><path d="m429.8 133.1s-20.6-39.7-85.8-26.2-84.3 77.3-82.2 114.1 10.4 58.7 27.4 84.4c16.8 25.3 9.4 41.8-3.3 46 0 0 73 51.7 148.8.7 0 0-18.4-5.7-16.3-20.6s29.1-33.3 45.4-64.5 23.4-119-34-133.9z" fill="#4c360d"/><path d="m304.4 402.8 116-9.5s18.8-13.9 17.2-16.5c-2.2-3.6-5.1-12-10.3-11.8-11 .4-42.9-19.4-42.6-30.1.3-12.3 0-32.3 0-32.3h-41.1v32.3c0 12.3-16.4 22.7-33.7 28.4s-26.4 12.3-26.4 12.3z" fill="url(#l)"/><path d="m447.1 209.5c0 59.8-28.1 108.8-82.7 108.8-54.5 0-84.8-49.5-84.8-109.4 0-59.8 31.2-65.9 85.8-65.9 54.5.1 81.7 6.7 81.7 66.5z" fill="#f4d89a"/><path d="m331.8 280.9c10.3 6.2 21.3 10.1 32.5 10 11.2 0 22-4.3 32.7-10-3.9 4.6-8.8 8.5-14.4 11.2-5.6 2.8-11.9 4.3-18.2 4.4-6.4 0-12.7-1.4-18.3-4.2-5.6-2.6-10.7-6.4-14.3-11.4z" fill="#c42c76"/><path d="m415.2 161.6s-2.5 18.7 7.7 46.4c11.2 30.4 23.2 41.6 34.6 33.6 0 0-12.3 4.2-8.9-8.9 4.6-17.7 14.1-47.7-.1-68.2-12.2-17.6-25.4-14.8-25.4-14.8s-10.6-36.1-58.7-36.6c-69-.7-116.4 86.2-80.6 146.1 0 0-11.7-46 12.8-48.9 24.4-2.9 112-33.5 118.7-50.2" fill="#5f3f12"/><path d="m418.4 166.4s-9.1 17.7-39.6 32.7c-24.3 11.9-52.2 13.8-79.2 13.1 0 0-9.2 15.6-8.5 41.1s13.6 52.5 13.6 52.5-50.3-75.8-11-137.1c46-71.7 117.7-36.5 128.6-15.2.1-.2.3 6.7-3.9 12.9z" fill="#754b1d"/><path d="m414.7 151.2c-8.3-2.9-16.8-4.9-25.2-6.5-8.5-1.5-17-2.3-25.5-2.1-17 .3-33.6 5.1-48.9 14 6.3-6.2 13.9-11.2 22.3-14.5 8.4-3.4 17.4-5 26.4-5.2 18.1-.2 36.1 4.6 50.9 14.3z" fill="#a26527"/><path d="m441.2 205.8c-2.9-3.6-5.3-7.6-7.4-11.7s-3.8-8.5-5.2-13c-2.6-9-5.4-27.7-5.4-27.7s14.2 3.8 19.9 14.5 5.3 22.8 5.3 22.8-3.1-10.8-7.8-18.1-9.4-8.5-11.3-10.6c0 0 1.8 11.2 3.5 19.8s5 15.4 8.4 24z" fill="#a26527"/><path d="m331.1 271.2c0 7.7-6.3 14-14 14s-14-6.3-14-14 6.3-14 14-14 14 6.3 14 14z" fill="url(#m)"/><path d="m420.5 271.2c0 7.7-6.3 14-14 14s-14-6.3-14-14 6.3-14 14-14 14 6.3 14 14z" fill="url(#n)"/><path d="m345 244.5c0 8.2-6.7 14.9-15 14.9s-15-6.7-15-14.9 6.7-14.9 15-14.9c8.2 0 15 6.7 15 14.9z" fill="#00ade9"/><path d="m341.1 244.5c0 5.7-4.7 10.4-10.4 10.4s-10.4-4.7-10.4-10.4 4.6-10.4 10.4-10.4 10.4 4.7 10.4 10.4z" fill="#234471"/><path d="m326.4 239.1c0 1.7-1.3 3-3 3s-3-1.4-3-3 1.3-3 3-3c1.6 0 3 1.3 3 3z" fill="#fff"/><path d="m385.3 244.5c0 8.2 6.7 14.9 15 14.9s15-6.7 15-14.9-6.7-14.9-15-14.9-15 6.7-15 14.9z" fill="#00ade9"/><path d="m389.2 244.5c0 5.7 4.7 10.4 10.4 10.4s10.4-4.7 10.4-10.4-4.6-10.4-10.4-10.4-10.4 4.7-10.4 10.4z" fill="#234471"/><path d="m389.8 239.1c0 1.7 1.3 3 3 3s3-1.4 3-3-1.3-3-3-3-3 1.3-3 3z" fill="#fff"/><circle cx="365" cy="354.9" fill="#00ade9" r="5.6"/><circle cx="367" cy="353.6" fill="#fffeef" opacity=".2" r="1.4"/><circle cx="354.7" cy="354.1" fill="#00ade9" r="4.7"/><circle cx="356.4" cy="353" fill="#fffeef" opacity=".2" r="1.2"/><circle cx="346.2" cy="351.3" fill="#00ade9" r="4.3"/><circle cx="347.8" cy="350.3" fill="#fffeef" opacity=".2" r="1.1"/><circle cx="340.2" cy="345.9" fill="#00ade9" r="3.7"/><circle cx="341.5" cy="345.1" fill="#fffeef" opacity=".2" r="1"/><circle cx="375.1" cy="353" fill="#00ade9" r="4.7"/><circle cx="375.8" cy="350.9" fill="#fffeef" opacity=".2" r="1.2"/><circle cx="383.6" cy="350.2" fill="#00ade9" r="4.3"/><circle cx="383.5" cy="348" fill="#fffeef" opacity=".2" r="1.1"/><circle cx="389.6" cy="344.9" fill="#00ade9" r="3.7"/><circle cx="389.2" cy="343.1" fill="#fffeef" opacity=".2" r="1"/><path d="m381.4 414.2 10.2-19.4h-56l14.2 19.4z" fill="#c42c76"/><path d="m361.9 414.2c-7.7-15.3-24-49.3-25.9-64.8-6.4 5.8-11.3 7.9-21.1 11.1-4.9 1.6-16.5 4.3-25.5 8-5.9 2.5-19.4 28.2-28.1 45.7z" fill="#f99d1c"/><path d="m471.3 414.2c-13.5-19.6-29.6-42.3-31.1-45-3.1-5.7-16.6-7.4-21.5-9.2-9.8-3.7-13.6-4.3-22.6-10.5-5 18.4-19.7 50.1-26.6 64.6h101.8z" fill="#f99d1c"/></svg>