<svg height="76" viewBox="0 0 48 76" width="48" xmlns="http://www.w3.org/2000/svg"><g fill="none" fill-rule="evenodd" transform="translate(0 -5)"><path d="m5.04266149 69.3803374h38.12168571v-59.2743442h-38.12168571z" fill="#1bb24b"/><path d="m-14.95 32h79.9v16h-79.9z" fill="#fff" transform="matrix(0 1 -1 0 65 15)"/><g transform="translate(0 5)"><path d="m44.1024763 36.6412014-22.4609128 32.2884908h5.0983279l17.3625849-24.4856358-2.5047075 23.857832-27.7009418 1.5091392 30.2056493-39.633421z" fill="#bfe1c7" opacity=".376516"/><g transform="translate(.400513 .320136)"><path d="m41.6513175 59.3808522c0 .4614347-.3725481.8354728-.8321446.8354728h-35.18814575c-.45959647 0-.83214462-.3740381-.83214462-.8354728v-53.47891705c.0515065-.31998573.23049742-.6523731.78390097-.6871211h11.6703009 23.5662051c.4594799 0 .8319115.37392117.832028.83535581v20.71050614zm-19.2466508 10.807913c-1.716961 0-3.1086853-1.3972905-3.1086853-3.1211186 0-1.7237111 1.3917243-3.1211186 3.1086853-3.1211186 1.7169611 0 3.1086854 1.3974075 3.1086854 3.1211186 0 1.7238281-1.3917243 3.1211186-3.1086854 3.1211186zm16.8117451-69.55273053h-.8321446-24.586663-6.56393248c-3.7170913 0-6.73033811 3.02529838-6.73033811 6.75725629v58.37042844c0 4.1933925 3.38591149 7.592729 7.56248273 7.592729h30.31845086c4.1766878 0 7.5624827-3.3993365 7.5624827-7.592729v-33.9201256l.0001166.000117v-24.45041984c0-3.73195791-3.0133634-6.75725629-6.7304547-6.75725629z" fill="#f0f0f0"/><path d="m25.5133754 67.06767c0 1.7237111-1.3918408 3.1211186-3.1086854 3.1211186-1.716961 0-3.1086853-1.3974075-3.1086853-3.1211186s1.3917243-3.1211186 3.1086853-3.1211186c1.7168446 0 3.1086854 1.3974075 3.1086854 3.1211186zm-15.4891234 6.2888018h28.3600385c4.1766878 0 7.5624827-3.3993365 7.5624827-7.592729v-33.9201256l.0001166.000117v-4.6410216l-4.2955489 5.5189642v26.6591988c0 .4614347-.3725482.8354728-.8322612.8354728h-20.5675245z" fill="#fff"/></g></g></g></svg>