<svg height="66" viewBox="0 0 65 66" width="65" xmlns="http://www.w3.org/2000/svg" xmlns:xlink="http://www.w3.org/1999/xlink"><linearGradient id="a" x1="53.367843%" x2="53.367843%" y1="102.595544%" y2=".000908%"><stop offset="0" stop-color="#fdddc8"/><stop offset="1" stop-color="#e9cdba"/></linearGradient><mask id="b" fill="#fff"><path d="m.01333884.15322314h64.76677686v64.76707436h-64.76677686z" fill="#fff" fill-rule="evenodd"/></mask><mask id="c" fill="#fff"><path d="m32.22.15371901c-17.8100826.08776859-32.22 14.55272729-32.22 32.38264459 0 17.8854546 14.4981818 32.3836364 32.3836364 32.3836364 17.8844628 0 32.3831405-14.4981818 32.3831405-32.3836364 0-17.8299173-14.4104133-32.294876-32.22-32.38264459z" fill="#fff" fill-rule="evenodd"/></mask><mask id="d" fill="#fff"><path d="m9.09322314.22958678h-.00495868-2.48231405v3.82859504c0 1.45487603-1.83768595 2.1476033-3.88264462 2.82942149-2.04694215.68181818-2.30578513 1.94727272-2.30578513 1.94727272s7.14595041 2.19570247 17.39752064.08975207-.2920661-1.27785124-2.3395041-1.95966942c-2.0449587-.68231405-3.8995041-1.45190083-3.8995041-2.90677686v-3.82859504z" fill="#fff" fill-rule="evenodd"/></mask><mask id="e" fill="#fff"><path d="m32.22.15371901c-17.8100826.08776859-32.22 14.55272729-32.22 32.38264459 0 17.8854546 14.4981818 32.3836364 32.3836364 32.3836364 17.8844628 0 32.3831405-14.4981818 32.3831405-32.3836364 0-17.8299173-14.4104133-32.294876-32.22-32.38264459" fill="#fff" fill-rule="evenodd"/></mask><mask id="f" fill="#fff"><path d="m32.22.15371901c-17.8100826.08776859-32.22 14.55272729-32.22 32.38264459 0 17.8854546 14.4981818 32.3836364 32.3836364 32.3836364 17.8844628 0 32.3831405-14.4981818 32.3831405-32.3836364 0-17.8299173-14.4104133-32.294876-32.22-32.38264459" fill="#fff" fill-rule="evenodd"/></mask><mask id="g" fill="#fff"><path d="m32.22.15371901c-17.8100826.08776859-32.22 14.55272729-32.22 32.38264459 0 17.8854546 14.4981818 32.3836364 32.3836364 32.3836364 17.8844628 0 32.3831405-14.4981818 32.3831405-32.3836364 0-17.8299173-14.4104133-32.294876-32.22-32.38264459" fill="#fff" fill-rule="evenodd"/></mask><mask id="h" fill="#fff"><path d="m32.22.15371901c-17.8100826.08776859-32.22 14.55272729-32.22 32.38264459 0 17.8854546 14.4981818 32.3836364 32.3836364 32.3836364 17.8844628 0 32.3831405-14.4981818 32.3831405-32.3836364 0-17.8299173-14.4104133-32.294876-32.22-32.38264459" fill="#fff" fill-rule="evenodd"/></mask><mask id="i" fill="#fff"><path d="m32.22.15371901c-17.8100826.08776859-32.22 14.55272729-32.22 32.38264459 0 17.8854546 14.4981818 32.3836364 32.3836364 32.3836364 17.8844628 0 32.3831405-14.4981818 32.3831405-32.3836364 0-17.8299173-14.4104133-32.294876-32.22-32.38264459" fill="#fff" fill-rule="evenodd"/></mask><mask id="j" fill="#fff"><path d="m32.22.15371901c-17.8100826.08776859-32.22 14.55272729-32.22 32.38264459 0 17.8854546 14.4981818 32.3836364 32.3836364 32.3836364 17.8844628 0 32.3831405-14.4981818 32.3831405-32.3836364 0-17.8299173-14.4104133-32.294876-32.22-32.38264459" fill="#fff" fill-rule="evenodd"/></mask><mask id="k" fill="#fff"><path d="m32.22.15371901c-17.8100826.08776859-32.22 14.55272729-32.22 32.38264459 0 17.8854546 14.4981818 32.3836364 32.3836364 32.3836364 17.8844628 0 32.3831405-14.4981818 32.3831405-32.3836364 0-17.8299173-14.4104133-32.294876-32.22-32.38264459" fill="#fff" fill-rule="evenodd"/></mask><mask id="l" fill="#fff"><path d="m32.22.15371901c-17.8100826.08776859-32.22 14.55272729-32.22 32.38264459 0 17.8854546 14.4981818 32.3836364 32.3836364 32.3836364 17.8844628 0 32.3831405-14.4981818 32.3831405-32.3836364 0-17.8299173-14.4104133-32.294876-32.22-32.38264459" fill="#fff" fill-rule="evenodd"/></mask><mask id="m" fill="#fff"><path d="m32.22.15371901c-17.8100826.08776859-32.22 14.55272729-32.22 32.38264459 0 17.8854546 14.4981818 32.3836364 32.3836364 32.3836364 17.8844628 0 32.3831405-14.4981818 32.3831405-32.3836364 0-17.8299173-14.4104133-32.294876-32.22-32.38264459" fill="#fff" fill-rule="evenodd"/></mask><mask id="n" fill="#fff"><path d="m32.22.15371901c-17.8100826.08776859-32.22 14.55272729-32.22 32.38264459 0 17.8854546 14.4981818 32.3836364 32.3836364 32.3836364 17.8844628 0 32.3831405-14.4981818 32.3831405-32.3836364 0-17.8299173-14.4104133-32.294876-32.22-32.38264459" fill="#fff" fill-rule="evenodd"/></mask><mask id="o" fill="#fff"><path d="m32.22.15371901c-17.8100826.08776859-32.22 14.55272729-32.22 32.38264459 0 17.8854546 14.4981818 32.3836364 32.3836364 32.3836364 17.8844628 0 32.3831405-14.4981818 32.3831405-32.3836364 0-17.8299173-14.4104133-32.294876-32.22-32.38264459" fill="#fff" fill-rule="evenodd"/></mask><mask id="p" fill="#fff"><path d="m32.22.15371901c-17.8100826.08776859-32.22 14.55272729-32.22 32.38264459 0 17.8854546 14.4981818 32.3836364 32.3836364 32.3836364 17.8844628 0 32.3831405-14.4981818 32.3831405-32.3836364 0-17.8299173-14.4104133-32.294876-32.22-32.38264459z" fill="#fff" fill-rule="evenodd"/></mask><mask id="q" fill="#fff"><path d="m32.22.15371901c-17.8100826.08776859-32.22 14.55272729-32.22 32.38264459 0 17.8854546 14.4981818 32.3836364 32.3836364 32.3836364 17.8844628 0 32.3831405-14.4981818 32.3831405-32.3836364 0-17.8299173-14.4104133-32.294876-32.22-32.38264459" fill="#fff" fill-rule="evenodd"/></mask><mask id="r" fill="#fff"><path d="m32.22.15371901c-17.8100826.08776859-32.22 14.55272729-32.22 32.38264459 0 17.8854546 14.4981818 32.3836364 32.3836364 32.3836364 17.8844628 0 32.3831405-14.4981818 32.3831405-32.3836364 0-17.8299173-14.4104133-32.294876-32.22-32.38264459z" fill="#fff" fill-rule="evenodd"/></mask><mask id="s" fill="#fff"><path d="m32.22.15371901c-17.8100826.08776859-32.22 14.55272729-32.22 32.38264459 0 17.8854546 14.4981818 32.3836364 32.3836364 32.3836364 17.8844628 0 32.3831405-14.4981818 32.3831405-32.3836364 0-17.8299173-14.4104133-32.294876-32.22-32.38264459" fill="#fff" fill-rule="evenodd"/></mask><mask id="t" fill="#fff"><path d="m32.22.15371901c-17.8100826.08776859-32.22 14.55272729-32.22 32.38264459 0 17.8854546 14.4981818 32.3836364 32.3836364 32.3836364 17.8844628 0 32.3831405-14.4981818 32.3831405-32.3836364 0-17.8299173-14.4104133-32.294876-32.22-32.38264459" fill="#fff" fill-rule="evenodd"/></mask><mask id="u" fill="#fff"><path d="m32.22.15371901c-17.8100826.08776859-32.22 14.55272729-32.22 32.38264459 0 17.8854546 14.4981818 32.3836364 32.3836364 32.3836364 17.8844628 0 32.3831405-14.4981818 32.3831405-32.3836364 0-17.8299173-14.4104133-32.294876-32.22-32.38264459z" fill="#fff" fill-rule="evenodd"/></mask><mask id="v" fill="#fff"><path d="m32.22.15371901c-17.8100826.08776859-32.22 14.55272729-32.22 32.38264459 0 17.8854546 14.4981818 32.3836364 32.3836364 32.3836364 17.8844628 0 32.3831405-14.4981818 32.3831405-32.3836364 0-17.8299173-14.4104133-32.294876-32.22-32.38264459" fill="#fff" fill-rule="evenodd"/></mask><mask id="w" fill="#fff"><path d="m32.22.15371901c-17.8100826.08776859-32.22 14.55272729-32.22 32.38264459 0 17.8854546 14.4981818 32.3836364 32.3836364 32.3836364 17.8844628 0 32.3831405-14.4981818 32.3831405-32.3836364 0-17.8299173-14.4104133-32.294876-32.22-32.38264459" fill="#fff" fill-rule="evenodd"/></mask><mask id="x" fill="#fff"><path d="m32.22.15371901c-17.8100826.08776859-32.22 14.55272729-32.22 32.38264459 0 17.8854546 14.4981818 32.3836364 32.3836364 32.3836364 17.8844628 0 32.3831405-14.4981818 32.3831405-32.3836364 0-17.8299173-14.4104133-32.294876-32.22-32.38264459" fill="#fff" fill-rule="evenodd"/></mask><mask id="y" fill="#fff"><path d="m32.22.15371901c-17.8100826.08776859-32.22 14.55272729-32.22 32.38264459 0 17.8854546 14.4981818 32.3836364 32.3836364 32.3836364 17.8844628 0 32.3831405-14.4981818 32.3831405-32.3836364 0-17.8299173-14.4104133-32.294876-32.22-32.38264459" fill="#fff" fill-rule="evenodd"/></mask><mask id="z" fill="#fff"><path d="m32.22.15371901c-17.8100826.08776859-32.22 14.55272729-32.22 32.38264459 0 17.8854546 14.4981818 32.3836364 32.3836364 32.3836364 17.8844628 0 32.3831405-14.4981818 32.3831405-32.3836364 0-17.8299173-14.4104133-32.294876-32.22-32.38264459" fill="#fff" fill-rule="evenodd"/></mask><mask id="A" fill="#fff"><path d="m32.22.15371901c-17.8100826.08776859-32.22 14.55272729-32.22 32.38264459 0 17.8854546 14.4981818 32.3836364 32.3836364 32.3836364 17.8844628 0 32.3831405-14.4981818 32.3831405-32.3836364 0-17.8299173-14.4104133-32.294876-32.22-32.38264459z" fill="#fff" fill-rule="evenodd"/></mask><mask id="B" fill="#fff"><path d="m32.22.15371901c-17.8100826.08776859-32.22 14.55272729-32.22 32.38264459 0 17.8854546 14.4981818 32.3836364 32.3836364 32.3836364 17.8844628 0 32.3831405-14.4981818 32.3831405-32.3836364 0-17.8299173-14.4104133-32.294876-32.22-32.38264459" fill="#fff" fill-rule="evenodd"/></mask><mask id="C" fill="#fff"><path d="m32.22.15371901c-17.8100826.08776859-32.22 14.55272729-32.22 32.38264459 0 17.8854546 14.4981818 32.3836364 32.3836364 32.3836364 17.8844628 0 32.3831405-14.4981818 32.3831405-32.3836364 0-17.8299173-14.4104133-32.294876-32.22-32.38264459" fill="#fff" fill-rule="evenodd"/></mask><mask id="D" fill="#fff"><path d="m32.22.15371901c-17.8100826.08776859-32.22 14.55272729-32.22 32.38264459 0 17.8854546 14.4981818 32.3836364 32.3836364 32.3836364 17.8844628 0 32.3831405-14.4981818 32.3831405-32.3836364 0-17.8299173-14.4104133-32.294876-32.22-32.38264459" fill="#fff" fill-rule="evenodd"/></mask><mask id="E" fill="#fff"><path d="m32.22.15371901c-17.8100826.08776859-32.22 14.55272729-32.22 32.38264459 0 17.8854546 14.4981818 32.3836364 32.3836364 32.3836364 17.8844628 0 32.3831405-14.4981818 32.3831405-32.3836364 0-17.8299173-14.4104133-32.294876-32.22-32.38264459z" fill="#fff" fill-rule="evenodd"/></mask><mask id="F" fill="#fff"><path d="m32.22.15371901c-17.8100826.08776859-32.22 14.55272729-32.22 32.38264459 0 17.8854546 14.4981818 32.3836364 32.3836364 32.3836364 17.8844628 0 32.3831405-14.4981818 32.3831405-32.3836364 0-17.8299173-14.4104133-32.294876-32.22-32.38264459" fill="#fff" fill-rule="evenodd"/></mask><mask id="G" fill="#fff"><path d="m32.22.15371901c-17.8100826.08776859-32.22 14.55272729-32.22 32.38264459 0 17.8854546 14.4981818 32.3836364 32.3836364 32.3836364 17.8844628 0 32.3831405-14.4981818 32.3831405-32.3836364 0-17.8299173-14.4104133-32.294876-32.22-32.38264459" fill="#fff" fill-rule="evenodd"/></mask><mask id="H" fill="#fff"><path d="m32.22.15371901c-17.8100826.08776859-32.22 14.55272729-32.22 32.38264459 0 17.8854546 14.4981818 32.3836364 32.3836364 32.3836364 17.8844628 0 32.3831405-14.4981818 32.3831405-32.3836364 0-17.8299173-14.4104133-32.294876-32.22-32.38264459" fill="#fff" fill-rule="evenodd"/></mask><mask id="I" fill="#fff"><path d="m32.22.15371901c-17.8100826.08776859-32.22 14.55272729-32.22 32.38264459 0 17.8854546 14.4981818 32.3836364 32.3836364 32.3836364 17.8844628 0 32.3831405-14.4981818 32.3831405-32.3836364 0-17.8299173-14.4104133-32.294876-32.22-32.38264459z" fill="#fff" fill-rule="evenodd"/></mask><mask id="J" fill="#fff"><path d="m32.22.15371901c-17.8100826.08776859-32.22 14.55272729-32.22 32.38264459 0 17.8854546 14.4981818 32.3836364 32.3836364 32.3836364 17.8844628 0 32.3831405-14.4981818 32.3831405-32.3836364 0-17.8299173-14.4104133-32.294876-32.22-32.38264459z" fill="#fff" fill-rule="evenodd"/></mask><mask id="K" fill="#fff"><path d="m32.22.15371901c-17.8100826.08776859-32.22 14.55272729-32.22 32.38264459 0 17.8854546 14.4981818 32.3836364 32.3836364 32.3836364 17.8844628 0 32.3831405-14.4981818 32.3831405-32.3836364 0-17.8299173-14.4104133-32.294876-32.22-32.38264459" fill="#fff" fill-rule="evenodd"/></mask><mask id="L" fill="#fff"><path d="m32.22.15371901c-17.8100826.08776859-32.22 14.55272729-32.22 32.38264459 0 17.8854546 14.4981818 32.3836364 32.3836364 32.3836364 17.8844628 0 32.3831405-14.4981818 32.3831405-32.3836364 0-17.8299173-14.4104133-32.294876-32.22-32.38264459" fill="#fff" fill-rule="evenodd"/></mask><mask id="M" fill="#fff"><path d="m32.22.15371901c-17.8100826.08776859-32.22 14.55272729-32.22 32.38264459 0 17.8854546 14.4981818 32.3836364 32.3836364 32.3836364 17.8844628 0 32.3831405-14.4981818 32.3831405-32.3836364 0-17.8299173-14.4104133-32.294876-32.22-32.38264459z" fill="#fff" fill-rule="evenodd"/></mask><mask id="N" fill="#fff"><path d="m32.22.15371901c-17.8100826.08776859-32.22 14.55272729-32.22 32.38264459 0 17.8854546 14.4981818 32.3836364 32.3836364 32.3836364 17.8844628 0 32.3831405-14.4981818 32.3831405-32.3836364 0-17.8299173-14.4104133-32.294876-32.22-32.38264459" fill="#fff" fill-rule="evenodd"/></mask><mask id="O" fill="#fff"><path d="m32.22.15371901c-17.8100826.08776859-32.22 14.55272729-32.22 32.38264459 0 17.8854546 14.4981818 32.3836364 32.3836364 32.3836364 17.8844628 0 32.3831405-14.4981818 32.3831405-32.3836364 0-17.8299173-14.4104133-32.294876-32.22-32.38264459z" fill="#fff" fill-rule="evenodd"/></mask><mask id="P" fill="#fff"><path d="m32.22.15371901c-17.8100826.08776859-32.22 14.55272729-32.22 32.38264459 0 17.8854546 14.4981818 32.3836364 32.3836364 32.3836364 17.8844628 0 32.3831405-14.4981818 32.3831405-32.3836364 0-17.8299173-14.4104133-32.294876-32.22-32.38264459z" fill="#fff" fill-rule="evenodd"/></mask><mask id="Q" fill="#fff"><path d="m32.22.15371901c-17.8100826.08776859-32.22 14.55272729-32.22 32.38264459 0 17.8854546 14.4981818 32.3836364 32.3836364 32.3836364 17.8844628 0 32.3831405-14.4981818 32.3831405-32.3836364 0-17.8299173-14.4104133-32.294876-32.22-32.38264459" fill="#fff" fill-rule="evenodd"/></mask><mask id="R" fill="#fff"><path d="m32.22.15371901c-17.8100826.08776859-32.22 14.55272729-32.22 32.38264459 0 17.8854546 14.4981818 32.3836364 32.3836364 32.3836364 17.8844628 0 32.3831405-14.4981818 32.3831405-32.3836364 0-17.8299173-14.4104133-32.294876-32.22-32.38264459" fill="#fff" fill-rule="evenodd"/></mask><mask id="S" fill="#fff"><path d="m32.22.15371901c-17.8100826.08776859-32.22 14.55272729-32.22 32.38264459 0 17.8854546 14.4981818 32.3836364 32.3836364 32.3836364 17.8844628 0 32.3831405-14.4981818 32.3831405-32.3836364 0-17.8299173-14.4104133-32.294876-32.22-32.38264459" fill="#fff" fill-rule="evenodd"/></mask><mask id="T" fill="#fff"><path d="m32.22.15371901c-17.8100826.08776859-32.22 14.55272729-32.22 32.38264459 0 17.8854546 14.4981818 32.3836364 32.3836364 32.3836364 17.8844628 0 32.3831405-14.4981818 32.3831405-32.3836364 0-17.8299173-14.4104133-32.294876-32.22-32.38264459z" fill="#fff" fill-rule="evenodd"/></mask><mask id="U" fill="#fff"><path d="m32.22.15371901c-17.8100826.08776859-32.22 14.55272729-32.22 32.38264459 0 17.8854546 14.4981818 32.3836364 32.3836364 32.3836364 17.8844628 0 32.3831405-14.4981818 32.3831405-32.3836364 0-17.8299173-14.4104133-32.294876-32.22-32.38264459" fill="#fff" fill-rule="evenodd"/></mask><mask id="V" fill="#fff"><path d="m32.22.15371901c-17.8100826.08776859-32.22 14.55272729-32.22 32.38264459 0 17.8854546 14.4981818 32.3836364 32.3836364 32.3836364 17.8844628 0 32.3831405-14.4981818 32.3831405-32.3836364 0-17.8299173-14.4104133-32.294876-32.22-32.38264459" fill="#fff" fill-rule="evenodd"/></mask><mask id="W" fill="#fff"><path d="m32.22.15371901c-17.8100826.08776859-32.22 14.55272729-32.22 32.38264459 0 17.8854546 14.4981818 32.3836364 32.3836364 32.3836364 17.8844628 0 32.3831405-14.4981818 32.3831405-32.3836364 0-17.8299173-14.4104133-32.294876-32.22-32.38264459" fill="#fff" fill-rule="evenodd"/></mask><mask id="X" fill="#fff"><path d="m32.22.15371901c-17.8100826.08776859-32.22 14.55272729-32.22 32.38264459 0 17.8854546 14.4981818 32.3836364 32.3836364 32.3836364 17.8844628 0 32.3831405-14.4981818 32.3831405-32.3836364 0-17.8299173-14.4104133-32.294876-32.22-32.38264459" fill="#fff" fill-rule="evenodd"/></mask><mask id="Y" fill="#fff"><path d="m32.22.15371901c-17.8100826.08776859-32.22 14.55272729-32.22 32.38264459 0 17.8854546 14.4981818 32.3836364 32.3836364 32.3836364 17.8844628 0 32.3831405-14.4981818 32.3831405-32.3836364 0-17.8299173-14.4104133-32.294876-32.22-32.38264459" fill="#fff" fill-rule="evenodd"/></mask><mask id="Z" fill="#fff"><path d="m32.22.15371901c-17.8100826.08776859-32.22 14.55272729-32.22 32.38264459 0 17.8854546 14.4981818 32.3836364 32.3836364 32.3836364 17.8844628 0 32.3831405-14.4981818 32.3831405-32.3836364 0-17.8299173-14.4104133-32.294876-32.22-32.38264459" fill="#fff" fill-rule="evenodd"/></mask><mask id="aa" fill="#fff"><path d="m32.22.15371901c-17.8100826.08776859-32.22 14.55272729-32.22 32.38264459 0 17.8854546 14.4981818 32.3836364 32.3836364 32.3836364 17.8844628 0 32.3831405-14.4981818 32.3831405-32.3836364 0-17.8299173-14.4104133-32.294876-32.22-32.38264459" fill="#fff" fill-rule="evenodd"/></mask><mask id="ab" fill="#fff"><path d="m32.22.15371901c-17.8100826.08776859-32.22 14.55272729-32.22 32.38264459 0 17.8854546 14.4981818 32.3836364 32.3836364 32.3836364 17.8844628 0 32.3831405-14.4981818 32.3831405-32.3836364 0-17.8299173-14.4104133-32.294876-32.22-32.38264459z" fill="#fff" fill-rule="evenodd"/></mask><mask id="ac" fill="#fff"><path d="m32.22.15371901c-17.8100826.08776859-32.22 14.55272729-32.22 32.38264459 0 17.8854546 14.4981818 32.3836364 32.3836364 32.3836364 17.8844628 0 32.3831405-14.4981818 32.3831405-32.3836364 0-17.8299173-14.4104133-32.294876-32.22-32.38264459z" fill="#fff" fill-rule="evenodd"/></mask><mask id="ad" fill="#fff"><path d="m32.22.15371901c-17.8100826.08776859-32.22 14.55272729-32.22 32.38264459 0 17.8854546 14.4981818 32.3836364 32.3836364 32.3836364 17.8844628 0 32.3831405-14.4981818 32.3831405-32.3836364 0-17.8299173-14.4104133-32.294876-32.22-32.38264459z" fill="#fff" fill-rule="evenodd"/></mask><mask id="ae" fill="#fff"><path d="m32.22.15371901c-17.8100826.08776859-32.22 14.55272729-32.22 32.38264459 0 17.8854546 14.4981818 32.3836364 32.3836364 32.3836364 17.8844628 0 32.3831405-14.4981818 32.3831405-32.3836364 0-17.8299173-14.4104133-32.294876-32.22-32.38264459z" fill="#fff" fill-rule="evenodd"/></mask><mask id="af" fill="#fff"><path d="m32.22.15371901c-17.8100826.08776859-32.22 14.55272729-32.22 32.38264459 0 17.8854546 14.4981818 32.3836364 32.3836364 32.3836364 17.8844628 0 32.3831405-14.4981818 32.3831405-32.3836364 0-17.8299173-14.4104133-32.294876-32.22-32.38264459z" fill="#fff" fill-rule="evenodd"/></mask><mask id="ag" fill="#fff"><path d="m32.22.15371901c-17.8100826.08776859-32.22 14.55272729-32.22 32.38264459 0 17.8854546 14.4981818 32.3836364 32.3836364 32.3836364 17.8844628 0 32.3831405-14.4981818 32.3831405-32.3836364 0-17.8299173-14.4104133-32.294876-32.22-32.38264459" fill="#fff" fill-rule="evenodd"/></mask><mask id="ah" fill="#fff"><path d="m32.22.15371901c-17.8100826.08776859-32.22 14.55272729-32.22 32.38264459 0 17.8854546 14.4981818 32.3836364 32.3836364 32.3836364 17.8844628 0 32.3831405-14.4981818 32.3831405-32.3836364 0-17.8299173-14.4104133-32.294876-32.22-32.38264459z" fill="#fff" fill-rule="evenodd"/></mask><mask id="ai" fill="#fff"><path d="m32.22.15371901c-17.8100826.08776859-32.22 14.55272729-32.22 32.38264459 0 17.8854546 14.4981818 32.3836364 32.3836364 32.3836364 17.8844628 0 32.3831405-14.4981818 32.3831405-32.3836364 0-17.8299173-14.4104133-32.294876-32.22-32.38264459z" fill="#fff" fill-rule="evenodd"/></mask><mask id="aj" fill="#fff"><path d="m32.22.15371901c-17.8100826.08776859-32.22 14.55272729-32.22 32.38264459 0 17.8854546 14.4981818 32.3836364 32.3836364 32.3836364 17.8844628 0 32.3831405-14.4981818 32.3831405-32.3836364 0-17.8299173-14.4104133-32.294876-32.22-32.38264459" fill="#fff" fill-rule="evenodd"/></mask><mask id="ak" fill="#fff"><path d="m32.22.15371901c-17.8100826.08776859-32.22 14.55272729-32.22 32.38264459 0 17.8854546 14.4981818 32.3836364 32.3836364 32.3836364 17.8844628 0 32.3831405-14.4981818 32.3831405-32.3836364 0-17.8299173-14.4104133-32.294876-32.22-32.38264459" fill="#fff" fill-rule="evenodd"/></mask><mask id="al" fill="#fff"><path d="m32.22.15371901c-17.8100826.08776859-32.22 14.55272729-32.22 32.38264459 0 17.8854546 14.4981818 32.3836364 32.3836364 32.3836364 17.8844628 0 32.3831405-14.4981818 32.3831405-32.3836364 0-17.8299173-14.4104133-32.294876-32.22-32.38264459z" fill="#fff" fill-rule="evenodd"/></mask><mask id="am" fill="#fff"><path d="m32.22.15371901c-17.8100826.08776859-32.22 14.55272729-32.22 32.38264459 0 17.8854546 14.4981818 32.3836364 32.3836364 32.3836364 17.8844628 0 32.3831405-14.4981818 32.3831405-32.3836364 0-17.8299173-14.4104133-32.294876-32.22-32.38264459z" fill="#fff" fill-rule="evenodd"/></mask><mask id="an" fill="#fff"><path d="m32.22.15371901c-17.8100826.08776859-32.22 14.55272729-32.22 32.38264459 0 17.8854546 14.4981818 32.3836364 32.3836364 32.3836364 17.8844628 0 32.3831405-14.4981818 32.3831405-32.3836364 0-17.8299173-14.4104133-32.294876-32.22-32.38264459z" fill="#fff" fill-rule="evenodd"/></mask><mask id="ao" fill="#fff"><path d="m32.22.15371901c-17.8100826.08776859-32.22 14.55272729-32.22 32.38264459 0 17.8854546 14.4981818 32.3836364 32.3836364 32.3836364 17.8844628 0 32.3831405-14.4981818 32.3831405-32.3836364 0-17.8299173-14.4104133-32.294876-32.22-32.38264459z" fill="#fff" fill-rule="evenodd"/></mask><mask id="ap" fill="#fff"><path d="m32.22.15371901c-17.8100826.08776859-32.22 14.55272729-32.22 32.38264459 0 17.8854546 14.4981818 32.3836364 32.3836364 32.3836364 17.8844628 0 32.3831405-14.4981818 32.3831405-32.3836364 0-17.8299173-14.4104133-32.294876-32.22-32.38264459z" fill="#fff" fill-rule="evenodd"/></mask><mask id="aq" fill="#fff"><path d="m32.22.15371901c-17.8100826.08776859-32.22 14.55272729-32.22 32.38264459 0 17.8854546 14.4981818 32.3836364 32.3836364 32.3836364 17.8844628 0 32.3831405-14.4981818 32.3831405-32.3836364 0-17.8299173-14.4104133-32.294876-32.22-32.38264459" fill="#fff" fill-rule="evenodd"/></mask><mask id="ar" fill="#fff"><path d="m32.22.15371901c-17.8100826.08776859-32.22 14.55272729-32.22 32.38264459 0 17.8854546 14.4981818 32.3836364 32.3836364 32.3836364 17.8844628 0 32.3831405-14.4981818 32.3831405-32.3836364 0-17.8299173-14.4104133-32.294876-32.22-32.38264459z" fill="#fff" fill-rule="evenodd"/></mask><mask id="as" fill="#fff"><path d="m32.22.15371901c-17.8100826.08776859-32.22 14.55272729-32.22 32.38264459 0 17.8854546 14.4981818 32.3836364 32.3836364 32.3836364 17.8844628 0 32.3831405-14.4981818 32.3831405-32.3836364 0-17.8299173-14.4104133-32.294876-32.22-32.38264459z" fill="#fff" fill-rule="evenodd"/></mask><mask id="at" fill="#fff"><path d="m32.22.15371901c-17.8100826.08776859-32.22 14.55272729-32.22 32.38264459 0 17.8854546 14.4981818 32.3836364 32.3836364 32.3836364 17.8844628 0 32.3831405-14.4981818 32.3831405-32.3836364 0-17.8299173-14.4104133-32.294876-32.22-32.38264459z" fill="#fff" fill-rule="evenodd"/></mask><mask id="au" fill="#fff"><path d="m32.22.15371901c-17.8100826.08776859-32.22 14.55272729-32.22 32.38264459 0 17.8854546 14.4981818 32.3836364 32.3836364 32.3836364 17.8844628 0 32.3831405-14.4981818 32.3831405-32.3836364 0-17.8299173-14.4104133-32.294876-32.22-32.38264459z" fill="#fff" fill-rule="evenodd"/></mask><mask id="av" fill="#fff"><path d="m32.22.15371901c-17.8100826.08776859-32.22 14.55272729-32.22 32.38264459 0 17.8854546 14.4981818 32.3836364 32.3836364 32.3836364 17.8844628 0 32.3831405-14.4981818 32.3831405-32.3836364 0-17.8299173-14.4104133-32.294876-32.22-32.38264459z" fill="#fff" fill-rule="evenodd"/></mask><mask id="aw" fill="#fff"><path d="m32.22.15371901c-17.8100826.08776859-32.22 14.55272729-32.22 32.38264459 0 17.8854546 14.4981818 32.3836364 32.3836364 32.3836364 17.8844628 0 32.3831405-14.4981818 32.3831405-32.3836364 0-17.8299173-14.4104133-32.294876-32.22-32.38264459z" fill="#fff" fill-rule="evenodd"/></mask><mask id="ax" fill="#fff"><path d="m32.22.15371901c-17.8100826.08776859-32.22 14.55272729-32.22 32.38264459 0 17.8854546 14.4981818 32.3836364 32.3836364 32.3836364 17.8844628 0 32.3831405-14.4981818 32.3831405-32.3836364 0-17.8299173-14.4104133-32.294876-32.22-32.38264459z" fill="#fff" fill-rule="evenodd"/></mask><mask id="ay" fill="#fff"><path d="m32.22.15371901c-17.8100826.08776859-32.22 14.55272729-32.22 32.38264459 0 17.8854546 14.4981818 32.3836364 32.3836364 32.3836364 17.8844628 0 32.3831405-14.4981818 32.3831405-32.3836364 0-17.8299173-14.4104133-32.294876-32.22-32.38264459z" fill="#fff" fill-rule="evenodd"/></mask><mask id="az" fill="#fff"><path d="m32.22.15371901c-17.8100826.08776859-32.22 14.55272729-32.22 32.38264459 0 17.8854546 14.4981818 32.3836364 32.3836364 32.3836364 17.8844628 0 32.3831405-14.4981818 32.3831405-32.3836364 0-17.8299173-14.4104133-32.294876-32.22-32.38264459z" fill="#fff" fill-rule="evenodd"/></mask><mask id="aA" fill="#fff"><path d="m32.22.15371901c-17.8100826.08776859-32.22 14.55272729-32.22 32.38264459 0 17.8854546 14.4981818 32.3836364 32.3836364 32.3836364 17.8844628 0 32.3831405-14.4981818 32.3831405-32.3836364 0-17.8299173-14.4104133-32.294876-32.22-32.38264459z" fill="#fff" fill-rule="evenodd"/></mask><mask id="aB" fill="#fff"><path d="m32.22.15371901c-17.8100826.08776859-32.22 14.55272729-32.22 32.38264459 0 17.8854546 14.4981818 32.3836364 32.3836364 32.3836364 17.8844628 0 32.3831405-14.4981818 32.3831405-32.3836364 0-17.8299173-14.4104133-32.294876-32.22-32.38264459z" fill="#fff" fill-rule="evenodd"/></mask><mask id="aC" fill="#fff"><path d="m32.22.15371901c-17.8100826.08776859-32.22 14.55272729-32.22 32.38264459 0 17.8854546 14.4981818 32.3836364 32.3836364 32.3836364 17.8844628 0 32.3831405-14.4981818 32.3831405-32.3836364 0-17.8299173-14.4104133-32.294876-32.22-32.38264459z" fill="#fff" fill-rule="evenodd"/></mask><mask id="aD" fill="#fff"><path d="m32.22.15371901c-17.8100826.08776859-32.22 14.55272729-32.22 32.38264459 0 17.8854546 14.4981818 32.3836364 32.3836364 32.3836364 17.8844628 0 32.3831405-14.4981818 32.3831405-32.3836364 0-17.8299173-14.4104133-32.294876-32.22-32.38264459z" fill="#fff" fill-rule="evenodd"/></mask><mask id="aE" fill="#fff"><path d="m32.22.15371901c-17.8100826.08776859-32.22 14.55272729-32.22 32.38264459 0 17.8854546 14.4981818 32.3836364 32.3836364 32.3836364 17.8844628 0 32.3831405-14.4981818 32.3831405-32.3836364 0-17.8299173-14.4104133-32.294876-32.22-32.38264459" fill="#fff" fill-rule="evenodd"/></mask><mask id="aF" fill="#fff"><path d="m32.22.15371901c-17.8100826.08776859-32.22 14.55272729-32.22 32.38264459 0 17.8854546 14.4981818 32.3836364 32.3836364 32.3836364 17.8844628 0 32.3831405-14.4981818 32.3831405-32.3836364 0-17.8299173-14.4104133-32.294876-32.22-32.38264459z" fill="#fff" fill-rule="evenodd"/></mask><mask id="aG" fill="#fff"><path d="m32.22.15371901c-17.8100826.08776859-32.22 14.55272729-32.22 32.38264459 0 17.8854546 14.4981818 32.3836364 32.3836364 32.3836364 17.8844628 0 32.3831405-14.4981818 32.3831405-32.3836364 0-17.8299173-14.4104133-32.294876-32.22-32.38264459z" fill="#fff" fill-rule="evenodd"/></mask><mask id="aH" fill="#fff"><path d="m32.22.15371901c-17.8100826.08776859-32.22 14.55272729-32.22 32.38264459 0 17.8854546 14.4981818 32.3836364 32.3836364 32.3836364 17.8844628 0 32.3831405-14.4981818 32.3831405-32.3836364 0-17.8299173-14.4104133-32.294876-32.22-32.38264459z" fill="#fff" fill-rule="evenodd"/></mask><mask id="aI" fill="#fff"><path d="m32.22.15371901c-17.8100826.08776859-32.22 14.55272729-32.22 32.38264459 0 17.8854546 14.4981818 32.3836364 32.3836364 32.3836364 17.8844628 0 32.3831405-14.4981818 32.3831405-32.3836364 0-17.8299173-14.4104133-32.294876-32.22-32.38264459" fill="#fff" fill-rule="evenodd"/></mask><mask id="aJ" fill="#fff"><path d="m32.22.15371901c-17.8100826.08776859-32.22 14.55272729-32.22 32.38264459 0 17.8854546 14.4981818 32.3836364 32.3836364 32.3836364 17.8844628 0 32.3831405-14.4981818 32.3831405-32.3836364 0-17.8299173-14.4104133-32.294876-32.22-32.38264459z" fill="#fff" fill-rule="evenodd"/></mask><mask id="aK" fill="#fff"><path d="m32.22.15371901c-17.8100826.08776859-32.22 14.55272729-32.22 32.38264459 0 17.8854546 14.4981818 32.3836364 32.3836364 32.3836364 17.8844628 0 32.3831405-14.4981818 32.3831405-32.3836364 0-17.8299173-14.4104133-32.294876-32.22-32.38264459z" fill="#fff" fill-rule="evenodd"/></mask><mask id="aL" fill="#fff"><path d="m32.22.15371901c-17.8100826.08776859-32.22 14.55272729-32.22 32.38264459 0 17.8854546 14.4981818 32.3836364 32.3836364 32.3836364 17.8844628 0 32.3831405-14.4981818 32.3831405-32.3836364 0-17.8299173-14.4104133-32.294876-32.22-32.38264459z" fill="#fff" fill-rule="evenodd"/></mask><mask id="aM" fill="#fff"><path d="m32.22.15371901c-17.8100826.08776859-32.22 14.55272729-32.22 32.38264459 0 17.8854546 14.4981818 32.3836364 32.3836364 32.3836364 17.8844628 0 32.3831405-14.4981818 32.3831405-32.3836364 0-17.8299173-14.4104133-32.294876-32.22-32.38264459z" fill="#fff" fill-rule="evenodd"/></mask><mask id="aN" fill="#fff"><path d="m32.22.15371901c-17.8100826.08776859-32.22 14.55272729-32.22 32.38264459 0 17.8854546 14.4981818 32.3836364 32.3836364 32.3836364 17.8844628 0 32.3831405-14.4981818 32.3831405-32.3836364 0-17.8299173-14.4104133-32.294876-32.22-32.38264459z" fill="#fff" fill-rule="evenodd"/></mask><mask id="aO" fill="#fff"><path d="m32.22.15371901c-17.8100826.08776859-32.22 14.55272729-32.22 32.38264459 0 17.8854546 14.4981818 32.3836364 32.3836364 32.3836364 17.8844628 0 32.3831405-14.4981818 32.3831405-32.3836364 0-17.8299173-14.4104133-32.294876-32.22-32.38264459z" fill="#fff" fill-rule="evenodd"/></mask><mask id="aP" fill="#fff"><path d="m15.5900826.48198347h-.0049586-2.2160331v3.41752066c0 1.29818182-1.3919008 1.9170248-3.2171901 2.52595042-1.8272727.60842975-2.05834708 1.73801652-2.05834708 1.73801652l-7.76677686 13.26495873c.95008264.1408264 1.91256198.24 2.88743802.2965289l5.99504132-8.6157025 1.233719 6.5390083h6.2454546c1.4196694-.5434711 2.7917355-1.1841323 4.1072727-1.9140496.2955372-3.8023141-.1690909-5.2755372-.1690909-5.2755372l2.2750413 4.0001653c.892562-.5876033 1.7543802-1.218843 2.5819835-1.8892562l-2.7287604-6.32628101s-.2608264-1.14049587-2.0880991-1.74892562c-1.8257852-.60942149-2.8611571-1.29669422-2.8611571-2.59487604v-3.41752066z" fill="#fff" fill-rule="evenodd"/></mask><mask id="aQ" fill="#fff"><path d="m32.22.15371901c-17.8100826.08776859-32.22 14.55272729-32.22 32.38264459 0 17.8854546 14.4981818 32.3836364 32.3836364 32.3836364 17.8844628 0 32.3831405-14.4981818 32.3831405-32.3836364 0-17.8299173-14.4104133-32.294876-32.22-32.38264459" fill="#fff" fill-rule="evenodd"/></mask><mask id="aR" fill="#fff"><path d="m32.22.15371901c-17.8100826.08776859-32.22 14.55272729-32.22 32.38264459 0 17.8854546 14.4981818 32.3836364 32.3836364 32.3836364 17.8844628 0 32.3831405-14.4981818 32.3831405-32.3836364 0-17.8299173-14.4104133-32.294876-32.22-32.38264459" fill="#fff" fill-rule="evenodd"/></mask><mask id="aS" fill="#fff"><path d="m32.22.15371901c-17.8100826.08776859-32.22 14.55272729-32.22 32.38264459 0 17.8854546 14.4981818 32.3836364 32.3836364 32.3836364 17.8844628 0 32.3831405-14.4981818 32.3831405-32.3836364 0-17.8299173-14.4104133-32.294876-32.22-32.38264459" fill="#fff" fill-rule="evenodd"/></mask><mask id="aT" fill="#fff"><path d="m32.22.15371901c-17.8100826.08776859-32.22 14.55272729-32.22 32.38264459 0 17.8854546 14.4981818 32.3836364 32.3836364 32.3836364 17.8844628 0 32.3831405-14.4981818 32.3831405-32.3836364 0-17.8299173-14.4104133-32.294876-32.22-32.38264459" fill="#fff" fill-rule="evenodd"/></mask><mask id="aU" fill="#fff"><path d="m32.22.15371901c-17.8100826.08776859-32.22 14.55272729-32.22 32.38264459 0 17.8854546 14.4981818 32.3836364 32.3836364 32.3836364 17.8844628 0 32.3831405-14.4981818 32.3831405-32.3836364 0-17.8299173-14.4104133-32.294876-32.22-32.38264459" fill="#fff" fill-rule="evenodd"/></mask><mask id="aV" fill="#fff"><path d="m32.22.15371901c-17.8100826.08776859-32.22 14.55272729-32.22 32.38264459 0 17.8854546 14.4981818 32.3836364 32.3836364 32.3836364 17.8844628 0 32.3831405-14.4981818 32.3831405-32.3836364 0-17.8299173-14.4104133-32.294876-32.22-32.38264459" fill="#fff" fill-rule="evenodd"/></mask><mask id="aW" fill="#fff"><path d="m32.22.15371901c-17.8100826.08776859-32.22 14.55272729-32.22 32.38264459 0 17.8854546 14.4981818 32.3836364 32.3836364 32.3836364 17.8844628 0 32.3831405-14.4981818 32.3831405-32.3836364 0-17.8299173-14.4104133-32.294876-32.22-32.38264459" fill="#fff" fill-rule="evenodd"/></mask><mask id="aX" fill="#fff"><path d="m32.22.15371901c-17.8100826.08776859-32.22 14.55272729-32.22 32.38264459 0 17.8854546 14.4981818 32.3836364 32.3836364 32.3836364 17.8844628 0 32.3831405-14.4981818 32.3831405-32.3836364 0-17.8299173-14.4104133-32.294876-32.22-32.38264459" fill="#fff" fill-rule="evenodd"/></mask><mask id="aY" fill="#fff"><path d="m32.22.15371901c-17.8100826.08776859-32.22 14.55272729-32.22 32.38264459 0 17.8854546 14.4981818 32.3836364 32.3836364 32.3836364 17.8844628 0 32.3831405-14.4981818 32.3831405-32.3836364 0-17.8299173-14.4104133-32.294876-32.22-32.38264459z" fill="#fff" fill-rule="evenodd"/></mask><mask id="aZ" fill="#fff"><path d="m32.22.15371901c-17.8100826.08776859-32.22 14.55272729-32.22 32.38264459 0 17.8854546 14.4981818 32.3836364 32.3836364 32.3836364 17.8844628 0 32.3831405-14.4981818 32.3831405-32.3836364 0-17.8299173-14.4104133-32.294876-32.22-32.38264459" fill="#fff" fill-rule="evenodd"/></mask><mask id="a0" fill="#fff"><path d="m32.22.15371901c-17.8100826.08776859-32.22 14.55272729-32.22 32.38264459 0 17.8854546 14.4981818 32.3836364 32.3836364 32.3836364 17.8844628 0 32.3831405-14.4981818 32.3831405-32.3836364 0-17.8299173-14.4104133-32.294876-32.22-32.38264459z" fill="#fff" fill-rule="evenodd"/></mask><mask id="a1" fill="#fff"><path d="m32.22.15371901c-17.8100826.08776859-32.22 14.55272729-32.22 32.38264459 0 17.8854546 14.4981818 32.3836364 32.3836364 32.3836364 17.8844628 0 32.3831405-14.4981818 32.3831405-32.3836364 0-17.8299173-14.4104133-32.294876-32.22-32.38264459" fill="#fff" fill-rule="evenodd"/></mask><mask id="a2" fill="#fff"><path d="m32.22.15371901c-17.8100826.08776859-32.22 14.55272729-32.22 32.38264459 0 17.8854546 14.4981818 32.3836364 32.3836364 32.3836364 17.8844628 0 32.3831405-14.4981818 32.3831405-32.3836364 0-17.8299173-14.4104133-32.294876-32.22-32.38264459z" fill="#fff" fill-rule="evenodd"/></mask><mask id="a3" fill="#fff"><path d="m32.22.15371901c-17.8100826.08776859-32.22 14.55272729-32.22 32.38264459 0 17.8854546 14.4981818 32.3836364 32.3836364 32.3836364 17.8844628 0 32.3831405-14.4981818 32.3831405-32.3836364 0-17.8299173-14.4104133-32.294876-32.22-32.38264459z" fill="#fff" fill-rule="evenodd"/></mask><mask id="a4" fill="#fff"><path d="m32.22.15371901c-17.8100826.08776859-32.22 14.55272729-32.22 32.38264459 0 17.8854546 14.4981818 32.3836364 32.3836364 32.3836364 17.8844628 0 32.3831405-14.4981818 32.3831405-32.3836364 0-17.8299173-14.4104133-32.294876-32.22-32.38264459z" fill="#fff" fill-rule="evenodd"/></mask><mask id="a5" fill="#fff"><path d="m32.22.15371901c-17.8100826.08776859-32.22 14.55272729-32.22 32.38264459 0 17.8854546 14.4981818 32.3836364 32.3836364 32.3836364 17.8844628 0 32.3831405-14.4981818 32.3831405-32.3836364 0-17.8299173-14.4104133-32.294876-32.22-32.38264459" fill="#fff" fill-rule="evenodd"/></mask><mask id="a6" fill="#fff"><path d="m32.22.15371901c-17.8100826.08776859-32.22 14.55272729-32.22 32.38264459 0 17.8854546 14.4981818 32.3836364 32.3836364 32.3836364 17.8844628 0 32.3831405-14.4981818 32.3831405-32.3836364 0-17.8299173-14.4104133-32.294876-32.22-32.38264459z" fill="#fff" fill-rule="evenodd"/></mask><mask id="a7" fill="#fff"><path d="m32.22.15371901c-17.8100826.08776859-32.22 14.55272729-32.22 32.38264459 0 17.8854546 14.4981818 32.3836364 32.3836364 32.3836364 17.8844628 0 32.3831405-14.4981818 32.3831405-32.3836364 0-17.8299173-14.4104133-32.294876-32.22-32.38264459" fill="#fff" fill-rule="evenodd"/></mask><mask id="a8" fill="#fff"><path d="m32.22.15371901c-17.8100826.08776859-32.22 14.55272729-32.22 32.38264459 0 17.8854546 14.4981818 32.3836364 32.3836364 32.3836364 17.8844628 0 32.3831405-14.4981818 32.3831405-32.3836364 0-17.8299173-14.4104133-32.294876-32.22-32.38264459" fill="#fff" fill-rule="evenodd"/></mask><g fill="none" fill-rule="evenodd"><g transform="translate(0 .342645)"><path d="m64.7801157 32.5366612c0 17.8849586-14.4986777 32.3836363-32.3836364 32.3836363-17.8849586 0-32.38314046-14.4986777-32.38314046-32.3836363 0-17.8844629 14.49818186-32.38363641 32.38314046-32.38363641 17.8849587 0 32.3836364 14.49917351 32.3836364 32.38363641" fill="#d94721" mask="url(#b)"/><path d="m4.20386777 16.5962479 54.03272723 35.46c4.106281-5.4277686 6.5434711-12.1884297 6.5434711-19.5198347 0-17.8844628-14.4986777-32.38314047-32.3836363-32.38314047-12.0892562 0-22.6299174 6.62578512-28.19256203 16.44297517" fill="#f05a24"/></g><path d="m20.0561157 50.755438s-.4740496-2.4763636-.1502479-2.7079339c.3242975-.2315702 4.3864462-.8335537 6.1457851-.1388429l.2082645 2.8467768-5.4163637 2.4535537z" fill="#8a6111" mask="url(#c)" transform="translate(0 .342645)"/><path d="m9.09322314.22958678h-.00495868-2.48231405v3.82859504c0 1.45487603-1.83768595 2.1476033-3.88264462 2.82942149-2.04694215.68181818-2.30578513 1.94727272-2.30578513 1.94727272s7.14595041 2.19570247 17.39752064.08975207-.2920661-1.27785124-2.3395041-1.95966942c-2.0449587-.68231405-3.8995041-1.45190083-3.8995041-2.90677686v-3.82859504z" mask="url(#d)" transform="translate(13.884298 43.979009)"/><g transform="translate(0 .342645)"><path d="m11.9624628 63.0475041h.2935537l3.1145455-4.5168595s.1323967 2.1560331.288595 4.5168595l14.0672728 1.7360331c.1998347-2.5993389.5315702-6.7795041.5315702-6.7795041l4.4672727 8.4421487 2.9528926-.7616529c-2.0161984-4.9680991-5.7644628-14.107438-6.1046281-14.561157-.5553719-.7403306-4.4801653-1.6527273-4.4801653-1.6527273l-1.3021488 1.7191736-2.5522314 5.9890909-2.7689256-5.598843-1.7097521-2.0047934s-3.5747107.8077686-3.9451239.9927273c-.2380165.1185124-4.1727273 7.3279339-6.96297522 12.4795041" fill="#8a6111" mask="url(#e)"/><path d="m31.8842975 33.8121322c0 7.0938843-2.516033 11.913719-8.9851239 11.913719-6.4685951 0-8.8611571-4.8892562-8.8611571-11.9836363 0-7.0948761 6.0198347-7.8297521 8.9707438-7.8297521 2.9504133 0 8.8755372.8042975 8.8755372 7.8996694" fill="#e9cbac" mask="url(#f)"/><path d="m20.8730579 38.3553223c0 .9743802-.7993389 1.7647934-1.7841323 1.7647934-.9857851 0-1.7831405-.7904132-1.7831405-1.7647934 0-.974876.7973554-1.7647934 1.7831405-1.7647934.9847934 0 1.7841323.7899174 1.7841323 1.7647934" fill="#8c7163" mask="url(#g)"/><path d="m20.4139835 38.354876c0 .6798347-.5519009 1.2322314-1.2312397 1.2322314-.6803306 0-1.2317355-.5523967-1.2317355-1.2322314 0-.6788429.5514049-1.2312396 1.2317355-1.2312396.6793388 0 1.2312397.5523967 1.2312397 1.2312396" fill="#2a1d01" mask="url(#h)"/><path d="m18.6639174 37.7166446c0 .1963637-.1601653.3570248-.3560331.3570248-.1968595 0-.3565289-.1606611-.3565289-.3570248 0-.1963636.1596694-.3555372.3565289-.3555372.1958678 0 .3560331.1591736.3560331.3555372" fill="#fff" mask="url(#i)"/><path d="m25.2375868 38.3553223c0 .9743802.7993388 1.7647934 1.7846281 1.7647934.9852892 0 1.7826446-.7904132 1.7826446-1.7647934 0-.974876-.7973554-1.7647934-1.7826446-1.7647934-.9852893 0-1.7846281.7899174-1.7846281 1.7647934" fill="#8c7163" mask="url(#j)"/><path d="m25.6966116 38.354876c0 .6798347.5519008 1.2322314 1.2312396 1.2322314.6803306 0 1.2317356-.5523967 1.2317356-1.2322314 0-.6788429-.551405-1.2312396-1.2317356-1.2312396-.6793388 0-1.2312396.5523967-1.2312396 1.2312396" fill="#2a1d01" mask="url(#k)"/><path d="m25.7663802 37.7166446c0 .1963637.1596694.3570248.356033.3570248.1963637 0 .3565289-.1606611.3565289-.3570248 0-.1963636-.1601652-.3555372-.3565289-.3555372-.1963636 0-.356033.1591736-.356033.3555372" fill="#fff" mask="url(#l)"/><path d="m26.0399504 42.6656033c-.1140496-.1760331-.8052892-1.4454545-1.5852892-1.8515702-.7076033-.3684298-1.5163637.1155371-1.5163637.1155371h-.0114049s-.8087604-.4839669-1.5163637-.1155371c-.78.4061157-1.4712396 1.6755371-1.5852892 1.8515702-.1993389.3064463-.4398347.405124-.4398347.405124s.2261157.0476033.5672727.0119008c.4393388-.0466116 2.3836363-.5385124 2.9796694-.5385124.5965289 0 2.5403306.4919008 2.9801653.5385124.341157.0357025.5672727-.0119008.5672727-.0119008s-.2409917-.0986777-.4398347-.405124" fill="#fff" mask="url(#m)"/><path d="m25.8056033 42.2099504c-.0828099-.1497521-.1720661-.2965289-.2657851-.4408264-.1909091-.2856199-.4026446-.5618182-.6669422-.798843-.0659504-.0590083-.1353719-.1145455-.2092562-.1676033-.0376859-.0252893-.074876-.0505785-.1150413-.0728926l-.0302479-.0173553-.0069422-.003967-.0114049-.0059504-.0138843-.0069422c-.0203306-.0094214-.0357025-.0188429-.0595042-.0287603-.0932231-.0416529-.1809917-.0664463-.2752066-.0838016-.0927272-.0163637-.1879339-.0223141-.2806611-.0193389-.1869422.0059504-.3679339.0500827-.5375207.1110744-.0852892.0312397-.1680992.067438-.2484297.1076033-.0545455.0277686-.1056199.0560331-.157686.0877686-.0510744-.0317355-.1026446-.0604959-.1561983-.0882645-.0803306-.0406611-.1626447-.0768595-.2479339-.1080991-.1700827-.0614876-.3500827-.105124-.5370248-.1105785-.1859504-.0054546-.3783471.0267768-.5509091.1051239-.0897521.041157-.1601653.0842975-.2390083.1378513-.0733884.0520661-.142314.1090909-.2087603.1676033-.2623141.2365289-.4735537.5127272-.6639669.7973553-.0932232.1442976-.1819835.2905786-.2642976.4403306-.0833057.1487603-.1581818.3019835-.2340496.4542149.2013224-.2757025.3937191-.5538843.6089257-.8132231.1056198-.1304133.2157024-.2573554.3312396-.3768596.1150414-.1204958.2350414-.2345454.3624794-.3357024.0639669-.0505785.1299173-.0971901.1978512-.138843.0629752-.0396694.1393389-.0823141.2052893-.108595.1393388-.056529.2910744-.0768596.4433058-.0664463.1527272.0099173.3064462.0461157.4542148.1021487.0738843.0282645.146281.0609918.2171901.097686.0694215.0366942.1418182.0793388.1993389.12l.0818181.0580165.0808265-.0575207c.0585124-.0406611.1319008-.0833057.2018182-.1195041.0709091-.0361983.1438016-.0694215.2181818-.0976859.1482645-.0560331.3024793-.0927273.4561983-.1031405.0763637-.0054546.1527273-.0034711.2276033.0069421.0728926.0094215.1512397.030248.2147108.0555372.0158678.0054546.0376859.0163636.056033.0247934l.0143802.0059504c.0009917.0004959.0094215.0044628.0034711.0014876l.0069421.0034711.0257852.0143802c.0352066.0173553.0684297.0391735.1026446.0585124.0679339.0426446.1343801.0887603.1983471.1393388.1284297.1006612.2484297.2157025.3639669.3357025.116529.12.2261157.247438.3322314.3778512.2157025.2603306.4085951.5395041.6104133.8157025-.0763637-.1527273-.1512397-.3059504-.2345455-.4557025" fill="#e6e7e8" mask="url(#n)"/><path d="m11.7871736 63.0388264-2.14016534-3.2955371c-.21570247.3957024-.42991735.7899173-.64165289 1.1796694l1.37504133 2.1173553" fill="#877a45" mask="url(#o)"/><path d="m12.8278017 62.2189587.8102479-1.1747108-2.5542149-3.9317355c-.2365289.4319008-.4770248.8717355-.7190083 1.3150413z" fill="#877a45" mask="url(#p)"/><path d="m8.79545455 63.0475041-.506281-.8047934c-.14826446.2732232-.29404958.5419835-.43636363.8047934" fill="#877a45" mask="url(#q)"/><path d="m36.678843 63.2286446-8.8224794-13.5669421c-.4552066-.1195042-.7626446-.1909091-.7626446-.1909091l-.3838016.5920661 9.761157 15.0897521.9654545-.0629752z" fill="#877a45" mask="url(#r)"/><path d="m25.9232727 51.2750083-.4963636.7651239-.2295868.5395042 4.893719 7.5332231c.0981818-1.245124.1671075-2.1089256.1671075-2.1089256" fill="#877a45" mask="url(#s)"/><path d="m24.0942645 63.0039669-8.2621488-12.7323967c-.5052893.1294215-.9054545.2409918-1.0165289.296529-.0173554.0084297-.0545455.0555372-.1100827.1368595l8.0186777 12.3451239.7190083 1.0348761.6238016-1.0353719" fill="#877a45" mask="url(#t)"/><path d="m12.4902645 54.561124c-.2196695.3961983-.4487604.8107438-.6852893 1.2396694l2.6429752 4.068595.7676033-1.1132231z" fill="#877a45" mask="url(#u)"/><path d="m29.8630909 63.0475041c.0198347-.2593388.0396694-.5176859.0595041-.7720661l-5.3479338-8.2323967-.62281 1.4628099 5.8011571 8.9310744" fill="#877a45" mask="url(#v)"/><path d="m27.2718843 63.0392727-3.9426446-6.0699173-.0897521.209752-.7319008-1.4747107-3.9510744-6.0828099c-.2752066.0624793-.7963636.1829752-1.3671074.3178512l9.4750413 14.5943802" fill="#877a45" mask="url(#w)"/><path d="m29.8044793 50.2382479 4.1985124 6.4631405c-1.2128925-2.9280991-2.227438-5.309752-2.4292562-5.5780165-.2176859-.2905785-.9545454-.6069421-1.7692562-.885124" fill="#877a45" mask="url(#x)"/><path d="m21.1495537 63.0475041-7.1995041-11.0836363c-.213719.3728925-.4606612.8087603-.7328926 1.293719l6.3619835 9.7938843" fill="#877a45" mask="url(#y)"/><path d="m17.998562 63.0402645-2.5953719-3.9961984c.0332231.5429752.0912397 1.4677686.161157 2.5433058l.9426446 1.451405" fill="#877a45" mask="url(#z)"/><path d="m18.5467438 49.6237686s2.3434711 5.3444628 4.7097521 9.2221488c2.1471074-3.7155372 4.2535537-9.2940496 4.2535537-9.2940496l-1.3889256-.5786777-2.3841323 3.1482644-1.8287603-.7408264-2.8700826-1.9676033z" fill="#65682f" mask="url(#A)"/><path d="m16.4310744 63.0668926 5.2289256-8.6583471.1115702-.1844629-.622314-1.2525619-.2047934.3381818-5.3444628 8.8492562c.018843.2900826.0386777.5876033.0585124.888595" fill="#65682f" mask="url(#B)"/><path d="m19.5273223 63.0441322 3.6347108-6.0188429-.6952067-1.4003306-4.4757024 7.4107438" fill="#65682f" mask="url(#C)"/><path d="m10.4520992 63.0475041 8.1104132-13.4528925c-.3476033.0793388-1.072562.2459504-1.7955372.4204958l-7.87338842 13.0066116" fill="#65682f" mask="url(#D)"/><path d="m27.6423471 49.6068099c-.3347107-.0857851-.5494215-.1358678-.5494215-.1358678l-1.6671074 2.569091-1.7831405 4.1900826z" fill="#65682f" mask="url(#E)"/><path d="m24.9741322 64.1186777 7.1484298-11.8557025c-.2786777-.6282645-.4730579-1.0373554-.5494215-1.1395041-.0446281-.0590083-.1120661-.1190083-.1953719-.1795042l-8.0414876 13.316529" fill="#65682f" mask="url(#F)"/><path d="m12.2544298 63.0489917 3.1155371-4.5183471s.0317356.5171901.0823141 1.3214876l4.6968595-7.7682644-.7899174-1.2500827-7.38 12.2171901" fill="#65682f" mask="url(#G)"/><path d="m27.7774215 64.2867273 2.2809917-3.7700827c.1140496-1.4588429.198843-2.512562.198843-2.512562l.6153719 1.1638017 2.46-4.0730579c-.2003306-.4790082-.3902479-.929752-.5667769-1.3447933l-6.2191735 10.3076033" fill="#65682f" mask="url(#H)"/><path d="m14.918281 50.526843c-.0456198.0158677-.0808265.029752-.1041322.041157-.1105786.0550413-1.0214876 1.6447934-2.2442976 3.8479339z" fill="#65682f" mask="url(#I)"/><path d="m31.5928264 60.528.7195042 1.3601653 2.2750413-3.7671074c-.2127273-.5161984-.4219835-1.023967-.6257851-1.5153719z" fill="#65682f" mask="url(#J)"/><path d="m33.0300496 63.2421818 2.1808264-3.6009917c.2082645.5087603.4160331 1.0180165.6218182 1.5228099l-2.1009917 3.4661157" fill="#65682f" mask="url(#K)"/><path d="m25.6927438 50.5878843-.011405-.1963636" fill="#9e7525" mask="url(#L)"/><path d="m19.5665455 49.6014545s1.5604958 1.4375207 3.5955371 1.4667769c1.0899174.0153719 3.5107438-1.5595041 3.5107438-1.5595041l-3.4447933 7.1955372z" fill="#fff" mask="url(#M)"/><path d="m26.8500992 40.7562149c-1.5981818 0-2.7148761-.9852893-2.7148761-2.3960331 0-1.4484297 1.1419835-2.4996694 2.7148761-2.4996694 1.5733884 0 2.714876 1.0512397 2.714876 2.4996694 0 1.4107438-1.1161983 2.3960331-2.714876 2.3960331m-7.9160331 0c-1.5034711 0-2.4371901-.9183471-2.4371901-2.3960331 0-1.518843.956529-2.4996694 2.4371901-2.4996694 1.4385124 0 2.9920661.9560331 2.9920661 2.4996694 0 1.4995042-1.5213223 2.3960331-2.9920661 2.3960331m13.3710744-3.5677686c-.1304132-.2018182-.3312397-.3317356-.5975207-.3877686-.6114049-.1264463-1.7429752.4438016-2.0380165.6009917-.4031405-1.0814876-1.4806612-1.8193388-2.8195041-1.8193388-1.3948761 0-2.5090909.7998347-2.8685951 1.9571901-.8479339-.4795042-1.593719-.1710744-1.9140496.0133884-.4314049-1.2347108-1.8252892-1.9705785-3.1333884-1.9705785-1.286281 0-2.2353719.7016529-2.5755372 1.8183471-.2995041-.1586777-1.4256198-.7264463-2.036033-.6-.266281.056033-.4676033.1859504-.5975207.3877686-.2444628.3783471-.1393388.8692562-.1343802.8895868l.2712397-.0595042c-.0009917-.0044628-.0842975-.401157.0971901-.6808264.0897521-.1378513.2271074-.2246281.4204959-.2652893.4864462-.0991735 1.5342148.3986777 1.908595.6059504-.0436364.2157025-.0684297.4423141-.0684297.6818182 0 1.6492562 1.0398347 2.673719 2.7143801 2.673719 1.6071075 0 3.2702479-1.0001653 3.2702479-2.673719 0-.1844628-.0208264-.3619835-.0580165-.5305785.2191736-.1428099.9361984-.5191735 1.7647934-.0094215-.0342149.1740496-.0530578.3540496-.0530578.54 0 1.5743802 1.2302479 2.673719 2.9920661 2.673719 1.762314 0 2.992562-1.0993388 2.992562-2.673719 0-.2395041-.0327273-.4690909-.0892562-.6887603.3838016-.2107438 1.4147107-.697686 1.8976859-.5990083.1923967.0406612.3302479.127438.4195041.2652893.1819835.2796694.0986777.6763636.0981819.6803306l.2707438.06c.0044628-.0203306.1100826-.5112397-.1343802-.8895868" fill="#6d3926" mask="url(#N)"/><path d="m14.454843 37.4226942s-.8335537-.4631405-1.2034711.0466116c-.3704132.5092562.2315702 2.1297521.7869421 2.1297521.555372 0 .7403306-.6019835.7403306-.6019835z" fill="#e9cbac" mask="url(#O)"/><path d="m31.5158182 37.4226942s.8335537-.4631405 1.2039669.0466116c.3704132.5092562-.2315702 2.1297521-.7869421 2.1297521-.5558678 0-.7408265-.6019835-.7408265-.6019835z" fill="#e9cbac" mask="url(#P)"/><path d="m18.3438347 26.682595s.7403306 2.4535538.4631405 3.2871075c-.2781818.8335537-2.7778512 1.481157-3.2871074 3.0089256-.5097521 1.5277686-1.3423141 3.6570248-1.3423141 3.6570248s-.6679339-2.594876-.1854545-4.9998347c.5628099-2.805124 2.407438-5.4515703 4.3517355-4.9532232" fill="#e6e7e8" mask="url(#Q)"/><path d="m27.5822975 26.682595s-.7403306 2.4535538-.4631405 3.2871075c.2781818.8335537 2.7778513 1.481157 3.2871075 3.0089256s1.342314 3.6570248 1.342314 3.6570248.6679339-2.594876.1854546-4.9998347c-.56281-2.805124-2.4074381-5.4515703-4.3517356-4.9532232" fill="#e6e7e8" mask="url(#R)"/><path d="m25.9823306 29.3909752s.4165289 1.2034711-2.7317356 1.8054546c-3.1472727.6014876-6.573719-.2315703-8.1014876 2.7312396 0 0 .3704133-2.5001653 2.8700827-4.0735537 2.5001653-1.5743802 5.9261157-1.1117355 5.9261157-1.1117355s-1.8054546-.9257852-4.8143802.0932231c0 0 3.9347108-2.1297521 6.851405.5553719" fill="#fff" mask="url(#S)"/><path d="m26.8370083 29.6597355s-.003967.0213224-.0183471.0669422c-.0138843.045124-.0352067.105124-.071405.1790083-.0332231.0753719-.0838017.1601652-.1433058.2568595-.0664463.0907438-.1373554.1968595-.2335537.296033-.0877686.1071075-.2038017.2023141-.318843.3094215-.1279339.0912397-.2523967.2028099-.4026446.2856198-.0723967.0441323-.146281.0892562-.2216529.1353719-.078843.0386777-.1581818.0778513-.2385124.1175207-.1576859.0852893-.3297521.1433058-.4978512.2112397-.1666116.0723967-.3441323.1115702-.513719.1666115-.169091.056529-.3421488.0877686-.5072728.1254546-.1651239.0371901-.3242975.0738843-.4785124.0927273-.1532231.0233057-.2980165.0451239-.4323967.0649586-.1328925.0238017-.2573553.026281-.3669421.0381819-.1095868.0099173-.2047934.0188429-.2831405.0252892-.1571901.0138843-.2469422.0218182-.2469422.0218182s.0892562-.0099174.2464463-.0272727c.0783471-.0094215.1730579-.0203306.2821488-.0322314.1090909-.0148761.2330578-.0203306.3659504-.0471075.1328926-.0233058.2766942-.0480992.4294215-.0753719.1527273-.022314.3109091-.0624793.4745454-.1036363.1631405-.0416529.3342149-.0763637.5008265-.1368596.1661157-.0590082.3416529-.1016528.5042975-.1775206.1646281-.0704132.333719-.1319008.4864463-.2201653.0778512-.0406612.1552066-.0808264.2315702-.1209917.0723967-.0466116.1433058-.0927273.2142149-.1378513.1442975-.0847934.2623141-.1958677.3842975-.2871074.1085951-.1071075.2186777-.2003306.3-.3054546.090248-.09719.1547108-.1993388.2157025-.2871074.0540496-.0922314.0996694-.1730578.1284298-.2424793.0312396-.0689257.0500826-.1264463.06-.1621488.0109091-.0352066.0153719-.0585124.0153719-.0585124.0064462-.0376859.0426446-.0629752.0803305-.0560331.037686.0069422.0629752.0431405.0560331.0808265v.0004959z" fill="#fff" mask="url(#T)"/><path d="m27.7183636 26.7983306s-.66 2.6385124.138843 3.3332231c.798843.6942149 2.152562.66 2.9509091 2.0489256 0 0 .0699174-.521157-.0347107-1.2847933 0 0 .8335537 1.1107438 1.1112396 2.6732231 0 0-.0565289-5.2234711-3.228595-6.6664463-.3094215-.1403306-.7294215-.1557025-.937686-.1041322" fill="#fff" mask="url(#U)"/><path d="m18.2958843 26.7983306s.66 2.6385124-.138843 3.3332231c-.798843.6942149-2.152562.66-2.9509091 2.0489256 0 0-.0699173-.521157.0347108-1.2847933 0 0-.8335537 1.1107438-1.1112397 2.6732231 0 0 .0565289-5.2234711 3.228595-6.6664463.3094215-.1403306.7294215-.1557025.937686-.1041322" fill="#fff" mask="url(#V)"/><path d="m18.366595 26.9140661s.138843 1.9676033-1.342314 2.5229752c-1.481157.5558678-2.0365289.8796694-2.3613223 2.013719 0 0 .6019834-1.1340496 1.458843-1.4350413.8558677-.3009917 1.736033-.3238016 1.9671074-.948595 0 0-.1621488.8102479-1.6899174 1.5044628 0 0 1.5743802-.3704132 1.7826447-.7641323.2082644-.3932231.5320661-1.2961983.1849586-2.8933884" fill="#e6e7e8" mask="url(#W)"/><path d="m27.8713884 26.9140661s-.1388429 1.9676033 1.3423141 2.5229752c1.481157.5558678 2.0365289.8796694 2.3613223 2.013719 0 0-.6019835-1.1340496-1.458843-1.4350413-.8558678-.3009917-1.736033-.3238016-1.9671074-.948595 0 0 .1621487.8102479 1.6899173 1.5044628 0 0-1.5743801-.3704132-1.7826446-.7641323-.2082645-.3932231-.5320661-1.2961983-.1849587-2.8933884" fill="#e6e7e8" mask="url(#X)"/><path d="m21.6856364 63.0184463-.6252893.0347107 7.8961984-13.0963636.7983471.2781818.2781818.3441322-7.5034711 12.4591736" fill="#65682f" mask="url(#Y)"/><path d="m25.9401818 29.4098678c-.0247934-.0267769-.0664463-.0282645-.0927273-.0034711l-.0064462.0064463c-.1299174.1204958-.2985124.2241322-.4626447.3158677-.1666115.0917356-.3426446.1680992-.5206611.2390083-.1785124.0694215-.3604959.1299174-.5449587.1824793-.0917355.0297521-.1859504.049091-.2791736.0738843-.0927272.0242976-.1869421.045124-.281157.0634711-.1884297.041157-.378843.0709091-.5692562.0996694-.1899173.0287604-.3828099.0456199-.5742149.0679339-.1923966.0123967-.3847933.0307438-.5776859.0406612-.1938843.0104132-.386281.018843-.5796694.0228099-.3867769.011405-.7735537.0099174-1.1613223.0029752-.3872728-.0059504-.7745455-.0213223-1.1633058-.0178512-.3882645.0044628-.7814876.0247934-1.1593389.1259504-.3788429.0971901-.7294215.2831405-1.0358677.5206611.314876-.2261157.6689256-.3991735 1.0438016-.4869421.3758678-.0902479.7646281-.101157 1.1509091-.0952066.3867769.0064463.7735537.0252892 1.1618182.0381818.3882645.0123967.7765289.0193388 1.1647934.014876.3892562-.0024793.7775206-.0198347 1.166281-.0480991.1933884-.0213224.3877686-.0371901.581157-.0659505.1928926-.0282644.3857851-.0575206.5766942-.0981818.0961984-.0178512.191405-.0386777.2861157-.0629752.0947108-.0242975.1909091-.0436363.2841322-.0733884.1884298-.052562.3743802-.1130579.5578513-.1834711.1824793-.0714049.3634711-.1492562.5365289-.2434711.1135537-.0629752.2236364-.1279338.3297521-.2042975-.0133885.030248-.0277686.0604959-.0446281.0882645-.0520661.0857851-.1165289.1666115-.1894215.24-.1472727.1457851-.3228099.266281-.5077686.3684297-.3723967.2028099-.7814876.3401653-1.1960331.4487604-.4155372.1056198-.8395041.1814876-1.2664462.2390082-.2132232.0287604-.4274381.0515703-.6421488.0728926-.2147107.0173554-.4284298.0381818-.6441322.0505785l-.6476033.0426446c-.2161984.0133885-.4323967.0287604-.6480992.0500827-.2152066.0193388-.431405.0386777-.6461157.0669421l-.3228099.0381818-.3213223.0485951c-.2147108.0287603-.4269422.074876-.6396695.1140496-.2117355.0476033-.423471.093719-.6317355.1542148-.2092562.0575207-.4145455.1279339-.6153719.210248-.1963636.0867768-.4001653.1809917-.5479339.3401653.1532231-.153719.3580165-.2404959.5568595-.3198347.2013223-.0768595.4071074-.1408265.6163636-.1933885.2087604-.0545454.4204959-.0952066.6322315-.1373553.2132231-.0337191.4254545-.0728926.6396694-.0981819l.3208264-.0426446.3218182-.033719c.2147107-.0247934.4294215-.0406612.645124-.0560331.2147107-.0183471.4304132-.0307438.6461157-.0401652l.6476033-.0332232c.2157025-.0084297.4328925-.0257851.6490909-.0431405.2157025-.0198347.4319008-.0421487.6471074-.0704132.4309091-.0555372.8598347-.1299174 1.2823141-.2355372.4214876-.1080992.8404958-.2454545 1.2292562-.4547107.1933884-.1056199.3793388-.2310744.54-.3892562.0803306-.078843.1522314-.1680992.2117355-.2672728.0565289-.1026446.1041322-.2042975.1110744-.341157.0009917-.0173554-.0049587-.0352066-.0173554-.048595" fill="#e6e7e8" mask="url(#Z)"/><path d="m22.607157 30.1783636c.1814876-.0138843.363967-.0193388.5459504-.0406611l.2717356-.0282645.2712396-.041157c.0907438-.0133884.1809918-.0282645.270248-.0466116.089752-.018843.18-.033719.2687603-.0545454l.2677686-.0629752.2647934-.0728926c.1755372-.0550413.3490909-.1155372.5186777-.1859504.0857851-.0352066.1695868-.0733884.2528925-.1130579.0833058-.0431405.1636364-.0828099.2459505-.1368595l.0024793-.0014876c.0079339-.0054545.0138843-.0114049.018843-.0198347.0158677-.0287603.0064462-.0644628-.0223141-.0808264l-.1279339-.0733885c-.0421487-.0247933-.0877686-.0416529-.1319008-.0629752-.0436364-.0213223-.0892562-.0386777-.1353719-.0535537-.0456198-.014876-.0902479-.0332231-.1373554-.045124-.0927272-.0272727-.1854545-.0510743-.2791735-.0704132-.093719-.0208264-.1879339-.0371901-.2826446-.0515702-.1884298-.0307438-.3783472-.0466116-.5682645-.0545455-.1899174-.0084297-.3803306-.0119008-.5697521 0 .1894215.0094215.3778513.0257851.5657851.0476033.0937191.0109091.1869422.0247934.2801653.0401653.0932232.0138843.1859505.0292562.2781819.0476033.0917355.018843.1839669.0391736.2742148.0634711.0907438.0228099.18.0505785.2682645.0808264.0446281.0133885.0867769.0332232.1299173.0495868.0431405.0168595.086281.0332232.1274381.0545455.041157.0203306.0847934.0366942.123471.0604958l.0292562.0173554c-.0476033.0257851-.0961983.0505785-.1442975.0743802-.0813223.0371901-.1631405.0733884-.2469421.1061157-.1661157.0664463-.337686.1219835-.5097521.1750413l-.258843.0758678-.2618182.0654545c-.0877685.0218182-.1770247.0386777-.2652892.0580165-.0872727.0198348-.1765289.0357025-.2657851.0500827-.1775207.0327273-.3560331.0580165-.5355372.0847934-.1785124.0292562-.3590083.0426446-.5395042.0649587l-.5414876.0471074c-.1814876.0099174-.3629752.0193388-.5444628.0327273.1814876.0069421.3634711.0104132.5459504.0138843.1819835-.0029752.3644629-.0034711.5464463-.0133885" fill="#e6e7e8" mask="url(#aa)"/><path d="m22.510314 58.1164463-.8102479-1.2381818-.7522314 1.2842975.7983471 1.2104132z" fill="#9e7525" mask="url(#ab)"/><path d="m19.3898182 53.3291901-.8013223-1.2252893-.7527273 1.2426447.7943802 1.2327272z" fill="#9e7525" mask="url(#ac)"/><path d="m17.1472562 54.4734545-.7522314 1.2431405.8117355 1.2545455.746281-1.2555372z" fill="#9e7525" mask="url(#ad)"/><path d="m16.4441653 58.2220165-.8013223-1.2252892-.7522314 1.2426446.3342148.5077686.150248-.2201653.0208264.4963636.2890909.4487604z" fill="#9e7525" mask="url(#ae)"/><path d="m21.0691736 60.529438-.7953719-1.2550413-.7641323 1.2500826.7958678 1.2614876z" fill="#9e7525" mask="url(#af)"/><path d="m19.5437851 63.0542975.0148761-.0252892-.810248-1.2381819-.7517355 1.2500827" fill="#9e7525" mask="url(#ag)"/><path d="m18.7472231 56.9401983-.7507438 1.2540496.716529 1.10281.7502479-1.2545455z" fill="#9e7525" mask="url(#ah)"/><path d="m17.9472397 60.5589917-.7279339-1.1191735-.7502479 1.2545454.7319008 1.1147108z" fill="#9e7525" mask="url(#ai)"/><path d="m16.4286446 63.0426942.0312397-.0520661-.7160331-1.1028099-.1487603.2484297.0629752.911405" fill="#9e7525" mask="url(#aj)"/><path d="m22.5296529 63.0383306.0907438-.1507438-.7586777-1.1573554-.746281 1.2500826.0401653.0624794" fill="#9e7525" mask="url(#ak)"/><path d="m24.0521157 60.5003802-.7576859-1.1573554-.7467769 1.2500826.7467769 1.1747108z" fill="#9e7525" mask="url(#al)"/><path d="m25.5624793 57.9833058-.7576859-1.1573554-.7467769 1.2500827.7467769 1.1747107z" fill="#9e7525" mask="url(#am)"/><path d="m27.0902975 55.4835868-.7576859-1.1573554-.7467769 1.2500826.7467769 1.1747108z" fill="#9e7525" mask="url(#an)"/><path d="m28.5744793 52.9747438-.7576859-1.1573554-.7467769 1.2500827.7467769 1.1747107z" fill="#9e7525" mask="url(#ao)"/><path d="m30.0330744 50.579157-.2781818-.3441322-.7983471-.2781818-.4279339.7150413.746281 1.1747107z" fill="#9e7525" mask="url(#ap)"/><path d="m25.1179339 63.8809091.5404959-.8975207-.8038017-1.2381818-.7601653 1.2585124.7552066 1.3279339" fill="#9e7525" mask="url(#aq)"/><path d="m27.1367603 57.9992727.7809918 1.2520661.7512396-1.2545454-.7859504-1.2386777z" fill="#9e7525" mask="url(#ar)"/><path d="m28.6645785 55.4647438.7809917 1.2515702.7507438-1.2540495-.7854545-1.2391736z" fill="#9e7525" mask="url(#as)"/><path d="m31.6112231 53.058-.7854545-1.2391736-.7467769 1.2411571.7814876 1.2520661z" fill="#9e7525" mask="url(#at)"/><path d="m27.1629421 60.4926446-.794876-1.2585124-.7547107 1.2495868.7983471 1.2629752z" fill="#9e7525" mask="url(#au)"/><path d="m27.9183471 64.0528264-.7036364-1.1122314.7527273-1.2401652.7155372 1.0889256z" fill="#9e7525" mask="url(#av)"/><path d="m30.2369256 57.9551901.7160331 1.102314.7507438-1.2545454-.7155372-1.1018182z" fill="#9e7525" mask="url(#aw)"/><path d="m33.1535207 55.4162975-.7160331-1.1028099-.7507438 1.2545455.7155372 1.102314z" fill="#9e7525" mask="url(#ax)"/><path d="m20.8914545 55.6555041-.716033-1.102314-.7512397 1.2545454.7160331 1.1018182z" fill="#9e7525" mask="url(#ay)"/><path d="m17.793719 50.8721157-.6163636-.9471074-.4204959.1076033-.5161983.8618182.7943801 1.2282644z" fill="#9e7525" mask="url(#az)"/><path d="m16.3501983 53.2619008-.7983471-1.2441322-.7690909 1.2550413.8206612 1.233719z" fill="#9e7525" mask="url(#aA)"/><path d="m13.2830083 55.7794711.8008264 1.2386777.7591736-1.2500827-.80281-1.2322314z" fill="#9e7525" mask="url(#aB)"/><path d="m11.8075041 58.2152231.7953719 1.245124.7586777-1.2505785-.802314-1.2317355z" fill="#9e7525" mask="url(#aC)"/><path d="m10.2854876 60.732843.8102479 1.2441322.7497521-1.2327273-.8018182-1.2614876z" fill="#9e7525" mask="url(#aD)"/><path d="m10.3736529 63.0441322-.7770248-1.1935537-.71900827 1.2" fill="#9e7525" mask="url(#aE)"/><path d="m31.7748595 60.2301818.7809917 1.2515703.7512397-1.2540496-.7859504-1.2391736z" fill="#9e7525" mask="url(#aF)"/><path d="m34.9166777 65.1481983.7814876 1.2520662.7507438-1.2545455-.7854546-1.2386777z" fill="#9e7525" mask="url(#aG)"/><path d="m34.1879008 57.1557025-.2256198-.5276033-.7467769 1.2406611.7814876 1.252562.5955372-1.005124z" fill="#9e7525" mask="url(#aH)"/><path d="m34.694876 63.0397686.1973554-.3292562-.7854545-1.2391736-.7532232 1.2361984.8013223 1.2242975" fill="#9e7525" mask="url(#aI)"/><path d="m35.2062645 59.6558678-.4135538.6872727.7809918 1.2515702.2459504-.4576859z" fill="#9e7525" mask="url(#aJ)"/><path d="m28.726562 60.4374545.716033 1.10281.6153719-1.0274381.0337191-.3838016-.6138843-.9456198z" fill="#9e7525" mask="url(#aK)"/><path d="m33.3535041 62.7075868-.3233058.5345454-.1066115-.1943801-.6133885-1.1692562.2459505-.3966942z" fill="#877a45" mask="url(#aL)"/><path d="m34.9597686 65.1631736-.2166942.3233057-.5067769.2181819-.5047934-1.0745455.423967-.6971901z" fill="#877a45" mask="url(#aM)"/><path d="m30.9531074 59.0573554.8216529 1.1727272-.1765289.2945455-.734876-1.3661157z" fill="#877a45" mask="url(#aN)"/><path d="m19.888562 48.0475041c0 1.7127273 3.2638016 3.0208265 3.2638016 3.0208265s2.8819835-.9842975 2.8819835-3.1596694l1.0413223 1.5619834c0 1.065124-3.0208264 3.1249587-3.0208264 3.1249587l-.9024794-1.5272727-.8677686 1.7008264s-3.4378512-1.747438-3.4378512-3.228595z" fill="#efeff0" mask="url(#aO)"/></g><path d="m15.5900826.48198347h-.0049586-2.2160331v3.41752066c0 1.29818182-1.3919008 1.9170248-3.2171901 2.52595042-1.8272727.60842975-2.05834708 1.73801652-2.05834708 1.73801652l-7.76677686 13.26495873c.95008264.1408264 1.91256198.24 2.88743802.2965289l5.99504132-8.6157025 1.233719 6.5390083h6.2454546c1.4196694-.5434711 2.7917355-1.1841323 4.1072727-1.9140496.2955372-3.8023141-.1690909-5.2755372-.1690909-5.2755372l2.2750413 4.0001653c.892562-.5876033 1.7543802-1.218843 2.5819835-1.8892562l-2.7287604-6.32628101s-.2608264-1.14049587-2.0880991-1.74892562c-1.8257852-.60942149-2.8611571-1.29669422-2.8611571-2.59487604v-3.41752066z" fill="url(#a)" mask="url(#aP)" transform="translate(27.272727 43.483141)"/><path d="m50.8188099 34.1787273c0 6.3322314-2.2457851 11.5016529-8.0201653 11.5016529-5.7738843 0-7.9095867-5.231405-7.9095867-11.5636364 0-6.3332231 5.3732231-7.6090909 8.0067768-7.6090909s7.9229752 1.3378512 7.9229752 7.6710744" fill="#fedec8" mask="url(#aQ)" transform="translate(0 .342645)"/><path d="m40.9900661 38.2337851c0 .8697521-.7135537 1.5753719-1.5927273 1.5753719-.8796694 0-1.5922314-.7056198-1.5922314-1.5753719 0-.869752.712562-1.574876 1.5922314-1.574876.8791736 0 1.5927273.705124 1.5927273 1.574876" fill="#6dcff6" mask="url(#aR)" transform="translate(0 .342645)"/><path d="m40.5804298 38.2333388c0 .6069422-.4928926 1.1003306-1.0993389 1.1003306-.6069421 0-1.0993388-.4933884-1.0993388-1.1003306 0-.6059504.4923967-1.0988429 1.0993388-1.0988429.6064463 0 1.0993389.4928925 1.0993389 1.0988429" fill="#2a1d01" mask="url(#aS)" transform="translate(0 .342645)"/><path d="m39.0177521 37.6638347c0 .1755372-.14281.318843-.3178513.318843-.1755372 0-.3178512-.1433058-.3178512-.318843s.142314-.3173554.3178512-.3173554c.1750413 0 .3178513.1418182.3178513.3173554" fill="#fff" mask="url(#aT)" transform="translate(0 .342645)"/><path d="m39.3484959 41.7203802c1.0894215.6604958 2.2561983 1.068595 3.4383471 1.0532231 1.1890909 0 2.328595-.4601653 3.4616529-1.0532231-.416529.4904132-.9371901.8975206-1.5267769 1.1900826-.5895868.2980165-1.256033.4606612-1.9294215.4710744-.6719008.0014876-1.3438016-.1487603-1.9368595-.4418182-.592562-.288595-1.1276033-.6952066-1.5069421-1.2193388" fill="#c42c76" mask="url(#aU)" transform="translate(0 .342645)"/><path d="m44.8858512 38.2337851c0 .8697521.7130579 1.5753719 1.5922314 1.5753719.8796695 0 1.5922314-.7056198 1.5922314-1.5753719 0-.869752-.7125619-1.574876-1.5922314-1.574876-.8791735 0-1.5922314.705124-1.5922314 1.574876" fill="#6dcff6" mask="url(#aV)" transform="translate(0 .342645)"/><path d="m45.2950413 38.2333388c0 .6069422.4928926 1.1003306 1.0998347 1.1003306.6064463 0 1.098843-.4933884 1.098843-1.1003306 0-.6059504-.4923967-1.0988429-1.098843-1.0988429-.6069421 0-1.0998347.4928925-1.0998347 1.0988429" fill="#2a1d01" mask="url(#aW)" transform="translate(0 .342645)"/><path d="m45.3574711 37.6638347c0 .1755372.1428099.318843.3178512.318843.1755372 0 .3178513-.1433058.3178513-.318843s-.1423141-.3173554-.3178513-.3173554c-.1750413 0-.3178512.1418182-.3178512.3173554" fill="#fff" mask="url(#aX)" transform="translate(0 .342645)"/><path d="m35.2609587 38.1456694s1.0319008-6.1671074 4.1320661-7.1077686c3.6778512-1.1157025 6.8196694-.2102479 7.8099173.2067769 1.5704133.6609917 3.2642976 6.7353719 3.2642976 6.7353719s.8266115-5.1238017.3307438-6.6942149c-.4958678-1.5699173-1.7355372-3.0991735-1.7355372-3.0991735s-.4130579-1.7355372-1.9834711-2.1485951c-1.5704132-.4130578-2.6444628-1.2808264-2.6444628-1.2808264v.4130578l-2.7272727-.4958677.1651239.4958677-3.3054545.2890909.4130578.4958678-2.2314049.6614876.4958678.2479339-2.231405 1.3219835h.9089256l-1.0606611 2.0122314-.2613224.3431405.4958678.1656198-.7438016 2.0657851h.6609917l-.4795041 2.0766942-.0163637.0723967.4130579-.0828099z" fill="#edc866" mask="url(#aY)" transform="translate(0 .342645)"/><path d="m47.3269091 31.2858347 1.4876033-2.4793388-1.6527273 1.901157s-5.9504132-1.4876033-8.2646281.5781818c0 0 3.5127273-1.8595041 8.4297521 0" fill="#c6a956" mask="url(#aZ)" transform="translate(0 .342645)"/><path d="m46.9961653 31.0379008s1.4876033.9505785 2.6033058 4.0909091c0 0-.5781818-2.8095868-2.437686-4.421157z" fill="#c6a956" mask="url(#a0)" transform="translate(0 .342645)"/><path d="m45.2194711 30.5420331-2.3553719-1.0740496.1239669.3719008-2.148595-.5375207.6609917.6614876-1.4876033-.1656198.3307438.2067769-1.7766942.2890909.9089256.1239669s-1.3224793.2479339-1.6943802.7026446c-.3719008.4547108-1.5699173 3.5538843-1.5699173 3.5538843s1.8595041-3.3471074 2.7684297-3.5950413c.9089257-.2479339 6.2395042-.5375206 6.2395042-.5375206" fill="#c6a956" mask="url(#a1)" transform="translate(0 .342645)"/><path d="m47.2440992 27.3605455-1.1157025-.7438017.6614876.6609917-.8519008-.1646281-.4294215-.0833057.0416529.4130578.6198347.1239669-1.6115703.123967 1.0328926.2895868-.3719008.5781818h1.2396694z" fill="#efe08a" mask="url(#a2)" transform="translate(0 .342645)"/><path d="m49.0212893 29.9638512c-.08281.123967-.5786777.6609918-.4135538 1.3219835.1656199.6614876.6614876 1.7771901.6614876 1.7771901l-.1656198-1.6532231.4135537.2895867z" fill="#efe08a" mask="url(#a3)" transform="translate(0 .342645)"/><path d="m46.2940165 29.6331074c-1.1573553-.041157-3.2642975-.9089256-3.2642975-.9089256l1.7766942.3719008-.1656198-.4135537 1.0333884.123967s-1.4876033-.7438017-1.3224793-.7021488c.1651239.041157 1.8183471.2890909 1.8183471.2890909z" fill="#efe08a" mask="url(#a4)" transform="translate(0 .342645)"/><path d="m37.1616198 30.9139339c-.2479338.8266116-1.0328925 3.3887603-1.0328925 3.3887603l.2890909-1.5292562s-.123967-.1239669-.123967-.2890909.8677686-1.5704132.8677686-1.5704132" fill="#efe08a" mask="url(#a5)" transform="translate(0 .342645)"/><path d="m36.624595 57.8559174s.5171901 5.2765289.7745455 7.5173553l10.3586777-2.1867768c.2528925-2.4604959.7676033-5.2066116.7676033-5.2066116l1.1157025 2.107438 3.3471074-2.8512397-2.6033058-6.4462809-2.3553719-1.2396695s-1.1157025 3.7190083-4.8347107 3.8429752c-3.7190083.123967-5.7024794-3.8429752-5.7024794-3.8429752l-1.7355372.6198347-3.3471074 5.7024794 2.4793389 4.338843z" fill="#542f82" mask="url(#a6)" transform="translate(0 .342645)"/><path d="m40.495686 63.9733884 4.762314-.7869421c.9178512-.6971901 2.2631405-1.5719008 2.2120661-2.6444628-.0828099-1.7355372-.6317355-3.8781818-1.758843-4.6507438-.8776859-.6014876-3.0952066-.7209918-3.0952066-.7209918s-1.0740496-.2479339-2.4793388.9089257c-1.4047934 1.1568595-2.3965289 3.9669421-1.3219835 5.9504132.2618182.4829752 1.2104132 1.646281 1.6809918 1.9438016" fill="#c42c76" mask="url(#a7)" transform="translate(0 .342645)"/><path d="m43.3338347 58.0801488c-.1923967 0-.3480992-.1557025-.3480992-.3480992s.1557025-.3480992.3480992-.3480992.3480992.1557025.3480992.3480992-.1557025.3480992-.3480992.3480992m1.1836364.9049586c-.3133885-.7656198-.5568595-1.4965289-.1398347-1.5317355 0 0-.5568595-.8702479-1.6353719-.1393388-1.0795042.7314049-1.3581819 4.282314-2.7500827 4.1077686 0 0 1.9477686.2950413 3.2370248-.0694215 1.2619835-.356529 1.6016529-1.6011571 1.2882645-2.3672728" fill="#fff" mask="url(#a8)" transform="translate(0 .342645)"/><g transform="translate(5.454545 2.821984)"><path d="m33.7835207 13.9101322c0 .5821488-3.1378513 1.053719-7.0080992 1.053719s-7.0085951-.4715702-7.0085951-1.053719c0-.5821487 3.1383472-1.0542148 7.0085951-1.0542148s7.0080992.4720661 7.0080992 1.0542148" fill="#b73c1e"/><path d="m22.8647603 6.73021488-5.1471074-2.86115703-.2866116.28413223 5.4357025 5.19867769 1.1057851-1.23570248.2107438.14231405.2261157-.62975207.0238017-.02677686-.0119008-.00644628 2.354876-6.55735537-.0004959-.4368595z" fill="#d94721"/><path d="m36.1500496 4.15304132-.2866116-.28363636-5.1689256 2.87305785-3.9178512-6.14132231-.0004959.43735537 2.5923967 7.21983471.228595-.15421488 1.1171901 1.24760331z" fill="#d94721"/><path d="m30.5875041 7.26773554-3.8117355-6.22958678-3.8127273 6.22958678-5.5319008-3.11454546 2.3360331 8.56561982v1.1915703s1.1345454-1.0542149 7.008595-1.0542149c5.8730578 0 7.0076033 1.0542149 7.0076033 1.0542149v-1.1915703l2.3360331-8.56561982z" fill="#ffbe3b"/><path d="m26.7755207 1.03839669-3.8122314 6.22958678-5.5323967-3.11504132 2.336033 8.56611575v1.1910743s.8280992-.7666115 4.7147108-.9922314l4.6953719-7.95520659z" fill="#ffc958"/><path d="m20.2246612 12.5363306s6.4829752-1.9785124 13.1608264 0" stroke="#ffd892" stroke-linecap="square"/><path d="m19.7670248 13.9101322c.393719-.5176859.9976859-.8176859 1.5609917-1.1028099.6104133-.1229752 1.2158678-.2117355 1.8223141-.2796694 1.2119008-.1239669 2.4198347-.1641322 3.6252892-.1676033 1.2044628.0034711 2.4128926.0436364 3.6247934.1676033.6059504.0699173 1.2128926.1522314 1.8208265.2846281.5633058.2876033 1.1652892.5871074 1.5624793 1.0978512-.596033-.1616529-1.1876033-.1408264-1.7752066-.1294215-.5578512-.1219834-1.1345455-.2003305-1.7127273-.2672727-1.1613223-.1185124-2.3404958-.1581818-3.5201653-.1616529-1.1801653.0034711-2.3593388.0431405-3.521157.1616529-.5776859.0694215-1.1558678.1403306-1.7112397.2722314-.5876033-.0089256-1.1766942-.0302479-1.7761983.1244628" fill="#ffd892"/><path d="m18.3569256 5.27940496c.8761984.33123967 1.7310744.69917355 2.5804959 1.07752066.8484297.37933884 1.6899173.77107438 2.5229752 1.17818182l-.7244628.19487603.8196694-1.57884297.851405-1.56099174c.5647934-1.04231405 1.1727272-2.05884297 1.7573553-3.0892562l.6317356-1.11371901.6495868 1.11322314c.5970247 1.02347108 1.1945454 2.04694215 1.7598347 3.08876033l.8523967 1.56148761.8201652 1.57933884-.7259504-.1938843c.8256199-.4076033 1.6611571-.79933884 2.5026447-1.17867768.8424793-.37834711 1.6909091-.74628099 2.5601652-1.07801653-.7304132.57619835-1.481157 1.11570248-2.2383471 1.64479339-.7576859.52859504-1.5218181 1.04429752-2.2953719 1.5446281l-.4180165.27024793-.3084297-.46413223-.9852893-1.48264463-.9535537-1.5014876c-.6386777-.99867769-1.2446281-2.01719009-1.8515703-3.03520661l1.2813224-.00049587c-.6178513 1.01107438-1.2119009 2.03603306-1.8495868 3.03520661l-.952562 1.5014876-.9838017 1.48264463-.307438.4631405-.4175206-.2677686c-.7804959-.50033058-1.5520662-1.01652892-2.3171901-1.5446281-.7641323-.52958677-1.5228099-1.06958677-2.2606612-1.64578512" fill="#ffd892"/><g fill="#f58226"><path d="m6.07403306 44.6858678c.02082644-.0203306.04710744-.0401653.07735537-.06l.8538843-.956529c-3.09272728-3.7566942-4.95371901-8.5631405-4.95371901-13.7980165 0-7.9750413 4.31553719-14.9593388 10.73305788-18.7442975l-.4413223-1.64826447c-7.12115707 4.01603307-11.94148765 11.65090907-11.94148765 20.39256197 0 5.7163637 2.06181818 10.9601653 5.47983471 15.0282645.07487604-.090248.13983471-.1621488.1923967-.213719"/><path d="m51.9897025 29.8713719c0 5.2864463-1.8971901 10.1370248-5.0454546 13.9105785l1.4474381.8365289c3.2786776-4.0269421 5.2477685-9.161157 5.2477685-14.7471074 0-8.9414876-5.0424793-16.7256198-12.4323966-20.66280992l-.5380166 1.58330582c6.7408265 3.6976859 11.3206612 10.8639669 11.3206612 19.0795041"/></g></g></g></svg>