<svg height="86" viewBox="0 0 101 86" width="101" xmlns="http://www.w3.org/2000/svg" xmlns:xlink="http://www.w3.org/1999/xlink"><defs><ellipse id="a" cx="41.5" cy="43" rx="41.5" ry="43"/><linearGradient id="b" x1="49.984295%" x2="49.984295%" y1="99.978202%" y2="-.016349%"><stop offset="0" stop-color="#caaa6e"/><stop offset="1" stop-color="#a58c5b"/></linearGradient><linearGradient id="c"><stop offset="0" stop-color="#c88c66"/><stop offset="1" stop-color="#caaa6e"/></linearGradient><radialGradient id="d" cx="49.929578%" cy="49.894366%" gradientTransform="matrix(1 0 0 .96669 0 .01662)" r="49.894366%" xlink:href="#c"/><radialGradient id="e" cx="50.211348%" cy="49.894862%" gradientTransform="matrix(1 0 0 .966702 0 .016614)" r="49.893033%" xlink:href="#c"/><linearGradient id="f" x1="50.003566%" x2="50.003566%" y1="100.010111%" y2="-.025278%"><stop offset="0" stop-color="#fddfd8"/><stop offset="1" stop-color="#edcac7"/></linearGradient><mask id="g" fill="#fff"><use fill="#fff" fill-rule="evenodd" xlink:href="#a"/></mask></defs><g fill="none" fill-rule="evenodd" transform="translate(9)"><use fill="#d8d8d8" xlink:href="#a"/><g mask="url(#g)"><g fill-rule="nonzero" transform="translate(-.498 -.688)"><ellipse cx="42.413" cy="43.946" fill="#1d9c42" rx="42.413" ry="43.946"/><path d="m5.478 22.3494154 70.7854455 48.1705846c5.5705142-7.6337849 8.5778547-16.9489748 8.562496-26.5221964 0-24.2855858-18.9920023-43.9978036-42.4101067-43.9978036-15.8373984 0-29.6468373 9.0132071-36.9378348 22.3494154z" fill="#1bb24b"/><path d="m12.2083083 13.244c-4.57131572 4.8115804-8.01061561 10.6521507-10.0503083 17.067291l68.8108966 46.056709c4.7977867-4.560815 8.5171415-10.2074313 10.8691034-16.5011564z" fill="#f1f2f2"/><g fill="none" transform="translate(1.162 21.5)"><path d="m25.4297479 1.16619324c-4.7831761-1.88256909-10.4199157-.79967537-15.0098322 3.64851884-4.5899165 4.4481942-6.87682226 16.02682702-2.86668469 22.74076812 4.01013759 6.7139411-1.9970163 7.8134947-1.9970163 7.8134947s2.28690577 1.2828125 3.72024811-.2998783c.06666298 2.1280497-.39346316 4.2384225-1.33671252 6.1308445-2.01312127 3.9483971-1.1917678 6.380743 1.04682306 11.8618512 1.06292804 2.5656251 3.63972324 5.5310879 2.01312124 6.8305604l10.5165456-4.7480725 11.3701089-6.5306821-5.5401097-4.6481131-2.5929002-27.0890029z" fill="#281d0a"/><path d="m19.3098592 2.04916812s3.8329829-1.78260967 7.5532311-1.88256909c3.7202481-.09995942 9.5180373 2.89882319 12.2075674 8.92970822 2.68953 6.03088505-.9340883 18.45917295-.4509392 20.44170145s2.0131213 2.4656657 2.7700549 1.5826908c0 0-.579779 2.4656657-3.5430935 1.0828937 0 0-.3704143 1.5826909.6764088 4.6481131 1.046823 3.0654222 1.2400827 6.7306009 1.1434529 10.0792415-.1932597 6.8305604-6.9734521 10.5790387-6.2970434 12.0617701.6764088 1.4827314 1.7071268.7996753 1.7071268.7996753s-.4670441 1.382772-2.2869057.6830561c-1.8198616-.699716-2.6734251-5.4311285-2.6734251-5.4311285l-12.9967109-.1999189-1.5299722-6.5306821z" fill="#281d0a"/><path d="m6.57082783 62.757856 6.69966757-10.4290995s3.6558283 1.7492899 5.4434799 10.4290995h8.9543635c1.9648063-8.5798502 5.8944191-10.2458405 5.8944191-10.2458405l5.2341153 10.2458405h4.1067674l-8.8738386-17.9093961s.8052485-1.4494116-2.0131213-2.415686-5.4917948-2.7322241-5.4917948-4.7980522v-5.4477884h-6.8446123v5.4477884c0 2.0658281-1.7554418 3.0487624-4.5738116 4.0316967s-3.1726791 2.7655439-3.1726791 2.7655439l-10.04950139 18.3258937z" fill="url(#b)"/><path d="m35.3665145 16.4933043c0 10.0959015-3.4625686 18.3425537-12.3686171 18.3425537s-12.1914624-8.3466116-12.1914624-18.4425131c0-10.09590142 3.4464636-11.16213524 12.3525121-11.16213524s12.2075674 1.14953334 12.2075674 11.26209464z" fill="#caaa6e"/><path d="m19.8252183 22.3575903c.0065235 1.025711-.5857479 1.9541822-1.4999504 2.3513896-.9142024.3972074-1.9697423.1846856-2.6731959-.5382196-.7034535-.7229052-.915859-1.8133895-.537925-2.7616941.3779339-.9483045 1.2715493-1.5670991 2.2631158-1.5671213 1.345704-.0000301 2.4391022 1.1236023 2.4479555 2.5156454z" fill="#c88e2f"/><path d="m19.1971245 22.3575903c0 .9661061-.7570963 1.7492899-1.6910219 1.7492899s-1.6910219-.7831838-1.6910219-1.7492899.7570963-1.7492898 1.6910219-1.7492898 1.6910219.7831837 1.6910219 1.7492898z" fill="#3e2c09"/><path d="m16.7974839 21.4579556c-.0086955.2787048-.2296925.4999422-.4992541.4997971-.237392-.044648-.4099477-.2585294-.4099477-.5081271s.1725557-.4634791.4099477-.508127c.2757304 0 .4992541.2312256.4992541.516457z" fill="#fff"/><path d="m17.6832573 28.5217546c1.6749169 1.0495739 3.4786735 1.6993101 5.2985351 1.6659903 1.8198617-.0333198 3.5914084-.7330357 5.3468501-1.6659903-.660473.7839155-1.4652741 1.4238893-2.3674306 1.8825691-.9177554.4875183-1.9317518.7497522-2.9633145.7663555-1.0382333.0004573-2.0628326-.2445743-2.9955244-.7163758-.9150692-.4368247-1.7116918-1.1006605-2.3191157-1.9325488z" fill="#3e2c09"/><path d="m17.5705225 26.8724242c0 1.3065435-1.0238826 2.3657062-2.2869058 2.3657062s-2.2869058-1.0591627-2.2869058-2.3657062 1.0238826-2.3657063 2.2869058-2.3657063 2.2869058 1.0591628 2.2869058 2.3657063z" fill="url(#d)"/><path d="m32.1455205 26.8724242c-.000023.9583498-.5589683 1.8220074-1.4155053 2.1871762-.856537.3651687-1.8414266.1596966-2.494191-.5203493-.6527644-.680046-.8444271-1.7002988-.4853776-2.5837469s1.1978684-1.4555353 2.1242731-1.4487863c.6050546-.0000158 1.1850958.249758 1.6114195.6938994.4263238.4441415.6636724 1.0459195.6593813 1.6718069z" fill="url(#e)"/><path d="m26.4121511 22.3575903c-.0130641 1.0353975.5806796 1.9760784 1.5023148 2.3801498.9216352.4040715 1.987988.1912247 2.6981298-.5385538.7101419-.7297784.9229329-1.8314458.5384128-2.7874844-.3845202-.9560385-1.2899287-1.5764367-2.2909019-1.569757-1.345704-.0000301-2.4391022 1.1236023-2.4479555 2.5156454z" fill="#c88e2f"/><path d="m27.0402449 22.3575903c-.0065108.7172475.4070117 1.367317 1.0463648 1.6449161s1.3775092.127574 1.8678078-.379619c.4902985-.5071929.6353264-1.2707838.366974-1.9321673-.2683524-.6613834-.8967684-1.0891548-1.5901247-1.0824196-.9339256 0-1.6910219.7831837-1.6910219 1.7492898z" fill="#3e2c09"/><path d="m27.1368748 21.4579556c0 .2852313.2235236.516457.499254.516457s.4992541-.2312257.4992541-.516457c0-.2852314-.2235237-.516457-.4992541-.516457s-.499254.2312256-.499254.516457z" fill="#fff"/><path d="m22.9978974 43.6656068c-3.8329829 0-4.1550823-4.2982551-4.1550823-4.3315749s.0322099-.0999594.0805249-.1166193c.0533671 0 .0966298.0447533.0966298.0999594.0786991.7451805.2917431 1.4684953.6280938 2.1324676.7247237 1.382772 1.9003865 2.065828 3.4786736 2.0158483 3.4303586-.0832995 4.1067674-4.0150367 4.1228723-4.0650164.016105-.0499797.0644199-.0832995.1127348-.0832995.0464806.0193668.07789.064855.0805249.1166193-.016105.0499797-.7247237 4.131656-4.3000271 4.2316155z" fill="#231c1e"/><path d="m3.01162942 61.558343 9.37309268-9.2295865c1.2561876 1.7992696 2.9149996 6.6306416 3.3659387 10.4290995l14.4944732 3.9483971c.6441988-3.0654222 1.9003865-14.5274357 1.9003865-14.5274357l5.7011594 10.5790386h6.1843086l-11.4667388-20.5749806-3.6880382-1.8325894s-.6441988 6.9804995-5.4917948 7.3803372c-5.8461042.4664773-5.8622091-7.3803372-5.8622091-7.3803372s-5.2180104 3.1487217-5.6045297 3.282001c-.3865193.1332792-10.43602064 18.9922898-10.43602064 18.9922898 3.17267912-.7996754 1.52997216-1.0662338 1.52997216-1.0662338z" fill="#fef3f7"/><path d="m8.05248509 62.757856 4.76707121-7.9134541s1.4655522 5.1978899 1.9809113 7.9134541l6.6513527 3.0987421.1610497-16.8098425c-5.1052756-.3998377-5.6045296-8.4465711-5.6045296-8.4465711s-4.0906625 1.7159701-4.1550823 1.9825285c-.0644199.2665585-8.05248514 13.8277199-11.8532581 20.175143z" fill="#687167"/><path d="m31.1631173 68.9553401c.2093646-1.6659903.4670441-6.8305604.7891435-10.3791198.1060915-1.2326422.2889948-2.4569141.547569-3.6651788l4.7187563 7.8468145h7.2472366c-3.6397233-7.0471391-10.4038108-20.2251227-10.5004406-20.7082599l-3.9457177-1.4494116s-.515359 8.0467334-5.6045296 8.4465711l.1449447 16.8098425z" fill="#687167"/><path d="m26.2833113 67.3393295-.2415745-16.8764822c.6280938-.1832589 5.1052755-1.7659497 5.6367395-8.7631091 0-.0552061-.0432626-.0999595-.0966298-.0999595-.0476623-.0006888-.08869.034679-.0966298.0832996-.563674 7.3470174-5.5240048 8.5965101-5.5723197 8.61317h-.0644199l.2415746 17.0264213z" fill="#fff"/><path d="m28.618532 68.0057256-.6764087-18.625772-.1932597.1999189.6764088 18.4258531z" fill="#fef3f7"/><path d="m19.8896382 50.4628473-.2093646 14.7773343h.1932596l.2093646-14.9272734h-.0805248c-.0483149-.0166599-5.0086458-1.2494927-5.5562147-8.61317-.0187217-.0480822-.0626948-.0805738-.1127348-.0832996-.0470011.0082135-.0811908.0506548-.0805249.0999595.531464 6.9804995 4.9925408 8.5631903 5.6367396 8.7464492z" fill="#fff"/><path d="m17.7315722 63.4242522.4670441-13.8443797-.1932596-.1999189-.4670442 14.0442986z" fill="#fef3f7"/><path d="m21.7094998 40.8834039c-.1096208.000335-.2009327-.0868573-.2093646-.1999198" fill="#fffeef" opacity=".2"/><path d="m25.0593336 40.3336261c0-.1196132-.0937357-.2165788-.2093646-.2165788-.054172-.0001949-.1059361.0231391-.1426802.0643167-.036744.0411776-.0550941.096418-.0505795.1522621" fill="#caaa6e"/><path d="m23.0623173 47.5140444c.7569336 0 1.0146131-.5331169 1.0146131-1.1162135s-.5958839-1.5160512-.8213535-2.0824879c-.0843496-.2268491-.1490244-.4610106-.1932596-.6997159-.0383676.2166398-.0977183.4287344-.1771547.6330763-.2254696.6330763-.8696684 1.5993507-.8213535 2.2824067.048315.6830561.2898895.9829343.9985082.9829343z" fill="#542f82"/><ellipse cx="23.062317" cy="43.615627" fill="#542f82" rx="1" ry="1" stroke="#231f20"/><path d="m23.1750521 44.8151401c-.2737845.2832184-.7247237 1.5160512-.531464 2.0158483.0664699.1817062.2045944.3255344.3798063.3954903.1752119.0699558.3709312.0594194.538177-.0289724.1771546-.0999594.4187292-.4164976.3059944-1.0828937-.0866963-.4516894-.2681139-.8782093-.531464-1.2494928-.0644199-.0999594-.0966298-.1332792-.1610497-.0499797z" fill="#6f2c87"/><ellipse cx="22.514748" cy="46.880968" fill="#fff" rx="1" ry="1"/><ellipse cx="22.901268" cy="47.130867" fill="#fff" rx="1" ry="1"/><path d="m25.0915435 45.6314754c.5153591 0 .6925138-.349858.6925138-.7496957s-.4026243-1.032914-.547569-1.4160918c-.0590624-.1573827-.1074937-.3188164-.1449448-.4831372-.0148179.1497174-.0528851.2959818-.1127348.4331575-.1610497.4331575-.5958838 1.0995536-.5636739 1.549371-.010503.1858242.0585819.3670133.1888842.4953867.1303023.1283735.3086157.1909207.4875245.1710095z" fill="#542f82"/><ellipse cx="25.091544" cy="42.999211" fill="#542f82" rx="1" ry="1" stroke="#231f20"/><path d="m25.1720684 43.798886c-.1932597.1999188-.4992541 1.032914-.3543094 1.382772.1030326.2430278.376267.3545998.6119889.2498985.1288398-.0832995.2898895-.2998782.2093646-.7496956-.0616428-.3049921-.1821513-.5939789-.3543093-.8496551-.0483149-.0499797-.0644199-.0832995-.1127348-.0333198z" fill="#6f2c87"/><ellipse cx="24.721129" cy="45.214978" fill="#fff" rx="1" ry="1"/><ellipse cx="24.978809" cy="45.364917" fill="#fff" rx="1" ry="1"/><path d="m21.065301 45.7480947c.515359 0 .6764087-.349858.6764087-.7496957 0-.3998376-.4026242-1.032914-.5475689-1.4327517-.0610933-.1495054-.1043583-.3061509-.1288398-.4664773-.0305919.1480129-.0737045.2929568-.1288398.4331575-.1610497.4331575-.5797789 1.0828938-.5636739 1.5493711.0161049.4664772.2093646.6663961.6925137.6663961z" fill="#542f82"/><ellipse cx="21.065301" cy="43.09917" fill="#542f82" rx="1" ry="1" stroke="#231f20"/><path d="m21.1297209 43.9155053c-.1932597.183259-.4992541 1.032914-.3543094 1.3661121.0454324.1243542.1399963.2227488.2599414.2704711.119945.0477223.253875.0402382.3681525-.0205726.1127348-.0666396.2737845-.2832183.1932596-.7330357-.0539337-.3074592-.1751264-.5980866-.3543093-.8496551-.0483149-.0666396-.0644199-.0832995-.1127348-.0333198z" fill="#6f2c87"/><ellipse cx="20.678782" cy="45.331597" fill="#fff" rx="1" ry="1"/><ellipse cx="20.936461" cy="45.481536" fill="#fff" rx="1" ry="1"/><path d="m19.6802736 43.3157488c.1126794.011256.2241486-.0314071.302611-.1158197s.1153031-.2013066.1000132-.3173378c0-.2498985-.2415745-.5997565-.3220994-.8329952-.0350732-.0859644-.06204-.1752315-.0805248-.2665584-.009726.0860744-.0314235.1702434-.0644199.2498985-.0966298.2498986-.3382044.6330764-.3220994.8996348-.005106.106126.0345616.2093208.1087228.2828408.0741611.07352.1755155.1101281.2777965.100337z" fill="#542f82"/><path d="m19.7285885 42.249515c-.1127348.1166193-.2898895.5997565-.2093646.7996753.0656238.143545.2280412.2092896.3704143.1499392.0644199-.0499797.1610497-.1665991.1127348-.4331575-.0348716-.1800288-.1062272-.3503696-.2093647-.4997971-.0322099-.0333198-.0322099-.0499797-.0644198-.0166599z" fill="#6f2c87"/><ellipse cx="19.470909" cy="43.06585" fill="#fff" rx="1" ry="1"/><circle cx="19.617539" cy="43.16583" fill="#fff" r="1"/><path d="m26.4282561 43.3157488c.2898894 0 .3865192-.1999188.3865192-.4331575 0-.2332386-.2254695-.5997565-.3220994-.8329952-.0361791-.0843426-.057974-.1745263-.0644198-.2665584 0 0-.016105.0666396-.0805249.2498985-.0644199.183259-.3382044.6330764-.3220994.8996348-.0003943.1076705.043021.2105445.1196202.2834441.0765993.0728996.1793136.1090972.2830041.0997337z" fill="#542f82"/><path d="m26.460466 42.249515c-.0966298.1166193-.2898895.5997565-.2093646.7996753.0656238.143545.2280412.2092896.3704143.1499392.0644199-.0499797.1610497-.1665991.1127348-.4331575-.0348715-.1800288-.1062271-.3503696-.2093646-.4997971-.016105-.0333198-.03221-.0499797-.0644199-.0166599z" fill="#6f2c87"/><ellipse cx="26.202787" cy="43.06585" fill="#fff" rx="1" ry="1"/><circle cx="26.349416" cy="43.16583" fill="#fff" r="1"/><path d="m27.6361288 12.7281662s1.5138672-.3998377 2.7700549.6997159 1.7071268 4.5481536-.4831491 5.1312503c0 0 3.4464636.5997565 3.784668-3.5318995.3382044-4.1316561-5.6045296-4.7647324-6.0715738-2.2990667z" fill="#3a2c1c"/><path d="m26.7020406 5.4144686 1.0146131 7.1470985s2.1097511-.5830966 3.8329829.0999595c1.7232318.683056 3.3337288 2.1324676 1.2722926 7.5136164-1.2722926 3.2986609-3.253204 10.8122773-1.079033 15.1938319 1.8037567 3.6485188 6.0393638 1.4160918 6.0393638 1.4160918s-4.3322369 1.2494927-3.9457177-2.3990261c.3865193-3.6485189 9.179833-21.2580367 1.4011325-28.18855654-4.0745575-3.61519904-8.5356342-.78301546-8.5356342-.78301546z" fill="#3a2c1c"/><path d="m27.0885598 5.54774783.547569 7.01381927s-2.0131212-2.56562507-5.0730656-.5830966c-3.0599443 1.9825285-1.7232318 6.4807024-8.4067944 7.4802966 0 0-.3865193 6.6139817-4.20339723 7.2137382s-5.07306561-1.2828125-5.07306561-1.2828125 1.62660199 1.2828125 3.73635309-1.0995537c2.10975105-2.3823662-.48314911-12.1617294 3.91350775-17.99269562 4.3966569-5.83096618 13.7858545-3.31532077 14.558893-.74969565z" fill="#3a2c1c"/><path d="m27.6361288 12.5615671c-.0211375-.0905903-.0480377-.179637-.0805248-.2665584-.0761996-.2391277-.17888-.468336-.3059945-.683056-.197845-.325014-.4421983-.6171072-.7247236-.866315-.3754961-.3162968-.8002898-.5641809-1.2561877-.7330358-.5346201-.20129659-1.0921981-.3300945-1.6588119-.38317775l-.9501933-.0333198-.9662982.04997971c-.6710979.07914088-1.3275208.25872211-1.9487014.53311694-.6288314.2804625-1.1898281.7014841-1.6427069 1.2328328-.4523877.53871-.7923263 1.1682804-.9985082 1.8492493-.1103333.3316108-.196468.6713149-.2576795 1.0162541-.0322099.166599-.0483149.349858-.0644199.516457-.0161049.166599-.0322099.349858-.0644199.5331169-.0975956.7084336-.3214909 1.3919659-.6603037 2.0158483-.3027369.554515-.7208052 1.0325123-1.2239778 1.3994319-.4257197.3020689-.908919.5065526-1.4172373.5997565-.3905644.0539882-.7866747.048375-1.1756629-.0166599-.2431992-.0528509-.480612-.1309942-.7086187-.2332386l-.2415745-.0999594.2415745.0832995c.2391379.0575937.4810494.1020821.7247237.1332792.3723582.0265204.746471-.0015234 1.1112429-.0832995.462745-.1238577.8958504-.3450366 1.2722927-.6497362.4399697-.3653895.7972754-.8259897 1.0468231-1.3494522.2798911-.5797031.4597485-1.2055237.531464-1.8492493l.0483149-.5331169c.016105-.1832589.0322099-.3665179.0644199-.5497768.0479728-.378818.1288241-.7523977.2415745-1.1162135.229384-.7517286.6017258-1.4484361 1.095138-2.0491682.5148841-.5923744 1.1463912-1.0638628 1.8520716-1.38277194.6765463-.29126083 1.3947023-.46573016 2.125856-.51645701.3543094-.0333198.6925137-.0333198 1.0307181-.0333198.3289002.01598378.6567957.04934711.9824032.09995942.3092883.0418716.6158433.10306981.9179833.18325893.2806771.08528442.5551508.19106274.8213535.31653817.2479721.10963983.4852555.24352685.7086187.39983763.2013165.1435081.3899454.305186.5636739.4831372.2806022.2830546.5097172.6159968.6764088.9829343.1118573.232068.1931071.478613.2415745.7330358z" fill="#745b45"/><path d="m28.2320127 12.2616889.2093646-.2332387c.2137633-.2002848.4456711-.3788141.6925138-.5331169.3946466-.241477.8242098-.415848 1.2722926-.516457.5827975-.122374 1.1804203-.1504747 1.7715467-.0832995.714543.0793189 1.4026246.3241749 2.0131213.7163759.7000265.4459144 1.229246 1.1287615 1.4977622 1.9325487.2761652.8529588.3371441 1.764752.1771547 2.6489247-.0696.4406409-.1719007.8750829-.3059944 1.2994725l-.4187293 1.2494927c-.2737845.8329952-.547569 1.6659903-.8052485 2.4823256s-.515359 1.6160106-.7569336 2.3990261c-.2415745.7830155-.4670441 1.549371-.6764087 2.2657469-.2093646.7163758-.4026243 1.3994318-.579779 2.0325082-.2813633 1.0168794-.4965778 2.0521097-.6441988 3.098742-.0366079.2928269-.0420086.5889278-.0161049.8829749.0161049.0999594.0322099.166599.0483149.2332386l.0322099.0666396-.0483149-.0666396c-.0279587-.0756708-.049513-.1537102-.0644199-.2332386-.0534093-.2965125-.0750135-.598218-.0644198-.8996348.0666474-1.0605836.2174684-2.1137043.4509391-3.1487217.1288398-.6497363.2898895-1.3494522.4831491-2.082488.1932597-.7330357.3704143-1.4993913.5958839-2.2990666.2254696-.7996754.4670442-1.5993508.7247237-2.4323459.2576795-.8329952.515359-1.6493305.7891435-2.4823256l.4026243-1.2494928c.1339424-.3960635.2362831-.8028157.3059944-1.2161729.1288398-.8163353.1288398-1.6493305-.1127348-2.3657063-.2206872-.7104989-.662354-1.3255369-1.2561877-1.7492899-.5505692-.3729493-1.1704639-.6226414-1.8198616-.7330357-.5593535-.0933255-1.1286385-.1045426-1.6910219-.0333198-.4278053.0709666-.8447373.199796-1.2400827.3831778-.2632735.1258709-.5118204.2823734-.7408286.4664772z" fill="#745b45"/><path d="m27.9743332 10.5457188c-.0035984-.1006424-.0143642-.2008734-.0322099-.2998782-.03221-.1999189-.0966299-.48313722-.1932597-.84965509-.1188675-.42792846-.2696325-.84567813-.4509391-1.24949276-.2240626-.52734335-.5166521-1.02058551-.8696684-1.46607149-.4203581-.51534729-.9347837-.93993613-1.5138672-1.24949276-.3128306-.16475398-.642296-.29325909-.9824032-.38317778l-.531464-.11661932c-.1803079-.03860801-.3635225-.06090539-.547569-.06663961h-.5797789l-.563674.0333198c-.3859707.03273667-.7685206.09962086-1.1434529.19991884-.7611607.22007584-1.4727058.59376938-2.0936461 1.09955363-.6162795.52251297-1.1442163 1.14746366-1.5621821 1.84924927-.4034848.69177226-.7277659 1.42977309-.9662982 2.19910727-.2135789.7242465-.3697767 1.4652856-.4670442 2.2157671-.0483149.3665179-.0805248.7330358-.1610497 1.0828937-.0752455.3413376-.1775909.6756701-.3059944.9995943-.1340526.2919048-.3016835.5659998-.4992541.8163352-.192051.2166448-.4146693.4019994-.6603037.5497768-.4018093.218353-.8507435.3272871-1.3045026.3165382-.2882-.0138884-.5742408-.0585521-.8535635-.1332792l-.2737844-.0999595.2898894.0666397c.2712719.046969.5466291.0637247.8213535.0499797.4270969-.0348609.840556-.1717268 1.2078728-.3998377.4408432-.31913.7733068-.7738031.9501932-1.2994725.1123075-.3012335.1932888-.6139814.2415746-.9329546.0552044-.3531796.0928323-.7090599.1127347-1.0662338.0643053-.7844601.2045852-1.5602596.4187293-2.3157266.1125525-.4072678.2469692-.80772701.4026242-1.19951299.1685437-.39300566.356688-.77669932.563674-1.14953334.4427208-.7662805 1.0155894-1.44354687 1.6910219-1.9991884.6790813-.55683938 1.4637079-.95983274 2.3030107-1.18285314.4101328-.11527741.8315248-.1823408 1.2561877-.19991884h.9179833l.2898894.0333198.5958839.08329952c.1932597.04997971.4026243.08329952.5797789.14993913.3635168.11784784.7143139.27416737 1.0468231.46647729.3190702.17955972.6164082.39766434.8857734.64973624.2466234.23457724.4729543.49100492.6764087.76635555.3410813.48712287.6173378 1.01944989.8213535 1.58269082.1579042.42619029.2765343.86685874.3543093 1.31613237.058968.28535928.0966572.57498305.1127348.86631499.016105.166599.016105.2665584.016105.2665584z" fill="#745b45"/><path d="m55.2078378 42.5493932s-1.2400827-4.1816357-.7569336-4.5481536 7.553231-1.2661526 10.1622362-.1999188l-.1932597 4.7480724-8.0363801 3.7817981z" fill="#afb1b4"/><path d="m40.7777845 64.9403034 7.7464906-11.2454348 1.0629281 11.2454348h18.9555499c.9662982-10.3458 1.2239777-12.0451102 1.2239777-12.0451102l6.2326235 12.0451102h4.6704413l-8.1813248-19.6087063s-.4348342-1.9658686-3.4786736-3.0154425c-3.0438393-1.0495739-5.7816843-2.2324271-5.7816843-4.4648541v-5.864286h-7.3760763v5.864286c0 2.232427-2.72174 3.2986609-5.7655793 4.3482348-3.0438394 1.0495739-3.4142537 2.9987826-3.4142537 2.9987826l-11.1607444 19.7419855z" fill="url(#f)"/><path d="m72.7622553 15.0605527c0 10.8789169-3.7363531 19.7753053-13.3349153 19.7753053-9.5985623 0-13.1577607-8.9963479-13.1577607-19.8919247 0-10.89557678 8.9382585-12.0117903 13.3188104-12.0117903s13.1738656 1.23283285 13.1738656 12.1284097z" fill="#fddfd8"/><path d="m56.4157105 22.0243923c.0130633 1.1080135-.6220996 2.1144622-1.6079477 2.547877s-2.127124.2079535-2.8891993-.570767c-.7620754-.7787205-.9940131-1.9564665-.5871625-2.9815253.4068506-1.0250587 1.3719086-1.6944067 2.4430944-1.6944891.6962265-.004432 1.3656379.2774293 1.8609646.783575.4953268.5061457.7759923 1.1951127.7802505 1.9153294z" fill="#82b034"/><path d="m55.7393018 22.0243923c.006511.771157-.4384036 1.4698268-1.125902 1.7680556-.6874985.2982288-1.4810719.1368007-2.008219-.4085105-.5271471-.5453111-.6831982-1.3662289-.3949032-2.0774167s.9636924-1.1714329 1.7091626-1.1646975c1.0014364.009048 1.8111149.8466258 1.8198616 1.8825691z" fill="#2a1d01"/><path d="m53.1464016 21.041458c0 .3036333-.2379446.5497768-.531464.5497768-.2935195 0-.531464-.2461435-.531464-.5497768 0-.3036334.2379445-.5497768.531464-.5497768.2935194 0 .531464.2461434.531464.5497768z" fill="#fff"/><path d="m53.6939706 28.0219575c1.8037566 1.1328734 3.752458 1.8325894 5.7172644 1.8159295s3.8651928-.7996754 5.7494743-1.8159295c-.7000077.8531098-1.5602221 1.5502574-2.5284803 2.0491681-2.0186729 1.0703576-4.4080226 1.0888952-6.441988.0499797-.9848957-.4790342-1.8418073-1.1996229-2.4962704-2.0991478z" fill="#f99d1c"/><path d="m62.8899085 22.0243923c.1079291 1.4308824 1.2618429 2.5350459 2.6492676 2.5350459 1.3874248 0 2.5413386-1.1041635 2.6492676-2.5350459-.107929-1.4308824-1.2618428-2.5350459-2.6492676-2.5350459-1.3874247 0-2.5413385 1.1041635-2.6492676 2.5350459z" fill="#82b034"/><path d="m63.5824223 22.0243923c-.0065111.771157.4384035 1.4698268 1.125902 1.7680556s1.4810719.1368007 2.008219-.4085105c.5271471-.5453111.6831981-1.3662289.3949032-2.0774167-.288295-.7111878-.9636924-1.1714329-1.7091626-1.1646975-1.0014365.009048-1.811115.8466258-1.8198616 1.8825691z" fill="#2a1d01"/><path d="m63.6790521 21.041458c0 .3036333.2379445.5497768.531464.5497768s.531464-.2461435.531464-.5497768c0-.3036334-.2379445-.5497768-.531464-.5497768s-.531464.2461434-.531464.5497768z" fill="#fff"/><path d="m54.5153241 41.2832406s4.7509662 4.2649352 9.9045566 0l-3.5108835 10.6623381z" fill="#fff"/><path d="m57.4142187 48.9467961s1.6427069 2.9987826 2.2546958 2.9987826 2.5767952-2.9987826 2.5767952-2.9987826l-2.4640604-1.9158889z" fill="#1b88c0"/><path d="m39.2156024 67.8891063 8.7611038-13.3945623s.499254 8.1300328.8052485 12.7781459l20.4533121-2.3323865c.3543093-4.9479913.8374584-11.2620947.8374584-11.2620947l5.7655794 11.2620947h5.0247507c-2.9794195-7.6135759-8.2457448-21.0081382-8.8416287-21.8244734-.8213534-1.1328735-7.553231-3.115402-7.553231-3.115402l-5.0891706 7.6635556-5.6206345-7.9467739s-6.0554688 2.2657468-6.6030378 2.5489652c-.547569.2832183-10.0172915 18.0426753-13.9630092 25.6229314z" fill="#e6e7e8"/><path d="m79.1076135 63.2576531c.3266104-.1214321.6682139-.1943506 1.0146131-.2165787-.0179668-.030342-.0289845-.0645342-.0322099-.0999594h-.016105l-.0483149-.1166193c-.3433953.0172389-.6812715.0961624-.9985081.2332386l-1.1756629-2.7488841c.3813033-.0803422.7711795-.1083498 1.1595579-.0832995-.0322099-.0832995-.0483149-.1499391-.0805249-.2165787-.3889571-.0132439-.7780847.0203008-1.1595578.0999594l-1.079033-2.4989855c.3502264-.2039723.731449-.3448146 1.1273479-.4164976-.019881-.0694165-.0468758-.1364366-.0805248-.1999188-.3933078.081587-.7730614.2218865-1.127348.4164976l-1.1434528-2.6489247c.3473051-.2704188.7195167-.5047891 1.1112429-.6997159-.019881-.0694166-.0468759-.1364367-.0805249-.1999189-.3937481.1910535-.766335.4256601-1.1112429.699716l-1.3528175-3.1653817c.2737845-.5331169.6280938-1.1661932.8535634-1.5660309l-.0966298-.2498985c-.2093646.3665178-.5958839 1.0495739-.8696684 1.5660309l-1.3206075-3.0820821c.4187292-1.1661933.7569336-1.9158889.7730385-1.9325488-.0442874-.0856522-.0819823-.1747808-.1127348-.2665585-.1610497.349858-.4831491 1.1495333-.7730385 1.9325488l-1.3850275-3.2153614c.3865193-1.0162541.8052485-1.2828125.9824032-1.3494521s-.0483149-.0666396-.0483149-.0832995h-.016105l-.0644198-.0999595c-.1610497.0499797-.563674.2832184-.9662983 1.2494928l-2.4479554-.8163353c.0322099-.6330763.2737845-1.382772.4670441-1.9325488l-.1771547-.0666396c-.2093646.5331169-.4670441 1.2994725-.499254 1.9325488l-1.9325965-.6663961c.048315-.8163353.0805249-1.2994725.0805249-1.3327923h-.2093646c0 .1332792-.03221.5830966-.0644199 1.2828126l-.3220994-.0999595-.0644199.1999189.3704143.1166193c-.0483149.8163353-.0966298 1.9158889-.1771546 3.2153614-.4506352-.1346726-.9075167-.2458783-1.3689225-.3331981l-.0483149.1999188 1.4172374.349858c-.0483149.8829749-.0966299 1.8492493-.1610497 2.8821633-.4831491-.1332792-1.0307181-.2665585-1.5943921-.3665179l.4670441-5.7310067h-.2093646l-.4670441 5.7143468-1.062928-.166599-.03221.2165787 1.079033.1665991-.2254696 2.8488434-1.4172373-.1499391.3704143-4.7813923h-.1932597l-.3865192 4.7813923c-1.7876517-.1499391-3.4786736-.1999188-5.0086458-.1999188l-.3865192-4.3648947h-.1932597l.3704143 4.3482348-1.9164914.0666396-.3220994-3.5152396.8535634-.1665991.6925137-.1166193-.0322099-.1999188-.7086187.1166193-.8213535.1499391-.2898895-3.1487217h-.2093646l.2898895 3.1653816c-.6119889.1166193-1.1917678.2498986-1.7232318.3831778l-.2576795-3.1487217 1.4172373-.4164976-.0644199-.1999189-1.3689224.3998377-.2093646-2.5323053.7086187-.2165787-.048315-.2165788-.6764087.2165788-.1449447-1.7992696-.1610497.0499797h-.03221l.1449448 1.7992696-1.3689225.4164976-.1127348-1.6993102h-.016105l-.1771546.0666396h-.016105l.1127348 1.6993102-1.7393368.5497768c-.0644199-.7163759-.1288398-1.4327517-.1449447-1.5660309l-.1932597.0832995c0 .0333198.0644199.7163758.1288398 1.549371l-.9179833.2832183c-.1029063-.4573348-.2319732-.9079452-.3865193-1.3494521l-.0805248.0333198h-.03221l-.0483149.0666396h-.016105c.1492067.4191966.2729197.8476373.3704143 1.2828126l-2.0936461 3.8484376c-.1884624-.3418644-.4275718-.65105-.7086187-.9162946l-.0966298.1832589c.2748202.2857309.5080902.611216.6925137.9662744l-1.7554417 3.2153613-.6764088-1.0162541c-.0469868.066513-.0849196.1393869-.1127348.2165788l.6764088.9995942-1.2561877 2.3157265-.7891435-.8329951-.0966298.1999188.7730385.8329952-.9824032 1.8159295c-.3059944-.1665991-.6925137-.349858-.9662982-.4664773l-.0966298.166599c.3329947.1430341.6558857.3100426.9662982.4997971l-.9179833 1.6659903c-.317417-.1629589-.6457276-.3021488-.9824032-.4164975l-.1127347.1832589c.3422514.1199635.6759125.2647073.9985081.4331575l-.9824032 1.7992695-.9662982-.4664773-.0966298.183259c.016105.0166599.531464.2498985.9501932.4831372l-.8374584 1.5327111-.9824032-.3665179-.1127348.183259c.2415746.0832995.7730386.2665584.9985082.3665178l-.8857734 1.6326706c-.547569-.183259-.9662982-.2832184-1.0146131-.2998783-.0114984.0439241-.0336757.0840718-.0644199.1166193v.0333198l-.0483149.0666396c.3485632.0737733.6927104.1683373 1.0307181.2832184l-2.6251102 4.7813923h.2576796l2.5606902-4.7314126c.3059945.0999594.6603038.2498986 1.0307181.4164976l-2.3996405 4.2815952h.2254695l2.3513257-4.1982957c.3874383.183826.7591741.4011773 1.1112429.6497362l-2.0292262 3.5818793h.2415745l1.9648064-3.4486c.1932596.1499391.9662982.9662744 1.1273479 1.1495333l.1449447-.1999188c-.3682096-.403093-.7608941-.7814853-1.1756628-1.1328735l.7891436-1.3327922c.4332956.3654246.8472557.7547192 1.2400827 1.1661932l.0966298-.166599c-.3907109-.4189608-.8047791-.8139198-1.2400827-1.1828532l.9340883-1.5660309c.4682506.3594729.9096985.7548728 1.3206075 1.1828532l.0966298-.1332793.03221-.0333198c-.4141391-.4422223-.8670159-.843778-1.3528175-1.199513l.9018783-1.5327111 1.3528175 1.3327922.1288398-.1832589c-.03221-.0166599-.6603038-.6663961-1.3689225-1.3327923l.9018783-1.5160512c.7891436.7496957 1.3689225 1.4160918 1.3850275 1.4327517v-.0333198l.0966298-.1499391c-.0483149-.0499797-.5958839-.6830561-1.3850275-1.4494116l.7891436-1.3494522 1.4494473 1.5327111.1127348-.1832589-1.4494473-1.5327111.9985081-1.6993102 1.3045026 1.9325488.1127348-.1832589-1.3045026-1.9325488 1.1434529-1.9492087c.2535849 1.0601027.4524937 2.1334053.5958839 3.2153613l.1771547-.2832183c-.03221-.2332387-.2254696-1.5993507-.5958839-3.2153614l1.0307181-1.7659497c.0161049 2.3990261-.1127348 4.298255-.1127348 4.3482348v.1499391h.0161049l.0966299-.1499391c.0021898.0392723.0075772.0782836.0161049.1166193h.016105c.016105 0 .515359-.1499392 1.4655523-.349858.0644199.7330358.1127348 1.4660715.1771547 2.1991073-.8857734.1999188-1.4172374.3665178-1.5299722.3998376-.0023488.0341685.0031706.068426.016105.0999595l.0322099.1166193c.489887-.1683454.9903021-.3019345 1.4977622-.3998377l.1932597 2.415686c-.8535634.1499391-1.4011324.2665584-1.5782871.3165382-.1771547.0499797.016105.1332792.016105.2165787s.6764087-.166599 1.578287-.3165382l.1449448 2.0325082-1.610497.1999189c.0139648.0712321.019374.1439753.0161049.2165787.1932597-.0333198.7569336-.1166193 1.610497-.1999188.0644199.7830154.1127348 1.5660309.1771547 2.2990667l-1.5782871.2498985.03221.2165787c.4992541-.0999594 1.0307181-.1832589 1.5621821-.2498985.016105.2998783.1932596 2.4490058.2093646 2.7488841h.2093646c-.0322099-.2998783-.1932596-2.4656657-.2254696-2.7822039l1.5460772-.166599.2254695 2.7988637h.1932597l-.2254696-2.8155236c.547569-.0666397 1.095138-.0999595 1.642707-.1332793l.2415745 2.7822039h.2093646l-.2576795-2.7988638c.6441988-.0499797 1.3045026-.0832995 1.9487014-.0999594l.1127348 1.3494522h.2093646l-.1288398-1.3661121 1.8842816-.0499797.1127347 1.4160918h.2093647l-.1288398-1.4160918h3.0277344l-.1127348 1.4160918h.2093646l.1127348-1.4160918 1.4011324.0333198-.1127348 1.382772h.2093646l.1127348-1.382772 2.0614362.0832995c-.0107366.4553707-.0268416.8885282-.0483149 1.2994725h.2093646l.0483149-1.2994725 1.9487014.1166193-.0483149 1.1828532h.1932596c.03221-.3831778.0483149-.7663556.0644199-1.1828532l1.6588119.1166194v-.1999189c-.0322099-.0166599-.6441988-.0666396-1.6588119-.1166193.016105-.6330763.0483149-1.2661527.0805249-1.9325488l1.7554417.2332387.03221-.2165788-1.7715468-.2332386c.03221-.5830967.0644199-1.1995131.0966299-1.8159295l1.8520715.349858.03221-.2165788-1.8842815-.349858.1449447-2.8155236c.6280938.1166193 1.2561877.2332386 1.9003865.3831778l.0483149-.1999189-1.9325964-.3998377c.0322099-.683056.0644198-1.366112.1127348-2.0491681l1.8842815.3165382.0322099-.2165788-1.9164914-.2998782c.0322099-.4498174.0483149-.8996348.0805248-1.3327923.6280938.1332792 1.2722927.2665585 1.9164915.4331575v.4997971h.2093646c-.016105-.8496551-.016105-1.6160106 0-2.3490464l.8857733 1.8492493c-.1016233.7060755-.1554375 1.4186328-.1610497 2.1324676l.1771547.3665179h.0322099c-.0106467-.7237526.0270211-1.4474022.1127348-2.1657874l.8052485 1.6659903c-.1966898.4968764-.3319669 1.0174475-.4026242 1.549371h.1932596c.0701655-.4438292.183475-.879195.3382044-1.2994724l.8374585 1.71597c-.3382044.4331575-.563674.7663556-.6764088.9162947l.0966298.2165787h.016105c0-.0166599.2576795-.3831777.6603038-.9162947l.9501932 1.9825285-.7247236.699716.0644198.0832995.0644199.0832995.6925137-.6497362 1.079033 2.2490869c-.2065634.2269245-.400152.4661229-.5797789.7163759l.1610497.1166193c.1660975-.220693.3435064-.4320213.531464-.6330763l1.2722927 2.6655845-.2737845.2498986h.3220994l.0483149-.0499797.0322099.0499797h.2254696l-.0966298-.183259c.2576795-.2165787.563674-.4664773.9179833-.7163758l.4026242.8996348h.2415746l-.4831491-1.0162541c.3146765-.216568.6428611-.411359.9824032-.5830966l.6764087 1.5993507h.2254696zm-1.5460771-3.0820821c-.3819454.1322179-.7448977.3171453-1.079033.5497768l-1.0468231-2.2490869c.3443084-.2778698.7046528-.5337952 1.079033-.7663556zm-1.1434529-2.6655845c-.3382044.2165787-.7086187.4831372-1.079033.7496956l-1.062928-2.3157265c.3190391-.3747375.6634839-.7254836 1.0307181-1.049574zm-1.2078728-2.8155237c-.3382043.2998783-.6925137.6663961-1.0307181 1.032914l-1.1273479-2.415686c.2898895-.5997565.579779-1.1828531.8535635-1.6826502zm-2.705635-6.3474232 1.2883977 3.0321024c-.2576796.4997971-.563674 1.0828937-.8535635 1.6826503l-1.1273479-2.4490058c.2093646-.8329952.4670442-1.5993508.6925137-2.2657469zm-1.4977622-3.4985797 1.3689225 3.2153614c-.2254696.6497362-.4670442 1.4160917-.6925137 2.2490869l-1.2078728-2.6156048h-.0483149c.1063005-.9663497.3004187-1.9201829.5797789-2.8488435zm-2.4801654-1.1661932 2.3030107.7830154.048315.0999594c-.3239456.9825201-.5400368 1.9996139-.6441988 3.0321025-.3220995-.1332793-1.0146132-.4164976-1.8681766-.7330358.0644199-1.2328328.1127348-2.3323865.1610497-3.1820415zm-2.1258561-.7163759 1.9325965.6497363c-.0483149.849655-.1127348 1.9325487-.1771547 3.1820415-.5958839-.2165787-1.2561877-.4331575-1.9325964-.6330763.0644199-1.2994725.1288397-2.3823662.1771546-3.1987015zm-2.158066 6.0808648c.563674.0999594 1.111243.2332386 1.6104971.3665178-.0483149.866315-.0966299 1.7826097-.1449448 2.7155643-.5797789-.0999594-1.1434529-.1665991-1.6910218-.2332387zm-.2415745 3.0487623c.547569.0666396 1.1273479.1499391 1.6910219.2498985-.016105.4664773-.048315.9496145-.0644199 1.4327517l-1.7554418-.1832589zm-.1449447 1.6993101 1.7554417.1999189-.0966298 1.9658686c-.6119889-.0832996-1.2239777-.1665991-1.8198616-.2165788zm-10.8547499-.0499797.1771546 2.0991478-1.5460771.2165788-.1449447-2.1324677zm-1.5299722-.0333198-.1127348-1.6493304 1.4977622-.1499392.1288398 1.6326706zm1.7232318 2.3323865.2093646 2.6156048-1.5782871.1499391-.1771546-2.5323053c.4670441-.0832995.9824031-.166599 1.5460771-.2332386zm.1932596-.0166599.8696684-.0999594.9824032-.0832996.2415746 2.6989044c-.6603038.0166599-1.2883976.0666396-1.8842815.0999594zm2.0453313-.1999189c.5958839-.0499797 1.2239777-.0832995 1.9003864-.0999594l.2415746 2.7822039h-1.8842815zm1.9164914-2.2990666c1.4172374-.0166599 2.9633145.0166599 4.6704414.1332792l-.1449448 1.9325488c-1.5621821-.0999594-3.0116294-.1166193-4.3483419-.0832995zm.2415746 5.1812299.1932596 2.1991073-1.8842815.0333198-.1932597-2.1991073zm.1932596-.1999188-.2415746-2.7988638c1.3045026-.0333198 2.7539499-.0166599 4.3161321.0832995l-.2254696 2.8655034c-1.3689225-.0999594-2.6573201-.1499391-3.8490879-.1499391zm4.2839221-2.6989044 1.4011324.1166194-.2254696 2.8655033-1.4011324-.1332792zm1.610497.1332793c.5958839.0666396 1.2078728.1332792 1.8198616.2332386l-.1449447 2.8488435-1.9003865-.2165788zm-1.3045026-4.0150368 1.4172374.1499392-.1288398 1.4993913-1.4172374-.1166193zm-.1449447 1.7492899 1.4172373.0999594-.1449447 1.9492087c-.4831491-.0499797-.9662982-.0999594-1.4172374-.1166193zm-.0644199-1.7659498-.1288398 1.5327111c-1.7071268-.1166193-3.2854139-.1499391-4.7026513-.1332792l-.1449447-1.5993507c1.5299722 0 3.2048891.0499797 4.9764358.1999188zm-4.847596 3.6151991c-.6603038.0166599-1.2883976.0499797-1.9003865.0999594l-.1771547-2.0325082 1.9003865-.0666396zm-.3382044-3.8151179.1449447 1.5993507-1.9164914.0666396-.1449448-1.6160106zm-1.7554418 3.9150773-1.8520715.1832589-.1610497-2.0824879 1.8198616-.1332792zm-.2093646-2.2324271-1.8198616.1166194-.1288398-1.6160107 1.8037567-.1166193zm-.4831491-5.3145091.3059945 3.4819198-1.7876517.1166193-.2576796-3.2153614c.547569-.1332792 1.127348-.2665584 1.7393368-.3831777zm-1.6910218 3.615199-1.4977623.166599-.1932596-2.9821227c.4348342-.1332792.9179833-.2498985 1.4333423-.3831778zm-.2737845-3.3986203c-.5153591.1166193-.9985082.2332387-1.4333424.3665179l-.2093646-3.0987421 1.4011324-.3998376zm-.4670442-5.8809459.1932597 2.5323053-1.3850275.3998377-.1771546-2.5156454zm-1.1756628 6.2974435-1.6588119.4831372c-.0805249-1.1162135-.1771547-2.1491276-.2576795-3.0820821l1.7071268-.4997971zm-2.7378449 1.0995536h.0161049l.8857734-.3165382c.0644199.8496551.1449447 1.7492899.2254696 2.6655846l-1.1434529.2165787c.016105-.7496956.0322099-1.6326705.016105-2.5656251zm2.3352207-6.9138599.1771546 2.4989855-1.7071268.4997971c-.0805249-.9662744-.1449447-1.7992695-.2093646-2.4490058zm-3.0116295 1.0662338c.1449448.7663556.2415746 1.5993507.3220994 2.4656657l-1.6427069 2.8988232c-.1976376-.5558919-.4344811-1.0960154-.7086187-1.6160106zm-2.158066 3.9817169c.2686272.5262206.5000702 1.0718707.6925137 1.6326706l-1.594392 2.7988637-.8374585-1.2328328zm-1.8520715 3.3986203.8374584 1.2328329-1.1434529 2.0325082-.9340883-.9829343zm-1.3367126 2.4656657.9179833.9829343-.8535634 1.5327111c-.3382044-.2665584-.6925137-.516457-1.0307181-.7330357zm-1.062928 1.9658686c.3382044.2165788.6764087.4664773 1.0146131.7330358l-.9018783 1.5993507c-.3291716-.2451234-.673478-.4677298-1.0307181-.6663961zm-1.0146131 1.8659092c.353014.1907931.6921165.4079471 1.0146131.6497362l-.9662982 1.7159701-1.0307181-.5664367zm-1.079033 1.9825285 1.0146131.5664367-.8535634 1.5160512c-.3220994-.1832589-.6441988-.3831778-.9985082-.5497768zm-.7891436 3.7484783c-.3543093-.1665991-.7086187-.2998783-1.0146131-.4164976l.8696684-1.5993507c.3372899.1576246.6653242.3356377.9824032.5331169zm1.3045026.7496956c-.3541549-.2450732-.7256155-.4622637-1.1112429-.6497362l.8213535-1.4660715c.4026242.2665584.7569336.5331169 1.079033.7830154zm.8857734-1.5160512c-.3059945-.2498985-.6764088-.516457-1.0629281-.7830155l.8535635-1.5160512c.3901022.2260687.7665773.4764278 1.1273479.7496957zm1.0307181-1.7326299c-.3704143-.2665585-.7569336-.533117-1.1273479-.7496957l.9662982-1.71597c.3756374.2847465.7358585.5906396 1.079033.9162946zm1.0307181-1.73263c-.3488484-.3255856-.7144258-.6314619-1.095138-.9162947l.9018783-1.5826908c.3865193.3165382.7569336.6497362 1.079033.9662744zm.9985081-1.7326299c-.3220994-.2998783-.6925137-.6330764-1.079033-.9496145l.8535634-1.4993913 1.0307181 1.0995536zm.9179833-1.5493711-1.046823-1.0995536 1.1273479-1.9825285.9340882 1.3661121zm1.1273479-1.9158889-.9340882-1.366112 1.5621821-2.7322242c.2254695.6830561.4187292 1.382772.5797789 2.065828zm1.3689225-2.3157265c-.1610497-.6830561-.3704143-1.382772-.5958839-2.0491681l1.5782871-2.7822039c.0805248.9995942.1127348 1.9991884.1288397 2.9488029zm.7891435-7.8301546.9179833-.2832184c.0483149.6497363.1127348 1.4827314.1932597 2.4490058l-.7730386.2165788c-.0582961-.8013774-.1713129-1.5974859-.3382044-2.3823662zm.4348342 2.582285.7086187-.1999188c.0805249.9162947.1610497 1.9658686.2576795 3.0820821l-.8857733.2998783c-.016105-.9995942-.0644199-2.0491682-.1449448-3.0820822zm-.0161049 7.9634338c.0161049-.2665584.0483149-.9162947.0805248-1.7659497l1.1595579-.2165788c.0322099.5497768.0805248 1.1162136.1288397 1.6826503-.6925137.1332792-1.1434529.2498985-1.3689224.2998782zm1.1917677-4.9313314 1.658812-.4831372.2093646 2.9488029c-.6441988.0832995-1.1917678.1499392-1.642707.2332387-.0644199-.9329546-.1449447-1.8325894-.2254696-2.6989044zm.3865193 4.5814735-.1449447-1.6659904c.4509392-.0832995.9985082-.166599 1.642707-.2332386l.1127347 1.6493304zm.1932597 2.415686c-.0644199-.7496957-.1127348-1.4660715-.1771547-2.1991073l1.594392-.2665585.1610498 2.1491276c-.6119889.0999594-1.127348.2165787-1.5782871.3165382zm.0161049.1999188 1.5621822-.2998783.1771546 2.5156454-1.5460771.2165788zm.2093647 2.6489246c.4348342-.0832995.9501932-.1499391 1.5460771-.2165787l.1449447 2.1324676-1.5460771.1332792c-.0483149-.6663961-.0966298-1.366112-.1449447-2.0491681zm.3382043 4.5648136c-.0644199-.7496957-.1127348-1.5160513-.1771546-2.2990667l1.5460771-.1499391.1610497 2.2657468zm1.4172374-4.8147121 1.5782871-.1499392.1610497 2.1824474-1.5943921.1166193zm.3059944 4.6147932-.1449447-2.2490869 1.610497-.1166194.1771547 2.2324271zm1.642707-2.582285-.1771547-2.1991073.4670442-.0333198 1.4172373-.0666396.2093646 2.2157672zm.1932596 2.4323459-.1771546-2.2324271 1.9164914-.0832995.1932597 2.2157672c-.6441988.0222132-1.2883977.055533-1.9325965.0999594zm2.1419611-.1166193-.1932597-2.1991073 1.8681766-.0333198.1932596 2.1991073zm5.1374855-.0499797c-.9824032 0-2.0131213-.01666-3.0599444 0l-.1932596-2.1824474c1.079033-.0166599 2.2224859 0 3.4142537.0499797zm.1771546-2.3490464c-1.1917678-.0499797-2.3513256-.0499797-3.4464636-.0499797l-.1932596-2.1991073c1.1595578.0166599 2.4318505.0499797 3.8168779.1499391zm1.4333424 2.3823662h-1.4011324l.1610497-2.1491276 1.4172374.0666396zm.1932596-2.3157266-1.4172374-.0666396.1610497-2.0824879 1.4172374.1166193zm2.0775412 2.3990261-2.0614362-.0666396.1610497-2.0991479 1.9970163.1332793c-.0322099.6997159-.0644199 1.3827719-.0966298 2.0325082zm.1127348-2.249087-1.9809114-.1332792.1610497-2.0158483c.6119889.0499797 1.2561877.1332792 1.9164915.2165787zm2.0453312 2.3657063-1.9487014-.0999594c.0322099-.6663962.0644199-1.3327923.0966298-2.0325082l1.9487014.1999188c-.0322099.6663961-.0644199 1.2994725-.0966298 1.9325488zm.0966298-2.1491275-1.9325964-.1999189c.0322099-.6330763.0483149-1.2661526.0805248-1.9158889l1.9487014.2832184zm.1127348-2.0491682-1.9487014-.2832183.1449447-2.8655034 1.9487014.3165382zm.1449447-3.0487623-1.9325964-.3165381.0966298-1.9658686 1.9487014.2665584c-.0322099.6663962-.0644199 1.3494522-.1127348 2.0158483zm.1288398-2.232427-1.9487014-.2665585c.016105-.4831372.0483149-.9496145.0644199-1.4327517l1.9487014.349858c-.016105.4498174-.0483149.8996348-.0644199 1.3494522zm.0805248-1.549371-1.9487014-.349858c.048315-.9329546.0966299-1.8325894.1288398-2.6989044.7408286.2165788 1.3850274.4498174 1.9325964.6663962-.0322099.7663555-.0805248 1.5660309-.1127348 2.3823662zm.1288398-2.6156049c-.547569-.2165787-1.2078728-.4331575-1.9325964-.6497362.0483149-1.0162541.1127348-1.9825285.1449447-2.8655034.6764088.1999189 1.3528175.4164976 1.9325964.6330763-.0322099.8996348-.0966298 1.8659092-.1449447 2.8821633zm1.9809113 3.0820822c-.6441988-.1665991-1.2883976-.2998783-1.9164914-.4331575.0483149-.7996754.0805248-1.5826909.1288397-2.3323865.6186896.2545894 1.2211506.5495061 1.8037567.8829749-.016105.5997565-.0322099 1.2161729-.016105 1.8825691zm.016105-2.1324677c-.5811651-.3202166-1.1778338-.6093686-1.7876517-.866315.0483149-1.0162541.0966298-1.9825285.1449447-2.8821632.8696684.3165381 1.5621821.5997565 1.8520716.7163758-.0966298.8996348-.1610497 1.9158889-.2093646 3.0321024zm1.1434529 1.9658686-.8535634-1.7659497v-.0333198h-.0644199c.0322099-1.1495334.0966298-2.1158078.1932596-2.9488029l1.1917678 2.5989449c-.1903149.7078485-.346192 1.4251253-.4670441 2.1491275zm.9985081 2.0991478-.8535634-1.7826096c.1144895-.7404097.2649936-1.4743772.4509392-2.1991073l1.0951379 2.3823662c-.2415745.5331169-.4831491 1.0828937-.6925137 1.5993507zm.1288398.2498986c.1932596-.4997971.4348342-1.0495739.6764087-1.5993507l1.079033 2.3490463c-.3220994.3665179-.6119888.7330358-.8857733 1.0662339zm.9824032 2.0325082c.2576795-.3331981.547569-.6997159.8857733-1.0828937l1.0468231 2.2824068c-.3543093.2832183-.6764088.5664367-.9662982.8329951zm1.062928 2.2324271c.2898895-.2498986.6119889-.5497768.9662982-.8163353l1.0307181 2.232427c-.3261108.2469244-.6330422.5198694-.9179833.8163353zm2.4640604 5.1312502-1.2883976-2.6989043c.2854561-.2908135.592379-.5581808.9179833-.7996754l1.2883976 2.7822039c-.3543093.2498985-.6603037.4997971-.9179833.7163758zm1.095138-.8329952-1.2883976-2.7988637c.3287604-.2420867.6931179-.42773 1.079033-.5497768l1.1756628 2.7822038c-.3372624.1596834-.6605631.3491998-.9662982.5664367z" fill="#cdddc0"/><path d="m62.8093837 66.906172-2.2869058-17.2096802-1.7554417.1166193-3.253204 17.0930609z" fill="#0095da"/><path d="m57.0921193 48.6802377s1.9164914 2.8655034 2.5284803 2.8655034 2.3191157-2.8655034 2.3191157-2.8655034l-2.4640604-1.9158889z" fill="#197cb0"/><path d="m54.4509042 38.0012396c.1449447 1.7159701 5.2180103 8.8130889 5.2180103 8.8130889s5.1535905-6.5973217 4.9442259-9.0130077l2.0614361 2.7655439c0 1.6326706-4.5899165 10.012602-4.5899165 10.012602l-2.4157455-3.3319807-2.6090052 3.4819198s-3.8168779-6.0642048-4.6704413-10.4457594z" fill="#efeff0"/><path d="m52.2606282 9.61276425s1.1273479 3.51523965 6.3775682 3.94839715c5.2502203.4331574 9.3891976-.6330764 11.4506338.4331574 2.0614362 1.0662339 1.3367125 11.395374 1.3367125 11.395374s2.0614362-7.9967537 1.7554418-11.6119527c-.1449447-1.6493304-.2254696-6.66396136-3.2048891-9.49614493-3.5753034-3.39862029-9.5824572-3.83177778-11.5311586-3.51523961-5.0247507.81633526-6.2970434 2.44900579-6.2970434 2.44900579s-2.0775411.13327923-2.673425.64973623c-3.3015189 2.76554397-5.5723197 9.59610432-1.5460771 22.49086952 0 0-2.2708008-12.1617294 4.3322369-16.74320285z" fill="#fcb963"/><path d="m70.18546 13.3445826c-1.6749169-1.0162541-7.9397503-.4164976-11.1285344-.6330763-3.188784-.2165788-6.0876787-1.5993507-5.8783141-5.76432659 0 0 1.0307181 2.13246763 3.2048891 2.13246763 0 0-1.3528175-.94961449-2.7861598-4.58147343 0 0 3.3981487-2.88216328 11.337899-.09995942 0 0-5.2663253-4.06501642-12.8839762-.86631497 0 0-.9340883 3.41528019-2.5767952 5.23120966-1.642707 1.81592942-3.5108835 5.23120962-1.9164915 12.27834882.0805249-3.8650976.9824032-8.8464087 4.7026513-11.42869375 0 0 1.1273479 3.51523965 6.3775682 3.94839715 5.2502203.4331574 9.3891976-.6330764 11.4506338.4331574.6119889.3165382.9824032 1.4494116 1.1917678 2.8988232l.03221-.0333198s.1127347-2.7655439-1.127348-3.5152396z" fill="#f99d1c"/><path d="m53.8067054 8.8630686c.229013.41869367.5354655.78665413.9018783 1.08289372l.2898895.19991888.1288397.0999594.1610497.0832995.2898895.1832589c.0987728.0567393.2009835.1068232.3059944.1499392l.3220994.1499391.3220994.1166193.6441988.2332387c.2254696.0499797.4509392.1332792.6764088.166599l.6764087.1332792.1610497.0333198.1771547.0333198.3382044.0333198.6925137.0832996.6925137.0499797.7086187.0333198h.6925137c.2415746 0 .4670442.0166599.7086187 0 .2415746-.0166599.9340883-.0166599 1.4011324 0-.4509392.0999594-.9179833.166599-1.3850274.2498985-.4670442.0832995-.9501933.0832995-1.4172374.1166194-.2355765.022009-.4723188.0275749-.7086187.0166599h-.7247236c-.2373885-.005662-.4741349-.0279261-.7086187-.0666397l-.3543094-.0333198h-.1771546l-.1771547-.0333198c-.9527377-.1545915-1.8731122-.4757099-2.72174-.9496145-.4287249-.236762-.8197943-.5401704-1.1595578-.8996347-.3545591-.34669149-.6154744-.78313488-.7569336-1.2661527z" fill="#ffd04f"/><path d="m62.5678091 9.29622609c-.7137583-.03748998-1.4241091-.12655999-2.125856-.26655846-.7013544-.14339301-1.3906485-.343937-2.0614362-.59975652-.6864707-.254988-1.3323905-.61434336-1.9164915-1.06623382-.6132867-.45822229-1.0790582-1.09677994-1.3367125-1.83258937l-.1771546-.53311691.499254.24989856 1.4494473.73303574 1.4333424.74969566-.2576795.39983768-1.2400827-1.18285314-1.2239778-1.18285314-.1932596-.18325894.2093646-.14993913.2415746-.14993913.2254695-.08329952c.1456783-.05975625.2967323-.10440167.4509392-.13327922l.4670441-.08329952.4670442-.04997971c.6127294-.02805006 1.2266445-.00576694 1.8359666.06663961l.9018783.13327923.9018783.18325894.8857734.23323864.8696684.26655846-.9018784-.16659904c-.2898894-.06663961-.5958838-.09995942-.8857733-.14993913l-.9018783-.11661932-.8857734-.08329952c-.5955648-.03617252-1.1928135-.0306065-1.7876517.01665991l-.4348342.06663961-.4348342.08329952-.4026242.13327922-.1932597.08329952-.1449447.09995942v-.34985797l1.2561877 1.16619324 1.2400827 1.16619323 1.3045026 1.23283285-1.5782871-.81633526-1.4333424-.74969565-1.4494473-.76635556.3220994-.28321836c.2207887.65622466.6173504 1.2340079 1.1434529 1.66599034.5434276.4465293 1.1452982.8111204 1.7876517 1.08289372.6499051.28345946 1.3169936.52275951 1.9970163.71637585.6764087.18881223 1.3689225.33875136 2.0775411.44981739z" fill="#ffd04f"/><path d="m45.8669551 11.7452319c.1202817-.9694243.3141401-1.92755099.5797789-2.8655034.2545802-.95677236.6167304-1.87936597 1.079033-2.74888406.226963-.43972568.4910375-.85784877.7891435-1.24949275.3081591-.39091053.6594905-.74316515 1.0468231-1.04957391.3963178-.30897951.8438668-.54046465 1.3206076-.68305604.4804845-.14568895.9821346-.20209499 1.4816572-.16659903l-.1449447.04997971c.6400172-.45293263 1.3193482-.8433431 2.0292262-1.16619324.7024896-.32289565 1.429719-.58480322 2.174171-.78301546.737955-.21545795 1.492211-.36593388 2.2546958-.44981739.7650458-.08070059 1.5348003-.1029741 2.3030108-.06663961.3827998.00848812.7647047.04187383 1.1434528.09995941.3704144.04997972.7569336.11661933 1.127348.19991885.3704143.08329951.7408286.18325893 1.1112429.28321835l.547569.18325894c.1880731.04909455.3713715.11601725.547569.19991884l.531464.19991884.515359.24989855c.3543094.14993913.6925137.33319807 1.0307181.51645701l.4831491.29987826.4992541.29987826c.3220994.19991884.6280938.43315749.9340883.64973623l-.9824032-.56643671-.4992541-.28321836-.515359-.24989855c-.3382044-.16659904-.6764088-.33319807-1.0307181-.4664773l-.531464-.19991884-.5314641-.18325893-.531464-.18325894-.547569-.14993913c-.3704143-.08329952-.7247236-.18325894-1.0951379-.23323865s-.7408287-.11661932-1.111243-.16659903-.7408286-.06663962-1.1112429-.06663962c-.747565-.02492443-1.4958827.00849007-2.2385909.09995942-.7388371.10009361-1.4705089.25035718-2.1902759.44981739-.7117382.21297767-1.4108157.4688671-2.0936461.76635556-.681098.30326684-1.3334713.6713681-1.9487014 1.09955362l-.0805249.04997971h-.0805248c-.4433043-.0534102-.8924689-.01374568-1.3206076.11661933-.4388122.11012752-.850338.31446636-1.2078727.59975652-.3736852.26724983-.7097241.58683403-.9985082.94961449-.3006864.36376979-.5701239.75397994-.8052485 1.16619324-.4726404.83635892-.8663442 1.71784694-1.1756628 2.63226473-.315939.91894729-.5688768 1.85978609-.7569336 2.81552369z" fill="#f99d1c"/><path d="m48.4437503 8.97968792c.2898895-.33319806.563674-.69971594.8213535-1.04957391s.4992541-.73303575.7247236-1.11621353c.2259568-.38169834.430297-.77664745.6119889-1.18285314.1948622-.39450258.3669502-.80060559.515359-1.21617294l.2415746.31653816-.2254696.06663961-.2576795.09995942c-.1608265.07884457-.3168034.16786609-.4670441.26655846l-.4509392.31653816-.4026243.36651788c-.5289736.53043745-.9745533 1.14314124-1.3206075 1.81592947l-.1288398.24989855-.0644199.13327922-.0644198.13327923-.2254696.53311691c-.0740644.17380291-.1385869.35179159-.1932597.53311691l-.1932596.54977681c-.0966298.36651791-.2093646.74969561-.3220994 1.11621351s-.1610497.7663556-.2576795 1.1495333l.0966298-1.1661932c.0644199-.3998377.1288398-.7830154.2093646-1.18285313.1705038-.77876842.4300087-1.53377487.7730386-2.24908696.3327732-.7342438.7910767-1.40023495 1.3528175-1.96586859.2841552-.29123804.6035365-.54322758.9501932-.74969566.1666947-.11407666.3448992-.2090422.531464-.28321835.191913-.08641103.3914752-.15336407.5958839-.19991884l.4026243-.08329952-.1610497.39983768c-.1703319.42747225-.3639007.84463607-.579779 1.24949275-.2114758.39890308-.4481976.78291714-.7086186 1.14953334-.2573621.3731478-.5370623.72925607-.8374585 1.06623381-.3022185.33231422-.6249984.64395603-.9662982.93295459z" fill="#ffd04f"/><g fill="#e8c6ac"><ellipse cx="60.393638" cy="24.440078" rx="1" ry="1"/><ellipse cx="57.736318" cy="25.456332" rx="1" ry="1"/><ellipse cx="59.52397" cy="20.72492" rx="1" ry="1"/><ellipse cx="61.150572" cy="22.107692" rx="1" ry="1"/><ellipse cx="58.074523" cy="22.041052" rx="1" ry="1"/><ellipse cx="62.294025" cy="26.389287" rx="1" ry="1"/><ellipse cx="60.119854" cy="26.855764" rx="1" ry="1"/><ellipse cx="55.674882" cy="25.80619" rx="1" ry="1"/><ellipse cx="63.421373" cy="25.606272" rx="1" ry="1"/><ellipse cx="58.251677" cy="23.640403" rx="1" ry="1"/><ellipse cx="59.282395" cy="22.574169" rx="1" ry="1"/></g><path d="m57.0921193 50.8293652-.0805249-.0999594c-1.578287-2.0991478-3.3176238-6.0975246-4.1389773-8.4798908-.2313956-.634607-.3934526-1.2939951-.4831491-1.9658686l.1610497-.1665991c.016105.0666397 1.1273479 5.0312909 4.5416016 10.3624599l2.5767952-3.6651787 2.3674306 3.5485594c.4509392-.7996753 2.8344748-4.9813111 4.3000271-8.6298299.151545-.3755391.2648905-.7663761.3382043-1.1661933l.2093647.1499392c-.1127348.3165381-.2254696.7830154-.3543094 1.0995536-1.626602 4.0483565-4.3644469 8.7464493-4.3966568 8.796429l-.0805249.1332792-2.3835356-3.4652599z" fill="#cdddc0"/><path d="m36.8481718 67.8891063c-.9231513-.5880316-1.9279494-1.0262738-2.9794195-1.2994725-.0437233.0685852-.0814508.1410648-.1127348.2165788.9299348.2320618 1.8242383.5965025 2.6573201 1.0828937z" fill="#cdddc0"/><path d="m39.2639173 67.8058068c-1.5138672-1.5493711-3.6236183-2.2157672-4.7348612-2.4656657-.0469869.0665129-.0849196.1393868-.1127348.2165787 1.046823.2165788 3.1082592.8496551 4.6221264 2.3323865h.1771547z" fill="#cdddc0"/><path d="m35.2215698 64.0240087c-.03221.0666396-.0805249.1332792-.1127348.2165787 1.0146131.1999189 3.2854139.8329952 4.879806 2.4656657l.1288397-.1999188c-1.594392-1.6160106-3.8168779-2.2657469-4.8959109-2.4823256z" fill="#cdddc0"/></g></g></g></g></svg>