<svg height="86" viewBox="0 0 101 86" width="101" xmlns="http://www.w3.org/2000/svg"><g fill="none" fill-rule="nonzero"><path d="m3.25851165 4.03317148h94.18406745v58.62874062h-94.18406745z" fill="#1bb24b"/><g transform="translate(31.872913 10.713998)"><path d="m28.1152719 4.14087214s-2.9289627-5.66507451-12.2203556-3.7428849c-9.2913925 1.9218632-12.0181948 11.02648226-11.7151987 16.28704856.3028332 5.260403 1.4824004 8.3812687 3.908813 12.0453408 2.3936695 3.6151197 1.3427943 5.9615617-.4750196 6.5685687 0 0 10.4022154 7.3849286 21.208589.1011678 0 0-2.6258037-.8091798-2.3228075-2.9337049.3029961-2.1243623 4.1407843-4.7545638 6.4635918-9.205787 2.3228075-4.4510601 3.3327946-16.99522366-4.8476124-19.11974906" fill="#4c360d"/><path d="m4.9722317 51.8629003 4.7321154-6.3396359s1.0310015 1.845661 1.8399683 6.3396359h13.9275595c.4522135-4.9281809 1.0647221-7.6882689 1.0647221-7.6882689l7.2548024 7.6882689h5.1910081c-3.2260946-4.2545985-9.5199432-12.56505-9.7525659-12.9486721-.3134217-.5156298-.7260504-1.7102265-1.466762-1.6806922-1.5630365.0620062-6.1078157-2.7705309-6.0651355-4.2893546.0491962-1.7488987 0-4.6081965 0-4.6081965h-5.855156v4.6081965c0 1.7506937-2.3394234 3.2349246-4.7972759 4.0561791-2.4593187.8202756-3.7604099 1.7519992-3.7604099 1.7519992l-7.2851023 13.1105406z" fill="#f3d9a6"/><path d="m30.5762194 15.0395893c0 8.5384053-4.0091599 15.535306-11.78264 15.535306-7.7725023 0-12.0890569-7.0713081-12.0890569-15.6095502 0-8.54003706 4.4475272-9.40828586 12.2201923-9.40828586 7.7734802 0 11.6515046.9426561 11.6515046 9.48253006" fill="#f4d89a"/><path d="m16.0250743 20.0314079c0 1.1727315-.9606277 2.1240358-2.1439419 2.1240358-1.1842913 0-2.1429644-.9513043-2.1429644-2.1240358 0-1.1727314.9586731-2.1235463 2.1429644-2.1235463 1.1833142 0 2.1439419.9508149 2.1439419 2.1235463" fill="#00ade9"/><path d="m15.4736542 20.0310816c0 .8183175-.6633337 1.4830884-1.4797939 1.4830884-.8174382 0-1.4797944-.6647709-1.4797944-1.4830884 0-.8170122.6623562-1.4819462 1.4797944-1.4819462.8164602 0 1.4797939.664934 1.4797939 1.4819462" fill="#234471"/><path d="m13.3702747 19.2630216c0 .2364391-.1920604.4298003-.4276157.4298003-.2365323 0-.4285931-.1933612-.4285931-.4298003s.1920608-.4280054.4285931-.4280054c.2355553 0 .4276157.1915663.4276157.4280054" fill="#fff"/><path d="m14.1494308 25.2347001c1.466762.8906036 3.0369659 1.4406631 4.6283473 1.4201032 1.6009925 0 3.1347068-.6203875 4.6599502-1.4201032-.5602171.6613442-1.260855 1.2099351-2.0553237 1.6051425-.7930028.401408-1.6909138.6203875-2.5966444.6345837-.9050788.0016317-1.809343-.2007041-2.6077214-.5959115-.7977269-.3888436-1.518076-.9372713-2.028608-1.6438147" fill="#c42c76"/><path d="m26.0350241 8.20243594s-.3587083 2.67230036 1.09437 6.62665886c1.5952911 4.3414072 3.3122692 5.943123 4.9282485 4.7966626 0 0-1.7456488.5968904-1.2626467-1.2645984.6566545-2.5290337 2.0074308-6.802071-.0167791-9.72843326-1.7412503-2.5177746-3.6224327-2.1145717-3.6224327-2.1145717s-1.5149807-5.1593984-8.3622047-5.2258102c-9.8353195-.0957831-16.5833367 12.30723496-11.4830646 20.85543066-.0001628 0-1.6655014-6.5695479 1.817814-6.9800937 3.4828262-.4107089 15.9520946-4.7751236 16.9066953-7.17068086z" fill="#5f3f12"/><path d="m26.4911476 8.88646134s-1.2973449 2.52838086-5.6474573 4.66253346c-3.4574137 1.6963568-7.4440935 1.9688574-11.2818817 1.8678527 0 0-1.3129833 2.22553-1.2118217 5.8674103.1008359 3.6418803 1.9398271 7.4896861 1.9398271 7.4896861s-7.17042-10.8244729-1.5654801-19.57500436c6.5543275-10.23247772 16.7651343-5.2098192 18.3302886-2.1749461 0 0 .0252497.9795334-.5634749 1.8624679" fill="#754b1d"/><g fill="#a26527" transform="translate(11.127087 4.286002)"><path d="m5.8154464 9.0055046s5.1594052-1.1293272 7.420636-5.080259c0 0-1.4856585 1.693746-3.7107251 2.5401295 0 0 1.5781863-1.3269309 1.8802049-2.0364114 0 0-4.3095496-.0422621-7.6384347 2.2679553 0 0 3.4978133-4.1054576 10.6359786-3.9512582 0 0-.8529502 4.8740071-8.5876597 6.2598438"/><path d="m14.7289084 2.4374252c-1.1849428-.4157674-2.3891081-.704259-3.5931106-.9297654-1.2064457-.2086996-2.4215255-.3312432-3.6302519-.294529-2.4262497.0380195-4.7907599.728735-6.9669565 1.9944756.8962822-.8835871 1.9820183-1.603674 3.1812966-2.0665986 1.1929251-.4795683 2.4813105-.7120913 3.7659487-.7478264 2.5658562-.0367141 5.1349702.6590598 7.2430737 2.0442438"/><path d="m18.5028395 10.2193559c-.4149093-.5131822-.7503229-1.0859229-1.0588575-1.6713912-.3029962-.590853-.5468591-1.2133618-.7423406-1.8549619-.370926-1.2794472-.7741062-3.9550111-.7741062-3.9550111s2.0269788.5433694 2.8331767 2.0708411c.8063608 1.5273085.7558615 3.2471624.7558615 3.2471624s-.4411366-1.5416679-1.1109859-2.5796176c-.6698496-1.038113-1.3326944-1.2195624-1.6158165-1.517355 0 0 .2531482 1.595189.5049936 2.8325373.2564063 1.2396328.7273535 2.2064387 1.2080749 3.427796"/></g><path d="m14.6866785 41.4768759h7.9784097l-3.3327946 6.3732497z" fill="#c42c76"/><path d="m9.4293699 45.9274464s.0553865-.5272153.0804733-1.3212198c.024924-.7933519.0232947-1.8544725-.0891071-2.9058026-.0276932-.2627101-.0648345-.5241148-.105234-.7806241-.0456123-.2555306-.0902474-.5069818-.1462853-.7475001-.0547346-.2406819-.1189177-.4704308-.1855444-.6861468-.032906-.1081841-.0656492-.213105-.1040937-.3119886-.0358384-.1000255-.0715137-.1962984-.112565-.2857175-.0754229-.1821023-.1562219-.3438078-.2340888-.4834848-.040888-.0688592-.0790072-.133476-.1141935-.1930347-.0394224-.0571109-.0755862-.1094897-.1083293-.1568103-.0619025-.0979042-.1275516-.1612159-.165019-.2104942-.0397477-.0476468-.0609249-.0729387-.0609249-.0729387l.007982-.008159s.0231318.0238236.0666267.068207c.0412141.0465044.1125646.1057367.182449.1992352.0366528.0453626.0772155.0957832.1213617.1506099.0389331.0585792.0809619.1220538.1259223.1897711.0853604.1382085.179517.2969765.2608049.4800578.044472.0900721.0837311.1866711.1231531.2871863.0420288.0995362.0785187.2049464.1151714.3137834.0764004.216369.134719.4515026.1918975.694632.0560379.2434554.1032791.4971912.1417239.7563112.0355124.2594469.0676038.5234622.0899214.7882938.0951341 1.0589989.0827539 2.1224041.0382816 2.9162454-.0421912.7944942-.1091436 1.3208936-.1091436 1.3208936z" fill="#064c6c"/><path d="m27.338885 45.253864s-.0327432-.50176-.016453-1.2556238c.013358-.7533744.0858489-1.7596684.2748143-2.7501342.0485444-.2472088.1014873-.4937647.1646929-.7339568.0622281-.2405183.133579-.4748361.2156812-.6970791.0382816-.1122639.0816136-.220448.1255966-.3258586.0407256-.1065525.0895956-.207231.1374886-.3049723.0959488-.1951561.1975993-.3746472.3012044-.533905.0482186-.0819135.1045826-.1537102.1562223-.223222.0500104-.0706545.1013244-.1346188.1534527-.1917296.0972519-.1199329.1953185-.2122895.2759547-.2876757.0788439-.0771814.1519866-.1254807.1964585-.1639898.0459384-.0367142.0705362-.056295.0705362-.056295l.007005.0089744s-.0228062.0213757-.0656492.0616797c-.0410513.041936-.109144.0949673-.1808202.1776966-.0724912.0817503-.1629011.178186-.2528228.3007296-.047893.0585796-.0948085.1241755-.1402579.1961352-.0467526.0709805-.0977405.1442457-.1433528.2258327-.0967634.1592577-.1907572.3384228-.2790496.5329263-.0874782.1948297-.1785399.4014081-.2552665.6221822-.0816132.2189797-.1500316.4510133-.2186132.6867995-.0677666.2362759-.1254338.4795685-.1790281.7238398-.2050927.9800229-.291593 1.9822378-.3243362 2.7333277-.0333949.7517424-.0120549 1.2538289-.0120549 1.2538289z" fill="#064c6c"/><path d="m21.7701092 20.0314079c0 1.1727315.9606281 2.1240358 2.143942 2.1240358 1.1842913 0 2.1431276-.9513043 2.1431276-2.1240358 0-1.1727314-.9588363-2.1235463-2.1431276-2.1235463-1.1833139 0-2.143942.9508149-2.143942 2.1235463" fill="#00ade9"/><path d="m22.3216926 20.0310816c0 .8183175.6631704 1.4830884 1.4797939 1.4830884.8174382 0 1.4796312-.6647709 1.4796312-1.4830884 0-.8170122-.662193-1.4819462-1.4796312-1.4819462-.8166235 0-1.4797939.664934-1.4797939 1.4819462" fill="#234471"/><path d="m22.4054236 19.2630216c0 .2364391.1920604.4298003.4276157.4298003.2365323 0 .4285927-.1933612.4285927-.4298003s-.1920604-.4280054-.4285927-.4280054c-.2355553 0-.4276157.1915663-.4276157.4280054" fill="#fff"/><path d="m19.6690103 35.7948313c0 .4376325-.3543101.7925357-.7912109.7925357-.4369009 0-.7910478-.3549032-.7910478-.7925357 0-.4376329.3541469-.7923732.7910478-.7923732.4369008 0 .7912109.3547403.7912109.7923732" fill="#00ade9"/><path d="m19.2105904 35.4054981c-.1383999 0-.2501999.1119997-.2501999.2499998 0 .1382001.1118.2500002.2501999.2500002.1380001 0 .2498001-.1118001.2498001-.2500002 0-.1380001-.1118-.2499998-.2498001-.2499998" fill="#33bdeb"/><path d="m18.0869145 35.6770194c0 .3723631-.3015301.6745614-.6734336.6745614-.3719031 0-.6734332-.3021983-.6734332-.6745614 0-.3726891.3015301-.6745613.6734332-.6745613.3719035 0 .6734336.3018722.6734336.6745613" fill="#00ade9"/><path d="m17.7337368 35.3454501c-.138223 0-.2498825.111607-.2498825.2497652 0 .1381576.1116595.2502348.2498825.2502348s.2501175-.1120772.2501175-.2502348c0-.1381582-.1118945-.2497652-.2501175-.2497652" fill="#33bdeb"/><path d="m16.8099322 35.2723481c0 .3364647-.2723708.6092916-.608273.6092916-.336065 0-.6085986-.2728269-.6085986-.6092916 0-.3367911.2725336-.6094548.6085986-.6094548.3359022 0 .608273.2726637.608273.6094548" fill="#00ade9"/><path d="m16.5148981 34.9727605c-.1380658 0-.24987.1120644-.24987.24987 0 .1380656.1118042.25013.24987.25013.1383252 0 .25013-.1120644.25013-.25013 0-.1378056-.1118048-.24987-.25013-.24987" fill="#33bdeb"/><path d="m15.8734134 34.5135891c0 .2932235-.2375098.5309682-.5302432.5309682s-.5304061-.2377447-.5304061-.5309682c0-.2933868.2376727-.5311315.5304061-.5311315s.5302432.2377447.5302432.5311315" fill="#00ade9"/><path d="m15.6483938 34.2525105c-.1381268 0-.25.1118736-.25.2499997 0 .1381267.1118732.2500003.25.2500003.1381267 0 .25-.1118736.25-.2500003 0-.1381261-.1118733-.2499997-.25-.2499997" fill="#33bdeb"/><path d="m19.6435978 35.5251045c0 .3726895.301693.6745614.6734332.6745614.3719035 0 .6734336-.3018719.6734336-.6745614 0-.3725263-.3015301-.6743982-.6734336-.6743982-.3717402 0-.6734332.3018719-.6734332.6743982" fill="#00ade9"/><path d="m20.4865127 35.0479838c-.1382229 0-.2501178.1120244-.2501178.2498825 0 .1380931.1118949.2501175.2501178.2501175.1382222 0 .2498822-.1120244.2498822-.2501175 0-.1378581-.11166-.2498825-.2498822-.2498825" fill="#33bdeb"/><path d="m20.9207426 35.1204332c0 .3366279.2722079.609618.6082729.609618.3359022 0 .6084358-.2729901.6084358-.609618 0-.3364651-.2725336-.609292-.6084358-.609292-.336065 0-.6082729.2728269-.6082729.609292" fill="#00ade9"/><path d="m21.6042557 34.6524502c-.137806 0-.2498701.1118626-.2498701.2500003 0 .138137.1120641.2499997.2498701.2499997.1380652 0 .2501299-.1118627.2501299-.2499997 0-.1381377-.1120647-.2500003-.2501299-.2500003" fill="#33bdeb"/><path d="m21.8572613 34.3616741c0 .2933868.237347.5311311.5302433.5311311.2928962 0 .5302432-.2377443.5302432-.5311311 0-.2932239-.237347-.5309683-.5302432-.5309683-.2928963 0-.5302433.2377444-.5302433.5309683" fill="#00ade9"/><path d="m22.4438289 33.9658139c-.1382091 0-.2498508.1121715-.2498508.25 0 .138127.1116417.25.2498508.25.1382092 0 .2501492-.111873.2501492-.25 0-.1378285-.11194-.25-.2501492-.25" fill="#33bdeb"/><path d="m9.4350717 45.928099s1.2181748 2.5934875 1.9948874 5.9348013h14.8062482c.2912669-3.6430228 1.1083794-6.6093623 1.1083794-6.6093623l4.1893287 4.1725217 3.6208038-3.4979607c-2.0219292-2.982494-5.3042245-7.596402-5.5546034-8.0593265-.4377155-.809343-2.3692345-1.055083-3.0635188-1.3151825-1.3986693-.5236251-1.9438995-.6073334-3.2186011-1.4946737-.955741 3.4842544-4.3222559 10.3295665-4.3222559 10.3295665s-3.9050666-7.4523195-4.2590506-10.3576324c-.9125723.8219076-1.6138616 1.1306328-3.0125309 1.5902936-.6929815.227628-2.3565281.6068441-3.6357907 1.1464607-1.2790999.5394533-5.116888 8.8348924-5.116888 8.8348924l3.5010714 3.2372087z" fill="#f99d1c"/><path d="m19.5468344.00000584c-.305114 0-.6201646.0093009-.9448265.0288818l1.4235929 1.3341106c5.7996067.6259354 7.1301833 5.1551558 7.1301833 5.1551558s.11061-.0236602.3033218-.0236602c.6012685 0 2.0004263.2313807 3.3191109 2.1382319.7807854 1.1288377 1.0595094 2.45821616 1.069446 3.81043896l2.7676908 2.5941401c-.0332321-4.7232343-1.6539354-9.63787166-6.5000817-10.89643266 0 0-2.1414984-4.1408663-8.5684375-4.1408663" fill="#58471f"/><path d="m27.9168583 8.24502434s.0381188.2406817.0995327.6073336l2.050111 1.92153686c-.1536159-.3457657-.333459-.7011586-.5338272-1.01151546-.6698496-1.038113-1.3326944-1.2195624-1.6158165-1.517355m-7.8912575-6.8820261 2.5922462 2.4296607c2.2105686.8049373 3.8767212 2.1452484 4.4367755 3.2313345 0 0 .0091224.3516399-.1102839.8235391l.2878463.2698898c-.1080036-.6316465-.1775624-1.0934289-.1775624-1.0934289s2.0269788.5433694 2.8331767 2.0708411c.3914515.7414626.5810683 1.52828746.6724561 2.14165856l1.2874075 1.2066716c-.0099366-1.3522228-.2886606-2.68160126-1.069446-3.81043896-1.3186846-1.9068512-2.7178424-2.1382319-3.3191109-2.1382319-.1927118 0-.3033218.0236602-.3033218.0236602s-1.3305766-4.5292204-7.1301833-5.1551558" fill="#695024"/><path d="m22.617847 3.79265894 2.8963823 2.7145624c.1151711.0701649.2292017.1421246.3417664.2162056-.0586443-.0205599-.1172885-.0409567-.1759331-.0608639l1.264276 1.1849695c.1194063-.4718992.1102839-.8235391.1102839-.8235391-.5600543-1.0860861-2.2262069-2.4263972-4.4367755-3.2313345" fill="#7d5a2e"/><path d="m27.0546225 7.02399344s.0695588.4617824.1775624 1.0934289l.7842061.7349356c-.0614139-.3666519-.0995327-.6073336-.0995327-.6073336.2831221.2977926.9459669.479242 1.6158165 1.517355.2003682.31035686.3802113.66574976.5338272 1.01151546l.4937533.4625983c-.0913878-.6133711-.2810046-1.40019596-.6724561-2.14165856-.8061979-1.5274717-2.8331767-2.0708411-2.8331767-2.0708411" fill="#a57237"/></g><g transform="translate(.08031 .039814)"><path d="m97.3622688 49.2201285v2.4892193h2.5715579zm0-44.83727515v37.50472565l.6468807.5957483.5942631-38.0937838z" fill="#f9fcf9"/><path d="m43.3408274 4.09191411 7.0537829 6.61115739c.3246619-.0195809.6397125-.0288818.9448265-.0288818 6.4269391 0 8.5684375 4.1408663 8.5684375 4.1408663 4.8461463 1.258561 6.4668496 6.1731984 6.5000817 10.8964327l27.7388071 25.9978591h3.2155057v-2.4892193l-45.6981701-44.23532632h5.6362171l40.061953 36.90277682v-37.50472565z" fill="#2cb758"/><path d="m57.3068317 17.1814052.242612.3592453c.0857964.0460377.1715922.0932075.257388.1407547-.1646807-.1713207-.3315062-.3377358-.5-.5" fill="#a57237"/><path d="m6.83354022 6.84498568h87.15243958v52.18059402h-87.15243958zm87.15243958-6.84498568h-87.15243958c-3.77409378 0-6.83354022 3.06457069-6.83354022 6.84498568v52.18059402c0 3.7802518 3.05944644 6.8449856 6.83354022 6.8449856h87.15243958c3.7739307 0 6.8335402-3.0647338 6.8335402-6.8449856v-52.18059402c0-3.78041499-3.0596095-6.84498568-6.8335402-6.84498568z" fill="#e6e7e8"/><path d="m65.5375749 81.9164429s-9.1609088-3.7198773-9.1609088-12.3504759h-11.9339752c0 8.6305986-9.1609089 12.3504759-9.1609089 12.3504759v3.2241548h30.2557929z" fill="#e6e7e8"/><path d="m45.7382436 6.84498568h48.2477362v44.70722542l6.8335402 6.3368619v-51.04408732c0-3.78041499-3.0596095-6.84498568-6.8335402-6.84498568h-56.7391212z" fill="#fff"/></g></g></svg>