<svg viewBox="0 0 1204.6 1241.1" xmlns="http://www.w3.org/2000/svg" xmlns:xlink="http://www.w3.org/1999/xlink"><clipPath id="a"><circle cx="602.3" cy="602.3" r="602.3"/></clipPath><linearGradient id="b" gradientUnits="userSpaceOnUse" x1="335.72" x2="335.72" y1="1156.1" y2="736.8"><stop offset="0" stop-color="#caaa6e"/><stop offset="1" stop-color="#a58c5b"/></linearGradient><radialGradient id="c" cx="234.87" cy="663.89" gradientUnits="userSpaceOnUse" r="32.39"><stop offset="0" stop-color="#c88c66"/><stop offset="1" stop-color="#caaa6e"/></radialGradient><radialGradient id="d" cx="441.86" cy="663.89" r="32.39" xlink:href="#c"/><linearGradient id="e" gradientUnits="userSpaceOnUse" x1="834.14" x2="834.14" y1="1220.62" y2="736.87"><stop offset=".63" stop-color="#ecd2c2"/><stop offset="1" stop-color="#ceb6ab"/></linearGradient><circle cx="602.3" cy="602.3" fill="#1d9c42" r="602.3"/><path d="m77.9 305.8 1005 659.6a599.6 599.6 0 0 0 121.7-363.1c0-332.6-269.6-602.3-602.3-602.3-224.8 0-420.9 123.2-524.4 305.8z" fill="#1bb24b"/><path d="m173 179.8a602 602 0 0 0 -143 234.1l979.4 632.2a603.2 603.2 0 0 0 154.7-226.6z" fill="#f1f2f2"/><g clip-path="url(#a)"><path d="m378.9 311.3c-67.8-25.8-147.8-10.8-212.9 50.2s-97.6 219.7-40.7 311.9-28.5 107.1-28.5 107.1 32.6 17.6 52.9-4.1c0 0 3.1 42.1-19 84.1-28.4 54.2-16.8 87.6 14.9 162.7 15 35.3 51.6 76 28.5 93.6l149.2-65.1 161.4-89.5-78.7-63.7-36.6-371.6z" fill="#281d0a"/><path d="m292.1 323.5s54.2-24.4 107.1-25.8 135.2 39.8 173.1 122.5-13.1 253.2-6.3 280.3 28.5 33.9 39.3 21.7c0 0-8.1 33.9-50.1 14.9 0 0-5.5 21.7 9.5 63.7s17.6 92.3 16.2 138.3c-2.7 93.6-99 145.1-89.5 165.5s24.4 10.8 24.4 10.8-6.7 19-32.5 9.5-38-74.6-38-74.6l-184.4-2.7-21.7-89.5z" fill="#281d0a"/><path d="m111.4 1156.1 95-143.1s51.8 24.1 77.1 143.1h127.1c28-117.7 83.6-140.5 83.6-140.5l74.3 140.5h58.2l-125.8-245.5s11.5-19.9-28.5-33.2-77.9-37.4-77.9-65.8v-74.8h-97.1v74.8c0 28.4-25 41.9-65 55.2s-45 38-45 38l-142.7 251.3z" fill="url(#b)"/><path d="m519.9 521.5c0 138.5-49.1 251.6-175.4 251.6s-173.1-114.4-173.1-253 48.9-152.9 175.2-152.9 173.3 15.7 173.3 154.3z" fill="#caaa6e"/><path d="m299.5 602.1c0 19-15.7 34.4-34.9 34.4a34.5 34.5 0 1 1 34.9-34.4z" fill="#c88e2f"/><path d="m290.5 602.1a24.1 24.1 0 1 1 -24.1-24.1 24.1 24.1 0 0 1 24.1 24.1z" fill="#3e2c09"/><path d="m256.3 589.6a7 7 0 1 1 -6.9-6.9 6.9 6.9 0 0 1 6.9 6.9z" fill="#fff"/><path d="m269 686.5c23.8 14.4 49.3 23.4 75.2 23s50.9-10 75.7-23a105.3 105.3 0 0 1 -33.4 26 94.9 94.9 0 0 1 -84.6.7c-12.9-6.4-24.6-15.3-32.9-26.7z" fill="#3e2c09"/><path d="m267.3 663.9a32.4 32.4 0 1 1 -32.4-32.4 32.5 32.5 0 0 1 32.4 32.4z" fill="url(#c)"/><path d="m474.3 663.9a32.4 32.4 0 1 1 -32.4-32.4 32.5 32.5 0 0 1 32.4 32.4z" fill="url(#d)"/><path d="m392.8 602.1a34.9 34.9 0 1 0 34.9-34.5 34.6 34.6 0 0 0 -34.9 34.5z" fill="#c88e2f"/><path d="m401.8 602.1a24.1 24.1 0 1 0 24-24.1 24.1 24.1 0 0 0 -24 24.1z" fill="#3e2c09"/><path d="m403.1 589.6a7 7 0 0 0 14 0 7 7 0 0 0 -14 0z" fill="#fff"/><path d="m344.3 894.4c-54.3 0-58.9-59-59-59.6a1.3 1.3 0 0 1 1.3-1.4 1.3 1.3 0 0 1 1.4 1.2 80.4 80.4 0 0 0 8.9 29.3c10.3 19 27 28.4 49.4 27.8 48.5-1.3 58.3-55.3 58.4-55.8a1.3 1.3 0 1 1 2.6.4c-.1.6-10.2 56.7-60.9 58.1z" fill="#231c1e"/><path d="m60.7 1139.8 133-126.8c17.9 24.7 41.5 91.2 47.9 143.1l205.7 54.3c9.1-42.1 27-199.4 27-199.4l80.8 145.1h87.8l-162.8-282-52.4-25.4s-9 95.9-77.7 101.3c-83 6.5-83.2-101.3-83.2-101.3s-74.1 43.4-79.6 45.2-148.2 260.4-148.2 260.4c45.2-10.9 21.7-14.5 21.7-14.5z" fill="#fef3f7"/><path d="m132.2 1156.1 67.7-108.5s20.9 71.3 28.2 108.5l94.4 42.5 2.1-230.5c-72.3-5.5-79.5-115.7-79.5-115.7s-57.9 23.5-58.8 27.1c-1.7 6.8-114.4 189.6-168.2 276.6z" fill="#687167"/><path d="m460.1 1241.1c3.1-22.7 6.8-93.5 11.4-142.2 2.9-30.6 7.7-50.4 7.7-50.4l103.3 173.6 92.8-4.2c-51.6-96.6-174-339-175.3-345.7l-56-19.8s-7.3 110.2-79.6 115.7l2.1 230.5z" fill="#687167"/><path d="m390.9 1219-3.4-231.4c9.1-2.6 72.4-24.3 80-120.2a1.4 1.4 0 0 0 -1.3-1.5 1.4 1.4 0 0 0 -1.4 1.3c-8 100.8-78.3 117.9-79 118.1l-1.1.2 3.5 233.5z" fill="#fff"/><path d="m424 1228.1-9.4-255.6-2.7 2.9 9.4 252.7z" fill="#fef3f7"/><path d="m300.2 987.6-2.9 202.6h2.7l3-204.7-1.1-.2c-.7-.2-71-17.2-79-118.1a1.3 1.3 0 0 0 -1.4-1.3 1.4 1.4 0 0 0 -1.3 1.5c7.6 95.9 71 117.6 80 120.2z" fill="#fff"/><path d="m269.5 1165.2 6.8-189.8-2.7-2.9-6.8 192.7z" fill="#fef3f7"/><path d="m326 856.2a2.8 2.8 0 0 1 -2.8-2.9" fill="#fffeef" opacity=".2"/><path d="m373.5 848.5a2.8 2.8 0 0 0 -2.8-2.8 2.9 2.9 0 0 0 -2.8 2.8" fill="#caaa6e"/><path d="m345.3 947.1c10.8 0 14.4-7.2 14.3-15.2s-8.5-20.9-11.5-28.8a53.5 53.5 0 0 1 -2.8-9.6s-.2 2.5-2.5 8.8c-3.2 8.8-12.3 22-11.7 31.2.4 7.2 4.2 13.6 14.2 13.6z" fill="#542f82"/><circle cx="345.3" cy="893.5" fill="#542f82" r="3.2" stroke="#231f20" stroke-miterlimit="10"/><path d="m346.8 910c-3.9 3.9-10.3 20.8-7.4 27.8a9.7 9.7 0 0 0 13 5.1c2.6-1.6 6-6 4.3-14.9a44.5 44.5 0 0 0 -7.5-17.3c-1-1.2-1.3-1.7-2.4-.7z" fill="#6f2c87"/><circle cx="337.5" cy="938.5" fill="#fff" r="2.5"/><circle cx="342.9" cy="941.7" fill="#fff" r="1.5"/><path d="m374.1 921.3c7.4 0 9.8-4.8 9.7-10.3s-5.7-14.1-7.7-19.5a29.9 29.9 0 0 1 -2-6.5 24.8 24.8 0 0 1 -1.7 6c-2.2 5.9-8.3 14.9-7.9 21.1s2.8 9.2 9.6 9.2z" fill="#542f82"/><circle cx="374.1" cy="885" fill="#542f82" r="2.2" stroke="#231f20" stroke-miterlimit="10"/><path d="m375.2 896.2c-2.7 2.6-7 14.1-5.1 18.8a6.7 6.7 0 0 0 8.9 3.5c1.7-1.1 4-4 2.8-10.1a29.8 29.8 0 0 0 -5-11.8c-.7-.8-.9-1.1-1.6-.4z" fill="#6f2c87"/><circle cx="368.9" cy="915.5" fill="#fff" r="1.7"/><circle cx="372.5" cy="917.7" fill="#fff" r="1"/><path d="m316.8 922.9c7.4 0 9.8-4.9 9.7-10.4s-5.7-14.1-7.7-19.4a43.5 43.5 0 0 1 -2-6.5 25 25 0 0 1 -1.7 5.9c-2.2 5.9-8.3 14.9-7.9 21.2.3 4.8 2.8 9.2 9.6 9.2z" fill="#542f82"/><circle cx="316.8" cy="886.6" fill="#542f82" r="2.2" stroke="#231f20" stroke-miterlimit="10"/><path d="m317.9 897.7c-2.7 2.7-7 14.1-5.1 18.9a6.6 6.6 0 0 0 8.9 3.4c1.7-1 4-4 2.8-10.1a29.1 29.1 0 0 0 -5-11.7c-.7-.8-.9-1.2-1.6-.5z" fill="#6f2c87"/><circle cx="311.6" cy="917" fill="#fff" r="1.7"/><circle cx="315.2" cy="919.2" fill="#fff" r="1"/><path d="m297.4 889.5c4.2 0 5.6-2.8 5.6-6s-3.4-8.2-4.5-11.3a13.6 13.6 0 0 1 -1.1-3.7 18.2 18.2 0 0 1 -1 3.4c-1.3 3.5-4.9 8.7-4.6 12.3s1.6 5.3 5.6 5.3z" fill="#542f82"/><path d="m298 874.9c-1.6 1.6-4.1 8.2-3 11a3.9 3.9 0 0 0 5.2 2c1-.6 2.3-2.4 1.6-5.9a17 17 0 0 0 -2.9-6.8c-.4-.5-.5-.7-.9-.3z" fill="#6f2c87"/><circle cx="294.3" cy="886.1" fill="#fff" r="1"/><circle cx="296.4" cy="887.4" fill="#fff" r=".6"/><path d="m393 889.5c4.2 0 5.6-2.8 5.6-6s-3.4-8.2-4.5-11.3a13.6 13.6 0 0 1 -1.1-3.7 18.2 18.2 0 0 1 -1 3.4c-1.3 3.5-4.9 8.7-4.6 12.3s1.6 5.3 5.6 5.3z" fill="#542f82"/><path d="m393.6 874.9c-1.6 1.6-4.1 8.2-3 11a3.9 3.9 0 0 0 5.2 2c1-.6 2.3-2.4 1.6-5.9a17 17 0 0 0 -2.9-6.8c-.4-.5-.5-.7-.9-.3z" fill="#6f2c87"/><circle cx="389.9" cy="886.1" fill="#fff" r="1"/><circle cx="392" cy="887.4" fill="#fff" r=".6"/><path d="m410.1 470s21.7-5.5 39.3 9.4 24.4 62.4-6.8 70.6c0 0 48.8 8.1 53.8-48.4s-79.5-65.5-86.3-31.6z" fill="#3a2c1c"/><path d="m397 369.6 14.4 98.1s29.9-8.1 54.3 1.4 47.4 29.2 18 103c-18 45.3-46.1 148.4-15.3 208.4 25.7 50.2 85.9 19.4 85.9 19.4s-61.5 17.2-56.1-33 130.2-291.5 19.9-386.4c-57.8-49.8-121.1-10.9-121.1-10.9z" fill="#3a2c1c"/><path d="m402.4 371.4 7.7 96.3s-28.5-35.3-71.9-8.1-24.4 89-119.3 102.6c0 0-5.5 90.8-59.7 99s-71.9-17.7-71.9-17.7 23.1 17.7 52.9-14.9-6.8-166.8 55.6-246.8 195.7-45.6 206.6-10.4z" fill="#3a2c1c"/><path d="m410.1 467.7a22.9 22.9 0 0 0 -1-3.6 43 43 0 0 0 -4.4-9.3 48.1 48.1 0 0 0 -10.4-12 56.7 56.7 0 0 0 -17.7-10.1 88.8 88.8 0 0 0 -23.6-5.2c-4.3-.4-8.7-.5-13.4-.5a131.5 131.5 0 0 0 -13.8.7 97 97 0 0 0 -27.6 7.2 67.4 67.4 0 0 0 -23.3 17 72.8 72.8 0 0 0 -14.2 25.3 87.2 87.2 0 0 0 -3.6 14c-.4 2.4-.8 4.7-1 7.1s-.5 4.8-.9 7.4a76 76 0 0 1 -9.3 27.4 57.3 57.3 0 0 1 -17.4 19.3 48.5 48.5 0 0 1 -20.2 8.2 47.8 47.8 0 0 1 -16.6-.2 57.9 57.9 0 0 1 -10.1-3l-3.4-1.6 3.5 1.2a64.5 64.5 0 0 0 10.2 1.8 46.9 46.9 0 0 0 15.8-1.2 47.7 47.7 0 0 0 18.1-8.9 54.9 54.9 0 0 0 14.9-18.4 74.9 74.9 0 0 0 7.5-25.5c.3-2.2.5-4.8.7-7.2s.5-5 .8-7.6a105.4 105.4 0 0 1 3.5-15.3 80.3 80.3 0 0 1 15.6-28.1 75.2 75.2 0 0 1 26.3-18.9 93 93 0 0 1 30-7.1 121.4 121.4 0 0 1 14.7-.4 125.9 125.9 0 0 1 13.9 1.3 103.1 103.1 0 0 1 13 2.6 76.6 76.6 0 0 1 11.7 4.2 64.6 64.6 0 0 1 10.1 5.6 58.7 58.7 0 0 1 7.9 6.6 45.7 45.7 0 0 1 9.7 13.5 41.8 41.8 0 0 1 3.4 10 32.6 32.6 0 0 1 .6 3.7z" fill="#745b45"/><path d="m418.7 463.6a34 34 0 0 1 2.9-3.2 51 51 0 0 1 9.9-7.4 61 61 0 0 1 18-6.9 75.8 75.8 0 0 1 25.1-1.2c9.2 1 19.4 3.7 28.6 9.7a51.7 51.7 0 0 1 21.3 26.6c4.1 11.4 4.5 24.1 2.5 36.2a124.7 124.7 0 0 1 -4.5 18l-5.8 17.1c-3.9 11.3-7.7 22.7-11.4 34s-7.4 22.3-10.8 33-6.7 21.1-9.7 31-5.7 19.2-8 27.9c-4.7 17.4-8 32-9.2 42.5a50.1 50.1 0 0 0 -.3 12 14.2 14.2 0 0 0 .7 3.2 8.4 8.4 0 0 0 .4 1l-.5-1a16.1 16.1 0 0 1 -1-3.1 45.7 45.7 0 0 1 -.9-12.3c.3-10.6 2.5-25.6 6.4-43.3 1.9-8.9 4.1-18.5 6.7-28.5s5.4-20.6 8.6-31.5 6.5-22 10.1-33.3 7.4-22.8 11.2-34.2l5.9-17.1a124.1 124.1 0 0 0 4.3-16.7c1.8-11.1 1.7-22.5-1.6-32.5a47 47 0 0 0 -17.8-23.9c-8.1-5.6-17.2-8.5-25.8-10a77.5 77.5 0 0 0 -23.9-.5 64.9 64.9 0 0 0 -17.8 5.3 55.7 55.7 0 0 0 -10.4 6.3 27.1 27.1 0 0 0 -3.2 2.8z" fill="#745b45"/><path d="m415 440.1s-.1-1.4-.6-4.2a116.1 116.1 0 0 0 -2.6-11.6 119.3 119.3 0 0 0 -6.4-17.3 85.1 85.1 0 0 0 -12.5-20 66.4 66.4 0 0 0 -21.3-17.1 62.5 62.5 0 0 0 -13.9-5.3c-2.4-.8-5-1.1-7.5-1.7s-5.3-.7-7.9-.8l-4.1-.3h-4l-8.2.3a100.1 100.1 0 0 0 -16.2 2.9 82.8 82.8 0 0 0 -29.7 15 99.4 99.4 0 0 0 -22.1 25.4 137 137 0 0 0 -13.7 30 173.9 173.9 0 0 0 -6.6 30.5 148.8 148.8 0 0 1 -2.3 14.9 79.1 79.1 0 0 1 -4.4 13.5 49.6 49.6 0 0 1 -7.2 11.3 34.1 34.1 0 0 1 -9.3 7.5 36.1 36.1 0 0 1 -18.5 4.4 48.3 48.3 0 0 1 -12-1.9 33 33 0 0 1 -4-1.3l4.1.9a56 56 0 0 0 11.8.6 36.5 36.5 0 0 0 17-5.4c5.7-3.7 10.6-10 13.6-17.9a72.8 72.8 0 0 0 3.4-12.8c.8-4.4 1.2-9.4 1.6-14.4a163.8 163.8 0 0 1 5.8-32c1.6-5.4 3.6-10.9 5.8-16.3a147.3 147.3 0 0 1 8.1-15.8 104.1 104.1 0 0 1 23.9-27.5 89 89 0 0 1 32.7-16.3 98.5 98.5 0 0 1 17.7-2.7 86.4 86.4 0 0 1 8.8-.1l4.4.2 4.2.4c2.9.2 5.6.8 8.4 1.2s5.5 1.2 8.2 2.1a73.3 73.3 0 0 1 14.9 6.3 66.7 66.7 0 0 1 12.4 9 78 78 0 0 1 9.6 10.5 85.5 85.5 0 0 1 11.7 21.6 108.7 108.7 0 0 1 5.1 18.1 96.7 96.7 0 0 1 1.6 11.9c.2 2.7.2 4.2.2 4.2z" fill="#745b45"/><path d="m943.9 846.1c-.2-2.7-7.5-19.5-7.5-19.5s-10.9-11.4-74.5-11.4-74.4 11.4-74.4 11.4-7.3 16.8-7.6 19.5l69.9 73.3s5.4-7.6 12.1-18.8c6.8 11.2 12.2 18.8 12.2 18.8z" fill="#2a2b2d"/><path d="m644.4 1003s-19.9 4.9-23.6 11.4 5.7 22.5 23.6 31.4 39.6 19.9 46.4 15.5-3.4-29.2-3.4-29.2z" fill="#2a2b2d"/><path d="m1073.8 1003s19.9 4.9 23.6 11.4-5.7 22.5-23.6 31.4-40.6 21.1-45.8 16.8c-3.1-2.6 2.8-30.5 2.8-30.5z" fill="#2a2b2d"/><path d="m573.2 1220.6 139.4-195.7 14.6 149.1h260.1c13.3-137.1 16.8-159.7 16.8-159.7l85.5 159.7h64l-112.3-260.1s-5.9-26-47.6-39.9-79.4-29.6-79.4-59.2v-77.9h-101.2v77.9c0 29.6-37.4 43.7-79 57.6s-46.9 39.7-46.9 39.7l-172.5 295.2z" fill="url(#e)"/><path d="m685.8 948.7a17.8 17.8 0 0 1 4.5 7.8 12.5 12.5 0 0 1 -.3 8.6 8.4 8.4 0 0 1 -1.2 1.9 8.5 8.5 0 0 1 -1.7 1.6 7.6 7.6 0 0 1 -4 2 8 8 0 0 1 -4.8-.5 5.3 5.3 0 0 1 -3.4-3.7v-.6h-1v.6a5.9 5.9 0 0 0 .2 3.7 9.7 9.7 0 0 0 2.2 3.1 12.4 12.4 0 0 0 6.9 3.3 15.2 15.2 0 0 0 7.9-1.3 16.3 16.3 0 0 0 3.4-2.1 19.2 19.2 0 0 0 3-2.8 18.1 18.1 0 0 0 3.5-7.6 24.1 24.1 0 0 0 .4-8 27.3 27.3 0 0 0 -6.4-14.4l-1.4-1.4a128.7 128.7 0 0 0 -14.2 6.1 16.8 16.8 0 0 1 6.4 3.7z" fill="#494d4e"/><path d="m700.5 979.1a15.6 15.6 0 0 1 -5.6 3.7 18.1 18.1 0 0 1 -6.5 1.1 29.3 29.3 0 0 1 -6.5-1 34.5 34.5 0 0 1 -5.9-2.3l-2.9-1.5-.8 3.9a10.3 10.3 0 0 1 -7.1 9.1 58.6 58.6 0 0 1 -4.6-10.6 56.8 56.8 0 0 1 -3-19.8 45.7 45.7 0 0 0 -7.5 11.8 62.4 62.4 0 0 0 3.4 10.6 75.5 75.5 0 0 0 4.8 9.4h-2.8a43.3 43.3 0 0 1 -9.7-1 39.9 39.9 0 0 1 -5-1.6l-6.3 10.8a55.1 55.1 0 0 0 6 1.6c4.5.7 12.5 1.1 15.9.6a41 41 0 0 0 8.1-2.3l3.4 4.1a18.3 18.3 0 0 0 1.3 1.6c-4.5 2-10.9 3.4-18.6 4.4-16 2.1-27.4 10.3-31.7 21.7-2.3 6.1-3 13.4-3 20.1-4.6.1-8.7.3-12 .7l-6.9 11.8 7.1-1.8s5-.9 12.1-1.7c.5 5.5 1.1 9.3 1.1 9.3-4.9-1.3-14.7-1.2-17 9.8-3.1 14.2 15.5 13.7 15.5 13.7-5.5-1.7-10-9.1-6.3-11.2 6.5-3.6 10.4-.3 9.9 8.5s-10.9 13.9-16.4 15.9a33.8 33.8 0 0 0 -.8-3.4l-.6-1.8a19 19 0 0 0 3.3-3 26.4 26.4 0 0 1 -3.5 2.3 32.3 32.3 0 0 0 -4.1-7.8c-1-1.7-1.9-2.9-2.9-4.4s-1.8-2.9-2.6-4.4-2-4-2.9-6.1l-4.7 8 1.5 2.1 3.6 4.3 3.8 3.9a31.6 31.6 0 0 1 4.4 5.8h-.3a22.1 22.1 0 0 1 -8.5-.1l-2.4-.5.9 2.7a29.1 29.1 0 0 1 1.9 12.2 10.6 10.6 0 0 1 -1.8 5 13.4 13.4 0 0 1 -3.8 3.7 15.6 15.6 0 0 1 -10.1 2.3 20.4 20.4 0 0 1 -9.7-3.9l-1.1-.7-6.2 10.7 1.3.7a31.6 31.6 0 0 0 15.8 3.1 24.5 24.5 0 0 0 14.8-6.3 20.4 20.4 0 0 0 4.7-6.6 17.2 17.2 0 0 0 1.4-7.9 34 34 0 0 0 -3.4-11.4 21 21 0 0 0 6.6-1.4l.6-.3.6 1.2a18.8 18.8 0 0 1 1.2 3h.1a34.1 34.1 0 0 1 1.5 17.4 36 36 0 0 0 1.5-17.9c24-4.4 26.1-20.4 25.1-34.8l19.5-4.1-20.2-2.3c-.2-2.2-.4-4.3-.6-6.2 3.5-.2 7.2-.4 10.9-.4h5.4l6.2.2 9.3.8c6.2.8 12.3 1.9 18.4 3.3a150.6 150.6 0 0 0 -18-5.6l-3.5-.9c11.5-4.1 15.6-13.6 13.5-25.2 0 0-1.6 13.5-10.2 17.5-5.1 2.4-18.9 2.3-32.1 2.3 1.2-13.4 8.1-18.6 12.7-19.3s9.8 1 8.4 6.4-10.3 5.1-10.3 5.1c6.8 2.8 17.8-1.1 18.3-10.5s-8-10.9-8-10.9c2.8-2.9 19.2-6.2 25.1-11.1a44.3 44.3 0 0 1 5 14c1.2 7.9-.4 16.4-5.5 22.9l-.3.5.8.8.4-.5c6-6.3 8.7-15.3 8-24.1a48.3 48.3 0 0 0 -5.3-17.8 15.5 15.5 0 0 0 .8-8.9 7.4 7.4 0 0 1 -3.2 4.6l-1.4-2.2c-.8-1.3-1.7-2.5-2.6-3.7a20.1 20.1 0 0 0 5.3-5.2 18.9 18.9 0 0 0 2.4-7.4l3.9.5a29.8 29.8 0 0 0 7.3-.3 21.2 21.2 0 0 0 6.9-2.5 16.7 16.7 0 0 0 5-4.9z" fill="#494d4e"/><path d="m873.2 1174 88.6-323s-23.7-7.2-29.6-14c0 0-19.1 31.5-65 31.6s-65-31.6-65-31.6c-6 6.8-29.7 14-29.7 14l24.8 323z" fill="#efeff0"/><path d="m872.3 1037.1.9-1.6h-1.8z" fill="#efeff0"/><path d="m862.1 1037.1.9-1.6h-1.9z" fill="#efeff0"/><path d="m790.5 864.3s29.1 23.2 72.9 23.2 83.2-39.4 83.2-39.4" fill="none" stroke="#d1d2d3" stroke-miterlimit="10"/><path d="m1045.1 512.4c0 144.4-51.2 262.3-182.9 262.3s-180.4-119.3-180.4-263.7 122.5-163.3 182.6-163.3 180.7 20.2 180.7 164.7z" fill="#ecd2c2"/><path d="m820.9 604.9a36.3 36.3 0 1 1 -36.3-35.9 36.1 36.1 0 0 1 36.3 35.9z" fill="#4b89ac"/><path d="m811.6 604.9a25.1 25.1 0 1 1 -25.1-25.1 25.1 25.1 0 0 1 25.1 25.1z" fill="#2a1d01"/><path d="m776 591.9a7.3 7.3 0 1 1 -7.3-7.3 7.3 7.3 0 0 1 7.3 7.3z" fill="#fff"/><path d="m783.5 684.4c24.9 15.1 51.5 24.4 78.4 24s53.1-10.5 79-24a109.7 109.7 0 0 1 -34.9 27.2 98.5 98.5 0 0 1 -88.1.6c-13.5-6.6-25.8-15.8-34.4-27.8z" fill="#7b6f68"/><path d="m909.8 604.9a36.3 36.3 0 1 0 36.3-35.9 36.1 36.1 0 0 0 -36.3 35.9z" fill="#4b89ac"/><path d="m919.1 604.9a25.1 25.1 0 1 0 25.1-25.1 25.2 25.2 0 0 0 -25.1 25.1z" fill="#2a1d01"/><path d="m920.5 591.9a7.3 7.3 0 1 0 7.3-7.3 7.3 7.3 0 0 0 -7.3 7.3z" fill="#fff"/><path d="m862.2 774.7c131.7 0 182.9-117.9 182.9-262.3 0-5.2-.2-10.1-.5-15h-22c10.5 101.6-24.6 168.1-41.2 176.9s-19.3-1.8-34.4-9.6-70.7-8.8-86.5-8.8-71.7 1.1-86.5 8.8-17.7 18.3-34.3 9.6-51.7-75.3-41.2-176.9h-16.3c-.3 4.4-.4 8.9-.4 13.6 0 144.4 48.7 263.7 180.4 263.7zm-80.6-96c9.7-4.4 31.7 15.9 78.9 15.9s69.2-20.3 79-15.9 12.1 20.6-10.6 45.2c-19.2 20.6-54.7 21.1-68.4 21.1s-49.2-.5-68.3-21.1c-22.8-24.6-20.4-40.9-10.6-45.2z" fill="#e2c9bb"/><path d="m782.8 833.4c-8.4 16.9 80.1 172.1 80.1 172.1l.4 172.6-137.2 30-16.1-174.4-20 28.9s2.6-2.1-1.1-8.8-48.3-38.8-63.9-39.5c-4.7-.2-5 1.4-5 1.4l75.6-135z" fill="#0095da"/><path d="m954.9 842.7c8.3 17-92 162.8-92 162.8l-8.3 168.5h140.4l13-140.3 20 28.9s-1.9-1.8 1.1-8.8c4.5-8.1 48.3-38.8 63.9-39.5 4.6-.2 5 1.4 5 1.4l-75.6-135z" fill="#0095da"/><path d="m763.3 1200 61.9-12.2c-8-77.5-27.9-259.1-44.4-354l-61.5 34c9.2 45.7 30.3 175.7 44 332.2z" fill="#a4d5e0"/><path d="m961.8 1174h-63.6c8-77.5 34.2-241.2 50.7-336.1l53.3 30.9c-9.2 45.7-26.7 148.8-40.4 305.2z" fill="#a4d5e0"/><path d="m824.3 1187.5-30.9-261.5 1.9-.2 30.9 261.5z" fill="#6ecaea"/><path d="m762.6 1200.9h1.9c-.3-2.1-25.4-237.1-44.6-333.3l-1.8.9c17.3 96.7 43.8 327.3 44.5 332.4z" fill="#6ecaea"/><path d="m789.1 1047.2h254.3v1.92h-254.3z" fill="#6ecaea" transform="matrix(.14090123 -.99002366 .99002366 .14090123 -250.4 1807.9)"/><path d="m1002.8 869.1-1.7-1c-20.7 100.9-41.2 303.7-41.4 305.8h1.9c.4-4.4 20.7-204.4 41.2-304.8z" fill="#6ecaea"/><path d="m936.3 826.6 36.1 22.4-3.8 35.7h-21.7l15.1 21.9-99.1 98.9z" fill="#0095da"/><path d="m787.5 826.6-36.2 22.4 3.8 35.7h21.8l-15.1 21.9 101.1 98.9z" fill="#0095da"/><path d="m861.4 1174-.4-170.4 1.9 1.9 1.9-1.9.5 170.4z" fill="#126a98"/><path d="m787.5 826.6-36.2 22.4 3.8 35.7 44.6-29.1z" fill="#a4d5e0"/><path d="m936.3 826.6 36.1 22.4-3.8 35.7-44.6-29.1z" fill="#a4d5e0"/><path d="m751.3 849c.8 5.9 1.5 11.9 2.3 17.8l2.1 17.9-.6-.5 21.8-.2h1.4l-.8 1.3c-4.9 7.3-10 14.6-15 21.9v-1.2l25.3 24.7 25.2 24.8c8.5 8.3 16.8 16.7 25.1 25l12.5 12.5 12.4 12.6-12.8-12.1-12.9-12.2-25.5-24.5-25.4-24.8c-8.5-8.2-16.9-16.5-25.3-24.8l-.5-.5.4-.6c5.1-7.3 10.1-14.6 15.2-21.8l.7 1.2-21.8-.2h-.5v-.5c-.6-6-1.1-11.9-1.7-17.9s-1.1-11.9-1.6-17.9z" fill="#126a98"/><path d="m972.4 849c-.6 6-1.1 11.9-1.7 17.9l-1.8 17.9v.5h-.5l-21.7.2.6-1.2c5.2 7.2 10.2 14.5 15.2 21.8l.5.6-.6.5c-8.2 8.3-16.3 16.6-24.6 24.8l-24.8 24.7-25 24.5-12.5 12.2-12.6 12.1 12.1-12.6 12.2-12.5c8.1-8.3 16.3-16.7 24.5-24.9l24.6-24.9 24.8-24.6-.2 1.1-14.9-21.9-.9-1.3h1.5l21.7.2-.5.5c.7-6 1.4-11.9 2.2-17.9z" fill="#126a98"/><path d="m1052.2 497.4c-.6-17.5-.9-35.5-5.2-51.5-2.8-10.1-8.2-18.8-12.8-28-7.2-14.2-15.4-29.3-28-40.4-6.6-5.9-15.4-11-23.8-15.8-10.9-6.3-22.3-15.7-36.5-19.9-11.5-3.4-25.2-3.9-39.1-5.8-9.7-2.1-17.4-5.4-32.3-5.4-2.2.1-15.4 2.2-17.7 2.2-14.9 0-27 1.1-36.7 3.2-14.8 2-29.5-.4-41.5 3.3-18.2 5.6-32.1 20.3-44.9 29.2-9.4 6.6-22.9 15.9-29.7 24-15.4 18.1-23.1 39.6-28.2 63.1-2.9 13.4-.6 27.4-1.1 41.8-3 86.5 21.6 135.8 21.6 135.8 17.9-13.2 1-57.4-1.5-86.4s28.9-83.7 53.5-93.4c20.4-8 73.9 12.3 115.2 12.2s94.7-20.2 115.1-12.2c24.6 9.7 56 64.5 53.5 93.4s-19.4 73.2-1.5 86.4c0 0 24.6-49.3 21.6-135.8z" fill="#5f4c30"/><path d="m811.1 826.1c-3.8 5.6-4.9 12.1-3.1 19.3 3.9 15.4 19.1 65 54 65h1.1c24.9-.7 43.5-22 55.2-63.2 2.4-8.2 1.2-15.4-3.4-21.6 0 0-1.3-1.4-.5-9a62.8 62.8 0 0 1 5 5.6c5.8 7.6 7.3 16.6 4.5 26.6-12.5 43.9-32.9 66.5-60.6 67.3h-1.3c-39 0-55.4-53-59.5-69.4-2.4-9.5-.8-18 4.9-25.3a39.1 39.1 0 0 1 5.7-5.8s0 .8-.1 1.9-.2 2-.4 3.1-.1.5-.1.8a34.9 34.9 0 0 1 -1.4 4.7z" fill="#eebc0a"/><path d="m862 913.1h-3.2a1.1 1.1 0 0 1 -.9-1.1.9.9 0 0 1 1-.8h3.8a.9.9 0 0 1 .9.9.9.9 0 0 1 -.9 1zm5.5-.4a1 1 0 0 1 -1-.8 1 1 0 0 1 .8-1.1 22 22 0 0 0 3.7-.6 1 1 0 0 1 1.2.7 1 1 0 0 1 -.8 1.2c-1.2.2-2.5.5-3.8.6zm-13.4-.4h-.2a25.4 25.4 0 0 1 -3.7-1 .9.9 0 0 1 -.6-1.2.9.9 0 0 1 1.2-.6l3.6 1a.9.9 0 0 1 .7 1.1 1 1 0 0 1 -1 .7zm21.7-1.5a1 1 0 0 1 -.9-.6 1.1 1.1 0 0 1 .6-1.3l3.5-1.3a.9.9 0 1 1 .8 1.7c-1.2.6-2.4 1-3.7 1.5zm-29.8-1.4h-.4l-3.4-1.9a.9.9 0 0 1 -.3-1.3 1 1 0 0 1 1.3-.4 26.8 26.8 0 0 0 3.3 1.8 1.1 1.1 0 0 1 .4 1.3 1.1 1.1 0 0 1 -.9.5zm37.6-2.2a1 1 0 0 1 -.8-.5 1 1 0 0 1 .3-1.3l3.2-2a.9.9 0 0 1 1.3.2 1.1 1.1 0 0 1 -.2 1.4l-3.3 2.1zm-44.9-2.3a.7.7 0 0 1 -.6-.2c-1-.7-2-1.6-3-2.4a1 1 0 0 1 0-1.4.9.9 0 0 1 1.3-.1 30.7 30.7 0 0 0 2.9 2.4 1.1 1.1 0 0 1 .2 1.4 1.1 1.1 0 0 1 -.8.3zm51.9-2.7a1 1 0 0 1 -.6-1.7l2.8-2.5a.9.9 0 1 1 1.3 1.3 37.1 37.1 0 0 1 -2.9 2.7zm-58.3-3a1.1 1.1 0 0 1 -.7-.3l-2.6-2.9a1 1 0 0 1 .2-1.4.9.9 0 0 1 1.3.1c.8 1 1.7 1.9 2.5 2.8a1 1 0 0 1 0 1.4.9.9 0 0 1 -.7.3zm64.4-3.1a.7.7 0 0 1 -.6-.2 1.1 1.1 0 0 1 -.1-1.4l2.4-2.9a1 1 0 0 1 1.4-.1.9.9 0 0 1 .1 1.3q-1.2 1.7-2.4 3a1.1 1.1 0 0 1 -.8.3zm-69.9-3.5a1.2 1.2 0 0 1 -.8-.4l-2.2-3.2a.9.9 0 0 1 .2-1.3 1.1 1.1 0 0 1 1.4.2 34.6 34.6 0 0 0 2.2 3.1 1.1 1.1 0 0 1 -.2 1.4zm75.2-3.3h-.5a1 1 0 0 1 -.3-1.4l2.1-3.1a.9.9 0 0 1 1.3-.3.9.9 0 0 1 .3 1.3l-2.1 3.2a.9.9 0 0 1 -.8.3zm-80-3.9a1 1 0 0 1 -.8-.5c-.7-1.1-1.3-2.2-1.9-3.3a.9.9 0 0 1 .3-1.3.9.9 0 0 1 1.3.4l1.9 3.2a1 1 0 0 1 -.3 1.4zm84.5-3.4h-.4a.9.9 0 0 1 -.4-1.3l1.8-3.4a1.1 1.1 0 0 1 1.3-.4.9.9 0 0 1 .4 1.3l-1.8 3.4a1.1 1.1 0 0 1 -.9.4zm-88.6-4.2a1.1 1.1 0 0 1 -.9-.5l-1.7-3.5a.9.9 0 0 1 .5-1.2.9.9 0 0 1 1.3.4 35.4 35.4 0 0 0 1.6 3.4.9.9 0 0 1 -.4 1.3zm92.6-3.4h-.4a1 1 0 0 1 -.5-1.3c.5-1.1 1.1-2.3 1.6-3.5a.9.9 0 0 1 1.2-.5 1 1 0 0 1 .5 1.3 37.3 37.3 0 0 1 -1.6 3.5 1 1 0 0 1 -.8.5zm-96.3-4.4a.8.8 0 0 1 -.8-.6c-.6-1.2-1-2.4-1.5-3.6a.9.9 0 0 1 .5-1.2 1 1 0 0 1 1.3.5c.4 1.2.9 2.4 1.4 3.6a.9.9 0 0 1 -.5 1.2zm99.7-3.6h-.4a1 1 0 0 1 -.5-1.3c.5-1.1.9-2.3 1.4-3.5a.9.9 0 0 1 1.8.6c-.5 1.3-.9 2.5-1.4 3.6a1 1 0 0 1 -.9.6zm-102.8-4.4a1 1 0 0 1 -.9-.7c-.5-1.2-.9-2.4-1.3-3.6a1 1 0 0 1 .6-1.2.9.9 0 0 1 1.2.6l1.3 3.6a.9.9 0 0 1 -.6 1.2zm105.8-3.6h-.3a.9.9 0 0 1 -.6-1.2l1.2-3.6a.9.9 0 1 1 1.8.6l-1.2 3.6a1 1 0 0 1 -.9.6zm-108.5-4.6a1 1 0 0 1 -.9-.7 36.8 36.8 0 0 1 -1.1-3.7.9.9 0 0 1 .6-1.2 1 1 0 0 1 1.2.7c.3 1.1.7 2.3 1.1 3.6a.9.9 0 0 1 -.7 1.2zm111.1-3.6h-.3a.9.9 0 0 1 -.6-1.2 20.2 20.2 0 0 1 .7-2.3l.3-1.3a.9.9 0 0 1 1.2-.7.9.9 0 0 1 .7 1.1c-.1.5-.3 1-.4 1.4s-.5 1.6-.7 2.4a1 1 0 0 1 -.9.6zm-113.4-4.8a1 1 0 0 1 -1-.7 26.3 26.3 0 0 1 -.6-3.9.8.8 0 0 1 .8-1 .9.9 0 0 1 1.1.8 23.8 23.8 0 0 0 .6 3.7.9.9 0 0 1 -.7 1.1zm115.2-3.7h-.1a1 1 0 0 1 -.9-1 20.9 20.9 0 0 0 .1-2.5v-1.2a1 1 0 0 1 1.9-.1v1.3a24.4 24.4 0 0 1 -.1 2.7.8.8 0 0 1 -.9.8zm-116-4.8a.9.9 0 0 1 -.9-1 17.5 17.5 0 0 1 .5-4 .9.9 0 0 1 1.8.4c-.2 1.2-.3 2.4-.4 3.7a1 1 0 0 1 -1 .9zm115.5-3.7a1.1 1.1 0 0 1 -1-.8 23.7 23.7 0 0 0 -.9-3.6.9.9 0 0 1 .5-1.2 1 1 0 0 1 1.3.6 23.6 23.6 0 0 1 1 3.8.9.9 0 0 1 -.7 1.1zm-113.7-4.7h-.3a.9.9 0 0 1 -.6-1.2 30.1 30.1 0 0 1 1.7-3.6 1 1 0 0 1 1.4-.3.9.9 0 0 1 .3 1.3 25.3 25.3 0 0 0 -1.6 3.3.9.9 0 0 1 -.9.5zm110.6-3.3a1 1 0 0 1 -.8-.5l-1.1-1.5a7.6 7.6 0 0 0 -1.1-1.4 1 1 0 0 1 .1-1.4.9.9 0 0 1 1.3.1l1.3 1.5 1.1 1.7a1 1 0 0 1 -.3 1.3zm-104.9-4.7-.4.4a1.1 1.1 0 0 1 -.7.3l-.7-.2a1.1 1.1 0 0 1 -.1-1.4l2.1-2" fill="#ffe799"/><path d="m718.2 471.5c2.1-2-2.8-11.2.4-13s8.3 2.1 11.2 1-.1-11.8 2.2-13 2.6.1 5.4.5.7-7.4 2.8-7.7 3 5.1 6.1 4.5-.1-12.6 2.6-13.6 3.9 6.3 6.7 6.5 2.3-9.4 3.9-9.6 1.6 13.9 5.4 14.1 6.5-9.7 9.1-9.7 5.7 11.3 8.8 11.3 5.1-8.5 7.3-8.1.4 7.8 2.8 8.5 2.2-1.3 3.3-2c1 2.1 1.4 5.1 4 5.4s8.2-3.5 11.4-3.2 4.6 9.4 8.2 9.9 3.8-4.8 5.1-4.6.6 5.3 2.5 5.3 2.4-4.6 4.2-4.5 6.6 8.2 9.6 7.9 5.4-12 8.3-12.1 7.1 11.5 10.5 11.5 2.7-8 4.4-8.1 1 6.9 2.6 6.9 1.9-3.7 3.8-3.7 2.6 7 5.8 7.3 7.4-12.2 10.8-12.3 5 7.1 8.9 7.3 6-5.8 8.3-5.8 1.9 4 4.9 4.1 4.3-7.8 8.5-8.1 5.5 6.7 9.7 6.4 5.1-7 7.4-7.1 1.3-5.6 3.2-5.6 5 6.3 8.1 6.2 6.1-5.8 7.7-5.7 2 3.6 4.1 3.6 5.9-5.9 7.9-5.9 2.1 7.5 3.7 7.6 1.4-4.4 3.3-4.1 5.9-1.3 8.5-1.3 1.4 5 4.9 5.1 4.3-5.5 6.8-5-2.9 10.2-1.5 11.8 7.3 2.4 10.7 4.2c1.5.8-.7 1.3.4 3.1s6.5 4.8 7.6 6 12.5 26.8 14.6 27 4.2-5 4.5-6.8 2.1-9.8 1.8-11.3-5.3.7-6.3-.5 7.2-6.7 6.3-8.5-5.8-.2-8.7-.2a4.3 4.3 0 0 1 -2.3-.5c-2.7-1.7 3.6-5.2 3.2-6.9s-4.7-.1-5.5-1.4 2.8-4.2 1.4-5.7-10 5.6-11.7 4.4 2.6-13.2 1.7-15.1-5.2 2.1-6.6 1.8-2.4-7.8-3.3-8.3-.8 4.5-3.1 2.8.9-11.6.3-12.5-.8 2.2-1.6 1.3 1.2-2.8.1-3.4-1.3 6.1-2.4 5.8 0-6.5-1.4-7-.9 8.7-3.4 8.8 1.9-9.8-.6-11-6.6 10.3-7.9 9.5 2.2-25.5 2.2-25.5-8.9 30.3-10.5 30.3-.2-11.4-3.5-11.5-3.4 10.1-4.9 10.3-.2-5.1-1.9-5.2-3.2 5-4.5 4.7 1.9-10.6-.4-11.2-4.8 8.9-7.3 8.5-1.7-31.2-1.7-31.2-5.7 26.3-8.3 27.3-.6-4.6-3.7-4.5-1.5 7.6-3.6 7.8-4.7-13-6.5-12.9-3.2 11.1-5 11.4-.8-5.5-2.8-5.5-2.2 4.7-3.7 4.9-4.3 2.7-5.8 2.7-1-3.8-2.9-4.1 1.1 8.1-4.3 8.7-1.9-44.1-1.9-44.1-10.6 35.2-14.4 35.4-4.6-6.7-6.9-10c.4 4 3.3 11.5-.6 12.1s-7.9-12.7-11.2-19.4c-1.1 3.7-.1 11.6-3.4 11.2s-2.6-14.2-4.9-14.1-2.8 8.9-4.5 9.3-.9-4.4-2.6-4.7-2.2 10.5-4.2 10.9-1.6-16.1-4.1-23.8c-4.2 10.4-5 32.8-8.2 32.4s-6.1-16.5-7.6-17.1-1.8 9.6-4.2 9.9.8-16.4-2.2-16.8-4.8 12.5-8.1 12.8-8.8-23.9-13.2-35.7c-.9 12.4 3.2 35.7 1.2 35.7s-1.7-3.6-2.5-5.4c-1.6 2.2-2.2 6.8-3.8 7.2s-.3-8.2-.5-12.3c-2.7 3.9-2.5 13-4.9 13.2s-9.7-16.9-11.8-25.1c0 8.2 3 22.7-.3 23s-4.3-6.7-6.5-10.1c-.3 2.6 2.8 7.2-.9 7.7s-9-6.4-12.8-10.3c1.2 3 3.3 8.6 1.7 9.6a3.6 3.6 0 0 1 -4.8-.9c-.2 2.4 1.6 6-.6 7.2s-5.7-5.2-8.6-7.8c-.6 4.1 2.5 11.1.6 12.4s-3.1 2-4.7 1.1c-.9 3.4-.3 9.1-1.3 10.5s-9-8.6-12.8-13.4c-.8 3.7 3.1 10.2.7 11.3s-2.1 2.6-4.1 2c-.1 2.2 3.4 4.2 1.2 6.3s-3.6 1.5-6.9-1.5c.3 1.7 2.8 4 1 5s-6.7-4.3-10.1-6.4c1 1.5 2 3 2 4.7s-1.1 3.7-2.9 3.6c.8 5.6 6.2 15.2 5.2 16.2s-2.4-1.8-3.8-1.7 1 4.8.4 6.5-2.9 1.9-2.2 3.7c3.3 7.6-3 17.1-2.1 19.6s9.2-12.3 9-19c1.9.3 3.6 1.6 5.8-.4z" fill="#6d5637"/><path d="m700.1 614.4c.9-6.7-2.4-13.2-3.3-19.8-.5-3.5-.3-7.1-.5-10.7-.6-11.6-5.2-22.7-5.6-34.3-.2-6.4 1-13.1-.6-19.4-.4-1.7-1.1-3.4-.6-5.1a8.2 8.2 0 0 1 1.2-2.5 13.3 13.3 0 0 0 .4-10.7l2.2-.4c.9-4.3 6.1-7.2 5.8-11.6a8.2 8.2 0 0 1 -.2-2.2 1.5 1.5 0 0 1 1.5-1.4c-1.1-.1-1.3-1.7-.7-2.6a8.3 8.3 0 0 1 2.6-1.9 3.1 3.1 0 0 0 1.7-2.6" fill="none" stroke="#6a5537" stroke-miterlimit="10" stroke-width="2"/><path d="m1029.4 614.4c-.9-6.7 2.3-13.2 3.2-19.8.5-3.5.3-7.1.5-10.7.7-11.6 5.2-22.7 5.6-34.3.2-6.4-.9-13.1.6-19.4.5-1.7 1.1-3.4.7-5.1a19.2 19.2 0 0 0 -1.2-2.5 13.3 13.3 0 0 1 -.5-10.7l-2.2-.4c-.9-4.3-6.1-7.2-5.7-11.6a16.4 16.4 0 0 0 .2-2.2 1.6 1.6 0 0 0 -1.6-1.4c1.1-.1 1.4-1.7.8-2.6a9.7 9.7 0 0 0 -2.6-1.9c-1-.6-1.9-1.5-1.7-2.6" fill="none" stroke="#6a5537" stroke-miterlimit="10" stroke-width="2"/><path d="m813.2 435.2c-.9-7.5-1.5-15-2.1-22.5s-.7-15-1.4-22.5c-1.4-14.9-3.7-29.9-8.6-44.2h.4a160.5 160.5 0 0 1 7.1 21.6c1.7 7.4 3.1 14.8 4.2 22.3s2.1 15.1 2.2 22.7a132.5 132.5 0 0 1 -1.4 22.7z" fill="#846744"/><path d="m878.7 439.1a57.2 57.2 0 0 1 -1.8-12.8c-.2-4.3.5-8.6.9-12.8s.9-8.5 1.5-12.8 1.4-8.4 2.2-12.6h.4c-.2 4.2-.5 8.5-.7 12.7s-.3 8.5-.3 12.7.2 8.5-.1 12.7a93.8 93.8 0 0 1 -1.8 12.8z" fill="#846744"/><path d="m910.5 402.7a60.6 60.6 0 0 1 1.6-12.8 101.8 101.8 0 0 1 4.2-12.1c1.5-4 3.1-8 4.7-11.9s3.5-7.8 5.4-11.7l.4.2-4 12.1c-1.3 4.1-2.5 8.2-3.6 12.2s-1.9 8.3-3.4 12.3a86.4 86.4 0 0 1 -4.9 11.8z" fill="#846744"/><g fill="#997141"><path d="m798 405q-1.5-11.4-3.6-22.8t-4.8-22.5h-.5c.9 7.7 1.8 15.2 2.5 22.9s1.4 15.1 1.8 22.7c.1 3.8.2 7.6.2 11.4v11.3a37 37 0 0 1 -.2 4.7l-.6-1.4-.4-.5a.1.1 0 0 1 -.1-.1l-.3-.3-.9-.2h-.5l-.3.2-.3.3a.9.9 0 0 0 -.3.6 5.3 5.3 0 0 0 -.4 1.6c-.1 1-.1 2-.1 3h.5l1-2.1a3.6 3.6 0 0 0 .2 1.1 11.5 11.5 0 0 0 .8 3.2l.4.6.5.6.5.4.9.2h1l.6-.3.3-.3.7-.7.3-.5a3.6 3.6 0 0 0 .4-.9 22.2 22.2 0 0 0 1-3.1c.5-2 .7-4 1-6 .8-7.7-.5-15.4-1.3-23.1zm-6.5 27.5h.1z"/><path d="m868.7 427.9-1.3 8.9-.6 3.2-1-.7-1.3-.3h-1.9a5.1 5.1 0 0 0 -2.1 1.3 1 1 0 0 1 -.4.5c0-1.2 0-2.4.1-3.6.2-5.9-2.7-22.9-2.7-22.9-.6 4.3-3 13.1-3.7 17.4a63.8 63.8 0 0 1 -1.2 6.3 3 3 0 0 1 -.2 1 6.1 6.1 0 0 0 -1.6-1.7 4 4 0 0 0 -2.6-.7 3.8 3.8 0 0 0 -1.6.6 2.9 2.9 0 0 0 -.8.8 6.4 6.4 0 0 0 -1 1.6c-.1-1.1-.1-2.3-.1-3.6v-13c0-4.3-.1-8.7-.3-13.1-.4-8.8-.9-17.6-3.2-26.1a113.1 113.1 0 0 1 .6 13c0 4.4-.2 8.7-.4 13.1-.4 8.7-1.1 17.3-1.6 26.1a25.7 25.7 0 0 0 .4 7.2 5.4 5.4 0 0 0 .8 2.2 5 5 0 0 0 1 1.3 3.8 3.8 0 0 0 2.2 1 4.5 4.5 0 0 0 2.4-.6 5.5 5.5 0 0 0 1.3-1.4 4.1 4.1 0 0 0 .6-1.1l.2-.5a3.6 3.6 0 0 1 .4.9c.3.5.5 1 1.1 1.9l.9.9 1.1.6a3.7 3.7 0 0 0 1.8-.1 3.9 3.9 0 0 0 1.6-1.2 1.3 1.3 0 0 0 .3-.5.1.1 0 0 0 .1-.1l.3.6a.8.8 0 0 1 .4.4l.6.4.6.2a3.8 3.8 0 0 0 1.6.3 4.3 4.3 0 0 0 1.7-.6 4 4 0 0 0 1.4-1.7 22.8 22.8 0 0 0 1.1-2.1c.1-.3.2-.4.2-.5l1.1.7 1.4.7h.7a2 2 0 0 0 1.5-.3 2.7 2.7 0 0 0 1.2-1.2 4.2 4.2 0 0 0 .6-1.5 28.6 28.6 0 0 0 .6-4.8c.2-3 .3-6 .4-9a152.4 152.4 0 0 1 1.4-17.8 94.9 94.9 0 0 0 -4.1 17.6zm-18.9 13.7c.1-.1.1-.1.1 0z"/><path d="m934.6 379.1c-1.7 3.7-3.3 7.5-4.8 11.3-3 7.7-5.6 15.4-8 23.3-1.2 3.9-2.3 7.9-3.4 11.9a56.5 56.5 0 0 0 -1.3 6.2c-.2 1.1-.2 1.9-.4 2.8a3.1 3.1 0 0 0 -.5-1.2 3.5 3.5 0 0 0 -1.6-1.6 3.6 3.6 0 0 0 -3-.2 6.9 6.9 0 0 0 -2.3 1.8l-.8 1.1h-.1l-.9-10.8-4.4 9.8c-.6 1.4-1.5 2.8-2.2 4.1l-1.2 1.7a5.8 5.8 0 0 1 -.5-1.4 22.1 22.1 0 0 1 -1.1-4.6 63.9 63.9 0 0 1 -.9-9.9q0-4.9.3-10.2a50.8 50.8 0 0 0 -2.6 10 52.5 52.5 0 0 0 -.7 10.5 24.8 24.8 0 0 0 .6 5.4 18 18 0 0 0 .9 2.8 7 7 0 0 0 1 1.6 3.8 3.8 0 0 0 .9.9 3.6 3.6 0 0 0 2 .7l1.2-.2.6-.3.9-.6a6.5 6.5 0 0 0 1.2-1.1l1.1-1.3c.1.1.2.3.4.4a4.8 4.8 0 0 0 1.6.8 3.6 3.6 0 0 0 1.8-.1 5 5 0 0 0 1.7-1l.8-.8a7.2 7.2 0 0 0 1.1-1.5l.4-.6a8.2 8.2 0 0 0 .6 1.6 4.4 4.4 0 0 0 3 2.3 3.2 3.2 0 0 0 2.4-.4 6.1 6.1 0 0 0 1.4-1.1 22.1 22.1 0 0 0 1.1-2.1 16.7 16.7 0 0 0 .7-3.5c.1-1.2.2-2.3.3-3.1s.6-3.9 1-5.8c.8-4 1.7-7.9 2.7-11.8 2-7.9 4.2-15.8 6.5-23.6s4.7-15.6 8.3-22.9a74.8 74.8 0 0 0 -5.8 10.7zm-23 57.2a.1.1 0 0 1 -.1-.1.1.1 0 0 0 .1.1z"/><path d="m832.7 440.8a2 2 0 0 1 -.7 2 1.4 1.4 0 0 1 -1.5 0 1.9 1.9 0 0 1 -.8-1.3 32.7 32.7 0 0 0 -.7-3.4l-.3-.4v-.2c-.1-.1-.2-.1-.1-.1s-.1 0 0 .1a.4.4 0 0 0 .4-.1c.4-.3.1.1 0 .6a9.7 9.7 0 0 1 -.3 1.1l-.4.9a16.2 16.2 0 0 1 -1 1.8 3.1 3.1 0 0 1 -.8 1 2.9 2.9 0 0 1 -1 .7 2.4 2.4 0 0 1 -1.9-.1 3.1 3.1 0 0 1 -1.3-1.2c-.3-.4-.4-.8-.6-1.1a4 4 0 0 1 -.3-2.3c0-.3 0-.5-.1-.6h.1c.2.2.4.3.6.2h-.1l-.7.4-.9.5a2.2 2.2 0 0 1 -1.4.3.7.7 0 0 1 -.5-.4c-.1-.1-.1-.1-.1-.2a1.4 1.4 0 0 1 -.2-.6 1.7 1.7 0 0 1 0-1h.3a4.3 4.3 0 0 0 .4.7l.3.3h.2c0-.1-.1-.1-.2-.2s.1-.1.2-.3l.6-.7.7-.8a2.6 2.6 0 0 1 1.5-.7 2 2 0 0 1 1.4.6l.5.8a5.6 5.6 0 0 1 .4 1.2c.2.7.2 1 .4 1.2a1 1 0 0 0 .4.5c0 .1.2.2-.1 0a1.3 1.3 0 0 0 -.9-.1l-.4.2.3-.4a6.1 6.1 0 0 0 .7-1.4l.4-.8a4.1 4.1 0 0 1 .2-.7l.4-1a2.9 2.9 0 0 1 1.3-1.5 2.6 2.6 0 0 1 2.2-.3 2.9 2.9 0 0 1 1.6.9l.5.6.3.6.3 1.3a13.4 13.4 0 0 1 -.4 3.8c0 .3-.1.3-.1.4a.2.2 0 0 0 .2.2c.2.1.8-.4 1-1z"/><path d="m974.9 381.3a41 41 0 0 0 -5.6 8.6c-1.5 3.1-2.8 6.2-4.1 9.4-2.4 6.3-4.4 12.9-6.2 19.4l-2.7 9.8c-.3 1.2-.6 2.3-.8 3.5a3.8 3.8 0 0 0 -.9-.9 2.8 2.8 0 0 0 -.8-.6 2.7 2.7 0 0 0 -1.5-.3 2.5 2.5 0 0 0 -1.7.7 6.5 6.5 0 0 0 -2.1 2.5l-1.3 2.3a11.9 11.9 0 0 0 -.7 1.5c0 .2-.7.1-1.4-.2l-2-1.4-.5.3a14.9 14.9 0 0 0 1.4 2.4 6.3 6.3 0 0 0 1.2 1 3.1 3.1 0 0 0 2 .4 4.3 4.3 0 0 0 1.8-1l1-1 1.7-1.8c.1-.1.1-.1.1-.2l.8 1.7c.2.3.4.8.7 1.2a5.7 5.7 0 0 0 1.1 1.6l.4.3.6.4a3.5 3.5 0 0 0 1.3.3 3.3 3.3 0 0 0 1.7-.4 4.4 4.4 0 0 0 1-.8c.2-.3.2-.5.4-.7s.1-.4.2-.5a6.2 6.2 0 0 1 .3-1v-.6l.6-2.6c.3-1.6.6-3.3.8-4.9.5-3.4 1.1-6.7 1.7-10 1.2-6.5 2.6-13.1 4.4-19.5s3.9-12.9 7.4-18.6zm-22.1 53.6.3-.2z"/><path d="m998.1 440.8c0 1.8-.1 3.7 0 5.3a3.5 3.5 0 0 0 .4 2h-.1c-.1-.2-.2-.3-.4-.3h1.4a12.8 12.8 0 0 1 5.9 1.9 5.7 5.7 0 0 1 1.4 1.3 4.5 4.5 0 0 1 1 2.2 8.2 8.2 0 0 1 -.2 1.8 10.3 10.3 0 0 0 -.4 1.4c-.2.5-.3.9-.4 1.2s-.1.8-.1.6l-.4-.3h.4l1.4.4 2.7.8a13.2 13.2 0 0 1 2.7 1.3c.1.1.3.2.4.4s.2.2.2.3a1.4 1.4 0 0 1 .2.6 2.4 2.4 0 0 1 -.3 1c-.2.5-.5.9-.6 1.2s0 0-.1-.1h.2l1.3.6a2.2 2.2 0 0 1 1.2 1.3 2 2 0 0 1 -.3 1.6 7 7 0 0 0 -.3 1.2.9.9 0 0 0 .6.8l-.2.4a1.8 1.8 0 0 1 -1-1.2 3.2 3.2 0 0 1 .2-1.4c.3-1 .1-1.3-.7-1.6l-1.2-.4a1.5 1.5 0 0 1 -1-.5 1.6 1.6 0 0 1 -.2-1.3l.5-1.3v-.3c-.1 0 0 .1 0 .2 0 .1 0 0-.1 0a8.7 8.7 0 0 0 -2.3-.8l-2.5-.5-1.3-.2h-.3l-.6-.2a2.2 2.2 0 0 1 -1.3-1.2 4.1 4.1 0 0 1 -.2-2.1l.3-1.4c.1-.5.1-.9.2-1.3v-.9c0 .2-.3-.3-1-.5a18.1 18.1 0 0 0 -4.3-1.4h-1.3a3 3 0 0 1 -1.7-.8 2.1 2.1 0 0 1 -.4-.6 1.1 1.1 0 0 1 -.3-.6 8 8 0 0 1 .1-3.5 16.4 16.4 0 0 1 2.4-5.2z"/><path d="m772.7 424.9a18.5 18.5 0 0 1 -1.1 5.6 7.9 7.9 0 0 1 -1.8 2.9l-.6.3-.8.3a2.9 2.9 0 0 1 -1.8-.3l-.6-.4-.5-.2a22.2 22.2 0 0 0 -4.4-1.4c-.7-.1-1.2 0-1.1-.1a2.8 2.8 0 0 0 -.5.8l-.6 1.1a7.5 7.5 0 0 1 -.6 1.3 3.7 3.7 0 0 1 -1.3 1.7 2.8 2.8 0 0 1 -1.8.3l-.5-.3h-.3l-1.2-.6-2.4-1.1a7.8 7.8 0 0 0 -2.3-.6h.1a.3.3 0 0 0 -.1.2l-.4 1.4a1.4 1.4 0 0 1 -.9 1 2.8 2.8 0 0 1 -1.1-.1 2.8 2.8 0 0 0 -1.2-.4c-.8-.3-1.1-.1-1.4.9a4.2 4.2 0 0 1 -.7 1.3 1.4 1.4 0 0 1 -1.5.3v-.3a1.1 1.1 0 0 0 1-.4 3.4 3.4 0 0 0 .4-1.2 2.3 2.3 0 0 1 .7-1.4 1.8 1.8 0 0 1 1.7-.4l1.4.2h.2c-.1 0-.1.1-.1-.1a9 9 0 0 0 .2-1.3 2.3 2.3 0 0 1 .3-.9l.5-.4h.9a12.8 12.8 0 0 1 3 .4l2.7.9 1.3.5c-.2.1.1-.2.2-.6s.2-.7.4-1.2.3-.9.4-1.4a8.5 8.5 0 0 1 .9-1.5 3.2 3.2 0 0 1 2.1-1.3l1.8-.3a13.2 13.2 0 0 1 6 1.8l.6.5.3.2h-.4a6 6 0 0 0 1.4-1.4c1.1-1.4 2-2.9 3.1-4.4z"/><path d="m697.8 620.1c1.3-.9 1.8-2.9 2.1-4.6a23.6 23.6 0 0 0 -.1-5.3c-.5-3.5-1.2-7.1-1.9-10.7l-3.9-21.3c-1.3-7.1-2.5-14.3-3.4-21.5-.5-3.6-1-7.2-1.3-10.8a68 68 0 0 1 -.3-11.1c.1-1.9.4-3.6.6-5.4a49.5 49.5 0 0 0 .6-5.4 45.3 45.3 0 0 0 .3-5.2 19.5 19.5 0 0 0 -.2-2.5c-.1-.4-.1-.7-.2-1.2l-.2-.6v-.9a6 6 0 0 1 .9-3.8l2-2.4.9-.9.2-.2a.8.8 0 0 1 .2-.4c.2-.7.5-1.5.7-2.3s1-3.4 1.5-5.2a27 27 0 0 1 2-5.4 9.2 9.2 0 0 1 2-2.8 3 3 0 0 1 1.1-.7q-.3.2-.3.3c-.1.2.1-.2.2-.6l.2-1.3.3-.9c0-.2.1-.3.2-.5a2.3 2.3 0 0 1 .5-.7c.1-.3.7-.6 1.1-.7h.7c.2 0 .2.1.2.1h.9l1.2.4-.4.2a1 1 0 0 0 -.5.4 2.4 2.4 0 0 0 -.2.9c-.1-.3-.2-.8-.3-1.2a12.3 12.3 0 0 1 -.7-2.9 3.3 3.3 0 0 1 .2-2.1 2.1 2.1 0 0 1 1.3-1.3h1.4a19.5 19.5 0 0 1 2.9 1.1l.9.4h-.4c-.1 0-.1.1-.2.2s-.1.2-.1.1a5.3 5.3 0 0 0 -.1-1.2c0-.4-.1-.8-.1-1.2a9.5 9.5 0 0 0 -2.6-4.1 53.7 53.7 0 0 0 -8.1-6.9l.2-.4a53.7 53.7 0 0 1 9.2 6 12.3 12.3 0 0 1 3.4 4.8 8 8 0 0 1 .3 1.5 13 13 0 0 1 .3 1.5 2.6 2.6 0 0 1 -.4 1.4 1.3 1.3 0 0 1 -1 .6 1.1 1.1 0 0 1 -.8 0 12.3 12.3 0 0 1 -1.6-.4 7.5 7.5 0 0 0 -2.3-.7h.1l.3-.2h.1c.1-.1 0 .2.1.6a11.9 11.9 0 0 0 .7 2.3 10.9 10.9 0 0 1 .5 1.4c0 .1.1.4.1.6a4.3 4.3 0 0 1 -.2 1.2 2.7 2.7 0 0 1 -.8.7 2 2 0 0 1 -1.1.3h-.7l-1.5-.3h-.1c.2 0 .5-.3.5-.3s0 0 0 .4l-.2 1.3a4.3 4.3 0 0 1 -.7 2 2.3 2.3 0 0 1 -.7.7 1.1 1.1 0 0 1 -.7.3c-.1.1 0 .1 0 .1h.1a7 7 0 0 0 -1.1 1.8c-1.4 2.9-2 6.4-3 10-.3.9-.6 1.8-1 2.8a1.8 1.8 0 0 1 -.5.8 2.8 2.8 0 0 1 -.6.8l-1 1.1c-1.3 1.2-2.1 2.4-2 3v.2c.1 0 .1.2.1.3v.7l.3 1.5c.1 1 .1 2 .1 2.9s-.3 3.8-.5 5.6-.5 3.6-.8 5.4-.6 3.7-.7 5.3a62.5 62.5 0 0 0 0 10.6c.2 3.6.5 7.2.9 10.7.8 7.2 1.8 14.4 2.8 21.5l3.2 21.5c.6 3.5 1.2 7.1 1.5 10.7a20.3 20.3 0 0 1 -.1 5.5c-.3 1.8-.8 3.8-2.5 4.9z"/><path d="m1029.7 620.5a6.8 6.8 0 0 1 -2.3-4.1 25.6 25.6 0 0 1 -.4-4.7c.2-3.2.7-6.3 1.1-9.3l2.8-18.5c1.8-12.3 3.6-24.6 4.4-36.9.2-1.5.2-3 .3-4.6v-4.5c0-1.6-.3-2.9-.4-4.4l-.8-4.6c-.4-3.1-.9-6.3-1-9.5a22.6 22.6 0 0 1 .5-5.1v-.9-.5a4.2 4.2 0 0 0 -.7-1.3 15.3 15.3 0 0 0 -1.3-1.6l-.9-.9-.9-1.5a31 31 0 0 1 -1.4-4.7 55.2 55.2 0 0 0 -2.4-8.7 11.2 11.2 0 0 0 -1-1.6l-.2-.2-.7-.4a2.6 2.6 0 0 1 -.8-1.6c-.2-.9-.2-1.7-.4-2.3s-.2-.5.1-.3h-.7l-1.2.2a2.6 2.6 0 0 1 -.9 0c-.2-.1-.5-.2-.6-.5s-.2-.8-.2-.8.6-1.5.9-2.3a8.3 8.3 0 0 0 .6-2.1 1.7 1.7 0 0 0 0-1 .8.8 0 0 0 -.7-.3v-.3c.4-.1 1-.2 1.3.3a2.4 2.4 0 0 1 .3 1.4 19.7 19.7 0 0 1 -.3 2.4 10.4 10.4 0 0 0 -.5 2.1c0 .2 0-.1-.1-.2l-.2-.2h.2l1.1-.4.6-.2h1a1.4 1.4 0 0 1 1 .8 1.3 1.3 0 0 1 .3.7c.3.9.4 1.7.6 2.3s.3.6.2.4h-.2l.5.2.8.5a10.2 10.2 0 0 1 1.6 2.2c1.7 2.9 2.4 6.1 3.4 9a27.9 27.9 0 0 0 1.4 4.1l.4.6.7.7a11.1 11.1 0 0 1 1.8 1.9 8.1 8.1 0 0 1 1.4 2.8 5.5 5.5 0 0 1 .1 1.8v1.3a19.3 19.3 0 0 0 -.3 4.2c.1 2.9.4 6 .8 9l.6 4.6a41 41 0 0 1 .2 4.9 38.5 38.5 0 0 1 -.2 4.8c-.1 1.6-.2 3.1-.4 4.7-1.3 12.5-3.5 24.7-5.6 36.9l-3.5 18.4c-.6 3-1.2 6.1-1.5 9.1a17.8 17.8 0 0 0 .2 4.6 5.4 5.4 0 0 0 1.9 3.8z"/></g></g></svg>