<svg height="1205" viewBox="0 0 1205 1205" width="1205" xmlns="http://www.w3.org/2000/svg" xmlns:xlink="http://www.w3.org/1999/xlink"><linearGradient id="a" x1="53.367843%" x2="53.367843%" y1="102.595544%" y2=".000908%"><stop offset="0" stop-color="#fdddc8"/><stop offset="1" stop-color="#e9cdba"/></linearGradient><mask id="b" fill="#fff"><path d="m.24728157 2.79748309h1200.67639843v1182.48976691h-1200.67639843z" fill="#fff" fill-rule="evenodd"/></mask><mask id="c" fill="#fff"><path d="m597.309231 2.80653647c-330.171532 1.60244168-597.309231 265.69752053-597.309231 591.22858653 0 326.545043 268.773986 591.246697 600.342798 591.246697 331.550426 0 600.333602-264.701654 600.333602-591.246697 0-325.531066-267.14689-589.62614485-597.309228-591.22858653z" fill="#fff" fill-rule="evenodd"/></mask><mask id="d" fill="#fff"><path d="m168.574367 4.19169803h-.091926-46.018283v69.90086397c0 26.562509-34.0678707 39.21003-71.9782584 51.658377-37.9471583 12.448347-42.7457089 35.552479-42.7457089 35.552479s132.4749273 40.088205 322.5232673 1.638656-5.414456-23.330466-43.370807-35.778813c-37.910388-12.457401-72.290807-26.50819-72.290807-53.070699v-69.90086397z" fill="#fff" fill-rule="evenodd"/></mask><mask id="e" fill="#fff"><path d="m597.309231 2.80653647c-330.171532 1.60244168-597.309231 265.69752053-597.309231 591.22858653 0 326.545043 268.773986 591.246697 600.342798 591.246697 331.550426 0 600.333602-264.701654 600.333602-591.246697 0-325.531066-267.14689-589.62614485-597.309228-591.22858653" fill="#fff" fill-rule="evenodd"/></mask><mask id="f" fill="#fff"><path d="m597.309231 2.80653647c-330.171532 1.60244168-597.309231 265.69752053-597.309231 591.22858653 0 326.545043 268.773986 591.246697 600.342798 591.246697 331.550426 0 600.333602-264.701654 600.333602-591.246697 0-325.531066-267.14689-589.62614485-597.309228-591.22858653" fill="#fff" fill-rule="evenodd"/></mask><mask id="g" fill="#fff"><path d="m597.309231 2.80653647c-330.171532 1.60244168-597.309231 265.69752053-597.309231 591.22858653 0 326.545043 268.773986 591.246697 600.342798 591.246697 331.550426 0 600.333602-264.701654 600.333602-591.246697 0-325.531066-267.14689-589.62614485-597.309228-591.22858653" fill="#fff" fill-rule="evenodd"/></mask><mask id="h" fill="#fff"><path d="m597.309231 2.80653647c-330.171532 1.60244168-597.309231 265.69752053-597.309231 591.22858653 0 326.545043 268.773986 591.246697 600.342798 591.246697 331.550426 0 600.333602-264.701654 600.333602-591.246697 0-325.531066-267.14689-589.62614485-597.309228-591.22858653" fill="#fff" fill-rule="evenodd"/></mask><mask id="i" fill="#fff"><path d="m597.309231 2.80653647c-330.171532 1.60244168-597.309231 265.69752053-597.309231 591.22858653 0 326.545043 268.773986 591.246697 600.342798 591.246697 331.550426 0 600.333602-264.701654 600.333602-591.246697 0-325.531066-267.14689-589.62614485-597.309228-591.22858653" fill="#fff" fill-rule="evenodd"/></mask><mask id="j" fill="#fff"><path d="m597.309231 2.80653647c-330.171532 1.60244168-597.309231 265.69752053-597.309231 591.22858653 0 326.545043 268.773986 591.246697 600.342798 591.246697 331.550426 0 600.333602-264.701654 600.333602-591.246697 0-325.531066-267.14689-589.62614485-597.309228-591.22858653" fill="#fff" fill-rule="evenodd"/></mask><mask id="k" fill="#fff"><path d="m597.309231 2.80653647c-330.171532 1.60244168-597.309231 265.69752053-597.309231 591.22858653 0 326.545043 268.773986 591.246697 600.342798 591.246697 331.550426 0 600.333602-264.701654 600.333602-591.246697 0-325.531066-267.14689-589.62614485-597.309228-591.22858653" fill="#fff" fill-rule="evenodd"/></mask><mask id="l" fill="#fff"><path d="m597.309231 2.80653647c-330.171532 1.60244168-597.309231 265.69752053-597.309231 591.22858653 0 326.545043 268.773986 591.246697 600.342798 591.246697 331.550426 0 600.333602-264.701654 600.333602-591.246697 0-325.531066-267.14689-589.62614485-597.309228-591.22858653" fill="#fff" fill-rule="evenodd"/></mask><mask id="m" fill="#fff"><path d="m597.309231 2.80653647c-330.171532 1.60244168-597.309231 265.69752053-597.309231 591.22858653 0 326.545043 268.773986 591.246697 600.342798 591.246697 331.550426 0 600.333602-264.701654 600.333602-591.246697 0-325.531066-267.14689-589.62614485-597.309228-591.22858653" fill="#fff" fill-rule="evenodd"/></mask><mask id="n" fill="#fff"><path d="m597.309231 2.80653647c-330.171532 1.60244168-597.309231 265.69752053-597.309231 591.22858653 0 326.545043 268.773986 591.246697 600.342798 591.246697 331.550426 0 600.333602-264.701654 600.333602-591.246697 0-325.531066-267.14689-589.62614485-597.309228-591.22858653" fill="#fff" fill-rule="evenodd"/></mask><mask id="o" fill="#fff"><path d="m597.309231 2.80653647c-330.171532 1.60244168-597.309231 265.69752053-597.309231 591.22858653 0 326.545043 268.773986 591.246697 600.342798 591.246697 331.550426 0 600.333602-264.701654 600.333602-591.246697 0-325.531066-267.14689-589.62614485-597.309228-591.22858653" fill="#fff" fill-rule="evenodd"/></mask><mask id="p" fill="#fff"><path d="m597.309231 2.80653647c-330.171532 1.60244168-597.309231 265.69752053-597.309231 591.22858653 0 326.545043 268.773986 591.246697 600.342798 591.246697 331.550426 0 600.333602-264.701654 600.333602-591.246697 0-325.531066-267.14689-589.62614485-597.309228-591.22858653z" fill="#fff" fill-rule="evenodd"/></mask><mask id="q" fill="#fff"><path d="m597.309231 2.80653647c-330.171532 1.60244168-597.309231 265.69752053-597.309231 591.22858653 0 326.545043 268.773986 591.246697 600.342798 591.246697 331.550426 0 600.333602-264.701654 600.333602-591.246697 0-325.531066-267.14689-589.62614485-597.309228-591.22858653" fill="#fff" fill-rule="evenodd"/></mask><mask id="r" fill="#fff"><path d="m597.309231 2.80653647c-330.171532 1.60244168-597.309231 265.69752053-597.309231 591.22858653 0 326.545043 268.773986 591.246697 600.342798 591.246697 331.550426 0 600.333602-264.701654 600.333602-591.246697 0-325.531066-267.14689-589.62614485-597.309228-591.22858653z" fill="#fff" fill-rule="evenodd"/></mask><mask id="s" fill="#fff"><path d="m597.309231 2.80653647c-330.171532 1.60244168-597.309231 265.69752053-597.309231 591.22858653 0 326.545043 268.773986 591.246697 600.342798 591.246697 331.550426 0 600.333602-264.701654 600.333602-591.246697 0-325.531066-267.14689-589.62614485-597.309228-591.22858653" fill="#fff" fill-rule="evenodd"/></mask><mask id="t" fill="#fff"><path d="m597.309231 2.80653647c-330.171532 1.60244168-597.309231 265.69752053-597.309231 591.22858653 0 326.545043 268.773986 591.246697 600.342798 591.246697 331.550426 0 600.333602-264.701654 600.333602-591.246697 0-325.531066-267.14689-589.62614485-597.309228-591.22858653" fill="#fff" fill-rule="evenodd"/></mask><mask id="u" fill="#fff"><path d="m597.309231 2.80653647c-330.171532 1.60244168-597.309231 265.69752053-597.309231 591.22858653 0 326.545043 268.773986 591.246697 600.342798 591.246697 331.550426 0 600.333602-264.701654 600.333602-591.246697 0-325.531066-267.14689-589.62614485-597.309228-591.22858653z" fill="#fff" fill-rule="evenodd"/></mask><mask id="v" fill="#fff"><path d="m597.309231 2.80653647c-330.171532 1.60244168-597.309231 265.69752053-597.309231 591.22858653 0 326.545043 268.773986 591.246697 600.342798 591.246697 331.550426 0 600.333602-264.701654 600.333602-591.246697 0-325.531066-267.14689-589.62614485-597.309228-591.22858653" fill="#fff" fill-rule="evenodd"/></mask><mask id="w" fill="#fff"><path d="m597.309231 2.80653647c-330.171532 1.60244168-597.309231 265.69752053-597.309231 591.22858653 0 326.545043 268.773986 591.246697 600.342798 591.246697 331.550426 0 600.333602-264.701654 600.333602-591.246697 0-325.531066-267.14689-589.62614485-597.309228-591.22858653" fill="#fff" fill-rule="evenodd"/></mask><mask id="x" fill="#fff"><path d="m597.309231 2.80653647c-330.171532 1.60244168-597.309231 265.69752053-597.309231 591.22858653 0 326.545043 268.773986 591.246697 600.342798 591.246697 331.550426 0 600.333602-264.701654 600.333602-591.246697 0-325.531066-267.14689-589.62614485-597.309228-591.22858653" fill="#fff" fill-rule="evenodd"/></mask><mask id="y" fill="#fff"><path d="m597.309231 2.80653647c-330.171532 1.60244168-597.309231 265.69752053-597.309231 591.22858653 0 326.545043 268.773986 591.246697 600.342798 591.246697 331.550426 0 600.333602-264.701654 600.333602-591.246697 0-325.531066-267.14689-589.62614485-597.309228-591.22858653" fill="#fff" fill-rule="evenodd"/></mask><mask id="z" fill="#fff"><path d="m597.309231 2.80653647c-330.171532 1.60244168-597.309231 265.69752053-597.309231 591.22858653 0 326.545043 268.773986 591.246697 600.342798 591.246697 331.550426 0 600.333602-264.701654 600.333602-591.246697 0-325.531066-267.14689-589.62614485-597.309228-591.22858653" fill="#fff" fill-rule="evenodd"/></mask><mask id="A" fill="#fff"><path d="m597.309231 2.80653647c-330.171532 1.60244168-597.309231 265.69752053-597.309231 591.22858653 0 326.545043 268.773986 591.246697 600.342798 591.246697 331.550426 0 600.333602-264.701654 600.333602-591.246697 0-325.531066-267.14689-589.62614485-597.309228-591.22858653z" fill="#fff" fill-rule="evenodd"/></mask><mask id="B" fill="#fff"><path d="m597.309231 2.80653647c-330.171532 1.60244168-597.309231 265.69752053-597.309231 591.22858653 0 326.545043 268.773986 591.246697 600.342798 591.246697 331.550426 0 600.333602-264.701654 600.333602-591.246697 0-325.531066-267.14689-589.62614485-597.309228-591.22858653" fill="#fff" fill-rule="evenodd"/></mask><mask id="C" fill="#fff"><path d="m597.309231 2.80653647c-330.171532 1.60244168-597.309231 265.69752053-597.309231 591.22858653 0 326.545043 268.773986 591.246697 600.342798 591.246697 331.550426 0 600.333602-264.701654 600.333602-591.246697 0-325.531066-267.14689-589.62614485-597.309228-591.22858653" fill="#fff" fill-rule="evenodd"/></mask><mask id="D" fill="#fff"><path d="m597.309231 2.80653647c-330.171532 1.60244168-597.309231 265.69752053-597.309231 591.22858653 0 326.545043 268.773986 591.246697 600.342798 591.246697 331.550426 0 600.333602-264.701654 600.333602-591.246697 0-325.531066-267.14689-589.62614485-597.309228-591.22858653" fill="#fff" fill-rule="evenodd"/></mask><mask id="E" fill="#fff"><path d="m597.309231 2.80653647c-330.171532 1.60244168-597.309231 265.69752053-597.309231 591.22858653 0 326.545043 268.773986 591.246697 600.342798 591.246697 331.550426 0 600.333602-264.701654 600.333602-591.246697 0-325.531066-267.14689-589.62614485-597.309228-591.22858653z" fill="#fff" fill-rule="evenodd"/></mask><mask id="F" fill="#fff"><path d="m597.309231 2.80653647c-330.171532 1.60244168-597.309231 265.69752053-597.309231 591.22858653 0 326.545043 268.773986 591.246697 600.342798 591.246697 331.550426 0 600.333602-264.701654 600.333602-591.246697 0-325.531066-267.14689-589.62614485-597.309228-591.22858653" fill="#fff" fill-rule="evenodd"/></mask><mask id="G" fill="#fff"><path d="m597.309231 2.80653647c-330.171532 1.60244168-597.309231 265.69752053-597.309231 591.22858653 0 326.545043 268.773986 591.246697 600.342798 591.246697 331.550426 0 600.333602-264.701654 600.333602-591.246697 0-325.531066-267.14689-589.62614485-597.309228-591.22858653" fill="#fff" fill-rule="evenodd"/></mask><mask id="H" fill="#fff"><path d="m597.309231 2.80653647c-330.171532 1.60244168-597.309231 265.69752053-597.309231 591.22858653 0 326.545043 268.773986 591.246697 600.342798 591.246697 331.550426 0 600.333602-264.701654 600.333602-591.246697 0-325.531066-267.14689-589.62614485-597.309228-591.22858653" fill="#fff" fill-rule="evenodd"/></mask><mask id="I" fill="#fff"><path d="m597.309231 2.80653647c-330.171532 1.60244168-597.309231 265.69752053-597.309231 591.22858653 0 326.545043 268.773986 591.246697 600.342798 591.246697 331.550426 0 600.333602-264.701654 600.333602-591.246697 0-325.531066-267.14689-589.62614485-597.309228-591.22858653z" fill="#fff" fill-rule="evenodd"/></mask><mask id="J" fill="#fff"><path d="m597.309231 2.80653647c-330.171532 1.60244168-597.309231 265.69752053-597.309231 591.22858653 0 326.545043 268.773986 591.246697 600.342798 591.246697 331.550426 0 600.333602-264.701654 600.333602-591.246697 0-325.531066-267.14689-589.62614485-597.309228-591.22858653z" fill="#fff" fill-rule="evenodd"/></mask><mask id="K" fill="#fff"><path d="m597.309231 2.80653647c-330.171532 1.60244168-597.309231 265.69752053-597.309231 591.22858653 0 326.545043 268.773986 591.246697 600.342798 591.246697 331.550426 0 600.333602-264.701654 600.333602-591.246697 0-325.531066-267.14689-589.62614485-597.309228-591.22858653" fill="#fff" fill-rule="evenodd"/></mask><mask id="L" fill="#fff"><path d="m597.309231 2.80653647c-330.171532 1.60244168-597.309231 265.69752053-597.309231 591.22858653 0 326.545043 268.773986 591.246697 600.342798 591.246697 331.550426 0 600.333602-264.701654 600.333602-591.246697 0-325.531066-267.14689-589.62614485-597.309228-591.22858653" fill="#fff" fill-rule="evenodd"/></mask><mask id="M" fill="#fff"><path d="m597.309231 2.80653647c-330.171532 1.60244168-597.309231 265.69752053-597.309231 591.22858653 0 326.545043 268.773986 591.246697 600.342798 591.246697 331.550426 0 600.333602-264.701654 600.333602-591.246697 0-325.531066-267.14689-589.62614485-597.309228-591.22858653z" fill="#fff" fill-rule="evenodd"/></mask><mask id="N" fill="#fff"><path d="m597.309231 2.80653647c-330.171532 1.60244168-597.309231 265.69752053-597.309231 591.22858653 0 326.545043 268.773986 591.246697 600.342798 591.246697 331.550426 0 600.333602-264.701654 600.333602-591.246697 0-325.531066-267.14689-589.62614485-597.309228-591.22858653" fill="#fff" fill-rule="evenodd"/></mask><mask id="O" fill="#fff"><path d="m597.309231 2.80653647c-330.171532 1.60244168-597.309231 265.69752053-597.309231 591.22858653 0 326.545043 268.773986 591.246697 600.342798 591.246697 331.550426 0 600.333602-264.701654 600.333602-591.246697 0-325.531066-267.14689-589.62614485-597.309228-591.22858653z" fill="#fff" fill-rule="evenodd"/></mask><mask id="P" fill="#fff"><path d="m597.309231 2.80653647c-330.171532 1.60244168-597.309231 265.69752053-597.309231 591.22858653 0 326.545043 268.773986 591.246697 600.342798 591.246697 331.550426 0 600.333602-264.701654 600.333602-591.246697 0-325.531066-267.14689-589.62614485-597.309228-591.22858653z" fill="#fff" fill-rule="evenodd"/></mask><mask id="Q" fill="#fff"><path d="m597.309231 2.80653647c-330.171532 1.60244168-597.309231 265.69752053-597.309231 591.22858653 0 326.545043 268.773986 591.246697 600.342798 591.246697 331.550426 0 600.333602-264.701654 600.333602-591.246697 0-325.531066-267.14689-589.62614485-597.309228-591.22858653" fill="#fff" fill-rule="evenodd"/></mask><mask id="R" fill="#fff"><path d="m597.309231 2.80653647c-330.171532 1.60244168-597.309231 265.69752053-597.309231 591.22858653 0 326.545043 268.773986 591.246697 600.342798 591.246697 331.550426 0 600.333602-264.701654 600.333602-591.246697 0-325.531066-267.14689-589.62614485-597.309228-591.22858653" fill="#fff" fill-rule="evenodd"/></mask><mask id="S" fill="#fff"><path d="m597.309231 2.80653647c-330.171532 1.60244168-597.309231 265.69752053-597.309231 591.22858653 0 326.545043 268.773986 591.246697 600.342798 591.246697 331.550426 0 600.333602-264.701654 600.333602-591.246697 0-325.531066-267.14689-589.62614485-597.309228-591.22858653" fill="#fff" fill-rule="evenodd"/></mask><mask id="T" fill="#fff"><path d="m597.309231 2.80653647c-330.171532 1.60244168-597.309231 265.69752053-597.309231 591.22858653 0 326.545043 268.773986 591.246697 600.342798 591.246697 331.550426 0 600.333602-264.701654 600.333602-591.246697 0-325.531066-267.14689-589.62614485-597.309228-591.22858653z" fill="#fff" fill-rule="evenodd"/></mask><mask id="U" fill="#fff"><path d="m597.309231 2.80653647c-330.171532 1.60244168-597.309231 265.69752053-597.309231 591.22858653 0 326.545043 268.773986 591.246697 600.342798 591.246697 331.550426 0 600.333602-264.701654 600.333602-591.246697 0-325.531066-267.14689-589.62614485-597.309228-591.22858653" fill="#fff" fill-rule="evenodd"/></mask><mask id="V" fill="#fff"><path d="m597.309231 2.80653647c-330.171532 1.60244168-597.309231 265.69752053-597.309231 591.22858653 0 326.545043 268.773986 591.246697 600.342798 591.246697 331.550426 0 600.333602-264.701654 600.333602-591.246697 0-325.531066-267.14689-589.62614485-597.309228-591.22858653" fill="#fff" fill-rule="evenodd"/></mask><mask id="W" fill="#fff"><path d="m597.309231 2.80653647c-330.171532 1.60244168-597.309231 265.69752053-597.309231 591.22858653 0 326.545043 268.773986 591.246697 600.342798 591.246697 331.550426 0 600.333602-264.701654 600.333602-591.246697 0-325.531066-267.14689-589.62614485-597.309228-591.22858653" fill="#fff" fill-rule="evenodd"/></mask><mask id="X" fill="#fff"><path d="m597.309231 2.80653647c-330.171532 1.60244168-597.309231 265.69752053-597.309231 591.22858653 0 326.545043 268.773986 591.246697 600.342798 591.246697 331.550426 0 600.333602-264.701654 600.333602-591.246697 0-325.531066-267.14689-589.62614485-597.309228-591.22858653" fill="#fff" fill-rule="evenodd"/></mask><mask id="Y" fill="#fff"><path d="m597.309231 2.80653647c-330.171532 1.60244168-597.309231 265.69752053-597.309231 591.22858653 0 326.545043 268.773986 591.246697 600.342798 591.246697 331.550426 0 600.333602-264.701654 600.333602-591.246697 0-325.531066-267.14689-589.62614485-597.309228-591.22858653" fill="#fff" fill-rule="evenodd"/></mask><mask id="Z" fill="#fff"><path d="m597.309231 2.80653647c-330.171532 1.60244168-597.309231 265.69752053-597.309231 591.22858653 0 326.545043 268.773986 591.246697 600.342798 591.246697 331.550426 0 600.333602-264.701654 600.333602-591.246697 0-325.531066-267.14689-589.62614485-597.309228-591.22858653" fill="#fff" fill-rule="evenodd"/></mask><mask id="aa" fill="#fff"><path d="m597.309231 2.80653647c-330.171532 1.60244168-597.309231 265.69752053-597.309231 591.22858653 0 326.545043 268.773986 591.246697 600.342798 591.246697 331.550426 0 600.333602-264.701654 600.333602-591.246697 0-325.531066-267.14689-589.62614485-597.309228-591.22858653" fill="#fff" fill-rule="evenodd"/></mask><mask id="ab" fill="#fff"><path d="m597.309231 2.80653647c-330.171532 1.60244168-597.309231 265.69752053-597.309231 591.22858653 0 326.545043 268.773986 591.246697 600.342798 591.246697 331.550426 0 600.333602-264.701654 600.333602-591.246697 0-325.531066-267.14689-589.62614485-597.309228-591.22858653z" fill="#fff" fill-rule="evenodd"/></mask><mask id="ac" fill="#fff"><path d="m597.309231 2.80653647c-330.171532 1.60244168-597.309231 265.69752053-597.309231 591.22858653 0 326.545043 268.773986 591.246697 600.342798 591.246697 331.550426 0 600.333602-264.701654 600.333602-591.246697 0-325.531066-267.14689-589.62614485-597.309228-591.22858653z" fill="#fff" fill-rule="evenodd"/></mask><mask id="ad" fill="#fff"><path d="m597.309231 2.80653647c-330.171532 1.60244168-597.309231 265.69752053-597.309231 591.22858653 0 326.545043 268.773986 591.246697 600.342798 591.246697 331.550426 0 600.333602-264.701654 600.333602-591.246697 0-325.531066-267.14689-589.62614485-597.309228-591.22858653z" fill="#fff" fill-rule="evenodd"/></mask><mask id="ae" fill="#fff"><path d="m597.309231 2.80653647c-330.171532 1.60244168-597.309231 265.69752053-597.309231 591.22858653 0 326.545043 268.773986 591.246697 600.342798 591.246697 331.550426 0 600.333602-264.701654 600.333602-591.246697 0-325.531066-267.14689-589.62614485-597.309228-591.22858653z" fill="#fff" fill-rule="evenodd"/></mask><mask id="af" fill="#fff"><path d="m597.309231 2.80653647c-330.171532 1.60244168-597.309231 265.69752053-597.309231 591.22858653 0 326.545043 268.773986 591.246697 600.342798 591.246697 331.550426 0 600.333602-264.701654 600.333602-591.246697 0-325.531066-267.14689-589.62614485-597.309228-591.22858653z" fill="#fff" fill-rule="evenodd"/></mask><mask id="ag" fill="#fff"><path d="m597.309231 2.80653647c-330.171532 1.60244168-597.309231 265.69752053-597.309231 591.22858653 0 326.545043 268.773986 591.246697 600.342798 591.246697 331.550426 0 600.333602-264.701654 600.333602-591.246697 0-325.531066-267.14689-589.62614485-597.309228-591.22858653" fill="#fff" fill-rule="evenodd"/></mask><mask id="ah" fill="#fff"><path d="m597.309231 2.80653647c-330.171532 1.60244168-597.309231 265.69752053-597.309231 591.22858653 0 326.545043 268.773986 591.246697 600.342798 591.246697 331.550426 0 600.333602-264.701654 600.333602-591.246697 0-325.531066-267.14689-589.62614485-597.309228-591.22858653z" fill="#fff" fill-rule="evenodd"/></mask><mask id="ai" fill="#fff"><path d="m597.309231 2.80653647c-330.171532 1.60244168-597.309231 265.69752053-597.309231 591.22858653 0 326.545043 268.773986 591.246697 600.342798 591.246697 331.550426 0 600.333602-264.701654 600.333602-591.246697 0-325.531066-267.14689-589.62614485-597.309228-591.22858653z" fill="#fff" fill-rule="evenodd"/></mask><mask id="aj" fill="#fff"><path d="m597.309231 2.80653647c-330.171532 1.60244168-597.309231 265.69752053-597.309231 591.22858653 0 326.545043 268.773986 591.246697 600.342798 591.246697 331.550426 0 600.333602-264.701654 600.333602-591.246697 0-325.531066-267.14689-589.62614485-597.309228-591.22858653" fill="#fff" fill-rule="evenodd"/></mask><mask id="ak" fill="#fff"><path d="m597.309231 2.80653647c-330.171532 1.60244168-597.309231 265.69752053-597.309231 591.22858653 0 326.545043 268.773986 591.246697 600.342798 591.246697 331.550426 0 600.333602-264.701654 600.333602-591.246697 0-325.531066-267.14689-589.62614485-597.309228-591.22858653" fill="#fff" fill-rule="evenodd"/></mask><mask id="al" fill="#fff"><path d="m597.309231 2.80653647c-330.171532 1.60244168-597.309231 265.69752053-597.309231 591.22858653 0 326.545043 268.773986 591.246697 600.342798 591.246697 331.550426 0 600.333602-264.701654 600.333602-591.246697 0-325.531066-267.14689-589.62614485-597.309228-591.22858653z" fill="#fff" fill-rule="evenodd"/></mask><mask id="am" fill="#fff"><path d="m597.309231 2.80653647c-330.171532 1.60244168-597.309231 265.69752053-597.309231 591.22858653 0 326.545043 268.773986 591.246697 600.342798 591.246697 331.550426 0 600.333602-264.701654 600.333602-591.246697 0-325.531066-267.14689-589.62614485-597.309228-591.22858653z" fill="#fff" fill-rule="evenodd"/></mask><mask id="an" fill="#fff"><path d="m597.309231 2.80653647c-330.171532 1.60244168-597.309231 265.69752053-597.309231 591.22858653 0 326.545043 268.773986 591.246697 600.342798 591.246697 331.550426 0 600.333602-264.701654 600.333602-591.246697 0-325.531066-267.14689-589.62614485-597.309228-591.22858653z" fill="#fff" fill-rule="evenodd"/></mask><mask id="ao" fill="#fff"><path d="m597.309231 2.80653647c-330.171532 1.60244168-597.309231 265.69752053-597.309231 591.22858653 0 326.545043 268.773986 591.246697 600.342798 591.246697 331.550426 0 600.333602-264.701654 600.333602-591.246697 0-325.531066-267.14689-589.62614485-597.309228-591.22858653z" fill="#fff" fill-rule="evenodd"/></mask><mask id="ap" fill="#fff"><path d="m597.309231 2.80653647c-330.171532 1.60244168-597.309231 265.69752053-597.309231 591.22858653 0 326.545043 268.773986 591.246697 600.342798 591.246697 331.550426 0 600.333602-264.701654 600.333602-591.246697 0-325.531066-267.14689-589.62614485-597.309228-591.22858653z" fill="#fff" fill-rule="evenodd"/></mask><mask id="aq" fill="#fff"><path d="m597.309231 2.80653647c-330.171532 1.60244168-597.309231 265.69752053-597.309231 591.22858653 0 326.545043 268.773986 591.246697 600.342798 591.246697 331.550426 0 600.333602-264.701654 600.333602-591.246697 0-325.531066-267.14689-589.62614485-597.309228-591.22858653" fill="#fff" fill-rule="evenodd"/></mask><mask id="ar" fill="#fff"><path d="m597.309231 2.80653647c-330.171532 1.60244168-597.309231 265.69752053-597.309231 591.22858653 0 326.545043 268.773986 591.246697 600.342798 591.246697 331.550426 0 600.333602-264.701654 600.333602-591.246697 0-325.531066-267.14689-589.62614485-597.309228-591.22858653z" fill="#fff" fill-rule="evenodd"/></mask><mask id="as" fill="#fff"><path d="m597.309231 2.80653647c-330.171532 1.60244168-597.309231 265.69752053-597.309231 591.22858653 0 326.545043 268.773986 591.246697 600.342798 591.246697 331.550426 0 600.333602-264.701654 600.333602-591.246697 0-325.531066-267.14689-589.62614485-597.309228-591.22858653z" fill="#fff" fill-rule="evenodd"/></mask><mask id="at" fill="#fff"><path d="m597.309231 2.80653647c-330.171532 1.60244168-597.309231 265.69752053-597.309231 591.22858653 0 326.545043 268.773986 591.246697 600.342798 591.246697 331.550426 0 600.333602-264.701654 600.333602-591.246697 0-325.531066-267.14689-589.62614485-597.309228-591.22858653z" fill="#fff" fill-rule="evenodd"/></mask><mask id="au" fill="#fff"><path d="m597.309231 2.80653647c-330.171532 1.60244168-597.309231 265.69752053-597.309231 591.22858653 0 326.545043 268.773986 591.246697 600.342798 591.246697 331.550426 0 600.333602-264.701654 600.333602-591.246697 0-325.531066-267.14689-589.62614485-597.309228-591.22858653z" fill="#fff" fill-rule="evenodd"/></mask><mask id="av" fill="#fff"><path d="m597.309231 2.80653647c-330.171532 1.60244168-597.309231 265.69752053-597.309231 591.22858653 0 326.545043 268.773986 591.246697 600.342798 591.246697 331.550426 0 600.333602-264.701654 600.333602-591.246697 0-325.531066-267.14689-589.62614485-597.309228-591.22858653z" fill="#fff" fill-rule="evenodd"/></mask><mask id="aw" fill="#fff"><path d="m597.309231 2.80653647c-330.171532 1.60244168-597.309231 265.69752053-597.309231 591.22858653 0 326.545043 268.773986 591.246697 600.342798 591.246697 331.550426 0 600.333602-264.701654 600.333602-591.246697 0-325.531066-267.14689-589.62614485-597.309228-591.22858653z" fill="#fff" fill-rule="evenodd"/></mask><mask id="ax" fill="#fff"><path d="m597.309231 2.80653647c-330.171532 1.60244168-597.309231 265.69752053-597.309231 591.22858653 0 326.545043 268.773986 591.246697 600.342798 591.246697 331.550426 0 600.333602-264.701654 600.333602-591.246697 0-325.531066-267.14689-589.62614485-597.309228-591.22858653z" fill="#fff" fill-rule="evenodd"/></mask><mask id="ay" fill="#fff"><path d="m597.309231 2.80653647c-330.171532 1.60244168-597.309231 265.69752053-597.309231 591.22858653 0 326.545043 268.773986 591.246697 600.342798 591.246697 331.550426 0 600.333602-264.701654 600.333602-591.246697 0-325.531066-267.14689-589.62614485-597.309228-591.22858653z" fill="#fff" fill-rule="evenodd"/></mask><mask id="az" fill="#fff"><path d="m597.309231 2.80653647c-330.171532 1.60244168-597.309231 265.69752053-597.309231 591.22858653 0 326.545043 268.773986 591.246697 600.342798 591.246697 331.550426 0 600.333602-264.701654 600.333602-591.246697 0-325.531066-267.14689-589.62614485-597.309228-591.22858653z" fill="#fff" fill-rule="evenodd"/></mask><mask id="aA" fill="#fff"><path d="m597.309231 2.80653647c-330.171532 1.60244168-597.309231 265.69752053-597.309231 591.22858653 0 326.545043 268.773986 591.246697 600.342798 591.246697 331.550426 0 600.333602-264.701654 600.333602-591.246697 0-325.531066-267.14689-589.62614485-597.309228-591.22858653z" fill="#fff" fill-rule="evenodd"/></mask><mask id="aB" fill="#fff"><path d="m597.309231 2.80653647c-330.171532 1.60244168-597.309231 265.69752053-597.309231 591.22858653 0 326.545043 268.773986 591.246697 600.342798 591.246697 331.550426 0 600.333602-264.701654 600.333602-591.246697 0-325.531066-267.14689-589.62614485-597.309228-591.22858653z" fill="#fff" fill-rule="evenodd"/></mask><mask id="aC" fill="#fff"><path d="m597.309231 2.80653647c-330.171532 1.60244168-597.309231 265.69752053-597.309231 591.22858653 0 326.545043 268.773986 591.246697 600.342798 591.246697 331.550426 0 600.333602-264.701654 600.333602-591.246697 0-325.531066-267.14689-589.62614485-597.309228-591.22858653z" fill="#fff" fill-rule="evenodd"/></mask><mask id="aD" fill="#fff"><path d="m597.309231 2.80653647c-330.171532 1.60244168-597.309231 265.69752053-597.309231 591.22858653 0 326.545043 268.773986 591.246697 600.342798 591.246697 331.550426 0 600.333602-264.701654 600.333602-591.246697 0-325.531066-267.14689-589.62614485-597.309228-591.22858653z" fill="#fff" fill-rule="evenodd"/></mask><mask id="aE" fill="#fff"><path d="m597.309231 2.80653647c-330.171532 1.60244168-597.309231 265.69752053-597.309231 591.22858653 0 326.545043 268.773986 591.246697 600.342798 591.246697 331.550426 0 600.333602-264.701654 600.333602-591.246697 0-325.531066-267.14689-589.62614485-597.309228-591.22858653" fill="#fff" fill-rule="evenodd"/></mask><mask id="aF" fill="#fff"><path d="m597.309231 2.80653647c-330.171532 1.60244168-597.309231 265.69752053-597.309231 591.22858653 0 326.545043 268.773986 591.246697 600.342798 591.246697 331.550426 0 600.333602-264.701654 600.333602-591.246697 0-325.531066-267.14689-589.62614485-597.309228-591.22858653z" fill="#fff" fill-rule="evenodd"/></mask><mask id="aG" fill="#fff"><path d="m597.309231 2.80653647c-330.171532 1.60244168-597.309231 265.69752053-597.309231 591.22858653 0 326.545043 268.773986 591.246697 600.342798 591.246697 331.550426 0 600.333602-264.701654 600.333602-591.246697 0-325.531066-267.14689-589.62614485-597.309228-591.22858653z" fill="#fff" fill-rule="evenodd"/></mask><mask id="aH" fill="#fff"><path d="m597.309231 2.80653647c-330.171532 1.60244168-597.309231 265.69752053-597.309231 591.22858653 0 326.545043 268.773986 591.246697 600.342798 591.246697 331.550426 0 600.333602-264.701654 600.333602-591.246697 0-325.531066-267.14689-589.62614485-597.309228-591.22858653z" fill="#fff" fill-rule="evenodd"/></mask><mask id="aI" fill="#fff"><path d="m597.309231 2.80653647c-330.171532 1.60244168-597.309231 265.69752053-597.309231 591.22858653 0 326.545043 268.773986 591.246697 600.342798 591.246697 331.550426 0 600.333602-264.701654 600.333602-591.246697 0-325.531066-267.14689-589.62614485-597.309228-591.22858653" fill="#fff" fill-rule="evenodd"/></mask><mask id="aJ" fill="#fff"><path d="m597.309231 2.80653647c-330.171532 1.60244168-597.309231 265.69752053-597.309231 591.22858653 0 326.545043 268.773986 591.246697 600.342798 591.246697 331.550426 0 600.333602-264.701654 600.333602-591.246697 0-325.531066-267.14689-589.62614485-597.309228-591.22858653z" fill="#fff" fill-rule="evenodd"/></mask><mask id="aK" fill="#fff"><path d="m597.309231 2.80653647c-330.171532 1.60244168-597.309231 265.69752053-597.309231 591.22858653 0 326.545043 268.773986 591.246697 600.342798 591.246697 331.550426 0 600.333602-264.701654 600.333602-591.246697 0-325.531066-267.14689-589.62614485-597.309228-591.22858653z" fill="#fff" fill-rule="evenodd"/></mask><mask id="aL" fill="#fff"><path d="m597.309231 2.80653647c-330.171532 1.60244168-597.309231 265.69752053-597.309231 591.22858653 0 326.545043 268.773986 591.246697 600.342798 591.246697 331.550426 0 600.333602-264.701654 600.333602-591.246697 0-325.531066-267.14689-589.62614485-597.309228-591.22858653z" fill="#fff" fill-rule="evenodd"/></mask><mask id="aM" fill="#fff"><path d="m597.309231 2.80653647c-330.171532 1.60244168-597.309231 265.69752053-597.309231 591.22858653 0 326.545043 268.773986 591.246697 600.342798 591.246697 331.550426 0 600.333602-264.701654 600.333602-591.246697 0-325.531066-267.14689-589.62614485-597.309228-591.22858653z" fill="#fff" fill-rule="evenodd"/></mask><mask id="aN" fill="#fff"><path d="m597.309231 2.80653647c-330.171532 1.60244168-597.309231 265.69752053-597.309231 591.22858653 0 326.545043 268.773986 591.246697 600.342798 591.246697 331.550426 0 600.333602-264.701654 600.333602-591.246697 0-325.531066-267.14689-589.62614485-597.309228-591.22858653z" fill="#fff" fill-rule="evenodd"/></mask><mask id="aO" fill="#fff"><path d="m597.309231 2.80653647c-330.171532 1.60244168-597.309231 265.69752053-597.309231 591.22858653 0 326.545043 268.773986 591.246697 600.342798 591.246697 331.550426 0 600.333602-264.701654 600.333602-591.246697 0-325.531066-267.14689-589.62614485-597.309228-591.22858653z" fill="#fff" fill-rule="evenodd"/></mask><mask id="aP" fill="#fff"><path d="m289.016147 8.79984972h-.091925-41.081845v62.39564238c0 23.7016529-25.803699 35.0002259-59.641754 46.1177309-33.874825 11.108452-38.158589 31.731969-38.158589 31.731969l-143.98409375 242.185988c17.61307045 2.571149 35.45595675 4.381819 53.52865865 5.413899l111.1388431-157.301841 22.871252 119.38644h115.78112c26.318487-9.922465 51.754481-21.619386 76.142517-34.945906 5.478805-69.421038-3.134685-96.31852-3.134685-96.31852l42.175765 73.033321c16.546727-10.728212 32.52351-22.253118 47.866002-34.493238l-50.587019-115.502555s-4.835321-20.82269-38.710145-31.931142c-33.847249-11.126559-53.041451-23.674493-53.041451-47.3761459v-62.39564238z" fill="#fff" fill-rule="evenodd"/></mask><mask id="aQ" fill="#fff"><path d="m597.309231 2.80653647c-330.171532 1.60244168-597.309231 265.69752053-597.309231 591.22858653 0 326.545043 268.773986 591.246697 600.342798 591.246697 331.550426 0 600.333602-264.701654 600.333602-591.246697 0-325.531066-267.14689-589.62614485-597.309228-591.22858653" fill="#fff" fill-rule="evenodd"/></mask><mask id="aR" fill="#fff"><path d="m597.309231 2.80653647c-330.171532 1.60244168-597.309231 265.69752053-597.309231 591.22858653 0 326.545043 268.773986 591.246697 600.342798 591.246697 331.550426 0 600.333602-264.701654 600.333602-591.246697 0-325.531066-267.14689-589.62614485-597.309228-591.22858653" fill="#fff" fill-rule="evenodd"/></mask><mask id="aS" fill="#fff"><path d="m597.309231 2.80653647c-330.171532 1.60244168-597.309231 265.69752053-597.309231 591.22858653 0 326.545043 268.773986 591.246697 600.342798 591.246697 331.550426 0 600.333602-264.701654 600.333602-591.246697 0-325.531066-267.14689-589.62614485-597.309228-591.22858653" fill="#fff" fill-rule="evenodd"/></mask><mask id="aT" fill="#fff"><path d="m597.309231 2.80653647c-330.171532 1.60244168-597.309231 265.69752053-597.309231 591.22858653 0 326.545043 268.773986 591.246697 600.342798 591.246697 331.550426 0 600.333602-264.701654 600.333602-591.246697 0-325.531066-267.14689-589.62614485-597.309228-591.22858653" fill="#fff" fill-rule="evenodd"/></mask><mask id="aU" fill="#fff"><path d="m597.309231 2.80653647c-330.171532 1.60244168-597.309231 265.69752053-597.309231 591.22858653 0 326.545043 268.773986 591.246697 600.342798 591.246697 331.550426 0 600.333602-264.701654 600.333602-591.246697 0-325.531066-267.14689-589.62614485-597.309228-591.22858653" fill="#fff" fill-rule="evenodd"/></mask><mask id="aV" fill="#fff"><path d="m597.309231 2.80653647c-330.171532 1.60244168-597.309231 265.69752053-597.309231 591.22858653 0 326.545043 268.773986 591.246697 600.342798 591.246697 331.550426 0 600.333602-264.701654 600.333602-591.246697 0-325.531066-267.14689-589.62614485-597.309228-591.22858653" fill="#fff" fill-rule="evenodd"/></mask><mask id="aW" fill="#fff"><path d="m597.309231 2.80653647c-330.171532 1.60244168-597.309231 265.69752053-597.309231 591.22858653 0 326.545043 268.773986 591.246697 600.342798 591.246697 331.550426 0 600.333602-264.701654 600.333602-591.246697 0-325.531066-267.14689-589.62614485-597.309228-591.22858653" fill="#fff" fill-rule="evenodd"/></mask><mask id="aX" fill="#fff"><path d="m597.309231 2.80653647c-330.171532 1.60244168-597.309231 265.69752053-597.309231 591.22858653 0 326.545043 268.773986 591.246697 600.342798 591.246697 331.550426 0 600.333602-264.701654 600.333602-591.246697 0-325.531066-267.14689-589.62614485-597.309228-591.22858653" fill="#fff" fill-rule="evenodd"/></mask><mask id="aY" fill="#fff"><path d="m597.309231 2.80653647c-330.171532 1.60244168-597.309231 265.69752053-597.309231 591.22858653 0 326.545043 268.773986 591.246697 600.342798 591.246697 331.550426 0 600.333602-264.701654 600.333602-591.246697 0-325.531066-267.14689-589.62614485-597.309228-591.22858653z" fill="#fff" fill-rule="evenodd"/></mask><mask id="aZ" fill="#fff"><path d="m597.309231 2.80653647c-330.171532 1.60244168-597.309231 265.69752053-597.309231 591.22858653 0 326.545043 268.773986 591.246697 600.342798 591.246697 331.550426 0 600.333602-264.701654 600.333602-591.246697 0-325.531066-267.14689-589.62614485-597.309228-591.22858653" fill="#fff" fill-rule="evenodd"/></mask><mask id="a0" fill="#fff"><path d="m597.309231 2.80653647c-330.171532 1.60244168-597.309231 265.69752053-597.309231 591.22858653 0 326.545043 268.773986 591.246697 600.342798 591.246697 331.550426 0 600.333602-264.701654 600.333602-591.246697 0-325.531066-267.14689-589.62614485-597.309228-591.22858653z" fill="#fff" fill-rule="evenodd"/></mask><mask id="a1" fill="#fff"><path d="m597.309231 2.80653647c-330.171532 1.60244168-597.309231 265.69752053-597.309231 591.22858653 0 326.545043 268.773986 591.246697 600.342798 591.246697 331.550426 0 600.333602-264.701654 600.333602-591.246697 0-325.531066-267.14689-589.62614485-597.309228-591.22858653" fill="#fff" fill-rule="evenodd"/></mask><mask id="a2" fill="#fff"><path d="m597.309231 2.80653647c-330.171532 1.60244168-597.309231 265.69752053-597.309231 591.22858653 0 326.545043 268.773986 591.246697 600.342798 591.246697 331.550426 0 600.333602-264.701654 600.333602-591.246697 0-325.531066-267.14689-589.62614485-597.309228-591.22858653z" fill="#fff" fill-rule="evenodd"/></mask><mask id="a3" fill="#fff"><path d="m597.309231 2.80653647c-330.171532 1.60244168-597.309231 265.69752053-597.309231 591.22858653 0 326.545043 268.773986 591.246697 600.342798 591.246697 331.550426 0 600.333602-264.701654 600.333602-591.246697 0-325.531066-267.14689-589.62614485-597.309228-591.22858653z" fill="#fff" fill-rule="evenodd"/></mask><mask id="a4" fill="#fff"><path d="m597.309231 2.80653647c-330.171532 1.60244168-597.309231 265.69752053-597.309231 591.22858653 0 326.545043 268.773986 591.246697 600.342798 591.246697 331.550426 0 600.333602-264.701654 600.333602-591.246697 0-325.531066-267.14689-589.62614485-597.309228-591.22858653z" fill="#fff" fill-rule="evenodd"/></mask><mask id="a5" fill="#fff"><path d="m597.309231 2.80653647c-330.171532 1.60244168-597.309231 265.69752053-597.309231 591.22858653 0 326.545043 268.773986 591.246697 600.342798 591.246697 331.550426 0 600.333602-264.701654 600.333602-591.246697 0-325.531066-267.14689-589.62614485-597.309228-591.22858653" fill="#fff" fill-rule="evenodd"/></mask><mask id="a6" fill="#fff"><path d="m597.309231 2.80653647c-330.171532 1.60244168-597.309231 265.69752053-597.309231 591.22858653 0 326.545043 268.773986 591.246697 600.342798 591.246697 331.550426 0 600.333602-264.701654 600.333602-591.246697 0-325.531066-267.14689-589.62614485-597.309228-591.22858653z" fill="#fff" fill-rule="evenodd"/></mask><mask id="a7" fill="#fff"><path d="m597.309231 2.80653647c-330.171532 1.60244168-597.309231 265.69752053-597.309231 591.22858653 0 326.545043 268.773986 591.246697 600.342798 591.246697 331.550426 0 600.333602-264.701654 600.333602-591.246697 0-325.531066-267.14689-589.62614485-597.309228-591.22858653" fill="#fff" fill-rule="evenodd"/></mask><mask id="a8" fill="#fff"><path d="m597.309231 2.80653647c-330.171532 1.60244168-597.309231 265.69752053-597.309231 591.22858653 0 326.545043 268.773986 591.246697 600.342798 591.246697 331.550426 0 600.333602-264.701654 600.333602-591.246697 0-325.531066-267.14689-589.62614485-597.309228-591.22858653" fill="#fff" fill-rule="evenodd"/></mask><g fill="none" fill-rule="evenodd"><g fill-rule="nonzero" transform="translate(0 6.255867)"><path d="m1200.92368 594.040557c0 326.535986-268.783176 591.246693-600.342795 591.246693-331.559617 0-600.33360343-264.710707-600.33360343-591.246693 0-326.526937 268.77398643-591.2466953 600.33360343-591.2466953 331.559619 0 600.342795 264.7197583 600.342795 591.2466953" fill="#d94721" mask="url(#b)"/><path d="m77.933241 303.007253 1001.683639 647.413637c76.12413-99.097897 121.30588-222.531179 121.30588-356.384861 0-326.526935-268.783175-591.23764052-600.342792-591.23764052-224.116211 0-419.523854 120.97077352-522.646727 300.20886452" fill="#f05a24"/></g><path d="m371.80953 932.927121s-8.788151-45.212396-2.785365-49.440308c6.011976-4.22791 81.317964-15.21867 113.9334-2.534935l3.860904 51.975243-100.41105 44.795943z" fill="#8a6111" fill-rule="nonzero" mask="url(#c)"/><path d="m425.967892 807.141787h-.091926-46.018284v69.900864c0 26.562509-34.06787 39.21003-71.978258 51.658377-37.947158 12.448347-42.745709 35.552479-42.745709 35.552479s132.474927 40.088203 322.523267 1.638655c190.048341-38.449549-5.414456-23.330466-43.370806-35.778813-37.910389-12.4574-72.290807-26.508189-72.290807-53.070698v-69.900864z" mask="url(#d)"/><g fill-rule="nonzero"><path d="m221.765657 1151.09458h5.442034l57.738881-82.4669s2.454432 39.36394 5.350108 82.4669l260.785596 31.69576c3.704627-47.45763 9.854493-123.77731 9.854493-123.77731l82.816363 154.13317 54.742086-13.90594c-37.377216-90.70544-106.864272-257.567616-113.170413-265.851425-10.295741-13.516642-83.055372-30.174793-83.055372-30.174793l-24.139836 31.387942-47.314443 109.346276-51.331621-102.221296-31.696173-36.602667s-66.269637 14.747896-73.136528 18.124794c-4.41246 2.163749-77.355945 133.790309-129.082848 227.845489" fill="#8a6111" mask="url(#e)" transform="translate(0 6.255867)"/><path d="m591.085823 617.327565c0 129.51713-46.643381 217.515627-166.570374 217.515627-119.917801 0-164.27222-89.265965-164.27222-218.792147 0-129.535238 111.598474-142.952292 166.303789-142.952292 54.696123 0 164.538805 14.684522 164.538805 144.228812" fill="#e9cbac" mask="url(#f)" transform="translate(0 6.255867)"/><path d="m386.954381 700.275203c0 17.78982-14.818513 32.220849-33.075068 32.220849-18.274939 0-33.056682-14.431029-33.056682-32.220849 0-17.798873 14.781743-32.22085 33.056682-32.22085 18.256555 0 33.075068 14.421977 33.075068 32.22085" fill="#8c7163" mask="url(#g)" transform="translate(0 6.255867)"/><path d="m378.443848 700.267054c0 12.412134-10.231394 22.497558-22.82529 22.497558-12.612283 0-22.834481-10.085424-22.834481-22.497558 0-12.394025 10.222198-22.47945 22.834481-22.47945 12.593896 0 22.82529 10.085425 22.82529 22.47945" fill="#2a1d01" mask="url(#h)" transform="translate(0 6.255867)"/><path d="m346.000315 688.614496c0 3.585125-2.969218 6.518407-6.600306 6.518407-3.649472 0-6.609497-2.933282-6.609497-6.518407 0-3.585123 2.960025-6.491247 6.609497-6.491247 3.631088 0 6.600306 2.906124 6.600306 6.491247" fill="#fff" mask="url(#i)" transform="translate(0 6.255867)"/><path d="m467.866032 700.275203c0 17.78982 14.818512 32.220849 33.08426 32.220849 18.265746 0 33.047488-14.431029 33.047488-32.220849 0-17.798873-14.781742-32.22085-33.047488-32.22085-18.265748 0-33.08426 14.421977-33.08426 32.22085" fill="#8c7163" mask="url(#j)" transform="translate(0 6.255867)"/><path d="m476.375646 700.267054c0 12.412134 10.231392 22.497558 22.825288 22.497558 12.612282 0 22.834483-10.085424 22.834483-22.497558 0-12.394025-10.222201-22.47945-22.834483-22.47945-12.593896 0-22.825288 10.085425-22.825288 22.47945" fill="#2a1d01" mask="url(#k)" transform="translate(0 6.255867)"/><path d="m477.669048 688.614496c0 3.585125 2.960025 6.518407 6.600304 6.518407 3.640281 0 6.609498-2.933282 6.609498-6.518407 0-3.585123-2.969217-6.491247-6.609498-6.491247-3.640279 0-6.600304 2.906124-6.600304 6.491247" fill="#fff" mask="url(#l)" transform="translate(0 6.255867)"/><path d="m482.740619 778.970484c-2.114304-3.213937-14.928823-26.390495-29.388823-33.805183-13.117876-6.726635-28.11105 2.109428-28.11105 2.109428h-.211429s-14.993174-8.836063-28.11105-2.109428c-14.46 7.414688-27.274519 30.591246-29.388823 33.805183-3.695437 5.594967-8.153859 7.396583-8.153859 7.396583s4.191837.86912 10.516363.217279c8.144666-.851014 44.18895-9.831931 55.238487-9.831931 11.058728 0 47.093821 8.980917 55.247679 9.831931 6.324526.651841 10.516364-.217279 10.516364-.217279s-4.467616-1.801616-8.153859-7.396583" fill="#fff" mask="url(#m)" transform="translate(0 6.255867)"/><path d="m478.396184 770.651367c-1.535168-2.73411-3.189841-5.413899-4.927247-8.048421-3.539161-5.214727-7.464411-10.257439-12.364082-14.584937-1.222619-1.077348-2.509587-2.091323-3.879288-3.06003-.698639-.461721-1.388086-.923441-2.132689-1.330842l-.560749-.316866-.128698-.072427-.211429-.10864-.257394-.126748c-.376898-.172012-.661869-.344026-1.103116-.525093-1.728213-.760481-3.355308-1.213149-5.101907-1.530014-1.71902-.298762-3.484005-.407402-5.203025-.353082-3.465621.10864-6.820929.914389-9.964807 2.027949-1.58113.570362-3.1163 1.231255-4.605504 1.964576-1.01119.506987-1.958031 1.023028-2.923256 1.602442-.946841-.579414-1.902873-1.104509-2.895676-1.611496-1.489206-.742373-3.015183-1.403268-4.596313-1.973628-3.153072-1.122614-6.489995-1.919309-9.955614-2.018895-3.447234-.099588-7.013973.488879-10.213007 1.919308-1.663866.751427-2.969218 1.539068-4.430846 2.51683-1.360508.950601-2.638283 1.991735-3.870095 3.06003-4.8629 4.318444-8.778957 9.361156-12.308925 14.557775-1.728215 2.634524-3.373694 5.305261-4.899671 8.039369-1.544359 2.716003-2.932447 5.513487-4.338919 8.292863 3.732207-5.033659 7.298946-10.112585 11.288545-14.847482 1.958029-2.381031 3.998791-4.698686 6.140673-6.880543 2.13269-2.199961 4.357306-4.28223 6.71981-6.129112 1.185848-.923441 2.408467-1.774456 3.667857-2.534937 1.167463-.724267 2.583129-1.502855 3.805748-1.982681 2.583127-1.032083 5.396072-1.40327 8.218207-1.213148 2.831328.181065 5.681042.841961 8.420444 1.864987 1.369701.516042 2.711825 1.113563 4.02637 1.78351 1.286968.669947 2.629092 1.448534 3.695437 2.190909l1.516782 1.059241 1.498399-1.050189c1.084729-.742373 2.445237-1.52096 3.741399-2.181855 1.314545-.660893 2.66586-1.267468 4.044754-1.783508 2.748596-1.023028 5.607501-1.692976 8.457215-1.883095 1.415666-.099588 2.831329-.063374 4.219415.126746 1.351317.172013 2.803751.552255 3.980408 1.013974.294165.099588.698639.29876 1.038766.452668l.266586.108639c.018385.009054.174661.08148.064349.02716l.128696.063374.478018.262548c.652676.316866 1.268581.715213 1.902873 1.068294 1.25939.778587 2.4912 1.620548 3.67705 2.543989 2.380889 1.83783 4.605505 3.938205 6.747386 6.129114 2.160269 2.190909 4.191838 4.517618 6.15906 6.898647 3.998792 4.753006 7.574724 9.850037 11.316123 14.89275-1.415666-2.78843-2.803751-5.585913-4.348113-8.320023" fill="#e6e7e8" mask="url(#n)" transform="translate(0 6.255867)"/><path d="m218.516064 1150.93615-39.675372-60.16852c-3.998792 7.22457-7.970007 14.42198-11.895258 21.5379l25.491151 38.65778" fill="#877a45" mask="url(#o)" transform="translate(0 6.255867)"/><path d="m237.807708 1135.96735 15.02075-21.44737-47.351215-71.78396c-4.384882 7.88546-8.843306 15.91578-13.329307 24.00947z" fill="#877a45" mask="url(#p)" transform="translate(0 6.255867)"/><path d="m163.054196 1151.09458-9.385671-14.69357c-2.748595 4.98839-5.451227 9.8953-8.08951 14.69357" fill="#877a45" mask="url(#q)" transform="translate(0 6.255867)"/><path d="m679.96932 1154.40177-163.555195-247.699474c-8.43883-2.181857-14.138257-3.485538-14.138257-3.485538l-7.115092 10.809692 180.956834 275.50229 17.898041-1.14977z" fill="#877a45" mask="url(#r)" transform="translate(0 6.255867)"/><path d="m480.577594 936.157349-9.201818 13.969307-4.256186 9.850039 90.722022 137.538395c1.820139-22.73295 3.097916-38.50387 3.097916-38.50387" fill="#877a45" mask="url(#s)" transform="translate(0 6.255867)"/><path d="m446.670596 1150.2997-153.167528-232.462699c-9.367286 2.362923-16.785733 4.399926-18.844882 5.413901-.321742.153906-1.01119 1.013975-2.040764 2.498723l148.653948 225.392035 13.329308 18.89433 11.564322-18.90338" fill="#877a45" mask="url(#t)" transform="translate(0 6.255867)"/><path d="m231.550288 996.153855c-4.072335 7.233625-8.319327 14.802215-12.704209 22.633355l48.996694 74.28268 14.230184-20.32475z" fill="#877a45" mask="url(#u)" transform="translate(0 6.255867)"/><path d="m553.615762 1151.09458c.367705-4.7349.73541-9.45169 1.103115-14.09605l-99.142466-150.303609-11.545939 26.707359 107.544528 163.05977" fill="#877a45" mask="url(#v)" transform="translate(0 6.255867)"/><path d="m505.578778 1150.9443-73.090565-110.82198-1.663866 3.82957-13.568315-26.92465-73.246841-111.05736c-5.101907 1.140721-14.763356 3.340684-25.344068 5.803193l175.652689 266.457997" fill="#877a45" mask="url(#w)" transform="translate(0 6.255867)"/><path d="m552.529193 917.228617 77.833961 118.001273c-22.485161-53.459987-41.293274-96.943195-45.034673-101.841055-4.035561-5.305259-17.695803-11.081291-32.799288-16.160218" fill="#877a45" mask="url(#x)" transform="translate(0 6.255867)"/><path d="m392.080188 1151.09458-133.46773-202.360327c-3.962021 6.808113-8.53995 14.766002-13.586701 23.620173l117.941386 178.812584" fill="#877a45" mask="url(#y)" transform="translate(0 6.255867)"/><path d="m333.665649 1150.9624-48.114202-72.96089c.615905 9.91341 1.691444 26.7979 2.987603 46.4346l17.475181 26.49913" fill="#877a45" mask="url(#z)" transform="translate(0 6.255867)"/><path d="m343.828097 906.009715s43.444348 97.576935 87.311558 168.374075c39.804068-67.8367 78.854341-169.68681 78.854341-169.68681l-25.748543-10.565252-44.198145 57.479676-33.902403-13.525694-53.206916-35.923666z" fill="#65682f" mask="url(#A)" transform="translate(0 6.255867)"/><path d="m304.606841 1151.44857 96.936236-158.080429 2.06834-3.367845-11.536744-22.868744-3.796555 6.17438-99.078118 161.565968c.34932 5.2962.717025 10.72821 1.08473 16.22359" fill="#65682f" mask="url(#B)" transform="translate(0 6.255867)"/><path d="m362.006513 1151.03302 67.381947-109.88948-12.888063-25.56664-82.972637 135.30221" fill="#65682f" mask="url(#C)" transform="translate(0 6.255867)"/><path d="m193.765839 1151.09458 150.354583-245.617202c-6.44403 1.448535-19.883649 4.490459-33.286497 7.677234l-145.960509 237.469198" fill="#65682f" mask="url(#D)" transform="translate(0 6.255867)"/><path d="m512.446589 905.70009c-6.205022-1.566228-10.18543-2.480617-10.18543-2.480617l-30.905606 46.905374-33.056682 76.500753z" fill="#65682f" mask="url(#E)" transform="translate(0 6.255867)"/><path d="m462.981989 1170.65162 132.520891-216.456391c-5.166256-11.470587-8.769766-18.939595-10.185429-20.804582-.827337-1.077349-2.077533-2.172803-3.621895-3.277312l-149.076808 243.127535" fill="#65682f" mask="url(#F)" transform="translate(0 6.255867)"/><path d="m227.178276 1151.12174 57.757264-82.49406s.588329 9.44264 1.525977 24.12716l87.072549-141.829678-14.643853-22.823479-136.813846 223.056277" fill="#65682f" mask="url(#G)" transform="translate(0 6.255867)"/><path d="m514.95066 1173.71979 42.286077-68.83257c2.114304-26.63493 3.686243-45.87329 3.686243-45.87329l11.408049 21.2482 45.604615-74.36416c-3.713821-8.745532-7.234596-16.975021-10.507172-24.552669l-115.293908 188.191849" fill="#65682f" mask="url(#H)" transform="translate(0 6.255867)"/><path d="m276.561979 922.497664c-.845721.289706-1.498399.543199-1.930451.751427-2.049957 1.004921-18.936809 30.02994-41.605825 70.253945z" fill="#65682f" mask="url(#I)" transform="translate(0 6.255867)"/><path d="m585.682397 1105.09455 13.338501 24.83332 42.175766-68.77825c-3.943637-9.42453-7.822925-18.69516-11.601093-27.66702z" fill="#65682f" mask="url(#J)" transform="translate(0 6.255867)"/><path d="m612.326304 1154.64893 40.429166-65.74538c3.860904 9.28873 7.712614 18.58651 11.527553 27.80281l-38.949154 63.28287" fill="#65682f" mask="url(#K)" transform="translate(0 6.255867)"/><path d="m476.303943 923.61213-.211431-3.585123" fill="#9e7525" mask="url(#L)" transform="translate(0 6.255867)"/><path d="m362.733651 905.602313s28.929192 26.245643 66.655726 26.779791c20.205392.280653 65.083789-28.472765 65.083789-28.472765l-63.861168 131.373061z" fill="#fff" mask="url(#M)" transform="translate(0 6.255867)"/><path d="m497.759531 744.109681c-29.627832 0-50.329626-17.988994-50.329626-43.745756 0-26.444815 21.170617-45.637903 50.329626-45.637903 29.168201 0 50.329625 19.193088 50.329625 45.637903 0 25.756762-20.6926 43.745756-50.329625 43.745756m-146.751075 0c-27.872041 0-45.181755-16.766792-45.181755-43.745756 0-27.730391 17.732576-45.637903 45.181755-45.637903 26.667807 0 55.468302 17.454847 55.468302 45.637903 0 27.377312-28.202974 43.745756-55.468302 43.745756m247.879149-65.138805c-2.41766-3.684711-6.140675-6.056688-11.077115-7.079715-11.334506-2.308603-32.312079 8.102741-37.78169 10.972652-7.473605-19.745342-27.449181-33.216716-52.269269-33.216716-25.858857 0-46.514685 14.603042-53.17934 35.733546-15.71939-8.754584-29.545098-3.123404-35.483535.24444-7.997583-22.542826-33.838053-35.977986-58.0882-35.977986-23.845671 0-41.440356 12.810481-47.746497 33.198609-5.552345-2.89707-26.428798-13.263148-37.74492-10.954545-4.93644 1.023027-8.668645 3.395004-11.077114 7.079715-4.531964 6.9077-2.583127 15.870511-2.491202 16.241698l5.028366-1.086402c-.018384-.08148-1.562746-7.324155 1.801755-12.43024 1.663866-2.516831 4.210222-4.101165 7.795347-4.843539 9.017965-1.810668 28.441982 7.278888 35.382415 11.063185-.808951 3.938205-1.268581 8.075583-1.268581 12.448347 0 30.11142 19.276936 48.815627 50.320431 48.815627 29.793301 0 60.625365-18.260593 60.625365-48.815627 0-3.367843-.386089-6.608941-1.075537-9.687077 4.063142-2.607362 17.355678-9.478849 32.716555-.172014-.634292 3.177724-.98361 6.464088-.98361 9.859091 0 28.744366 22.806903 48.815627 55.468302 48.815627 32.670591 0 55.477496-20.071261 55.477496-48.815627 0-4.372764-.606714-8.564462-1.654673-12.575093 7.115091-3.847671 26.22656-12.738055 35.180177-10.936439 3.566739.742374 6.122288 2.326708 7.776961 4.843539 3.373694 5.106085 1.829333 12.34876 1.820141 12.421187l5.019174 1.095455c.082733-.371187 2.040762-9.333998-2.491202-16.241698" fill="#6d3926" mask="url(#N)" transform="translate(0 6.255867)"/><path d="m267.970551 683.247674s-15.452803-8.455822-22.310503.851015c-6.866891 9.297784 4.292956 38.884111 14.588696 38.884111 10.295743 0 13.724591-10.99076 13.724591-10.99076z" fill="#e9cbac" mask="url(#O)" transform="translate(0 6.255867)"/><path d="m584.254784 683.247674s15.452803-8.455822 22.319694.851015c6.86689 9.297784-4.292956 38.884111-14.588696 38.884111-10.304934 0-13.733784-10.99076-13.733784-10.99076z" fill="#e9cbac" mask="url(#P)" transform="translate(0 6.255867)"/><path d="m340.066474 487.1595s13.72459 44.795944 8.585912 60.014614c-5.157062 15.21867-51.497087 27.042336-60.937914 54.935687-9.450019 27.893351-24.884438 66.768407-24.884438 66.768407s-12.382467-47.376145-3.438041-91.284861c10.43363-51.214764 44.630197-99.532457 80.674481-90.433847" fill="#e6e7e8" mask="url(#Q)" transform="translate(0 6.255867)"/><path d="m511.333361 487.1595s-13.72459 44.795944-8.585912 60.014614c5.157063 15.21867 51.497089 27.042336 60.937916 54.935687 9.440826 27.893351 24.884436 66.768407 24.884436 66.768407s12.382467-47.376145 3.438043-91.284861c-10.433631-51.214764-44.630198-99.532457-80.674483-90.433847" fill="#e6e7e8" mask="url(#R)" transform="translate(0 6.255867)"/><path d="m481.672437 536.607956s7.721805 21.972465-50.642176 32.963224c-58.345594 10.981706-121.866637-4.227912-150.189116 49.865814 0 0 6.866893-45.646957 53.206918-74.373215 46.349218-28.744366 109.861068-20.297595 109.861068-20.297595s-33.470351-16.902593-89.251203 1.702028c0 0 72.943485-38.884111 127.014509 10.139744" fill="#fff" mask="url(#S)" transform="translate(0 6.255867)"/><path d="m497.516846 541.514868s-.073542.389295-.340127 1.222202c-.257393.823855-.652678 1.91931-1.323739 3.268258-.615905 1.376108-1.553554 2.924228-2.656669 4.689632-1.231812 1.656761-2.546358 3.594177-4.329726 5.404844-1.627095 1.955524-3.77817 3.693765-5.910859 5.649287-2.371697 1.665816-4.679046 3.702817-7.464411 5.214725-1.342124.805749-2.711825 1.629602-4.109104 2.471563-1.461628.706161-2.932447 1.421376-4.421653 2.145643-2.923254 1.557176-6.113096 2.616416-9.229395 3.856725-3.088723 1.321788-6.379684 2.037001-9.52356 3.041922-3.134687 1.032082-6.342912 1.602442-9.404057 2.290497-3.061143.679001-6.011977 1.348948-8.870884 1.692975-2.840521.425506-5.524768.823853-8.01597 1.185987-2.463622.434561-4.770971.479827-6.802542.697109-2.03157.181066-3.796554.344025-5.248989.461719-2.914063.253494-4.577928.398348-4.577928.398348s1.654672-.181068 4.568735-.497934c1.452434-.172013 3.208227-.371187 5.230604-.588467 2.022378-.271601 4.320534-.371187 6.784158-.860069 2.463624-.425507 5.129485-.878174 7.960814-1.376108 2.831329-.407399 5.763776-1.14072 8.797341-1.892147 3.024374-.760481 6.195831-1.394216 9.284553-2.498725 3.07953-1.077347 6.333719-1.855934 9.3489-3.241096 3.051952-1.285574 6.186637-2.408189 9.017966-4.019684 1.443242-.742375 2.877292-1.475694 4.292955-2.209015 1.342124-.851015 2.656669-1.692976 3.971215-2.516831 2.675054-1.548122 4.8629-3.576069 7.124284-5.241885 2.013187-1.955523 4.053949-3.657551 5.561539-5.576861 1.673059-1.774453 2.8681-3.639443 3.998792-5.241885 1.001997-1.683922 1.847718-3.159616 2.380891-4.427084.579134-1.258416.928455-2.308603 1.112308-2.960444.202238-.642787.284971-1.068295.284971-1.068295.119503-.688053.790566-1.149774 1.489204-1.023028.698641.126748 1.167464.787641 1.038768 1.475696v.009054z" fill="#fff" mask="url(#T)" transform="translate(0 6.255867)"/><path d="m513.855818 489.272551s-12.235385 48.17284 2.573935 60.856573c14.80932 12.674681 39.905188 12.05 54.705315 37.408415 0 0 1.296161-9.515064-.643483-23.457211 0 0 15.452803 20.279489 20.600673 48.806573 0 0-1.047959-95.367919-59.853185-121.713148-5.736198-2.562097-13.522352-2.842751-17.383255-1.901202" fill="#fff" mask="url(#U)" transform="translate(0 6.255867)"/><path d="m339.177547 489.272551s12.235385 48.17284-2.573935 60.856573c-14.80932 12.674681-39.905188 12.05-54.705315 37.408415 0 0-1.296159-9.515064.643485-23.457211 0 0-15.452803 20.279489-20.600675 48.806573 0 0 1.047959-95.367919 59.853185-121.713148 5.736198-2.562097 13.522352-2.842751 17.383255-1.901202" fill="#fff" mask="url(#V)" transform="translate(0 6.255867)"/><path d="m340.488415 491.385601s2.573936 35.923666-24.884436 46.063411c-27.458373 10.148798-37.754113 16.06063-43.775283 36.765627 0 0 11.159846-20.704997 27.044705-26.200375 15.86647-5.495379 32.183381-5.911833 36.467145-17.319046 0 0-3.00599 14.793163-31.328469 27.467844 0 0 29.186587-6.762847 33.04749-13.951203 3.860902-7.179301 9.863687-23.665439 3.428848-52.826258" fill="#e6e7e8" mask="url(#W)" transform="translate(0 6.255867)"/><path d="m516.692662 491.385601s-2.573934 35.923666 24.884438 46.063411c27.458372 10.148798 37.754113 16.06063 43.775283 36.765627 0 0-11.159848-20.704997-27.044705-26.200375-15.866472-5.495379-32.183381-5.911833-36.467145-17.319046 0 0 3.005988 14.793163 31.328467 27.467844 0 0-29.186585-6.762847-33.047488-13.951203-3.860904-7.179301-9.863687-23.665439-3.42885-52.826258" fill="#e6e7e8" mask="url(#X)" transform="translate(0 6.255867)"/><path d="m402.018336 1150.56406-11.591901.63373 146.38337-239.10785 14.800127 5.078925 5.157063 6.28302-139.102811 227.474305" fill="#65682f" mask="url(#Y)" transform="translate(0 6.255867)"/><path d="m480.891063 536.952889c-.459632-.488881-1.231813-.516041-1.719022-.063373l-.119503.117693c-2.408468 2.199962-5.53396 4.092111-8.57672 5.766979-3.088721 1.674869-6.352104 3.069084-9.652256 4.363712-3.309346 1.267468-6.68304 2.371977-10.102696 3.33163-1.700635.543201-3.447235.896282-5.175449 1.348948-1.71902.443615-3.465619.823855-5.212218 1.158828-3.493197.751427-7.023167 1.294628-10.553135 1.819722-3.520774.525095-7.096706.832909-10.64506 1.240308-3.566737.226334-7.133476.561307-10.709408.742375-3.594317.19012-7.161056.344028-10.746179.416454-7.170249.208227-14.340496.181067-21.529129.054319-7.179442-.108639-14.358882-.389293-21.5659-.325919-7.197826.08148-14.487578.452667-21.492359 2.299549-7.023165 1.774455-13.522353 5.169459-19.203394 9.506009 5.837317-4.128324 12.400852-7.28794 19.350476-8.890382 6.968011-1.647708 14.175029-1.846882 21.336084-1.738242 7.170249.117694 14.340495.46172 21.538322.697107 7.197826.226334 14.395651.35308 21.593478.2716 7.216211-.045266 14.414035-.362133 21.621055-.878173 3.585124-.389295 7.188633-.679001 10.773757-1.204096 3.575932-.51604 7.151862-1.050187 10.691023-1.792562 1.78337-.325919 3.548354-.706161 5.304145-1.149774 1.755792-.443614 3.539161-.796693 5.267374-1.339895 3.493198-.959654 6.940433-2.064163 10.341705-3.349737 3.382885-1.30368 6.738195-2.725056 9.94642-4.445192 2.105111-1.149775 4.145875-2.335761 6.113097-3.729977-.248203.552255-.514787 1.104508-.827337 1.611496-.965225 1.566228-2.160266 3.041922-3.511583 4.381818-2.730209 2.661682-5.984399 4.861645-9.413248 6.726633-6.903662 3.702817-14.487578 6.210594-22.172614 8.193277-7.703421 1.928361-15.563115 3.313524-23.477964 4.36371-3.95283.525095-7.924045.941549-11.904451 1.330842-3.980406.316868-7.942429.697108-11.94122.923441l-12.005569.778587c-4.007986.244442-8.01597.525095-12.014762.914389-3.989599.35308-7.997585.706161-11.977991 1.2222l-5.984399.697108-5.956821.887228c-3.980408.525094-7.914852 1.367055-11.858489 2.082269-3.92525.869121-7.8505 1.711082-11.711404 2.815589-3.879288 1.050188-7.685036 2.335763-11.408048 3.838619-3.640279 1.584334-7.418449 3.304469-10.157852 6.210593 2.840521-2.806536 6.637075-4.390872 10.323319-5.839406 3.732205-1.403268 7.547145-2.57115 11.426433-3.530805 3.870096-.995867 7.795347-1.738242 11.720599-2.507775 3.952828-.615629 7.887272-1.330842 11.858487-1.792563l5.947627-.778587 5.966015-.615628c3.980406-.452667 7.960814-.742374 11.959606-1.023028 3.980406-.334974 7.979199-.561307 11.977991-.733319l12.005569-.606575c3.998793-.153906 8.025161-.470774 12.033147-.787641 3.998792-.362134 8.006776-.769533 11.996375-1.285575 7.988392-1.013974 15.940013-2.371976 23.772131-4.300338 7.813732-1.973629 15.581499-4.481404 22.788519-8.301915 3.585123-1.928363 7.032358-4.218858 10.010769-7.106875 1.489206-1.439482 2.822136-3.069083 3.925251-4.879753 1.047958-1.874042 1.93045-3.729977 2.059148-6.2287.018385-.316867-.091927-.642787-.321742-.887227" fill="#e6e7e8" mask="url(#Z)" transform="translate(0 6.255867)"/><path d="m419.101911 550.98376c3.3645-.253494 6.747388-.35308 10.12108-.742373l5.03756-.516042 5.028365-.751427c1.68225-.244439 3.355309-.516041 5.009982-.851015 1.663864-.344027 3.336923-.615627 4.982403-.995866l4.964017-1.149775 4.908863-1.330842c3.254189-1.004921 6.471608-2.109429 9.615486-3.395003 1.590324-.642788 3.143879-1.339895 4.688238-2.064164 1.544362-.787641 3.033567-1.511908 4.559544-2.498722l.045962-.02716c.147083-.099586.257394-.208226.349321-.362134.294162-.525093.119502-1.176934-.413669-1.475694l-2.371698-1.339896c-.781372-.452666-1.627095-.760481-2.445238-1.149775-.808952-.389293-1.654673-.706161-2.509587-.97776-.845721-.2716-1.673057-.606574-2.546358-.823855-1.719019-.497934-3.438041-.932493-5.175447-1.285574-1.737406-.38024-3.484005-.679002-5.239796-.941547-3.493198-.561308-7.013975-.851015-10.534749-.995869-3.520777-.153906-7.050745-.21728-10.562328 0 3.511583.172014 7.004782.470773 10.488786.869121 1.737407.199174 3.46562.452667 5.193833.733321 1.728215.253494 3.447236.534147 5.157065.869121 1.700635.344027 3.410463.715215 5.08352 1.158828 1.682251.416454 3.336923.923441 4.973211 1.475694.827337.244442 1.608711.606575 2.408467.905335.799759.307814 1.599517.606575 2.362506.995869.762988.371187 1.57194.669947 2.288963 1.104506l.542365.316868c-.882492.470773-1.783369.923441-2.675054 1.358002-1.50759.679001-3.024374 1.339894-4.577926 1.937415-3.07953 1.213149-6.260179 2.227123-9.45002 3.19583l-4.798551 1.385162-4.853707 1.195041c-1.627093.398347-3.281765.706161-4.918053 1.05924-1.617902.362136-3.272575.651842-4.927247.914389-3.290961.597521-6.600306 1.059241-9.928036 1.548122-3.309345.534147-6.655462.778587-10.001578 1.185988l-10.038347.860067c-3.364501.181068-6.729002.35308-10.093503.597522 3.364501.126745 6.738195.190119 10.121081.253493 3.373694-.05432 6.756581-.063374 10.130274-.244441" fill="#e6e7e8" mask="url(#aa)" transform="translate(0 6.255867)"/><path d="m417.30659 1061.06542-15.020749-22.6062-13.945213 23.44816 14.800127 22.09921z" fill="#9e7525" mask="url(#ab)" transform="translate(0 6.255867)"/><path d="m359.457399 973.661728-14.855283-22.370812-13.954406 22.68768 14.726587 22.50661z" fill="#9e7525" mask="url(#ac)" transform="translate(0 6.255867)"/><path d="m317.88375 994.553222-13.945213 22.696728 15.048327 22.90496 13.834902-22.92306z" fill="#9e7525" mask="url(#ad)" transform="translate(0 6.255867)"/><path d="m304.849526 1062.99288-14.855283-22.37081-13.945213 22.68767 6.195829 9.27063 2.785366-4.01969.38609 9.0624 5.3593 8.19328z" fill="#9e7525" mask="url(#ae)" transform="translate(0 6.255867)"/><path d="m390.590064 1105.1208-14.744971-22.91401-14.165837 22.82348 14.754164 23.0317z" fill="#9e7525" mask="url(#af)" transform="translate(0 6.255867)"/><path d="m362.311708 1151.21861.27578-.46172-15.020751-22.6062-13.93602 22.82348" fill="#9e7525" mask="url(#ag)" transform="translate(0 6.255867)"/><path d="m347.544674 1039.58998-13.917635 22.89591 13.283346 20.13464 13.908441-22.90496z" fill="#9e7525" mask="url(#ah)" transform="translate(0 6.255867)"/><path d="m332.714213 1105.66038-13.494775-20.4334-13.908442 22.90496 13.568315 20.35192z" fill="#9e7525" mask="url(#ai)" transform="translate(0 6.255867)"/><path d="m304.561796 1151.00677.579136-.95061-13.274152-20.13463-2.757787 4.53572 1.167463 16.64005" fill="#9e7525" mask="url(#aj)" transform="translate(0 6.255867)"/><path d="m417.665104 1150.9271 1.68225-2.75222-14.064717-21.1305-13.834902 22.82347.744603 1.14073" fill="#9e7525" mask="url(#ak)" transform="translate(0 6.255867)"/><path d="m445.889222 1104.59027-14.046331-21.1305-13.844095 22.82348 13.844095 21.44737z" fill="#9e7525" mask="url(#al)" transform="translate(0 6.255867)"/><path d="m473.889039 1058.6346-14.046331-21.13051-13.844094 22.82348 13.844094 21.44737z" fill="#9e7525" mask="url(#am)" transform="translate(0 6.255867)"/><path d="m502.212438 1012.99579-14.046331-21.130505-13.844094 22.823475 13.844094 21.44737z" fill="#9e7525" mask="url(#an)" transform="translate(0 6.255867)"/><path d="m529.726885 967.190398-14.04633-21.130504-13.844095 22.82348 13.844095 21.447369z" fill="#9e7525" mask="url(#ao)" transform="translate(0 6.255867)"/><path d="m556.766995 923.452791-5.157063-6.28302-14.800127-5.078925-7.933236 13.05492 13.834902 21.44737z" fill="#9e7525" mask="url(#ap)" transform="translate(0 6.255867)"/><path d="m465.647852 1166.31054 10.019962-16.38655-14.901247-22.6062-14.092295 22.97738 14.000368 24.24486" fill="#9e7525" mask="url(#aq)" transform="translate(0 6.255867)"/><path d="m503.073787 1058.92612 14.478387 22.85969 13.926826-22.90496-14.570311-22.61525z" fill="#9e7525" mask="url(#ar)" transform="translate(0 6.255867)"/><path d="m531.397186 1012.65176 14.478385 22.85064 13.917635-22.8959-14.561118-22.62431z" fill="#9e7525" mask="url(#as)" transform="translate(0 6.255867)"/><path d="m586.023444 968.710455-14.561118-22.624306-13.844095 22.660519 14.487578 22.859692z" fill="#9e7525" mask="url(#at)" transform="translate(0 6.255867)"/><path d="m503.559157 1104.44904-14.735778-22.97738-13.991175 22.81442 14.800127 23.05887z" fill="#9e7525" mask="url(#au)" transform="translate(0 6.255867)"/><path d="m517.563204 1169.44933-13.044336-20.30665 13.954406-22.64241 13.264959 19.88114z" fill="#9e7525" mask="url(#av)" transform="translate(0 6.255867)"/><path d="m560.546082 1058.12127 13.274152 20.12559 13.917635-22.90496-13.264958-20.11653z" fill="#9e7525" mask="url(#aw)" transform="translate(0 6.255867)"/><path d="m614.615268 1011.76725-13.274152-20.134635-13.917635 22.904955 13.264959 20.12559z" fill="#9e7525" mask="url(#ax)" transform="translate(0 6.255867)"/><path d="m387.295426 1016.13458-13.27415-20.125579-13.926829 22.904959 13.274152 20.11653z" fill="#9e7525" mask="url(#ay)" transform="translate(0 6.255867)"/><path d="m329.868175 928.801506-11.426433-17.291885-7.795347 1.964576-9.569522 15.734711 14.726585 22.42513z" fill="#9e7525" mask="url(#az)" transform="translate(0 6.255867)"/><path d="m303.107522 972.433189-14.800127-22.714838-14.257762 22.914012 15.213796 22.524718z" fill="#9e7525" mask="url(#aA)" transform="translate(0 6.255867)"/><path d="m246.246538 1018.39792 14.84609 22.61525 14.07391-22.82348-14.882862-22.497556z" fill="#9e7525" mask="url(#aB)" transform="translate(0 6.255867)"/><path d="m218.892961 1062.86885 14.744971 22.73294 14.064717-22.83253-14.873667-22.4885z" fill="#9e7525" mask="url(#aC)" transform="translate(0 6.255867)"/><path d="m190.677116 1108.83448 15.02075 22.71484 13.89925-22.50661-14.864476-23.03171z" fill="#9e7525" mask="url(#aD)" transform="translate(0 6.255867)"/><path d="m192.311565 1151.03302-14.404844-21.7914-13.329307 21.90909" fill="#9e7525" mask="url(#aE)" transform="translate(0 6.255867)"/><path d="m589.057011 1099.65711 14.478384 22.85064 13.926829-22.89591-14.570312-22.6243z" fill="#9e7525" mask="url(#aF)" transform="translate(0 6.255867)"/><path d="m647.301487 1189.44817 14.487577 22.85969 13.917635-22.90496-14.561119-22.61525z" fill="#9e7525" mask="url(#aG)" transform="translate(0 6.255867)"/><path d="m633.791084 1043.52457-4.182644-9.63276-13.844095 22.65147 14.487578 22.86874 11.040344-18.35113z" fill="#9e7525" mask="url(#aH)" transform="translate(0 6.255867)"/><path d="m643.189624 1150.95335 3.658666-6.01142-14.561118-22.6243-13.9636 22.56998 14.855283 22.35271" fill="#9e7525" mask="url(#aI)" transform="translate(0 6.255867)"/><path d="m652.66998 1089.17153-7.666651 12.54793 14.478387 22.85064 4.559542-8.35624z" fill="#9e7525" mask="url(#aJ)" transform="translate(0 6.255867)"/><path d="m532.546265 1103.4414 13.27415 20.13464 11.408048-18.75853.625101-7.00728-11.380471-17.26473z" fill="#9e7525" mask="url(#aK)" transform="translate(0 6.255867)"/><path d="m618.322653 1144.88852-5.993592 9.7595-1.976413-3.54891-11.37128-21.34778 4.559544-7.24268z" fill="#877a45" mask="url(#aL)" transform="translate(0 6.255867)"/><path d="m648.100326 1189.72158-4.017178 5.90278-9.394864 3.98347-9.358093-19.6186 7.859696-12.729z" fill="#877a45" mask="url(#aM)" transform="translate(0 6.255867)"/><path d="m573.822991 1078.24414 15.232181 21.41116-3.272575 5.37768-13.62347-24.94196z" fill="#877a45" mask="url(#aN)" transform="translate(0 6.255867)"/><path d="m368.703342 877.230946c0 31.270248 60.50586 55.152969 60.50586 55.152969s53.42754-17.970886 53.42754-57.687904l19.304514 28.518031c0 19.446582-56.001474 57.05417-56.001474 57.05417l-16.73058-27.884297-16.087095 31.052967s-63.732472-31.903982-63.732472-58.946318z" fill="#efeff0" mask="url(#aO)" transform="translate(0 6.255867)"/><path d="m794.610547 802.696591h-.091925-41.081844v62.395642c0 23.701653-25.803699 35.000226-59.641755 46.117731-33.874825 11.108452-38.158588 31.731968-38.158588 31.731968l-143.984094 242.185988c17.61307 2.57115 35.455956 4.38182 53.528658 5.4139l111.138843-157.30184 22.871253 119.38644h115.78112c26.318486-9.92247 51.754481-21.61939 76.142517-34.94591 5.478805-69.42103-3.134686-96.31852-3.134686-96.31852l42.175766 73.03332c16.546726-10.72821 32.52351-22.25311 47.866002-34.49323l-50.58702-115.502559s-4.83532-20.82269-38.710145-31.931142c-33.847248-11.126559-53.041451-23.674493-53.041451-47.376146v-62.395642z" fill="url(#a)" mask="url(#aP)"/><path d="m942.102553 630.27657c0 115.611195-41.633401 209.992299-148.681526 209.992299-107.038932 0-146.631569-95.512773-146.631569-211.123967 0-115.629301 99.61129-138.923554 148.433324-138.923554s146.879771 24.42592 146.879771 140.055222" fill="#fedec8" mask="url(#aQ)"/><path d="m759.892764 704.312095c0 15.879565-13.228188 28.762472-29.526714 28.762472-16.307717 0-29.517521-12.882907-29.517521-28.762472 0-15.879563 13.209804-28.753418 29.517521-28.753418 16.298526 0 29.526714 12.873855 29.526714 28.753418" fill="#6dcff6" mask="url(#aR)"/><path d="m752.298737 704.303947c0 11.081293-9.13747 20.089369-20.380052 20.089369-11.251773 0-20.38005-9.008076-20.38005-20.089369 0-11.063186 9.128277-20.062208 20.38005-20.062208 11.242582 0 20.380052 8.999022 20.380052 20.062208" fill="#2a1d01" mask="url(#aS)"/><path d="m723.329097 693.906182c0 3.204884-2.647478 5.821301-5.892474 5.821301-3.25419 0-5.892473-2.616417-5.892473-5.821301 0-3.204883 2.638283-5.79414 5.892473-5.79414 3.244996 0 5.892474 2.589257 5.892474 5.79414" fill="#fff" mask="url(#aT)"/><path d="m729.460578 767.968869c20.196198 12.059052 41.826445 19.509954 63.741665 19.229301 22.043916 0 43.168569-8.401503 64.173719-19.229301-7.721806 8.953756-17.374062 16.386551-28.304094 21.728023-10.930033 5.441059-23.28492 8.410557-35.768507 8.600677-12.456007.02716-24.912014-2.716002-35.906395-8.066529-10.985188-5.269045-20.90403-12.692787-27.936388-22.262171" fill="#c42c76" mask="url(#aU)"/><path d="m832.114626 704.312095c0 15.879565 13.218997 28.762472 29.517521 28.762472 16.307719 0 29.51752-12.882907 29.51752-28.762472 0-15.879563-13.209801-28.753418-29.51752-28.753418-16.298524 0-29.517521 12.873855-29.517521 28.753418" fill="#6dcff6" mask="url(#aV)"/><path d="m839.700381 704.303947c0 11.081293 9.137471 20.089369 20.389243 20.089369 11.242582 0 20.370859-9.008076 20.370859-20.089369 0-11.063186-9.128277-20.062208-20.370859-20.062208-11.251772 0-20.389243 8.999022-20.389243 20.062208" fill="#2a1d01" mask="url(#aW)"/><path d="m840.857733 693.906182c0 3.204884 2.647476 5.821301 5.892473 5.821301 3.254189 0 5.892474-2.616417 5.892474-5.821301 0-3.204883-2.638285-5.79414-5.892474-5.79414-3.244997 0-5.892473 2.589257-5.892473 5.79414" fill="#fff" mask="url(#aX)"/><path d="m653.683927 702.703316s19.129853-112.596431 76.602148-129.770624c68.181703-20.370023 126.426179-3.838617 144.783852 3.775245 29.113046 12.068106 60.515055 122.971563 60.515055 122.971563s15.324106-93.548198 6.131481-122.220136c-9.192626-28.662884-32.174189-56.583395-32.174189-56.583395s-7.657458-31.686702-36.770503-39.228138c-29.113045-7.541434-49.024272-23.384785-49.024272-23.384785v7.541434l-50.55944-9.053342 3.061143 9.053342-61.278041 5.2781 7.657456 9.053343-41.366814 12.07716 9.192626 4.526672-41.366815 24.136214h16.850082l-19.663025 36.738467-4.844515 6.264914 9.192626 3.023816-13.788938 37.716228h12.25377l-8.889269 37.915402-.303358 1.321788 7.657458-1.511908z" fill="#edc866" mask="url(#aY)"/><path d="m877.368084 577.459364 27.577877-45.266716-30.639022 34.710518s-110.311506-27.16003-153.21349 10.556198c0 0 65.12056-33.950037 156.274635 0" fill="#c6a956" mask="url(#aZ)"/><path d="m871.236603 572.932692s27.577876 17.355259 48.261284 74.690083c0 0-10.718601-51.296244-45.190948-80.719609z" fill="#c6a956" mask="url(#a0)"/><path d="m838.299426 563.87935-43.664972-19.609542 2.298156 6.790007-39.831646-9.813825 12.253769 12.07716-27.577876-3.023816 6.131481 3.775245-32.937177 5.278099 16.850082 2.263335s-24.516731 4.526672-31.411202 12.828587c-6.894469 8.301917-29.103851 64.885312-29.103851 64.885312s34.472345-61.110067 51.322427-65.636739c16.850084-4.526672 115.670809-9.813823 115.670809-9.813823" fill="#c6a956" mask="url(#a1)"/><path d="m875.832916 505.793099-20.683408-13.580016 12.262962 12.068106-15.79293-3.00571-7.960814-1.52096.772181 7.541434 11.490782 2.263335-29.876034 2.263337 19.148239 5.287153-6.894468 10.556198h22.981563z" fill="#efe08a" mask="url(#a2)"/><path d="m908.779286 553.32315c-1.53517 2.263337-10.727794 12.068108-7.666651 24.136214 3.070338 12.07716 12.262962 32.447183 12.262962 32.447183l-3.070336-30.183846 7.66665 5.287151z" fill="#efe08a" mask="url(#a3)"/><path d="m858.219844 547.28457c-21.455586-.751427-60.515053-16.594778-60.515053-16.594778l32.937177 6.790007-3.070337-7.550488 19.157432 2.263337s-27.577877-13.580016-24.516732-12.819535c3.061143.751427 33.709358 5.278099 33.709358 5.278099z" fill="#efe08a" mask="url(#a4)"/><path d="m688.919259 570.669357c-4.596311 15.091924-19.148238 61.870548-19.148238 61.870548l5.359301-27.920511s-2.298157-2.263335-2.298157-5.278099 16.087094-28.671938 16.087094-28.671938" fill="#efe08a" mask="url(#a5)"/><path d="m678.963646 1062.56466s9.587909 96.33663 14.358882 137.24869l192.033948-39.92525c4.688238-44.92269 14.230184-95.0601 14.230184-95.0601l20.683408 38.47671 62.050222-52.05673-48.261285-117.693461-43.664971-22.63336s-20.683408 67.900076-89.628098 70.163411c-68.944693 2.263337-105.715195-70.163411-105.715195-70.163411l-32.17419 11.316679-62.050222 104.113452 45.963129 79.21675z" fill="#542f82" mask="url(#a6)"/><path d="m750.727717 1174.25485 88.285975-14.36765c17.015549-12.729 41.955143-28.6991 41.008303-48.28148-1.535169-31.6867-11.711405-70.8062-32.606244-84.91131-16.270946-10.98171-57.380368-13.16356-57.380368-13.16356s-19.911227-4.52667-45.963127 16.59478c-26.042709 21.12145-44.427959 72.42674-24.50754 108.64012 4.853706 8.81795 22.439198 30.0571 31.163001 35.4891" fill="#c42c76" mask="url(#a7)"/><path d="m803.342628 1066.65858c-3.566739 0-6.453224-2.84275-6.453224-6.35544 0-3.5127 2.886485-6.35545 6.453224-6.35545s6.453224 2.84275 6.453224 6.35545c0 3.51269-2.886485 6.35544-6.453224 6.35544m21.942798 16.52235c-5.809741-13.97836-10.323319-27.32299-2.59232-27.96577 0 0-10.323319-15.88862-30.31728-2.54399-20.012347 13.35368-25.178602 78.18467-50.982302 74.99789 0 0 36.108633 5.38674 60.00946-1.26746 23.395232-6.50936 29.692181-29.23325 23.882442-43.22067" fill="#fff" mask="url(#a8)"/></g><g transform="translate(101.118873 51.522587)"><g fill-rule="nonzero"><path d="m626.294499 253.965292c0 10.628626-58.170936 19.238355-129.919377 19.238355-71.748442 0-129.928571-8.609729-129.928571-19.238355 0-10.628624 58.180129-19.247406 129.928571-19.247406 71.748441 0 129.919377 8.618782 129.919377 19.247406" fill="#b73c1e"/><path d="m423.877479 122.877408-95.419452-52.2377912-5.313338 5.1875657 100.769561 94.9152515 20.499555-22.560931 3.906866 2.598309 4.191837-11.497746.441247-.48888-.220623-.117694 43.655779-119.7214124-.009194-7.9759954z" fill="#d94721"/><path d="m670.166304 75.8244665-5.313338-5.1785123-95.823928 52.4550718-72.630934-112.1256578-.009193 7.9850488 48.059046 131.816679 4.2378-2.81559 20.710985 22.778212z" fill="#d94721"/><path d="m567.045268 132.691232-70.663712-113.7371524-70.682098 113.7371524-102.55293-56.8640495 43.30646 156.3874525v21.755185s21.032726-19.247408 129.928568-19.247408c108.877456 0 129.910185 19.247408 129.910185 19.247408v-21.755185l43.306459-156.3874525z" fill="#ffbe3b"/><path d="m496.376961 18.9586062-70.672906 113.7371528-102.562123-56.8731031 43.306458 156.3965071v21.746129s15.351685-13.996467 87.403485-18.11574l87.044971-145.2427865z" fill="#ffc958"/></g><path d="m374.934104 228.883006s120.184386-36.12284 243.981474 0" stroke="#ffd892" stroke-linecap="square"/><path d="m366.450229 253.965292c7.298945-9.451689 18.495562-14.928962 28.938385-20.134635 11.316123-2.245229 22.540318-3.865777 33.782899-5.106085 22.466777-2.263335 44.860013-2.996656 67.207285-3.06003 22.328887.063374 44.731316.796695 67.198093 3.06003 11.233388 1.27652 22.485163 2.779376 33.755322 5.196619 10.442823 5.250939 21.602669 10.719158 28.965962 20.044101-11.049535-2.95139-22.016338-2.571148-32.909599-2.362922-10.341703-2.227122-21.032728-3.65755-31.751329-4.879752-21.529129-2.163749-43.389192-2.888016-65.258449-2.95139-21.878449.063374-43.738512.787641-65.276834 2.95139-10.709408 1.267468-21.428011 2.562097-31.723751 4.970285-10.893261-.162959-21.8141-.552253-32.927984 2.272389" fill="#ffd892" fill-rule="nonzero"/><path d="m340.309159 96.389136c16.243371 6.047633 32.091456 12.765214 47.838424 19.672915 15.728582 6.925808 31.328467 14.077949 46.772079 21.510744l-13.430426 3.557964 15.19541-28.825845 15.783739-28.4999253c10.4704-19.0301277 21.740558-37.5894815 32.578663-56.4023291l11.711406-20.33380918 12.04234 20.32475578c11.06792 18.6861008 22.145034 37.3722014 32.624628 56.3932758l15.802124 28.508978 15.204601 28.834899-13.458004-3.539857c15.305723-7.441849 30.795297-14.59399 46.395183-21.519798 15.61827-6.907701 31.346853-13.625281 47.461524-19.681968-13.540737 10.519985-27.458372 20.370023-41.495512 30.02994-14.046331 9.650864-28.212166 19.066341-42.552664 28.201164l-7.749382 4.934073-5.717813-8.47393-18.265747-27.069496-17.677419-27.4135241c-11.840102-18.2334335-23.07349-36.8290009-34.325265-55.4155146l23.753746-.0090534c-11.454012 18.4597671-22.466778 37.1730279-34.288493 55.4155146l-17.659034 27.4135235-18.23817 27.069497-5.699428 8.455823-7.74019-4.888806c-14.469193-9.134823-28.772919-18.559354-42.957139-28.201164-14.165837-9.668971-28.230553-19.528062-41.909181-30.048047" fill="#ffd892" fill-rule="nonzero"/><g fill="#f58226" fill-rule="nonzero" transform="translate(0 164.318182)"><path d="m112.603228 651.537435c.38609-.371188.8733-.733321 1.43405-1.095455l15.829701-17.4639c-57.3344057-68.588129-91.8343293-156.342187-91.8343293-251.918332 0-145.604921 80.0034203-273.121261 198.9743803-342.2254316l-8.181436-30.09331341c-132.0152965 73.32302801-221.37680957 212.71735501-221.37680957 372.31874501 0 104.366943 38.22293707 200.106048 101.58770457 274.379678 1.388087-1.64771 2.592321-2.960444 3.566739-3.901991"/><path d="m963.8091 381.060654c0 96.517693-35.170986 185.077498-93.534966 253.97344l26.833276 15.27299c60.781638-73.5222 97.285554-167.260518 97.285554-269.24643 0-163.249888-93.479808-305.369271-230.477506-377.25281785l-9.974 28.90732595c124.964553 67.5107809 209.867642 198.3496989 209.867642 348.3454919"/></g></g></g></svg>