<?xml version="1.0" encoding="UTF-8"?>
<svg width="1205px" height="1205px" viewBox="0 0 1205 1205" version="1.1" xmlns="http://www.w3.org/2000/svg" xmlns:xlink="http://www.w3.org/1999/xlink">
    <!-- Generator: Sketch 54.1 (76490) - https://sketchapp.com -->
    <title>logo-gebruikercentraal</title>
    <desc>Created with Sketch.</desc>
    <defs>
        <radialGradient cx="49.468571%" cy="50.169492%" fx="49.468571%" fy="50.169492%" r="50.264286%" id="radialGradient-1">
            <stop stop-color="#EFB698" offset="0%"></stop>
            <stop stop-color="#F4D9A6" offset="100%"></stop>
        </radialGradient>
        <radialGradient cx="50.697143%" cy="50.169492%" fx="50.697143%" fy="50.169492%" r="50.264286%" id="radialGradient-2">
            <stop stop-color="#EFB698" offset="0%"></stop>
            <stop stop-color="#F4D9A6" offset="100%"></stop>
        </radialGradient>
        <radialGradient cx="49.62069%" cy="50.588097%" fx="49.62069%" fy="50.588097%" r="50.734483%" id="radialGradient-3">
            <stop stop-color="#EFB698" offset="0%"></stop>
            <stop stop-color="#F4D9A6" offset="100%"></stop>
        </radialGradient>
        <radialGradient cx="49.717241%" cy="50.588097%" fx="49.717241%" fy="50.588097%" r="50.734483%" id="radialGradient-4">
            <stop stop-color="#EFB698" offset="0%"></stop>
            <stop stop-color="#F4D9A6" offset="100%"></stop>
        </radialGradient>
        <radialGradient cx="52.334224%" cy="49.267647%" fx="52.334224%" fy="49.267647%" r="51.082353%" id="radialGradient-5">
            <stop stop-color="#EFB698" offset="0%"></stop>
            <stop stop-color="#F4D9A6" offset="100%"></stop>
        </radialGradient>
        <radialGradient cx="53.800519%" cy="49.267647%" fx="53.800519%" fy="49.267647%" r="51.082353%" id="radialGradient-6">
            <stop stop-color="#EFB698" offset="0%"></stop>
            <stop stop-color="#F4D9A6" offset="100%"></stop>
        </radialGradient>
    </defs>
    <g id="logo-gebruikercentraal" stroke="none" stroke-width="1" fill="none" fill-rule="evenodd">
        <g fill-rule="nonzero" id="Group">
            <g transform="translate(47.000000, 189.000000)">
                <polygon id="Path" fill="#1E94D2" points="313 32 1081 32 1081 502 313 502"></polygon>
                <path d="M775.396863,118.095704 C775.396863,118.095704 751.518988,72.9173459 676.211844,88.1304662 C600.9047,103.343587 578.863585,176.643167 581.159534,218.594499 C583.455484,260.545831 593.098472,285.901032 612.843637,314.944262 C632.129614,343.987492 623.864195,362.888642 609.170118,367.498678 C609.170118,367.498678 693.66106,426.507145 780.907142,368.420685 C780.907142,368.420685 759.784406,361.966634 762.080355,344.909499 C764.376305,327.852364 795.601218,306.646196 814.428004,271.148916 C833.25479,235.651634 841.979399,135.152839 775.396863,118.095704 Z" id="Path" fill="#4C3715"></path>
                <path d="M587.959303,502 L626.540698,451.437653 C626.540698,451.437653 634.80814,466.146699 641.238372,502 L754.226745,502 C757.901163,462.469437 762.953489,440.405868 762.953489,440.405868 L821.744186,502 L864,502 C837.819767,467.98533 786.83721,401.794622 785,398.577017 C782.244186,394.440098 779.02907,384.787286 773.05814,385.246944 C760.197675,385.706602 723.453488,363.183374 723.912791,350.772616 C724.372094,336.982885 723.912791,314 723.912791,314 L676.604651,314 L676.604651,350.772616 C676.604651,364.562348 657.773256,376.513447 637.563954,383.408313 C617.813954,389.843521 607.25,397.198044 607.25,397.198044 L548,502 L587.959303,502 Z" id="Path" fill="#F4D9A6"></path>
                <path d="M795,206.862069 C795,274.908046 762.28266,331 699.152019,331 C636.021378,331 601,274.448276 601,206.402299 C601,138.356322 637.4038,131 700.534442,131 C763.204275,131 795,138.816092 795,206.862069 L795,206.862069 Z" id="Path" fill="#F4D89B"></path>
                <ellipse id="Oval" fill="#1BACE3" cx="660" cy="245" rx="18" ry="16"></ellipse>
                <path d="M672,245.5 C672,251.692308 666.692308,257 660.5,257 C654.307692,257 649,251.692308 649,245.5 C649,239.307693 654.307692,234 660.5,234 C666.692308,234 672,239.307693 672,245.5 Z" id="Path" fill="#234572"></path>
                <circle id="Oval" fill="#fff" cx="652.5" cy="239.5" r="3.5"></circle>
                <path d="M663,288 C674.890244,295.307692 687.695122,300.179487 700.5,300.179487 C713.304879,300.179487 725.652439,294.820513 738,288 C733.42683,293.358975 727.939025,298.23077 721.536585,301.641025 C715.134146,305.051282 707.817074,307 700.5,307 C693.182927,307 685.865854,305.538461 679.463415,302.128205 C672.603659,298.717949 667.115854,294.333334 663,288 L663,288 Z" id="Path" fill="#C52D77"></path>
                <path d="M758.284978,150.670895 C758.284978,150.670895 755.527524,171.832627 767.016916,203.575222 C779.885035,238.078044 793.672306,250.959098 807,241.758345 C807,241.758345 792.753154,246.358722 796.889336,231.637517 C802.404244,211.395862 812.974484,177.353078 796.889336,153.891159 C782.64249,133.649503 767.476492,136.869767 767.476492,136.869767 C767.476492,136.869767 755.067949,95.4663811 699.459292,95.0063435 C619.493125,94.0862683 564.803619,193.454395 606.16543,262 C606.16543,262 592.837736,209.555712 620.871851,206.335448 C648.905968,203.115185 750.472192,168.152326 757.825403,148.830745" id="Path" fill="#5F4118"></path>
                <path d="M764.35596,157.622232 C764.35596,157.622232 753.674666,177.821136 717.915552,194.806578 C689.586904,208.119491 657.078618,210.414822 625.499142,209.496689 C625.499142,209.496689 614.817848,227.400264 615.746656,256.321421 C616.675465,285.242579 631.536395,316 631.536395,316 C631.536395,316 572.557078,229.695593 618.53308,159.917562 C672.403953,78.203815 755.996686,118.142556 769,142.473054 C769,142.93212 769,150.736242 764.35596,157.622232 Z" id="Path" fill="#764D1E"></path>
                <g transform="translate(643.000000, 121.000000)" fill="#A26628" id="Path">
                    <path d="M43.6307774,70.3261761 C43.6307774,70.3261761 85.7123943,61.0497058 104.209809,29.5097063 C104.209809,29.5097063 92.18649,42.9605885 73.6890752,49.9179407 C73.6890752,49.9179407 86.6372657,39.2500001 88.9494416,33.6841181 C88.9494416,33.6841181 53.8043557,33.2202937 26.5206691,51.7732354 C26.5206691,51.7732354 55.1916613,18.8417647 113.458516,19.7694115 C113.920951,19.7694115 106.984421,59.1944121 43.6307774,70.3261761 L43.6307774,70.3261761 Z"></path>
                    <path d="M116.233128,16.986471 C106.521985,13.7397061 96.810843,11.420588 87.0997009,9.56529434 C77.3885587,7.70999966 67.2149804,6.78235283 57.5038383,7.24617625 C37.6191178,7.70999966 18.1968326,13.2758827 0.624289123,23.4799999 C8.02325527,16.5226466 16.809527,10.4929412 26.5206691,6.78235283 C36.2318123,3.07176448 46.8678248,1.21647081 57.0414031,0.752647394 C78.3134291,0.288823976 99.12302,5.85470599 116.233128,16.986471 Z"></path>
                    <path d="M147.216296,80.0664709 C143.979249,75.8920592 141.204637,71.253824 138.430025,66.6155878 C136.117849,61.9773526 133.805672,56.875294 132.418365,51.7732354 C129.181318,41.5691172 125.94427,19.7694115 125.94427,19.7694115 C125.94427,19.7694115 142.591943,23.9438233 149.066038,36.4670586 C155.540133,48.9902939 155.077698,62.441176 155.077698,62.441176 C155.077698,62.441176 151.378215,49.9179407 145.828991,41.5691172 C140.279766,33.2202937 134.730542,31.8288234 132.418365,29.5097063 C132.418365,29.5097063 134.268107,42.496765 136.580284,52.2370588 C139.354896,62.441176 143.054379,70.3261761 147.216296,80.0664709 Z"></path>
                </g>
                <circle id="Oval" fill="url(#radialGradient-1)" cx="646" cy="276" r="16"></circle>
                <circle id="Oval" fill="url(#radialGradient-2)" cx="748" cy="276" r="16"></circle>
                <polygon id="Path" fill="#C52D77" points="666 417 732 417 704.382979 469"></polygon>
                <path d="M625,452 C625,452 625.521739,447.885714 625.521739,441.485714 C625.521739,435.085714 625.521739,426.857143 623.956522,418.628571 C623.434783,414.514286 622.391304,410.4 621.347826,406.742857 C620.826087,404.914286 620.304348,403.085714 619.782609,401.257143 C619.26087,399.428571 618.73913,398.057143 618.217391,396.685714 C617.695652,395.314286 617.173913,393.942857 616.130435,393.028572 C615.608696,391.657143 615.086956,390.742857 614.565217,390.285714 C613.521739,388.914286 613,388 613,388 C613,388 614.043478,388.457143 615.608696,389.828571 C616.130435,390.285714 616.652174,390.742857 617.173913,390.742857 C617.695652,391.2 618.217391,391.657143 618.217391,392.114286 C619.26087,393.028572 620.304348,394.4 620.826087,395.771429 C621.869565,397.142857 622.913043,398.971429 623.434783,400.342857 C623.956522,402.171429 625,404 625.521739,405.828571 C626.565217,409.942857 627.086957,414.057143 627.608696,418.171429 C628.130435,426.857143 628.130435,435.085714 627.608696,441.485714 C626.043478,447.885714 625.521739,452 625,452 Z" id="Path" fill="#074D6C"></path>
                <path d="M768.447368,448 C768.447368,448 768,443.915385 768,438.015385 C768,432.115385 768.447368,423.946154 769.789474,416.230769 C770.236842,414.415385 770.68421,412.146154 771.131579,410.330769 C771.578947,408.515385 772.026316,406.7 772.921053,404.884615 C773.368421,403.069231 774.263158,401.253846 775.157895,399.892308 C776.052632,398.530769 776.947368,397.169231 777.842105,395.807692 C778.736842,394.446154 779.631579,393.538462 780.526316,392.630769 C781.421053,391.723077 782.31579,390.815385 782.763158,390.361539 C784.105263,389.453846 785,389 785,389 L785,389.453846 C785,389.453846 784.552632,390.361539 783.210526,391.723077 C782.763158,392.176923 781.868421,393.084615 781.421053,393.992308 C780.973684,394.9 780.078947,396.261538 779.631579,397.169231 C779.184211,398.530769 778.289474,399.892308 777.842105,401.253846 C777.394737,402.615385 776.5,404.430769 776.052632,406.246154 C774.710526,409.423077 773.368421,413.507692 772.473684,417.138462 C770.68421,424.853846 769.789474,432.569231 769.342105,438.469231 C768.894737,444.369231 768.894737,448 768.447368,448 Z" id="Path" fill="#074D6C"></path>
                <ellipse id="Oval" fill="#1BACE3" cx="742" cy="245" rx="18" ry="16"></ellipse>
                <path d="M730,245.5 C730,251.692308 735.307692,257 741.5,257 C747.692308,257 753,251.692308 753,245.5 C753,239.307693 747.692308,234 741.5,234 C735.307692,234 730,239.307693 730,245.5 Z" id="Path" fill="#234572"></path>
                <circle id="Oval" fill="#FFFFFF" cx="732.5" cy="239.5" r="3.5"></circle>
                <circle id="Oval" fill="#1BACE3" cx="701.5" cy="374.5" r="6.5"></circle>
                <circle id="Oval" fill="#FFFEF1" opacity="0.2" cx="702.5" cy="373.5" r="2.5"></circle>
                <circle id="Oval" fill="#1BACE3" cx="690.5" cy="371.5" r="6.5"></circle>
                <circle id="Oval" fill="#FFFEF1" opacity="0.2" cx="693.5" cy="373.5" r="2.5"></circle>
                <circle id="Oval" fill="#1BACE3" cx="679.5" cy="367.5" r="4.5"></circle>
                <circle id="Oval" fill="#FFFEF1" opacity="0.2" cx="682.5" cy="367.5" r="2.5"></circle>
                <circle id="Oval" fill="#1BACE3" cx="671.5" cy="363.5" r="4.5"></circle>
                <circle id="Oval" fill="#FFFEF1" opacity="0.2" cx="673.5" cy="363.5" r="2.5"></circle>
                <circle id="Oval" fill="#1BACE3" cx="713.5" cy="371.5" r="6.5"></circle>
                <circle id="Oval" fill="#FFFEF1" opacity="0.2" cx="714.5" cy="371.5" r="2.5"></circle>
                <circle id="Oval" fill="#1BACE3" cx="721.5" cy="367.5" r="4.5"></circle>
                <circle id="Oval" fill="#FFFEF1" opacity="0.2" cx="724.5" cy="365.5" r="2.5"></circle>
                <circle id="Oval" fill="#1BACE3" cx="729.5" cy="360.5" r="4.5"></circle>
                <circle id="Oval" fill="#FFFEF1" opacity="0.2" cx="731.5" cy="360.5" r="2.5"></circle>
                <path d="M625.753087,454.732876 C625.753087,454.732876 635.918872,475.383561 641.925927,502 L762.991182,502 C765.301588,473.089041 772.232804,449.226027 772.232804,449.226027 L806.426808,482.726027 L836,454.732876 C819.365079,430.869864 792.564374,394.157535 790.716049,390.486302 C787.0194,384.061644 771.308642,382.226028 765.763669,379.931507 C754.21164,375.80137 750.05291,374.883562 739.425044,368 C731.569665,395.993151 704.306879,450.602739 704.306879,450.602739 C704.306879,450.602739 672.423281,390.945206 669.650794,368 C662.257496,374.424658 656.712523,377.178083 645.160494,380.849315 C639.615521,382.684932 625.753087,385.897261 615.587302,390.027398 C604.959436,394.157535 574,460.69863 574,460.69863 L602.64903,486.39726 L625.753087,454.732876 Z" id="Path" fill="#F99E1F"></path>
                <polygon id="Path" fill="#C0E2C8" opacity="0.1" points="642 33 1055.03303 415 1102 415 709.687687 40.3816425 755.273273 40.3816425 1086.34435 341.183575 1090.94895 35.3067632"></polygon>
                <path d="M1052.76081,54.8751092 L1052.76081,473.124891 L343.317238,473.124891 L343.317238,54.8751092 L1052.76081,54.8751092 Z M1052.76081,0 L343.317238,0 C312.892757,0 288,24.4401747 288,54.8751092 L288,473.124891 C288,503.559825 312.892757,528 343.778215,528 L1053.22179,528 C1084.10724,528 1109,503.559825 1109,473.124891 L1109,54.8751092 C1108.07805,24.4401747 1083.18529,0 1052.76081,0 Z" id="Shape" fill="#024252"></path>
                <path d="M823,655.9631 C823,655.9631 748.207476,625.741698 748.207476,556 L650.792523,556 C650.792523,625.741698 576,655.9631 576,655.9631 L576,682 L822.538318,682 L822.538318,655.9631 L823,655.9631 Z" id="Path" fill="#024252"></path>
                <path d="M661.323242,55.0049701 L1055.07925,55.0049701 L1055.07925,414.15507 L1111,465 L1111,55.0049701 C1111,24.4980119 1086.04364,0 1055.07925,0 L592,0 L661.323242,55.0049701 Z" id="Path" fill="#0D4D5F"></path>
                <polygon id="Path" fill="#145265" points="573 658 823 658 823 681 573 681"></polygon>
                <polygon id="Path" fill="#1E94D2" points="22 217 408 217 408 705 22 705"></polygon>
                <path d="M275.698487,352.693834 C275.698487,352.693834 255.894723,314.736312 192.79901,327.697417 C129.703298,340.658522 111.281191,401.760876 113.123402,437.403914 C114.965613,473.046954 123.255561,493.877301 139.835456,518.410822 C155.954799,542.944342 149.046508,558.682827 136.611587,562.848897 C136.611587,562.848897 207.536694,612.378833 280.764565,563.311793 C280.764565,563.311793 262.803012,557.757033 265.105775,543.407239 C266.947986,529.057443 293.199487,511.467372 308.858277,481.379093 C324.517066,451.290813 331.425357,367.04363 275.698487,352.693834 L275.698487,352.693834 Z" id="Path" fill="#4C3715"></path>
                <path d="M117.838542,674 L150.286459,631.372434 C150.286459,631.372434 157.239583,643.882698 162.802083,674 L258.291667,674 C261.536459,640.639296 265.708333,622.105572 265.708333,622.105572 L315.307292,674 L351,674 C328.75,645.272727 285.640625,589.208212 284.25,586.891496 C281.932292,583.648095 279.151042,575.307919 274.052083,575.771262 C263.390625,576.234605 232.333334,557.237537 232.333334,547.043989 C232.796875,535.460411 232.333334,516 232.333334,516 L192.46875,516 L192.46875,547.043989 C192.46875,558.627567 176.244792,568.821115 159.557292,574.381232 C142.869791,579.94135 133.598958,585.96481 133.598958,585.96481 L84,674 L117.838542,674 Z" id="Path" fill="#F4D9A6"></path>
                <path d="M295,426.313187 C295,483.203296 267.846591,530 214.920455,530 C161.994318,530 133,482.744505 133,425.854396 C133,368.964286 163.375,363 215.840909,363 C268.767045,363 295,369.423077 295,426.313187 Z" id="Path" fill="#F4D89B"></path>
                <ellipse id="Oval" fill="#1BACE3" cx="180" cy="460" rx="15" ry="14"></ellipse>
                <path d="M191,459.5 C191,465.227273 186.227273,470 180.5,470 C174.772728,470 170,465.227273 170,459.5 C170,453.772727 174.772728,449 180.5,449 C186.704546,449 191,453.772727 191,459.5 Z" id="Path" fill="#234572"></path>
                <circle id="Oval" fill="#FFFFFF" cx="174.5" cy="454.5" r="2.5"></circle>
                <path d="M181,495 C191.277373,501.09375 202.021898,504.84375 212.766423,504.84375 C223.978102,504.84375 234.255474,500.625001 245,495 C241.262774,499.6875 236.124088,503.4375 230.985401,505.78125 C225.379562,508.593749 219.306569,510 213.233577,510 C207.160584,510 200.620438,508.593749 195.014599,505.78125 C189.408759,503.4375 184.270073,499.6875 181,495 L181,495 Z" id="Path" fill="#C52D77"></path>
                <path d="M264.210795,380.875863 C264.210795,380.875863 261.919267,398.766707 271.543685,424.914863 C282.543022,453.815458 294.000664,464.366469 305,457.026635 C305,457.026635 293.084053,461.155291 296.292192,448.769322 C300.875248,431.795957 310.041363,403.354102 296.292192,384.087039 C284.376245,367.113674 272.001991,369.866112 272.001991,369.866112 C272.001991,369.866112 261.919267,335.460643 215.630394,335.001903 C149.176071,334.543163 103.345504,417.11629 137.718429,474 C137.718429,474 126.260787,429.960999 150.092683,427.667301 C173.466272,424.914863 258.252821,396.014269 264.669101,379.958383" id="Path" fill="#5F4118"></path>
                <path d="M263.867791,385.146814 C263.867791,385.146814 255.144238,402.155699 225.759639,416.406387 C202.343787,427.898877 175.254859,429.737676 149.084202,428.818276 C149.084202,428.818276 140.360649,443.528664 140.819783,467.892743 C141.278917,492.256822 154.134679,518 154.134679,518 C154.134679,518 105.466437,445.827161 143.574589,386.985612 C188.110622,318.490371 257.43991,352.048443 268,372.275225 C267.540866,372.734925 268,379.170719 263.867791,385.146814 L263.867791,385.146814 Z" id="Path" fill="#764D1E"></path>
                <path d="M200.949045,416 C200.949045,416 236.286624,408.448594 252.095541,381.074748 C252.095541,381.074748 241.866242,392.873819 226.522292,398.537374 C226.522292,398.537374 237.21656,389.57008 239.541401,384.378488 C239.541401,384.378488 209.78344,383.906525 187,399.953262 C187,399.953262 211.178344,371.63549 260,373.05138 C260,373.05138 253.955414,406.560743 200.949045,416 Z" id="Path" fill="#A26628"></path>
                <path d="M262,369.902439 C254.228572,367.121952 246,365.268293 237.771429,363.414635 C229.542857,362.02439 221.314286,361.097561 213.085715,361.560975 C196.628572,362.02439 180.628571,366.658536 166,375 C171.942857,368.97561 179.257143,364.341464 187.485715,361.097561 C195.714286,357.853658 204.400001,356.463415 213.085715,356 C230.457144,356 247.371429,360.634146 262,369.902439 Z" id="Path" fill="#A26628"></path>
                <path d="M288.484219,422 C285.881447,418.788991 283.712471,414.66055 281.543496,410.990825 C279.808314,406.862385 278.073133,402.733945 276.771748,398.605504 C274.602771,389.889908 272,372 272,372 C272,372 285.013857,375.669725 290.2194,385.761468 C295.424943,395.853211 294.991147,407.3211 294.991147,407.3211 C294.991147,407.3211 291.95458,397.229358 288.050424,389.889908 C283.712471,383.009174 279.374519,381.633027 277.639338,379.798165 C277.639338,379.798165 279.374519,390.348623 280.675905,398.605504 C282.411086,407.3211 285.447652,413.743119 288.484219,422 Z" id="Path" fill="#A26628"></path>
                <circle id="Oval" fill="url(#radialGradient-3)" cx="168.5" cy="484.5" r="12.5"></circle>
                <circle id="Oval" fill="url(#radialGradient-4)" cx="253.5" cy="484.5" r="12.5"></circle>
                <polygon id="Path" fill="#C52D77" points="187 604 241 604 218.384615 647"></polygon>
                <path d="M149.857448,632 C149.857448,632 150.943193,617.932773 148.771703,604.319328 C148.228831,600.689076 147.143086,597.512605 146.600214,594.336134 C146.057341,592.521008 145.514469,591.159664 145.514469,589.798319 C144.971596,588.436975 144.428724,587.07563 143.885852,585.714286 C143.342979,584.352941 142.800107,583.445378 142.257234,582.537815 C141.714362,581.630252 141.17149,580.722689 140.628617,580.268908 C139.542872,578.907563 139,578 139,578 C139,578 140.085745,578.453782 141.17149,579.815126 C141.714362,580.268908 142.800107,581.176471 143.342979,582.084034 C143.885852,582.991597 144.971596,583.89916 146.057341,585.260504 C146.600214,586.621849 147.685958,587.983193 148.228831,589.344538 C148.771703,590.705882 149.314576,592.521008 149.857448,593.882353 C150.943193,597.058824 150.943193,600.689076 151.486065,604.319328 C153.114682,618.386555 150.40032,632 149.857448,632 L149.857448,632 Z" id="Path" fill="#074D6C"></path>
                <path d="M271.433387,630 C271.433387,630 269.976726,616.290909 272.404494,602.109091 C272.890048,600.218182 272.890048,598.8 273.375602,596.909091 C273.861156,595.018182 274.34671,593.6 274.832263,592.181818 C275.317817,590.763636 276.288925,589.345455 276.774478,587.927273 C277.260032,586.509091 278.23114,585.563636 279.202247,584.145455 C280.173355,583.2 281.144462,582.254545 281.630016,581.309091 C282.11557,580.363636 283.086677,579.890909 284.057785,579.418182 C285.514446,578.472727 286,578 286,578 L286,578.472727 C286,578.472727 285.514446,579.418182 284.543339,580.363636 C284.057785,580.836364 283.572231,581.781818 283.086677,582.727273 C282.601124,583.672727 282.11557,584.618182 281.144462,585.563636 C280.658909,586.509091 280.173355,587.927273 279.202247,589.345455 C278.716693,590.763636 277.745586,592.181818 277.745586,593.6 C276.774478,596.436364 275.317817,599.745455 274.832263,603.054545 C273.375602,609.672727 272.404494,616.290909 271.918941,621.490909 C271.918941,626.218182 271.918941,630 271.433387,630 Z" id="Path" fill="#074D6C"></path>
                <ellipse id="Oval" fill="#1BACE3" cx="250" cy="460" rx="15" ry="14"></ellipse>
                <path d="M237,459.5 C237,465.227273 241.772728,470 247.5,470 C253.227272,470 258,465.227273 258,459.5 C258,453.772727 253.227272,449 247.5,449 C241.772728,449 237,453.772727 237,459.5 Z" id="Path" fill="#234572"></path>
                <circle id="Oval" fill="#FFFFFF" cx="240.5" cy="454.5" r="2.5"></circle>
                <circle id="Oval" fill="#1BACE3" cx="213.5" cy="564.5" r="6.5"></circle>
                <circle id="Oval" fill="#FFFEF1" opacity="0.2" cx="217.5" cy="565.5" r="2.5"></circle>
                <circle id="Oval" fill="#1BACE3" cx="204.5" cy="563.5" r="4.5"></circle>
                <circle id="Oval" fill="#FFFEF1" opacity="0.2" cx="206.5" cy="563.5" r="2.5"></circle>
                <circle id="Oval" fill="#1BACE3" cx="196.5" cy="560.5" r="4.5"></circle>
                <circle id="Oval" fill="#FFFEF1" opacity="0.2" cx="197.5" cy="560.5" r="2.5"></circle>
                <circle id="Oval" fill="#1BACE3" cx="190.5" cy="558.5" r="3.5"></circle>
                <circle id="Oval" fill="#FFFEF1" opacity="0.2" cx="194.5" cy="557.5" r="2.5"></circle>
                <circle id="Oval" fill="#1BACE3" cx="224.5" cy="563.5" r="4.5"></circle>
                <circle id="Oval" fill="#FFFEF1" opacity="0.2" cx="226.5" cy="563.5" r="2.5"></circle>
                <circle id="Oval" fill="#1BACE3" cx="233.5" cy="560.5" r="4.5"></circle>
                <circle id="Oval" fill="#FFFEF1" opacity="0.2" cx="233.5" cy="558.5" r="2.5"></circle>
                <circle id="Oval" fill="#1BACE3" cx="236.5" cy="556.5" r="3.5"></circle>
                <circle id="Oval" fill="#FFFEF1" opacity="0.2" cx="238.5" cy="555.5" r="2.5"></circle>
                <path d="M150.831932,632.334694 C150.831932,632.334694 159.15126,649.861225 164.235294,672 L265.453781,672 C267.302521,647.555102 272.84874,627.722449 272.84874,627.722449 L301.504202,655.857143 L326,632.334694 C312.134454,612.502041 289.94958,581.6 288.10084,578.371429 C285.327731,572.836734 271.924369,571.453061 267.302521,569.608163 C257.596639,565.918368 253.899159,565.457142 245.117647,559.461224 C238.647059,582.983674 215.537815,628.644898 215.537815,628.644898 C215.537815,628.644898 188.731092,578.832653 186.420168,559 C180.411764,564.534694 175.327731,566.379592 166.084033,569.608163 C161.462185,570.991837 149.907563,573.759183 141.12605,577.448979 C132.344538,581.138775 106,636.485715 106,636.485715 L130.033613,658.163266 L150.831932,632.334694 Z" id="Path" fill="#F99E1F"></path>
                <polygon id="Path" fill="#C0E2C8" opacity="0.1" points="401 430.087478 158.041991 203.536878 194.531882 203.536878 401 385.792453 401 224.761578 104 198 401 467"></polygon>
                <path d="M44.099675,243.128425 L379.900325,243.128425 L379.900325,669.659246 L44.099675,669.659246 L44.099675,243.128425 Z M0,235.758562 L0,686.241438 C0,710.193493 19.7529795,730 44.099675,730 L379.900325,730 C404.247021,730 424,710.654109 424,686.241438 L424,235.758562 C424,211.806507 404.247021,192 379.900325,192 L44.099675,192 C19.7529795,192.460616 4.42819142e-14,211.806507 0,235.758562 Z" id="Shape" fill="#024252"></path>
                <path d="M424,489 L424,235.67647 C424,211.76935 404.176881,192 379.743733,192 L93,192 L150.164346,242.572755 L379.743733,243.032507 L379.743733,449.4613 L400.488858,468.311146 L424,489 Z" id="Path" fill="#0D4D5F"></path>
                <circle id="Oval" fill="#FFFFFF" cx="210" cy="698" r="16"></circle>
                <polygon id="Path" fill="#1E94D2" points="247 606 616 606 616 806 247 806"></polygon>
                <path d="M473.512682,643.81448 C473.512682,643.81448 462.049264,621.061359 425.366327,628.490949 C388.683391,636.384889 378.137047,673.068493 379.05412,694.428566 C380.42973,715.788639 385.015097,728.326073 394.644368,743.185255 C404.273639,757.580087 400.146809,767.331425 392.810221,769.653171 C392.810221,769.653171 433.619988,799.371534 476.263902,770.117521 C476.263902,770.117521 465.717557,766.867076 467.093168,758.044436 C468.468777,749.686146 483.600489,739.00611 492.771223,720.896483 C501.48342,703.251205 505.610251,652.637119 473.512682,643.81448 L473.512682,643.81448 Z" id="Path" fill="#4C3715"></path>
                <path d="M395.18705,820.233334 L402.496403,809.166667 C402.496403,809.166667 406.607913,805.016667 409.805755,823 L464.625899,823 C466.453238,803.172223 468.737411,803.633334 468.737411,803.633334 L482.442446,816.544445 L503,816.544445 C490.208633,799.483334 480.158273,784.266667 479.244604,782.422223 C477.874101,780.577778 476.503597,775.505556 473.305755,775.505556 C467.366907,775.966667 449.093525,764.438889 449.55036,758.444445 L449.55036,740 L426.708633,740 L426.708633,758.444445 C426.708633,765.361112 417.571942,771.355556 407.978417,774.583334 C398.384892,777.811112 393.359712,781.5 393.359712,781.5 L376,820.233334 L395.18705,820.233334 Z" id="Path" fill="#F4D9A6"></path>
                <path d="M483,687.834863 C483,722.458716 467.409756,751 436.687805,751 C405.965854,751 389,721.990826 389,687.366973 C389,652.743119 406.42439,649 437.146341,649 C467.868293,649.467891 483,653.211009 483,687.834863 L483,687.834863 Z" id="Path" fill="#F4D89B"></path>
                <circle id="Oval" fill="#1BACE3" cx="415.5" cy="708.5" r="8.5"></circle>
                <circle id="Oval" fill="#234572" cx="415.5" cy="708.5" r="6.5"></circle>
                <circle id="Oval" fill="#FFFFFF" cx="412.5" cy="705.5" r="2.5"></circle>
                <path d="M417,730.35 C423.175,733.669999 429.35,735.745 436,735.33 C442.65,735.33 448.825,733.254999 455,730.35 C452.625001,732.839999 449.775001,734.915 446.450001,736.16 C443.125001,737.404999 439.325,738.235 436,738.65 C432.2,738.65 428.4,737.82 425.55,736.574999 C421.749999,734.915 418.899999,732.839999 417,730.35 L417,730.35 Z" id="Path" fill="#C52D77"></path>
                <path d="M464.299334,661.057379 C464.299334,661.057379 462.905176,671.603939 468.481804,687.653052 C474.98787,705.077802 481.493935,711.497447 488,706.911986 C488,706.911986 481.029216,709.204717 482.888091,701.867979 C485.676405,691.779966 490.788314,674.813761 482.888091,662.891564 C475.917308,652.80355 468.481804,654.637735 468.481804,654.637735 C468.481804,654.637735 462.440458,634.003162 435.02204,634.003162 C395.52093,633.544615 368.56723,683.06759 389.014864,717 C389.014864,717 382.508799,690.862873 396.450368,689.02869 C410.391936,687.194505 460.116863,669.769754 463.834615,660.598833" id="Path" fill="#5F4118"></path>
                <path d="M466.184094,661.359085 C466.184094,661.359085 461.021598,671.613999 443.187522,680.470516 C429.107989,687.462503 413.151184,688.394767 397.663697,687.928635 C397.663697,687.928635 392.501201,696.785152 392.970519,711.701391 C393.439837,726.617629 400.948922,742 400.948922,742 C400.948922,742 371.851219,698.18355 394.847791,662.757482 C421.129586,621.271694 462.429551,641.781522 469,653.900966 C468.530682,653.434834 468.530682,657.630026 466.184094,661.359085 L466.184094,661.359085 Z" id="Path" fill="#764D1E"></path>
                <circle id="Oval" fill="url(#radialGradient-5)" cx="409.5" cy="723.5" r="8.5"></circle>
                <circle id="Oval" fill="url(#radialGradient-6)" cx="460.5" cy="723.5" r="8.5"></circle>
                <polygon id="Path" fill="#C52D77" points="420 796 450 796 437.391305 821"></polygon>
                <path d="M399.951171,810 C399.951171,810 400.365791,801.43662 399.12193,793.774648 C398.70731,791.971831 398.29269,789.71831 397.87807,787.915493 C397.87807,787.014084 397.463449,786.112676 397.463449,785.211268 C397.463449,784.309859 397.048829,783.859155 397.048829,782.957746 C396.634209,781.605634 396.219589,780.253521 395.804968,779.352113 C395.390348,778.450704 395.390348,778 395.390348,778 C395.390348,778 395.804968,778.450704 396.634209,778.901408 C397.048829,779.352113 397.463449,779.802817 397.87807,780.253521 C398.29269,780.704225 398.70731,781.15493 399.12193,782.056338 C399.951171,783.408451 400.780411,785.211268 401.195032,787.464789 C401.609652,789.267606 401.609652,791.521127 401.609652,793.774648 C401.609652,801.887324 400.365791,810 399.951171,810 Z" id="Path" fill="#074D6C"></path>
                <path d="M469.952694,808 C469.952694,808 469.123453,800.03125 469.952694,791.59375 C470.367314,789.71875 470.367314,787.375 471.196554,785.5 C471.611174,783.625 472.855035,781.75 473.684276,780.8125 C474.098896,780.34375 474.513516,779.875 474.928136,779.40625 C475.342757,778.9375 475.757377,778.46875 476.171997,778.46875 C477.001238,778 477.415858,778 477.415858,778 L477.415858,778.46875 C477.415858,778.46875 477.001238,778.9375 476.586617,779.875 C476.171997,780.8125 475.757377,781.75 475.342757,783.15625 C474.928136,784.5625 474.513516,785.96875 473.684276,787.84375 C473.269655,789.71875 472.440415,791.59375 472.025795,793.46875 C470.367314,799.5625 470.367314,808 469.952694,808 Z" id="Path" fill="#074D6C"></path>
                <circle id="Oval" fill="#1BACE3" cx="456.5" cy="708.5" r="8.5"></circle>
                <circle id="Oval" fill="#234572" cx="456.5" cy="708.5" r="6.5"></circle>
                <circle id="Oval" fill="#FFFFFF" cx="452.5" cy="705.5" r="2.5"></circle>
                <circle id="Oval" fill="#1BACE3" cx="438.5" cy="770.5" r="3.5"></circle>
                <circle id="Oval" fill="#FFFEF1" opacity="0.2" cx="439.5" cy="771.5" r="2.5"></circle>
                <circle id="Oval" fill="#1BACE3" cx="431.5" cy="771.5" r="2.5"></circle>
                <circle id="Oval" fill="#FFFEF1" opacity="0.2" cx="432" cy="770" r="1"></circle>
                <circle id="Oval" fill="#1BACE3" cx="426.5" cy="769.5" r="2.5"></circle>
                <circle id="Oval" fill="#FFFEF1" opacity="0.2" cx="428" cy="770" r="1"></circle>
                <circle id="Oval" fill="#1BACE3" cx="421.5" cy="766.5" r="2.5"></circle>
                <circle id="Oval" fill="#FFFEF1" opacity="0.2" cx="423" cy="766" r="1"></circle>
                <circle id="Oval" fill="#1BACE3" cx="443.5" cy="769.5" r="2.5"></circle>
                <circle id="Oval" fill="#FFFEF1" opacity="0.2" cx="445" cy="770" r="1"></circle>
                <circle id="Oval" fill="#1BACE3" cx="448.5" cy="769.5" r="2.5"></circle>
                <circle id="Oval" fill="#FFFEF1" opacity="0.2" cx="447" cy="768" r="1"></circle>
                <circle id="Oval" fill="#1BACE3" cx="449.5" cy="766.5" r="2.5"></circle>
                <circle id="Oval" fill="#FFFEF1" opacity="0.2" cx="451" cy="766" r="1"></circle>
                <path d="M400.133574,811.992249 C400.133574,811.992249 405.176896,806.96124 407.927798,820.224807 L466.155235,820.224807 C467.530687,805.589148 470.281588,809.248062 470.281588,809.248062 L486.787004,825.713179 L501,811.992249 C493.205776,800.100776 479.909748,781.806202 478.992779,779.976745 C477.158845,776.775194 469.823104,775.860465 467.072202,774.945737 C461.570397,772.658915 459.277979,772.658915 454.234657,769 C450.566787,782.72093 437.270758,810.162791 437.270758,810.162791 C437.270758,810.162791 421.682311,780.434109 420.306859,769 C416.638989,772.201551 413.888087,773.573643 408.386282,775.403101 C405.635379,776.31783 399.216607,777.689922 394.173285,779.976745 C389.129965,782.263566 374,815.193798 374,815.193798 L387.754513,828 L400.133574,811.992249 Z" id="Path" fill="#F99E1F"></path>
                <path d="M230,613.523256 L230,629.666667 L230,758.352714 L230,804.937985 C230,824.310077 236.442348,828 255.769391,828 L642.77044,828 C664.85849,828 669,822.003876 669,800.325582 L669,618.596899 C669,596.918605 662.097484,590 640.009434,590 L450.420335,590 L255.309224,590 C235.98218,590.46124 230,594.151163 230,613.523256 L230,613.523256 Z M652.894129,713.612403 C652.894129,722.375969 645.531447,729.755814 636.328092,729.755814 C627.124738,729.755814 619.762054,722.375969 619.762054,713.612403 C619.762054,704.848838 627.124738,697.468993 636.328092,697.468993 C645.531447,697.468993 652.894129,704.848838 652.894129,713.612403 Z M595.833333,616.751938 C598.134172,616.751938 600.43501,618.596899 600.43501,620.9031 L600.43501,797.0969 C600.43501,799.403101 598.59434,801.248062 595.833333,801.248062 L258.07023,801.248062 C256.22956,800.786822 254.849056,799.864342 254.388889,797.0969 L254.388889,739.903101 L254.388889,620.44186 C254.388889,618.135659 256.22956,616.290697 258.990566,616.290697 L595.833333,616.751938 Z" id="Shape" fill="#024252"></path>
                <path d="M434.808525,681 C434.808525,681 454.100177,676.667127 462.827352,662.368646 C462.827352,662.368646 457.315452,668.434668 449.047601,671.46768 C449.047601,671.46768 455.018826,666.701519 455.937476,664.101796 C455.937476,664.101796 439.861101,664.101796 427,672.334254 C427,672.334254 440.320425,657.169199 466.961277,658.035773 C467.420602,658.035773 464.205327,675.800553 434.808525,681 L434.808525,681 Z" id="Path" fill="#A26628"></path>
                <path d="M467,655.06195 C462.344827,652.811635 457.689655,651.686478 453.5,650.561321 C448.844828,649.436164 444.189655,648.873586 439.534482,649.436164 C430.224138,649.436164 421.37931,652.811635 413,659 C416.258622,655.06195 420.448276,651.1239 425.103449,649.436164 C429.758621,647.18585 434.413794,646.060693 439.534482,646.060693 C449.310345,645.498114 459.086207,648.873586 467,655.06195 Z" id="Path" fill="#A26628"></path>
                <path d="M479.843604,684 C478.294518,682.222223 476.745431,680 475.196345,677.777777 C474.16362,675.555556 473.130897,673.333333 472.098173,670.666667 C470.549086,665.777777 469,656 469,656 C469,656 477.778155,658.222223 480.876328,663.555556 C484.490864,669.333333 483.974501,675.555556 483.974501,675.555556 C483.974501,675.555556 481.909053,669.777777 479.327242,665.777777 C476.745431,661.777777 473.647259,661.333333 472.614535,660 C472.614535,660 473.647259,665.777777 474.679984,670.666667 C475.712707,676 477.778155,679.555556 479.843604,684 L479.843604,684 Z" id="Path" fill="#A26628"></path>
                <g opacity="0.1" transform="translate(437.000000, 602.000000)" fill="#C0E2C8" id="Path">
                    <polygon points="175.412648 93.0712016 175.412648 2.34752129 174.493918 1.88932089 175.412648 1.88932089 175.412648 0.972920103 81.7021843 0.972920103 72.974249 0.0565193139"></polygon>
                    <polygon points="170.818997 124.22883 38.0625078 5.09672375 3.61013167 0.972920103 0.394576462 4.63852336 175.412648 161.343062"></polygon>
                </g>
                <path d="M639.958258,588 L449.573503,588 L415,588 L444.502722,614.924336 L594.782215,614.924336 C597.087114,614.924336 599.392014,616.781186 599.392014,619.10225 L599.392014,753.723927 L667.61706,815 C668.53902,811.286299 669,806.179959 669,799.680982 L669,616.781186 C669,594.498978 662.0853,588 639.958258,588 Z M635.809438,728.19223 C626.589837,728.19223 619.214156,720.764827 619.214156,711.944786 C619.214156,703.124745 626.589837,695.697342 635.809438,695.697342 C645.029038,695.697342 652.404718,703.124745 652.404718,711.944786 C652.404718,721.229039 645.029038,728.19223 635.809438,728.19223 Z" id="Shape" fill="#0D4D5F"></path>
            </g>
        </g>
    </g>
</svg>
