<svg height="1205" viewBox="0 0 1205 1205" width="1205" xmlns="http://www.w3.org/2000/svg" xmlns:xlink="http://www.w3.org/1999/xlink"><linearGradient id="a" x1="50.003436%" x2="50.003436%" y1="100%" y2="0%"><stop offset="0" stop-color="#caaa6e"/><stop offset="1" stop-color="#a58c5b"/></linearGradient><linearGradient id="b"><stop offset="0" stop-color="#c88c66"/><stop offset="1" stop-color="#caaa6e"/></linearGradient><radialGradient id="c" cx="49.954435%" cy="49.983837%" r="49.983837%" xlink:href="#b"/><radialGradient id="d" cx="49.939003%" cy="49.983837%" r="49.983837%" xlink:href="#b"/><linearGradient id="e" x1="49.998435%" x2="49.998435%" y1="100.004135%" y2="-.006202%"><stop offset=".63" stop-color="#ecd2c2"/><stop offset="1" stop-color="#ceb6ab"/></linearGradient><mask id="f" fill="#fff"><circle cx="602.3" cy="602.3" fill="#fff" fill-rule="evenodd" r="602.3"/></mask><g fill="none" fill-rule="evenodd"><g fill-rule="nonzero"><circle cx="602.3" cy="602.3" fill="#1d9c42" r="602.3"/><path d="m77.9 305.8 1005 659.6c79.16593-104.476692 121.91376-232.017669 121.7-363.1 0-332.6-269.6-602.3-602.3-602.3-224.8 0-420.9 123.2-524.4 305.8z" fill="#1bb24b"/><path d="m173 179.8c-65.047581 65.988304-113.9846674 146.101394-143 234.1l979.4 632.2c68.28864-62.646992 121.22458-140.185996 154.7-226.6z" fill="#f1f2f2"/></g><g mask="url(#f)"><g transform="translate(18 297)"><g fill-rule="nonzero"><path d="m360.9 14.3c-67.8-25.8-147.8-10.8-212.9 50.2s-97.6 219.7-40.7 311.9-28.5 107.1-28.5 107.1 32.6 17.6 52.9-4.1c0 0 3.1 42.1-19 84.1-28.4 54.2-16.8 87.6 14.9 162.7 15 35.3 51.6 76 28.5 93.6l149.2-65.1 161.4-89.5-78.7-63.7-36.6-371.6z" fill="#281d0a"/><path d="m274.1 26.5s54.2-24.4 107.1-25.8 135.2 39.8 173.1 122.5-13.1 253.2-6.3 280.3 28.5 33.9 39.3 21.7c0 0-8.1 33.9-50.1 14.9 0 0-5.5 21.7 9.5 63.7s17.6 92.3 16.2 138.3c-2.7 93.6-99 145.1-89.5 165.5s24.4 10.8 24.4 10.8-6.7 19-32.5 9.5-38-74.6-38-74.6l-184.4-2.7-21.7-89.5z" fill="#281d0a"/><path d="m93.4 859.1 95-143.1s51.8 24.1 77.1 143.1h127.1c28-117.7 83.6-140.5 83.6-140.5l74.3 140.5h58.2l-125.8-245.5s11.5-19.9-28.5-33.2-77.9-37.4-77.9-65.8v-74.8h-97.1v74.8c0 28.4-25 41.9-65 55.2s-45 38-45 38l-142.7 251.3z" fill="url(#a)"/><path d="m501.9 224.5c0 138.5-49.1 251.6-175.4 251.6s-173.1-114.4-173.1-253 48.9-152.9 175.2-152.9 173.3 15.7 173.3 154.3z" fill="#caaa6e"/><path d="m281.5 305.1c0 19-15.7 34.4-34.9 34.4-19.013183-.220534-34.263532-15.783254-34.098563-34.797.164969-19.013747 15.683055-34.309511 34.697202-34.200108 19.014148.109402 34.355196 15.582722 34.301361 34.597108z" fill="#c88e2f"/><path d="m272.5 305.1c0 13.310062-10.789938 24.1-24.1 24.1s-24.1-10.789938-24.1-24.1 10.789938-24.1 24.1-24.1c6.391717 0 12.521647 2.5391 17.041273 7.058727 4.519627 4.519626 7.058727 10.649556 7.058727 17.041273z" fill="#3e2c09"/><path d="m238.3 292.6c.040418 2.849032-1.650083 5.438259-4.274709 6.54729-2.624627 1.10903-5.659562.516525-7.674334-1.498247s-2.607277-5.049707-1.498247-7.674334c1.109031-2.624626 3.698258-4.315127 6.54729-4.274709 3.810765 0 6.9 3.089235 6.9 6.9z" fill="#fff"/><path d="m251 389.5c23.8 14.4 49.3 23.4 75.2 23s50.9-10 75.7-23c-9.258775 10.837998-20.621627 19.683332-33.4 26-26.530198 13.485892-57.850279 13.745042-84.6.7-12.9-6.4-24.6-15.3-32.9-26.7z" fill="#3e2c09"/><path d="m249.3 366.9c0 13.104577-7.894007 24.918792-20.001057 29.933697-12.10705 5.014904-26.042868 2.242898-35.309203-7.023437s-12.038341-23.202153-7.023437-35.309203c5.014905-12.10705 16.82912-20.001057 29.933697-20.001057 17.871234.054904 32.345096 14.528766 32.4 32.4z" fill="url(#c)"/><path d="m456.3 366.9c0 13.104577-7.894007 24.918792-20.001057 29.933697-12.10705 5.014904-26.042868 2.242898-35.309203-7.023437s-12.038341-23.202153-7.023437-35.309203c5.014905-12.10705 16.82912-20.001057 29.933697-20.001057 17.871234.054904 32.345096 14.528766 32.4 32.4z" fill="url(#d)"/><path d="m374.8 305.1c-.1622 14.151003 8.237302 26.999059 21.264855 32.527174 13.027554 5.528115 28.103798 2.641763 38.168235-7.307323 10.064438-9.949086 13.124383-24.991057 7.746803-38.081468-5.377579-13.090411-18.12796-21.637453-32.279893-21.638383-9.211052-.079905-18.073743 3.516405-24.624618 9.992198-6.550874 6.475794-10.249106 15.296441-10.275382 24.507802z" fill="#c88e2f"/><path d="m383.8 305.1c.000084 9.756622 5.882739 18.550617 14.900575 22.274904s19.391475 1.643998 26.27609-5.269304c6.884616-6.913301 8.921753-17.2955 5.160003-26.297772-3.761751-9.002273-12.58013-14.848312-22.336668-14.807828-13.270993.055067-24.000114 10.828892-24 24.1z" fill="#3e2c09"/><path d="m385.1 292.6c0 3.865993 3.134007 7 7 7s7-3.134007 7-7-3.134007-7-7-7-7 3.134007-7 7z" fill="#fff"/><path d="m326.3 597.4c-54.3 0-58.9-59-59-59.6-.027912-.361754.096628-.718713.343516-.984592s.593656-.416483.956484-.415408c.345015-.027567.686779.083588.949569.308837.262789.225248.424906.545991.450431.891163 1.062184 10.246649 4.083642 20.193697 8.9 29.3 10.3 19 27 28.4 49.4 27.8 48.5-1.3 58.3-55.3 58.4-55.8.110457-.71797.78203-1.210457 1.5-1.1s1.210457.78203 1.1 1.5c-.1.6-10.2 56.7-60.9 58.1z" fill="#231c1e"/><path d="m42.7 842.8 133-126.8c17.9 24.7 41.5 91.2 47.9 143.1l205.7 54.3c9.1-42.1 27-199.4 27-199.4l80.8 145.1h87.8l-162.8-282-52.4-25.4s-9 95.9-77.7 101.3c-83 6.5-83.2-101.3-83.2-101.3s-74.1 43.4-79.6 45.2-148.2 260.4-148.2 260.4c45.2-10.9 21.7-14.5 21.7-14.5z" fill="#fef3f7"/><path d="m114.2 859.1 67.7-108.5s20.9 71.3 28.2 108.5l94.4 42.5 2.1-230.5c-72.3-5.5-79.5-115.7-79.5-115.7s-57.9 23.5-58.8 27.1c-1.7 6.8-114.4 189.6-168.2 276.6z" fill="#687167"/><path d="m442.1 944.1c3.1-22.7 6.8-93.5 11.4-142.2 2.9-30.6 7.7-50.4 7.7-50.4l103.3 173.6 92.8-4.2c-51.6-96.6-174-339-175.3-345.7l-56-19.8s-7.3 110.2-79.6 115.7l2.1 230.5z" fill="#687167"/><path d="m372.9 922-3.4-231.4c9.1-2.6 72.4-24.3 80-120.2.02749-.371525-.09423-.738686-.338218-1.020211-.243989-.281525-.590121-.454195-.961782-.479794-.735772-.001874-1.347447.56611-1.4 1.300005-8 100.8-78.3 117.9-79 118.1l-1.1.2 3.5 233.5z" fill="#fff"/><path d="m406 931.1-9.4-255.6-2.7 2.9 9.4 252.7z" fill="#fef3f7"/><path d="m282.2 690.6-2.9 202.6h2.7l3-204.7-1.1-.2c-.7-.2-71-17.2-79-118.1.001075-.362828-.149529-.709596-.415408-.956484s-.622838-.371428-.984592-.343516c-.371661.025594-.717793.198264-.961782.479789-.243988.281525-.365708.648686-.338218 1.020211 7.6 95.9 71 117.6 80 120.2z" fill="#fff"/><path d="m251.5 868.2 6.8-189.8-2.7-2.9-6.8 192.7z" fill="#fef3f7"/><path d="m308 559.200001c-.760261.000484-1.488037-.308202-2.01611-.855136-.528074-.546933-.811042-1.285088-.78389-2.044865" fill="#fffeef" opacity=".2"/><path d="m355.5 551.5c0-1.546397-1.253603-2.8-2.8-2.8-1.52446.051721-2.748279 1.27554-2.8 2.8" fill="#caaa6e"/><path d="m327.3 650.1c10.8 0 14.4-7.2 14.3-15.2s-8.5-20.9-11.5-28.8c-1.231008-3.105563-2.168435-6.319599-2.8-9.6 0 0-.2 2.5-2.5 8.8-3.2 8.8-12.3 22-11.7 31.2.4 7.2 4.2 13.6 14.2 13.6z" fill="#542f82"/><circle cx="327.3" cy="596.5" fill="#542f82" r="3.2" stroke="#231f20"/><path d="m328.8 613c-3.9 3.9-10.3 20.8-7.4 27.8 1.00954 2.432495 2.96479 4.349925 5.416538 5.311765 2.451749.961839 5.189211.885397 7.583462-.211765 2.6-1.6 6-6 4.3-14.9-1.235531-6.236199-3.792934-12.135275-7.5-17.3-1-1.2-1.3-1.7-2.4-.7z" fill="#6f2c87"/><circle cx="319.5" cy="641.5" fill="#fff" r="2.5"/><circle cx="324.9" cy="644.7" fill="#fff" r="1.5"/><path d="m356.1 624.3c7.4 0 9.8-4.8 9.7-10.3s-5.7-14.1-7.7-19.5c-.911702-2.083552-1.582708-4.264321-2-6.5-.311949 2.063563-.88313 4.079498-1.7 6-2.2 5.9-8.3 14.9-7.9 21.1s2.8 9.2 9.6 9.2z" fill="#542f82"/><circle cx="356.1" cy="588" fill="#542f82" r="2.2" stroke="#231f20"/><path d="m357.2 599.2c-2.7 2.6-7 14.1-5.1 18.8.702693 1.655744 2.041616 2.959414 3.715516 3.617689 1.673899.658275 3.542179.615864 5.184484-.117689 1.7-1.1 4-4 2.8-10.1-.79116-4.249404-2.497275-8.275835-5-11.8-.7-.8-.9-1.1-1.6-.4z" fill="#6f2c87"/><circle cx="350.9" cy="618.5" fill="#fff" r="1.7"/><circle cx="354.5" cy="620.7" fill="#fff" r="1"/><path d="m298.8 625.9c7.4 0 9.8-4.9 9.7-10.4s-5.7-14.1-7.7-19.4c-.835272-2.111154-1.503981-4.284461-2-6.5-.322089 2.029047-.893061 4.010655-1.7 5.9-2.2 5.9-8.3 14.9-7.9 21.2.3 4.8 2.8 9.2 9.6 9.2z" fill="#542f82"/><circle cx="298.8" cy="589.6" fill="#542f82" r="2.2" stroke="#231f20"/><path d="m299.9 600.7c-2.7 2.7-7 14.1-5.1 18.9.699554 1.656767 2.044892 2.95632 3.724878 3.598113 1.679987.641792 3.549118.570239 5.175122-.198113 1.7-1 4-4 2.8-10.1-.783211-4.221078-2.490687-8.216572-5-11.7-.7-.8-.9-1.2-1.6-.5z" fill="#6f2c87"/><circle cx="293.6" cy="620" fill="#fff" r="1.7"/><circle cx="297.2" cy="622.2" fill="#fff" r="1"/><path d="m279.4 592.5c4.2 0 5.6-2.8 5.6-6s-3.4-8.2-4.5-11.3c-.540719-1.174761-.911115-2.42064-1.1-3.7-.221932 1.163166-.556853 2.301897-1 3.4-1.3 3.5-4.9 8.7-4.6 12.3s1.6 5.3 5.6 5.3z" fill="#542f82"/><path d="m280 577.9c-1.6 1.6-4.1 8.2-3 11 .4159.962077 1.201542 1.716255 2.179804 2.09251s2.066796.342912 3.020196-.09251c1-.6 2.3-2.4 1.6-5.9-.456159-2.45195-1.446232-4.7735-2.9-6.8-.4-.5-.5-.7-.9-.3z" fill="#6f2c87"/><circle cx="276.3" cy="589.1" fill="#fff" r="1"/><circle cx="278.4" cy="590.4" fill="#fff" r="1"/><path d="m375 592.5c4.2 0 5.6-2.8 5.6-6s-3.4-8.2-4.5-11.3c-.540719-1.174761-.911115-2.42064-1.1-3.7-.221932 1.163166-.556853 2.301897-1 3.4-1.3 3.5-4.9 8.7-4.6 12.3s1.6 5.3 5.6 5.3z" fill="#542f82"/><path d="m375.6 577.9c-1.6 1.6-4.1 8.2-3 11 .4159.962077 1.201542 1.716255 2.179804 2.09251s2.066796.342912 3.020196-.09251c1-.6 2.3-2.4 1.6-5.9-.456159-2.45195-1.446232-4.7735-2.9-6.8-.4-.5-.5-.7-.9-.3z" fill="#6f2c87"/><circle cx="371.9" cy="589.1" fill="#fff" r="1"/><circle cx="374" cy="590.4" fill="#fff" r="1"/><path d="m392.1 173s21.7-5.5 39.3 9.4 24.4 62.4-6.8 70.6c0 0 48.8 8.1 53.8-48.4s-79.5-65.5-86.3-31.6z" fill="#3a2c1c"/><path d="m379 72.6 14.4 98.1s29.9-8.1 54.3 1.4 47.4 29.2 18 103c-18 45.3-46.1 148.4-15.3 208.4 25.7 50.2 85.9 19.4 85.9 19.4s-61.5 17.2-56.1-33 130.2-291.5 19.9-386.4c-57.8-49.8-121.1-10.9-121.1-10.9z" fill="#3a2c1c"/><path d="m384.4 74.4 7.7 96.3s-28.5-35.3-71.9-8.1-24.4 89-119.3 102.6c0 0-5.5 90.8-59.7 99s-71.9-17.7-71.9-17.7 23.1 17.7 52.9-14.9-6.8-166.8 55.6-246.8c62.4-80 195.7-45.6 206.6-10.4z" fill="#3a2c1c"/><path d="m392.1 170.7c-.234719-1.225235-.569165-2.429242-1-3.6-1.089186-3.264921-2.566424-6.387264-4.4-9.3-2.777893-4.548563-6.292443-8.603813-10.4-12-5.241597-4.408017-11.238437-7.829943-17.7-10.1-7.592955-2.800656-15.53313-4.550186-23.6-5.2-4.3-.4-8.7-.5-13.4-.5-4.609089-.008674-9.215446.224982-13.8.7-9.504533 1.026828-18.805063 3.453053-27.6 7.2-8.902353 3.919018-16.850993 9.718454-23.3 17-6.382857 7.395189-11.212073 15.999356-14.2 25.3-1.585403 4.558988-2.78954 9.241741-3.6 14-.4 2.4-.8 4.7-1 7.1s-.5 4.8-.9 7.4c-1.316697 9.644628-4.473907 18.946518-9.3 27.4-4.245458 7.680948-10.198525 14.284062-17.4 19.3-6.023803 4.230853-12.931634 7.035022-20.2 8.2-5.502643.902078-11.120688.83439-16.6-.2-3.450845-.690967-6.831505-1.695124-10.1-3l-3.4-1.6 3.5 1.2c3.34625.872462 6.757245 1.474403 10.2 1.8 5.296608.499025 10.639513.093235 15.8-1.2 6.598753-1.642583 12.770032-4.677079 18.1-8.9 6.245833-4.976613 11.330732-11.255951 14.9-18.4 4.000283-7.984882 6.54027-16.620838 7.5-25.5.3-2.2.5-4.8.7-7.2s.5-5 .8-7.6c.784794-5.179898 1.954704-10.294073 3.5-15.3 3.253222-10.322234 8.559489-19.880318 15.6-28.1 7.289885-8.13542 16.264661-14.584974 26.3-18.9 9.535364-4.019186 19.674642-6.418815 30-7.1 4.887415-.430257 9.796419-.563836 14.7-.4 4.653811.175914 9.294277.609915 13.9 1.3 4.384625.586873 8.726933 1.455334 13 2.6 4.007346 1.08071 7.920228 2.485334 11.7 4.2 3.527102 1.561389 6.907272 3.435543 10.1 5.6 2.82153 1.964407 5.465026 4.172897 7.9 6.6 4.031468 3.869146 7.319182 8.444831 9.7 13.5 1.551609 3.17616 2.69406 6.536312 3.4 10 .270797 1.220805.471128 2.45618.6 3.7z" fill="#745b45"/><path d="m400.7 166.6c.897879-1.127042 1.866499-2.195864 2.9-3.2 2.987788-2.858906 6.312196-5.343817 9.9-7.4 5.596355-3.239513 11.672206-5.568589 18-6.9 8.24163-1.793702 16.724841-2.199273 25.1-1.2 9.2 1 19.4 3.7 28.6 9.7 9.902095 6.204711 17.410152 15.580971 21.3 26.6 4.1 11.4 4.5 24.1 2.5 36.2-1.050933 6.103422-2.555095 12.120071-4.5 18l-5.8 17.1c-3.9 11.3-7.7 22.7-11.4 34s-7.4 22.3-10.8 33-6.7 21.1-9.7 31-5.7 19.2-8 27.9c-4.7 17.4-8 32-9.2 42.5-.580562 3.973521-.681285 8.002432-.3 12 .10911 1.090098.344006 2.163908.7 3.2.111804.341547.245412.675567.4 1l-.5-1c-.437275-.99687-.772323-2.035518-1-3.1-.854389-4.0405-1.157145-8.178168-.9-12.3.3-10.6 2.5-25.6 6.4-43.3 1.9-8.9 4.1-18.5 6.7-28.5s5.4-20.6 8.6-31.5 6.5-22 10.1-33.3 7.4-22.8 11.2-34.2l5.9-17.1c1.818834-5.460225 3.255635-11.04036 4.3-16.7 1.8-11.1 1.7-22.5-1.6-32.5-3.183775-9.686559-9.431265-18.075043-17.8-23.9-8.1-5.6-17.2-8.5-25.8-10-7.892862-1.401736-15.95542-1.570408-23.9-.5-6.156739.904176-12.151439 2.689115-17.8 5.3-3.686182 1.714186-7.173623 3.82677-10.4 6.3-1.138355.848082-2.208314 1.784297-3.2 2.8z" fill="#745b45"/><path d="m397 143.1s-.1-1.4-.6-4.2c-.668009-3.908529-1.535813-7.78027-2.6-11.6-1.683654-5.923197-3.823382-11.707148-6.4-17.3-3.218179-7.214534-7.425239-13.94583-12.5-20-5.838207-7.1145413-13.091657-12.9377331-21.3-17.1-4.405811-2.3137424-9.07219-4.0930093-13.9-5.3-2.4-.8-5-1.1-7.5-1.7s-5.3-.7-7.9-.8l-4.1-.3h-4l-8.2.3c-5.470446.5203663-10.888754 1.4903103-16.2 2.9-10.812982 2.9388562-20.916953 8.0418721-29.7 15-8.757409 7.1483823-16.231265 15.7382444-22.1 25.4-5.758052 9.411841-10.358041 19.48481-13.7 30-3.109589 9.948331-5.318481 20.156086-6.6 30.5-.5144 5.00234-1.282052 9.975389-2.3 14.9-1.058995 4.622805-2.531593 9.141003-4.4 13.5-1.87785 4.074987-4.299944 7.87633-7.2 11.3-2.634478 3.027814-5.782789 5.566775-9.3 7.5-5.662611 3.093675-12.050923 4.613057-18.5 4.4-4.064028-.125719-8.095917-.764102-12-1.9-1.35962-.347837-2.695666-.782052-4-1.3l4.1.9c3.901171.615541 7.856514.816661 11.8.6 6.026049-.366382 11.867122-2.221782 17-5.4 5.7-3.7 10.6-10 13.6-17.9 1.519884-4.154502 2.657925-8.438893 3.4-12.8.8-4.4 1.2-9.4 1.6-14.4.867028-10.832657 2.809935-21.552144 5.8-32 1.6-5.4 3.6-10.9 5.8-16.3 2.379838-5.42475 5.08475-10.700999 8.1-15.8 6.288112-10.5003723 14.378668-19.8095896 23.9-27.5 9.655418-7.6363416 20.790019-13.1866164 32.7-16.3 5.805797-1.4354792 11.730267-2.3392119 17.7-2.7 2.92973-.182801 5.866873-.2161777 8.8-.1l4.4.2 4.2.4c2.9.2 5.6.8 8.4 1.2s5.5 1.2 8.2 2.1c5.183897 1.5438232 10.180988 3.6566874 14.9 6.3 4.465325 2.5137231 8.626103 5.5336428 12.4 9 3.513182 3.2002449 6.726546 6.714861 9.6 10.5 4.919386 6.5992847 8.860049 13.874355 11.7 21.6 2.219663 5.874682 3.926046 11.930671 5.1 18.1.779323 3.929693 1.313687 7.90402 1.6 11.9.2 2.7.2 4.2.2 4.2z" fill="#745b45"/><path d="m925.9 549.1c-.2-2.7-7.5-19.5-7.5-19.5s-10.9-11.4-74.5-11.4-74.4 11.4-74.4 11.4-7.3 16.8-7.6 19.5l69.9 73.3s5.4-7.6 12.1-18.8c6.8 11.2 12.2 18.8 12.2 18.8z" fill="#2a2b2d"/><path d="m626.4 706s-19.9 4.9-23.6 11.4 5.7 22.5 23.6 31.4 39.6 19.9 46.4 15.5-3.4-29.2-3.4-29.2z" fill="#2a2b2d"/><path d="m1055.8 706s19.9 4.9 23.6 11.4-5.7 22.5-23.6 31.4-40.6 21.1-45.8 16.8c-3.1-2.6 2.8-30.5 2.8-30.5z" fill="#2a2b2d"/><path d="m555.2 923.6 139.4-195.7 14.6 149.1h260.1c13.3-137.1 16.8-159.7 16.8-159.7l85.5 159.7h64l-112.3-260.1s-5.9-26-47.6-39.9-79.4-29.6-79.4-59.2v-77.9h-101.2v77.9c0 29.6-37.4 43.7-79 57.6s-46.9 39.7-46.9 39.7l-172.5 295.2z" fill="url(#e)"/><path d="m667.8 651.7c2.143746 2.171329 3.693333 4.85728 4.5 7.8.920983 2.811825.81468 5.859186-.3 8.6-.313096.684221-.716706 1.323272-1.2 1.9-.490381.608983-1.062442 1.147393-1.7 1.6-1.102572 1.05275-2.496257 1.749592-4 2-1.613323.33141-3.289616.156796-4.8-.5-1.683129-.583558-2.960505-1.973644-3.4-3.7v-.6h-1v.6c-.3324 1.222809-.262274 2.520146.2 3.7.521699 1.168318 1.269387 2.221879 2.2 3.1 1.894817 1.79958 4.309734 2.95454 6.9 3.3 2.70219.280439 5.430159-.168468 7.9-1.3 1.215177-.557896 2.35709-1.263195 3.4-2.1 1.097157-.82348 2.1029-1.762174 3-2.8 1.74424-2.2252 2.942933-4.828075 3.5-7.6.578656-2.625684.713856-5.32969.4-8-.671506-5.32474-2.897594-10.333438-6.4-14.4l-1.4-1.4c-4.851255 1.747043-9.593136 3.784048-14.2 6.1 2.381592.742844 4.567848 2.006774 6.4 3.7z" fill="#494d4e"/><path d="m682.5 682.1c-1.57609 1.625049-3.48698 2.887601-5.6 3.7-2.081061.761476-4.284265 1.134326-6.5 1.1-2.197329-.088349-4.377726-.423795-6.5-1-2.033017-.584174-4.008001-1.354083-5.9-2.3l-2.9-1.5-.8 3.9c-.285215 4.199023-3.096421 7.802119-7.1 9.1-1.878801-3.37316-3.419623-6.92375-4.6-10.6-2.164772-6.370235-3.180556-13.074412-3-19.8-3.090458 3.525352-5.620057 7.505253-7.5 11.8.815274 3.62757 1.953134 7.175016 3.4 10.6 1.378759 3.241471 2.982677 6.382477 4.8 9.4h-2.8c-3.260673.032974-6.514635-.302486-9.7-1-1.699984-.422992-3.370265-.957482-5-1.6l-6.3 10.8c1.968333.645697 3.971513 1.179878 6 1.6 4.5.7 12.5 1.1 15.9.6 2.771779-.486649 5.486089-1.257379 8.1-2.3l3.4 4.1c.402924.557337.836946 1.091518 1.3 1.6-4.5 2-10.9 3.4-18.6 4.4-16 2.1-27.4 10.3-31.7 21.7-2.3 6.1-3 13.4-3 20.1-4.6.1-8.7.3-12 .7l-6.9 11.8 7.1-1.8s5-.9 12.1-1.7c.5 5.5 1.1 9.3 1.1 9.3-4.9-1.3-14.7-1.2-17 9.8-3.1 14.2 15.5 13.7 15.5 13.7-5.5-1.7-10-9.1-6.3-11.2 6.5-3.6 10.4-.3 9.9 8.5s-10.9 13.9-16.4 15.9c-.207891-1.146364-.474914-2.281212-.8-3.4l-.6-1.8c1.213956-.866985 2.321585-1.87392 3.3-3-1.103918.858143-2.274266 1.627229-3.5 2.3-1.003925-2.775091-2.383426-5.399507-4.1-7.8-1-1.7-1.9-2.9-2.9-4.4s-1.8-2.9-2.6-4.4-2-4-2.9-6.1l-4.7 8 1.5 2.1 3.6 4.3 3.8 3.9c1.685216 1.757365 3.161679 3.703611 4.4 5.8h-.3c-2.813109.517024-5.699833.483063-8.5-.1l-2.4-.5.9 2.7c1.498713 3.883942 2.146629 8.044242 1.9 12.2-.165712 1.792469-.785178 3.51321-1.8 5-1.007498 1.474194-2.299468 2.732165-3.8 3.7-3.006429 1.894666-6.569636 2.70609-10.1 2.3-3.51721-.435349-6.860329-1.779489-9.7-3.9l-1.1-.7-6.2 10.7 1.3.7c4.910641 2.380278 10.354009 3.44828 15.8 3.1 5.501753-.374556 10.716258-2.594243 14.8-6.3 1.9922-1.863617 3.590385-4.107876 4.7-6.6 1.0829-2.486152 1.562616-5.193124 1.4-7.9-.454572-3.970282-1.605519-7.82934-3.4-11.4 2.261076-.1079 4.489834-.580667 6.6-1.4l.6-.3.6 1.2c.485352.96371.886834 1.967416 1.2 3h.1c2.001958 5.571453 2.518913 11.568127 1.5 17.4 2.00446-5.744071 2.520524-11.902439 1.5-17.9 24-4.4 26.1-20.4 25.1-34.8l19.5-4.1-20.2-2.3c-.2-2.2-.4-4.3-.6-6.2 3.5-.2 7.2-.4 10.9-.4h5.4l6.2.2 9.3.8c6.2.8 12.3 1.9 18.4 3.3-5.87717-2.240721-11.888945-4.111051-18-5.6l-3.5-.9c11.5-4.1 15.6-13.6 13.5-25.2 0 0-1.6 13.5-10.2 17.5-5.1 2.4-18.9 2.3-32.1 2.3 1.2-13.4 8.1-18.6 12.7-19.3s9.8 1 8.4 6.4-10.3 5.1-10.3 5.1c6.8 2.8 17.8-1.1 18.3-10.5s-8-10.9-8-10.9c2.8-2.9 19.2-6.2 25.1-11.1 2.443372 4.351707 4.133835 9.085005 5 14 1.2 7.9-.4 16.4-5.5 22.9l-.3.5.8.8.4-.5c6-6.3 8.7-15.3 8-24.1-.59855-6.220323-2.398486-12.265391-5.3-17.8 1.134581-2.823805 1.412812-5.919126.8-8.9-.42243 1.893525-1.571578 3.545425-3.2 4.6l-1.4-2.2c-.8-1.3-1.7-2.5-2.6-3.7 2.074262-1.389157 3.871589-3.152572 5.3-5.2 1.304491-2.273553 2.121802-4.793595 2.4-7.4l3.9.5c2.436427.199802 4.888183.099045 7.3-.3 2.427847-.425866 4.762827-1.271874 6.9-2.5 1.994143-1.261728 3.698248-2.931751 5-4.9z" fill="#494d4e"/><path d="m855.2 877 88.6-323s-23.7-7.2-29.6-14c0 0-19.1 31.5-65 31.6s-65-31.6-65-31.6c-6 6.8-29.7 14-29.7 14l24.8 323z" fill="#efeff0"/><path d="m854.3 740.1.9-1.6h-1.8z" fill="#efeff0"/><path d="m844.1 740.1.9-1.6h-1.9z" fill="#efeff0"/></g><path d="m772.5 567.3s29.1 23.2 72.9 23.2 83.2-39.4 83.2-39.4" fill="none" stroke="#d1d2d3"/><path d="m1027.1 215.4c0 144.4-51.2 262.3-182.9 262.3s-180.4-119.3-180.4-263.7 122.5-163.3 182.6-163.3 180.7 20.2 180.7 164.7z" fill="#ecd2c2" fill-rule="nonzero"/><path d="m802.9 307.9c.162184 14.717294-8.578457 28.075861-22.129188 33.820661-13.550732 5.744799-29.229159 2.738637-39.693988-7.610876-10.464828-10.349513-13.644522-25.99367-8.050217-39.607222 5.594305-13.613553 18.855205-22.501669 33.573393-22.502563 9.57436-.05319 18.777692 3.699273 25.585295 10.431861 6.807602 6.732587 10.661808 15.893778 10.714705 25.468139z" fill="#4b89ac" fill-rule="nonzero"/><path d="m793.6 307.9c0 13.862347-11.237653 25.1-25.1 25.1s-25.1-11.237653-25.1-25.1 11.237653-25.1 25.1-25.1c6.656934 0 13.041217 2.644457 17.74838 7.35162s7.35162 11.091446 7.35162 17.74838z" fill="#2a1d01" fill-rule="nonzero"/><path d="m758 294.9c0 2.952574-1.778588 5.614419-4.506411 6.744321-2.727823 1.129901-5.867683.505344-7.955469-1.582441-2.087785-2.087786-2.712342-5.227646-1.582441-7.955469 1.129902-2.727823 3.791747-4.506411 6.744321-4.506411 4.031679 0 7.3 3.268321 7.3 7.3z" fill="#fff" fill-rule="nonzero"/><path d="m765.5 387.4c24.9 15.1 51.5 24.4 78.4 24s53.1-10.5 79-24c-9.665069 11.343063-21.539921 20.597962-34.9 27.2-27.63565 14.054083-60.275493 14.276375-88.1.6-13.5-6.6-25.8-15.8-34.4-27.8z" fill="#7b6f68" fill-rule="nonzero"/><path d="m891.8 307.9c-.162184 14.717294 8.578457 28.075861 22.129188 33.820661 13.550732 5.744799 29.229159 2.738637 39.693988-7.610876 10.464828-10.349513 13.644522-25.99367 8.050217-39.607222-5.594305-13.613553-18.855205-22.501669-33.573393-22.502563-9.57436-.05319-18.777692 3.699273-25.585295 10.431861-6.807602 6.732587-10.661808 15.893778-10.714705 25.468139z" fill="#4b89ac" fill-rule="nonzero"/><path d="m901.1 307.9c0 13.862347 11.237653 25.1 25.1 25.1s25.1-11.237653 25.1-25.1-11.237653-25.1-25.1-25.1c-13.83958.054811-25.045189 11.26042-25.1 25.1z" fill="#2a1d01" fill-rule="nonzero"/><path d="m902.5 294.9c0 2.952574 1.778588 5.614419 4.506411 6.744321 2.727823 1.129901 5.867683.505344 7.955469-1.582441 2.087785-2.087786 2.712342-5.227646 1.582441-7.955469-1.129902-2.727823-3.791747-4.506411-6.744321-4.506411-4.031679 0-7.3 3.268321-7.3 7.3z" fill="#fff" fill-rule="nonzero"/><path d="m844.2 477.7c131.7 0 182.9-117.9 182.9-262.3 0-5.2-.2-10.1-.5-15h-22c10.5 101.6-24.6 168.1-41.2 176.9s-19.3-1.8-34.4-9.6-70.7-8.8-86.5-8.8-71.7 1.1-86.5 8.8-17.7 18.3-34.3 9.6-51.7-75.3-41.2-176.9h-16.3c-.3 4.4-.4 8.9-.4 13.6 0 144.4 48.7 263.7 180.4 263.7zm-80.6-96c9.7-4.4 31.7 15.9 78.9 15.9s69.2-20.3 79-15.9 12.1 20.6-10.6 45.2c-19.2 20.6-54.7 21.1-68.4 21.1s-49.2-.5-68.3-21.1c-22.8-24.6-20.4-40.9-10.6-45.2z" fill="#e2c9bb" fill-rule="nonzero"/><path d="m764.8 536.4c-8.4 16.9 80.1 172.1 80.1 172.1l.4 172.6-137.2 30-16.1-174.4-20 28.9s2.6-2.1-1.1-8.8-48.3-38.8-63.9-39.5c-4.7-.2-5 1.4-5 1.4l75.6-135z" fill="#0095da" fill-rule="nonzero"/><path d="m936.9 545.7c8.3 17-92 162.8-92 162.8l-8.3 168.5h140.4l13-140.3 20 28.9s-1.9-1.8 1.1-8.8c4.5-8.1 48.3-38.8 63.9-39.5 4.6-.2 5 1.4 5 1.4l-75.6-135z" fill="#0095da" fill-rule="nonzero"/><path d="m745.3 903 61.9-12.2c-8-77.5-27.9-259.1-44.4-354l-61.5 34c9.2 45.7 30.3 175.7 44 332.2z" fill="#a4d5e0" fill-rule="nonzero"/><path d="m943.8 877h-63.6c8-77.5 34.2-241.2 50.7-336.1l53.3 30.9c-9.2 45.7-26.7 148.8-40.4 305.2z" fill="#a4d5e0" fill-rule="nonzero"/><path d="m806.3 890.5-30.9-261.5 1.9-.2 30.9 261.5z" fill="#6ecaea" fill-rule="nonzero"/><path d="m744.6 903.9h1.9c-.3-2.1-25.4-237.1-44.6-333.3l-1.8.9c17.3 96.7 43.8 327.3 44.5 332.4z" fill="#6ecaea" fill-rule="nonzero"/><path d="m771.253951 750.517855h254.299999v1.92h-254.299999z" fill="#6ecaea" fill-rule="nonzero" transform="matrix(.14090123 -.99002366 .99002366 .14090123 27.836873 1535.034865)"/><path d="m984.8 572.1-1.7-1c-20.7 100.9-41.2 303.7-41.4 305.8h1.9c.4-4.4 20.7-204.4 41.2-304.8z" fill="#6ecaea" fill-rule="nonzero"/><path d="m918.3 529.6 36.1 22.4-3.8 35.7h-21.7l15.1 21.9-99.1 98.9z" fill="#0095da" fill-rule="nonzero"/><path d="m769.5 529.6-36.2 22.4 3.8 35.7h21.8l-15.1 21.9 101.1 98.9z" fill="#0095da" fill-rule="nonzero"/><path d="m843.4 877-.4-170.4 1.9 1.9 1.9-1.9.5 170.4z" fill="#126a98" fill-rule="nonzero"/><path d="m769.5 529.6-36.2 22.4 3.8 35.7 44.6-29.1z" fill="#a4d5e0" fill-rule="nonzero"/><path d="m918.3 529.6 36.1 22.4-3.8 35.7-44.6-29.1z" fill="#a4d5e0" fill-rule="nonzero"/><path d="m733.3 552c.8 5.9 1.5 11.9 2.3 17.8l2.1 17.9-.6-.5 21.8-.2h1.4l-.8 1.3c-4.9 7.3-10 14.6-15 21.9v-1.2l25.3 24.7 25.2 24.8c8.5 8.3 16.8 16.7 25.1 25l12.5 12.5 12.4 12.6-12.8-12.1-12.9-12.2-25.5-24.5-25.4-24.8c-8.5-8.2-16.9-16.5-25.3-24.8l-.5-.5.4-.6c5.1-7.3 10.1-14.6 15.2-21.8l.7 1.2-21.8-.2h-.5v-.5c-.6-6-1.1-11.9-1.7-17.9s-1.1-11.9-1.6-17.9z" fill="#126a98" fill-rule="nonzero"/><path d="m954.4 552c-.6 6-1.1 11.9-1.7 17.9l-1.8 17.9v.5h-.5l-21.7.2.6-1.2c5.2 7.2 10.2 14.5 15.2 21.8l.5.6-.6.5c-8.2 8.3-16.3 16.6-24.6 24.8l-24.8 24.7-25 24.5-12.5 12.2-12.6 12.1 12.1-12.6 12.2-12.5c8.1-8.3 16.3-16.7 24.5-24.9l24.6-24.9 24.8-24.6-.2 1.1-14.9-21.9-.9-1.3h1.5l21.7.2-.5.5c.7-6 1.4-11.9 2.2-17.9z" fill="#126a98" fill-rule="nonzero"/><path d="m1034.2 200.4c-.6-17.5-.9-35.5-5.2-51.5-2.8-10.1-8.2-18.8-12.8-28-7.2-14.2-15.4-29.3-28-40.4-6.6-5.9-15.4-11-23.8-15.8-10.9-6.3-22.3-15.7-36.5-19.9-11.5-3.4-25.2-3.9-39.1-5.8-9.7-2.1-17.4-5.4-32.3-5.4-2.2.1-15.4 2.2-17.7 2.2-14.9 0-27 1.1-36.7 3.2-14.8 2-29.5-.4-41.5 3.3-18.2 5.6-32.1 20.3-44.9 29.2-9.4 6.6-22.9 15.9-29.7 24-15.4 18.1-23.1 39.6-28.2 63.1-2.9 13.4-.6 27.4-1.1 41.8-3 86.5 21.6 135.8 21.6 135.8 17.9-13.2 1-57.4-1.5-86.4s28.9-83.7 53.5-93.4c20.4-8 73.9 12.3 115.2 12.2s94.7-20.2 115.1-12.2c24.6 9.7 56 64.5 53.5 93.4s-19.4 73.2-1.5 86.4c0 0 24.6-49.3 21.6-135.8z" fill="#5f4c30" fill-rule="nonzero"/><path d="m793.1 529.1c-3.8 5.6-4.9 12.1-3.1 19.3 3.9 15.4 19.1 65 54 65h1.1c24.9-.7 43.5-22 55.2-63.2 2.4-8.2 1.2-15.4-3.4-21.6 0 0-1.3-1.4-.5-9 1.776849 1.765288 3.446498 3.635295 5 5.6 5.8 7.6 7.3 16.6 4.5 26.6-12.5 43.9-32.9 66.5-60.6 67.3h-1.3c-39 0-55.4-53-59.5-69.4-2.4-9.5-.8-18 4.9-25.3 1.693241-2.126197 3.60357-4.07004 5.7-5.8 0 0 0 .8-.1 1.9s-.2 2-.4 3.1-.1.5-.1.8c-.355881 1.597557-.823702 3.1681-1.4 4.7z" fill="#eebc0a" fill-rule="nonzero"/><path d="m844 616.1h-3.2c-.528405-.097625-.908943-.562727-.9-1.1.025095-.239308.144973-.458603.332866-.608917.187893-.150315.428154-.219131.667134-.191083h3.8c.497056 0 .9.402944.9.9.028569.255488-.053483.510999-.225461.702086-.171977.191086-.417463.299506-.674539.297914zm5.5-.4c-.482761.009736-.903526-.326877-1-.8-.062147-.519486.286638-.999066.8-1.1 1.248156-.094378 2.485981-.295106 3.7-.6.523247-.127947 1.053817.181552 1.2.7.058702.26575.006554.543945-.144411.770393-.150965.226447-.387704.381582-.655589.429607-1.2.2-2.5.5-3.8.6zm-13.4-.4h-.2c-1.256758-.239672-2.493612-.573957-3.7-1-.247094-.067343-.453794-.236768-.568328-.465836s-.126053-.496083-.031672-.734164c.067343-.247094.236768-.453794.465836-.568328s.496083-.126053.734164-.031672l3.6 1c.241787.047496.453527.19205.585817.399935.132291.207885.173561.460918.114183.700065-.135747.433309-.5464.720766-1 .7zm21.7-1.5c-.391613-.006492-.743387-.241008-.9-.6-.147984-.522005.106758-1.073945.6-1.3l3.5-1.3c.303676-.142906.660523-.112948.936122.07859.275598.191538.428077.515556.4.85-.028078.334444-.232446.628504-.536122.77141-1.2.6-2.4 1-3.7 1.5zm-29.8-1.4h-.4l-3.4-1.9c-.221924-.123883-.381121-.335825-.438271-.583476-.057151-.247651-.006925-.507921.138271-.716524.261974-.452878.82875-.62727 1.3-.4 1.056514.676499 2.159226 1.277978 3.3 1.8.417367.289095.582656.826282.4 1.3-.198673.30544-.535705.49268-.9.5zm37.6-2.2c-.333467-.022504-.633646-.210116-.8-.5-.245929-.446462-.116701-1.006452.3-1.3l3.2-2c.19592-.154177.447016-.220178.693426-.182269s.466056.176332.606574.382269c.281897.453369.197565 1.043697-.2 1.4l-3.3 2.1zm-44.9-2.3c-.220433.032635-.443234-.041632-.6-.2-1-.7-2-1.6-3-2.4-.381143-.388844-.381143-1.011156 0-1.4.15569-.190991.38288-.309794.628562-.328693s.488369.063761.671438.228693c.916664.858567 1.885151 1.660073 2.9 2.4.397565.356303.481897.946631.2 1.4-.21535.203709-.503804.311879-.8.3zm51.9-2.7c-.382213-.041649-.706702-.298738-.834664-.661295-.127961-.362557-.036731-.766371.234664-1.038705l2.8-2.5c.358985-.358985.941015-.358985 1.3 0s.358985.941015 0 1.3c-.917882.951015-1.885929 1.8523-2.9 2.7zm-58.3-3c-.261611-.01346-.509832-.11984-.7-.3l-2.6-2.9c-.331371-.441828-.241828-1.068629.2-1.4.183069-.164932.425756-.247592.671438-.228693s.472872.137702.628562.328693c.8 1 1.7 1.9 2.5 2.8.381143.388844.381143 1.011156 0 1.4-.177442.19866-.433769.308514-.7.3zm64.4-3.1c-.220433.032635-.443234-.041632-.6-.2-.365408-.382012-.407402-.96993-.1-1.4l2.4-2.9c.360964-.41024.984392-.45477 1.4-.1.190991.15569.309794.38288.328693.628562s-.063761.488369-.228693.671438c-.8 1.133333-1.6 2.133333-2.4 3-.21535.203709-.503804.311879-.8.3zm-69.9-3.5c-.30825-.025257-.594845-.168555-.8-.4l-2.2-3.2c-.154177-.19592-.220178-.447016-.182269-.693426s.176332-.466056.382269-.606574c.453369-.281897 1.043697-.197565 1.4.2.675973 1.072867 1.410414 2.107762 2.2 3.1.281897.453369.197565 1.043697-.2 1.4zm75.2-3.3h-.5c-.22812-.143594-.38861-.373199-.445089-.636767-.056479-.263567-.004163-.538774.145089-.763233l2.1-3.1c.123883-.221924.335825-.381121.583476-.438271.247651-.057151.507921-.006925.716524.138271.221924.123883.381121.335825.438271.583476.057151.247651.006925.507921-.138271.716524l-2.1 3.2c-.199178.228272-.499838.341019-.8.3zm-80-3.9c-.333467-.022504-.633646-.210116-.8-.5-.7-1.1-1.3-2.2-1.9-3.3-.145196-.208603-.195422-.468873-.138271-.716524.05715-.247651.216347-.459593.438271-.583476.221384-.13822.491867-.173531.741316-.096778.249449.076754.453295.258012.558684.496778l1.9 3.2c.149252.224459.201568.499666.145089.763233-.056479.263568-.216969.493173-.445089.636767zm84.5-3.4h-.4c-.238766-.105389-.420024-.309235-.496778-.558684-.076753-.249449-.041442-.519932.096778-.741316l1.8-3.4c.289095-.417367.826282-.582656 1.3-.4.238766.105389.420024.309235.496778.558684.076753.249449.041442.519932-.096778.741316l-1.8 3.4c-.220219.26769-.553733.415919-.9.4zm-88.6-4.2c-.364295-.00732-.701327-.19456-.9-.5l-1.7-3.5c-.098335-.224883-.100559-.480171-.006158-.706733.0944-.226562.277236-.404741.506158-.493267.221384-.13822.491867-.173531.741316-.096778.249449.076754.453295.258012.558684.496778.472764 1.16086 1.00685 2.295792 1.6 3.4.13822.221384.173531.491867.096778.741316-.076754.249449-.258012.453295-.496778.558684zm92.6-3.4h-.4c-.49066-.226946-.712124-.802752-.5-1.3.5-1.1 1.1-2.3 1.6-3.5.088526-.228922.266705-.411758.493267-.506158.226562-.094401.48185-.092177.706733.006158.49066.226946.712124.802752.5 1.3-.472753 1.193421-1.006797 2.361642-1.6 3.5-.166354.289884-.466533.477496-.8.5zm-96.3-4.4c-.374213.01184-.706587-.23744-.8-.6-.6-1.2-1-2.4-1.5-3.6-.098335-.224883-.100559-.480171-.006158-.706733.0944-.226562.277236-.404741.506158-.493267.497248-.212124 1.073054.00934 1.3.5.4 1.2.9 2.4 1.4 3.6.098335.224883.100559.480171.006158.706733-.0944.226562-.277236.404741-.506158.493267zm99.7-3.6h-.4c-.49066-.226946-.712124-.802752-.5-1.3.5-1.1.9-2.3 1.4-3.5.165686-.497056.702944-.765685 1.2-.6.497056.165686.765685.702944.6 1.2-.5 1.3-.9 2.5-1.4 3.6-.156613.358992-.508387.593508-.9.6zm-102.8-4.4c-.416666-.022702-.775433-.301743-.9-.7-.5-1.2-.9-2.4-1.3-3.6-.137808-.494726.121535-1.013411.6-1.2.238081-.094381.505096-.082862.734164.031672s.398493.321234.465836.568328l1.3 3.6c.094381.238081.082862.505096-.031672.734164s-.321234.398493-.568328.465836zm105.8-3.6h-.3c-.247094-.067343-.453794-.236768-.568328-.465836s-.126053-.496083-.031672-.734164l1.2-3.6c.165685-.497056.702944-.765685 1.2-.6s.765685.702944.6 1.2l-1.2 3.6c-.156613.358992-.508387.593508-.9.6zm-108.5-4.6c-.416666-.022702-.775433-.301743-.9-.7-.431143-1.21324-.798314-2.448272-1.1-3.7-.094381-.238081-.082862-.505096.031672-.734164s.321234-.398493.568328-.465836c.523247-.127947 1.053817.181552 1.2.7.3 1.1.7 2.3 1.1 3.6.093103.252236.068557.532887-.066919.765131s-.367691.391754-.633081.434869zm111.1-3.6h-.3c-.247094-.067343-.453794-.236768-.568328-.465836s-.126053-.496083-.031672-.734164c.187462-.779884.42121-1.547911.7-2.3l.3-1.3c.043115-.26539.202625-.497605.434869-.633081s.512895-.160022.765131-.066919c.241787.047496.453527.19205.585817.399935.132291.207885.173561.460918.114183.700065-.1.5-.3 1-.4 1.4s-.5 1.6-.7 2.4c-.156613.358992-.508387.593508-.9.6zm-113.4-4.8c-.4536.020766-.864253-.266691-1-.7-.297377-1.283141-.497942-2.58681-.6-3.9-.063125-.243954-.00762-.503392.149796-.700163.157417-.19677.398343-.307872.650204-.299837.254246-.058948.52156-.004627.732632.14888.211073.153507.345113.39108.367368.65112.102417 1.247189.303039 2.484358.6 3.7.059378.239147.018108.49218-.114183.700065-.13229.207885-.34403.352439-.585817.399935zm115.2-3.7h-.1c-.512901-.051542-.902583-.484522-.9-1 .083229-.830589.116622-1.665417.1-2.5v-1.2c.111763-.418881.480705-.718037.913641-.740823.432935-.022786.831243.235988.986359.640823v1.3c.01656.901156-.016825 1.802538-.1 2.7.00181.230693-.096057.450937-.268484.604205-.172427.153269-.402627.22464-.631516.195795zm-116-4.8c-.257076.001592-.502562-.106828-.674539-.297914-.171978-.191087-.25403-.446598-.225461-.702086.012031-1.348142.17981-2.690378.5-4 .110457-.497056.602944-.810457 1.1-.7s.810457.602944.7 1.1c-.2 1.2-.3 2.4-.4 3.7-.051542.512901-.484522.902583-1 .9zm115.5-3.7c-.470203-.025147-.872252-.346786-1-.8-.20545-1.221678-.506373-2.425366-.9-3.6-.098335-.224883-.100559-.480171-.006158-.706733.0944-.226562.277236-.404741.506158-.493267.251747-.09634.531725-.086969.776467.025989.244741.112957.433517.319934.523533.574011.438386 1.236666.772879 2.507738 1 3.8.059378.239147.018108.49218-.114183.700065-.13229.207885-.34403.352439-.585817.399935zm-113.7-4.7h-.3c-.247094-.067343-.453794-.236768-.568328-.465836s-.126053-.496083-.031672-.734164c.486599-1.236201 1.054508-2.438831 1.7-3.6.143594-.22812.373199-.38861.636767-.445089.263567-.056479.538774-.004163.763233.145089.221924.123883.381121.335825.438271.583476.057151.247651.006925.507921-.138271.716524-.612463 1.059845-1.147201 2.162742-1.6 3.3-.165635.338747-.524879.538327-.9.5zm110.6-3.3c-.333467-.022504-.633646-.210116-.8-.5l-1.1-1.5c-.310549-.508153-.679748-.978043-1.1-1.4-.35477-.415608-.31024-1.039036.1-1.4.183069-.164932.425756-.247592.671438-.228693s.472872.137702.628562.328693l1.3 1.5 1.1 1.7c.245929.446462.116701 1.006452-.3 1.3zm-104.9-4.7-.4.4c-.190168.18016-.438389.28654-.7.3l-.7-.2c-.365408-.382012-.407402-.96993-.1-1.4l2.1-2z" fill="#ffe799" fill-rule="nonzero"/><path d="m700.2 174.5c2.1-2-2.8-11.2.4-13s8.3 2.1 11.2 1-.1-11.8 2.2-13 2.6.1 5.4.5.7-7.4 2.8-7.7 3 5.1 6.1 4.5-.1-12.6 2.6-13.6 3.9 6.3 6.7 6.5 2.3-9.4 3.9-9.6 1.6 13.9 5.4 14.1 6.5-9.7 9.1-9.7 5.7 11.3 8.8 11.3 5.1-8.5 7.3-8.1.4 7.8 2.8 8.5 2.2-1.3 3.3-2c1 2.1 1.4 5.1 4 5.4s8.2-3.5 11.4-3.2 4.6 9.4 8.2 9.9 3.8-4.8 5.1-4.6.6 5.3 2.5 5.3 2.4-4.6 4.2-4.5 6.6 8.2 9.6 7.9 5.4-12 8.3-12.1 7.1 11.5 10.5 11.5 2.7-8 4.4-8.1 1 6.9 2.6 6.9 1.9-3.7 3.8-3.7 2.6 7 5.8 7.3 7.4-12.2 10.8-12.3 5 7.1 8.9 7.3 6-5.8 8.3-5.8 1.9 4 4.9 4.1 4.3-7.8 8.5-8.1 5.5 6.7 9.7 6.4 5.1-7 7.4-7.1 1.3-5.6 3.2-5.6 5 6.3 8.1 6.2 6.1-5.8 7.7-5.7 2 3.6 4.1 3.6 5.9-5.9 7.9-5.9 2.1 7.5 3.7 7.6 1.4-4.4 3.3-4.1 5.9-1.3 8.5-1.3 1.4 5 4.9 5.1 4.3-5.5 6.8-5-2.9 10.2-1.5 11.8 7.3 2.4 10.7 4.2c1.5.8-.7 1.3.4 3.1s6.5 4.8 7.6 6 12.5 26.8 14.6 27 4.2-5 4.5-6.8 2.1-9.8 1.8-11.3-5.3.7-6.3-.5 7.2-6.7 6.3-8.5-5.8-.2-8.7-.2c-.79825.050489-1.59476-.122666-2.3-.5-2.7-1.7 3.6-5.2 3.2-6.9s-4.7-.1-5.5-1.4 2.8-4.2 1.4-5.7-10 5.6-11.7 4.4 2.6-13.2 1.7-15.1-5.2 2.1-6.6 1.8-2.4-7.8-3.3-8.3-.8 4.5-3.1 2.8.9-11.6.3-12.5-.8 2.2-1.6 1.3 1.2-2.8.1-3.4-1.3 6.1-2.4 5.8 0-6.5-1.4-7-.9 8.7-3.4 8.8 1.9-9.8-.6-11-6.6 10.3-7.9 9.5 2.2-25.5 2.2-25.5-8.9 30.3-10.5 30.3-.2-11.4-3.5-11.5-3.4 10.1-4.9 10.3-.2-5.1-1.9-5.2-3.2 5-4.5 4.7 1.9-10.6-.4-11.2-4.8 8.9-7.3 8.5-1.7-31.2-1.7-31.2-5.7 26.3-8.3 27.3-.6-4.6-3.7-4.5-1.5 7.6-3.6 7.8-4.7-13-6.5-12.9-3.2 11.1-5 11.4-.8-5.5-2.8-5.5-2.2 4.7-3.7 4.9-4.3 2.7-5.8 2.7-1-3.8-2.9-4.1 1.1 8.1-4.3 8.7-1.9-44.1-1.9-44.1-10.6 35.2-14.4 35.4-4.6-6.7-6.9-10c.4 4 3.3 11.5-.6 12.1s-7.9-12.7-11.2-19.4c-1.1 3.7-.1 11.6-3.4 11.2s-2.6-14.2-4.9-14.1-2.8 8.9-4.5 9.3-.9-4.4-2.6-4.7-2.2 10.5-4.2 10.9-1.6-16.1-4.1-23.8c-4.2 10.4-5 32.8-8.2 32.4s-6.1-16.5-7.6-17.1-1.8 9.6-4.2 9.9.8-16.4-2.2-16.8-4.8 12.5-8.1 12.8-8.8-23.9-13.2-35.7c-.9 12.4 3.2 35.7 1.2 35.7s-1.7-3.6-2.5-5.4c-1.6 2.2-2.2 6.8-3.8 7.2s-.3-8.2-.5-12.3c-2.7 3.9-2.5 13-4.9 13.2s-9.7-16.9-11.8-25.1c0 8.2 3 22.7-.3 23s-4.3-6.7-6.5-10.1c-.3 2.6 2.8 7.2-.9 7.7s-9-6.4-12.8-10.3c1.2 3 3.3 8.6 1.7 9.6-1.589999.99702-3.679186.605297-4.8-.9-.2 2.4 1.6 6-.6 7.2s-5.7-5.2-8.6-7.8c-.6 4.1 2.5 11.1.6 12.4s-3.1 2-4.7 1.1c-.9 3.4-.3 9.1-1.3 10.5s-9-8.6-12.8-13.4c-.8 3.7 3.1 10.2.7 11.3s-2.1 2.6-4.1 2c-.1 2.2 3.4 4.2 1.2 6.3s-3.6 1.5-6.9-1.5c.3 1.7 2.8 4 1 5s-6.7-4.3-10.1-6.4c1 1.5 2 3 2 4.7s-1.1 3.7-2.9 3.6c.8 5.6 6.2 15.2 5.2 16.2s-2.4-1.8-3.8-1.7 1 4.8.4 6.5-2.9 1.9-2.2 3.7c3.3 7.6-3 17.1-2.1 19.6s9.2-12.3 9-19c1.9.3 3.6 1.6 5.8-.4z" fill="#6d5637" fill-rule="nonzero"/><path d="m682.1 317.4c.9-6.7-2.4-13.2-3.3-19.8-.5-3.5-.3-7.1-.5-10.7-.6-11.6-5.2-22.7-5.6-34.3-.2-6.4 1-13.1-.6-19.4-.4-1.7-1.1-3.4-.6-5.1.255169-.895417.66097-1.740837 1.2-2.5 1.626568-3.353099 1.771679-7.234817.4-10.7l2.2-.4c.9-4.3 6.1-7.2 5.8-11.6-.165593-.720955-.23287-1.461003-.2-2.2.052725-.789138.709104-1.401759 1.5-1.4-1.1-.1-1.3-1.7-.7-2.6.734317-.796998 1.617605-1.442478 2.6-1.9.991347-.499738 1.639775-1.491451 1.7-2.6" fill="none" stroke="#6a5537" stroke-width="2"/><path d="m1011.4 317.4c-.9-6.7 2.3-13.2 3.2-19.8.5-3.5.3-7.1.5-10.7.7-11.6 5.2-22.7 5.6-34.3.2-6.4-.9-13.1.6-19.4.5-1.7 1.1-3.4.7-5.1-.33922-.861168-.74026-1.69668-1.2-2.5-1.65907-3.338923-1.84047-7.220912-.5-10.7l-2.2-.4c-.9-4.3-6.1-7.2-5.7-11.6.11604-.728005.18286-1.463005.2-2.2-.10137-.804766-.7889-1.406359-1.6-1.4 1.1-.1 1.4-1.7.8-2.6-.75475-.773774-1.63352-1.415955-2.6-1.9-1-.6-1.9-1.5-1.7-2.6" fill="none" stroke="#6a5537" stroke-width="2"/><path d="m795.2 138.2c-.9-7.5-1.5-15-2.1-22.5s-.7-15-1.4-22.5c-1.4-14.9-3.7-29.9-8.6-44.2h.4c2.87432 7.0231006 5.246939 14.2412078 7.1 21.6 1.7 7.4 3.1 14.8 4.2 22.3s2.1 15.1 2.2 22.7c.184791 7.592807-.283601 15.187443-1.4 22.7z" fill="#846744" fill-rule="nonzero"/><path d="m860.7 142.1c-1.081708-4.18495-1.685562-8.479027-1.8-12.8-.2-4.3.5-8.6.9-12.8s.9-8.5 1.5-12.8 1.4-8.4 2.2-12.6h.4c-.2 4.2-.5 8.5-.7 12.7s-.3 8.5-.3 12.7.2 8.5-.1 12.7c-.304956 4.302981-.906384 8.579799-1.8 12.8z" fill="#846744" fill-rule="nonzero"/><path d="m892.5 105.7c.076409-4.31144.612781-8.602411 1.6-12.8 1.144629-4.1174944 2.547405-8.1588245 4.2-12.1 1.5-4 3.1-8 4.7-11.9s3.5-7.8 5.4-11.7l.4.2-4 12.1c-1.3 4.1-2.5 8.2-3.6 12.2s-1.9 8.3-3.4 12.3c-1.339863 4.0488776-2.977674 7.992993-4.9 11.8z" fill="#846744" fill-rule="nonzero"/><g fill="#997141" fill-rule="nonzero" transform="translate(670 62)"><path d="m110 46c-1-7.6-2.2-15.2-3.6-22.8s-3-15.1-4.8-22.5h-.5c.9 7.7 1.8 15.2 2.5 22.9s1.4 15.1 1.8 22.7c.1 3.8.2 7.6.2 11.4v11.3c.033096 1.569323-.033705 3.1391617-.2 4.7l-.6-1.4-.4-.5c-.026522 0-.051957-.0105357-.070711-.0292893-.018753-.0187537-.029289-.0441891-.029289-.0707107l-.3-.3-.9-.2h-.5l-.3.2-.3.3c-.173584.1538666-.281057.3688128-.3.6-.216006.5091937-.350973 1.0490618-.4 1.6-.1 1-.1 2-.1 3h.5l1-2.1c.008976.3748446.076456.7459861.2 1.1.111513 1.099567.380951 2.177317.8 3.2l.4.6.5.6.5.4.9.2h1l.6-.3.3-.3.7-.7.3-.5c.173934-.2802586.308527-.5830919.4-.9.408794-1.007452.743027-2.0435736 1-3.1.5-2 .7-4 1-6 .8-7.7-.5-15.4-1.3-23.1zm-6.5 27.5h.1z"/><path d="m180.7 68.9-1.3 8.9-.6 3.2-1-.7-1.3-.3h-1.9c-.795939.2547309-1.517084.7011543-2.1 1.3-.074928.2060031-.215469.3816795-.4.5 0-1.2 0-2.4.1-3.6.2-5.9-2.7-22.9-2.7-22.9-.6 4.3-3 13.1-3.7 17.4-.294133 2.1187891-.694639 4.2214449-1.2 6.3-.009107.3423047-.076751.6805237-.2 1-.418914-.6643895-.962195-1.2416253-1.6-1.7-.759732-.5267834-1.678481-.7741391-2.6-.7-.571968.0759354-1.119135.2811227-1.6.6-.316602.2115591-.588441.4833979-.8.8-.410551.4809991-.747546 1.0201905-1 1.6-.1-1.1-.1-2.3-.1-3.6v-13c0-4.3-.1-8.7-.3-13.1-.4-8.8-.9-17.6-3.2-26.1.449348 4.3182255.64968 8.6587424.6 13 0 4.4-.2 8.7-.4 13.1-.4 8.7-1.1 17.3-1.6 26.1-.205708 2.4068717-.071049 4.8307259.4 7.2.102594.7830078.375676 1.5339849.8 2.2.259505.4854227.597383.9246641 1 1.3.604981.5638467 1.377389.9149412 2.2 1 .840344.028145 1.671765-.1797103 2.4-.6.511687-.387255.951657-.8610684 1.3-1.4.255178-.3337596.457541-.7047576.6-1.1l.2-.5c.173934.2802586.308527.5830919.4.9.3.5.5 1 1.1 1.9l.9.9 1.1.6c.599068.1155832 1.217422.0812302 1.8-.1.628574-.254123 1.180041-.6677231 1.6-1.2.13657-.1418005.23915-.3127674.3-.5.026522 0 .051957-.0105357.070711-.0292893.018753-.0187537.029289-.0441891.029289-.0707107l.3.6c.177597.0801704.31983.2224025.4.4l.6.4.6.2c.505401.2144045 1.051257.3167527 1.6.3.602697-.0776312 1.182095-.2821248 1.7-.6.616541-.4245074 1.101593-1.0134996 1.4-1.7.402835-.6804512.769998-1.3813984 1.1-2.1.1-.3.2-.4.2-.5l1.1.7 1.4.7h.7c.519999.1027187 1.059508-.0051831 1.5-.3.518579-.2606282.939372-.6814214 1.2-1.2.295185-.4564608.498954-.9658834.6-1.5.335195-1.5801848.535912-3.1859269.6-4.8.2-3 .3-6 .4-9 .118396-5.955595.585865-11.899126 1.4-17.8-1.923404 5.7228908-3.296294 11.6162704-4.1 17.6zm-18.9 13.7c.1-.1.1-.1.1 0z"/><path d="m246.6 20.1c-1.7 3.7-3.3 7.5-4.8 11.3-3 7.7-5.6 15.4-8 23.3-1.2 3.9-2.3 7.9-3.4 11.9-.548942 2.0407284-.982957 4.1106477-1.3 6.2-.2 1.1-.2 1.9-.4 2.8-.07998-.4308432-.250393-.8398349-.5-1.2-.341467-.6957769-.904223-1.2585326-1.6-1.6-.922959-.5010568-2.018697-.574106-3-.2-.886322.4290113-1.670554 1.0427582-2.3 1.8l-.8 1.1h-.1l-.9-10.8-4.4 9.8c-.6 1.4-1.5 2.8-2.2 4.1l-1.2 1.7c-.22603-.4432869-.394077-.9138176-.5-1.4-.53016-1.48957-.898938-3.0317326-1.1-4.6-.556622-3.2716226-.857533-6.5816361-.9-9.9 0-3.2666667.1-6.6666667.3-10.2-1.204287 3.2363028-2.075459 6.5869632-2.6 10-.584407 3.4677225-.818918 6.9853892-.7 10.5.001628 1.816542.202835 3.6274066.6 5.4.22312.9563209.524124 1.8927793.9 2.8.259598.5760189.595987 1.1142403 1 1.6.247267.3484656.551534.6527327.9.9.581345.4286926 1.278205.6725936 2 .7l1.2-.2.6-.3.9-.6c.444516-.3149313.847677-.6844955 1.2-1.1l1.1-1.3c.1.1.2.3.4.4.478492.3645696 1.021249.635948 1.6.8.59877.1198689 1.218192.0854566 1.8-.1.627442-.2171543 1.20535-.5571002 1.7-1l.8-.8c.429983-.4503336.799735-.9545402 1.1-1.5l.4-.6c.143732.5527738.344823 1.089018.6 1.6.602929 1.1790599 1.704836 2.0238552 3 2.3.821462.1878691 1.683872.044134 2.4-.4.517954-.2962221.989644-.6668356 1.4-1.1.403974-.6798156.771169-1.3808239 1.1-2.1.357698-1.1383097.592371-2.3116765.7-3.5.1-1.2.2-2.3.3-3.1s.6-3.9 1-5.8c.8-4 1.7-7.9 2.7-11.8 2-7.9 4.2-15.8 6.5-23.6s4.7-15.6 8.3-22.9c-2.220775 3.4031958-4.160528 6.9817052-5.8 10.7zm-23 57.2c-.055228 0-.1-.0447715-.1-.1 0 .0552285.044772.1.1.1z"/><path d="m144.7 81.8c.168012.7456563-.103662 1.5218663-.7 2-.457818.2904546-1.042182.2904546-1.5 0-.436663-.3024546-.726777-.7738903-.8-1.3-.172971-1.1449276-.406634-2.2798597-.7-3.4l-.3-.4v-.2c-.1-.1-.2-.1-.1-.1s-.1 0 0 .1c.141566.0432462.29544.0047775.4-.1.4-.3.1.1 0 .6-.078345.3722318-.178518.7395328-.3 1.1l-.4.9c-.294826.6205988-.628833 1.2218129-1 1.8-.194159.3853811-.466639.7259809-.8 1-.279895.3016379-.620779.5402564-1 .7-.620063.2298526-1.307491.1936722-1.9-.1-.540698-.2652305-.99243-.6822144-1.3-1.2-.3-.4-.4-.8-.6-1.1-.324968-.7202098-.429357-1.5205304-.3-2.3 0-.3 0-.5-.1-.6h.1c.2.2.4.3.6.2h-.1l-.7.4-.9.5c-.420161.2533063-.912937.3589011-1.4.3-.221455-.0448243-.407657-.1937857-.5-.4-.1-.1-.1-.1-.1-.2-.111561-.1821262-.179973-.3873627-.2-.6-.100256-.3257948-.100256-.6742052 0-1h.3c.111116.2453456.245038.4797088.4.7l.3.3h.2c0-.1-.1-.1-.2-.2s.1-.1.2-.3l.6-.7.7-.8c.410389-.3905156.937092-.6363108 1.5-.7.527539.0075141 1.030739.2231715 1.4.6l.5.8c.178226.3836095.312415.7861769.4 1.2.2.7.2 1 .4 1.2.074928.2060031.215469.3816795.4.5 0 .1.2.2-.1 0-.27832-.140118-.597711-.1756058-.9-.1l-.4.2.3-.4c.292486-.4346696.527756-.9052091.7-1.4l.4-.8c.045778-.2388022.112708-.4730588.2-.7l.4-1c.2434-.6373512.703714-1.1684833 1.3-1.5.651616-.4238437 1.458692-.5338995 2.2-.3.61672.1188261 1.178196.4346562 1.6.9l.5.6.3.6.3 1.3c.048873 1.2792709-.08583 2.5589442-.4 3.8 0 .3-.1.3-.1.4 0 .1104569.089543.2.2.2.2.1.8-.4 1-1z"/><path d="m286.9 22.3c-2.219488 2.6208114-4.100889 5.5101063-5.6 8.6-1.5 3.1-2.8 6.2-4.1 9.4-2.4 6.3-4.4 12.9-6.2 19.4l-2.7 9.8c-.3 1.2-.6 2.3-.8 3.5-.247267-.3484656-.551534-.6527327-.9-.9-.228503-.2463845-.49949-.4496252-.8-.6-.460625-.2425101-.981535-.346692-1.5-.3-.635007.0089398-1.242812.2592123-1.7.7-.9013.6410916-1.624102 1.50157-2.1 2.5l-1.3 2.3c-.267868.4831458-.501767.9843581-.7 1.5 0 .2-.7.1-1.4-.2l-2-1.4-.5.3c.390895.8418597.859599 1.6453522 1.4 2.4.356967.3818235.760065.7177383 1.2 1 .602464.3551073 1.307299.4960743 2 .4.672134-.1826338 1.289844-.525806 1.8-1l1-1 1.7-1.8c.1-.1.1-.1.1-.2l.8 1.7c.2.3.4.8.7 1.2.272462.5923186.644526 1.133502 1.1 1.6l.4.3.6.4c.410089.1824302.851439.2842803 1.3.3.592306.0217525 1.179537-.1164197 1.7-.4.370564-.2164716.707465-.4859922 1-.8.2-.3.2-.5.4-.7s.1-.4.2-.5c.071707-.3411751.172063-.6756941.3-1v-.6l.6-2.6c.3-1.6.6-3.3.8-4.9.5-3.4 1.1-6.7 1.7-10 1.2-6.5 2.6-13.1 4.4-19.5s3.9-12.9 7.4-18.6zm-22.1 53.6.3-.2z"/><path d="m310.1 81.8c0 1.8-.1 3.7 0 5.3-.06818.6915937.071067 1.3878287.4 2h-.1c-.1-.2-.2-.3-.4-.3h1.4c2.092627.1403992 4.118695.7928619 5.9 1.9.536482.3514828 1.009795.7909883 1.4 1.3.52769.6284379.873494 1.3892057 1 2.2 0 .6055442-.067076 1.2092252-.2 1.8-.166192.4566465-.299859.9244817-.4 1.4-.2.5-.3.9-.4 1.2s-.1.8-.1.6l-.4-.3h.4l1.4.4 2.7.8c.946429.329438 1.852265.765581 2.7 1.3.1.1.3.2.4.4s.2.2.2.3c.111561.182126.179973.387363.2.6-.025408.351309-.127831.692719-.3 1-.2.5-.5.9-.6 1.2s0 0-.1-.1h.2l1.3.6c.564291.246321.999537.717838 1.2 1.3.131393.551745.022346 1.133331-.3 1.6-.135214.390364-.235606.791931-.3 1.2.019818.363465.256623.679205.6.8l-.2.4c-.49857-.22699-.866637-.66867-1-1.2-.038578-.475742.029757-.954089.2-1.4.3-1 .1-1.3-.7-1.6l-1.2-.4c-.385312-.031571-.743556-.210693-1-.5-.249932-.384631-.322763-.858032-.2-1.3l.5-1.3v-.3c-.1 0 0 .1 0 .2s0 0-.1 0c-.72537-.373175-1.49962-.642479-2.3-.8l-2.5-.5-1.3-.2h-.3l-.6-.2c-.582162-.200463-1.053679-.635709-1.3-1.2-.248687-.6705745-.317636-1.3945375-.2-2.1l.3-1.4c.1-.5.1-.9.2-1.3v-.9c0 .2-.3-.3-1-.5-1.369171-.6445903-2.813777-1.1149269-4.3-1.4h-1.3c-.637707-.0777659-1.233608-.3581898-1.7-.8-.166931-.1754403-.302259-.3784324-.4-.6-.160032-.1638861-.26491-.3736427-.3-.6-.22552-1.1597379-.191369-2.3550304.1-3.5.488812-1.8606839 1.301197-3.6208506 2.4-5.2z"/><path d="m84.7 65.9c-.0748049 1.9123265-.445886 3.8014663-1.1 5.6-.3815117 1.0862818-.9958484 2.0760464-1.8 2.9l-.6.3-.8.3c-.6166501.096299-1.2479145-.0089117-1.8-.3l-.6-.4-.5-.2c-1.4140169-.6183381-2.8886577-1.0875419-4.4-1.4-.7-.1-1.2 0-1.1-.1-.2107141.2364679-.37978.5069733-.5.8l-.6 1.1c-.1580851.4514759-.3590004.8867923-.6 1.3-.2564137.6823518-.7086684 1.2737619-1.3 1.7-.5496652.2981973-1.1833338.4038087-1.8.3l-.5-.3h-.3l-1.2-.6-2.4-1.1c-.7315114-.3163285-1.5071826-.5186776-2.3-.6h.1c-.0578614.0512889-.0936857.1229376-.1.2l-.4 1.4c-.1096839.4650821-.4490012.8421013-.9 1-.3696693.0400355-.7436104.0060409-1.1-.1-.3642523-.2231214-.7747253-.3599458-1.2-.4-.8-.3-1.1-.1-1.4.9-.1547374.4712687-.391732.9114016-.7 1.3-.3963429.3884678-.9847343.506146-1.5.3v-.3c.3802746.0501335.7592036-.1014381 1-.4.2072211-.3714581.342902-.7785009.4-1.2.0624807-.5341532.3101658-1.0295235.7-1.4.4596962-.4177158 1.102274-.5689105 1.7-.4l1.4.2h.2c-.1 0-.1.1-.1-.1.0982843-.4278754.1651294-.8623687.2-1.3.0363705-.317588.1385436-.6241073.3-.9l.5-.4h.9c1.0122998.0142235 2.0193376.1484953 3 .4l2.7.9 1.3.5c-.2.1.1-.2.2-.6s.2-.7.4-1.2.3-.9.4-1.4c.2476152-.5296213.5492119-1.0322825.9-1.5.4978303-.6968941 1.2542393-1.1651473 2.1-1.3l1.8-.3c2.1154579.1098744 4.1734025.7272578 6 1.8l.6.5.3.2h-.4c.5409741-.3859194 1.0140806-.8590259 1.4-1.4 1.1-1.4 2-2.9 3.1-4.4z"/><path d="m9.8 261.1c1.3-.9 1.8-2.9 2.1-4.6.1658131-1.764816.1322682-3.542695-.1-5.3-.5-3.5-1.2-7.1-1.9-10.7l-3.9-21.3c-1.3-7.1-2.5-14.3-3.4-21.5-.5-3.6-1-7.2-1.3-10.8-.4024335-3.685635-.50276793-7.398009-.3-11.1.1-1.9.4-3.6.6-5.4.29870969-1.787658.49901134-3.590373.6-5.4.19965005-1.726145.29981558-3.462347.3-5.2-.01295261-.836762-.07975741-1.671822-.2-2.5-.1-.4-.1-.7-.2-1.2l-.2-.6v-.9c-.13213369-1.331588.18465305-2.669132.9-3.8l2-2.4.9-.9.2-.2c.0272855-.149635.09666332-.288391.2-.4.2-.7.5-1.5.7-2.3s1-3.4 1.5-5.2c.47226263-1.866149 1.14274159-3.676442 2-5.4.4846407-1.050808 1.1631729-2.000753 2-2.8.3109146-.311154.6864493-.550131 1.1-.7-.2.133333-.3.233333-.3.3-.1.2.1-.2.2-.6l.2-1.3.3-.9c0-.2.1-.3.2-.5.1211602-.262702.2907932-.500188.5-.7.1-.3.7-.6 1.1-.7h.7c.2 0 .2.1.2.1h.9l1.2.4-.4.2c-.2060031.074928-.3816795.215469-.5.4-.1242038.284256-.1921235.589894-.2.9-.1-.3-.2-.8-.3-1.2-.3501327-.934685-.5851946-1.908512-.7-2.9-.16489-.703028-.0946322-1.440736.2-2.1.2105497-.610073.689927-1.08945 1.3-1.3h1.4c.99434.289086 1.9640734.656915 2.9 1.1l.9.4h-.4c-.1 0-.1.1-.2.2s-.1.2-.1.1c.0123624-.4025-.0211874-.805098-.1-1.2 0-.4-.1-.8-.1-1.2-.4969329-1.568789-1.3928554-2.981589-2.6-4.1-2.4649109-2.562486-5.1782273-4.87383-8.1-6.9l.2-.4c3.2636804 1.680296 6.3464684 3.69081 9.2 6 1.5048647 1.301469 2.6715578 2.948565 3.4 4.8.1476835.48927.2481426.991565.3 1.5.1293562.493678.2295296.994545.3 1.5.0027233.495238-.1360524.980953-.4 1.4-.2198951.346679-.5906264.569118-1 .6-.2572153.100407-.5427847.100407-.8 0-.5416817-.097387-1.0762164-.231021-1.6-.4-.7240373-.355494-1.5006799-.591864-2.3-.7h.1l.3-.2h.1c.1-.1 0 .2.1.6.1550914.788332.3896214 1.55893.7 2.3.1983329.454744.365388.922498.5 1.4 0 .1.1.4.1.6-.00946.407457-.0768004.8115-.2 1.2-.2176454.284041-.4895815.521985-.8.7-.3297917.204612-.7119919.308848-1.1.3h-.7l-1.5-.3h-.1c.2 0 .5-.3.5-.3v.4l-.2 1.3c-.062848.714621-.3034875 1.402162-.7 2-.1797572.281377-.4186226.520243-.7.7-.1901684.18016-.4383887.28654-.7.3-.1.1 0 .1 0 .1h.1c-.4554878.540989-.8263648 1.147879-1.1 1.8-1.4 2.9-2 6.4-3 10-.3.9-.6 1.8-1 2.8-.09257849.306377-.26517325.582528-.5.8-.15037483.30051-.35361549.571497-.6.8l-1 1.1c-1.3 1.2-2.1 2.4-2 3v.2c.1 0 .1.2.1.3v.7l.3 1.5c.1 1 .1 2 .1 2.9s-.3 3.8-.5 5.6-.5 3.6-.8 5.4-.6 3.7-.7 5.3c-.30016727 3.526958-.30016727 7.073042 0 10.6.2 3.6.5 7.2.9 10.7.8 7.2 1.8 14.4 2.8 21.5l3.2 21.5c.6 3.5 1.2 7.1 1.5 10.7.2163707 1.829379.1827285 3.679696-.1 5.5-.3 1.8-.8 3.8-2.5 4.9z"/><path d="m341.7 261.5c-1.22972-1.049766-2.045149-2.503357-2.3-4.1-.277692-1.551018-.411593-3.124362-.4-4.7.2-3.2.7-6.3 1.1-9.3l2.8-18.5c1.8-12.3 3.6-24.6 4.4-36.9.2-1.5.2-3 .3-4.6v-4.5c0-1.6-.3-2.9-.4-4.4l-.8-4.6c-.4-3.1-.9-6.3-1-9.5-.027229-1.713458.140515-3.424455.5-5.1v-.9-.5c-.154737-.471269-.391732-.911402-.7-1.3-.396868-.561954-.831187-1.096501-1.3-1.6l-.9-.9-.9-1.5c-.590049-1.527238-1.05818-3.098821-1.4-4.7-.561193-2.960647-1.363875-5.870369-2.4-8.7-.287736-.560511-.622256-1.095743-1-1.6l-.2-.2-.7-.4c-.44752-.421921-.730975-.988831-.8-1.6-.2-.9-.2-1.7-.4-2.3s-.2-.5.1-.3h-.7l-1.2.2c-.297719.052318-.602281.052318-.9 0-.2-.1-.5-.2-.6-.5s-.2-.8-.2-.8.6-1.5.9-2.3c.291627-.670516.493373-1.376627.6-2.1.100256-.325795.100256-.674205 0-1-.167716-.211773-.430981-.324601-.7-.3v-.3c.4-.1 1-.2 1.3.3.240114.425273.344773.913679.3 1.4-.050749.805389-.150938 1.6069-.3 2.4-.239061.680761-.40663 1.384551-.5 2.1 0 .2 0-.1-.1-.2l-.2-.2h.2l1.1-.4.6-.2h1c.44291.089649.815314.387571 1 .8.167637.198153.272121.44195.3.7.3.9.4 1.7.6 2.3s.3.6.2.4h-.2l.5.2.8.5c.629168.658606 1.167286 1.398518 1.6 2.2 1.7 2.9 2.4 6.1 3.4 9 .35969 1.400889.827767 2.771687 1.4 4.1l.4.6.7.7c.672828.560133 1.277027 1.197899 1.8 1.9.6443.833417 1.119847 1.78451 1.4 2.8.132109.590416.165896 1.198584.1 1.8v1.3c-.252877 1.384869-.353476 2.793249-.3 4.2.1 2.9.4 6 .8 9l.6 4.6c.164377 1.62788.231163 3.264139.2 4.9.033322 1.602603-.033474 3.205724-.2 4.8-.1 1.6-.2 3.1-.4 4.7-1.3 12.5-3.5 24.7-5.6 36.9l-3.5 18.4c-.6 3-1.2 6.1-1.5 9.1-.132765 1.535526-.065536 3.081792.2 4.6.087514 1.473067.774055 2.846148 1.9 3.8z"/></g></g></g></g></svg>