<svg height="86" viewBox="0 0 101 86" width="101" xmlns="http://www.w3.org/2000/svg" xmlns:xlink="http://www.w3.org/1999/xlink"><linearGradient id="a" x1="49.984295%" x2="49.984295%" y1="99.978202%" y2="-.016349%"><stop offset="0" stop-color="#caaa6e"/><stop offset="1" stop-color="#a58c5b"/></linearGradient><linearGradient id="b"><stop offset="0" stop-color="#c88c66"/><stop offset="1" stop-color="#caaa6e"/></linearGradient><radialGradient id="c" cx="49.929578%" cy="49.894366%" gradientTransform="matrix(1 0 0 .994362 0 .002813)" r="49.894366%" xlink:href="#b"/><radialGradient id="d" cx="50.211348%" cy="49.894862%" gradientTransform="matrix(1 0 0 .994374 0 .002807)" r="49.893033%" xlink:href="#b"/><linearGradient id="e" x1="50.003566%" x2="50.003566%" y1="100.010111%" y2="-.025278%"><stop offset="0" stop-color="#fddfd8"/><stop offset="1" stop-color="#edcac7"/></linearGradient><g fill="none" fill-rule="nonzero" transform="translate(9)"><ellipse cx="41.437121" cy="41.672059" fill="#1d9c42" rx="41.437121" ry="41.672059"/><path d="m5.36041667 21.1680147 69.13522723 45.6242647c5.440649-7.2302594 8.3778795-16.053044 8.3628788-25.1202206 0-23.0018382-18.5492424-41.6720588-41.4214015-41.6720588-15.4681818 0-28.9556818 8.53676471-36.07670453 21.1680147z" fill="#1bb24b"/><path d="m11.8998106 12.4415441c-4.47589958 4.5682154-7.84341168 10.1133754-9.8405303 16.2040441l67.3746212 43.7272059c4.6976434-4.3301335 8.339365-9.6911494 10.6422349-15.6665441z" fill="#f1f2f2"/><g transform="translate(1.241856 20.440809)"><path d="m24.8214015 1.10661765c-4.66875-1.78639706-10.1706439-.75882353-14.6507576 3.46213235-4.4801136 4.22095588-6.71231057 15.2080882-2.79810602 21.5790441 3.91420452 6.3709559-1.94924243 7.4143383-1.94924243 7.4143383s2.23219697 1.2172794 3.63125-.2845589c.06506822 2.0193372-.38405049 4.0219005-1.30473484 5.8176471-1.96496213 3.7466912-1.16325758 6.0547794 1.0217803 11.2558823 1.0375 2.4345589 3.55265149 5.2485295 1.96496209 6.4816177l10.2649622-4.5055147 11.098106-6.1970588-5.4075757-4.4106618-2.5308713-25.7051471z" fill="#281d0a"/><path d="m18.8479167 1.94448529s3.7412878-1.69154411 7.3725378-1.78639705c3.63125-.09485295 9.290341 2.75073529 11.9155303 8.47352941 2.6251894 5.72279415-.9117424 17.51617645-.4401515 19.39742645s1.9649622 2.3397059 2.7037879 1.5018383c0 0-.5659091 2.3397058-3.4583333 1.0275735 0 0-.3615531 1.5018382.6602273 4.4106617 1.0217803 2.9088236 1.2104166 6.3867648 1.1160984 9.5643383-.1886363 6.4816176-6.8066288 10.0386029-6.1464015 11.4455882s1.6662879.7588235 1.6662879.7588235-.4558712 1.3121324-2.232197.6481618c-1.7763257-.6639706-2.6094697-5.1536765-2.6094697-5.1536765l-12.6857954-.1897058-1.4933712-6.1970589z" fill="#281d0a"/><path d="m6.41363636 59.5518382 6.53939394-9.8963235s3.5683712 1.6599265 5.3132576 9.8963235h8.7401515c1.917803-8.1415441 5.7534091-9.7224264 5.7534091-9.7224264l5.1089015 9.7224264h4.0085227l-8.661553-16.9944853s.7859848-1.3753676-1.9649621-2.2922794c-2.750947-.9169117-5.3604167-2.592647-5.3604167-4.5529411v-5.1694853h-6.6808712v5.1694853c0 1.9602941-1.713447 2.8930147-4.4643939 3.8257352-2.750947.9327206-3.0967803 2.6242648-3.0967803 2.6242648l-9.80909095 17.3897058z" fill="url(#a)"/><path d="m34.5204545 15.6507353c0 9.5801471-3.3797348 17.4055147-12.0727272 17.4055147-8.6929925 0-11.8998106-7.9202206-11.8998106-17.5003676 0-9.58014711 3.3640151-10.59191181 12.0570075-10.59191181 8.6929925 0 11.9155303 1.09080882 11.9155303 10.68676471z" fill="#caaa6e"/><path d="m19.350947 21.2154412c.0063674.973312-.5717353 1.8543517-1.4640676 2.2312676-.8923324.3769158-1.9226209.1752508-2.6092461-.5107244-.6866251-.6859752-.8939492-1.7207516-.5250564-2.6206115.3688927-.8998599 1.2411305-1.487043 2.2089761-1.4870641 1.3135112-.0000286 2.3807524 1.0662025 2.389394 2.3871324z" fill="#c88e2f"/><path d="m18.7378788 21.2154412c0 .9167521-.7389846 1.6599264-1.6505682 1.6599264s-1.6505682-.7431743-1.6505682-1.6599264.7389846-1.6599265 1.6505682-1.6599265 1.6505682.7431744 1.6505682 1.6599265z" fill="#3e2c09"/><path d="m16.3956439 20.3617647c-.0084874.264467-.2241976.4744024-.4873106.4742647-.2317129-.0423671-.4001406-.2453223-.4001406-.4821691s.1684277-.4398021.4001406-.4821691c.2691342 0 .4873106.2194134.4873106.4900735z" fill="#fff"/><path d="m17.2602273 27.0647059c1.6348485.9959559 3.3954545 1.6125 5.1717803 1.5808823 1.7763257-.0316176 3.5054924-.6955882 5.2189394-1.5808823-.6446728.7438687-1.430221 1.3511492-2.3107955 1.786397-.8958003.4626132-1.8855392.7114508-2.8924242.7272059-1.0133961.000434-2.0134843-.2320801-2.9238637-.6797794-.8931782-.4145092-1.6707435-1.0444326-2.2636363-1.8338235z" fill="#3e2c09"/><path d="m17.1501894 25.4996324c0 1.239798-.9993886 2.2448529-2.232197 2.2448529-1.2328083 0-2.2321969-1.0050549-2.2321969-2.2448529 0-1.2397981.9993886-2.244853 2.2321969-2.244853 1.2328084 0 2.232197 1.0050549 2.232197 2.244853z" fill="url(#c)"/><path d="m31.3765152 25.4996324c-.0000225.909392-.5455964 1.7289292-1.3816427 2.0754431-.8360464.3465139-1.7973748.1515385-2.4345234-.493767-.6371486-.6453054-.8242262-1.6134381-.4737661-2.4517548s1.1692122-1.3811785 2.0734549-1.3747743c.5905801-.0000149 1.1567452.236999 1.5728701.6584512.416125.4214523.6477957.9924882.6436072 1.5864018z" fill="url(#d)"/><path d="m25.780303 21.2154412c-.0127515.9825036.5667883 1.8751293 1.4663755 2.2585586.8995873.3834292 1.9404301.1814558 2.6335835-.5110415s.9008539-1.7378855.5255325-2.6450843c-.3753215-.9071989-1.2590702-1.4959036-2.2360975-1.4895652-1.3135112-.0000286-2.3807524 1.0662025-2.389394 2.3871324z" fill="#c88e2f"/><path d="m26.3933712 21.2154412c-.006355.6806065.3972749 1.2974668 1.021333 1.5608846s1.3445555.1210568 1.8231249-.3602259c.4785693-.4812827.6201277-1.2058652.358195-1.8334615-.2619327-.6275964-.8753153-1.0335148-1.5520847-1.0271237-.9115836 0-1.6505682.7431744-1.6505682 1.6599265z" fill="#3e2c09"/><path d="m26.4876894 20.3617647c0 .2706601.2181764.4900735.4873106.4900735s.4873106-.2194134.4873106-.4900735-.2181764-.4900735-.4873106-.4900735-.4873106.2194134-.4873106.4900735z" fill="#fff"/><path d="m22.4477273 41.4349265c-3.7412879 0-4.0556818-4.0786765-4.0556818-4.1102941 0-.0316177.0314393-.094853.0785984-.1106618.0520905 0 .0943182.0424671.0943182.0948529.0768164.7071126.2847639 1.3934765.6130682 2.0235294.7073864 1.3121324 1.8549242 1.9602942 3.3954545 1.9128677 3.3482955-.0790441 4.0085228-3.8099265 4.0242425-3.857353.0157197-.0474264.0628788-.0790441.1100379-.0790441.0453686.0183775.0760266.0615419.0785984.1106618-.0157197.0474265-.7073863 3.9205882-4.1971591 4.0154412z" fill="#231c1e"/><path d="m2.93958333 58.4136029 9.14886367-8.7580882c1.2261363 1.7073529 2.8452651 6.2919118 3.2854166 9.8963235l14.1477273 3.7466912c.6287879-2.9088235 1.8549243-13.7852941 1.8549243-13.7852941l5.5647727 10.0386029h6.0363636l-11.1924242-19.523897-3.5998106-1.7389706s-.6287879 6.623897-5.3604167 7.0033088c-5.70625.4426471-5.7219697-7.0033088-5.7219697-7.0033088s-5.0931818 2.9878676-5.4704545 3.1143382c-.3772728.1264706-10.18636368 18.0220588-10.18636368 18.0220588 3.0967803-.7588235 1.49337121-1.0117647 1.49337121-1.0117647z" fill="#fef3f7"/><path d="m7.85984848 59.5518382 4.65303032-7.5091911s1.4304924 4.9323529 1.9335227 7.5091911l6.4922349 2.9404412.1571969-15.9511029c-4.9831439-.3794118-5.4704545-8.0150736-5.4704545-8.0150736s-3.992803 1.6283089-4.0556818 1.88125c-.0628788.2529412-7.85984852 13.1213236-11.569697 19.1444853z" fill="#687167"/><path d="m30.4176136 65.4327206c.2043561-1.5808824.4558712-6.4816177.7702652-9.8488971.1035534-1.169672.2820812-2.3314013.5344697-3.4779411l4.6058712 7.4459558h7.0738636c-3.5526515-6.6871323-10.1549242-19.1919117-10.2492424-19.6503676l-3.8513257-1.3753677s-.5030304 7.6356618-5.4704546 8.0150736l.1414773 15.9511029z" fill="#687167"/><path d="m25.6545455 63.8992647-.2357955-16.0143382c.6130682-.1738971 4.9831439-1.6757353 5.5018939-8.3154412 0-.0523858-.0422276-.0948529-.0943181-.0948529-.0465222-.0006537-.0865683.0329073-.0943182.0790441-.5501894 6.9716911-5.3918561 8.1573529-5.4390152 8.1731617h-.0628788l.2357955 16.1566177z" fill="#fff"/><path d="m27.9339015 64.5316176-.6602273-17.6742647-.1886363.1897059.6602273 17.4845588z" fill="#fef3f7"/><path d="m19.4138258 47.8849265-.2043561 14.0224264h.1886364l.204356-14.1647058h-.0785985c-.0471591-.0158089-4.8888257-1.1856618-5.4232954-8.1731618-.0182738-.0456259-.0611949-.0764577-.1100379-.0790441-.0458767.0077938-.0792485.048067-.0785985.0948529.51875 6.6238971 4.8731061 8.1257353 5.501894 8.2996324z" fill="#fff"/><path d="m17.3073864 60.1841912.4558712-13.1371324-.1886364-.1897059-.4558712 13.3268383z" fill="#fef3f7"/><path d="m21.1901515 38.7948539c-.1069983.0003178-.1961258-.0824202-.204356-.1897068" fill="#fffeef" opacity=".2"/><path d="m24.4598485 38.2731618c0-.1135027-.0914933-.2055147-.2043561-.2055147-.0528761-.000185-.1034018.0219569-.1392668.061031-.0358651.039074-.0537762.0914924-.0493695.1444837" fill="#caaa6e"/><path d="m22.5106061 45.0867647c.7388257 0 .9903409-.5058823.9903409-1.0591912 0-.5533088-.5816288-1.4386029-.8017046-1.9761029-.0823317-.2152604-.1454593-.4374597-.1886363-.6639706-.0374498.2055727-.0953807.4068323-.1729167.6007353-.2200758.6007353-.8488636 1.5176471-.8017046 2.1658088.0471591.6481618.2829546.9327206.9746213.9327206z" fill="#542f82"/><ellipse cx="22.510606" cy="41.3875" fill="#542f82" rx="1" ry="1" stroke="#231f20"/><path d="m22.6206439 42.5257353c-.2672348.26875-.7073863 1.4386029-.51875 1.9128676.0648798.1724236.1997.3089044.3707204.3752865s.3620575.0563839.5253024-.0274923c.1729166-.094853.4087121-.3952206.2986742-1.0275736-.0846223-.4286146-.2616999-.8333455-.51875-1.1856617-.0628788-.094853-.0943182-.1264706-.157197-.0474265z" fill="#6f2c87"/><ellipse cx="21.976136" cy="44.486029" fill="#fff" rx="1" ry="1"/><ellipse cx="22.353409" cy="44.723162" fill="#fff" rx="1" ry="1"/><path d="m24.4912879 43.3003676c.5030303 0 .6759469-.3319852.6759469-.711397s-.3929924-.9801471-.5344696-1.34375c-.0576495-.1493428-.1049222-.3025295-.1414773-.4584559-.0144635.142069-.05162.2808614-.1100379.4110294-.157197.4110294-.5816288 1.0433824-.5501894 1.4702206-.0102517.1763312.0571805.3482642.1843656.4700796.1271851.1218155.3012328.1811674.4758617.1622733z" fill="#542f82"/><ellipse cx="24.491288" cy="40.802574" fill="#542f82" rx="1" ry="1" stroke="#231f20"/><path d="m24.5698864 41.5613971c-.1886364.1897058-.4873106.980147-.3458334 1.3121323.1005678.2306126.3672656.3364849.5973485.2371324.1257576-.0790442.2829546-.2845589.2043561-.7113971-.0601682-.2894114-.1777938-.5636352-.3458334-.80625-.047159-.0474265-.0628787-.0790441-.1100378-.0316176z" fill="#6f2c87"/><ellipse cx="24.129735" cy="42.905147" fill="#fff" rx="1" ry="1"/><ellipse cx="24.38125" cy="43.047427" fill="#fff" rx="1" ry="1"/><path d="m20.5613636 43.4110294c.5030303 0 .6602273-.3319853.6602273-.711397 0-.3794118-.3929924-.9801471-.5344697-1.3595589-.0596317-.1418678-.1018618-.290511-.1257576-.442647-.02986.1404515-.0719412.2779908-.1257575.4110294-.157197.4110294-.5659091 1.0275735-.5501894 1.4702206.0157197.442647.204356.6323529.6759469.6323529z" fill="#542f82"/><ellipse cx="20.561364" cy="40.897427" fill="#542f82" rx="1" ry="1" stroke="#231f20"/><path d="m20.6242424 41.6720588c-.1886363.1738971-.4873106.9801471-.3458333 1.2963236.0443455.1180015.1366472.2113695.2537228.2566539.1170757.0452844.2478017.0381826.3593454-.0195216.1100379-.0632353.2672348-.26875.1886363-.6955882-.0526434-.2917525-.1709369-.5675331-.3458333-.80625-.0471591-.0632353-.0628788-.0790441-.1100379-.0316177z" fill="#6f2c87"/><ellipse cx="20.184091" cy="43.015809" fill="#fff" rx="1" ry="1"/><ellipse cx="20.435606" cy="43.158088" fill="#fff" rx="1" ry="1"/><path d="m19.2094697 41.1029412c.1099838.010681.2187864-.0298027.2953718-.109903.0765853-.0801004.1125447-.1910228.0976206-.3011264 0-.2371324-.2357954-.5691177-.3143939-.7904412-.0342342-.0815729-.0605559-.1662797-.0785985-.2529412-.0094933.0816772-.0306717.1615465-.0628788.2371324-.0943182.2371323-.3301136.6007353-.3143939.8536764-.0049839.1007045.0337348.1986276.1061218.2683918s.1713168.1045021.2711509.0952112z" fill="#542f82"/><path d="m19.2566288 40.0911765c-.1100379.1106617-.2829546.5691176-.2043561.7588235.0640539.1362119.2225859.1985979.3615531.1422794.0628787-.0474265.1571969-.1580882.1100378-.4110294-.0340373-.1708319-.1036859-.3324707-.204356-.4742647-.0314394-.0316177-.0314394-.0474265-.0628788-.0158088z" fill="#6f2c87"/><ellipse cx="19.005114" cy="40.865809" fill="#fff" rx="1" ry="1"/><circle cx="19.149432" cy="40.963235" fill="#fff" r="1"/><path d="m25.7960227 41.1029412c.2829546 0 .3772728-.1897059.3772728-.4110294 0-.2213236-.2200758-.5691177-.314394-.7904412-.0353136-.080034-.0565871-.1656106-.0628788-.2529412 0 0-.0157197.0632353-.0785985.2371324-.0628787.173897-.3301136.6007353-.3143939.8536764-.0003849.1021702.0419918.1997888.1167586.2689642.0747668.0691755.1750239.1035239.2762338.0946388z" fill="#542f82"/><path d="m25.8274621 40.0911765c-.0943182.1106617-.2829545.5691176-.204356.7588235.0640539.1362119.2225858.1985979.361553.1422794.0628788-.0474265.157197-.1580882.1100379-.4110294-.0340374-.1708319-.1036859-.3324707-.2043561-.4742647-.0157197-.0316177-.0314394-.0474265-.0628788-.0158088z" fill="#6f2c87"/><ellipse cx="25.575947" cy="40.865809" fill="#fff" rx="1" ry="1"/><circle cx="25.720265" cy="40.963235" fill="#fff" r="1"/><path d="m26.975 12.0779412s1.4776515-.3794118 2.7037879.6639706c1.2261363 1.0433823 1.6662879 4.3158088-.4715909 4.8691176 0 0 3.3640151.5691177 3.6941288-3.3514706.3301136-3.9205882-5.4704546-4.52132351-5.9263258-2.1816176z" fill="#3a2c1c"/><path d="m26.0632576 5.13786765.9903409 6.78198525s2.0592803-.5533088 3.7412879.094853c1.6820075.6481617 3.2539772 2.0235294 1.241856 7.1297794-1.241856 3.1301471-3.1753788 10.2599265-1.0532197 14.4176471 1.7606061 3.4621323 5.8948864 1.34375 5.8948864 1.34375s-4.2285985 1.1856617-3.8513258-2.2764706c.3772728-3.4621324 8.9602273-20.1720589 1.3676137-26.74852945-3.9770834-3.4305147-8.3314394-.7430147-8.3314394-.7430147z" fill="#3a2c1c"/><path d="m26.4405303 5.26433824.5344697 6.65551466s-1.9649621-2.43455878-4.9517045-.5533088c-2.9867425 1.88125-1.6820076 6.1496324-8.2056819 7.0981618 0 0-.3772727 6.2761029-4.10284087 6.8452206-3.72556818.5691176-4.95170455-1.2172794-4.95170455-1.2172794s1.5876894 1.2172794 3.6469697-1.0433824c2.05928032-2.2606618-.47159091-11.5404412 3.81988632-17.07352941 4.2914773-5.53308823 13.4560606-3.14595588 14.2106061-.71139705z" fill="#3a2c1c"/><path d="m26.975 11.9198529c-.0206318-.0859624-.0468885-.1704602-.0785985-.2529411-.0743767-.2269118-.1746007-.4444109-.2986742-.6481618-.1931121-.3084104-.4316198-.5855819-.7073864-.8220588-.3665132-.30013858-.7811447-.5353594-1.2261364-.69558826-.5218305-.19101328-1.0660698-.31323148-1.6191287-.36360294l-.9274622-.03161765-.9431818.04742647c-.6550435.07509794-1.2957631.24550516-1.9020833.50588236-.6137882.26613498-1.1613643.66564842-1.6034091 1.16985292-.4415654.5111897-.7733718 1.1085982-.9746212 1.7547794-.1076938.3146703-.191768.6370205-.2515152.9643383-.0314394.1580882-.0471591.3319853-.0628788.4900735s-.0314394.3319853-.0628787.5058823c-.0952609.6722429-.3138001 1.3208566-.6445076 1.9128677-.2954946.5261872-.7035616.9797659-1.194697 1.3279412-.4155354.2866376-.8871753.4806751-1.3833333.5691176-.381221.0512302-.7678553.0459038-1.1475379-.0158088-.2373813-.050151-.4691145-.1243023-.6916667-.2213235l-.2357954-.094853.2357954.0790441c.2334171.0546516.4695414.0968672.7073864.1264706.3634504.0251656.7286134-.0014455 1.0846591-.0790441.4516749-.1175304.8744192-.3274102 1.241856-.6165441.4294445-.3467233.7782025-.7837935 1.0217803-1.2805147.2731954-.5500886.4487502-1.1439388.51875-1.7547794l.0471591-.5058824c.0157197-.173897.0314394-.3477941.0628788-.5216912.0468252-.3594658.1257424-.713961.2357955-1.0591911.2238965-.7133261.5873309-1.3744419 1.0689394-1.9444853.5025667-.5621127 1.1189665-1.00951488 1.8077651-1.31213238.6603616-.27638161 1.3613374-.44193809 2.075-.49007353.3458334-.03161764.675947-.03161764 1.0060606-.03161764.321032.01516724.6410834.04682619.9589015.09485294.3018894.03973257.6011107.09780444.8960228.17389706.2739625.08092761.5418701.18130219.8017045.30036764.24204.10403882.473647.23108616.6916667.37941177.1965005.13617689.3806169.28959539.5501894.45845584.2738894.2685946.4975234.5845282.6602273.9327206.1091814.2202127.1884874.4541628.2357954.6955883z" fill="#745b45"/><path d="m27.5566288 11.6352941.204356-.2213235c.2086495-.1900532.4350095-.3594622.675947-.5058824.3852057-.2291411.8044926-.3946042 1.2418561-.4900735.5688555-.1161225 1.1521815-.1427877 1.7291666-.0790441.6974493.0752668 1.3690701.3076143 1.9649622.6797794.68328.4231347 1.1998392 1.0710982 1.4619318 1.8338235.2695586.809385.3290787 1.6745987.1729167 2.513603-.0679351.4181305-.1677884.8303788-.2986743 1.2330882l-.4087121 1.1856618c-.2672349.7904411-.5344697 1.5808823-.7859849 2.3555147-.2515151.7746323-.5030303 1.5334559-.7388257 2.2764706-.2357955.7430147-.4558712 1.4702206-.6602273 2.15s-.3929924 1.3279411-.5659091 1.9286764c-.2746324.9649316-.4846984 1.9472767-.6287879 2.9404412-.0357321.2778677-.0410036.5588422-.0157197.8378677.0157197.0948529.0314394.1580882.0471591.2213235l.0314394.0632353-.0471591-.0632353c-.0272899-.0718052-.0483285-.1458578-.0628788-.2213235-.0521316-.281365-.0732189-.5676577-.0628787-.8536765.065053-1.0064031.212266-2.0057246.4401515-2.9878677.1257576-.6165441.2829545-1.2805147.4715909-1.9761029.1886363-.6955882.361553-1.4227941.5816288-2.1816176.2200757-.7588236.4558712-1.5176471.7073863-2.3080883.2515152-.7904412.5030303-1.5650735.7702652-2.3555147l.3929924-1.1856618c.1307382-.3758303.2306306-.7618034.2986743-1.1540441.1257575-.7746323.1257575-1.5650735-.1100379-2.2448529-.2154078-.6742027-.6465087-1.2578211-1.2261364-1.6599265-.5373981-.353897-1.1424634-.5908335-1.7763257-.6955882-.5459724-.0885579-1.1016386-.099202-1.6505682-.0316177-.4175712.0673413-.8245291.1895894-1.2104167.363603-.2569753.1194408-.4995764.2679482-.7231061.442647z" fill="#745b45"/><path d="m27.3051136 10.0069853c-.0035123-.09550103-.0140206-.19061173-.0314394-.28455883-.0314394-.18970588-.0943181-.45845588-.1886363-.80625-.1160239-.4060675-.2631822-.80247622-.4401515-1.18566176-.2187024-.50040375-.5042924-.96844837-.8488637-1.39117647-.410302-.48902051-.9124212-.891919-1.4776515-1.18566177-.3053468-.15633744-.6269305-.2782778-.9589015-.36360294l-.51875-.11066177c-.1759944-.0366357-.3548261-.057794-.5344697-.06323529h-.5659091l-.5501894.03161765c-.3767373.03106429-.7501355.09453167-1.1160985.18970588-.7429517.20883315-1.4374748.56343636-2.0435606 1.04338235-.6015364.49582013-1.1168436 1.08884489-1.5248106 1.75477941-.3938323.65643271-.7103557 1.35673239-.9431818 2.08676471-.2084695.68724803-.3609306 1.39043073-.4558712 2.10257353-.0471591.3477941-.0785985.6955882-.157197 1.0275735-.0734455.3239002-.1733425.6411531-.2986742.9485294-.1308457.2769928-.2944665.5370855-.4873106.7746324-.1874567.2055773-.4047494.381463-.6445076.5216912-.3921969.2071983-.8303914.3105674-1.2732955.3003676-.2813055-.0131789-.5605033-.0555609-.8331439-.1264706l-.2672348-.0948529.2829545.0632353c.2647824.0445696.5335523.0604693.8017045.0474265.4168796-.0330801.8204478-.1629541 1.1789773-.3794118.4302971-.302827.7548074-.734273.9274621-1.2330882.1096208-.2858449.1886649-.5826159.2357955-.8852942.0538838-.3351373.0906115-.6728372.1100379-1.0117647.0627669-.7443855.1996909-1.4805529.4087121-2.19742644.1098599-.38646236.241061-.7664639.3929924-1.1382353.1645117-.37292875.3481551-.73702122.5501894-1.09080882.4321298-.72713466.9912938-1.36980253 1.6505682-1.89705882.6628359-.52839295 1.4286922-.91079918 2.2479167-1.12242647.4003213-.1093884.8116325-.17302582 1.2261363-.18970589h.8960227l.2829546.03161765.5816288.07904412c.1886363.04742647.3929924.07904412.5659091.14227941.3548204.11182752.6972256.26016139 1.0217803.44264706.3114372.17038681.6016621.37734945.8645833.61654412.2407236.22259374.4616401.46592167.6602273.72720588.3329217.46223795.6025695.96737076.8017045 1.50183824.1541267.40441813.2699189.8225748.3458334 1.24889705.0575573.27078156.0943448.54560975.1100378.82205883.0157197.15808823.0157197.25294118.0157197.25294118z" fill="#745b45"/><path d="m53.8871212 40.3757353s-1.2104167-3.9680147-.7388257-4.3158088c.4715909-.3477941 7.3725378-1.2014706 9.9191287-.1897059l-.1886363 4.5055147-7.8441288 3.5886029z" fill="#afb1b4"/><path d="m39.8022727 61.6227941 7.5611743-10.6709559 1.0375 10.6709559h18.5020833c.9431818-9.8172794 1.194697-11.4297794 1.194697-11.4297794l6.0835227 11.4297794h4.5587121l-7.985606-18.6069853s-.4244319-1.8654412-3.3954546-2.861397c-2.9710227-.9959559-5.6433712-2.1183824-5.6433712-4.2367647v-5.5647059h-7.1996212v5.5647059c0 2.1183823-2.6566288 3.130147-5.6276515 4.1261029-2.9710228.9959559-3.3325758 2.8455882-3.3325758 2.8455882l-10.89375 18.7334559z" fill="url(#e)"/><path d="m71.0215909 14.2911765c0 10.3231617-3.6469697 18.7650735-13.0159091 18.7650735s-12.8429924-8.5367647-12.8429924-18.8757353c0-10.33897058 8.7244318-11.39816176 13.0001894-11.39816176s12.8587121 1.16985294 12.8587121 11.50882356z" fill="#fddfd8"/><path d="m55.0660985 20.8992647c.0127507 1.0514101-.6072174 2.0064438-1.5694814 2.4177174s-2.0762377.1973301-2.8200821-.541609c-.7438445-.7389392-.9702337-1.8565195-.573116-2.8292126s1.3390889-1.607847 2.3846492-1.6079252c.6795708-.0042057 1.3329682.2632567 1.8164454.7435456.4834773.480289.7574285 1.1340598.7615849 1.8174838z" fill="#82b034"/><path d="m54.4058712 20.8992647c.0063553.7317621-.4279158 1.3947399-1.0989675 1.6777336-.6710517.2829936-1.4456407.1298121-1.9601771-.3876415-.5145364-.5174537-.6668542-1.2964344-.385456-1.9712908s.9406383-1.1115897 1.6682749-1.1051984c.9774794.0085859 1.7677883.8033756 1.7763257 1.7863971z" fill="#2a1d01"/><path d="m51.875 19.9665441c0 .2881221-.2322523.5216912-.51875.5216912s-.51875-.2335691-.51875-.5216912.2322523-.5216912.51875-.5216912.51875.2335691.51875.5216912z" fill="#fff"/><path d="m52.4094697 26.5904412c1.7606061 1.075 3.6626894 1.7389706 5.5804924 1.7231617 1.9178031-.0158088 3.7727273-.7588235 5.6119318-1.7231617-.6832617.8095282-1.5228975 1.4710617-2.4679924 1.9444853-1.9703809 1.0156778-4.3025711 1.0332684-6.2878788.0474264-.9613343-.4545625-1.7977463-1.1383395-2.436553-1.9919117z" fill="#f99d1c"/><path d="m61.3854167 20.8992647c.105347 1.357785 1.2316562 2.4055418 2.5858901 2.4055418s2.4805431-1.0477568 2.5858902-2.4055418c-.1053471-1.357785-1.2316563-2.4055418-2.5858902-2.4055418s-2.4805431 1.0477568-2.5858901 2.4055418z" fill="#82b034"/><path d="m62.0613636 20.8992647c-.0063552.7317621.4279158 1.3947399 1.0989675 1.6777336.6710517.2829936 1.4456408.1298121 1.9601771-.3876415.5145364-.5174537.6668543-1.2964344.3854561-1.9712908s-.9406384-1.1115897-1.6682749-1.1051984c-.9774795.0085859-1.7677883.8033756-1.7763258 1.7863971z" fill="#2a1d01"/><path d="m62.1556818 19.9665441c0 .2881221.2322523.5216912.51875.5216912s.51875-.2335691.51875-.5216912-.2322523-.5216912-.51875-.5216912-.51875.2335691-.51875.5216912z" fill="#fff"/><path d="m53.2111742 39.1742647s4.6373106 4.0470588 9.6676137 0l-3.426894 10.1176471z" fill="#fff"/><path d="m56.0407197 46.4463235s1.6034091 2.8455883 2.2007576 2.8455883 2.5151515-2.8455883 2.5151515-2.8455883l-2.4051136-1.8180147z" fill="#1b88c0"/><path d="m38.2774621 64.4209559 8.5515152-12.7102941s.4873106 7.7147058.7859848 12.1253676l19.9640152-2.2132353c.3458333-4.6952206.8174242-10.6867647.8174242-10.6867647l5.6276515 10.6867647h4.9045455c-2.908144-7.2246323-8.0484849-19.9349265-8.6301137-20.7095588-.8017045-1.075-7.3725378-2.95625-7.3725378-2.95625l-4.9674243 7.2720588-5.4861742-7.5408088s-5.9106061 2.15-6.4450758 2.41875-9.7776515 17.1209559-13.6289772 24.3139706z" fill="#e6e7e8"/><path d="m77.2151515 60.0261029c.3187971-.1152287.6522285-.1844221.9903409-.2055147-.017537-.028792-.0282912-.0612374-.0314394-.0948529h-.0157197l-.0471591-.1106618c-.3351804.0163583-.6649736.09125-.9746212.2213236l-1.1475378-2.6084559c.3721815-.0762379.7527307-.1028148 1.1318181-.0790441-.0314394-.0790442-.0471591-.1422795-.0785985-.2055147-.3796522-.0125673-.7594709.0192637-1.1318181.0948529l-1.0532197-2.3713235c.3418481-.1935523.7139508-.3271996 1.1003788-.3952206-.0194054-.0658704-.0457545-.1294667-.0785985-.1897059-.3838988.0774191-.7545677.2105514-1.1003788.3952206l-1.1160985-2.513603c.3389967-.2566043.702304-.4790017 1.0846591-.6639705-.0194054-.0658704-.0457545-.1294668-.0785985-.1897059-.3843287.1812933-.7480023.403915-1.0846591.6639706l-1.3204545-3.0036765c.2672348-.5058824.6130682-1.1066177.8331439-1.4860294l-.0943182-.2371324c-.204356.3477941-.5816288.9959559-.8488636 1.4860294l-1.2890152-2.9246323c.4087122-1.1066177.7388258-1.8180147.7545455-1.8338235-.043228-.0812766-.0800211-.165852-.1100379-.2529412-.157197.3319853-.4715909 1.0908088-.7545454 1.8338235l-1.351894-3.0511029c.3772727-.9643383.7859849-1.2172794.9589015-1.2805147.1729167-.0632353-.0471591-.0632353-.0471591-.0790442h-.0157197l-.0628787-.0948529c-.157197.0474265-.5501894.26875-.9431819 1.1856618l-2.3893939-.7746324c.0314394-.6007353.2672349-1.3121323.4558712-1.8338235l-.1729167-.0632353c-.204356.5058823-.4558712 1.2330882-.4873106 1.8338235l-1.8863636-.6323529c.0471591-.7746324.0785985-1.2330883.0785985-1.2647059h-.2043561c0 .1264706-.0314394.5533088-.0628788 1.2172794l-.3143939-.0948529-.0628788.1897058.361553.1106618c-.047159.7746324-.0943181 1.8180147-.1729166 3.051103-.4398548-.1277928-.8858065-.2333175-1.3361743-.3161765l-.0471591.1897059 1.3833334.3319853c-.0471591.8378676-.0943182 1.7547794-.157197 2.7349264-.4715909-.1264706-1.0060606-.2529411-1.55625-.3477941l.4558712-5.4382353h-.204356l-.4558713 5.4224265-1.0375-.1580882-.0314393.2055147 1.0532197.1580882-.2200758 2.7033088-1.3833333-.1422794.361553-4.5371323h-.1886364l-.3772727 4.5371323c-1.7448864-.1422794-3.3954545-.1897059-4.8888258-.1897059l-.3772727-4.1419117h-.1886363l.361553 4.1261029-1.870644.0632353-.3143939-3.3356618.8331439-.1580882.675947-.1106618-.0314394-.1897059-.6916666.1106618-.8017046.1422794-.2829545-2.9878676h-.2043561l.2829545 3.0036764c-.5973484.1106618-1.1632575.2371324-1.6820075.363603l-.2515152-2.9878677 1.3833334-.3952205-.0628788-.1897059-1.3361743.3794117-.204356-2.4029411.6916666-.2055147-.0471591-.2055148-.6602272.2055148-.1414773-1.707353-.157197.0474265h-.0314394l.1414773 1.7073529-1.3361742.3952206-.1100379-1.6125h-.0157197l-.1729167.0632353h-.0157197l.1100379 1.6125-1.6977273.5216912c-.0628788-.6797794-.1257576-1.3595588-.1414772-1.4860294l-.1886364.0790441c0 .0316176.0628788.6797794.1257576 1.4702206l-.8960228.26875c-.1004445-.4339717-.2264238-.8615624-.3772727-1.2805147l-.0785985.0316176h-.0314394l-.0471591.0632353h-.0157197c.1456373.3977817.2663908.8043353.3615531 1.2172794l-2.0435606 3.6518383c-.1839539-.3244002-.4173432-.6177908-.6916667-.8694853l-.0943182.173897c.2682458.2711342.4959354.5799917.675947.9169118l-1.713447 3.0511029-.6602273-.9643382c-.0458628.0631151-.0828881.1322662-.1100378.2055147l.6602272.9485294-1.2261363 2.1974265-.7702652-.7904412-.0943182.1897059.7545455.7904412-.9589015 1.7231617c-.2986743-.1580882-.675947-.3319853-.9431818-.442647l-.0943182.1580882c.3250285.1357271.6401951.2942039.9431818.4742647l-.8960227 1.5808824c-.3098236-.1546341-.6302801-.2867134-.9589015-.3952206l-.1100379.173897c.3340638.1138352.6597429.2511846.9746212.4110294l-.9589015 1.707353-.9431818-.4426471-.0943182.1738971c.0157197.0158088.51875.2371323.9274621.4584559l-.8174242 1.4544117-.9589016-.3477941-.1100378.1738971c.2357954.0790441.7545454.2529412.9746212.3477941l-.8645834 1.5492647c-.5344697-.1738971-.9431818-.26875-.9903409-.2845588-.0112233.0416802-.0328701.0797769-.0628788.1106617v.0316177l-.047159.0632353c.3402246.0700045.6761389.1597377 1.0060606.26875l-2.5623106 4.5371323h.2515151l2.4994318-4.4897058c.2986743.0948529.6445076.2371323 1.0060606.3952205l-2.3422348 4.0628677h.2200757l2.2950758-3.9838235c.3781698.1744351.7410126.3806829 1.0846591.6165441l-1.9806818 3.398897h.2357954l1.9178031-3.2724264c.1886363.1422794.9431818.9169117 1.1003787 1.0908088l.1414773-.1897059c-.3594011-.3825007-.7426915-.7415627-1.1475379-1.075l.7702652-1.2647059c.42293.3467567.8269872.716164 1.2104167 1.1066177l.0943181-.1580883c-.3813641-.3975579-.7855266-.7723403-1.2104166-1.1224264l.9117424-1.4860294c.4570488.341109.8879361.7163097 1.2890151 1.1224264l.0943182-.1264706.0314394-.0316176c-.4042317-.4196311-.8462745-.8006732-1.3204545-1.1382353l.880303-1.4544118 1.3204545 1.2647059.1257576-.173897c-.0314394-.0158089-.6445076-.632353-1.3361742-1.2647059l.880303-1.438603c.7702652.7113971 1.3361743 1.34375 1.351894 1.3595589v-.0316177l.0943181-.1422794c-.0471591-.0474265-.5816288-.6481618-1.3518939-1.3753677l.7702651-1.2805147 1.4147728 1.4544118.1100379-.1738971-1.4147728-1.4544117.9746212-1.6125 1.2732955 1.8338235.1100379-.173897-1.2732955-1.8338236 1.1160985-1.8496323c.2475185 1.0059468.4416689 2.0244191.5816288 3.0511029l.1729167-.26875c-.0314394-.2213235-.2200758-1.517647-.5816288-3.0511029l1.0060606-1.6757353c.0157197 2.2764706-.1100379 4.0786764-.1100379 4.1261029v.1422794h.0157197l.0943182-.1422794c.0021374.0372661.007396.0742845.0157197.1106618h.0157197c.0157197 0 .5030303-.1422794 1.4304924-.3319853.0628788.6955882.1100379 1.3911765.1729167 2.0867647-.8645834.1897059-1.3833334.3477941-1.4933713.3794118-.0022926.0324229.0030948.0649303.0157197.0948529l.0314394.1106618c.4781677-.1597454.9666115-.2865101 1.4619319-.3794118l.1886363 2.2922794c-.8331439.1422794-1.3676136.2529412-1.5405303.3003677-.1729167.0474264.0157197.1264705.0157197.2055147 0 .0790441.6602273-.1580883 1.5405303-.3003677l.1414773 1.9286765-1.5719697.1897059c.0136307.0675931.0189106.1366202.0157197.2055147.1886364-.0316177.7388257-.1106618 1.5719697-.1897059.0628788.7430147.1100379 1.4860294.1729167 2.1816176l-1.5405304.2371324.0314394.2055147c.4873106-.0948529 1.0060606-.1738971 1.5248106-.2371324.0157197.2845589.1886364 2.3238971.2043561 2.6084559h.2043561c-.0314394-.2845588-.1886364-2.3397059-.2200758-2.6400735l1.5090909-.1580882.2200758 2.6558823h.1886363l-.2200757-2.6716912c.5344697-.0632353 1.0689394-.0948529 1.6034091-.1264705l.2357954 2.6400735h.2043561l-.2515152-2.6558824c.6287879-.0474264 1.2732955-.0790441 1.9020834-.0948529l.1100379 1.2805147h.204356l-.1257576-1.2963235 1.8392046-.0474265.1100379 1.34375h.204356l-.1257576-1.34375h2.9553031l-.1100379 1.34375h.2043561l.1100378-1.34375 1.3676137.0316176-.1100379 1.3121324h.2043561l.1100378-1.3121324 2.0121212.0790442c-.0104798.4321078-.0261994.8431372-.047159 1.2330882h.204356l.0471591-1.2330882 1.9020833.1106617-.0471591 1.1224265h.1886364c.0314394-.3636029.0471591-.7272059.0628788-1.1224265l1.6191288.1106618v-.1897059c-.0314394-.0158088-.6287879-.0632353-1.6191288-.1106618.0157197-.6007353.0471591-1.2014705.0785985-1.8338235l1.713447.2213235.0314393-.2055147-1.7291666-.2213235c.0314394-.5533088.0628788-1.1382353.0943182-1.7231618l1.8077651.3319853.0314394-.2055147-1.8392045-.3319853.1414772-2.6716911c.6130682.1106617 1.2261364.2213235 1.8549243.3636029l.0471591-.1897059-1.8863637-.3794117c.0314394-.6481618.0628788-1.2963236.1100379-1.9444853l1.8392046.3003676.0314394-.2055147-1.870644-.2845588c.0314394-.4268383.0471591-.8536765.0785985-1.2647059.6130682.1264706 1.2418561.2529412 1.8706439.4110294v.4742647h.2043561c-.0157197-.80625-.0157197-1.5334559 0-2.2290441l.8645833 1.7547794c-.0991922.6700053-.151719 1.3461612-.1571969 2.0235294l.1729166.3477941h.0314394c-.0103921-.6867793.0263746-1.3734609.1100379-2.055147l.7859848 1.5808823c-.1919844.4714933-.3240254.9654707-.3929924 1.4702206h.1886364c.0684869-.4211559.1790858-.8342808.3301136-1.2330882l.8174243 1.6283088c-.3301137.4110294-.5501894.7272059-.6602273.8694853l.0943182.2055147h.0157197c0-.0158088.2515151-.3636029.6445075-.8694853l.9274622 1.88125-.7073864.6639706.0628788.0790441.0628788.0790441.675947-.6165441 1.0532196 2.1341912c-.2016219.2153319-.3905793.4423107-.565909.6797794l.1571969.1106618c.162124-.2094188.3352889-.4099513.51875-.6007353l1.2418561 2.5294117-.2672349.2371324h.314394l.0471591-.0474265.0314394.0474265h.2200757l-.0943182-.1738971c.2515152-.2055147.5501894-.442647.8960228-.6797794l.3929924.8536765h.2357954l-.4715909-.9643382c.3071487-.2055045.6274823-.3903445.9589016-.5533089l.6602272 1.5176471h.2200758zm-1.5090909-2.9246323c-.3728083.1254634-.7270778.3009437-1.0532197.5216912l-1.0217803-2.1341912c.3360717-.2636747.6877957-.506526 1.0532197-.7272059zm-1.1160985-2.5294118c-.3301136.2055147-.6916666.4584559-1.0532197.7113971l-1.0375-2.1974265c.3114069-.3555938.6476116-.6884218 1.0060606-.9959559zm-1.1789773-2.6716912c-.3301136.2845589-.6759469.632353-1.0060606.9801471l-1.1003787-2.2922794c.2829545-.5691177.565909-1.1224265.8331439-1.5966912zm-2.640909-6.0231617 1.2575757 2.8772059c-.2515151.4742647-.5501894 1.0275735-.8331439 1.5966911l-1.1003788-2.323897c.204356-.7904412.4558712-1.5176471.675947-2.15zm-1.4619319-3.319853 1.3361743 3.051103c-.2200758.6165441-.4558712 1.34375-.675947 2.1341912l-1.1789773-2.4819853h-.0471591c.1037576-.9169832.293232-1.8220893.5659091-2.7033089zm-2.4208333-1.1066176 2.2479167.7430147.0471591.0948529c-.316196.9323276-.5271177 1.8974626-.6287879 2.8772059-.314394-.1264706-.9903409-.3952206-1.8234849-.6955882.0628788-1.169853.1100379-2.2132353.157197-3.0194853zm-2.075-.6797794 1.8863636.6165441c-.047159.80625-.1100378 1.8338235-.1729166 3.0194853-.5816288-.2055147-1.2261364-.4110294-1.8863637-.6007353.0628788-1.2330882.1257576-2.2606618.1729167-3.0352941zm-2.1064394 5.7702206c.5501894.0948529 1.0846591.2213235 1.5719697.3477941-.0471591.8220588-.0943182 1.6915441-.1414773 2.5768382-.5659091-.0948529-1.1160984-.1580882-1.6505681-.2213235zm-.2357954 2.8930147c.5344697.0632353 1.1003787.1422794 1.6505681.2371323-.0157197.4426471-.0471591.901103-.0628787 1.3595589l-1.713447-.1738971zm-.1414773 1.6125 1.713447.1897059-.0943182 1.8654411c-.5973485-.0790441-1.194697-.1580882-1.7763258-.2055147zm-10.5950758-.0474265.1729167 1.9919118-1.5090909.2055147-.1414773-2.0235294zm-1.4933712-.0316176-.1100379-1.5650736 1.4619319-.1422794.1257575 1.5492647zm1.6820076 2.2132353.2043561 2.4819852-1.5405304.1422795-.1729166-2.4029412c.4558712-.0790441.9589015-.1580883 1.5090909-.2213235zm.1886364-.0158089.8488636-.0948529.9589015-.0790441.2357955 2.5610294c-.6445076.0158088-1.2575758.0632353-1.8392046.0948529zm1.9964015-.1897059c.5816288-.0474264 1.1946969-.0790441 1.8549242-.0948529l.2357955 2.6400735h-1.8392046zm1.8706439-2.1816176c1.3833333-.0158088 2.8924243.0158088 4.5587121.1264706l-.1414772 1.8338235c-1.5248106-.0948529-2.9395834-.1106617-4.2443182-.0790441zm.2357955 4.9165441.1886363 2.0867647-1.8392045.0316177-.1886364-2.0867647zm.1886363-.1897059-.2357954-2.6558823c1.2732954-.0316177 2.6880682-.0158088 4.2128788.0790441l-.2200758 2.7191176c-1.3361742-.0948529-2.59375-.1422794-3.7570076-.1422794zm4.1814394-2.5610294 1.3676137.1106618-.2200758 2.7191176-1.3676136-.1264706zm1.5719697.1264706c.5816288.0632353 1.1789773.1264706 1.7763258.2213235l-.1414773 2.7033089-1.8549242-.2055147zm-1.2732954-3.8099265 1.3833333.1422795-.1257576 1.4227941-1.3833333-.1106618zm-.1414773 1.6599265 1.3833333.094853-.1414772 1.8496323c-.471591-.0474265-.9431819-.0948529-1.3833334-.1106618zm-.0628788-1.6757353-.1257576 1.4544118c-1.6662879-.1106618-3.2068182-.1422794-4.5901515-.1264706l-.1414773-1.5176471c1.4933713 0 3.1282197.0474265 4.8573864.1897059zm-4.7316288 3.4305147c-.6445076.0158088-1.2575757.0474265-1.8549242.094853l-.1729167-1.9286765 1.8549242-.0632353zm-.3301136-3.6202206.1414773 1.5176471-1.870644.0632353-.1414773-1.5334559zm-1.713447 3.7150736-1.8077651.173897-.157197-1.9761029 1.7763257-.1264706zm-.2043561-2.1183824-1.7763257.1106618-.1257576-1.5334559 1.7606061-.1106618zm-.4715909-5.0430147.2986743 3.3040441-1.7448864.1106618-.2515151-3.051103c.5344697-.1264705 1.1003788-.2529411 1.6977272-.3636029zm-1.6505681 3.4305147-1.4619319.1580882-.1886363-2.8297794c.4244318-.1264706.8960227-.2371323 1.399053-.3636029zm-.2672349-3.225c-.5030303.1106618-.9746212.2213235-1.399053.3477941l-.2043561-2.9404411 1.3676137-.3794118zm-.4558712-5.5805147.1886364 2.4029412-1.351894.3794117-.1729166-2.3871323zm-1.1475379 5.9757353-1.6191288.4584559c-.0785985-1.0591912-.1729166-2.0393383-.2515151-2.9246324l1.6662879-.4742647zm-2.6723485 1.0433824h.0157197l.8645834-.3003677c.0628788.80625.1414772 1.6599265.2200757 2.5294118l-1.1160985.2055147c.0157197-.7113971.0314394-1.5492647.0157197-2.4345588zm2.2793561-6.5606618.1729167 2.3713235-1.6662879.4742647c-.0785985-.9169117-.1414773-1.7073529-.2043561-2.323897zm-2.9395833 1.0117647c.1414772.7272059.2357954 1.5176471.3143939 2.3397059l-1.6034091 2.7507353c-.1929096-.527494-.4240871-1.0400249-.6916667-1.5334559zm-2.1064394 3.7783088c.2622009.4993384.4881071 1.0171136.6759469 1.5492647l-1.55625 2.6558824-.8174242-1.169853zm-1.8077652 3.225.8174243 1.169853-1.1160985 1.9286764-.9117425-.9327206zm-1.3047348 2.3397059.8960227.9327206-.8331439 1.4544118c-.3301137-.2529412-.675947-.4900736-1.0060607-.6955883zm-1.0375 1.8654412c.3301136.2055147.6602272.442647.9903409.6955882l-.8803031 1.5176471c-.3212969-.2326011-.6573666-.4438356-1.0060606-.632353zm-.9903409 1.7705882c.3445689.1810464.6755593.3871069.9903409.6165441l-.9431819 1.6283089-1.0060606-.5375zm-1.0532197 1.88125.9903409.5375-.833144 1.438603c-.3143939-.1738971-.6287878-.363603-.9746212-.5216912zm-.7702652 3.5569853c-.3458333-.1580882-.6916667-.2845588-.9903409-.3952206l.8488636-1.517647c.329221.1495723.6494079.3184915.9589016.5058823zm1.2732955.7113971c-.3456826-.2325536-.7082569-.4386488-1.0846591-.6165442l.8017045-1.3911764c.3929924.2529412.7388258.5058823 1.0532197.7430147zm.8645833-1.438603c-.2986742-.2371323-.6602273-.4900735-1.0375-.7430147l.8331439-1.4386029c.38077.2145198.7482389.4520892 1.1003788.711397zm1.0060606-1.6441176c-.361553-.2529412-.7388258-.5058824-1.1003788-.7113971l.9431818-1.6283088c.3666512.2702002.7182549.5604665 1.0532197.8694853zm1.0060606-1.6441177c-.3405029-.3089529-.6973348-.5992033-1.0689394-.8694853l.880303-1.5018382c.3772728.3003676.7388258.6165441 1.0532197.9169118zm.9746212-1.6441176c-.3143939-.2845588-.6759469-.6007353-1.0532197-.901103l.833144-1.4227941 1.0060606 1.0433824zm.8960227-1.4702206-1.0217803-1.0433824 1.1003788-1.88125.9117425 1.2963236zm1.1003788-1.8180147-.9117424-1.2963235 1.5248106-2.5926471c.2200758.6481618.4087121 1.3121324.5659091 1.9602941zm1.3361743-2.1974265c-.157197-.6481617-.3615531-1.3121323-.5816288-1.9444853l1.5405303-2.6400735c.0785985.9485294.1100379 1.8970588.1257576 2.7981618zm.7702651-7.430147.8960228-.26875c.047159.6165441.1100378 1.4069853.1886363 2.323897l-.7545454.2055147c-.0569016-.7604386-.1672147-1.5158774-.3301137-2.2606617zm.4244318 2.4503676.6916667-.1897059c.0785985.8694853.157197 1.8654412.2515152 2.9246324l-.8645834.2845588c-.0157197-.9485294-.0628788-1.9444853-.1414772-2.9246324zm-.0157196 7.5566177c.0157196-.2529412.047159-.8694853.0785984-1.6757353l1.1318182-.2055147c.0314394.5216911.0785985 1.0591911.1257576 1.5966911-.675947.1264706-1.1160985.2371324-1.3361742.2845589zm1.1632575-4.6794118 1.6191288-.4584559.2043561 2.7981618c-.6287879.0790441-1.1632576.1422794-1.6034091.2213235-.0628788-.8852941-.1414773-1.7389706-.2200758-2.5610294zm.3772728 4.3474265-.1414773-1.5808824c.4401515-.0790441.9746212-.1580882 1.6034091-.2213235l.1100379 1.5650735zm.1886363 2.2922794c-.0628788-.7113971-.1100379-1.3911765-.1729166-2.0867647l1.55625-.2529412.1571969 2.0393382c-.5973485.094853-1.1003788.2055147-1.5405303.3003677zm.0157197.1897059 1.5248106-.2845589.1729167 2.3871324-1.5090909.2055147zm.2043561 2.5136029c.4244318-.0790441.9274621-.1422794 1.5090909-.2055147l.1414773 2.0235294-1.509091.1264706c-.047159-.632353-.0943181-1.2963235-.1414772-1.9444853zm.3301136 4.3316176c-.0628788-.711397-.1100379-1.4386029-.1729167-2.1816176l1.509091-.1422794.1571969 2.15zm1.3833333-4.56875 1.5405303-.1422794.157197 2.0709559-1.55625.1106618zm.2986743 4.3790442-.1414773-2.1341912 1.5719697-.1106618.1729167 2.1183824zm1.6034091-2.4503677-.1729167-2.0867647.4558712-.0316176 1.3833334-.0632353.204356 2.1025735zm.1886363 2.3080882-.1729166-2.1183823 1.8706439-.0790441.1886364 2.1025735c-.6287879.0210784-1.2575758.0526961-1.8863637.0948529zm2.0907197-.1106617-.1886363-2.0867647 1.8234848-.0316177.1886364 2.0867647zm5.0145834-.0474265c-.9589015 0-1.9649621-.0158088-2.9867425 0l-.1886363-2.0709559c1.0532197-.0158088 2.1693182 0 3.3325757.0474265zm.1729166-2.2290441c-1.1632575-.0474265-2.2950757-.0474265-3.3640151-.0474265l-.1886364-2.0867647c1.1318182.0158088 2.3736743.0474265 3.7255682.1422794zm1.3990531 2.2606618h-1.3676137l.157197-2.0393383 1.3833333.0632353zm.1886363-2.1974265-1.3833333-.0632353.157197-1.9761029 1.3833333.1106617zm2.0278409 2.2764706-2.0121212-.0632353.157197-1.9919118 1.9492424.1264706c-.0314394.6639706-.0628788 1.3121324-.0943182 1.9286765zm.1100379-2.1341912-1.9335227-.1264706.157197-1.9128676c.5973484.0474264 1.2261363.1264706 1.8706439.2055147zm1.9964015 2.2448529-1.9020833-.0948529c.0314394-.6323529.0628788-1.2647059.0943182-1.9286765l1.9020833.1897059c-.0314394.632353-.0628788 1.2330882-.0943182 1.8338235zm.0943182-2.0393382-1.8863636-.1897059c.0314394-.6007353.0471591-1.2014706.0785985-1.8180147l1.9020833.26875zm.1100379-1.9444853-1.9020833-.26875.1414772-2.7191176 1.9020834.3003676zm.1414773-2.8930147-1.8863637-.3003676.0943182-1.8654412 1.9020833.2529412c-.0314393.6323529-.0628787 1.2805147-.1100378 1.9128676zm.1257575-2.1183823-1.9020833-.2529412c.0157197-.4584559.0471591-.901103.0628788-1.3595588l1.9020833.3319852c-.0157197.4268383-.0471591.8536765-.0628788 1.2805148zm.0785985-1.4702206-1.9020833-.3319853c.0471591-.8852941.0943182-1.7389706.1257576-2.5610294.723106.2055147 1.3518939.4268382 1.8863636.6323529-.0314394.7272059-.0785985 1.4860294-.1100379 2.2606618zm.1257576-2.4819853c-.5344697-.2055147-1.1789773-.4110294-1.8863636-.6165441.0471591-.9643383.1100378-1.88125.1414772-2.7191177.6602273.1897059 1.3204546.3952206 1.8863637.6007353-.0314394.8536765-.0943182 1.7705882-.1414773 2.7349265zm1.9335227 2.9246323c-.6287878-.1580882-1.2575757-.2845588-1.8706439-.4110294.0471591-.7588235.0785985-1.5018382.1257576-2.2132353.6038889.2415836 1.1919374.5214343 1.760606.8378677-.0157197.5691176-.0314394 1.1540441-.0157197 1.786397zm.0157197-2.0235294c-.5672621-.3038582-1.1496568-.5782387-1.7448863-.8220588.0471591-.9643382.0943181-1.88125.1414772-2.7349265.8488637.3003677 1.5248106.5691177 1.8077652.6797794-.0943182.8536765-.157197 1.8180147-.2043561 2.8772059zm1.1160985 1.8654412-.8331439-1.6757353v-.0316177h-.0628788c.0314394-1.0908088.0943182-2.0077205.1886364-2.7981617l1.1632575 2.4661765c-.185762.6716876-.3379102 1.352322-.4558712 2.0393382zm.9746212 1.9919118-.8331439-1.6915442c.1117506-.7025854.2586543-1.3990578.4401515-2.0867647l1.0689394 2.2606618c-.2357955.5058823-.4715909 1.0275735-.675947 1.5176471zm.1257576.2371323c.1886364-.4742647.4244318-.9959559.6602273-1.5176471l1.0532197 2.2290442c-.314394.3477941-.5973485.6955882-.8645834 1.0117647zm.9589015 1.9286765c.2515152-.3161765.5344697-.6639706.8645834-1.0275736l1.0217803 2.1658089c-.3458334.26875-.6602273.5375-.9431819.7904411zm1.0375 2.1183823c.2829546-.2371323.5973485-.5216911.9431818-.7746323l1.0060606 2.1183823c-.3183094.2343102-.6178981.4933116-.8960227.7746324zm2.4051137 4.8691177-1.2575758-2.5610294c.2786272-.2759571.5782077-.5296658.8960227-.7588236l1.2575758 2.6400736c-.3458334.2371323-.6445076.4742647-.8960227.6797794zm1.0689393-.7904412-1.2575757-2.6558824c.3208956-.2297195.6765366-.4058791 1.0532197-.5216911l1.1475379 2.6400735c-.3291943.1515258-.6447607.3313607-.9431819.5375z" fill="#cdddc0"/><path d="m61.3068182 63.4882353-2.232197-16.3305147-1.713447.1106618-3.1753787 16.2198529z" fill="#0095da"/><path d="m55.7263258 46.1933824s1.8706439 2.7191176 2.4679924 2.7191176 2.2636363-2.7191176 2.2636363-2.7191176l-2.4051136-1.8180148z" fill="#197cb0"/><path d="m53.1482955 36.0599265c.1414772 1.6283088 5.0931818 8.3628676 5.0931818 8.3628676s5.030303-6.2602941 4.8259469-8.5525735l2.0121213 2.6242647c0 1.5492647-4.4801137 9.5011029-4.4801137 9.5011029l-2.3579545-3.1617647-2.5465909 3.3040441s-3.7255682-5.7544117-4.5587122-9.9121323z" fill="#efeff0"/><path d="m51.0104167 9.12169118s1.1003788 3.33566172 6.225 3.74669122c5.1246212.4110294 9.1645833-.6007353 11.1767045.4110294s1.3047349 10.8132353 1.3047349 10.8132353 2.0121212-7.5882353 1.7134469-11.01875c-.1414772-1.5650736-.2200757-6.32352945-3.1282197-9.01102945-3.4897727-3.225-9.3532197-3.63602941-11.255303-3.33566177-4.9045455.77463236-6.1464015 2.32389706-6.1464015 2.32389706s-2.0278409.12647059-2.6094697.61654412c-3.2225379 2.6242647-5.4390152 9.10588234-1.5090909 21.34191174 0 0-2.2164773-11.5404412 4.2285985-15.88786762z" fill="#fcb963"/><path d="m68.5064394 12.6628676c-1.6348485-.9643382-7.7498106-.3952205-10.8623106-.6007352-3.1125-.2055148-5.9420455-1.5176471-5.7376894-5.46985299 0 0 1.0060606 2.02352941 3.1282197 2.02352941 0 0-1.3204546-.90110294-2.7195076-4.34742647 0 0 3.3168561-2.73492647 11.0666667-.09485294 0 0-5.1403409-3.85735294-12.5757576-.82205882 0 0-.9117424 3.24080882-2.5151515 4.96397059-1.6034091 1.72316172-3.4268939 4.96397062-1.8706439 11.65110292.0785984-3.667647.9589015-8.3944853 4.5901515-10.84485292 0 0 1.1003788 3.33566172 6.225 3.74669122 5.1246212.4110294 9.1645833-.6007353 11.1767045.4110294.5973485.3003676.9589015 1.3753676 1.1632576 2.7507353l.0314394-.0316177s.1100379-2.6242647-1.1003788-3.3356618z" fill="#f99d1c"/><path d="m52.5195076 8.41029412c.2235344.39730449.5226558.74646749.880303 1.02757353l.2829546.18970588.1257575.09485294.157197.07904412.2829545.17389706c.0964099.05384075.1961755.10136605.2986743.14227945l.3143939.1422794.314394.1106617.6287878.2213236c.2200758.0474264.4401516.1264706.6602273.1580882l.6602273.1264706.157197.0316176.1729166.0316177.3301137.0316176.6759469.0790441.675947.0474265.6916667.0316177h.6759469c.2357955 0 .4558712.0158088.6916667 0 .2357955-.0158089.9117424-.0158089 1.3676136 0-.4401515.0948529-.8960227.1580882-1.3518939.2371323s-.9274621.0790441-1.3833333.1106618c-.2299409.0208847-.4610197.0261662-.6916667.0158088h-.7073864c-.2317094-.0053728-.4627923-.0264994-.6916666-.0632353l-.3458334-.0316176h-.1729166l-.1729167-.0316177c-.9299457-.1466941-1.8283024-.4514081-2.6566288-.9011029-.4184687-.2246669-.8001827-.51257555-1.1318182-.85367649-.346077-.32898054-.6007506-.74312799-.7388257-1.20147059z" fill="#ffd04f"/><path d="m61.0710227 8.82132353c-.6966833-.03557478-1.3900407-.12009461-2.075-.25294118-.6845761-.13606771-1.3573805-.32636679-2.0121212-.56911764-.6700485-.24196181-1.3005162-.58295932-1.8706439-1.01176471-.5986153-.43481377-1.0532444-1.04075037-1.3047349-1.73897059l-.1729166-.50588235.4873106.23713235 1.4147727.69558824 1.399053.71139706-.2515151.37941176-1.2104167-1.12242647-1.194697-1.12242647-.1886363-.17389706.204356-.14227941.2357955-.14227941.2200757-.07904412c.1421933-.05670358.2896337-.09906826.4401516-.12647059l.4558712-.07904412.4558712-.04742647c.5980714-.0266171 1.1972999-.00547233 1.7920454.0632353l.8803031.12647059.880303.17389705.8645833.22132353.8488637.25294118-.8803031-.15808824c-.2829545-.06323529-.5816287-.09485294-.8645833-.14227941l-.880303-.11066176-.8645834-.07904412c-.5813173-.03432463-1.1642782-.02904295-1.7448863.01580882l-.4244318.0632353-.4244319.07904412-.3929924.12647058-.1886363.07904412-.1414773.09485294v-.33198529l1.2261363 1.10661765 1.2104167 1.10661764 1.2732955 1.16985294-1.5405303-.77463235-1.3990531-.71139706-1.4147727-.72720588.3143939-.26875c.2155069.62270108.6025818 1.17096796 1.1160985 1.58088235.5304274.42371812 1.1178997.76968389 1.7448864 1.02757353.6343577.26897879 1.2854877.49605407 1.9492424.67977941.6602273.17916667 1.3361743.32144608 2.0278409.42683824z" fill="#ffd04f"/><path d="m44.769697 11.1452206c.1174043-.9199008.306625-1.82908104.5659091-2.71911766.2484899-.90789515.6019766-1.78335758 1.0532197-2.60845588.2215334-.41726207.4792905-.81402512.7702651-1.18566177.3007871-.37094066.6437137-.70520017 1.0217803-.99595588.3868369-.29319513.8236793-.51285472 1.2890152-.64816176.4689901-.13824636.9586394-.19177087 1.4462121-.15808824l-.1414773.04742647c.6247063-.42979432 1.2877859-.80026047 1.9806818-1.10661764.6856842-.30640036 1.3955164-.55492825 2.1221591-.74301471.7203012-.20445117 1.4565134-.34723996 2.2007576-.42683824.7467439-.07657795 1.4980838-.09771361 2.2479167-.06323529.3736423.00805451.7464109.03973469 1.1160984.09485294.3615531.04742647.7388258.11066177 1.1003788.18970588.3615531.07904412.7231061.17389706 1.0846591.26875l.5344697.17389706c.183574.04658653.3624873.11009045.5344697.18970588l.51875.18970589.5030303.23713235c.3458334.14227941.675947.31617647 1.0060606.49007353l.4715909.28455882.4873106.28455883c.314394.18970588.6130682.41102941.9117425.61654411l-.9589015-.5375-.4873107-.26875-.5030303-.23713235c-.3301136-.15808823-.6602272-.31617647-1.0060606-.44264706l-.51875-.18970588-.51875-.17389706-.51875-.17389706-.5344697-.14227941c-.361553-.07904412-.7073863-.17389706-1.0689394-.22132353-.361553-.04742647-.723106-.11066176-1.084659-.15808823-.3615531-.04742647-.7231061-.0632353-1.0846591-.0632353-.7296813-.02365115-1.4600973.00805635-2.1850379.09485294-.7211622.09498028-1.4353305.23756755-2.1378788.42683824-.6947115.20209759-1.3770653.44491478-2.0435606.72720588-.6648043.2877743-1.3015711.63707091-1.9020833 1.04338235l-.0785985.04742647h-.0785985c-.4326993-.05068171-.8711186-.01304347-1.2890152.11066177-.4283146.1045016-.8299957.29840168-1.1789772.56911765-.3647457.25359723-.6927457.55685531-.9746212.90110294-.2934933.34518642-.5564851.71546248-.7859849 1.10661764-.4613335.7936331-.8456189 1.63008984-1.1475379 2.49779412-.3083809.87200239-.5552678 1.76477789-.7388257 2.67169119z" fill="#f99d1c"/><path d="m47.2848485 8.52095588c.2829545-.31617647.5501894-.66397059.8017045-.99595588.2515152-.33198529.4873106-.69558824.7073864-1.05919118.2205512-.36219908.4200031-.73697201.5973485-1.12242647.1902005-.37434921.3581718-.75970623.5030303-1.15404411l.2357954.30036764-.2200757.0632353-.2515152.09485294c-.156979.07481675-.3092246.15929056-.4558712.25294117l-.4401515.30036765-.3929924.34779412c-.5163193.50333978-.9512395 1.08474327-1.2890152 1.72316176l-.1257576.23713236-.0628787.12647058-.0628788.12647059-.2200758.50588236c-.0722925.16492409-.1352715.33382013-.1886363.50588235l-.1886364.52169118c-.0943182.34779411-.2043561.71139706-.314394 1.05919116-.1100378.3477941-.1571969.7272059-.2515151 1.0908088l.0943182-1.1066176c.0628788-.37941178.1257576-.74301472.204356-1.12242648.1664249-.73898463.4197218-1.45542118.7545455-2.13419118.3248124-.69673457.7721521-1.32870323 1.3204545-1.86544118.2773576-.27635999.5890984-.51547651.9274622-.71139705.1627069-.10824901.3366482-.19836318.51875-.26875.1873219-.08199668.38211-.14552938.5816287-.18970589l.3929925-.07904411-.157197.37941176c-.1662571.40563461-.3551952.8014874-.5659091 1.18566177-.2064168.3785249-.4374756.7429214-.6916667 1.09080882-.2512052.35408535-.5242143.69200165-.8174242 1.0117647-.2949887.31533778-.6100468.61105921-.9431818.88529412z" fill="#ffd04f"/><g fill="#e8c6ac"><ellipse cx="58.948864" cy="23.191544" rx="1" ry="1"/><ellipse cx="56.355114" cy="24.155882" rx="1" ry="1"/><ellipse cx="58.1" cy="19.666177" rx="1" ry="1"/><ellipse cx="59.687689" cy="20.978309" rx="1" ry="1"/><ellipse cx="56.685227" cy="20.915074" rx="1" ry="1"/><ellipse cx="60.803788" cy="25.041177" rx="1" ry="1"/><ellipse cx="58.681629" cy="25.483824" rx="1" ry="1"/><ellipse cx="54.342992" cy="24.487868" rx="1" ry="1"/><ellipse cx="61.904167" cy="24.298162" rx="1" ry="1"/><ellipse cx="56.858144" cy="22.432721" rx="1" ry="1"/><ellipse cx="57.864205" cy="21.420956" rx="1" ry="1"/></g><path d="m55.7263258 48.2327206-.0785985-.094853c-1.5405303-1.9919117-3.2382576-5.7860294-4.0399621-8.0466911-.22586-.6021878-.3840402-1.2278907-.471591-1.8654412l.157197-.1580882c.0157197.0632353 1.1003788 4.7742647 4.4329546 9.8330882l2.5151515-3.4779412 2.3107954 3.3672794c.4401515-.7588235 2.7666667-4.7268382 4.1971591-8.1889706.1479197-.3563544.2585537-.7272253.3301137-1.1066176l.204356.1422794c-.1100379.3003677-.2200757.7430147-.3458333 1.0433824-1.5876894 3.8415441-4.2600379 8.2996323-4.2914773 8.3470588l-.0785985.1264706-2.3265151-3.2882353z" fill="#cdddc0"/><path d="m35.9666667 64.4209559c-.9010671-.5579917-1.8818278-.9738461-2.908144-1.2330883-.0426773.0650815-.0795022.1338584-.1100379.2055148.9076884.2202067 1.7805978.5660298 2.59375 1.0275735z" fill="#cdddc0"/><path d="m38.3246212 64.3419118c-1.4776515-1.4702206-3.5369318-2.1025736-4.6215909-2.3397059-.0458628.0631151-.0828881.1322662-.1100379.2055147 1.0217803.2055147 3.0339015.80625 4.5115531 2.2132353h.1729166z" fill="#cdddc0"/><path d="m34.3789773 60.7533088c-.0314394.0632353-.0785985.1264706-.1100379.2055147.9903409.1897059 3.2068182.7904412 4.7630682 2.3397059l.1257576-.1897059c-1.55625-1.5334559-3.7255682-2.15-4.7787879-2.3555147z" fill="#cdddc0"/></g></g></svg>