<svg height="76" viewBox="0 0 48 76" width="48" xmlns="http://www.w3.org/2000/svg" xmlns:xlink="http://www.w3.org/1999/xlink"><defs><ellipse id="a" cx="24" cy="25" rx="24" ry="25"/><linearGradient id="b" x1="49.984295%" x2="49.984295%" y1="99.978202%" y2="-.016349%"><stop offset="0" stop-color="#caaa6e"/><stop offset="1" stop-color="#a58c5b"/></linearGradient><linearGradient id="c"><stop offset="0" stop-color="#c88c66"/><stop offset="1" stop-color="#caaa6e"/></linearGradient><radialGradient id="d" cx="49.929578%" cy="49.894366%" gradientTransform="matrix(1 0 0 .961566 0 .019176)" r="49.894366%" xlink:href="#c"/><radialGradient id="e" cx="50.211348%" cy="49.894862%" gradientTransform="matrix(1 0 0 .961577 0 .019171)" r="49.893033%" xlink:href="#c"/><linearGradient id="f" x1="50.003566%" x2="50.003566%" y1="100.010111%" y2="-.025278%"><stop offset="0" stop-color="#fddfd8"/><stop offset="1" stop-color="#edcac7"/></linearGradient><mask id="g" fill="#fff"><use fill="#fff" fill-rule="evenodd" xlink:href="#a"/></mask></defs><g fill="none" fill-rule="evenodd" transform="translate(0 13)"><use fill="#d8d8d8" xlink:href="#a"/><g mask="url(#g)"><g fill-rule="nonzero" transform="translate(-.288 -.4)"><ellipse cx="24.528" cy="25.55" fill="#1d9c42" rx="24.528" ry="25.55"/><path d="m3.168 12.9938462 40.9361613 28.0061538c3.2215021-4.438247 4.960687-9.8540551 4.9518048-15.4198817 0-14.1195266-10.9833265-25.5801183-24.5263267-25.5801183-9.1589774 0-17.14515894 5.24023669-21.3616394 12.9938462z" fill="#1bb24b"/><path d="m7.06022648 7.7c-2.64365246 2.7974305-4.63264516 6.1931109-5.81222648 9.9228436l39.7942535 26.7771564c2.7746236-2.6516366 4.9255758-5.9345531 6.2857465-9.5936956z" fill="#f1f2f2"/><g fill="none" transform="translate(.672 12.5)"><path d="m14.7063602.67801932c-2.7661741-1.09451691-6.02597531-.46492753-8.68038485 2.12123189s-3.97695746 9.31792269-1.65784175 13.22137679c2.3191157 3.9034541-1.154901 4.5427295-1.154901 4.5427295s1.32254792.7458212 2.15146879-.1743478c.03855208 1.2372382-.22754496 2.4641991-.77303857 3.5644444-1.16421471 2.2955797-.68921511 3.7097343.60539165 6.8964251.61470537 1.4916425 2.1049002 3.2157488 1.16421471 3.9712561l6.08185762-2.7605073 6.5754847-3.7969082-3.2039189-2.7023913-1.4995085-15.74942029z" fill="#281d0a"/><path d="m11.1671475 1.19137681s2.2166648-1.03640096 4.3681336-1.09451691c2.1514688-.05811594 5.5044072 1.68536232 7.059798 5.19169082 1.5553909 3.50632851-.5401956 10.73207728-.2607841 11.88471018.2794116 1.1526328 1.1642147 1.4335265 1.6019595.9201691 0 0-.3352939 1.4335265-2.0490179.6295893 0 0-.2142155.9201691.3911761 2.7023913.6053917 1.7822223.7171563 3.9131401.661274 5.8600242-.1117646 3.971256-4.0328398 6.1506038-3.6416636 7.012657.3911761.8620531.987254.4649275.987254.4649275s-.2700978.8039372-1.3225479.3971256-1.5460771-3.1576328-1.5460771-3.1576328l-7.51617019-.1162319-.88480318-3.7969082z" fill="#281d0a"/><path d="m3.79999682 36.4871256 3.87450656-6.0634299s2.11421392 1.0170289 3.14803662 6.0634299h5.178427c1.1362736-4.988285 3.4088207-5.9568841 3.4088207-5.9568841l3.0269582 5.9568841h2.374998l-5.1318584-10.4124396s.4656859-.8426812-1.1642147-1.4044686-3.1759778-1.5885024-3.1759778-2.7895652v-3.1673189h-3.95833v3.1673189c0 1.2010628-1.0151952 1.7725362-2.6450958 2.3440096-1.6299006.5714735-1.83480239 1.6078744-1.83480239 1.6078744l-5.81175984 10.6545894z" fill="url(#b)"/><path d="m20.4529241 9.58913043c0 5.86971017-2.0024493 10.66427537-7.1529352 10.66427537-5.15048592 0-7.05048433-4.8526812-7.05048433-10.72239131 0-5.86971014 1.99313559-6.48961352 7.14362143-6.48961352 5.1504859 0 7.0597981.66833333 7.0597981 6.54772946z" fill="#caaa6e"/><path d="m11.4651865 12.998599c.0037726.5963436-.3387458 1.1361525-.8674412 1.367087s-1.13912807.1073754-1.5459446-.3129184c-.40681653-.4202937-.52965341-1.0542962-.3110892-1.6056361.21856422-.5513398.73535384-.9111041 1.3087899-.911117.7782384-.0000175 1.4105651.6532571 1.4156851 1.4625845z" fill="#c88e2f"/><path d="m11.1019515 12.998599c0 .5616896-.4378388 1.017029-.9779404 1.017029-.54010151 0-.97794032-.4553394-.97794032-1.017029s.43783881-1.017029.97794032-1.017029c.5401016 0 .9779404.4553394.9779404 1.017029z" fill="#3e2c09"/><path d="m9.71420755 12.4755556c-.00502872.1620376-.13283423.290664-.28872524.2905797-.13728695-.0259581-.23707819-.1503078-.23707819-.2954227 0-.145115.09979124-.2694646.23707819-.2954227.15945855 0 .28872524.1344335.28872524.3002657z" fill="#fff"/><path d="m10.226462 16.5824155c.9686267.6102174 2.011763.987971 3.0642131.968599s2.0769591-.4261836 3.0921543-.968599c-.3819603.4557648-.8473875.8278426-1.3691165 1.0945169-.5307501.2834408-1.1171577.4359024-1.713724.4455555-.6004241.0002659-1.1929635-.1421943-1.7323515-.4164976-.5291966-.2539678-.989894-.6399188-1.3411754-1.1235748z" fill="#3e2c09"/><path d="m10.161266 15.6235024c0 .7596183-.59212487 1.3754106-1.32254791 1.3754106s-1.32254791-.6157923-1.32254791-1.3754106.59212487-1.3754106 1.32254791-1.3754106 1.32254791.6157923 1.32254791 1.3754106z" fill="url(#d)"/><path d="m18.5901805 15.6235024c-.0000133.5571801-.3232588 1.0593067-.8186055 1.2716141-.4953466.2123074-1.0649213.0928469-1.4424237-.3025287-.3775023-.3953755-.4883434-.9885458-.2807003-1.5021784s.6927432-.8462414 1.2284953-.8423176c.3499111-.0000092.6853566.1452081.9319053.4034299s.3838106.6080927.3813289.9719807z" fill="url(#e)"/><path d="m15.274497 12.998599c-.0075551.6019753.3358147 1.1488828.8688086 1.3838081.5329938.2349252 1.1496798.1111771 1.5603642-.3131127.4106845-.4242898.5337443-1.0647941.3113712-1.6206305s-.7459828-.9165329-1.3248589-.9126494c-.7782384-.0000175-1.4105651.6532571-1.4156851 1.4625845z" fill="#c88e2f"/><path d="m15.637732 12.998599c-.0037653.4170044.2353803.7949518.6051266.9563466.3697464.1613948.7966318.0741709 1.080178-.2207087s.3674177-.7388278.2122259-1.1233531c-.1551917-.3845253-.518613-.6332295-.9195901-.6293138-.5401016 0-.9779404.4553394-.9779404 1.017029z" fill="#3e2c09"/><path d="m15.6936143 12.4755556c0 .1658321.1292667.3002657.2887253.3002657.1594585 0 .2887252-.1344336.2887252-.3002657 0-.1658322-.1292667-.3002657-.2887252-.3002657-.1594586 0-.2887253.1344335-.2887253.3002657z" fill="#fff"/><path d="m13.2999889 25.3869807c-2.2166648 0-2.4029392-2.4989855-2.4029392-2.5183575s.0186274-.058116.0465686-.0678019c.0308629 0 .0558823.0260193.0558823.0581159.0455127.4332445.1687189.8537763.363235 1.2398068.4191173.8039372 1.0990187 1.2010628 2.011763 1.1720048 1.9838219-.04843 2.374998-2.3343237 2.3843117-2.3633817.0093138-.0290579.0372549-.0484299.0651961-.0484299.0268803.0112598.0450447.0377064.0465686.0678019-.0093138.029058-.4191173 2.4021256-2.4867627 2.4602416z" fill="#231c1e"/><path d="m1.74166521 35.7897343 5.4205837-5.3660386c.72646998 1.0460869 1.6857829 3.8550241 1.94656699 6.0634299l8.3823459 2.2955797c.3725487-1.7822222 1.0990187-8.4461836 1.0990187-8.4461836l3.2970561 6.1506039h3.5764676l-6.631367-11.9621981-2.1328414-1.0654589s-.3725487 4.05843-3.1759777 4.2908937c-3.3808795.2712077-3.3901932-4.2908937-3.3901932-4.2908937s-3.01764458 1.8306522-3.24117381 1.9081401c-.22352922.0774879-6.03528906 11.042029-6.03528906 11.042029 1.83480238-.4649276.88480318-.6199034.88480318-.6199034z" fill="#fef3f7"/><path d="m4.65685885 36.4871256 2.75686043-4.6008454s.84754831 3.022029 1.14558728 4.6008454l3.84656544 1.8015942.0931371-9.7731642c-2.95244846-.2324638-3.24117371-4.9107971-3.24117371-4.9107971s-2.3656843.997657-2.40293917 1.1526328-4.65685884 8.039372-6.85489622 11.7297343z" fill="#687167"/><path d="m18.0220437 40.090314c.1210784-.968599.2700979-3.971256.4563722-6.034372.0613541-.7166524.1671295-1.4284384.3166664-2.1309178l2.7289193 4.5621014h4.191173c-2.1049002-4.0971739-6.0166617-11.7587923-6.072544-12.039686l-2.2818608-.8426811s-.298039 4.6783333-3.2411738 4.9107971l.0838235 9.7731642z" fill="#687167"/><path d="m15.1999873 39.1507729-.1397058-9.8119082c.363235-.1065459 2.9524485-1.0267149 3.2598012-5.0948309 0-.0320965-.0250194-.0581159-.0558823-.0581159-.0275638-.0004005-.0512906.0201621-.0558823.0484299-.3259801 4.2715218-3.1946052 4.997971-3.2225463 5.007657h-.0372549l.1397058 9.8990822z" fill="#fff"/><path d="m16.5504763 39.5382126-.3911761-10.8289372-.1117646.1162318.3911761 10.7127054z" fill="#fef3f7"/><path d="m11.5024414 29.3388647-.1210784 8.5914735h.1117646l.1210784-8.6786474h-.0465686c-.0279412-.009686-2.89656623-.7264493-3.21323263-5.007657-.010827-.0279548-.03625721-.0468452-.06519602-.0484299-.02718134.0047752-.0469537.0294504-.04656859.0581159.30735268 4.05843 2.88725244 4.978599 3.25980124 5.0851449z" fill="#fff"/><path d="m10.2544032 36.8745652.2700978-8.049058-.1117646-.1162318-.2700978 8.1652898z" fill="#fef3f7"/><path d="m12.5548915 23.7694209c-.0633952.0001947-.1162021-.0504985-.1210784-.1162325" fill="#fffeef" opacity=".2"/><path d="m14.4921447 23.4497826c0-.0695425-.0542086-.1259179-.1210783-.1259179-.0313284-.0001133-.0612643.013453-.0825138.0373934-.0212496.0239405-.0318617.056057-.0292508.0885245" fill="#caaa6e"/><path d="m13.3372437 27.6244444c.4377448 0 .5867643-.3099516.5867643-.6489613s-.3446076-.8814251-.4749997-1.2107488c-.0487805-.131889-.0861827-.2680294-.1117646-.4068116-.0221884.1259534-.0565118.2492642-.1024509.3680676-.130392.3680677-.5029407.9298551-.4749996 1.3269807.0279412.3971256.167647.5714734.5774505.5714734z" fill="#542f82"/><ellipse cx="13.337244" cy="25.357923" fill="#542f82" rx="1" ry="1" stroke="#231f20"/><path d="m13.4024398 26.055314c-.1583332.1646618-.4191173.8814251-.3073527 1.1720048.0384404.1056432.1183196.1892642.219647.2299362s.2145144.0345462.3112349-.0168444c.1024509-.0581159.2421566-.2421497.1769606-.6295893-.0501376-.2626102-.1550538-.5105868-.3073527-.7264493-.0372548-.058116-.0558823-.0774879-.0931371-.029058z" fill="#6f2c87"/><ellipse cx="13.020577" cy="27.256377" fill="#fff" rx="1" ry="1"/><ellipse cx="13.244107" cy="27.401667" fill="#fff" rx="1" ry="1"/><path d="m14.5107722 26.5299275c.2980389 0 .4004898-.2034058.4004898-.4358695 0-.2324638-.2328429-.6005314-.3166664-.8233092-.0341565-.0915016-.062165-.1853584-.0838234-.2808937-.0085695.0870449-.0305842.1720824-.0651961.2518357-.0931371.2518358-.3446075.6392754-.3259801.9007971-.006074.1080373.0338787.2133798.1092342.2880155.0753556.0746358.1784766.1110004.281942.0994241z" fill="#542f82"/><ellipse cx="14.510772" cy="24.999541" fill="#542f82" rx="1" ry="1" stroke="#231f20"/><path d="m14.5573408 25.4644686c-.1117647.1162319-.2887253.6005314-.2049018.8039372.0595851.1412952.2176001.2061627.3539212.1452899.0745098-.04843.167647-.1743479.1210784-.4358696-.0356489-.177321-.1053406-.3453366-.2049018-.4939855-.0279412-.029058-.0372549-.04843-.065196-.019372z" fill="#6f2c87"/><ellipse cx="14.296557" cy="26.287778" fill="#fff" rx="1" ry="1"/><circle cx="14.458321" cy="26.386208" fill="#fff" r="1"/><path d="m12.1823427 26.5977295c.298039 0 .3911762-.2034058.3911762-.4358696s-.232843-.6005314-.3166664-.8329952c-.035331-.0869217-.0603518-.1779947-.0745098-.2712077-.0176917.086054-.0426242.1703237-.0745097.2518358-.0931372.2518357-.3352938.6295893-.3259801.9007971.0093137.2712077.1210783.3874396.4004898.3874396z" fill="#542f82"/><ellipse cx="12.182343" cy="25.057657" fill="#542f82" rx="1" ry="1" stroke="#231f20"/><path d="m12.2195976 25.5322705c-.1117646.1065459-.2887252.6005314-.2049018.7942512.0262742.072299.0809617.1295051.1503275.1572507.0693658.0277455.1468193.0233943.2129075-.0119608.065196-.038744.1583332-.1646618.1117646-.4261836-.0311905-.1787553-.1012779-.3477248-.2049018-.4939855-.0279411-.0387439-.0372548-.0484299-.065196-.019372z" fill="#6f2c87"/><ellipse cx="11.958814" cy="26.35558" fill="#fff" rx="1" ry="1"/><circle cx="12.120578" cy="26.45401" fill="#fff" r="1"/><path d="m11.381363 25.1835749c.065164.0065442.1296282-.01826.175004-.0673371s.0666813-.1170387.057839-.1844987c0-.1452898-.1397058-.3486956-.1862744-.4842995-.0202833-.0499793-.0358785-.1018788-.0465686-.1549758-.0056246.0500432-.0181726.0989787-.0372548.1452898-.0558824.1452899-.1955881.3680677-.1862744.5230435-.0029529.0617011.0199875.1216981.0628758.1644423.0428884.0427442.101503.064028.1606534.0583355z" fill="#542f82"/><path d="m11.4093042 24.5636715c-.065196.0678019-.1676469.3486956-.1210784.4649275.0379512.0834564.1318793.12168.2142156.0871739.0372548-.0290579.0931371-.0968599.065196-.2518357-.0201667-.1046679-.0614326-.2037032-.1210784-.2905797-.0186274-.019372-.0186274-.029058-.0372548-.009686z" fill="#6f2c87"/><circle cx="11.27303" cy="25.049541" fill="#fff" r="1"/><circle cx="11.366167" cy="25.117343" fill="#fff" r="1"/><path d="m15.2838107 25.1835749c.167647 0 .2235293-.1162319.2235293-.2518358 0-.1356038-.1303921-.3486956-.1862744-.4842995-.0209228-.0490364-.0335271-.1014688-.0372549-.1549758 0 0-.0093137.0387439-.0465686.1452898-.0372548.1065459-.195588.3680677-.1862743.5230435-.0002281.0625991.0248796.1224096.069178.1647931.0442983.0423834.1036993.0634286.1636649.0579847z" fill="#542f82"/><path d="m15.3024382 24.5636715c-.0558823.0678019-.1676469.3486956-.1210784.4649275.0379512.0834564.1318793.12168.2142155.0871739.0372549-.0290579.0931372-.0968599.0651961-.2518357-.0201667-.1046679-.0614326-.2037032-.1210784-.2905797-.0093137-.019372-.0186274-.029058-.0372548-.009686z" fill="#6f2c87"/><circle cx="15.166164" cy="25.049541" fill="#fff" r="1"/><circle cx="15.259301" cy="25.117343" fill="#fff" r="1"/><path d="m15.9823396 7.40009662s.8754894-.23246377 1.6019594.40681159.9872541 2.64427539-.2794115 2.98328499c0 0 1.9931356.3486957 2.1887236-2.05342991.1955881-2.40212561-3.2411737-2.77019324-3.5112715-1.33666667z" fill="#3a2c1c"/><path d="m15.4421439 3.14794686.5867643 4.15528985s1.220097-.33900966 2.2166648.05811595c.9965678.3971256 1.9279395 1.23980676.7357837 4.36838164-.7357837 1.9178261-1.881371 6.2862077-.6240191 8.8336232 1.0431364 2.1212319 3.4926441.8233092 3.4926441.8233092s-2.50539.7264492-2.2818608-1.3947826c.2235292-2.1212319 5.3088191-12.35932371.8102934-16.38869569-2.3563706-2.10185991-4.9362704-.45524155-4.9362704-.45524155z" fill="#3a2c1c"/><path d="m15.6656732 3.22543478.3166664 4.07780193s-1.1642147-1.49164251-2.9338211-.33900966-.9965678 3.76785025-4.86176065 4.34900965c0 0-.22352922 3.8453382-2.43088032 4.1940338-2.20735109.3486957-2.93382107-.7458212-2.93382107-.7458212s.94068549.7458212 2.16078251-.6392754c1.22009701-1.3850966-.27941153-7.07077293 2.2632334-10.46086955 2.54264493-3.39009662 7.97254233-1.92751208 8.41960083-.43586957z" fill="#3a2c1c"/><path d="m15.9823396 7.30323671c-.0122241-.0526688-.0277809-.10444016-.0465686-.15497584-.0440673-.13902774-.1034487-.27228838-.1769607-.3971256-.1144164-.18896158-.2557291-.35878323-.4191173-.5036715-.2171543-.18389346-.4628181-.32801213-.7264699-.42618358-.3091779-.11703292-.6316327-.19191542-.959313-.22277777l-.5495093-.01937199-.5588231.02905798c-.3881048.04601214-.7677229.15041983-1.1269598.30995169-.3636616.16305962-.6880934.4078396-.9499992.71676328-.2616218.31320346-.4582128.67923277-.57745051 1.07514493-.06380721.19279696-.11362008.39029939-.14901948.59084541-.01862744.0968599-.02794116.2034058-.03725487.3002657-.00931372.0968599-.01862744.2034058-.03725487.30995169-.05644085.41187999-.18592246.80928247-.38186243 1.17200479-.17507672.3223924-.41685116.6002979-.70784254.8136232-.24619935.1756215-.52563992.2945074-.81960716.3486957-.22586854.0313884-.45494436.028125-.67990139-.009686-.14064537-.0307273-.27794431-.0761595-.40980358-.1356039l-.13970577-.0581159.13970577.0484299c.13829661.0334848.27819722.0593501.4191173.077488.21533965.0154188.43169405-.0008857.64264652-.04843.26761156-.0720103.51808211-.2006026.73578369-.3777536.2544403-.2124357.46107491-.4802266.60539165-.78456523.16186475-.33703665.26587866-.70088584.30735269-1.07514493l.02794115-.30995169c.00931372-.10654589.01862744-.21309179.03725487-.31963768.02774333-.22024301.07450073-.43744052.13970577-.64896135.13265581-.43705147.34798598-.84211397.63333279-1.19137682.2977643-.34440373.6629732-.6185249 1.0710775-.80393719.3912558-.16933769.8065749-.27077335 1.2294108-.3002657.2049018-.01937199.4004898-.01937199.5960779-.01937199.1902073.0092929.3798336.02869019.5681368.05811595.1788655.02434395.3561503.05992431.5308819.10654589.1623193.04958396.321051.11108299.4749996.18403382.1434056.06374408.2806297.14158538.4098036.23246376.116424.08343493.2255106.17743371.3259801.28089372.162276.16456662.2947762.35813763.3911761.57147343.0646886.13492324.1116764.27826335.1397058.42618358z" fill="#745b45"/><path d="m16.3269471 7.12888889.1210783-.13560387c.1236222-.11644467.2577375-.22024078.4004899-.30995169.2282294-.14039365.4766515-.24177213.7357837-.3002657.3370395-.07114771.6826527-.08748532 1.024509-.04842995.4132296.04611561.8111563.18847379 1.1642147.41649759.4048346.25925259.7108892.6562567.8661757 1.12357487.15971.49590627.1949749 1.02601856.1024509 1.54007247-.0402506.25618658-.0994124.50876912-.1769606.75550729l-.2421567.7264492c-.1583332.4842995-.3166664.9685991-.4656859 1.4432126s-.2980389.9395411-.4377447 1.3947826-.2700978.9007971-.3911762 1.3172947c-.1210783.4164976-.2328429.8136232-.3352938 1.1816908-.1627161.591209-.2871775 1.1930871-.3725487 1.8015942-.0211708.1702482-.0242942.3423999-.0093137.5133575.0093137.0581159.0186274.0968599.0279411.1356039l.0186275.0387439-.0279412-.0387439c-.0161689-.0439947-.028634-.0893664-.0372548-.1356039-.0308874-.172391-.0433814-.3478011-.0372549-.5230435.0385431-.6166184.1257648-1.2288978.2607841-1.8306522.0745097-.3777536.1676469-.7845652.2794115-1.2107487.1117646-.4261836.2142155-.8717392.3446076-1.3366667.130392-.4649275.2700978-.9298551.4191173-1.4141546.1490194-.4842995.2980389-.958913.4563721-1.4432126l.232843-.7264492c.0774607-.2302695.1366456-.46675338.1769606-.70707733.0745097-.47461353.0745097-.95891305-.065196-1.37541063-.1276264-.41308075-.3830481-.77066096-.72647-1.01702899-.3184015-.21683103-.6768948-.36200084-1.0524501-.42618357-.3234815-.05425898-.6527066-.06078058-.9779404-.01937198-.2474055.04125969-.4885228.11616049-.7171562.22277778-.1522546.07318081-.2959926.16417061-.428431.27120772z" fill="#745b45"/><path d="m16.1779276 6.13123188c-.002081-.05851302-.008307-.11678688-.0186274-.17434782-.0186274-.11623189-.0558823-.28089372-.1117646-.49398551-.0687427-.24879561-.1559321-.49167333-.2607841-.72644927-.1295783-.30659498-.2987867-.59336368-.5029408-.85236715-.2430986-.29962052-.5405978-.5464745-.8754894-.72644928-.1809141-.0957872-.3714483-.17049947-.5681368-.22277778l-.3073527-.06780193c-.1042744-.02244652-.2102298-.03541011-.3166664-.03874396h-.3352938l-.3259801.01937198c-.223212.01903294-.4444457.0579191-.661274.11623188-.4401893.12795107-.8516853.34521476-1.2107833.63927537-.3564026.30378661-.6617155.66713003-.90343062 1.07514492-.23334058.40219317-.42087663.83126343-.55882306 1.27855073-.12351549.42107355-.21384675.85191025-.27009782 1.28823671-.02794115.21309179-.04656858.42618358-.09313717.62958937-.04351552.19845207-.10270322.39283141-.17696064.58115943-.07752439.16971212-.17446759.32906969-.28872525.47461352-.11106565.12595624-.23980876.23372057-.38186242.31963768-.23237162.12694942-.4919962.19028319-.75441114.18403382-.16666987-.00807467-.33209102-.03404193-.49362703-.07748792l-.15833321-.05811595.16764692.03874397c.15688014.02730761.31612287.03704924.47499961.02905797.24699579-.02026797.48610468-.09984115.69852882-.23246377.25494548-.18554067.44721362-.44988553.54950935-.75550725.0649489-.1751358.11178149-.35696595.13970576-.54241546.03192549-.205337.05368618-.41224416.06519603-.61990338.03718858-.45608147.11831431-.90712767.24215666-1.34635266.06509059-.23678363.14282555-.46960875.23284294-.6973913.09747104-.22849166.20627737-.45156937.32598012-.66833333.25603131-.44551192.58732885-.83927144.97794035-1.16231884.3927217-.32374383.8464817-.55804229 1.3318616-.68770532.2371853-.06702174.4808819-.10601209.72647-.11623188h.5308819l.1676469.01937198.3446076.04842995c.1117646.02905797.2328429.04842995.3352938.08717391.2102266.06851619.4130972.15939964.6053917.27120773.1845225.10439519.356477.2312002.5122545.37775363.1426256.13638211.2735157.28546797.3911761.44555555.1972518.28321097.3570146.59270342.4749996.92016908.0913181.24778505.1599235.50398764.2049018.76519324.034102.16590656.0558981.33429247.065196.5036715.0093137.0968599.0093137.15497584.0093137.15497584z" fill="#745b45"/><path d="m31.9274243 24.7380193s-.7171563-2.4311836-.4377448-2.6442753c.2794116-.2130918 4.3681336-.7361353 5.8769559-.1162319l-.1117646 2.7605072-4.6475452 2.1987198z" fill="#afb1b4"/><path d="m23.5823332 37.7559903 4.4798982-6.5380434.6147054 6.5380434h10.9622457c.5588231-6.015.7078425-7.002971.7078425-7.002971l3.6044088 7.002971h2.7009781l-4.7313686-11.4004106s-.2514703-1.1429468-2.011763-1.7531642c-1.7602926-.6102174-3.3436246-1.2979227-3.3436246-2.5958455v-3.4094686h-4.2656827v3.4094686c0 1.2979228-1.5740183 1.9178261-3.334311 2.5280435-1.7602926.6102174-1.9745081 1.7434783-1.9745081 1.7434783l-6.4544064 11.4778985z" fill="url(#f)"/><path d="m42.0793765 8.75613527c0 6.32495173-2.1607825 11.49727053-7.7117582 11.49727053-5.5509758 0-7.6093074-5.2304348-7.6093074-11.56507247 0-6.33463768 5.1691134-6.98359903 7.7024446-6.98359903s7.618621.71676328 7.618621 7.05140097z" fill="#fddfd8"/><path d="m32.6259531 12.8048792c.0075546.6441939-.3597685 1.2293385-.9298975 1.4813239-.570129.2519853-1.230144.1209032-1.6708623-.3318413-.4407182-.4527445-.5748509-1.1374805-.3395638-1.7334449s.7933929-.9851202 1.4128739-.9851681c.402637-.0025768.7897664.1612961 1.0762205.4555668.286454.2942708.4487666.694833.4512292 1.1135636z" fill="#82b034"/><path d="m32.2347769 12.8048792c.0037655.4483471-.2535345.8545505-.651124 1.0279393-.3975895.1733889-.8565235.0795353-1.1613797-.237506-.3048561-.3170414-.3951025-.7943192-.2283777-1.2078005.1667248-.4134812.5573161-.6810656.9884313-.6771497.579144.0052605 1.0473918.4922244 1.0524501 1.0945169z" fill="#2a1d01"/><path d="m30.7352684 12.2334058c0 .176531-.1376065.3196377-.3073527.3196377s-.3073527-.1431067-.3073527-.3196377.1376065-.3196377.3073527-.3196377.3073527.1431067.3073527.3196377z" fill="#fff"/><path d="m31.0519348 16.2918357c1.0431364.6586474 2.1700962 1.065459 3.3063698 1.055773 1.1362735-.009686 2.2352922-.4649275 3.3249972-1.055773-.4048238.4959941-.9022972.9013125-1.4622537 1.1913769-1.1674253.6223009-2.5492179.6330786-3.7254871.0290579-.5695782-.2785082-1.0651415-.6974551-1.4436262-1.2204348z" fill="#f99d1c"/><path d="m36.3700676 12.8048792c.0624168.8319084.7297405 1.4738639 1.5321066 1.4738639s1.4696897-.6419555 1.5321065-1.4738639c-.0624168-.8319083-.7297404-1.4738639-1.5321065-1.4738639s-1.4696898.6419556-1.5321066 1.4738639z" fill="#82b034"/><path d="m36.7705575 12.8048792c-.0037655.4483471.2535345.8545505.651124 1.0279393.3975895.1733889.8565235.0795353 1.1613797-.237506.3048561-.3170414.3951025-.7943192.2283777-1.2078005-.1667248-.4134812-.5573161-.6810656-.9884313-.6771497-.579144.0052605-1.0473918.4922244-1.0524501 1.0945169z" fill="#2a1d01"/><path d="m36.8264398 12.2334058c0 .176531.1376064.3196377.3073526.3196377s.3073527-.1431067.3073527-.3196377-.1376065-.3196377-.3073527-.3196377-.3073526.1431067-.3073526.3196377z" fill="#fff"/><path d="m31.5269344 24.0018841s2.7475467 2.4796135 5.7279364 0l-2.0303905 6.1990338z" fill="#fff"/><path d="m33.2034036 28.4574396s.9499992 1.7434783 1.3039205 1.7434783c.3539212 0 1.4901948-1.7434783 1.4901948-1.7434783l-1.4249988-1.1138889z" fill="#1b88c0"/><path d="m22.6789026 39.4704106 5.0666624-7.7875362s.2887253 4.7267633.4656859 7.4291546l11.8284215-1.3560387c.2049018-2.8767391.4843133-6.5477294.4843133-6.5477294l3.3343109 6.5477294h2.9058799c-1.7230377-4.4264975-4.7686234-12.2140338-5.113231-12.6886473-.4749996-.6586473-4.3681336-1.8112802-4.3681336-1.8112802l-2.9431348 4.4555556-3.2504874-4.6202174s-3.5019579 1.3172947-3.8186243 1.4819565-5.7931324 10.4899275-8.0749932 14.8970531z" fill="#e6e7e8"/><path d="m45.7489813 36.7777053c.1888831-.0706001.386437-.1129945.5867642-.1259179-.0103904-.0176407-.0167621-.0375199-.0186274-.0581159h-.0093137l-.0279412-.0678019c-.1985901.0100226-.3939883.0559084-.5774505.1356038l-.6799014-1.5981884c.2205128-.0467106.4459833-.0629941.6705877-.0484299-.0186274-.04843-.0279411-.0871739-.0465686-.1259179-.224939-.0076999-.4499767.0118028-.6705877.0581159l-.624019-1.4528985c.2025405-.1185886.4230066-.2004736.6519602-.2421498-.0114974-.0403584-.0271089-.0793236-.0465686-.1162319-.2274551.0474343-.4470716.1290039-.6519602.2421498l-.661274-1.5400725c.2008512-.1572202.4161061-.293482.6426465-.4068116-.0114974-.0403584-.0271089-.0793236-.0465686-.1162318-.2277097.1110775-.4431817.2474768-.6426465.4068116l-.7823523-1.8403382c.1583332-.3099517.363235-.6780193.4936271-.9104831l-.0558823-.1452899c-.1210784.2130918-.3446076.6102174-.5029408.9104831l-.7637248-1.7919082c.2421566-.6780193.4377447-1.1138889.4470584-1.1235749-.025612-.0497977-.0474115-.1016167-.065196-.1549758-.0931372.2034058-.2794115.6683333-.4470585 1.1235749l-.8009797-1.8693962c.2235292-.5908454.4656859-.7458212.5681368-.7845652.1024509-.0387439-.0279412-.0387439-.0279412-.0484299h-.0093137l-.0372548-.058116c-.0931372.029058-.3259802.1646619-.5588231.7264493l-1.4156851-.4746135c.0186274-.3680677.1583332-.8039372.2700978-1.1235749l-.1024509-.038744c-.1210783.3099517-.2700978.7555073-.2887252 1.1235749l-1.1176461-.3874396c.0279411-.4746135.0465685-.7555072.0465685-.7748792h-.1210783c0 .0774879-.0186274.3390096-.0372549.7458212l-.1862743-.0581159-.0372549.1162319.2142155.0678019c-.0279411.4746135-.0558823 1.1138889-.1024509 1.8693961-.2606082-.0782979-.5248289-.1429524-.791666-.1937198l-.0279411.1162319.8196071.2034058c-.0279411.5133575-.0558823 1.0751449-.0931371 1.6756763-.2794116-.0774879-.596078-.1549758-.9220581-.2130917l.2700978-3.3319807h-.1210783l-.2700978 3.3222947-.6147054-.0968599-.0186274.1259178.6240191.0968599-.1303921 1.6563044-.8196072-.0871739.2142156-2.7798792h-.1117647l-.2235292 2.7798792c-1.0338226-.0871739-2.011763-.1162319-2.8965662-.1162319l-.2235292-2.5377295h-.1117646l.2142155 2.5280435-1.1083324.038744-.1862744-2.043744.4936271-.0968599.4004898-.0678019-.0186274-.1162319-.4098036.0678019-.4749996.0871739-.1676469-1.8306521h-.1210783l.1676469 1.8403381c-.3539213.067802-.6892151.1452899-.9965678.2227778l-.1490195-1.8306522.8196072-.2421497-.0372549-.1162319-.791666.2324638-.1210783-1.4722706.4098035-.1259179-.0279411-.1259178-.3911762.1259178-.0838234-1.0460869-.0931372.029058h-.0186274l.0838234 1.0460869-.791666.2421498-.065196-.987971h-.0093137l-.1024509.0387439h-.0093137l.065196.987971-1.0058815.3196377c-.0372549-.4164976-.0745098-.8329952-.0838235-.9104831l-.1117646.04843c0 .019372.0372549.4164976.0745097.9007971l-.5308819.1646618c-.059512-.2658923-.1341531-.5278751-.2235292-.7845652l-.0465686.019372h-.0186274l-.0279412.0387439h-.0093137c.0862882.243719.1578331.4928124.2142155.7458213l-1.2107833 2.2374638c-.1089903-.1987584-.2472704-.3785175-.4098036-.5327295l-.0558823.1065459c.1589322.1661226.2938353.3553581.4004899.5617874l-1.0151952 1.8693962-.3911762-.5908454c-.0271731.0386703-.0491101.0810388-.065196.1259178l.3911761.5811594-.7264699 1.3463527-.4563722-.4842995-.0558823.1162319.4470584.4842995-.5681367 1.0557729c-.1769607-.0968599-.4004899-.2034058-.5588231-.2712077l-.0558823.0968599c.1925752.0831594.3793074.1802573.5588231.2905797l-.5308819.9685991c-.1835665-.0947436-.3734329-.1756679-.5681368-.2421498l-.0651961.1065459c.1979286.0697462.3908892.1538996.5774505.2518357l-.5681367 1.046087-.5588231-.2712077-.0558823.1065459c.0093137.0096859.3073527.1452898.5495093.2808937l-.4843133.8911111-.5681368-.2130918-.065196.1065459c.1397058.0484299.4470585.1549758.5774505.2130918l-.5122545.949227c-.3166664-.1065459-.558823-.1646618-.5867642-.1743478-.0066496.0255373-.0194751.0488789-.0372548.0678019v.019372l-.0279412.038744c.2015787.0428914.4006036.0978705.5960779.1646618l-1.5181359 2.7798792h.1490194l1.4808811-2.7508212c.1769607.0581159.3818625.1452898.596078.2421497l-1.387744 2.4892996h.1303921l1.3598028-2.4408696c.2240607.1068756.4390404.2332426.6426465.3777536l-1.1735284 2.0824879h.1397057l1.1362736-2.005c.1117646.087174.5588231.5617875.6519602.6683334l.0838235-.1162319c-.2129405-.2343564-.4400352-.4543519-.6799014-.6586473l.4563722-.7748793c.2505806.2124562.4899792.4387903.7171562.6780194l.0558823-.09686c-.2259533-.2435818-.4654144-.4732091-.7171562-.6877053l.5401956-.9104831c.2707955.2089959.5260907.4388796.7637248.6877054l.0558824-.077488.0186274-.0193719c-.2395021-.257106-.5014068-.4905687-.7823523-.6973914l.5215682-.8911111.7823523.7748793.0745097-.1065459c-.0186274-.009686-.3818624-.3874396-.791666-.7748793l.5215682-.8814251c.4563722.4358696.791666.8233092.8009797.8329952v-.019372l.0558823-.0871739c-.0279411-.029058-.3446075-.3971256-.8009797-.8426812l.4563722-.7845652.8382346.8911111.065196-.1065459-.8382346-.8911111.5774505-.987971.7544111 1.1235749.0651961-.1065459-.7544112-1.1235749.661274-1.1332609c.1466515.6163388.2616831 1.240352.3446075 1.8693962l.1024509-.1646619c-.0186274-.1356038-.130392-.929855-.3446075-1.8693961l.5960779-1.026715c.0093137 1.3947826-.065196 2.4989855-.065196 2.5280435v.0871739h.0093137l.0558823-.0871739c.0012664.0228327.004382.0455138.0093137.0678019h.0093137c.0093138 0 .298039-.0871739.8475484-.2034057.0372548.4261835.065196.8523671.1024509 1.2785507-.5122545.1162319-.8196072.2130918-.8848032.2324637-.0013584.0198654.0018335.0397826.0093137.058116l.0186274.0678019c.2833082-.0978752.5727048-.1755433.8661758-.2324638l.1117646 1.4044686c-.4936271.087174-.8102935.1549759-.9127444.1840339-.1024508.0290579.0093138.0774879.0093138.1259178 0 .04843.3911761-.0968599.9127443-.1840338l.0838235 1.1816908-.9313718.1162319c.008076.041414.0112043.0837066.0093137.1259179.1117646-.019372.4377447-.0678019.9313718-.1162319.0372548.4552416.065196.9104831.1024509 1.3366667l-.9127444.1452898.0186275.1259179c.2887252-.0581159.5960779-.1065459.9034306-.1452898.0093137.1743478.1117646 1.4238405.1210783 1.5981884h.1210783c-.0186274-.1743479-.1117646-1.4335266-.130392-1.6175604l.8941169-.0968599.130392 1.6272464h.1117647l-.1303921-1.6369324c.3166664-.038744.6333328-.058116.9499992-.0774879l.1397058 1.6175603h.1210783l-.1490195-1.6272463c.3725487-.029058.7544112-.04843 1.1269599-.058116l.065196.7845652h.1210783l-.0745097-.7942512 1.089705-.0290579.065196.8233091h.1210783l-.0745097-.8233091h1.7509789l-.065196.8233091h.1210783l.065196-.8233091.8102935.0193719-.0651961.8039372h.1210784l.065196-.8039372 1.1921559.04843c-.0062092.2647504-.0155229.5165862-.0279412.7555072h.1210783l.0279412-.7555072 1.1269598.0678019-.0279411.6877053h.1117646c.0186274-.2227777.0279411-.4455555.0372549-.6877053l.9593129.067802v-.1162319c-.0186275-.009686-.3725487-.038744-.9593129-.067802.0093137-.3680676.0279411-.7361352.0465685-1.1235748l1.0151953.1356038.0186274-.1259178-1.0245089-.1356039c.0186274-.3390097.0372548-.6973913.0558823-1.055773l1.0710775.2034058.0186274-.1259178-1.0897049-.2034058.0838234-1.6369324c.363235.0678019.72647.1356039 1.0990187.2227778l.0279412-.1162319-1.1176462-.2324638c.0186275-.3971256.0372549-.7942512.0651961-1.1913768l1.0897049.1840338.0186275-.1259178-1.1083324-.1743479c.0186274-.2615217.0279411-.5230434.0465686-.7748792.3632349.0774879.7357837.1549759 1.1083324.2518358v.2905797h.1210783c-.0093137-.4939855-.0093137-.9395411 0-1.3657247l.5122545 1.075145c-.0587701.410509-.0898916.8247864-.0931372 1.2398067l.1024509.2130918h.0186274c-.0061572-.4207864.0156266-.8415129.065196-1.2591787l.4656859.968599c-.1137483.2888816-.1919809.5915392-.2328429.9007971h.1117646c.0405776-.2580402.106106-.5111599.1955881-.7555072l.4843133.997657c-.1955881.2518357-.3259801.4455555-.3911762.5327294l.0558824.1259179h.0093137c0-.009686.1490195-.2227778.3818624-.5327295l.5495093 1.1526329-.4191173.4068116.0372549.0484299.0372549.04843.4004898-.3777536.6240191 1.3076087c-.1194583.1319328-.2314132.2710016-.3352938.4164975l.0931372.067802c.0960563-.1283099.1986543-.2511752.3073527-.3680677l.7357837 1.5497585-.1583332.1452898h.1862743l.0279412-.0290579.0186274.0290579h.130392l-.0558823-.1065458c.1490195-.1259179.3259802-.2712078.5308819-.4164976l.232843.5230434h.1397058l-.2794116-.5908454c.1819816-.1259116.3717751-.2391622.5681368-.3390096l.3911761.929855h.1303921zm-.8941169-1.7919082c-.2208841.0768709-.4307842.1843868-.6240191.3196377l-.6053916-1.3076087c.1991181-.1615522.40751-.310346.6240191-.4455556zm-.6612739-1.5497585c-.1955881.1259179-.4098036.2808938-.6240191.4358696l-.6147054-1.3463526c.1845045-.2178707.3837015-.4217928.5960779-.6102174zm-.6985289-1.6369323c-.195588.1743478-.4004898.3874396-.5960779.6005314l-.6519602-1.4044686c.1676469-.3486957.3352938-.6877053.493627-.978285zm-1.5647045-3.6903623.7450974 1.7628502c-.1490195.2905797-.3259801.6295894-.4936271.978285l-.6519602-1.4238406c.1210783-.4842995.2700978-.929855.4004899-1.3172946zm-.8661758-2.034058.791666 1.8693961c-.130392.3777536-.2700978.8233092-.4004898 1.3076087l-.6985289-1.5207005h-.0279411c.061475-.5618312.1737361-1.1163853.3352938-1.6563043zm-1.4343125-.6780193 1.3318616.4552415.0279412.058116c-.1873421.5712325-.3123105 1.1625661-.3725487 1.7628502-.1862744-.0774879-.5867643-.2421498-1.0803913-.4261836.0372549-.7167633.065196-1.3560386.0931372-1.8500241zm-1.2294107-.4164976 1.1176461.3777536c-.0279412.4939855-.065196 1.1235749-.1024509 1.8500242-.3446076-.1259179-.72647-.2518358-1.1176461-.3680677.0372548-.7555072.0745097-1.3850966.1024509-1.8597101zm-1.2480382 3.5353865c.3259801.0581159.6426465.1356038.9313718.2130917-.0279412.5036715-.0558824 1.036401-.0838235 1.5788165-.3352938-.058116-.661274-.0968599-.9779404-.1356039zm-.1397058 1.7725362c.3166664.0387439.6519603.0871739.9779404.1452898-.0093137.2712078-.0279412.5521015-.0372549.8329952l-1.0151952-.1065459zm-.0838234.987971 1.0151952.1162319-.0558823 1.1429468c-.3539213-.0484299-.7078426-.0968599-1.0524501-.1259178zm-6.2774458-.029058.1024509 1.2204348-.8941169.1259179-.0838234-1.2398068zm-.8848032-.0193719-.065196-.9589131.8661758-.0871739.0745097.949227zm.9965678 1.3560386.1210784 1.5207005-.9127444.0871739-.1024509-1.4722705c.2700979-.04843.5681368-.0968599.8941169-.1356039zm.1117647-.009686.5029407-.0581159.5681368-.04843.1397058 1.5691304c-.3818625.009686-.7450975.038744-1.089705.058116zm1.1828421-.1162319c.3446076-.0290579.7078425-.0484299 1.0990187-.0581159l.1397058 1.6175604h-1.089705zm1.1083324-1.3366666c.8196072-.009686 1.7137241.0096859 2.7009781.0774879l-.0838234 1.1235749c-.9034306-.058116-1.7416652-.067802-2.5147038-.04843zm.1397058 3.012343.1117646 1.2785507-1.089705.019372-.1117646-1.2785508zm.1117646-.1162319-.1397058-1.6272464c.7544112-.019372 1.5926457-.009686 2.4960764.0484299l-.1303921 1.6659904c-.791666-.058116-1.5367634-.0871739-2.2259785-.0871739zm2.4774489-1.5691305.8102934.067802-.130392 1.6659903-.8102935-.0774879zm.9313718.077488c.3446075.0387439.6985288.0774879 1.0524501.1356038l-.0838235 1.6563044-1.0990187-.1259179zm-.7544112-2.3343237.8196072.0871739-.0745098.8717391-.8196071-.0678019zm-.0838234 1.017029.8196071.0581159-.0838234 1.1332609c-.2794116-.029058-.5588231-.058116-.8196072-.067802zm-.0372549-1.026715-.0745097.8911111c-.9872541-.0678019-1.8999985-.0871739-2.7196056-.0774879l-.0838235-.9298551c.8848032 0 1.8534299.029058 2.8779388.1162319zm-2.803429 2.1018599c-.3818625.009686-.7450974.029058-1.0990187.0581159l-.1024509-1.1816908 1.0990187-.0387439zm-.1955881-2.2180918.0838235.9298551-1.1083324.0387439-.0838235-.939541zm-1.0151952 2.2762077-1.0710776.1065459-.0931371-1.2107488 1.0524501-.0774879zm-.1210784-1.2979227-1.0524501.067802-.0745097-.9395411 1.0431364-.0678019zm-.2794115-3.0898309.1769606 2.024372-1.0338226.0678019-.1490195-1.8693961c.3166664-.0774879.6519602-.1549759 1.0058815-.2227778zm-.9779403 2.1018599-.8661758.0968599-.1117646-1.7337922c.2514704-.077488.5308819-.1452899.8289209-.2227778zm-.1583332-1.975942c-.298039.0678019-.5774505.1356039-.8289209.2130918l-.1210784-1.8015942.8102935-.2324638zm-.2700979-3.4191546.1117647 1.4722705-.8009798.2324638-.1024509-1.4625845zm-.6799014 3.6613043-.9593129.2808938c-.0465686-.6489614-.1024509-1.2494928-.1490195-1.7919082l.9872541-.2905798zm-1.583332.6392754h.0093138l.5122544-.1840338c.0372549.4939855.0838235 1.017029.1303921 1.5497584l-.661274.1259179c.0093137-.4358695.0186275-.949227.0093137-1.4916425zm1.3504891-4.019686.1024509 1.4528986-.9872541.2905797c-.0465686-.5617875-.0838234-1.046087-.1210783-1.4238406zm-1.7416652.6199034c.0838235.4455556.1397058.9298551.1862744 1.4335266l-.9499993 1.6853623c-.1142964-.323193-.2512661-.6372183-.4098035-.9395411zm-1.2480382 2.3149517c.1553507.3059422.2891972.6231806.4004899.949227l-.9220581 1.6272464-.4843133-.7167633zm-1.0710775 1.975942.4843133.7167633-.6612739 1.1816908-.5401957-.5714734zm-.7730386 1.4335266.5308819.5714734-.493627.8911111c-.1955881-.1549758-.4004899-.3002657-.5960779-.4261835zm-.6147053 1.1429469c.195588.1259178.3911761.2712077.5867642.4261835l-.5215682.9298551c-.1903643-.1425136-.3894813-.271936-.596078-.3874396zm-.5867643 1.0848309c.2041527.1109262.4002602.2371785.5867643.3777536l-.5588231.997657-.5960779-.3293237zm-.624019 1.1526328.5867642.3293237-.4936271.8814251c-.1862743-.1065459-.3725487-.2227778-.5774505-.3196377zm-.4563722 2.1793478c-.2049018-.0968599-.4098036-.1743478-.5867642-.2421497l.5029407-.9298551c.1950592.0916423.3847658.1951383.5681368.3099517zm.7544111.4358696c-.2048125-.1424844-.4196331-.268758-.6426465-.3777536l.4749996-.8523672c.2328429.1549759.4377447.3099517.6240191.4552416zm.5122545-.8814251c-.1769606-.1452899-.3911761-.3002657-.6147054-.4552416l.4936271-.8814251c.2256013.1314353.4433218.2769929.6519602.4358696zm.5960779-1.007343c-.2142155-.1549758-.4377447-.3099517-.6519602-.4358696l.558823-.997657c.2172361.1655504.4255568.3433952.6240191.5327295zm.596078-1.007343c-.2017437-.189294-.4131619-.367129-.6333328-.5327295l.5215681-.9201691c.2235293.1840339.4377448.3777537.6240191.5617875zm.5774505-1.007343c-.1862744-.1743478-.4004899-.3680676-.6240191-.5521014l.493627-.8717392.5960779.6392754zm.5308819-.9007971-.6053917-.6392754.6519603-1.1526328.5401956.7942512zm.6519602-1.1138889-.5401956-.7942512.9034306-1.5885024c.130392.3971256.2421567.8039372.3352938 1.2010628zm.791666-1.3463526c-.0931372-.3971256-.2142155-.8039372-.3446075-1.1913769l.9127443-1.6175603c.0465686.5811594.065196 1.1623188.0745097 1.7144202zm.4563722-4.5524155.5308819-.1646618c.0279411.3777536.065196.8620531.1117646 1.4238405l-.4470585.1259179c-.0337134-.4659171-.0990725-.9287708-.195588-1.3850966zm.2514704 1.5013285.4098035-.1162319c.0465686.5327295.0931372 1.1429469.1490195 1.7919082l-.5122545.1743479c-.0093137-.5811595-.0372548-1.1913769-.0838234-1.7919083zm-.0093138 4.6299034c.0093138-.1549759.0279412-.5327295.0465686-1.026715l.6705877-.1259179c.0186274.3196377.0465686.6489614.0745097.9782851-.4004898.0774879-.6612739.1452898-.791666.1743478zm.6892151-2.8670532.959313-.2808937.1210783 1.7144203c-.3725487.04843-.6892151.0871739-.9499992.1356039-.0372549-.5424155-.0838235-1.065459-.1303921-1.5691305zm.2235293 2.6636474-.0838235-.968599c.2607841-.04843.5774505-.09686.9499992-.1356039l.065196.958913zm.1117646 1.4044686c-.0372549-.4358696-.065196-.8523672-.1024509-1.2785507l.922058-.1549759.0931372 1.2494928c-.3539213.0581159-.6519602.1259178-.9127443.1840338zm.0093137.1162319.9034306-.1743479.1024509 1.4625846-.8941169.1259179zm.1210783 1.5400724c.2514704-.0484299.5495094-.0871739.8941169-.1259178l.0838235 1.2398067-.8941169.0774879c-.0279412-.3874396-.0558823-.7942512-.0838235-1.1913768zm.1955881 2.6539614c-.0372549-.4358696-.065196-.8814251-.1024509-1.3366667l.8941169-.0871739.0931372 1.3172947zm.8196072-2.7992512.9127443-.0871739.0931372 1.2688647-.9220581.0678019zm.1769606 2.6830193-.0838235-1.3076087.9313718-.0678019.1024509 1.2979227zm.9499992-1.5013285-.1024509-1.2785507.2700978-.019372.8196072-.038744.1210783 1.2882367zm.1117646 1.4141546-.1024509-1.2979227 1.1083324-.04843.1117646 1.2882367c-.3725487.0129147-.7450974.0322867-1.1176461.058116zm1.2387245-.0678019-.1117646-1.2785508 1.0803912-.0193719.1117646 1.2785507zm2.9710759-.029058c-.5681368 0-1.1642147-.009686-1.7696064 0l-.1117646-1.2688647c.6240191-.009686 1.2852931 0 1.9745082.0290579zm.1024509-1.3657247c-.6892151-.0290579-1.3598028-.0290579-1.9931356-.0290579l-.1117646-1.2785507c.6705877.0096859 1.4063714.0290579 2.2073511.0871739zm.8289209 1.3850967h-.8102935l.0931372-1.2494928.8196072.038744zm.1117646-1.3463527-.8196072-.038744.0931372-1.2107487.8196072.0678019zm1.2014696 1.3947826-1.1921559-.0387439.0931372-1.2204348 1.154901.0774879c-.0186275.4068116-.0372549.8039372-.0558823 1.1816908zm.065196-1.3076087-1.1455873-.0774879.0931372-1.1720048c.3539213.0290579.72647.0774879 1.1083324.1259178zm1.1828421 1.3754106-1.1269598-.0581159c.0186274-.3874396.0372549-.7748792.0558823-1.1816908l1.1269598.1162319c-.0186274.3874396-.0372548.7555072-.0558823 1.1235748zm.0558823-1.2494927-1.1176461-.1162319c.0186275-.3680676.0279412-.7361353.0465686-1.1138889l1.1269599.1646619zm.0651961-1.1913768-1.1269599-.1646619.0838235-1.6659903 1.1269598.1840338zm.0838234-1.7725362-1.1176461-.1840339.0558823-1.1429468 1.1269599.1549758c-.0186275.3874396-.0372549.7845652-.0651961 1.1720049zm.0745098-1.2979228-1.1269599-.1549758c.0093138-.2808937.0279412-.5521014.0372549-.8329952l1.1269598.2034058c-.0093137.2615218-.0279411.5230435-.0372548.7845652zm.0465686-.9007971-1.1269599-.2034058c.0279412-.5424154.0558823-1.0654589.0745098-1.5691304.428431.1259179.8009797.2615218 1.1176461.3874396-.0186274.4455556-.0465686.9104831-.065196 1.3850966zm.0745097-1.5207004c-.3166664-.1259179-.6985288-.2518358-1.1176461-.3777537.0279411-.5908454.065196-1.1526328.0838234-1.6659903.3911762.1162319.7823523.2421498 1.1176462.3680676-.0186275.5230435-.0558823 1.084831-.0838235 1.6756764zm1.1455873 1.7919082c-.3725487-.0968599-.7450974-.1743479-1.1083324-.2518358.0279411-.4649275.0465686-.9201691.0745097-1.3560386.3577964.1480171.7062076.3194803 1.0431364.5133575-.0093137.3486956-.0186274.7070773-.0093137 1.0945169zm.0093137-1.2398068c-.3360955-.1861724-.6811569-.354284-1.0338227-.5036715.0279412-.5908454.0558823-1.1526328.0838235-1.6756763.5029407.1840338.9034306.3486956 1.0710775.4164976-.0558823.5230434-.0931371 1.1138889-.1210783 1.7628502zm.661274 1.1429469-.4936271-1.026715v-.019372h-.0372549c.0186275-.6683333.0558824-1.2301208.1117647-1.7144203l.6892151 1.5110145c-.1100616.4115398-.2002075.8285612-.2700978 1.2494928zm.5774505 1.2204348-.4936271-1.036401c.0662108-.4304708.1532493-.857196.2607841-1.2785507l.6333328 1.3850966c-.1397058.3099517-.2794115.6295894-.4004898.9298551zm.0745097.1452898c.1117646-.2905797.2514704-.6102174.3911761-.9298551l.6240191 1.3657247c-.1862743.2130918-.3539213.4261835-.5122545.6199034zm.5681368 1.1816908c.1490195-.1937198.3166664-.4068116.5122544-.6295893l.6053917 1.3269806c-.2049018.1646619-.3911761.3293237-.5588231.4842996zm.6147053 1.2979227c.167647-.1452898.3539213-.3196376.5588231-.4746135l.5960779 1.2979227c-.1885942.1435607-.3660967.3022496-.5308819.4746135zm1.4249988 2.9832851-.7450974-1.5691305c.165083-.1690776.3425807-.3245237.5308819-.4649275l.7450975 1.6175604c-.2049018.1452898-.3818625.2905797-.530882.4164976zm.6333328-.4842996-.7450974-1.6272463c.1901266-.1407481.4008393-.2486803.6240191-.3196377l.6799014 1.6175604c-.1950433.0928391-.3820124.2030231-.5588231.3293236z" fill="#cdddc0"/><path d="m36.323499 38.8989372-1.3225479-10.005628-1.0151952.0678019-1.881371 9.9378261z" fill="#0095da"/><path d="m33.0171292 28.3024638s1.1083324 1.6659903 1.4622537 1.6659903 1.3411754-1.6659903 1.3411754-1.6659903l-1.4249989-1.1138889z" fill="#197cb0"/><path d="m31.4896795 22.093744c.0838235.997657 3.0176446 5.1238889 3.0176446 5.1238889s2.9803896-3.8356522 2.8593113-5.2401208l1.1921559 1.6078744c0 .949227-2.6544096 5.8212802-2.6544096 5.8212802l-1.3970576-1.9371981-1.5088223 2.024372s-2.2073511-3.5257005-2.7009781-6.073116z" fill="#efeff0"/><path d="m30.2230139 5.58881643s.6519603 2.04374396 3.6882322 2.29557971c3.036272.25183574 5.4298974-.36806764 6.6220533.25183574 1.1921559.61990339.7730386 6.62521742.7730386 6.62521742s1.1921558-4.6492754 1.0151952-6.75113529c-.0838235-.95891304-.130392-3.87439614-1.8534298-5.52101449-2.0676453-1.97594203-5.541662-2.22777778-6.6686219-2.04374396-2.9058799.47461352-3.6416636 1.42384058-3.6416636 1.42384058s-1.2014696.07748792-1.5460771.37775362c-1.9093122 1.60787439-3.2225464 5.57913043-.8941169 13.07608694 0 0-1.3132342-7.07077293 2.50539-9.73442027z" fill="#fcb963"/><path d="m40.5891817 7.75847826c-.9686266-.59084541-4.5916628-.24214976-6.4357789-.36806763-1.8441161-.12591788-3.5205853-.92985507-3.399507-3.35135266 0 0 .596078 1.23980676 1.8534298 1.23980676 0 0-.7823522-.55210144-1.6112731-2.66364734 0 0 1.9651944-1.67567633 6.5568572-.05811594 0 0-3.0455856-2.36338164-7.4509741-.5036715 0 0-.5401956 1.98562802-1.4901948 3.04140097-.9499992 1.05577294-2.0303905 3.04140096-1.1083325 7.13857488.0465686-2.24714976.5681368-5.14326087 2.7196056-6.64458937 0 0 .6519603 2.04374396 3.6882322 2.29557971 3.036272.25183574 5.4298974-.36806764 6.6220533.25183574.3539213.18403382.5681368.84268116.6892151 1.68536232l.0186274-.01937198s.0651961-1.60787439-.6519602-2.04374396z" fill="#f99d1c"/><path d="m31.1171308 5.15294686c.1324413.24342655.3096668.45735705.5215682.62958937l.1676469.11623189.0745098.05811594.0931371.04842995.167647.10654589c.0571216.03298794.1162314.06210647.1769606.08717392l.1862744.08717391.1862743.06780193.3725487.13560387c.1303921.02905797.2607841.07748792.3911762.0968599l.3911761.07748792.0931372.01937198.1024509.01937198.195588.01937198.4004899.04842996.4004899.02905797.4098035.01937198h.4004899c.1397058 0 .2700978.00968599.4098036 0 .1397057-.00968599.5401956-.00968599.8102934 0-.2607841.05811594-.5308819.0968599-.8009797.14528985s-.5495093.04842995-.8196072.06780194c-.136237.01279595-.2731482.01603194-.4098035.00968599h-.4191173c-.1372849-.00329187-.2741985-.01623606-.4098036-.03874397l-.2049018-.01937198h-.1024509l-.1024509-.01937198c-.5509808-.08987878-1.0832456-.27657556-1.5740183-.55210145-.2479373-.13765232-.4740979-.31405256-.6705877-.52304347-.2050461-.2015648-.3559369-.45531096-.4377447-.73613527z" fill="#ffd04f"/><path d="m36.1837932 5.40478261c-.4127758-.0217965-.8235812-.07358139-1.2294107-.15497585-.4056025-.08336803-.8042304-.19996337-1.1921559-.34869565-.3969951-.14824884-.770539-.35717637-1.1083324-.61990338-.3546718-.26640831-.6240337-.63766276-.7730385-1.06545894l-.1024509-.30995169.2887252.14528986.8382346.42618357.8289209.43586957-.1490195.23246376-.7171563-.68770531-.7078425-.68770531-.1117646-.1065459.1210783-.08717391.1397058-.08717391.130392-.04842995c.0842477-.03474201.1716042-.06069865.2607841-.07748793l.2700978-.04842995.2700978-.02905797c.3543496-.01630817.7093848-.00335287 1.0617639.03874396l.5215682.07748792.5215681.1065459.5122545.13560386.5029408.15497585-.5215682-.09685991c-.1676469-.03874396-.3446076-.05811594-.5122545-.08717391l-.5215682-.06780193-.5122545-.04842995c-.344423-.02103054-.6898198-.01779448-1.0338226.00968599l-.2514704.03874396-.2514704.04842995-.2328429.07748792-.1117646.04842996-.0838235.05811594v-.2034058l.72647.67801932.7171563.67801933.7544111.71676328-.9127443-.47461352-.8289209-.43586957-.8382346-.44555556.1862743-.16466183c.1276851.38152596.3570219.71744645.661274.96859903.3142714.25961006.6623411.47158163 1.0338227.62958938.3758487.16480201.7616349.30392994 1.154901.41649758.3911761.10977456.791666.19694847 1.2014695.26152174z" fill="#ffd04f"/><path d="m26.525468 6.82862319c.0695605-.56361878.1816714-1.12066917.3352938-1.66599034.1472271-.556263.3566634-1.09265464.6240191-1.59818841.1312557-.25565446.2839735-.49874928.4563722-.72644927.1782124-.22727357.381392-.43207276.6053916-.61021739.2291959-.17963925.4880194-.31422363.7637249-.39712561.2778706-.08470288.5679815-.11749708.856862-.0968599l-.0838234.02905797c.3701304-.26333292.7629965-.49031575 1.1735284-.67801932.406259-.18773003.8268254-.34000187 1.2573519-.45524155.4267691-.12526625.8629653-.21275225 1.3039204-.26152174.4424362-.04691894.8875954-.05986866 1.3318617-.03874396.2213782.00493496.4422389.02434526.6612739.05811594.2142155.02905798.4377448.06780194.6519603.11623189s.428431.10654589.6426465.16466183l.3166664.1065459c.1087652.02854334.214769.06745188.3166664.11623188l.3073527.11623189.2980389.14528985c.2049018.08717391.4004899.19371981.596078.3002657l.2794115.17434783.2887253.17434782c.1862743.11623189.3632349.25183575.5401956.37775363l-.5681368-.32932368-.2887252-.16466183-.298039-.14528986c-.1955881-.0968599-.3911762-.1937198-.5960779-.27120773l-.3073527-.11623188-.3073527-.10654589-.3073527-.1065459-.3166664-.08717391c-.2142155-.04842995-.4191173-.10654589-.6333328-.13560386-.2142155-.02905798-.428431-.06780194-.6426465-.09685991s-.428431-.03874396-.6426465-.03874396c-.4323268-.01449095-.8650888.00493609-1.2946068.05811594-.4272793.05819396-.8504148.1455565-1.2666656.26152174-.4116076.12382423-.8158934.27259715-1.2107833.44555556-.393888.17631793-.7711641.39033029-1.1269598.63927536l-.0465686.02905797h-.0465686c-.2563688-.03105244-.5161266-.00799167-.7637249.06780193-.2537709.06402763-.4917617.18282928-.6985288.34869565-.2161071.15537781-.4104428.34118258-.5774505.55210145-.173891.21149407-.3297102.43836043-.4656859.67801933-.2733342.48625519-.5010183.99874822-.6799014 1.53038647-.1827117.53427168-.328989 1.08127096-.4377447 1.63693237z" fill="#f99d1c"/><path d="m28.0156628 5.22074879c.1676469-.1937198.3259801-.40681159.4749996-.61021739s.2887253-.42618357.4191173-.64896135c.1306738-.22191764.2488464-.45153922.3539213-.68770532.1126914-.22936196.2122122-.46546836.298039-.70707729l.1397057.18403382-.130392.03874396-.1490195.05811594c-.0930081.04583987-.1832116.09759656-.2700978.15497584l-.2607841.18403382-.232843.21309179c-.3059124.30839387-.5635971.664617-.7637248 1.05577295l-.0745097.14528985-.0372549.07748792-.0372549.07748793-.130392.30995169c-.0428324.1010482-.0801467.20452999-.1117647.30995169l-.1117646.31963768c-.0558823.21309179-.1210783.43586956-.1862743.64896135s-.0931372.44555556-.1490195.66833333l.0558823-.67801932c.0372549-.23246377.0745097-.45524154.1210783-.68770531.0986046-.45277234.2486797-.89172958.4470585-1.3076087.1924471-.42688593.4574901-.81409009.7823523-1.14294686.1643307-.16932444.3490332-.31582999.5495093-.43586956.0964018-.06632365.1994598-.12153617.3073527-.16466184.1109858-.05023897.2263953-.08916515.3446076-.11623188l.2328429-.04842996-.0931372.23246377c-.0985052.24853038-.2104486.49106749-.3352938.72644928-.1222993.23192039-.2591986.45518438-.4098036.66833333-.1488359.2169464-.3105902.42398609-.4843133.61990338-.174777.19320594-.3614449.37439304-.5588231.54241546z" fill="#ffd04f"/><g fill="#e8c6ac"><ellipse cx="34.926441" cy="14.209348" rx="1" ry="1"/><ellipse cx="33.389678" cy="14.800193" rx="1" ry="1"/><ellipse cx="34.423501" cy="12.049372" rx="1" ry="1"/><ellipse cx="35.364186" cy="12.853309" rx="1" ry="1"/><ellipse cx="33.585266" cy="12.814565" rx="1" ry="1"/><ellipse cx="36.02546" cy="15.342609" rx="1" ry="1"/><ellipse cx="34.768108" cy="15.613816" rx="1" ry="1"/><ellipse cx="32.197522" cy="15.003599" rx="1" ry="1"/><ellipse cx="36.67742" cy="14.887367" rx="1" ry="1"/><ellipse cx="33.687717" cy="13.74442" rx="1" ry="1"/><ellipse cx="34.283795" cy="13.124517" rx="1" ry="1"/></g><path d="m33.0171292 29.5519565-.0465686-.0581159c-.9127443-1.2204348-1.9186258-3.5450725-2.3936254-4.9301691-.1338191-.3689576-.2275388-.7523227-.2794115-1.1429469l.0931371-.0968599c.0093138.038744.6519603 2.9251691 2.6264684 6.024686l1.4901949-2.1309178 1.3691165 2.0631159c.2607841-.4649275 1.6392143-2.8961111 2.4867626-5.017343.0876405-.2183367.1531897-.4455675.1955881-.6780193l.1210783.0871739c-.065196.1840338-.1303921.4552415-.2049018.6392753-.9406855 2.3536957-2.5240175 5.085145-2.5426449 5.1142029l-.0465686.077488-1.3784302-2.014686z" fill="#cdddc0"/><path d="m21.3097861 39.4704106c-.5338706-.3418788-1.1149587-.5966708-1.7230378-.7555072-.0252857.0398751-.047104.0820144-.065196.1259179.5377936.1349196 1.0549812.3468037 1.5367634.6295893z" fill="#cdddc0"/><path d="m22.7068437 39.4219807c-.8754894-.9007971-2.0955864-1.2882367-2.738233-1.4335266-.0271731.0386703-.0491101.0810389-.065196.1259179.6053917.1259179 1.7975475.4939855 2.673037 1.3560386h.1024509z" fill="#cdddc0"/><path d="m20.3691006 37.2232609c-.0186274.0387439-.0465686.0774879-.065196.1259178.5867642.1162319 1.8999984.4842996 2.8220564 1.4335266l.0745098-.1162319c-.9220581-.939541-2.2073511-1.3172947-2.8313702-1.4432125z" fill="#cdddc0"/></g></g></g></g></svg>