<svg height="86" viewBox="0 0 101 86" width="101" xmlns="http://www.w3.org/2000/svg"><g fill="none" fill-rule="evenodd"><path d="m3.25851165 4.03317148h94.18406745v58.62874062h-94.18406745z" fill="#1bb24b" fill-rule="nonzero"/><path d="m3 24h94v20h-94z" fill="#fff"/><g fill-rule="nonzero"><path d="m97.3622688 49.2201285v2.4892193h2.5715579zm0-44.83727515v37.50472565l.6468807.5957483.5942631-38.0937838z" fill="#f9fcf9"/><path d="m43.3408274 4.09191411 7.0537829 6.61115739c.3246619-.0195809.6397125-.0288818.9448265-.0288818 6.4269391 0 8.5684375 4.1408663 8.5684375 4.1408663 4.8461463 1.258561 6.4668496 6.1731984 6.5000817 10.8964327l27.7388071 25.9978591h3.2155057v-2.4892193l-45.6981701-44.23532632h5.6362171l40.061953 36.90277682v-37.50472565z" fill="#f5fff8" fill-opacity=".2"/><path d="m57.3068317 17.1814052.242612.3592453c.0857964.0460377.1715922.0932075.257388.1407547-.1646807-.1713207-.3315062-.3377358-.5-.5" fill="#a57237"/><path d="m6.83354022 6.84498568h87.15243958v52.18059402h-87.15243958zm87.15243958-6.84498568h-87.15243958c-3.77409378 0-6.83354022 3.06457069-6.83354022 6.84498568v52.18059402c0 3.7802518 3.05944644 6.8449856 6.83354022 6.8449856h87.15243958c3.7739307 0 6.8335402-3.0647338 6.8335402-6.8449856v-52.18059402c0-3.78041499-3.0596095-6.84498568-6.8335402-6.84498568z" fill="#e6e7e8"/><path d="m65.5375749 81.9164429s-9.1609088-3.7198773-9.1609088-12.3504759h-11.9339752c0 8.6305986-9.1609089 12.3504759-9.1609089 12.3504759v3.2241548h30.2557929z" fill="#e6e7e8"/><path d="m45.7382436 6.84498568h48.2477362v44.70722542l6.8335402 6.3368619v-51.04408732c0-3.78041499-3.0596095-6.84498568-6.8335402-6.84498568h-56.7391212z" fill="#fff"/></g></g></svg>