<svg height="76" viewBox="0 0 48 76" width="48" xmlns="http://www.w3.org/2000/svg" xmlns:xlink="http://www.w3.org/1999/xlink"><linearGradient id="a" x1="49.984295%" x2="49.984295%" y1="99.978202%" y2="-.016349%"><stop offset="0" stop-color="#caaa6e"/><stop offset="1" stop-color="#a58c5b"/></linearGradient><linearGradient id="b"><stop offset="0" stop-color="#c88c66"/><stop offset="1" stop-color="#caaa6e"/></linearGradient><radialGradient id="c" cx="49.929578%" cy="49.894366%" gradientTransform="matrix(1 0 0 .989091 0 .005443)" r="49.894366%" xlink:href="#b"/><radialGradient id="d" cx="50.211348%" cy="49.894862%" gradientTransform="matrix(1 0 0 .989102 0 .005438)" r="49.893033%" xlink:href="#b"/><linearGradient id="e" x1="50.003566%" x2="50.003566%" y1="100.010111%" y2="-.025278%"><stop offset="0" stop-color="#fddfd8"/><stop offset="1" stop-color="#edcac7"/></linearGradient><g fill="none" fill-rule="nonzero" transform="translate(0 13)"><ellipse cx="23.963636" cy="24.227941" fill="#1d9c42" rx="23.963636" ry="24.227941"/><path d="m3.1 12.3069853 39.9818182 26.5257353c3.1463994-4.2036392 4.8450387-9.3331651 4.8363636-14.6047794 0-13.3731618-10.7272727-24.2279412-23.9545454-24.2279412-8.9454546 0-16.74545458 4.96323529-20.8636364 12.3069853z" fill="#1bb24b"/><path d="m6.88181818 7.23345588c-2.58847205 2.65593918-4.53594893 5.87986942-5.69090909 9.42095592l38.96363641 25.4227941c2.7167094-2.5175195 4.8227652-5.6343892 6.1545454-9.1084559z" fill="#f1f2f2"/><g transform="translate(.718182 11.884191)"><path d="m14.3545455.64338235c-2.7-1.03860294-5.88181823-.44117647-8.47272732 2.01286765s-3.88181818 8.8419118-1.61818182 12.5459559c2.26363637 3.7040441-1.12727272 4.3106617-1.12727272 4.3106617s1.29090909.7077206 2.1-.1654411c.03762981 1.1740332-.22210149 2.3383142-.75454546 3.3823529-1.13636363 2.1783088-.67272727 3.5202206.59090909 6.5441177.6 1.4154411 2.05454546 3.0514705 1.13636364 3.7683823l5.93636359-2.6194853 6.4181819-3.6029412-3.1272728-2.5643382-1.4636363-14.94485294z" fill="#281d0a"/><path d="m10.9 1.13051471s2.1636364-.98345589 4.2636364-1.03860295c2.1-.05514705 5.3727272 1.59926471 6.8909091 4.92647059 1.5181818 3.32720589-.5272728 10.18382355-.2545455 11.27757355s1.1363636 1.3602941 1.5636364.8731617c0 0-.3272728 1.3602942-2 .5974265 0 0-.2090909.8731618.3818181 2.5643383.5909091 1.6911764.7 3.7132352.6454546 5.5606617-.1090909 3.7683824-3.9363636 5.8363971-3.5545455 6.6544118.3818182.8180147.9636364.4411765.9636364.4411765s-.2636364.7628676-1.2909091.3768382-1.5090909-2.9963235-1.5090909-2.9963235l-7.33636364-.1102942-.86363636-3.6029411z" fill="#281d0a"/><path d="m3.70909091 34.6231618 3.78181818-5.7536765s2.06363636.9650735 3.07272731 5.7536765h5.0545454c1.1090909-4.7334559 3.3272727-5.6525736 3.3272727-5.6525736l2.9545455 5.6525736h2.3181818l-5.0090909-9.8805147s.4545455-.7996324-1.1363636-1.3327206c-1.5909091-.5330883-3.1-1.507353-3.1-2.6470589v-3.0055147h-3.8636364v3.0055147c0 1.1397059-.9909091 1.6819853-2.58181817 2.2242648-1.59090909.5422794-1.79090909 1.5257352-1.79090909 1.5257352l-5.67272728 10.1102942z" fill="url(#a)"/><path d="m19.9636364 9.09926471c0 5.56985289-1.9545455 10.11948529-6.9818182 10.11948529-5.02727275 0-6.8818182-4.6047794-6.8818182-10.17463235 0-5.56985294 1.94545455-6.15808824 6.9727273-6.15808824 5.0272727 0 6.8909091.63419118 6.8909091 6.2132353z" fill="#caaa6e"/><path d="m11.1909091 12.3345588c.0036823.5658791-.3306421 1.0781115-.8466897 1.2972486-.51604762.2191371-1.11187715.1018901-1.50896156-.2969327s-.51698271-1.000437-.30364713-1.5236114c.21333559-.5231744.71776224-.8645599 1.2774802-.8645721.75962089-.0000166 1.37682069.6198851 1.38181819 1.3878676z" fill="#c88e2f"/><path d="m10.8363636 12.3345588c0 .5329954-.4273645.9650736-.95454542.9650736-.5271809 0-.95454545-.4320782-.95454545-.9650736s.42736455-.9650735.95454545-.9650735c.52718092 0 .95454542.4320781.95454542.9650735z" fill="#3e2c09"/><path d="m9.48181818 11.8382353c-.00490842.1537599-.12965649.2758154-.28181818.2757353-.13400269-.024632-.23140665-.1426292-.23140665-.2803309 0-.1377016.09740396-.2556989.23140665-.2803309.15564388 0 .28181818.1275659.28181818.2849265z" fill="#fff"/><path d="m9.98181818 15.7352941c.94545452.5790441 1.96363632.9375 2.99090912.9191177 1.0272727-.0183824 2.0272727-.4044118 3.0181818-.9191177-.3728228.4324818-.8271158.7855519-1.3363636 1.038603-.5180532.2689611-1.0904324.4136341-1.6727273.4227941-.5860604.0002523-1.1644246-.1349303-1.6909091-.3952206-.5165368-.2409937-.9662132-.6072283-1.30909092-1.0661765z" fill="#3e2c09"/><path d="m9.91818182 14.8253676c0 .7208129-.57795969 1.3051471-1.29090909 1.3051471-.71294941 0-1.29090909-.5843342-1.29090909-1.3051471 0-.7208128.57795968-1.305147 1.29090909-1.305147.7129494 0 1.29090909.5843342 1.29090909 1.305147z" fill="url(#c)"/><path d="m18.1454545 14.8253676c-.0000129.5287163-.3155255 1.0051915-.7990222 1.2066531-.4834967.2014615-1.0394457.0881037-1.4079172-.2870739-.3684714-.3751776-.4766609-.9380454-.2739852-1.4254388.2026757-.4873935.676171-.8030108 1.1991065-.7992874.3415403-.0000087.668961.1377901.9096116.3828205s.3746288.5770279.3722065.9223265z" fill="url(#d)"/><path d="m14.9090909 12.3345588c-.0073744.5712231.3277812 1.0901915.8480244 1.3131155s1.1221764.1054976 1.5230362-.2971172c.4008598-.4026147.5209758-1.0103985.3039224-1.5378397s-.7281369-.8697114-1.2931648-.8660262c-.7596209-.0000166-1.3768207.6198851-1.3818182 1.3878676z" fill="#c88e2f"/><path d="m15.2636364 12.3345588c-.0036753.3957015.2297493.7543412.5906504.9074911.360901.1531499.7775743.0703819 1.0543373-.2094337.2767629-.2798155.358628-.7010844.2071489-1.065966-.1514792-.3648816-.5062065-.6008807-.8975912-.5971649-.5271809 0-.9545454.4320781-.9545454.9650735z" fill="#3e2c09"/><path d="m15.3181818 11.8382353c0 .1573605.1261743.2849265.2818182.2849265s.2818182-.127566.2818182-.2849265c0-.1573606-.1261743-.2849265-.2818182-.2849265s-.2818182.1275659-.2818182.2849265z" fill="#fff"/><path d="m12.9818182 24.0900735c-2.1636364 0-2.3454546-2.3713235-2.3454546-2.3897059 0-.0183823.0181819-.055147.0454546-.0643382.0301246 0 .0545454.0246902.0545454.0551471.044424.411112.1646828.8101607.3545455 1.1764706.4090909.7628676 1.0727273 1.1397058 1.9636364 1.1121323 1.9363636-.0459559 2.3181818-2.2150735 2.3272727-2.242647.0090909-.0275736.0363636-.0459559.0636363-.0459559.0262373.0106845.0439672.0357801.0454546.0643382-.0090909.0275735-.4090909 2.2794118-2.4272727 2.3345588z" fill="#231c1e"/><path d="m1.7 33.9613971 5.29090909-5.0919118c.70909091.9926471 1.64545455 3.6580882 1.9 5.7536765l8.18181821 2.1783088c.3636363-1.6911765 1.0727272-8.0147059 1.0727272-8.0147059l3.2181819 5.8363971h3.4909091l-6.4727273-11.351103-2.0818182-1.0110294s-.3636364 3.851103-3.1 4.0716912c-3.3.2573529-3.30909091-4.0716912-3.30909091-4.0716912s-2.94545454 1.7371324-3.16363636 1.8106618-5.89090909 10.4779412-5.89090909 10.4779412c1.79090909-.4411765.86363636-.5882353.86363636-.5882353z" fill="#fef3f7"/><path d="m4.54545455 34.6231618 2.69090909-4.3658089s.82727272 2.8676471 1.11818181 4.3658089l3.75454545 1.7095588.0909091-9.2738971c-2.88181818-.2205882-3.16363636-4.6599264-3.16363636-4.6599264s-2.30909091.9466911-2.34545455 1.09375c-.03636364.1470588-4.54545454 7.6286764-6.69090909 11.1305147z" fill="#687167"/><path d="m17.5909091 38.0422794c.1181818-.9191176.2636364-3.7683823.4454545-5.7261029.0598864-.6800419.1631313-1.3554659.3090909-2.0220589l2.6636364 4.3290442h4.0909091c-2.0545455-3.8878677-5.8727273-11.1580883-5.9272727-11.4246324l-2.2272728-.7996323s-.290909 4.4393382-3.1636363 4.6599264l.0818182 9.2738971z" fill="#687167"/><path d="m14.8363636 37.1507353-.1363636-9.3106618c.3545455-.1011029 2.8818182-.9742647 3.1818182-4.8345588 0-.0304569-.0244209-.0551471-.0545455-.0551471-.0269043-.00038-.0500636.0191322-.0545454.0459559-.3181818 4.0533089-3.1181818 4.7426471-3.1454546 4.7518383h-.0363636l.1363636 9.3933823z" fill="#fff"/><path d="m16.1545455 37.5183824-.3818182-10.2757353-.1090909.1102941.3818181 10.1654412z" fill="#fef3f7"/><path d="m11.2272727 27.8400735-.1181818 8.1525736h.1090909l.1181818-8.2352942h-.0454545c-.0272727-.0091911-2.82727274-.6893382-3.13636365-4.7518382-.01056798-.0265267-.03538983-.0444521-.06363636-.0459559-.02653109.0045313-.04583044.027946-.04545454.0551471.3 3.8511029 2.81818185 4.7242647 3.18181815 4.8253676z" fill="#fff"/><path d="m10.0090909 34.9908088.2636364-7.6378676-.1090909-.1102941-.2636364 7.7481617z" fill="#fef3f7"/><path d="m12.2545455 22.5551476c-.0618786.0001848-.1134222-.0479187-.1181819-.1102947" fill="#fffeef" opacity=".2"/><path d="m14.1454545 22.2518382c0-.0659899-.0529118-.1194853-.1181818-.1194853-.0305789-.0001075-.0597986.0127657-.0805399.0354832-.0207412.0227175-.0310994.0531933-.028551.0840021" fill="#caaa6e"/><path d="m13.0181818 26.2132353c.4272727 0 .5727273-.2941177.5727273-.6158088 0-.3216912-.3363636-.8363971-.4636364-1.1488971-.0476135-.1251514-.084121-.254337-.1090909-.3860294-.0216577.119519-.0551599.2365304-.1.3492647-.1272727.3492647-.4909091.8823529-.4636363 1.2591912.0272727.3768382.1636363.5422794.5636363.5422794z" fill="#542f82"/><ellipse cx="13.018182" cy="24.0625" fill="#542f82" rx="1" ry="1" stroke="#231f20"/><path d="m13.0818182 24.7242647c-.1545455.15625-.4090909.8363971-.3 1.1121324.0375208.1002462.1154891.1795955.2143925.2181897.0989033.0385943.2093826.0327814.3037893-.0159839.1-.055147.2363636-.2297794.1727273-.5974264-.0489382-.2491946-.1513446-.4845032-.3-.6893383-.0363637-.055147-.0545455-.0735294-.0909091-.0275735z" fill="#6f2c87"/><ellipse cx="12.709091" cy="25.863971" fill="#fff" rx="1" ry="1"/><ellipse cx="12.927273" cy="26.001838" fill="#fff" rx="1" ry="1"/><path d="m14.1636364 25.1746324c.2909091 0 .3909091-.1930148.3909091-.413603s-.2272728-.5698529-.309091-.78125c-.0333394-.0868272-.0606778-.1758892-.0818181-.2665441-.0083645.0825982-.0298526.1632915-.0636364.2389706-.0909091.2389706-.3363636.6066176-.3181818.8547794-.0059287.1025182.0330682.2024792.106621.2733021.0735529.0708229.174207.1053299.2751972.094345z" fill="#542f82"/><ellipse cx="14.163636" cy="23.722427" fill="#542f82" rx="1" ry="1" stroke="#231f20"/><path d="m14.2090909 24.1636029c-.1090909.1102942-.2818182.569853-.2.7628677.0581597.1340771.2123946.1956308.3454546.1378676.0727272-.0459558.1636363-.1654411.1181818-.4136029-.0347961-.1682625-.1028206-.3276949-.2-.46875-.0272728-.0275735-.0363637-.0459559-.0636364-.0183824z" fill="#6f2c87"/><ellipse cx="13.954546" cy="24.944853" fill="#fff" rx="1" ry="1"/><circle cx="14.113636" cy="25.040809" fill="#fff" r="1"/><path d="m11.8909091 25.2389706c.2909091 0 .3818182-.1930147.3818182-.413603 0-.2205882-.2272728-.5698529-.3090909-.7904411-.0344859-.0824813-.0589081-.1689018-.0727273-.257353-.0172685.0816579-.0416046.1616226-.0727273.2389706-.0909091.2389706-.3272727.5974265-.3181818.8547794.0090909.257353.1181818.3676471.3909091.3676471z" fill="#542f82"/><ellipse cx="11.890909" cy="23.777574" fill="#542f82" rx="1" ry="1" stroke="#231f20"/><path d="m11.9272727 24.2279412c-.1090909.1011029-.2818182.5698529-.2.7536764.0256456.0686056.0790249.1228893.1467313.1492174.0677064.0263282.143307.0221993.2078142-.0113497.0636363-.0367647.1545454-.15625.1090909-.4044118-.0304444-.1696235-.0988551-.3299611-.2-.46875-.0272727-.0367647-.0363636-.0459559-.0636364-.0183823z" fill="#6f2c87"/><ellipse cx="11.672727" cy="25.009191" fill="#fff" rx="1" ry="1"/><circle cx="11.831818" cy="25.105147" fill="#fff" r="1"/><path d="m11.1090909 23.8970588c.0636051.0062099.1265271-.0173271.1708174-.0638971.0442903-.0465699.0650861-.1110597.0564553-.1750735 0-.1378676-.1363636-.3308823-.1818181-.4595588-.0197981-.0474261-.0350203-.0966742-.0454546-.1470588-.0054901.0474867-.0177378.0939224-.0363636.1378676-.0545455.1378677-.1909091.3492647-.1818182.4963236-.0028822.0585491.0195093.1154811.0613717.1560417.0418623.0405606.0990747.060757.1568101.0553553z" fill="#542f82"/><path d="m11.1363636 23.3088235c-.0636363.0643383-.1636363.3308824-.1181818.4411765.0370432.079193.1287244.1154639.2090909.0827206.0363637-.0275735.0909091-.0919118.0636364-.2389706-.0196842-.0993209-.0599629-.1932969-.1181818-.2757353-.0181818-.0183823-.0181818-.0275735-.0363637-.0091912z" fill="#6f2c87"/><circle cx="11.004546" cy="23.772427" fill="#fff" r="1"/><circle cx="11.095455" cy="23.836765" fill="#fff" r="1"/><path d="m14.9181818 23.8970588c.1636364 0 .2181818-.1102941.2181818-.2389706 0-.1286764-.1272727-.3308823-.1818181-.4595588-.0204224-.0465314-.0327251-.0962852-.0363637-.1470588 0 0-.0090909.0367647-.0454545.1378676-.0363637.101103-.1909091.3492647-.1818182.4963236-.0002226.0594012.0242844.1161562.067523.1563745.0432387.0402183.1012187.0601883.1597497.0550225z" fill="#542f82"/><path d="m14.9363636 23.3088235c-.0545454.0643383-.1636363.3308824-.1181818.4411765.0370432.079193.1287244.1154639.2090909.0827206.0363637-.0275735.0909091-.0919118.0636364-.2389706-.0196842-.0993209-.0599629-.1932969-.1181818-.2757353-.0090909-.0183823-.0181818-.0275735-.0363637-.0091912z" fill="#6f2c87"/><circle cx="14.804546" cy="23.772427" fill="#fff" r="1"/><circle cx="14.895455" cy="23.836765" fill="#fff" r="1"/><path d="m15.6 7.02205882s.8545455-.22058823 1.5636364.38602942c.7090909.60661764.9636363 2.50919117-.2727273 2.83088236 0 0 1.9454545.3308823 2.1363636-1.94852942.1909091-2.27941177-3.1636363-2.62867647-3.4272727-1.26838236z" fill="#3a2c1c"/><path d="m15.0727273 2.98713235.5727272 3.94301471s1.1909091-.32169118 2.1636364.05514706c.9727273.37683823 1.8818182 1.17647059.7181818 4.14522058-.7181818 1.8198529-1.8363636 5.9650735-.6090909 8.3823529 1.0181818 2.0128677 3.4090909.78125 3.4090909.78125s-2.4454545.6893383-2.2272727-1.3235294c.2181818-2.0128676 5.1818182-11.72794114.7909091-15.55147055-2.3-1.9944853-4.8181818-.4319853-4.8181818-.4319853z" fill="#3a2c1c"/><path d="m15.2909091 3.06066176.3090909 3.8694853s-1.1363636-1.41544118-2.8636364-.32169118c-1.7272727 1.09375-.9727272 3.57536762-4.74545451 4.12683822 0 0-.21818182 3.6488971-2.37272727 3.9797794-2.15454546.3308824-2.86363637-.7077206-2.86363637-.7077206s.91818182.7077206 2.10909091-.6066176-.27272727-6.70955883 2.20909091-9.92647059c2.48181818-3.21691177 7.78181823-1.82904412 8.21818183-.41360295z" fill="#3a2c1c"/><path d="m15.6 6.93014706c-.0119317-.04997819-.0271163-.09910479-.0454545-.14705882-.0430131-.13192544-.100974-.25837839-.1727273-.37683824-.1116793-.17930838-.2496114-.3404546-.4090909-.47794118-.2119595-.17449916-.4517464-.31125545-.7090909-.40441176-.3017816-.11105424-.6165224-.18211133-.9363637-.21139706l-.5363636-.01838235-.5454546.02757353c-.3788203.04366159-.7493569.14273555-1.1.29411764-.3549618.15472964-.6716323.38700491-.9272727.68014706-.25536311.2972033-.44725113.64453381-.56363635 1.02022059-.06228077.18294783-.11090199.37036074-.14545454.56066177-.01818182.09191176-.02727273.1930147-.03636364.28492647-.00909091.09191176-.01818182.1930147-.03636363.29411764-.05509064.39083888-.18147471.76793986-.37272728 1.11213236-.17088842.30592282-.40687899.56963129-.69090909.77205879-.2403096.1666498-.51306522.2794623-.8.3308824-.22046517.029785-.44406089.0266882-.66363636-.0091912-.13728076-.0291575-.27129515-.0722688-.4-.1286765l-.13636364-.055147.13636364.0459559c.13498819.0317741.27154201.0563181.40909091.0735294.21018816.0146311.42136679-.0008405.62727273-.0459559.26120959-.0683316.50568822-.1903548.71818181-.3584559.24835342-.20158332.45004479-.45569391.59090909-.74448529.15799252-.31981895.25951814-.66508071.3-1.02022059l.02727273-.29411764c.00909091-.10110294.01818182-.20220589.03636364-.30330883.02707963-.20899178.07271847-.41509364.13636363-.61580882.12948235-.41472446.33966125-.79909414.61818182-1.13051471.29064103-.32680969.64711313-.58692724 1.04545453-.76286764.3818959-.16068699.7872795-.25694075 1.2-.28492647.2-.01838236.3909091-.01838236.5818182-.01838236.1856571.00881817.370747.02722453.5545455.05514706.1745866.02310034.3476302.05686305.5181818.10110294.1584361.04705094.3133706.10540826.4636363.17463236.139975.06048768.2739163.13435241.4.22058823.1136389.07917261.2201158.16836941.3181819.26654412.1583938.15615965.2877243.33984198.3818181.54227941.0631411.12803062.1090048.26404812.1363637.40441177z" fill="#745b45"/><path d="m15.9363636 6.76470588.1181819-.12867647c.1206647-.11049604.2515717-.20898966.390909-.29411765.2227696-.13322156.4652488-.22942108.7181819-.28492647.3289766-.06751309.6663218-.08301609 1-.04595588.4033441.04375977.7917513.17884551 1.1363636.39522059.3951499.24600854.6938829.62273149.8454545 1.06617647.1558894.47057264.1903106.97360386.1 1.46139706-.0392877.24309916-.0970342.48277838-.1727272.71691176l-.2363637.68933821c-.1545454.4595589-.3090909.9191177-.4545454 1.3694853-.1454546.4503677-.2909091.8915441-.4272727 1.3235294-.1363637.4319853-.2636364.8547794-.3818182 1.25s-.2272728.7720589-.3272728 1.1213236c-.1588235.5610067-.2803075 1.1321376-.3636363 1.7095588-.0206644.161551-.023713.3249082-.0090909.4871323.0090909.0551471.0181818.0919118.0272727.1286765l.0181818.0367647-.0272727-.0367647c-.0157821-.0417472-.027949-.084801-.0363636-.1286765-.0301485-.1635843-.0423436-.3300335-.0363637-.4963235.037621-.5851181.1227563-1.166119.2545455-1.7371323.0727272-.3584559.1636363-.7444853.2727272-1.1488971.109091-.4044118.209091-.8272059.3363637-1.2683824.1272727-.4411764.2636363-.8823529.4090909-1.3419117.1454545-.4595588.2909091-.9099265.4454545-1.3694853l.2272728-.68933825c.0756076-.21850602.1333767-.442909.1727272-.67095588.0727273-.45036765.0727273-.90992647-.0636363-1.30514706-.1245732-.3919783-.3738846-.73129134-.7090909-.96507353-.3107845-.20575411-.6607017-.34350784-1.0272728-.40441176-.315743-.05148713-.6370921-.05767557-.9545454-.01838236-.2414869.03915192-.4768361.11022638-.7.21139706-.1486123.06944233-.2889117.15578388-.4181818.25735294z" fill="#745b45"/><path d="m15.7909091 5.81801471c-.0020312-.05552386-.0081083-.11082077-.0181818-.16544118-.0181818-.11029412-.0545455-.26654412-.1090909-.46875-.0670982-.23608576-.1522018-.46655594-.2545455-.68933824-.1264785-.29093241-.2916389-.56305137-.4909091-.80882353-.2372831-.28431424-.5276653-.51855755-.8545454-.68933823-.1765861-.09089386-.3625623-.16178942-.5545455-.21139706l-.3-.06433823c-.1017799-.02129983-.2052006-.03360117-.3090909-.03676471h-.3272727l-.3181818.01838235c-.2178722.01806064-.4338134.05496028-.6454546.11029412-.4296588.12141462-.8313107.32757928-1.1818182.60661765-.3478765.28826751-.64588546.63304935-.88181815 1.02022059-.22775846.38164692-.41080816.78879789-.54545455 1.21323529-.12056067.39956279-.20873097.80838997-.26363636 1.22242647-.02727273.20220588-.04545455.40441176-.09090909.59742647-.04247451.18831403-.10024629.37276341-.17272728.55147059-.0756698.16104229-.17029387.312259-.28181818.45036765-.10840867.1195217-.2340719.22178083-.37272727.30330882-.22681268.12046414-.48022636.18056247-.73636364.17463235-.16268269-.00766217-.32414654-.03230288-.48181818-.07352941l-.15454545-.05514706.16363636.03676471c.15312715.02591258.30856038.03515656.46363636.02757353.241087-.01923257.47447579-.09474071.68181818-.22058824.24884651-.17606222.4365151-.42690289.53636364-.71691176.06339516-.1661889.10910739-.33873016.13636364-.51470589.03116174-.19484725.05240186-.39118445.06363636-.58823529.03629894-.43278231.11548392-.86078658.23636364-1.27757353.06353346-.22468742.13940879-.44561854.22727272-.6617647.09513928-.21681905.20134268-.42850072.31818182-.63419118.24990638-.42275271.57327837-.79639682.95454543-1.10294118.3833268-.3072052.8262316-.52953441 1.3-.65257353.2315112-.0635979.4693779-.1005964.7090909-.11029411h.5181819l.1636363.01838235.3363637.04595588c.1090909.02757353.2272727.04595588.3272727.08272059.2051974.065016.4032148.15125662.5909091.25735294.1801082.0990621.3479491.21938921.5.35845588.1392136.12941497.2669725.2708847.3818182.42279412.192533.26874299.3484739.56242486.4636363.87316176.0891335.23512683.1560977.47824117.2.72610295.0332862.15743113.0545609.31721496.0636364.47794117.0090909.09191177.0090909.14705883.0090909.14705883z" fill="#745b45"/><path d="m31.1636364 23.4742647s-.7-2.3069853-.4272728-2.5091912c.2727273-.2022059 4.2636364-.6985294 5.7363637-.1102941l-.1090909 2.6194853-4.5363637 2.0863971z" fill="#afb1b4"/><path d="m23.0181818 35.8272059 4.3727273-6.2040441.6 6.2040441h10.7c.5454545-5.7077206.6909091-6.6452206.6909091-6.6452206l3.5181818 6.6452206h2.6363636l-4.6181818-10.8180147s-.2454545-1.0845588-1.9636363-1.663603c-1.7181819-.5790441-3.2636364-1.2316176-3.2636364-2.4632353v-3.2352941h-4.1636364v3.2352941c0 1.2316177-1.5363636 1.819853-3.2545454 2.3988971s-1.9272728 1.6544118-1.9272728 1.6544118l-6.3 10.8915441z" fill="url(#e)"/><path d="m41.0727273 8.30882353c0 6.00183827-2.1090909 10.90992647-7.5272728 10.90992647-5.4181818 0-7.4272727-4.9632353-7.4272727-10.97426471s5.0454546-6.62683823 7.5181818-6.62683823c2.4727273 0 7.4363637.68014706 7.4363637 6.69117647z" fill="#fddfd8"/><path d="m31.8454545 12.1507353c.007374.6112849-.3511618 1.1665371-.9076518 1.4056496-.5564901.2391126-1.2007158.1147269-1.6308909-.3148889s-.561099-1.0793718-.3314406-1.644891c.2296585-.5655193.7744129-.9347948 1.3790743-.9348403.3930048-.0024451.7708731.1530562 1.0504744.432294.2796013.2792377.438031.6593371.4404346 1.0566766z" fill="#82b034"/><path d="m31.4636364 12.1507353c.0036753.4254431-.2474694.8108953-.6355475.9754265s-.8360332.0754722-1.1335964-.225373c-.2975632-.3008451-.3856507-.7537409-.2229143-1.1460993.1627363-.3923583.5439836-.646273.9647854-.6425571.5652894.0049917 1.0223355.4670788 1.0272728 1.0386029z" fill="#2a1d01"/><path d="m30 11.6084559c0 .1675128-.1343146.3033088-.3.3033088s-.3-.135796-.3-.3033088c0-.1675129.1343146-.3033088.3-.3033088s.3.1357959.3.3033088z" fill="#fff"/><path d="m30.3090909 15.4595588c1.0181818.625 2.1181818 1.0110294 3.2272727 1.0018383 1.1090909-.0091912 2.1818182-.4411765 3.2454546-1.0018383-.3951393.470656-.8807119.8552685-1.4272727 1.1305147-1.1394974.5905104-2.4882339.6007375-3.6363637.0275736-.5559524-.2642806-1.0396605-.6618253-1.4090909-1.1580883z" fill="#f99d1c"/><path d="m35.5 12.1507353c.0609236.7894099.7122831 1.3985708 1.4954545 1.3985708s1.434531-.6091609 1.4954546-1.3985708c-.0609236-.7894099-.7122832-1.3985708-1.4954546-1.3985708s-1.4345309.6091609-1.4954545 1.3985708z" fill="#82b034"/><path d="m35.8909091 12.1507353c-.0036753.4254431.2474694.8108953.6355475.9754265s.8360332.0754722 1.1335964-.225373c.2975632-.3008451.3856506-.7537409.2229143-1.1460993-.1627363-.3923583-.5439836-.646273-.9647855-.6425571-.5652893.0049917-1.0223354.4670788-1.0272727 1.0386029z" fill="#2a1d01"/><path d="m35.9454545 11.6084559c0 .1675128.1343146.3033088.3.3033088.1656855 0 .3-.135796.3-.3033088 0-.1675129-.1343145-.3033088-.3-.3033088-.1656854 0-.3.1357959-.3.3033088z" fill="#fff"/><path d="m30.7727273 22.7757353s2.6818182 2.3529412 5.5909091 0l-1.9818182 5.8823529z" fill="#fff"/><path d="m32.4090909 27.0036765s.9272727 1.6544117 1.2727273 1.6544117c.3454545 0 1.4545454-1.6544117 1.4545454-1.6544117l-1.3909091-1.0569853z" fill="#1b88c0"/><path d="m22.1363636 37.4540441 4.9454546-7.3897059s.2818182 4.4852942.4545454 7.0496324l11.5454546-1.2867647c.2-2.7297794.4727273-6.2132353.4727273-6.2132353l3.2545454 6.2132353h2.8363636c-1.6818181-4.2003677-4.6545454-11.5900735-4.990909-12.0404412-.4636364-.625-4.2636364-1.71875-4.2636364-1.71875l-2.8727273 4.2279412-3.1727273-4.3841912s-3.4181818 1.25-3.7272727 1.40625-5.6545454 9.9540441-7.8818182 14.1360294z" fill="#e6e7e8"/><path d="m44.6545455 34.8988971c.1843645-.0669935.3771923-.1072222.5727272-.1194853-.0101419-.0167396-.0163611-.0356032-.0181818-.0551471h-.0090909l-.0272727-.0643382c-.1938393.0095106-.3845631.0530523-.5636364.1286764l-.6636364-1.5165441c.2152375-.0443243.4353142-.059776.6545455-.0459559-.0181818-.0459558-.0272727-.0827205-.0454545-.1194853-.219558-.0073065-.4392121.0111999-.6545455.0551471l-.6090909-1.3786765c.1976953-.1125304.4128872-.1902323.6363636-.2297794-.0112224-.0382967-.0264604-.0752713-.0454545-.1102941-.2220138.0450111-.4363765.1224136-.6363637.2297794l-.6454545-1.461397c.1960463-.1491886.4061517-.2784894.6272727-.3860295-.0112224-.0382967-.0264604-.0752713-.0454545-.1102941-.2222624.1054031-.4325797.2348343-.6272727.3860294l-.7636364-1.7463235c.1545454-.2941176.3545454-.6433823.4818182-.8639706l-.0545455-.1378676c-.1181818.2022059-.3363636.5790441-.4909091.8639706l-.7454545-1.7003677c.2363636-.6433823.4272727-1.0569853.4363636-1.0661765-.0249993-.0472538-.0462773-.0964255-.0636363-.1470588-.0909091.1930147-.2727273.6341912-.4363637 1.0661765l-.7818182-1.7738971c.2181819-.5606617.4545455-.7077206.5545455-.7444853s-.0272727-.0367647-.0272727-.0459558h-.0090909l-.0363637-.0551471c-.0909091.0275735-.3181818.15625-.5454545.6893382l-1.3818182-.4503676c.0181818-.3492647.1545454-.7628677.2636364-1.0661765l-.1-.0367647c-.1181819.2941177-.2636364.7169118-.2818182 1.0661765l-1.0909091-.3676471c.0272727-.4503676.0454545-.7169117.0454545-.7352941h-.1181818c0 .0735294-.0181818.3216912-.0363636.7077206l-.1818182-.0551471-.0363636.1102942.2090909.0643382c-.0272728.4503676-.0545455 1.0569853-.1 1.773897-.2543739-.074298-.5122736-.1356496-.7727273-.1838235l-.0272727.1102941.8.1930147c-.0272728.4871324-.0545455 1.0202206-.0909091 1.5900736-.2727273-.0735294-.5818182-.1470589-.9-.2022059l.2636363-3.1617647h-.1181818l-.2636363 3.1525735-.6-.0919118-.0181819.1194853.6090909.0919118-.1272727 1.5716912-.8-.0827206.2090909-2.6378677h-.1090909l-.2181818 2.6378677c-1.0090909-.0827206-1.9636364-.1102941-2.8272727-.1102941l-.2181818-2.4080883h-.109091l.209091 2.3988971-1.0818182.0367647-.1818182-1.9393382.4818182-.0919118.3909091-.0643382-.0181819-.1102941-.4.0643382-.4636363.0827206-.1636364-1.7371324h-.1181818l.1636364 1.7463236c-.3454546.0643382-.6727273.1378676-.9727273.211397l-.1454546-1.7371323.8-.2297795-.0363636-.1102941-.7727273.2205883-.1181818-1.3970589.4-.1194853-.0272727-.1194852-.3818182.1194852-.0818182-.992647-.0909091.0275735h-.0181818l.0818182.9926471-.7727273.2297794-.0636363-.9375h-.0090909l-.1.0367647h-.009091l.0636364.9375-.9818182.3033088c-.0363636-.3952206-.0727272-.7904412-.0818182-.8639706l-.1090909.0459559c0 .0183824.0363637.3952206.0727273.8547794l-.5181818.15625c-.0580884-.2523091-.1309439-.5009083-.2181818-.7444853l-.0454546.0183824h-.0181818l-.0272727.0367647h-.0090909c.0842239.2312684.1540573.4676368.2090909.7077206l-1.1818182 2.1231617c-.106383-.1886047-.2413551-.3591807-.4-.5055147l-.0545455.101103c.1551301.1576361.286806.3372045.3909091.5330882l-.9909091 1.7738971-.3818181-.5606618c-.0265231.0366948-.0479353.076899-.0636364.1194853l.3818182.5514706-.7090909 1.2775735-.4454546-.4595588-.0545454.1102941.4363636.4595588-.5545454 1.0018383c-.1727273-.0919118-.3909091-.1930147-.5454546-.257353l-.0545454.0919118c.1879683.0789111.3702333.1710488.5454545.2757353l-.5181818.9191176c-.1791751-.0899035-.3644994-.1666938-.5545455-.2297794l-.0636363.101103c.1931935.0661832.3815381.1460375.5636363.2389706l-.5545454.992647-.5454546-.2573529-.0545454.1011029c.0090909.0091912.3.1378677.5363636.2665441l-.4727273.8455883-.5545454-.2022059-.0636364.1011029c.1363637.0459559.4363637.1470588.5636364.2022059l-.5.9007353c-.3090909-.1011029-.5454546-.15625-.5727273-.1654412-.0064906.0242327-.0190092.0463819-.0363636.0643383v.0183823l-.0272728.0367647c.1967565.0407003.3910202.0928708.5818182.15625l-1.4818182 2.6378677h.1454546l1.4454545-2.6102942c.1727273.0551471.3727273.1378677.5818182.2297795l-1.3545454 2.3621323h.1272727l1.3272727-2.3161765c.2187006.1014158.4285374.2213274.6272727.3584559l-1.1454545 1.976103h.1363636l1.1090909-1.9025736c.109091.0827206.5454546.5330883.6363637.6341912l.0818182-.1102941c-.2078465-.2223841-.4295084-.4311411-.6636364-.625l.4454545-.7352941c.2445861.2016027.4782577.4163744.7.6433823l.0545455-.0919117c-.2205479-.2311384-.4542805-.4490351-.7-.6525736l.5272727-.8639706c.2643174.1983193.5135053.4164592.7454546.6525736l.0545454-.0735294.0181818-.0183824c-.2337725-.2439716-.4894117-.4655076-.7636363-.6617647l.5090909-.8455882.7636364.7352941.0727272-.101103c-.0181818-.0091911-.3727272-.367647-.7727272-.7352941l.5090909-.836397c.4454545.4136029.7727272.78125.7818181.7904411v-.0183823l.0545455-.0827206c-.0272727-.0275735-.3363636-.3768382-.7818182-.7996323l.4454546-.7444853.8181818.8455882.0636363-.1011029-.8181818-.8455883.5636364-.9375.7363636 1.0661765.0636364-.101103-.7363636-1.0661764.6454545-1.0753677c.1431432.5848528.255423 1.1769879.3363636 1.7738971l.1-.15625c-.0181818-.1286765-.1272727-.882353-.3363636-1.7738971l.5818182-.9742647c.0090909 1.3235294-.0636364 2.3713236-.0636364 2.3988971v.0827206h.0090909l.0545455-.0827206c.0012361.0216663.0042772.0431886.0090909.0643382h.0090909c.0090909 0 .2909091-.0827206.8272727-.1930147.0363637.4044118.0636364.8088235.1 1.2132353-.5.1102941-.8.2022059-.8636363.2205882-.0013259.0188506.0017897.0377503.0090909.0551471l.0181818.0643382c.2765307-.0928752.5590042-.1665756.8454545-.2205882l.1090909 1.3327206c-.4818181.0827206-.790909.1470588-.890909.1746323-.1.0275736.0090909.0735295.0090909.1194853 0 .0459559.3818181-.0919117.8909091-.1746323l.0818181 1.1213235-.9090909.1102941c.0078829.0392984.0109363.0794304.0090909.1194853.1090909-.0183823.4272728-.0643382.9090909-.1102941.0363637.4319853.0636364.8639706.1 1.2683824l-.890909.1378676.0181818.1194853c.2818182-.0551471.5818182-.1011029.8818182-.1378676.0090909.1654411.1090909 1.3511029.1181818 1.5165441h.1181818c-.0181818-.1654412-.1090909-1.3602941-.1272727-1.5349265l.8727272-.0919118.1272728 1.5441177h.1090909l-.1272728-1.5533088c.309091-.0367647.6181819-.0551471.9272728-.0735295l.1363636 1.5349265h.1181818l-.1454545-1.5441176c.3636363-.0275736.7363636-.0459559 1.1-.0551471l.0636363.7444853h.1181819l-.0727273-.7536765 1.0636364-.0275735.0636363.78125h.1181818l-.0727272-.78125h1.7090909l-.0636364.78125h.1181818l.0636364-.78125.7909091.0183824-.0636364.7628676h.1181818l.0636364-.7628676 1.1636364.0459558c-.0060606.2512255-.0151516.4901961-.0272728.7169118h.1181819l.0272727-.7169118 1.1.0643383-.0272727.6525735h.1090909c.0181818-.2113971.0272727-.4227941.0363636-.6525735l.9363636.0643382v-.1102941c-.0181818-.0091912-.3636363-.0367647-.9363636-.0643382.0090909-.3492647.0272727-.6985295.0454545-1.0661765l.9909091.1286765.0181819-.1194853-1-.1286765c.0181818-.3216912.0363636-.6617647.0545454-1.0018382l1.0454546.1930147.0181818-.1194853-1.0636364-.1930147.0818182-1.5533089c.3545454.0643383.7090909.1286765 1.0727273.2113971l.0272727-.1102941-1.0909091-.2205883c.0181818-.3768382.0363636-.7536764.0636364-1.1305147l1.0636363.1746324.0181818-.1194853-1.0818181-.1654412c.0181818-.2481617.0272727-.4963235.0454545-.7352941.3545455.0735294.7181818.1470588 1.0818182.2389706v.2757353h.1181818c-.0090909-.46875-.0090909-.8915441 0-1.2959559l.5 1.0202206c-.0573642.389538-.0877411.7826518-.0909091 1.1764706l.1.2022059h.0181818c-.0060098-.3992904.0152528-.7985238.0636364-1.194853l.4545455.9191177c-.1110272.2741239-.1873883.5613201-.2272728.8547794h.1090909c.0396069-.2448581.1035677-.485047.1909091-.7169118l.4727273.9466912c-.1909091.2389706-.3181818.4227941-.3818182.5055147l.0545455.1194853h.0090909c0-.0091912.1454545-.2113971.3727273-.5055147l.5363636 1.09375-.4090909.3860294.0363636.0459559.0363637.0459559.390909-.3584559.609091 1.2408088c-.1166007.125193-.2258773.2571574-.3272728.3952206l.0909091.0643382c.0937584-.1217551.193902-.2383437.3-.3492647l.7181818 1.4705883-.1545454.1378676h.1818182l.0272727-.0275735.0181818.0275735h.1272727l-.0545454-.1011029c.1454545-.1194853.3181818-.257353.5181818-.3952206l.2272727.4963235h.1363637l-.2727273-.5606618c.1776281-.1194793.3628813-.2269444.5545454-.3216911l.3818182.8823529h.1272728zm-.8727273-1.7003677c-.2156.0729439-.4204787.1749673-.6090909.3033088l-.5909091-1.2408088c.1943547-.1532992.3977613-.2944918.6090909-.4227941zm-.6454546-1.4705882c-.1909091.1194853-.4.2665441-.6090909.4136029l-.6-1.2775735c.1800907-.2067406.3745224-.4002453.5818182-.5790441zm-.6818181-1.5533088c-.1909091.1654411-.3909091.367647-.5818182.5698529l-.6363637-1.3327206c.1636364-.3308823.3272728-.6525735.4818182-.9283088zm-1.5272728-3.5018383.7272728 1.6727941c-.1454546.2757353-.3181819.5974265-.4818182.9283089l-.6363637-1.351103c.1181819-.4595588.2636364-.8823529.3909091-1.25zm-.8454545-1.930147.7727273 1.773897c-.1272728.3584559-.2636364.78125-.3909091 1.2408088l-.6818182-1.4430147h-.0272727c.0600043-.5331297.1695799-1.0593542.3272727-1.5716911zm-1.4-.6433824 1.3.4319853.0272727.0551471c-.1828603.5420508-.3048391 1.1031758-.3636364 1.6727941-.1818181-.0735294-.5727272-.2297794-1.0545454-.4044118.0363636-.680147.0636364-1.2867647.0909091-1.7555147zm-1.2-.3952206 1.0909091.3584559c-.0272728.46875-.0636364 1.0661765-.1 1.7555147-.3363637-.1194853-.7090909-.2389706-1.0909091-.3492647.0363636-.7169118.0727273-1.3143382.1-1.7647059zm-1.2181818 3.3547794c.3181818.0551471.6272727.1286765.9090909.2022059-.0272728.4779412-.0545455.9834559-.0818182 1.4981618-.3272727-.0551471-.6454546-.0919118-.9545455-.1286765zm-.1363637 1.6819853c.3090909.0367647.6363637.0827206.9545455.1378677-.0090909.2573529-.0272727.523897-.0363637.7904411l-.990909-.1011029zm-.0818182.9375.9909091.1102941-.0545454 1.0845589c-.3454546-.0459559-.6909091-.0919118-1.0272727-.1194853zm-6.1272727-.0275735.1 1.1580882-.8727273.1194853-.0818181-1.1764706zm-.8636363-.0183824-.0636364-.9099264.8454545-.0827206.0727273.9007353zm.9727272 1.2867647.1181818 1.4430148-.890909.0827205-.1-1.3970588c.2636363-.0459559.5545454-.0919117.8727272-.1286765zm.1090909-.0091911.4909091-.0551471.5545455-.0459559.1363636 1.4889706c-.3727273.0091912-.7272727.0367647-1.0636363.0551471zm1.1545455-.1102941c.3363636-.0275736.6909091-.0459559 1.0727273-.0551471l.1363636 1.5349265h-1.0636364zm1.0818182-1.2683824c.8-.0091912 1.6727272.0091912 2.6363636.0735294l-.0818182 1.0661765c-.8818182-.0551471-1.7-.0643383-2.4545454-.0459559zm.1363636 2.8584559.1090909 1.2132353-1.0636363.0183823-.109091-1.2132353zm.1090909-.1102941-.1363636-1.5441177c.7363636-.0183823 1.5545454-.0091912 2.4363636.0459559l-.1272727 1.5808824c-.7727273-.0551471-1.5-.0827206-2.1727273-.0827206zm2.4181818-1.4889706.7909091.0643382-.1272727 1.5808824-.7909091-.0735294zm.9090909.0735294c.3363637.0367647.6818182.0735294 1.0272728.1286765l-.0818182 1.5716911-1.0727273-.1194853zm-.7363636-2.2150735.8.0827205-.0727273.8272059-.8-.0643382zm-.0818182.9650735.8.055147-.0818182 1.0753677c-.2727272-.0275735-.5454545-.0551471-.8-.0643382zm-.0363636-.9742647-.0727273.8455882c-.9636363-.0643382-1.8545454-.0827206-2.6545454-.0735294l-.0818182-.8823529c.8636363 0 1.8090909.0275735 2.8090909.1102941zm-2.7363636 1.9944853c-.3727273.0091912-.7272728.0275735-1.0727273.055147l-.1-1.1213235 1.0727273-.0367647zm-.1909091-2.1047794.0818181.8823529-1.0818181.0367647-.0818182-.8915441zm-.9909091 2.1599264-1.0454546.101103-.0909091-1.1488971 1.0272728-.0735294zm-.1181818-1.2316176-1.0272728.0643382-.0727272-.8915441 1.0181818-.0643382zm-.2727273-2.9319853.1727273 1.9209559-1.009091.0643382-.1454545-1.773897c.3090909-.0735295.6363636-.1470589.9818182-.2113971zm-.9545455 1.9944853-.8454545.0919118-.1090909-1.6452206c.2454545-.0735294.5181818-.1378677.8090909-.2113971zm-.1545454-1.875c-.2909091.0643382-.5636364.1286765-.8090909.2022059l-.1181819-1.7095589.7909091-.2205882zm-.2636364-3.2444853.1090909 1.3970588-.7818182.2205883-.1-1.3878677zm-.6636364 3.4742647-.9363636.2665441c-.0454545-.6158088-.1-1.1856617-.1454545-1.7003676l.9636363-.2757353zm-1.5454545.6066176h.0090909l.5-.1746323c.0363636.46875.0818182.9650735.1272727 1.4705882l-.6454545.1194853c.0090909-.4136029.0181818-.9007353.0090909-1.4154412zm1.3181818-3.8143382.1 1.3786765-.9636363.2757353c-.0454546-.5330883-.0818182-.9926471-.1181819-1.351103zm-1.7.5882353c.0818182.4227941.1363637.8823529.1818182 1.3602941l-.9272727 1.5992647c-.1115622-.3066825-.2452552-.6046656-.4-.8915441zm-1.2181818 2.1966912c.1516343.290313.2822788.5913451.3909091.9007353l-.9 1.5441176-.4727273-.680147zm-1.0454545 1.875.4727272.680147-.6454545 1.1213236-.5272727-.5422794zm-.7545455 1.3602941.5181818.5422794-.4818182.8455882c-.1909091-.1470588-.3909091-.2849264-.5818181-.4044117zm-.6 1.0845588c.1909091.1194853.3818182.257353.5727273.4044118l-.5090909.8823529c-.1858103-.1352332-.3801639-.2580439-.5818182-.367647zm-.5727273 1.0294118c.1992688.1052595.3906849.2250621.5727273.3584559l-.5454545.9466911-.5818182-.3125zm-.6090909 1.09375.5727273.3125-.4818182.836397c-.1818182-.1011029-.3636364-.211397-.5636364-.3033088zm-.4454545 2.0680147c-.2-.0919118-.4-.1654412-.5727273-.2297794l.4909091-.882353c.1903929.0869607.3755612.1851695.5545454.2941177zm.7363636.4136029c-.1999128-.1352055-.4095943-.2550283-.6272727-.3584558l.4636363-.8088236c.2272728.1470588.4272728.2941177.609091.4319853zm.5-.836397c-.1727273-.1378677-.3818182-.2849265-.6-.4319853l.4818182-.8363971c.2202043.1247209.4327164.2628426.6363636.413603zm.5818182-.9558824c-.2090909-.1470588-.4272727-.2941176-.6363636-.4136029l.5454545-.9466912c.2120392.1570931.4153763.3258526.6090909.5055147zm.5818182-.9558823c-.1969174-.1796238-.403278-.348374-.6181818-.5055147l.5090909-.8731618c.2181818.1746324.4272727.3584559.6090909.5330882zm.5636363-.9558824c-.1818181-.1654412-.3909091-.3492647-.6090909-.523897l.4818182-.8272059.5818182.6066176zm.5181819-.8547794-.5909091-.6066176.6363636-1.09375.5272727.7536764zm.6363636-1.0569853-.5272727-.7536765.8818181-1.5073529c.1272728.3768382.2363637.7628676.3272728 1.1397059zm.7727273-1.2775735c-.0909091-.3768383-.2090909-.7628677-.3363637-1.1305147l.8909091-1.5349265c.0454546.5514706.0636364 1.1029412.0727273 1.6268382zm.4454545-4.319853.5181818-.15625c.0272728.3584559.0636364.8180147.1090909 1.351103l-.4363636.1194853c-.0329069-.4421155-.0967025-.8813241-.1909091-1.3143383zm.2454546 1.4246324.4-.1102941c.0454545.5055147.090909 1.0845588.1454545 1.7003676l-.5.1654412c-.0090909-.5514706-.0363636-1.1305147-.0818182-1.7003676zm-.009091 4.3933823c.009091-.1470588.0272728-.5055147.0454546-.9742647l.6545454-.1194853c.0181819.3033089.0454546.6158089.0727273.9283089-.3909091.0735294-.6454545.1378676-.7727273.1654411zm.6727273-2.7205882.9363637-.2665441.1181818 1.6268382c-.3636364.0459559-.6727273.0827206-.9272728.1286765-.0363636-.5147059-.0818181-1.0110294-.1272727-1.4889706zm.2181818 2.5275735-.0818181-.9191176c.2545454-.0459559.5636363-.0919118.9272727-.1286765l.0636363.9099265zm.1090909 1.3327206c-.0363636-.4136029-.0636363-.8088235-.1-1.2132353l.9-.1470588.0909091 1.1856618c-.3454545.055147-.6363636.1194853-.8909091.1746323zm.009091.1102941.8818181-.1654411.1 1.3878676-.8727272.1194853zm.1181818 1.4613971c.2454545-.0459559.5363636-.0827206.8727272-.1194853l.0818182 1.1764706-.8727272.0735294c-.0272728-.367647-.0545455-.7536765-.0818182-1.1305147zm.1909091 2.5183824c-.0363637-.413603-.0636364-.8363971-.1-1.2683824l.8727272-.0827206.0909091 1.25zm.8-2.65625.8909091-.0827206.090909 1.2040441-.9.0643382zm.1727272 2.5459558-.0818181-1.2408088.9090909-.0643382.1 1.2316176zm.9272728-1.4246323-.1-1.2132353.2636363-.0183824.8-.0367647.1181818 1.2224265zm.1090909 1.3419118-.1-1.2316177 1.0818182-.0459559.1090909 1.2224265c-.3636364.0122549-.7272728.0306372-1.0909091.0551471zm1.2090909-.0643383-.1090909-1.2132353 1.0545454-.0183823.1090909 1.2132353zm2.9-.0275735c-.5545455 0-1.1363637-.0091912-1.7272727 0l-.109091-1.2040441c.609091-.0091912 1.2545455 0 1.9272728.0275735zm.1-1.2959559c-.6727273-.0275735-1.3272727-.0275735-1.9454546-.0275735l-.1090909-1.2132353c.6545455.0091912 1.3727273.0275735 2.1545455.0827206zm.8090909 1.3143382h-.7909091l.0909091-1.1856617.8.0367647zm.1090909-1.2775735-.8-.0367647.0909091-1.1488971.8.0643383zm1.1727273 1.3235294-1.1636364-.0367647.0909091-1.1580882 1.1272727.0735294c-.0181818.3860294-.0363636.7628676-.0545454 1.1213235zm.0636363-1.2408088-1.1181818-.0735294.0909091-1.1121324c.3454546.0275736.7090909.0735294 1.0818182.1194853zm1.1545455 1.3051471-1.1-.0551471c.0181818-.3676471.0363636-.7352941.0545454-1.1213235l1.1.1102941c-.0181818.367647-.0363636.7169118-.0545454 1.0661765zm.0545454-1.1856618-1.090909-.1102941c.0181818-.3492647.0272727-.6985294.0454545-1.0569853l1.1.15625zm.0636364-1.1305147-1.1-.15625.0818182-1.5808824 1.1.1746324zm.0818182-1.6819853-1.0909091-.1746324.0545455-1.0845588 1.1.1470588c-.0181819.3676471-.0363637.7444853-.0636364 1.1121324zm.0727273-1.2316177-1.1-.1470588c.0090909-.2665441.0272727-.523897.0363636-.7904412l1.1.1930148c-.0090909.2481617-.0272727.4963235-.0363636.7444852zm.0454545-.8547794-1.1-.1930147c.0272727-.5147059.0545455-1.0110294.0727273-1.4889706.4181818.1194853.7818182.2481618 1.0909091.3676471-.0181818.4227941-.0454546.8639706-.0636364 1.3143382zm.0727273-1.4430147c-.3090909-.1194853-.6818182-.2389706-1.0909091-.3584559.0272727-.5606617.0636364-1.09375.0818182-1.5808823.3818182.1102941.7636363.2297794 1.0909091.3492647-.0181819.4963235-.0545455 1.0294118-.0818182 1.5900735zm1.1181818 1.7003677c-.3636364-.0919118-.7272727-.1654412-1.0818182-.2389706.0272727-.4411765.0454546-.8731618.0727273-1.2867647.3492369.1404556.6893132.3031595 1.0181818.4871323-.0090909.3308824-.0181818.6709559-.0090909 1.038603zm.0090909-1.1764706c-.3280552-.1766618-.6648618-.3361853-1.0090909-.4779412.0272727-.5606618.0545455-1.09375.0818182-1.5900735.4909091.1746323.8818182.3308823 1.0454545.3952206-.0545454.4963235-.0909091 1.0569853-.1181818 1.6727941zm.6454546 1.0845588-.4818182-.9742647v-.0183823h-.0363637c.0181819-.6341912.0545455-1.1672795.1090909-1.6268383l.6727273 1.4338235c-.1074286.3905161-.1954179.7862338-.2636363 1.1856618zm.5636363 1.1580882-.4818182-.9834558c.0646269-.40848.1495832-.8134058.2545455-1.2132353l.6181818 1.3143382c-.1363636.2941177-.2727273.5974265-.3909091.8823529zm.0727273.1378677c.1090909-.2757353.2454545-.5790441.3818182-.8823529l.6090909 1.2959558c-.1818182.2022059-.3454546.4044118-.5.5882353zm.5545454 1.1213235c.1454546-.1838235.309091-.3860294.5-.5974264l.5909091 1.2591911c-.2.15625-.3818181.3125-.5454545.4595589zm.6 1.2316177c.1636364-.1378677.3454546-.3033089.5454546-.4503677l.5818182 1.2316177c-.1840826.1362268-.3573387.286809-.5181818.4503676zm1.3909091 2.8308823-.7272727-1.4889706c.1611338-.1604401.3343852-.3079452.5181818-.4411764l.7272728 1.5349264c-.2.1378677-.3727273.2757353-.5181819.3952206zm.6181819-.4595588-.7272728-1.5441176c.1855782-.1335579.3912501-.2359763.6090909-.3033089l.6636364 1.5349265c-.1903774.0880964-.3728737.1926516-.5454545.3125z" fill="#cdddc0"/><path d="m35.4545455 36.9117647-1.2909091-9.4944853-.9909091.0643382-1.8363637 9.4301471z" fill="#0095da"/><path d="m32.2272727 26.8566176s1.0818182 1.5808824 1.4272728 1.5808824c.3454545 0 1.3090909-1.5808824 1.3090909-1.5808824l-1.3909091-1.0569852z" fill="#197cb0"/><path d="m30.7363636 20.9650735c.0818182.9466912 2.9454546 4.8621324 2.9454546 4.8621324s2.9090909-3.6397059 2.7909091-4.9724265l1.1636363 1.5257353c0 .9007353-2.5909091 5.5238971-2.5909091 5.5238971l-1.3636363-1.8382353-1.4727273 1.9209559s-2.1545454-3.3455883-2.6363636-5.7628677z" fill="#efeff0"/><path d="m29.5 5.30330882s.6363636 1.93933824 3.6 2.17830883 5.3-.34926471 6.4636364.23897059c1.1636363.58823529.7545454 6.28676466.7545454 6.28676466s1.1636364-4.41176466.9909091-6.40624996c-.0818182-.90992647-.1272727-3.67647059-1.8090909-5.23897059-2.0181818-1.875-5.4090909-2.11397058-6.5090909-1.93933823-2.8363636.45036765-3.5545455 1.35110294-3.5545455 1.35110294s-1.1727272.07352941-1.5090909.35845588c-1.8636363 1.5257353-3.1454545 5.29411765-.8727272 12.40808826 0 0-1.2818182-6.70955885 2.4454545-9.23713238z" fill="#fcb963"/><path d="m39.6181818 7.36213235c-.9454545-.56066176-4.4818182-.22977941-6.2818182-.3492647-1.8-.1194853-3.4363636-.88235294-3.3181818-3.18014706 0 0 .5818182 1.17647059 1.8090909 1.17647059 0 0-.7636363-.52389706-1.5727272-2.52757353 0 0 1.9181818-1.59007353 6.4-.05514706 0 0-2.9727273-2.24264706-7.2727273-.47794118 0 0-.5272727 1.88419118-1.4545455 2.88602941-.9272727 1.00183824-1.9818182 2.88602942-1.0818182 6.77389708.0454546-2.13235296.5545455-4.88051472 2.6545455-6.30514708 0 0 .6363636 1.93933824 3.6 2.17830883s5.3-.34926471 6.4636364.23897059c.3454545.17463235.5545454.79963235.6727272 1.5992647l.0181819-.01838235s.0636363-1.5257353-.6363637-1.93933824z" fill="#f99d1c"/><path d="m30.3727273 4.88970588c.1292729.23099098.3022588.43399273.5090909.59742647l.1636363.11029412.0727273.05514706.0909091.04595588.1636364.10110294c.0557551.03130274.1134508.05893373.1727272.08272059l.1818182.08272059.1818182.06433823.3636364.12867648c.1272727.02757352.2545454.07352941.3818182.09191176l.3818181.07352941.0909091.01838235.1.01838236.1909091.01838235.3909091.04595588.3909091.02757353.4.01838236h.3909091c.1363636 0 .2636364.00919117.4 0 .1363636-.00919118.5272727-.00919118.7909091 0-.2545455.05514705-.5181818.09191176-.7818182.13786764s-.5363636.04595588-.8.06433824c-.1329779.01214226-.2666138.01521294-.4.00919117h-.4090909c-.1340007-.00312369-.2676389-.01540662-.4-.0367647l-.2-.01838235h-.1l-.1-.01838236c-.5377999-.08528727-1.0573315-.26244655-1.5363636-.52389706-.2420061-.13062028-.4627563-.29800902-.6545455-.49632353-.2001409-.19126775-.347422-.43205115-.4272727-.69852941z" fill="#ffd04f"/><path d="m35.3181818 5.12867647c-.4029012-.02068301-.803879-.06982245-1.2-.14705882-.3958995-.07910914-.7849911-.18974814-1.1636363-.33088236-.387498-.14067546-.7521058-.33892983-1.0818182-.58823529-.3461872-.2527987-.6091052-.60508743-.7545455-1.01102941l-.1-.29411765.2818182.13786765.8181818.40441176.8090909.41360294-.1454545.22058824-.7-.65257353-.6909091-.65257353-.1090909-.10110294.1181818-.08272059.1363636-.08272059.1272728-.04595588c.0822322-.0329672.167499-.05759782.2545454-.07352941l.2636364-.04595588.2636363-.02757353c.3458726-.01547506.6924145-.00318159 1.0363637.0367647l.5090909.07352941.5090909.10110295.5.12867647.4909091.14705882-.5090909-.09191176c-.1636364-.03676471-.3363637-.05514706-.5-.08272059l-.5090909-.06433824-.5-.04595588c-.3361836-.01995618-.6733176-.01688544-1.0090909.00919118l-.2454546.0367647-.2454545.04595588-.2272728.07352942-.1090909.04595588-.0818181.05514706v-.19301471l.7090909.64338235.7.64338236.7363636.68014706-.8909091-.45036765-.8090909-.41360294-.8181818-.42279412.1818182-.15625c.1246304.36203551.348481.68079533.6454545.91911765.3067532.24634774.6464962.44749063 1.0090909.59742647.3668575.15638301.7434146.28840353 1.1272727.39522059.3818182.10416666.7727273.18688725 1.1727273.24816176z" fill="#ffd04f"/><path d="m25.8909091 6.47977941c.0678965-.53482601.1773253-1.0634192.3272727-1.58088235.1437051-.52784602.3481311-1.03683581.6090909-1.51654412.1281158-.24259422.2771801-.47327042.4454546-.68933823.1739491-.21566318.3722681-.41000011.5909091-.57904412.2237129-.17046229.4763446-.29817135.7454545-.37683824.2712232-.08037579.5543939-.11149468.8363636-.09191176l-.0818181.02757353c.3612759-.24988042.7447436-.46526772 1.1454545-.64338236.3965403-.17813974.8070456-.32263269 1.2272727-.43198529.4165598-.11886696.842321-.20188369 1.2727273-.24816176.4318519-.04452207.8663617-.05681024 1.3-.03676471.2160823.00468285.4316594.02310157.6454546.05514706.2090909.02757353.4272727.06433823.6363636.11029412.2090909.04595588.4181818.10110294.6272727.15625l.3090909.10110294c.1061633.02708519.2096312.06400607.3090909.11029412l.3.11029411.2909091.13786765c.2.08272059.3909091.18382353.5818182.28492647l.2727273.16544118.2818182.16544117c.1818181.11029412.3545454.23897059.5272727.35845589l-.5545455-.3125-.2818181-.15625-.2909091-.13786765c-.1909091-.09191177-.3818182-.18382353-.5818182-.25735294l-.3-.11029412-.3-.10110294-.3-.10110294-.3090909-.08272059c-.2090909-.04595588-.4090909-.10110294-.6181818-.12867647-.209091-.02757353-.4181819-.06433824-.6272728-.09191177-.2090909-.02757352-.4181818-.0367647-.6272727-.0367647-.4219844-.01375067-.8443936.00468392-1.2636364.05514706-.4170576.05522109-.8300706.13812067-1.2363636.24816176-.4017609.1174986-.7963751.25867138-1.1818182.42279412-.3844651.16731064-.7527158.37039007-1.1.60661765l-.0454545.02757353h-.0454546c-.2502357-.02946612-.5037794-.00758342-.7454545.06433823-.2477001.06075675-.4799975.17348935-.6818182.33088235-.2109372.14744026-.400624.32375309-.5636364.52389706-.169731.20068978-.3218226.41596656-.4545454.64338236-.2667953.46141458-.4890327.94772665-.6636364 1.45220588-.1783407.50697813-.3211187 1.02603366-.4272727 1.55330882z" fill="#f99d1c"/><path d="m27.3454545 4.95404412c.1636364-.18382353.3181819-.38602941.4636364-.57904412.1454546-.19301471.2818182-.40441176.4090909-.61580882.1275477-.21058087.2428934-.4284721.3454546-.65257353.1099955-.21764489.2071355-.44168968.2909091-.67095589l.1363636.17463236-.1272727.0367647-.1454546.05514706c-.0907831.04349812-.1788287.09261079-.2636363.14705883l-.2545455.17463235-.2272727.20220588c-.2985943.29263941-.5501144.6306647-.7454546 1.00183824l-.0727272.13786764-.0363637.07352942-.0363636.07352941-.1272727.29411764c-.0418078.09588611-.0782293.19408148-.109091.29411765l-.1090909.30330882c-.0545454.20220589-.1181818.41360295-.1818181.61580883-.0636364.20220588-.0909091.42279412-.1454546.63419117l.0545455-.64338235c.0363636-.22058823.0727272-.43198529.1181818-.65257353.0962457-.42964222.2427306-.8461751.4363636-1.24080882.1878433-.40507824.4465458-.77250188.7636364-1.08455882.1603995-.16067442.3406834-.29969565.5363636-.41360295.0940956-.06293546.1946882-.11532742.3-.15625.1083308-.04767248.2209793-.0846101.3363637-.11029411l.2272727-.04595589-.0909091.22058824c-.0961487.23583407-.2054141.46598105-.3272727.68933823-.1193736.22007262-.252998.43193105-.4.63419118-.1452754.20586358-.3031601.40232654-.4727273.5882353-.1705959.18333591-.3527981.35526697-.5454546.51470588z" fill="#ffd04f"/><g fill="#e8c6ac"><ellipse cx="34.090909" cy="13.483456" rx="1" ry="1"/><ellipse cx="32.590909" cy="14.044118" rx="1" ry="1"/><ellipse cx="33.6" cy="11.433824" rx="1" ry="1"/><ellipse cx="34.518182" cy="12.196691" rx="1" ry="1"/><ellipse cx="32.781818" cy="12.159927" rx="1" ry="1"/><ellipse cx="35.163636" cy="14.558824" rx="1" ry="1"/><ellipse cx="33.936364" cy="14.816177" rx="1" ry="1"/><ellipse cx="31.427273" cy="14.237132" rx="1" ry="1"/><ellipse cx="35.8" cy="14.126838" rx="1" ry="1"/><ellipse cx="32.881818" cy="13.042279" rx="1" ry="1"/><ellipse cx="33.463636" cy="12.454044" rx="1" ry="1"/></g><path d="m32.2272727 28.0422794-.0454545-.055147c-.8909091-1.1580883-1.8727273-3.3639706-2.3363637-4.6783089-.1306178-.3501091-.2220955-.7138899-.2727272-1.0845588l.0909091-.0919118c.0090909.0367647.6363636 2.7757353 2.5636363 5.7169118l1.4545455-2.0220588 1.3363636 1.9577206c.2545455-.4411765 1.6-2.7481618 2.4272727-4.7610294.085544-.2071829.1495251-.4228055.1909091-.6433824l.1181819.0827206c-.0636364.1746323-.1272728.4319853-.2.6066176-.9181819 2.2334559-2.4636364 4.8253677-2.4818182 4.8529412l-.0454546.0735294-1.3454545-1.9117647z" fill="#cdddc0"/><path d="m20.8 37.4540441c-.521099-.3244137-1.0882859-.5661896-1.6818182-.7169117-.0246808.037838-.0459772.0778246-.0636363.1194852.5249282.1280273 1.0297432.3290872 1.5.5974265z" fill="#cdddc0"/><path d="m22.1636364 37.4080882c-.8545455-.8547794-2.0454546-1.2224264-2.6727273-1.3602941-.0265231.0366948-.0479353.076899-.0636364.1194853.5909091.1194853 1.7545455.46875 2.6090909 1.2867647h.1z" fill="#cdddc0"/><path d="m19.8818182 35.3216912c-.0181818.0367647-.0454546.0735294-.0636364.1194853.5727273.1102941 1.8545455.4595588 2.7545455 1.3602941l.0727272-.1102941c-.9-.8915441-2.1545454-1.25-2.7636363-1.3694853z" fill="#cdddc0"/></g></g></svg>