<?xml version="1.0" encoding="UTF-8"?>
<svg width="201px" height="292px" viewBox="0 0 201 292" version="1.1" xmlns="http://www.w3.org/2000/svg" xmlns:xlink="http://www.w3.org/1999/xlink">
    <!-- Generator: Sketch 61.2 (89653) - https://sketch.com -->
    <title>Group 298</title>
    <desc>Created with Sketch.</desc>
    <defs>
        <path d="M98.1378533,0.550434783 L80.90488,0.550434783 L80.90488,27.198913 C80.90488,37.3219565 70.0340667,42.1441304 55.7731067,46.8926087 L55.7731067,46.8926087 C41.5016933,51.6365217 39.6965333,60.446087 39.6965333,60.446087 L39.6965333,60.446087 L0.373706667,150 L25.09584,150 L48.412,99.0078261 L58.0480133,150 L98.1378533,150 L138.227693,150 L147.863707,99.0078261 L171.179867,150 L195.902653,150 L156.579173,60.446087 C156.579173,60.446087 154.774013,51.6365217 140.503907,46.8926087 L140.503907,46.8926087 C126.24164,42.1441304 115.370827,37.3219565 115.370827,27.198913 L115.370827,27.198913 L115.370827,0.550434783 L98.1378533,0.550434783 Z" id="path-1"></path>
        <linearGradient x1="49.9998477%" y1="100%" x2="49.9998477%" y2="-0.000215617309%" id="linearGradient-3">
            <stop stop-color="#FDDDC8" offset="0%"></stop>
            <stop stop-color="#E9CDBA" offset="100%"></stop>
        </linearGradient>
        <polygon id="path-4" points="0.64955625 0.0197398633 16.837275 0.0197398633 16.837275 110.100228 0.64955625 110.100228"></polygon>
        <polygon id="path-6" points="0.51699375 0.0197398633 16.7047125 0.0197398633 16.7047125 110.100228 0.51699375 110.100228"></polygon>
        <polygon id="path-8" points="0.495887296 0.216392857 136.297249 0.216392857 136.297249 90.631325 0.495887296 90.631325"></polygon>
        <polygon id="path-10" points="0 0.458672171 100.310785 0.458672171 100.310785 102.982143 0 102.982143"></polygon>
        <polygon id="path-12" points="0 292 200.643831 292 200.643831 0.216392857 0 0.216392857"></polygon>
    </defs>
    <g id="Symbols" stroke="none" stroke-width="1" fill="none" fill-rule="evenodd">
        <g id="avatar-/-poppetje-3" transform="translate(0.000000, -1.000000)">
            <g id="Group-298" transform="translate(0.000000, 1.000000)">
                <g id="Group-5" transform="translate(66.000000, 166.000000)">
                    <path d="M8.1437,33.3659654 C8.1437,33.3659654 -2.86064862,16.5745423 0.785755046,12.6684654 C4.43215872,8.76238846 12.266911,1.11761923 35.3112963,0.414734615 C58.356333,-0.288803846 69.6173239,9.48423462 70.3918101,18.8061192 C71.1662963,28.1286577 8.1437,33.3659654 8.1437,33.3659654" id="Fill-1" fill="#727678"></path>
                    <path d="M12.2199468,16.2484692 C12.2199468,16.2484692 11.8284697,9.70477692 13.8490385,8.13293077 C15.8696073,6.56173846 20.7191028,4.7362 20.7191028,4.7362 L51.663378,6.1557 C51.663378,6.1557 55.2700477,5.79085385 55.6739009,8.66123846 C56.0784055,11.5303154 53.9842312,15.3337385 53.9842312,15.3337385 L12.2199468,16.2484692 Z" id="Fill-3" fill="#868E95"></path>
                </g>
                <g id="Group-8" transform="translate(2.000000, 142.000000)">
                    <mask id="mask-2" fill="white">
                        <use xlink:href="#path-1"></use>
                    </mask>
                    <g id="Clip-7"></g>
                    <path d="M98.1378533,0.550434783 L80.90488,0.550434783 L80.90488,27.198913 C80.90488,37.3219565 70.0340667,42.1441304 55.7731067,46.8926087 L55.7731067,46.8926087 C41.5016933,51.6365217 39.6965333,60.446087 39.6965333,60.446087 L39.6965333,60.446087 L0.373706667,150 L25.09584,150 L48.412,99.0078261 L58.0480133,150 L98.1378533,150 L138.227693,150 L147.863707,99.0078261 L171.179867,150 L195.902653,150 L156.579173,60.446087 C156.579173,60.446087 154.774013,51.6365217 140.503907,46.8926087 L140.503907,46.8926087 C126.24164,42.1441304 115.370827,37.3219565 115.370827,27.198913 L115.370827,27.198913 L115.370827,0.550434783 L98.1378533,0.550434783 Z" id="Fill-6" fill="url(#linearGradient-3)" mask="url(#mask-2)"></path>
                </g>
                <g id="Group-239" transform="translate(37.000000, 6.000000)">
                    <path d="M42.933975,170.899137 C42.933975,170.899137 60.7117875,195.727064 83.5236937,170.249611 L61.8018187,228.731725 L42.933975,170.899137 Z" id="Fill-9" fill="#FFFFFF"></path>
                    <path d="M125.632697,60.0488597 C125.632697,109.370504 108.010416,149.642431 62.7042281,149.642431 C17.4019781,149.642431 0.644634375,108.887757 0.644634375,59.5661125 C0.644634375,10.2353472 42.8047594,0.300918907 63.4681031,0.300918907 C84.1321031,0.300918907 125.632697,10.7180943 125.632697,60.0488597" id="Fill-11" fill="#FEDEC8"></path>
                    <path d="M40.9844531,120.072833 C47.8442344,124.201266 55.1876719,124.796719 62.6295469,124.700951 C70.1173594,124.700951 77.2908281,123.779758 84.4229531,120.072833 C81.8032031,123.138701 74.4184219,128.500386 62.6669531,128.500386 C50.9154844,128.500386 43.3718906,123.347826 40.9844531,120.072833" id="Fill-13" fill="#A59088"></path>
                    <path d="M48.5134125,91.6360938 C48.5134125,98.409538 42.9142875,103.904777 36.0171,103.904777 C29.1146625,103.904777 23.5266937,98.409538 23.5266937,91.6360938 C23.5266937,84.8619982 29.1146625,79.3693649 36.0171,79.3693649 C42.9142875,79.3693649 48.5134125,84.8619982 48.5134125,91.6360938" id="Fill-15" fill="#AAB8BA"></path>
                    <path d="M45.2991656,91.6335531 C45.2991656,96.3606966 41.4331969,100.200523 36.6740719,100.200523 C31.9096969,100.200523 28.0496344,96.3606966 28.0496344,91.6335531 C28.0496344,86.9142273 31.9096969,83.0730975 36.6740719,83.0730975 C41.4331969,83.0730975 45.2991656,86.9142273 45.2991656,91.6335531" id="Fill-17" fill="#2A1D01"></path>
                    <path d="M33.0396281,87.1966442 C33.0396281,88.5627991 31.9200656,89.6800884 30.5471906,89.6800884 C29.1690656,89.6800884 28.0495031,88.5627991 28.0495031,87.1966442 C28.0495031,85.8311408 29.1690656,84.7255781 30.5471906,84.7255781 C31.9200656,84.7255781 33.0396281,85.8311408 33.0396281,87.1966442" id="Fill-19" fill="#FFFFFF"></path>
                    <path d="M79.0799625,91.6360938 C79.0799625,98.409538 84.6790875,103.904777 91.576275,103.904777 C98.4787125,103.904777 104.066681,98.409538 104.066681,91.6360938 C104.066681,84.8619982 98.4787125,79.3693649 91.576275,79.3693649 C84.6790875,79.3693649 79.0799625,84.8619982 79.0799625,91.6360938" id="Fill-21" fill="#AAB8BA"></path>
                    <path d="M82.294275,91.6335531 C82.294275,96.3606966 86.1602437,100.200523 90.9193687,100.200523 C95.6837438,100.200523 99.5438063,96.3606966 99.5438063,91.6335531 C99.5438063,86.9142273 95.6837438,83.0730975 90.9193687,83.0730975 C86.1602437,83.0730975 82.294275,86.9142273 82.294275,91.6335531" id="Fill-23" fill="#2A1D01"></path>
                    <path d="M82.7822625,87.1966442 C82.7822625,88.5627991 83.9024813,89.6800884 85.2747,89.6800884 C86.652825,89.6800884 87.7723875,88.5627991 87.7723875,87.1966442 C87.7723875,85.8311408 86.652825,84.7255781 85.2747,84.7255781 C83.9024813,84.7255781 82.7822625,85.8311408 82.7822625,87.1966442" id="Fill-25" fill="#FFFFFF"></path>
                    <path d="M37.8583406,126.898786 C38.0788406,125.846645 38.4292781,124.852486 38.8249969,123.883082 C39.2213719,122.913028 39.6636844,121.965775 40.1598094,121.046536 C40.6513406,120.124691 41.1973406,119.231511 41.7886219,118.36439 C42.3785906,117.496618 43.0197469,116.658162 43.7744344,115.888764 C43.4935594,116.927224 43.1050594,117.899884 42.6857156,118.854955 C42.2637469,119.809374 41.8129031,120.746203 41.3174344,121.658928 C40.8265594,122.574258 40.2963094,123.469392 39.7312781,124.347588 C39.1662469,125.226436 38.5657781,126.085738 37.8583406,126.898786" id="Fill-27" fill="#E4C8B6"></path>
                    <path d="M87.5907375,126.898786 C86.938425,126.194536 86.3904562,125.445985 85.8785812,124.677237 C85.3667062,123.909142 84.8883,123.124759 84.4512375,122.318226 C84.008925,121.514299 83.61255,120.686267 83.2463625,119.839342 C82.8821437,118.991766 82.5513938,118.123994 82.3308938,117.191725 C83.0258625,117.855584 83.6073,118.586545 84.1414875,119.34552 C84.6763313,120.103192 85.1672062,120.886923 85.6062375,121.699971 C86.0472375,122.510413 86.4390188,123.347565 86.78355,124.208823 C87.1261125,125.069429 87.4253625,125.954791 87.5907375,126.898786" id="Fill-29" fill="#E4C8B6"></path>
                    <path d="M74.3833781,134.926461 C72.5373469,135.508885 70.6263469,135.887395 68.7009094,136.131049 C66.7741594,136.376005 64.8290344,136.454835 62.8885031,136.45288 C60.9473156,136.413791 59.0074406,136.292616 57.0839719,136.041144 C56.1232219,135.912803 55.1650969,135.762311 54.2128781,135.584456 C53.7377531,135.48934 53.2639406,135.388361 52.7920969,135.280215 L52.0859719,135.110179 L51.7348781,135.016365 L51.5603156,134.966853 L51.4730344,134.941445 C51.4559719,134.939491 51.3824719,134.910174 51.4389094,134.926461 L52.1004094,135.042425 L52.8150656,135.159691 C53.2928156,135.234611 53.7705656,135.301062 54.2496281,135.360999 C55.2051281,135.493249 56.1639094,135.603349 57.1240031,135.688693 C59.0435344,135.865245 60.9676594,135.989026 62.8930969,135.992283 C64.8185344,136.032024 66.7439719,135.947331 68.6628469,135.779901 C69.6222844,135.698466 70.5790969,135.583805 71.5319719,135.43657 C72.4874719,135.304971 73.4350969,135.121254 74.3833781,134.926461" id="Fill-31" fill="#E4C8B6"></path>
                    <path d="M51.6578344,182.771525 L49.7061469,181.123279 L37.9093969,175.617616 C37.9093969,175.617616 10.8554906,186.4348 7.74158438,188.391197 L15.1677094,217.524759 L13.0165219,239.688131 L21.4270219,285.999935 L63.7932094,285.999935 L63.7932094,207.742778 L51.6578344,182.771525 Z" id="Fill-33" fill="#B3CCDB"></path>
                    <path d="M63.8135531,239.310337 C53.5813031,239.878428 33.0072094,241.094743 28.5171469,241.922123 L28.3543969,246.906601 C34.9241156,246.003649 53.2485844,244.976916 63.8135531,244.434884 L63.8135531,239.310337 Z" id="Fill-35" fill="#E9EEF2"></path>
                    <path d="M52.85175,185.227933 L52.85175,185.227933 C44.03175,188.080115 24.5083125,194.497199 20.3654062,196.731778 L21.7625625,201.522766 C28.0973437,198.470579 45.8856563,192.236561 54.7719375,189.178511 L52.85175,185.227933 Z" id="Fill-37" fill="#E9EEF2"></path>
                    <path d="M63.8135531,228.798241 C55.7633344,229.543535 32.6646469,231.763129 27.8110219,233.134496 L28.1188031,238.11246 C35.1662719,236.464865 54.7671469,234.163184 63.8135531,233.14948 L63.8135531,228.798241 Z" id="Fill-39" fill="#E9EEF2"></path>
                    <path d="M52.4182312,285.373992 L58.3422,285.373992 C58.3422,285.373992 56.00595,212.181446 49.419825,181.006143 L43.40595,178.198913 C46.4082937,188.8415 50.5407,216.013455 52.4182312,285.373992" id="Fill-41" fill="#CCD8E0"></path>
                    <path d="M38.6385562,286 C37.821525,265.434059 34.7122125,199.499658 27.7881188,179.699207 C26.2019625,180.346779 24.5318063,181.032788 22.8577125,181.724661 C25.7760563,189.272715 30.5614313,212.795727 32.7644625,286 L38.6385562,286 Z" id="Fill-43" fill="#CCD8E0"></path>
                    <g id="Group-47" transform="translate(31.500000, 175.899772)">
                        <mask id="mask-5" fill="white">
                            <use xlink:href="#path-4"></use>
                        </mask>
                        <g id="Clip-46"></g>
                        <path d="M5.62065,0.0197398633 C4.67105625,0.400856036 2.8893375,1.11748474 0.64955625,2.02434579 C3.56986875,8.8440451 8.70436875,31.9455485 10.936275,110.100423 L16.837275,110.100423 C16.2420562,94.0394711 13.1235562,20.0136806 5.62065,0.0197398633" id="Fill-45" fill="#CCD8E0" mask="url(#mask-5)"></path>
                    </g>
                    <path d="M63.7930125,212.072844 C63.61845,210.238274 63.4032,208.422598 63.2161687,206.627117 L56.3951062,192.589664 C58.6532625,208.917072 60.9153562,236.429099 62.1701062,282.783249 L63.7588875,282.783249 L63.7930125,212.072844 Z" id="Fill-48" fill="#CCD8E0"></path>
                    <path d="M46.9054688,176.823572 C46.9054688,176.823572 22.913625,185.442009 17.6183438,188.519604 L19.1684063,193.263034 C27.6156563,188.859677 49.7824687,180.310296 49.7824687,180.310296 L46.9054688,176.823572 Z" id="Fill-50" fill="#E9EEF2"></path>
                    <path d="M57.5083031,194.812451 C49.9063031,196.860054 27.1587094,203.068665 22.5721781,205.265457 L23.7350531,210.117685 C30.7956469,207.124132 51.5502094,201.032136 59.4245531,198.756514 L57.5083031,194.812451 Z" id="Fill-52" fill="#E9EEF2"></path>
                    <path d="M62.2238531,204.51404 C54.2464781,206.338837 29.5675406,212.03799 24.7585406,213.81132 L25.4581031,218.750846 C32.6558531,216.463497 63.7929469,209.423598 63.7929469,209.423598 L63.7929469,207.742778 L62.2238531,204.51404 Z" id="Fill-54" fill="#E9EEF2"></path>
                    <path d="M63.7609875,217.524564 C55.3419562,218.680942 30.7575187,222.115548 25.8697687,223.44066 L26.1237375,228.421881 C33.1666125,226.853115 54.0268312,223.998327 63.7931437,222.696669 L63.7609875,217.524564 Z" id="Fill-56" fill="#E9EEF2"></path>
                    <path d="M46.9808063,197.697011 C47.1671813,199.138087 47.3529,200.657339 47.5379625,202.260633 C49.2744,201.738797 50.951775,201.239112 52.5182438,200.77656 C52.3344938,199.261216 52.1454938,197.777144 51.9512438,196.32369 C50.4175875,196.743244 48.7382438,197.207098 46.9808063,197.697011" id="Fill-58" fill="#F2F6F9"></path>
                    <path d="M48.1375125,207.78799 C48.3028875,209.414086 48.4676063,211.10989 48.6310125,212.883221 C50.3687625,212.478 52.07895,212.083202 53.7182625,211.706646 C53.5469812,209.984783 53.3697938,208.281813 53.1867,206.601644 C51.5762625,206.977549 49.876575,207.376255 48.1375125,207.78799" id="Fill-60" fill="#F2F6F9"></path>
                    <path d="M37.5661125,205.327739 C39.1988625,204.811766 40.869675,204.292536 42.5358937,203.780472 C42.3403312,202.192814 42.1395187,200.635775 41.9328,199.117174 C40.2724875,199.588846 38.6023312,200.07029 36.9708938,200.546523 C37.1697375,202.050791 37.3685812,203.641056 37.5661125,205.327739" id="Fill-62" fill="#F2F6F9"></path>
                    <path d="M26.7889125,199.354964 C28.2766312,198.755602 29.9225062,198.115848 31.66485,197.453292 C31.4069437,195.772472 31.1418187,194.150937 30.8681625,192.602368 C29.1081,193.225835 27.4550062,193.825848 25.9830375,194.379607 C26.2501313,195.892996 26.5185375,197.547106 26.7889125,199.354964" id="Fill-64" fill="#F2F6F9"></path>
                    <path d="M35.5101469,190.985653 C35.7680531,192.431289 36.0279281,194.007221 36.2891156,195.727129 C37.9041469,195.132979 39.5500219,194.535571 41.1827719,193.94989 C40.9340531,192.345945 40.6781156,190.801284 40.4149594,189.32112 C38.7835219,189.869015 37.1323969,190.428637 35.5101469,190.985653" id="Fill-66" fill="#F2F6F9"></path>
                    <path d="M49.2068063,219.576337 C49.3387125,221.209599 49.4693063,222.898237 49.5979313,224.643554 C51.3849,224.390779 53.1443062,224.145171 54.8302125,223.911289 C54.6891187,222.214182 54.542775,220.51903 54.3918375,218.831695 C52.73415,219.068182 50.9872125,219.318351 49.2068063,219.576337" id="Fill-68" fill="#F2F6F9"></path>
                    <path d="M45.5439469,235.34927 C45.4271344,233.791579 45.3070406,232.230632 45.1823531,230.667078 C43.3875094,230.865128 41.6110406,231.067739 39.9106969,231.271001 C40.0196344,232.826737 40.1272594,234.426122 40.2329156,236.068504 C41.9555719,235.826154 43.7425406,235.584454 45.5439469,235.34927" id="Fill-70" fill="#F2F6F9"></path>
                    <path d="M60.1189312,233.567926 C61.4557125,233.414177 62.6815875,233.275411 63.7604625,233.153585 L63.7604625,228.802345 C62.6901188,228.900719 61.3579312,229.025803 59.8433062,229.171083 C59.9364937,230.601735 60.0283687,232.068218 60.1189312,233.567926" id="Fill-72" fill="#F2F6F9"></path>
                    <path d="M58.4138625,210.635026 C60.3511125,210.195277 62.0816437,209.806343 63.5030812,209.487769 C63.4085812,208.532698 63.3199875,207.511176 63.2222062,206.567832 L62.195175,204.519577 C61.0624875,204.778867 59.6056125,205.113076 57.9210187,205.50201 C58.0863937,207.139181 58.2511125,208.849969 58.4138625,210.635026" id="Fill-74" fill="#F2F6F9"></path>
                    <path d="M50.2812187,234.744891 C52.1121562,234.516221 53.909625,234.297975 55.6204687,234.094713 C55.5128437,232.606732 55.4012812,231.112887 55.2857812,229.614481 C53.5992187,229.781912 51.8109375,229.963023 49.9845937,230.153256 C50.085,231.647101 50.1840937,233.174823 50.2812187,234.744891" id="Fill-76" fill="#F2F6F9"></path>
                    <path d="M38.1060094,210.203681 C38.2753219,211.817398 38.4433219,213.50343 38.6100094,215.268291 C40.2604781,214.865676 41.9654156,214.455895 43.6847906,214.047416 C43.5102281,212.335977 43.3304156,210.644733 43.1446969,208.978246 C41.4377906,209.38933 39.7426969,209.801066 38.1060094,210.203681" id="Fill-78" fill="#F2F6F9"></path>
                    <path d="M44.74155,225.341029 C44.5965188,223.653042 44.4468938,221.970919 44.2920188,220.29922 C42.5398313,220.559812 40.8020813,220.822359 39.1279875,221.081648 C39.2644875,222.701229 39.3990188,224.380095 39.5328938,226.114988 C41.2273313,225.858304 42.97755,225.598364 44.74155,225.341029" id="Fill-80" fill="#F2F6F9"></path>
                    <path d="M32.9470312,206.814548 C32.741625,205.150667 32.5309687,203.518708 32.31375,201.932352 C30.5090625,202.480899 28.8323437,203.005992 27.3702187,203.487436 C27.5789062,205.057505 27.7869375,206.725295 27.9943125,208.496671 C29.4859687,207.96832 31.15875,207.401532 32.9470312,206.814548" id="Fill-82" fill="#F2F6F9"></path>
                    <path d="M45.9095437,240.389971 C44.0667937,240.511798 42.2516062,240.638185 40.5243562,240.763921 C40.6214813,242.399137 40.71795,244.072139 40.8117937,245.788791 C42.5698875,245.666313 44.4001687,245.545137 46.2527625,245.427219 C46.1425125,243.763989 46.028325,242.083169 45.9095437,240.389971" id="Fill-84" fill="#F2F6F9"></path>
                    <path d="M45.4721531,187.63789 C45.7156219,189.024241 45.9617156,190.528509 46.2084656,192.16112 C47.9317781,191.553288 49.5842156,190.975425 51.1093406,190.44512 C50.8744031,188.918049 50.6322469,187.445051 50.3835281,186.028081 C48.8938406,186.512783 47.2309031,187.057421 45.4721531,187.63789" id="Fill-86" fill="#F2F6F9"></path>
                    <path d="M44.4477469,182.401875 C46.3357781,181.653323 47.8464656,181.062431 48.7730906,180.70151 L43.4082469,178.19787 C43.7422781,179.38161 44.0900906,180.772522 44.4477469,182.401875" id="Fill-88" fill="#F2F6F9"></path>
                    <path d="M59.0537719,218.175393 C59.1843656,219.822336 59.3129906,221.522701 59.4396469,223.281047 C61.0290844,223.065407 62.5207406,222.866705 63.7932094,222.696669 L63.7932094,217.524564 C62.5423969,217.696555 60.8998031,217.917407 59.0537719,218.175393" id="Fill-90" fill="#F2F6F9"></path>
                    <path d="M56.7226406,195.024898 C56.9011406,196.405386 57.0796406,197.856885 57.2574844,199.38591 C58.0443281,199.15724 58.7622656,198.948115 59.3988281,198.764397 L57.4819219,194.820333 C57.2430469,194.884179 56.9897344,194.953236 56.7226406,195.024898" id="Fill-92" fill="#F2F6F9"></path>
                    <path d="M34.6081313,186.380728 C36.2691,185.694067 37.9064438,185.025648 39.4571625,184.398923 C39.1132875,182.796933 38.7589125,181.310254 38.3920688,179.95322 C36.84135,180.532386 35.1784125,181.160413 33.4826625,181.809939 C33.8429438,183.079024 34.2202875,184.589807 34.6081313,186.380728" id="Fill-94" fill="#F2F6F9"></path>
                    <path d="M25.2229687,190.392676 C26.74875,189.710575 28.37625,189.003719 30.0450937,188.293605 C29.6920312,186.587377 29.3245312,185.01796 28.9465312,183.571673 C27.244875,184.24335 25.5930937,184.909163 24.079125,185.539796 C24.446625,186.893573 24.829875,188.496867 25.2229687,190.392676" id="Fill-96" fill="#F2F6F9"></path>
                    <path d="M35.0199281,226.818978 C34.8722719,225.139461 34.7206781,223.465807 34.5638344,221.805183 C32.6272406,222.121151 30.8776781,222.42018 29.4208031,222.689893 C29.5605844,224.298399 29.6983969,225.96619 29.8342406,227.693916 C31.3665844,227.41834 33.1200844,227.123871 35.0199281,226.818978" id="Fill-98" fill="#F2F6F9"></path>
                    <path d="M35.832825,236.715881 C35.7081375,235.090436 35.5782,233.461735 35.4449812,231.833685 C33.4119187,232.105352 31.6183875,232.371808 30.2061375,232.622628 C30.32295,234.236997 30.4377938,235.894364 30.551325,237.606455 C32.0712,237.319152 33.864075,237.019471 35.832825,236.715881" id="Fill-100" fill="#F2F6F9"></path>
                    <path d="M34.0284656,216.405451 C33.8519344,214.700526 33.6701531,213.019054 33.4824656,211.361036 C31.6016531,211.839874 29.8940906,212.289396 28.4614969,212.684845 C28.6321219,214.292047 28.8020906,215.96961 28.9700906,217.729259 C30.4597781,217.322084 32.1712781,216.87582 34.0284656,216.405451" id="Fill-102" fill="#F2F6F9"></path>
                    <path d="M36.1587187,241.101909 C34.0639688,241.274551 32.2317188,241.443936 30.807,241.605503 C30.9074063,243.22313 31.0058438,244.885708 31.1029688,246.586073 C32.6582813,246.427763 34.4925,246.266847 36.5104687,246.108538 C36.3975937,244.451822 36.280125,242.781426 36.1587187,241.101909" id="Fill-104" fill="#F2F6F9"></path>
                    <path d="M56.0173688,239.756341 C54.2691188,239.859926 52.4440875,239.971329 50.5980563,240.087293 C50.6912438,241.733585 50.7831188,243.418965 50.873025,245.145389 C52.73415,245.035288 54.5762438,244.929749 56.3494313,244.832026 C56.243775,243.159676 56.1328687,241.466477 56.0173688,239.756341" id="Fill-106" fill="#F2F6F9"></path>
                    <path d="M63.7606594,239.31164 C62.7520031,239.367667 61.6442531,239.43021 60.4616906,239.497312 C60.5529094,241.156633 60.6421594,242.856346 60.7300969,244.594497 C61.7932219,244.537818 62.8077844,244.485048 63.7606594,244.436187 L63.7606594,239.31164 Z" id="Fill-108" fill="#F2F6F9"></path>
                    <path d="M45.1366781,167.484597 C45.1366781,167.484597 42.9028031,168.444879 42.7682719,170.249481 C42.6337406,172.055385 51.8435531,182.348128 51.6578344,182.77159 C51.6578344,182.77159 50.9018344,181.451039 49.6654594,185.026364 C48.1882406,189.298774 45.6268969,195.089134 45.6268969,195.089134 C45.6268969,195.089134 34.6891781,180.242542 34.6898344,176.913476 C34.6898344,176.146032 40.1465531,168.366702 45.4680844,166.379034 C45.4680844,166.379034 45.3742406,166.74256 45.2954906,167.003804 C45.2167406,167.264396 45.1366781,167.484597 45.1366781,167.484597" id="Fill-110" fill="#B3CCDB"></path>
                    <path d="M49.9691719,184.238594 C48.1467656,181.853523 41.3532656,172.900877 40.7094844,171.156863 C40.5631406,170.760763 40.5532969,170.147719 40.6248281,169.5451 C39.6319219,170.434371 38.7072656,171.397911 37.8954844,172.328877 C38.0536406,172.760157 38.2839844,173.299583 38.6383594,173.978426 C39.7356094,176.079451 46.1609531,184.93633 48.5109844,188.154644 C48.9237656,187.094685 49.3240781,186.024954 49.6659844,185.036658 C49.7709844,184.732416 49.8713906,184.475082 49.9691719,184.238594" id="Fill-112" fill="#E9EEF2"></path>
                    <path d="M47.1403406,191.553744 C44.7102469,188.08005 37.0931531,177.12866 36.4677469,175.436765 C36.3548719,175.130569 36.3240281,174.692774 36.3476531,174.231526 C35.3153719,175.600938 34.6899656,176.664154 34.6899656,176.923444 C34.6886531,180.25251 45.6270281,195.099102 45.6270281,195.099102 C45.6270281,195.099102 46.2924656,193.59353 47.1403406,191.553744" id="Fill-114" fill="#E9EEF2"></path>
                    <path d="M47.4668906,177.323583 C46.7102344,176.373724 45.9457031,175.397155 45.2572969,174.476613 C44.9961094,174.513747 44.6181094,174.630362 44.1331406,174.952194 C43.5293906,175.353506 40.3892344,180.571866 38.4007969,184.527656 C39.2539219,185.887948 40.1680781,187.276904 41.0533594,188.58638 C42.1788281,186.035182 45.5066719,178.764658 47.4668906,177.323583" id="Fill-116" fill="#CCD8E0"></path>
                    <path d="M49.6657219,185.026234 C50.9020969,181.45156 51.6580969,182.77146 51.6580969,182.77146 C51.7125656,182.647678 50.9552531,181.670457 49.8652219,180.310166 L49.7825344,180.310817 C49.7825344,180.310817 49.0849406,180.181173 48.2908781,181.268494 C47.6890969,182.093268 44.8626281,188.224353 43.4602219,192.070694 C44.7340031,193.87725 45.6271594,195.089004 45.6271594,195.089004 C45.6271594,195.089004 48.1885031,189.299296 49.6657219,185.026234" id="Fill-118" fill="#CCD8E0"></path>
                    <path d="M34.6898344,176.913281 C34.6898344,177.564761 35.1118031,178.6599 35.7844594,179.994133 C37.7289281,177.263777 41.3179594,172.590055 43.5045844,171.956164 C43.0281469,171.182857 42.7439906,170.576328 42.7682719,170.249285 C42.8069906,169.734615 43.0183031,169.290957 43.2978656,168.916356 C43.1009906,168.72026 42.6370219,168.353477 42.0063656,168.387354 C38.0150531,171.441495 34.6898344,176.313918 34.6898344,176.913281" id="Fill-120" fill="#CCD8E0"></path>
                    <path d="M38.6350781,173.970803 C38.7958594,174.279605 39.0819844,174.745414 39.4422656,175.305687 C40.2277969,174.414462 41.0238281,173.602717 41.7680156,172.990325 C41.2233281,172.157733 40.8367969,171.502995 40.7062031,171.149241 C40.5598594,170.75314 40.5493594,170.140097 40.6215469,169.537477 C39.6279844,170.426749 38.7033281,171.390288 37.8922031,172.321254 C38.0497031,172.752534 38.2807031,173.29196 38.6350781,173.970803" id="Fill-122" fill="#F2F6F9"></path>
                    <path d="M48.0334312,181.681663 C47.6587125,182.355294 47.035275,183.637408 46.3389937,185.162524 C47.1993375,186.352779 47.9625562,187.40036 48.5046187,188.143699 C48.5800875,187.948907 48.6562125,187.754114 48.731025,187.559321 C48.741525,187.531308 48.752025,187.504597 48.7631812,187.475932 C48.9508687,186.985367 49.13265,186.497408 49.3059,186.019221 C49.355775,185.883062 49.4036812,185.748856 49.4515875,185.614651 C49.5231187,185.413995 49.59465,185.213991 49.6622437,185.018547 C49.7665875,184.717563 49.8656812,184.462834 49.9628062,184.226998 C49.5401812,183.674542 48.8498062,182.76703 48.0334312,181.681663" id="Fill-124" fill="#F2F6F9"></path>
                    <path d="M37.6311469,177.501112 C37.0188656,176.518027 36.5929594,175.776642 36.4643344,175.428752 C36.3514594,175.123207 36.3206156,174.685412 36.3442406,174.224164 C35.4432094,175.419631 34.8525844,176.380565 34.7167406,176.77862 C34.7128031,176.789695 34.7128031,176.796861 34.7095219,176.807285 C34.6970531,176.848328 34.6872094,176.888068 34.6865531,176.913476 C34.6872094,176.925203 34.6891781,176.940187 34.6898344,176.952565 C34.6911469,177.031394 34.6996781,177.118041 34.7128031,177.2099 C34.7219906,177.269185 34.7344594,177.331727 34.7475844,177.395572 C34.7574281,177.440524 34.7672719,177.487431 34.7790844,177.534989 C34.8007406,177.622938 34.8243656,177.712843 34.8538969,177.809262 C34.8558656,177.815125 34.8578344,177.822292 34.8598031,177.828806 C35.0428969,178.423608 35.3631469,179.158478 35.7811781,179.98651 C36.2996156,179.258806 36.9368344,178.391686 37.6311469,177.501112" id="Fill-126" fill="#F2F6F9"></path>
                    <path d="M44.9280563,188.372695 C44.3781188,189.671096 43.8583688,190.961027 43.4567438,192.062681 C44.730525,193.869888 45.6236813,195.081642 45.6236813,195.081642 C45.6236813,195.081642 46.2878062,193.578677 47.1343687,191.542148 C46.6034625,190.783825 45.82515,189.667838 44.9280563,188.372695" id="Fill-128" fill="#F2F6F9"></path>
                    <path d="M41.6263313,183.550826 L41.1203625,182.803578 L41.116425,182.80879 C40.77255,182.299983 40.4352375,181.797692 40.1064563,181.305824 C39.5027063,182.391842 38.911425,183.498056 38.3975813,184.519578 C39.25005,185.879869 40.1648625,187.269477 41.0494875,188.578954 C41.405175,187.773072 41.9807063,186.49617 42.66255,185.082457 C42.3167063,184.576256 41.9688938,184.066147 41.62305,183.556689 L41.6263313,183.550826 Z" id="Fill-130" fill="#F2F6F9"></path>
                    <path d="M43.5687656,175.609016 C43.0975781,176.263754 42.4177031,177.33544 41.6669531,178.595404 L44.1593906,182.127732 C44.7808594,180.966793 45.4193906,179.868397 46.0231406,178.988246 C45.1910156,177.861836 44.3411719,176.695686 43.5687656,175.609016" id="Fill-132" fill="#F2F6F9"></path>
                    <path d="M35.0493937,178.417875 C35.6892375,179.935825 36.5535187,181.34172 37.4158312,182.741101 C38.2984875,184.130709 39.2133,185.498167 40.1327062,186.86367 C41.9833312,189.586208 43.9212375,192.252718 45.8558625,194.914016 L45.3558,194.977862 C46.5803625,191.857269 47.8141125,188.743192 49.1148,185.648659 C49.4488313,184.876654 49.7808938,184.108559 50.1529875,183.34372 C50.2448625,183.151533 50.3505188,182.96065 50.4555188,182.763251 C50.6274563,182.49875 50.7888938,182.321547 51.1242375,182.229037 C51.2883,182.181479 51.52455,182.209492 51.6781125,182.326108 C51.7562063,182.38018 51.8178937,182.444677 51.8658,182.511779 C51.915675,182.578882 51.9543938,182.670089 51.9701437,182.702663 L52.2418313,183.2688 L54.414675,187.799196 C55.874175,190.814249 57.2805188,193.854057 58.7098313,196.884745 C60.1384875,199.914782 61.5323625,202.961105 62.9183625,206.012641 C61.381425,203.03342 59.853675,200.048335 58.36005,197.047615 C56.8670813,194.045593 55.3511438,191.053994 53.8890188,188.03829 L51.6781125,183.520923 L51.4018313,182.956741 C51.3716437,182.895502 51.3703313,182.888335 51.35655,182.871397 C51.3440813,182.853807 51.3303,182.84208 51.3217688,182.836868 C51.30405,182.827096 51.311925,182.828399 51.2732063,182.834914 C51.2377688,182.844686 51.1760813,182.873351 51.1143937,182.92547 C51.0474563,182.973028 51.0487688,183.036221 51.0015188,183.082477 C50.9122688,183.25577 50.8151438,183.432322 50.7285187,183.618645 C50.3715187,184.362636 50.0499563,185.137246 49.7165813,185.902085 C48.3968625,188.973816 47.1375187,192.080076 45.8906437,195.185684 L45.6963938,195.669082 L45.3905812,195.249529 C43.4493937,192.577155 41.6171437,189.834422 39.8150812,187.070841 C38.9186437,185.685793 38.05305,184.281201 37.2274875,182.853155 C36.4170187,181.418595 35.6006437,179.972959 35.0493937,178.417875" id="Fill-134" fill="#759AAC"></path>
                    <path d="M74.6339344,182.771525 L76.5856219,181.123279 L88.3823719,175.617616 C88.3823719,175.617616 115.436278,186.4348 118.550184,188.391197 L111.124059,217.524759 L113.275247,239.688131 L104.865403,285.999935 L62.4985594,285.999935 L62.4985594,207.742778 L74.6339344,182.771525 Z" id="Fill-136" fill="#B3CCDB"></path>
                    <path d="M62.4782813,239.310337 C72.7105313,239.878428 93.284625,241.094743 97.7746875,241.922123 L97.9374375,246.906601 C91.3677188,246.003649 73.04325,244.976916 62.4782813,244.434884 L62.4782813,239.310337 Z" id="Fill-138" fill="#E9EEF2"></path>
                    <path d="M73.4400188,185.227933 L73.4400188,185.227933 C82.2600188,188.080115 101.783456,194.497199 105.926362,196.731778 L104.529206,201.522766 C98.194425,198.470579 80.4061125,192.236561 71.5198313,189.178511 L73.4400188,185.227933 Z" id="Fill-140" fill="#E9EEF2"></path>
                    <path d="M62.4782813,228.798241 C70.5285,229.543535 93.6271875,231.763129 98.4808125,233.134496 L98.1730312,238.11246 C91.1255625,236.464865 71.5246875,234.163184 62.4782813,233.14948 L62.4782813,228.798241 Z" id="Fill-142" fill="#E9EEF2"></path>
                    <path d="M73.8735375,285.373992 L67.9495687,285.373992 C67.9495687,285.373992 70.2858187,212.181446 76.8719437,181.006143 L82.8858188,178.198913 C79.8841312,188.8415 75.7510687,216.013455 73.8735375,285.373992" id="Fill-144" fill="#CCD8E0"></path>
                    <path d="M87.6532125,286 C88.4702437,265.433408 91.5795562,199.499658 98.50365,179.699207 C100.089806,180.347431 101.759962,181.032788 103.434056,181.724661 C100.515712,189.272715 95.7303375,212.795727 93.5273062,286 L87.6532125,286 Z" id="Fill-146" fill="#CCD8E0"></path>
                    <g id="Group-150" transform="translate(77.437500, 175.899772)">
                        <mask id="mask-7" fill="white">
                            <use xlink:href="#path-6"></use>
                        </mask>
                        <g id="Clip-149"></g>
                        <path d="M11.7336188,0.0197398633 C12.6832125,0.400856036 14.4649313,1.11748474 16.7047125,2.02499727 C13.7844,8.8440451 8.65055625,31.9455485 6.41799375,110.100423 L0.51699375,110.100423 C1.1122125,94.0394711 4.2307125,20.0136806 11.7336188,0.0197398633" id="Fill-148" fill="#CCD8E0" mask="url(#mask-7)"></path>
                    </g>
                    <path d="M62.4987562,212.072844 C62.6733187,210.238274 62.8885687,208.422598 63.0756,206.627117 L69.8966625,192.589664 C67.6385062,208.917072 65.3764125,236.429099 64.1216625,282.782598 L62.5335375,282.782598 L62.4987562,212.072844 Z" id="Fill-151" fill="#CCD8E0"></path>
                    <path d="M79.3866281,176.823572 C79.3866281,176.823572 103.378472,185.442009 108.673753,188.519604 L107.123691,193.263686 C98.6764406,188.859677 76.5096281,180.310296 76.5096281,180.310296 L79.3866281,176.823572 Z" id="Fill-153" fill="#E9EEF2"></path>
                    <path d="M68.7837937,194.812451 C76.3857937,196.860054 99.1327313,203.068665 103.719919,205.265457 L102.557044,210.117685 C95.49645,207.124132 74.7412312,201.032136 66.8668875,198.756514 L68.7837937,194.812451 Z" id="Fill-155" fill="#E9EEF2"></path>
                    <path d="M64.0679156,204.51404 C72.0452906,206.338837 96.7248844,212.03799 101.533884,213.81132 L100.833666,218.750846 C93.6359156,216.463497 62.4988219,209.423598 62.4988219,209.423598 L62.4988219,207.742778 L64.0679156,204.51404 Z" id="Fill-157" fill="#E9EEF2"></path>
                    <path d="M62.5308469,217.524564 C70.9498781,218.680942 95.5349719,222.115548 100.422066,223.44066 L100.168097,228.422532 C93.1252219,226.853115 72.2650031,223.998327 62.4986906,222.696669 L62.5308469,217.524564 Z" id="Fill-159" fill="#E9EEF2"></path>
                    <path d="M79.3110281,197.697011 C79.1246531,199.138087 78.9389344,200.657339 78.7538719,202.260633 C77.0174344,201.738797 75.3400594,201.239112 73.7735906,200.77656 C73.9573406,199.261216 74.1463406,197.777144 74.3405906,196.32369 C75.8742469,196.743244 77.5535906,197.207098 79.3110281,197.697011" id="Fill-161" fill="#F2F6F9"></path>
                    <path d="M78.1545844,207.78799 C77.9885531,209.414086 77.8238344,211.10989 77.6610844,212.883221 C75.9226781,212.478 74.2131469,212.083202 72.5731781,211.706646 C72.7451156,209.984783 72.9223031,208.281813 73.1053969,206.601644 C74.7151781,206.977549 76.4155219,207.376255 78.1545844,207.78799" id="Fill-163" fill="#F2F6F9"></path>
                    <path d="M88.7257219,205.327739 C87.0929719,204.811766 85.4221594,204.292536 83.7559406,203.780472 C83.9515031,202.192814 84.1523156,200.635775 84.3590344,199.117174 C86.0193469,199.588846 87.6895031,200.07029 89.3209406,200.546523 C89.1220969,202.050791 88.9239094,203.641056 88.7257219,205.327739" id="Fill-165" fill="#F2F6F9"></path>
                    <path d="M99.5028563,199.354964 C98.0157938,198.755602 96.3692625,198.115848 94.6269187,197.453292 C94.884825,195.772472 95.14995,194.150937 95.4236062,192.602368 C97.1836687,193.225835 98.8367625,193.825848 100.308731,194.379607 C100.041638,195.892996 99.7732313,197.547106 99.5028563,199.354964" id="Fill-167" fill="#F2F6F9"></path>
                    <path d="M90.7816219,190.985653 C90.5237156,192.431289 90.2638406,194.007221 90.0026531,195.727129 C88.3876219,195.132979 86.7424031,194.535571 85.1089969,193.94989 C85.3577156,192.345945 85.6136531,190.801284 85.8768094,189.32112 C87.5082469,189.869015 89.1593719,190.428637 90.7816219,190.985653" id="Fill-169" fill="#F2F6F9"></path>
                    <path d="M77.0849625,219.576337 C76.9530563,221.209599 76.8224625,222.898237 76.6938375,224.643554 C74.9068688,224.390779 73.1474625,224.145171 71.4615563,223.911289 C71.60265,222.214182 71.7489938,220.51903 71.8999312,218.831695 C73.5576188,219.068182 75.3045563,219.318351 77.0849625,219.576337" id="Fill-171" fill="#F2F6F9"></path>
                    <path d="M80.7478219,235.34927 C80.8646344,233.791579 80.9853844,232.230632 81.1094156,230.667078 C82.9042594,230.865128 84.6807281,231.067739 86.3810719,231.271001 C86.2721344,232.826737 86.1651656,234.426122 86.0588531,236.068504 C84.3361969,235.826154 82.5492281,235.584454 80.7478219,235.34927" id="Fill-173" fill="#F2F6F9"></path>
                    <path d="M66.1729031,233.567926 C64.8361219,233.414177 63.6102469,233.275411 62.5313719,233.153585 L62.5313719,228.802345 C63.6017156,228.900719 64.9345594,229.025803 66.4485281,229.171083 C66.3553406,230.601735 66.2634656,232.068218 66.1729031,233.567926" id="Fill-175" fill="#F2F6F9"></path>
                    <path d="M67.8779063,210.635026 C65.9406563,210.195277 64.210125,209.806343 62.7886875,209.487769 C62.8831875,208.532698 62.9717812,207.511176 63.0702187,206.567832 L64.0965937,204.519577 C65.2292812,204.778867 66.6868125,205.113076 68.37075,205.50201 C68.205375,207.139181 68.0406563,208.849969 67.8779063,210.635026" id="Fill-177" fill="#F2F6F9"></path>
                    <path d="M76.01055,234.744891 C74.1796125,234.516221 72.3821438,234.297975 70.6713,234.094713 C70.778925,232.606732 70.8904875,231.112887 71.0059875,229.614481 C72.69255,229.781912 74.4808313,229.963023 76.307175,230.153256 C76.2067688,231.647101 76.107675,233.174823 76.01055,234.744891" id="Fill-179" fill="#F2F6F9"></path>
                    <path d="M88.1857594,210.203681 C88.0164469,211.817398 87.8484469,213.50343 87.6817594,215.268291 C86.0312906,214.865676 84.3263531,214.455895 82.6069781,214.047416 C82.7815406,212.335977 82.9613531,210.644733 83.1470719,208.978246 C84.8539781,209.38933 86.5490719,209.801066 88.1857594,210.203681" id="Fill-181" fill="#F2F6F9"></path>
                    <path d="M81.5502188,225.341029 C81.69525,223.653042 81.844875,221.970919 81.99975,220.29922 C83.7519375,220.559812 85.4896875,220.822359 87.1637812,221.081648 C87.0272813,222.701229 86.89275,224.380095 86.758875,226.114988 C85.0650938,225.858304 83.3142188,225.598364 81.5502188,225.341029" id="Fill-183" fill="#F2F6F9"></path>
                    <path d="M93.3450656,206.814548 C93.5498156,205.150667 93.7611281,203.518708 93.9783469,201.932352 C95.7830344,202.480899 97.4597531,203.005992 98.9218781,203.487436 C98.7131906,205.057505 98.5051594,206.725295 98.2977844,208.496671 C96.8061281,207.96832 95.1326906,207.401532 93.3450656,206.814548" id="Fill-185" fill="#F2F6F9"></path>
                    <path d="M80.382225,240.389971 C82.224975,240.511798 84.0401625,240.638185 85.7680687,240.763921 C85.6702875,242.399137 85.574475,244.072139 85.479975,245.788791 C83.7218812,245.666313 81.8916,245.545137 80.0396625,245.427219 C80.1492563,243.763989 80.2634438,242.083169 80.382225,240.389971" id="Fill-187" fill="#F2F6F9"></path>
                    <path d="M80.8196156,187.63789 C80.5761469,189.024241 80.3300531,190.528509 80.0839594,192.16112 C78.3599906,191.553288 76.7075531,190.975425 75.1824281,190.44512 C75.4173656,188.918049 75.6595219,187.445051 75.9082406,186.028081 C77.3979281,186.512783 79.0608656,187.057421 80.8196156,187.63789" id="Fill-189" fill="#F2F6F9"></path>
                    <path d="M81.84435,182.401875 C79.9556625,181.653323 78.4456313,181.062431 77.5190063,180.70151 L82.88385,178.19787 C82.5498187,179.38161 82.20135,180.772522 81.84435,182.401875" id="Fill-191" fill="#F2F6F9"></path>
                    <path d="M67.2379969,218.175393 C67.1080594,219.822336 66.9787781,221.522701 66.8521219,223.281047 C65.2626844,223.065407 63.7710281,222.866705 62.4985594,222.696669 L62.4985594,217.524564 C63.7500281,217.696555 65.3919656,217.917407 67.2379969,218.175393" id="Fill-193" fill="#F2F6F9"></path>
                    <path d="M69.5691937,195.024898 C69.3906937,196.405386 69.2121937,197.856885 69.03435,199.38591 C68.2475062,199.15724 67.5295687,198.948115 66.8930062,198.764397 L68.8099125,194.820333 C69.0487875,194.884179 69.3021,194.953236 69.5691937,195.024898" id="Fill-195" fill="#F2F6F9"></path>
                    <path d="M91.6836375,186.380728 C90.0226687,185.694067 88.3859812,185.025648 86.8352625,184.398923 C87.1784812,182.796933 87.5328562,181.310254 87.8997,179.95322 C89.4504187,180.532386 91.1133562,181.160413 92.8091062,181.809939 C92.448825,183.079024 92.0714812,184.589807 91.6836375,186.380728" id="Fill-197" fill="#F2F6F9"></path>
                    <path d="M101.068866,190.392676 C99.5430844,189.710575 97.9155844,189.003719 96.2467406,188.293605 C96.5998031,186.587377 96.9673031,185.01796 97.3453031,183.571673 C99.0469594,184.24335 100.698741,184.909163 102.212709,185.539796 C101.845209,186.893573 101.461959,188.496867 101.068866,190.392676" id="Fill-199" fill="#F2F6F9"></path>
                    <path d="M91.2719062,226.818978 C91.4195625,225.139461 91.5711562,223.465807 91.7286562,221.805183 C93.6645937,222.121151 95.4141562,222.42018 96.8710313,222.689893 C96.73125,224.298399 96.5934375,225.96619 96.4575937,227.693916 C94.92525,227.41834 93.17175,227.123871 91.2719062,226.818978" id="Fill-201" fill="#F2F6F9"></path>
                    <path d="M90.4589438,236.715881 C90.5836313,235.090436 90.7135688,233.461735 90.8467875,231.833685 C92.87985,232.105352 94.6733813,232.371808 96.0856313,232.622628 C95.969475,234.236997 95.853975,235.894364 95.7404437,237.606455 C94.2205688,237.319152 92.4276938,237.019471 90.4589438,236.715881" id="Fill-203" fill="#F2F6F9"></path>
                    <path d="M92.2633031,216.405451 C92.4398344,214.700526 92.6216156,213.019054 92.8093031,211.361036 C94.6901156,211.839874 96.3976781,212.289396 97.8309281,212.684845 C97.6596469,214.292047 97.4896781,215.96961 97.3216781,217.729259 C95.8326469,217.322084 94.1204906,216.87582 92.2633031,216.405451" id="Fill-205" fill="#F2F6F9"></path>
                    <path d="M90.13305,241.101909 C92.2278,241.274551 94.06005,241.443936 95.4847687,241.605503 C95.3843625,243.22313 95.285925,244.885708 95.1888,246.586073 C93.6334875,246.427763 91.7992687,246.266847 89.7813,246.108538 C89.894175,244.451822 90.0116437,242.781426 90.13305,241.101909" id="Fill-207" fill="#F2F6F9"></path>
                    <path d="M70.2744656,239.756341 C72.0227156,239.859926 73.8477469,239.971329 75.6944344,240.087293 C75.6005906,241.733585 75.5087156,243.418965 75.4188094,245.145389 C73.5576844,245.035288 71.7155906,244.929749 69.9424031,244.832026 C70.0487156,243.159676 70.1589656,241.466477 70.2744656,239.756341" id="Fill-209" fill="#F2F6F9"></path>
                    <path d="M62.531175,239.31164 C63.5404875,239.367667 64.6475813,239.43021 65.8301438,239.497312 C65.738925,241.156633 65.649675,242.856346 65.5617375,244.594497 C64.4986125,244.537818 63.48405,244.485048 62.531175,244.436187 L62.531175,239.31164 Z" id="Fill-211" fill="#F2F6F9"></path>
                    <path d="M81.1550906,167.484597 C81.1550906,167.484597 83.3889656,168.444879 83.5234969,170.249481 C83.6580281,172.055385 74.4482156,182.348128 74.6339344,182.77159 C74.6339344,182.77159 75.3899344,181.451039 76.6263094,185.026364 C78.1035281,189.298774 80.6648719,195.089134 80.6648719,195.089134 C80.6648719,195.089134 91.6025906,180.242542 91.6019344,176.913476 C91.6019344,176.146032 86.1458719,168.366702 80.8236844,166.379034 C80.8236844,166.379034 80.9175281,166.74256 80.9962781,167.003804 C81.0750281,167.264396 81.1550906,167.484597 81.1550906,167.484597" id="Fill-213" fill="#B3CCDB"></path>
                    <path d="M76.3226625,184.238594 C78.1450688,181.853523 84.9385688,172.900877 85.58235,171.156863 C85.7286938,170.760763 85.7385375,170.147719 85.6670063,169.5451 C86.6599125,170.434371 87.5845687,171.397911 88.39635,172.328877 C88.2381937,172.760157 88.00785,173.299583 87.653475,173.978426 C86.556225,176.079451 80.1308813,184.93633 77.78085,188.154644 C77.3680688,187.094685 76.9677563,186.024954 76.62585,185.036658 C76.52085,184.732416 76.4204438,184.475082 76.3226625,184.238594" id="Fill-215" fill="#E9EEF2"></path>
                    <path d="M79.1514281,191.553744 C81.5815219,188.08005 89.1992719,177.12866 89.8240219,175.436765 C89.9368969,175.130569 89.9677406,174.692774 89.9441156,174.231526 C90.9763969,175.600938 91.6018031,176.664154 91.6024594,176.923444 C91.6031156,180.25251 80.6653969,195.099102 80.6653969,195.099102 C80.6653969,195.099102 79.9993031,193.59353 79.1514281,191.553744" id="Fill-217" fill="#E9EEF2"></path>
                    <path d="M78.8249438,177.323583 C79.5816,176.373724 80.3461312,175.397155 81.0345375,174.476613 C81.295725,174.513747 81.673725,174.630362 82.15935,174.952194 C82.7624437,175.353506 85.9026,180.571866 87.8910375,184.527656 C87.0379125,185.887948 86.1237562,187.276904 85.238475,188.58638 C84.1130062,186.035182 80.7851625,178.764658 78.8249438,177.323583" id="Fill-219" fill="#CCD8E0"></path>
                    <path d="M76.6261125,185.026234 C75.3903937,181.45156 74.6337375,182.77146 74.6337375,182.77146 C74.5792687,182.647678 75.3365812,181.670457 76.4266125,180.310166 L76.5093,180.310817 C76.5093,180.310817 77.2068937,180.181173 78.0009562,181.268494 C78.6033937,182.093268 81.4292062,188.224353 82.8322687,192.070694 C81.5578312,193.87725 80.6653312,195.089004 80.6653312,195.089004 C80.6653312,195.089004 78.1033312,189.299296 76.6261125,185.026234" id="Fill-221" fill="#CCD8E0"></path>
                    <path d="M91.6022625,176.913281 C91.6022625,177.564761 91.1802937,178.6599 90.5076375,179.994133 C88.5631687,177.263777 84.9741375,172.590055 82.7875125,171.956164 C83.2632937,171.182857 83.5481062,170.576328 83.5231687,170.249285 C83.4851062,169.734615 83.2737937,169.290957 82.993575,168.916356 C83.1911062,168.72026 83.655075,168.353477 84.2857312,168.387354 C88.2763875,171.441495 91.6022625,176.313918 91.6022625,176.913281" id="Fill-223" fill="#CCD8E0"></path>
                    <path d="M87.6570844,173.970803 C87.4956469,174.279605 87.2101781,174.745414 86.8498969,175.305687 C86.0643656,174.414462 85.2683344,173.602717 84.5241469,172.990325 C85.0681781,172.157733 85.4553656,171.502995 85.5859594,171.149241 C85.7323031,170.75314 85.7421469,170.140097 85.6706156,169.537477 C86.6641781,170.426749 87.5888344,171.390288 88.3999594,172.321254 C88.2418031,172.752534 88.0114594,173.29196 87.6570844,173.970803" id="Fill-225" fill="#F2F6F9"></path>
                    <path d="M78.2587312,181.681663 C78.63345,182.355294 79.2568875,183.637408 79.9525125,185.162524 C79.0921688,186.352779 78.3296062,187.40036 77.7875437,188.143699 C77.7114187,187.948907 77.6352937,187.754114 77.5611375,187.559321 C77.5499812,187.531308 77.5394812,187.504597 77.5289812,187.475932 C77.3412937,186.985367 77.1595125,186.497408 76.9862625,186.019221 C76.9363875,185.883062 76.8884812,185.748856 76.840575,185.614651 C76.7690437,185.413995 76.6975125,185.213991 76.6299187,185.018547 C76.525575,184.717563 76.4264812,184.462834 76.3293562,184.226998 C76.7519812,183.674542 77.4417,182.76703 78.2587312,181.681663" id="Fill-227" fill="#F2F6F9"></path>
                    <path d="M88.6606875,177.501112 C89.2729688,176.518027 89.6995313,175.776642 89.8275,175.428752 C89.9410313,175.123207 89.9712188,174.685412 89.9475938,174.224164 C90.848625,175.419631 91.4399063,176.380565 91.5750938,176.77862 C91.5790313,176.789695 91.5796875,176.796861 91.5823125,176.807285 C91.5947813,176.848328 91.604625,176.888068 91.6052813,176.913476 C91.6052813,176.925203 91.6026563,176.940187 91.602,176.952565 C91.6006875,177.031394 91.5921563,177.118041 91.5790313,177.2099 C91.5705,177.269185 91.5580313,177.331727 91.54425,177.395572 C91.5350625,177.440524 91.5245625,177.487431 91.51275,177.534989 C91.4910938,177.622938 91.4674688,177.712843 91.4385938,177.809262 C91.436625,177.815125 91.4346563,177.822292 91.4326875,177.828806 C91.2489375,178.423608 90.9286875,179.158478 90.5113125,179.98651 C89.992875,179.258806 89.3556563,178.391686 88.6606875,177.501112" id="Fill-229" fill="#F2F6F9"></path>
                    <path d="M81.3640406,188.372695 C81.9139781,189.671096 82.4337281,190.961027 82.8353531,192.062681 C81.5615719,193.869888 80.6684156,195.081642 80.6684156,195.081642 C80.6684156,195.081642 80.0042906,193.578677 79.1577281,191.542148 C79.6879781,190.783825 80.4669469,189.667838 81.3640406,188.372695" id="Fill-231" fill="#F2F6F9"></path>
                    <path d="M84.6655031,183.550826 L85.1714719,182.803578 L85.1754094,182.80879 C85.5192844,182.299983 85.8565969,181.797692 86.1853781,181.305824 C86.7897844,182.391842 87.3804094,183.498056 87.8942531,184.519578 C87.0417844,185.879869 86.1269719,187.269477 85.2423469,188.578954 C84.8866594,187.773072 84.3111281,186.49617 83.6292844,185.082457 C83.9751281,184.576256 84.3235969,184.066147 84.6687844,183.556689 L84.6655031,183.550826 Z" id="Fill-233" fill="#F2F6F9"></path>
                    <path d="M82.7233312,175.609016 C83.1938625,176.263754 83.8737375,177.33544 84.6251437,178.595404 L82.1327062,182.127732 C81.5112375,180.966793 80.8727062,179.868397 80.2689562,178.988246 C81.1010812,177.861836 81.950925,176.695686 82.7233312,175.609016" id="Fill-235" fill="#F2F6F9"></path>
                    <path d="M91.242375,178.417875 C90.6924375,179.972959 89.8754063,181.419246 89.06625,182.853807 C88.2413438,184.282504 87.3744375,185.687096 86.4786563,187.072144 C84.6785625,189.837028 82.8430313,192.577807 80.9018438,195.25018 L80.5947188,195.67234 L80.3998125,195.185684 C79.1837813,192.155647 77.954625,189.126262 76.6696875,186.128149 C76.3527188,185.377643 76.0337812,184.625834 75.6938437,183.892267 C75.607875,183.711155 75.5251875,183.522226 75.4333125,183.35219 L75.2987812,183.090946 C75.2541562,183.04013 75.2436563,182.986709 75.1924688,182.93459 C75.0612187,182.825793 74.9693437,182.818627 74.9745937,182.831005 C74.9614687,182.836868 74.928,182.866836 74.9083125,182.913743 L74.773125,183.189319 L72.6147187,187.594631 C71.187375,190.537369 69.70425,193.453397 68.2460625,196.381151 C66.7872187,199.308253 65.2949062,202.21972 63.79275,205.124672 C65.1439687,202.147406 66.5050312,199.175351 67.8989062,196.219584 C69.29475,193.264467 70.6643437,190.297625 72.0897187,187.356841 L74.2107187,182.937196 L74.3439375,182.66162 C74.4062812,182.522855 74.508,182.384741 74.6746875,182.290276 C74.844,182.193857 75.067125,182.191251 75.21675,182.244021 C75.3696562,182.294836 75.487125,182.370408 75.5849062,182.448586 C75.6826875,182.53393 75.7673438,182.669438 75.8447812,182.781492 L75.99375,183.063584 C76.0974375,183.252513 76.1794687,183.438185 76.2700313,183.624508 C76.62375,184.371757 76.9499063,185.122262 77.2740938,185.874071 C78.5393438,188.894987 79.7435625,191.93219 80.9372813,194.97721 L80.43525,194.913365 C82.369875,192.252067 84.3051563,189.583602 86.15775,186.862367 C87.0771563,185.497515 87.9906563,184.128754 88.874625,182.740449 C89.73825,181.34172 90.601875,179.935825 91.242375,178.417875" id="Fill-237" fill="#759AAC"></path>
                </g>
                <g id="Group-274">
                    <g id="Group-242" transform="translate(32.081433, 0.000000)">
                        <mask id="mask-9" fill="white">
                            <use xlink:href="#path-8"></use>
                        </mask>
                        <g id="Clip-241"></g>
                        <path d="M128.571516,90.631325 C128.571516,90.631325 122.742516,86.6749857 120.73579,78.2421821 C117.073923,62.8606911 121.363014,46.5634411 108.478718,43.3664321 C89.9873726,38.7791643 48.6363694,34.1462714 26.2075192,43.4765839 C14.7446267,48.2457 18.8654541,62.2779946 15.2742977,76.0547893 C12.6573694,86.0948964 7.39208599,88.9783964 7.39208599,88.9783964 C7.39208599,88.9783964 6.37857459,85.2241107 5.17977655,79.7738786 C5.1103759,79.4584143 4.74438567,79.6031107 4.67433029,79.2765661 C4.62784495,79.0621286 4.87729446,78.3797089 4.8301544,78.1600571 C4.68480586,77.4756821 4.39018046,76.0476196 4.39018046,76.0476196 L3.45130749,73.6477446 L3.18745407,74.2389143 L3.0185355,73.2442893 L2.43255831,72.2770393 L2.45547362,69.643825 L2.36250293,68.9900839 L1.61742801,68.9151286 L1.90419674,65.3883161 L1.7955127,64.3839143 L1.05698502,62.0837625 L1.40136938,59.3456107 L0.751229316,58.1789143 L1.32345733,56.6068071 L0.495887296,56.0769054 L1.43476026,52.9926554 L1.00657134,52.1440304 L2.29572117,48.0390839 L1.52314788,46.3626911 L2.56088404,45.1008339 L1.93104039,43.9289232 L2.98252573,39.3546911 L2.76057459,37.7415214 L3.66540195,37.0069589 L3.52463648,35.4596196 L4.47202085,34.1716911 L4.18721629,32.56895 L5.27274723,31.282325 L4.39083518,30.1351821 L5.87443779,29.0577804 L5.81747687,27.5990839 L8.67927166,25.1913875 L23.5513075,13.0088607 L51.4333466,1.644325 L56.0380143,2.98700357 L74.2949687,0.2162625 L76.0934932,2.98700357 L95.557757,4.75464643 L100.849229,8.03117321 L116.203141,10.9987536 L114.865542,12.5454411 L126.737636,22.376325 L128.565623,23.2360304 L134.247965,42.1723607 L136.297249,44.8505482 L134.38022,46.7896107 L133.000718,62.2388875 L132.069702,63.2530661 L132.230764,78.4201196 L133.671154,78.9839143 L130.578242,71.7152 C131.945304,78.8164054 128.571516,90.631325 128.571516,90.631325" id="Fill-240" fill="#EFEFED" mask="url(#mask-9)"></path>
                    </g>
                    <g id="Group-245" transform="translate(0.000000, 189.017857)">
                        <mask id="mask-11" fill="white">
                            <use xlink:href="#path-10"></use>
                        </mask>
                        <g id="Clip-244"></g>
                        <path d="M99.6521336,47.0520848 L99.665228,48.146433 L100.310785,102.982469 L53.4581433,102.982469 L51.7309837,66.2608616 L36.0130456,102.982469 L0,102.982469 C0,102.982469 38.4080228,14.7091741 39.3252899,11.1002366 C40.242557,7.49129911 43.2994593,2.19488839 52.1657199,0.506111607 C61.0319805,-1.18331696 98.374114,42.7848437 99.6521336,47.0520848" id="Fill-243" fill="#5B6882" mask="url(#mask-11)"></path>
                    </g>
                    <path d="M99.6521336,236.069942 C99.6521336,236.069942 97.4902378,230.467844 93.9108664,223.259746 C91.8393225,219.087665 89.279355,214.278138 86.4123225,209.675228 C83.2559023,204.607594 79.7256352,199.789594 76.063114,196.348165 C61.1118567,182.297621 69.4648143,176.444585 73.7041466,173.525237 L72.7469414,172.322692 C72.7469414,172.322692 65.0650749,169.663406 59.3886254,177.605415 C58.193101,179.277897 54.7191401,180.136951 53.7815765,184.406147 C52.844013,188.675996 50.1203648,183.239451 49.7975863,191.752424 C49.4741531,200.264746 62.480228,204.014469 72.7469414,209.89879 C80.837355,214.535594 92.88557,228.117504 97.6290391,233.666156 C98.9044397,235.158746 99.6521336,236.069942 99.6521336,236.069942" id="Fill-246" fill="#697895"></path>
                    <path d="M93.9002599,223.25955 C91.828716,219.088121 89.2694033,214.278595 86.401716,209.675032 C83.2452958,204.607398 79.7156834,199.789398 76.0531622,196.34797 C61.1019049,182.297425 69.4542078,176.444389 73.6935401,173.525041 L74.7221101,169.642354 C74.7221101,169.642354 67.8854912,171.067809 65.2391003,172.323148 C63.5957453,174.34955 62.4663479,179.944479 63.128273,184.148496 C64.6256248,193.651532 79.2049993,205.962461 83.0416769,213.311996 C84.1206606,215.380113 86.5798007,219.919148 88.4398691,223.492238 C92.6759277,227.842255 95.4113609,231.083586 97.6184326,233.666613 C98.8944879,235.15855 99.6421818,236.069746 99.6421818,236.069746 C99.6421818,236.069746 97.480286,230.4683 93.9002599,223.25955" id="Fill-248" fill="#7D8DA8"></path>
                    <path d="M83.041415,164.964813 C83.041415,164.964813 66.6726821,170.560394 66.6720274,180.179447 C66.6707179,188.07909 75.3124085,196.267474 78.4059752,199.252001 C81.499542,202.237831 84.7692293,207.115144 84.7692293,207.115144 C82.5097798,201.039197 73.0032,187.632617 73.0032,182.412465 C73.0032,178.093081 71.9287993,174.623626 83.0250469,169.940546 C83.0250469,169.940546 83.041415,167.351001 83.041415,164.964813" id="Fill-250" fill="#AAAEB0"></path>
                    <path d="M68.9101984,177.908235 C71.3523156,173.066119 77.4837977,168.989851 83.0345404,167.236547 C83.0384687,166.060726 83.0410876,166.01836 83.0410876,164.965074 C83.0410876,164.965074 77.7993743,166.048994 73.2372635,169.944065 C73.0244785,170.972583 72.7213417,171.909199 72.2872603,172.323083 C71.0760225,173.478047 70.4075502,173.027012 68.4911756,177.283172 C66.5754557,181.539333 69.6683678,187.74694 71.3169606,190.021672 L71.3955274,189.523708 C71.3955274,189.523708 66.4674264,182.752306 68.9101984,177.908235" id="Fill-252" fill="#C3C7C9"></path>
                    <path d="M91.5419472,225.927113 C92.4729635,226.014453 93.1774456,226.618658 93.1152469,227.275658 C93.0530482,227.933962 92.2477388,228.396729 91.3167225,228.30939 C90.3863609,228.222703 89.6818788,227.619149 89.7440775,226.960846 C89.8062762,226.302542 90.6109309,225.839774 91.5419472,225.927113" id="Fill-254" fill="#465266"></path>
                    <path d="M91.1282277,226.422992 C87.3668433,222.548126 83.5602831,218.70259 79.528498,215.115813 C78.5149866,214.230037 77.4936186,213.340349 76.3917195,212.589492 C75.2786902,211.853626 74.0681072,211.244858 72.8732375,210.619796 L65.6143221,206.991956 C63.1964296,205.77051 60.7903221,204.521688 58.4509964,203.136644 C57.2816609,202.445099 56.1450616,201.691635 55.0425078,200.880813 C54.7596674,200.691144 54.5062896,200.451938 54.2371984,200.238804 C53.9746544,200.016546 53.6983612,199.81384 53.4606967,199.555081 C53.2177945,199.307403 52.9617977,199.063635 52.7306805,198.812046 L52.064827,198.046849 C51.6294362,197.528028 51.1927358,197.011813 50.7704394,196.474742 C50.3533808,195.935715 49.9245371,195.395385 49.6148531,194.732519 C49.4636121,194.400108 49.366713,194.020769 49.3605875,193.650554 C49.3568922,193.282296 49.4033775,192.94076 49.4433156,192.603787 L49.6763971,190.599546 C49.7575827,189.928206 49.8440062,189.25426 49.9828075,188.582269 C50.1419052,187.926572 50.2859443,187.204394 50.847042,186.675144 C50.9884622,186.547394 51.1698205,186.465269 51.3544524,186.416385 L51.8566251,186.319921 C52.1859508,186.256046 52.5133124,186.191519 52.795498,186.039001 C53.3847489,185.742438 53.6237228,185.044376 53.7494296,184.401063 L53.8142472,184.411492 C53.7232407,185.060019 53.5314068,185.814787 52.8865046,186.196081 C52.5807489,186.383796 52.2363645,186.469179 51.9083482,186.55326 L51.4186153,186.677099 C51.2804687,186.725331 51.1495241,186.789858 51.0447684,186.896751 C50.6178889,187.325626 50.4745046,188.015867 50.3540355,188.653965 C50.2453515,189.307706 50.1851169,189.975135 50.1307749,190.643867 C50.0783971,191.311296 50.0371495,191.990456 49.9598922,192.663099 C49.9265013,192.996162 49.8924557,193.325313 49.9029313,193.632304 C49.9166805,193.93734 49.995902,194.220215 50.128156,194.499179 C50.4018303,195.055804 50.8260909,195.580492 51.2464231,196.095403 C51.670029,196.610965 52.1172049,197.115447 52.5611072,197.621885 C54.2234492,199.725849 56.4933743,201.176724 58.7875241,202.585233 C61.0816739,203.991787 63.4609378,205.273849 65.8539508,206.528537 L73.0703091,210.244367 C74.2632147,210.887028 75.4685599,211.510787 76.6031951,212.279894 C77.7286642,213.066599 78.7382472,213.970626 79.7471756,214.873349 C83.7350941,218.537688 87.4755274,222.441233 91.1760225,226.378671 L91.1282277,226.422992 Z" id="Fill-256" fill="#465266"></path>
                    <mask id="mask-13" fill="white">
                        <use xlink:href="#path-12"></use>
                    </mask>
                    <g id="Clip-259"></g>
                    <polygon id="Fill-258" fill="#465266" mask="url(#mask-13)" points="90.7747427 271.711214 92.0841889 271.711214 92.0841889 227.937286 90.7747427 227.937286"></polygon>
                    <path d="M98.977245,292 L100.310916,292 C100.310916,292 101.395137,238.770616 98.977245,234.628518 L98.2491928,234.394527 C98.2491928,234.394527 100.311571,246.505357 98.977245,292" id="Fill-260" fill="#697895" mask="url(#mask-13)"></path>
                    <path d="M52.0539586,255.329428 L51.4077469,255.227749 C51.4640531,254.869919 57.0219977,219.358678 52.2837664,209.718115 C47.5828544,200.155115 39.650229,199.550258 39.5703528,199.545044 L39.6116003,198.894562 C39.6973691,198.899776 41.7479619,199.042517 44.419887,200.416481 C46.8737893,201.678338 50.3326915,204.266579 52.8717078,209.431981 C57.7009456,219.255696 52.2870401,253.860954 52.0539586,255.329428" id="Fill-261" fill="#465266" mask="url(#mask-13)"></path>
                    <path d="M65.5179469,173.649988 C64.9411358,175.104122 64.5823476,176.623435 64.4081912,178.151221 C64.1161847,179.659453 64.042201,181.204185 64.1220772,182.735229 C64.224214,184.248024 64.6812107,185.710631 65.2881391,187.125006 C65.9454811,188.517221 66.6676407,189.887274 67.5240186,191.183676 C69.1883248,193.804506 71.1138655,196.263694 73.0924388,198.675301 C74.0797612,199.882408 75.0952368,201.06931 76.1080935,202.260122 C77.0397645,203.518721 77.9969697,204.761024 78.8887026,206.05156 L75.6098492,202.681828 C74.5950283,201.491015 73.5775886,200.300854 72.5856831,199.087229 C70.5985984,196.665846 68.6593085,194.191667 66.9714322,191.533033 C66.1045788,190.219033 65.364087,188.818997 64.6890674,187.387676 C64.0638068,185.935497 63.5753834,184.383596 63.4686635,182.772381 C63.3828948,181.189194 63.4680088,179.593622 63.7593606,178.033247 C63.9466114,177.260229 64.193442,176.50481 64.4802107,175.768944 C64.7650153,175.032426 65.0995788,174.31481 65.5179469,173.649988" id="Fill-262" fill="#92A1B7" mask="url(#mask-13)"></path>
                    <path d="M100.991959,236.069942 L100.978864,237.16429 L100.333307,292.000326 L147.185949,292.000326 L148.913109,255.278719 L164.631047,292.000326 L200.644093,292.000326 C200.644093,292.000326 162.23607,203.727031 161.319457,200.118094 C160.40219,196.509156 157.344633,191.212746 148.478373,189.523969 C139.612112,187.83454 102.269979,231.802701 100.991959,236.069942" id="Fill-263" fill="#5B6882" mask="url(#mask-13)"></path>
                    <path d="M100.991959,236.069942 C100.991959,236.069942 103.153855,230.467844 106.733881,223.259746 C108.80477,219.087665 111.364737,214.278138 114.23177,209.675228 C117.38819,204.607594 120.918457,199.789594 124.580979,196.348165 C139.532236,182.297621 131.179278,176.444585 126.939946,173.525237 L127.897151,172.322692 C127.897151,172.322692 135.579018,169.663406 141.255467,177.605415 C142.450992,179.277897 145.924952,180.136951 146.862516,184.406147 C147.800079,188.675996 150.523728,183.239451 150.846506,191.752424 C151.169939,200.264746 138.163864,204.014469 127.897151,209.89879 C119.806737,214.535594 107.758522,228.117504 103.015053,233.666156 C101.739653,235.158746 100.991959,236.069942 100.991959,236.069942" id="Fill-264" fill="#697895" mask="url(#mask-13)"></path>
                    <path d="M106.743767,223.25955 C108.815311,219.088121 111.374624,214.278595 114.242311,209.67438 C117.398731,204.607398 120.928344,199.789398 124.590865,196.347318 C139.542122,182.297425 131.189819,176.444389 126.950487,173.525041 L125.921917,169.642354 C125.921917,169.642354 132.758536,171.067809 135.404927,172.323148 C137.048282,174.34955 138.177679,179.944479 137.515754,184.148496 C136.018402,193.651532 121.439028,205.962461 117.60235,213.311996 C116.523366,215.380113 114.064226,219.919148 112.204158,223.492238 C107.968099,227.842255 105.232666,231.083586 103.025594,233.665961 C101.749539,235.15855 101.001845,236.069746 101.001845,236.069746 C101.001845,236.069746 103.163741,230.4683 106.743767,223.25955" id="Fill-265" fill="#7D8DA8" mask="url(#mask-13)"></path>
                    <path d="M117.602678,164.313028 C117.602678,164.313028 133.97141,170.560394 133.972065,180.179447 C133.973375,188.07909 125.331684,196.267474 122.238117,199.252001 C119.14455,202.237831 115.874863,207.115144 115.874863,207.115144 C118.134967,201.039197 127.640893,187.632617 127.640893,182.412465 C127.640893,178.093081 128.715293,174.623626 117.619046,169.940546 C117.619046,169.940546 117.602678,166.699215 117.602678,164.313028" id="Fill-266" fill="#AAAEB0" mask="url(#mask-13)"></path>
                    <path d="M131.733894,177.908235 C129.291777,173.066119 123.160295,168.989851 117.609552,167.236547 C117.605624,166.060726 117.603005,165.366574 117.603005,164.313288 C117.603005,164.313288 122.830314,165.746565 127.392425,169.642288 C127.60521,170.670806 127.922751,171.909199 128.356832,172.323083 C129.56807,173.478047 130.236542,173.027012 132.152917,177.283172 C134.068637,181.539333 130.975725,187.74694 129.327132,190.021672 L129.248565,189.523708 C129.248565,189.523708 134.176666,182.752306 131.733894,177.908235" id="Fill-267" fill="#C3C7C9" mask="url(#mask-13)"></path>
                    <path d="M109.102145,225.927113 C108.171129,226.014453 107.466647,226.618658 107.528846,227.275658 C107.591044,227.933962 108.396354,228.396729 109.32737,228.30939 C110.258386,228.222703 110.962214,227.619149 110.900015,226.960846 C110.837816,226.302542 110.033162,225.839774 109.102145,225.927113" id="Fill-268" fill="#465266" mask="url(#mask-13)"></path>
                    <path d="M109.468201,226.37841 C113.168696,222.440972 116.909784,218.538079 120.897048,214.87374 C121.905976,213.970365 122.915559,213.066338 124.040374,212.279633 C125.175664,211.510526 126.381009,210.886767 127.573914,210.244106 L134.789618,206.528276 C137.183286,205.273588 139.561895,203.991526 141.856699,202.584972 C144.150849,201.176463 146.420774,199.725588 148.083116,197.621624 C148.527019,197.115838 148.97354,196.610704 149.3978,196.095142 C149.817478,195.580231 150.242393,195.055544 150.515413,194.499571 C150.647667,194.219954 150.727543,193.937731 150.741292,193.632696 C150.751768,193.325053 150.717067,192.995901 150.684331,192.662838 C150.607074,191.990196 150.565826,191.311035 150.512794,190.644258 C150.459107,189.974874 150.398872,189.307446 150.290188,188.653704 C150.169719,188.016258 150.026335,187.325365 149.5988,186.897142 C149.494699,186.790249 149.363755,186.725071 149.225608,186.676838 L148.73653,186.552999 C148.407859,186.469571 148.063475,186.384187 147.757064,186.196472 C147.112817,185.815178 146.920983,185.059758 146.829976,184.411231 L146.894794,184.401454 C147.020501,185.044115 147.259475,185.742178 147.848725,186.03874 C148.130911,186.19191 148.458273,186.255785 148.787598,186.31966 L149.289116,186.416124 C149.474403,186.46566 149.655761,186.547785 149.797181,186.674883 C150.358279,187.204133 150.502318,187.926963 150.661416,188.58266 C150.800217,189.253999 150.886641,189.927946 150.967172,190.599285 L151.200908,192.604178 C151.240846,192.940499 151.287331,193.282687 151.283636,193.650294 C151.276856,194.020508 151.179957,194.399847 151.02937,194.732258 C150.719032,195.395776 150.290843,195.935454 149.873129,196.474481 C149.451488,197.011553 149.014133,197.527767 148.578742,198.046588 L147.913543,198.811785 C147.682426,199.064026 147.426429,199.307794 147.183527,199.555472 C146.945862,199.813579 146.669569,200.016937 146.40637,200.239196 C146.137279,200.452329 145.884556,200.690883 145.601061,200.881204 C144.499162,201.691374 143.362563,202.444838 142.193227,203.137035 C139.853901,204.522079 137.447139,205.770901 135.029901,206.991696 L127.770986,210.619535 C126.576116,211.244597 125.365533,211.854017 124.252504,212.589883 C123.14995,213.340088 122.128582,214.229776 121.115725,215.116204 C117.083286,218.702981 113.27738,222.547865 109.515996,226.422731 L109.468201,226.37841 Z" id="Fill-269" fill="#465266" mask="url(#mask-13)"></path>
                    <polygon id="Fill-270" fill="#465266" mask="url(#mask-13)" points="108.559642 271.711214 109.869088 271.711214 109.869088 227.937286 108.559642 227.937286"></polygon>
                    <path d="M101.666782,292 L100.333111,292 C100.333111,292 99.2495443,238.770616 101.666782,234.628518 L102.394834,234.394527 C102.394834,234.394527 100.333111,246.505357 101.666782,292" id="Fill-271" fill="#697895" mask="url(#mask-13)"></path>
                    <path d="M148.590134,255.329428 C148.357052,253.860954 142.943147,219.255696 147.772385,209.431981 C150.311401,204.266579 153.770303,201.67899 156.22486,200.416481 C158.896785,199.043169 160.947378,198.900428 161.033147,198.895213 L161.074394,199.545696 C160.994518,199.55091 153.052072,200.174017 148.360326,209.718115 C143.622095,219.358678 149.180039,254.869919 149.236346,255.227749 L148.590134,255.329428 Z" id="Fill-272" fill="#465266" mask="url(#mask-13)"></path>
                    <path d="M135.126407,173.649988 C135.544776,174.31481 135.878684,175.032426 136.163489,175.768944 C136.450912,176.50481 136.697743,177.260229 136.884994,178.033247 C137.176346,179.593622 137.260805,181.189194 137.175691,182.772381 C137.068316,184.383596 136.580548,185.935497 135.955287,187.387676 C135.280267,188.818997 134.539776,190.219033 133.672922,191.533033 C131.984391,194.191667 130.045101,196.665846 128.058671,199.087229 C127.066111,200.300854 126.048671,201.491015 125.034505,202.681828 L121.754997,206.05156 C122.647385,204.761024 123.60459,203.518721 124.536261,202.260122 C125.549118,201.06931 126.564593,199.882408 127.551916,198.675301 C129.529834,196.263694 131.45603,193.804506 133.119681,191.183676 C133.976059,189.887274 134.698219,188.517221 135.356215,187.125006 C135.963144,185.710631 136.42014,184.248024 136.521622,182.735229 C136.602153,181.204185 136.52817,179.659453 136.235508,178.151221 C136.062007,176.623435 135.702564,175.104122 135.126407,173.649988" id="Fill-273" fill="#92A1B7" mask="url(#mask-13)"></path>
                </g>
                <g id="Group-297" transform="translate(38.000000, 9.000000)">
                    <path d="M10.8860719,49.7465804 L7.94082188,39.7299055 L9.41344688,39.7299055 L7.94082188,38.1093411 L9.41344688,38.1093411 L10.8860719,34.9859178 L7.94082188,32.1609853 L12.7025719,33.6150712 L12.7025719,31.5334393 L16.1859469,31.5334393 L9.25529063,23.3558319 L19.8274781,30.4357215 L18.4027594,26.6697951 L20.8433531,29.0746294 L20.8433531,27.9242368 L22.2142594,28.8665313 L26.1163219,29.2866294 L20.7777281,12.7038074 L26.7371344,19.9222123 C26.7371344,19.9222123 26.6636344,9.33001595 27.4288219,6.89786871 C27.4288219,6.89786871 27.4288219,13.6454515 28.5372281,15.6854638 L30.7540406,10.9778933 L31.7272594,18.1956479 C31.7272594,18.1956479 31.3873219,13.1746294 36.7711969,8.15361104 L35.3615719,12.8605313 L47.1688219,2.81849448 L45.9554156,6.89786871 L49.2806344,5.95622454 L49.2806344,9.25132883 L62.5847906,0.618506748 L62.8984781,5.79950061 L73.6668844,2.80743926 L69.7077281,5.64277669 L82.4547281,1.50682577 L80.3173219,7.21196687 L83.1109781,7.21196687 L81.4696969,8.78115706 L93.7770094,8.31033497 L91.7183531,10.3503472 L93.7770094,10.9778933 L92.3516344,12.0762613 C92.3516344,12.0762613 101.279916,13.0179055 102.753853,13.0179055 C104.227791,13.0179055 106.127634,14.5870957 106.127634,14.5870957 L99.1608844,15.8421877 L103.404853,16.9203963 L105.336197,17.4113779 L107.077884,20.2356601 L102.753853,20.2356601 L110.561916,23.6881387 L113.018916,27.1399669 L109.295353,25.2573288 L113.887134,30.4357215 L110.403759,28.8665313 L115.311853,35.6134638 L115.311853,38.7518442 L118.637728,40.4777583 L121.170853,44.7145067 L119.112853,43.4594147 L119.429166,44.9655252 L119.904291,47.2253411 L117.845634,46.2836969 L120.379416,53.4890957 L117.054197,49.8928994 L115.945791,53.4890957 L116.258166,57.2153534 L116.420259,59.1506663 L113.018916,56.1690098 L113.018916,59.2104945 C113.018916,59.2104945 111.919041,40.4049239 107.874572,36.4198442 C103.346447,31.9580896 93.7186031,26.9591816 72.1831031,26.6457337 C50.6476031,26.3316356 40.8235406,26.8609853 30.4081969,30.3596356 C21.0441656,33.504519 11.8396031,33.3516969 10.8860719,49.7465804" id="Fill-275" fill="#DBDBD7"></path>
                    <path d="M107.987972,32.1146184 C106.939941,31.4051337 103.430316,29.9952687 103.430316,29.9952687 L103.875909,29.1284098 L92.1257531,27.8863239 L96.9170344,26.1317963 L83.6351906,26.5538454 L89.4180656,22.7027288 C89.4180656,22.7027288 77.9205656,23.7386675 75.9938156,23.358238 L78.9167531,19.6345816 L57.1942219,22.363919 L60.2615344,15.6020294 L46.1764406,22.7358945 L45.1743469,14.4236736 L38.0999719,24.7837104 L29.2320656,14.2097227 L29.6888156,26.5440908 C29.0155031,26.701465 29.9591906,26.7951092 29.9591906,26.7951092 L23.9440031,18.5758822 L28.1210344,30.5916 L22.8152531,26.7827534 L25.6876594,31.2692196 L20.8432219,29.0744344 L23.5213781,31.7758086 L19.1638781,31.1489129 L19.7722219,33.4887166 L14.8792219,34.0434282 L15.5610656,35.948827 L13.9302844,37.661735 L11.1064406,37.8834896 L12.5022844,39.6698822 L10.8386906,40.3878209 L12.0947531,41.526508 L10.6326281,42.2932196 L12.1525031,42.3153301 C12.1525031,42.3153301 13.6047844,37.570692 17.0540344,35.3876123 C21.7600031,32.4092074 29.5595344,30.8107534 29.7629719,30.7372687 C62.4199406,25.0483853 96.5810344,32.0612933 104.356941,34.636508 C111.399159,36.968508 112.533159,53.4889006 112.533159,53.4889006 C112.533159,53.4889006 114.256472,36.3552687 107.987972,32.1146184" id="Fill-277" fill="#A59F9B"></path>
                    <path d="M31.7271281,28.8993067 C31.7271281,28.8993067 33.8087531,14.2420429 34.2786281,12.2976258 L34.2786281,26.2070368 L38.0494406,16.5538834 L37.4207531,24.5461534 L39.4111594,20.5981411 L39.4111594,25.688092 L44.7536906,13.1280675 L43.9865344,24.6502025 C43.9865344,24.6502025 47.0695969,20.1864969 47.1686906,19.875 C47.2677844,19.5641534 46.2197531,24.5461534 46.2197531,24.5461534 L57.6168469,9.89994479 L52.9240031,21.3277853 L54.3907219,20.5981411 L53.1340031,25.0650982 L58.9995656,24.0272086 C58.9995656,24.0272086 51.5622844,27.4523742 47.6864719,27.7638712 C43.8113156,28.0753681 35.2623469,27.7469632 31.7271281,28.8993067" id="Fill-279" fill="#EFEFED"></path>
                    <path d="M56.5758375,25.6712491 C56.5758375,25.6712491 65.2908375,31.2599853 70.8932437,31.6644761 L61.6361812,26.6369546 L78.7150875,30.981654 L68.822775,26.3950405 L83.438775,27.4817031 C83.438775,27.4817031 72.4813687,23.9876049 56.5758375,25.6712491" id="Fill-281" fill="#C9C9C3"></path>
                    <path d="M64.5559687,16.1579767 C64.5559687,16.1579767 71.365875,10.2148233 73.880625,8.6814 C76.3960312,7.14862699 79.8295312,3.66363313 79.8295312,3.66363313 L73.833375,12.2971055 L86.4602812,7.14862699 L80.9819062,12.2971055 C80.9819062,12.2971055 95.4988125,11.1740258 98.2314375,10.8865902 C100.964062,10.5985043 98.2314375,13.7407865 98.2314375,13.7407865 L107.155125,16.1579767 L91.6787812,19.6091546 L81.4695,20.5982712 L81.4695,16.3498172 L64.5559687,16.1579767 Z" id="Fill-283" fill="#EFEFED"></path>
                    <polygon id="Fill-285" fill="#AAB8BA" points="10.9719094 75.7753681 8.00631562 73.8972822 0.242221875 82.6172454 0.769190625 85.7445706 9.12850312 77.7327914"></polygon>
                    <polygon id="Fill-287" fill="#AAB8BA" points="112.261603 75.7753681 115.227197 73.8972822 122.991291 82.6172454 122.464322 85.7445706 114.105009 77.7327914"></polygon>
                    <polygon id="Fill-289" fill="#DBDBD7" points="116.431744 29.9147607 123.0579 34.9956074 122.246775 32.4548589 123.59865 32.4548589 121.5564 31.3779509 125.491931 31.3779509 120.961838 28.8989816 123.869025 28.8989816 121.5564 27.1639632 122.381963 27.1639632 119.541713 24.6778405 124.140056 24.6778405 120.082463 22.5331288 123.933338 20.9600368 121.375275 20.1608098 124.388775 18.0577178 120.293775 18.0986871 121.240088 17.3469325 120.138244 16.0268098 121.355588 14.284638 116.108869 14.2098528 116.902931 11.284773 108.859275 12.1308221 113.404463 14.7613129 111.834056 15.5657423 112.781025 16.1015951 111.834056 16.9053742 115.465087 17.4613865 111.022931 18.3796196 115.591088 19.3993006 114.598181 20.5984663 116.566931 20.5984663 112.104431 21.4614233 115.591088 23.5632147 113.404463 23.0696319 119.406525 27.1639632 117.175275 27.1639632 118.325025 28.8989816 115.591088 28.8989816"></polygon>
                    <polygon id="Fill-291" fill="#DBDBD7" points="18.4794094 17.4611264 17.4569719 16.3517031 17.6840344 17.7023902 15.4875656 16.0512613 16.0178156 17.4611264 11.5750031 14.0444147 14.7210656 18.1159853 12.0580031 16.9597399 13.4741906 19.4692736 10.6615031 18.0398994 11.9779406 20.6944515 8.64090938 18.0398994 10.8124406 22.7292613 7.75825313 19.9231877 8.09687813 22.5595313 4.90684688 20.7289178 6.66034688 24.3966479 5.57490938 23.8594945 4.82612813 25.403973 2.72022188 25.0378503 4.84844063 29.7909423 1.83559688 30.3014331 5.97981563 37.1849301 6.48775313 31.9935313 7.88162813 33.069789 7.97678438 31.9935313 9.10947188 32.5085742 8.09819063 29.0086233 10.7999719 32.6210773 9.82150313 28.0832368 11.3361281 28.4747215 9.90944063 25.0261448 14.4218156 26.6564638 13.8108469 22.6505742 17.5245656 23.209838 15.4429406 20.3231264 17.4871594 21.2107951 17.3434406 18.8287215 19.0096594 19.6162429"></polygon>
                    <path d="M56.6062875,84.1010503 L57.450225,83.0774675 C57.450225,83.0774675 58.2593813,79.0332098 58.8920063,78.6443264 C59.5246313,78.2560933 61.6062562,77.8906209 61.6062562,77.8906209 C61.6062562,77.8906209 63.8512875,78.5493816 64.2371625,78.6423755 C64.6230375,78.7360196 65.11785,79.9540442 65.7622875,83.0774675 C66.4060687,86.2008908 67.818975,82.2138601 67.818975,82.2138601 L67.1738812,76.3988172 L57.8354438,75.9423018 L55.9920375,79.0215043 L56.6062875,84.1010503 Z" id="Fill-293" fill="#443E3B"></path>
                    <path d="M101.381569,99.3832589 C93.6325687,106.10548 80.5193813,103.358584 76.8575063,99.943173 C73.194975,96.5271117 68.9916938,89.913492 69.0993188,85.323627 C69.2069438,80.7331117 70.3429125,76.3097252 74.9182875,74.3243387 C74.9182875,74.3243387 80.9505375,70.4816761 90.5376937,70.9082773 C100.12485,71.3355288 104.895787,76.1133325 105.871631,77.7599092 C107.083725,79.8064245 108.952069,92.8164613 101.381569,99.3832589 M46.3550062,99.943173 C42.692475,103.358584 29.5799437,106.10548 21.8302875,99.3832589 C14.2604438,92.8164613 16.1281313,79.8064245 17.3408812,77.7599092 C18.3160687,76.1133325 23.0870063,71.3355288 32.6741625,70.9082773 C42.2613187,70.4816761 48.2935687,74.3243387 48.2935687,74.3243387 C52.8696,76.3097252 54.0049125,80.7331117 54.1125375,85.323627 C54.2208187,89.913492 50.0168812,96.5271117 46.3550062,99.943173 M105.403069,71.3355288 C99.0466312,68.8611117 89.8282875,68.2309644 83.0183812,69.2623509 C74.7115687,70.5193939 68.1320062,75.7127436 68.1320062,75.7127436 C68.1320062,75.7127436 67.0544437,74.5376393 65.9775375,74.430989 C65.3140687,74.365308 62.0216625,74.1461546 61.6062562,74.1481055 C61.1901937,74.1461546 57.8977875,74.365308 57.234975,74.430989 C56.1574125,74.5376393 55.07985,75.7127436 55.07985,75.7127436 C55.07985,75.7127436 48.5002875,70.5193939 40.1941312,69.2623509 C33.3835687,68.2309644 24.165225,68.8611117 17.8087875,71.3355288 C15.7416,72.1399583 8.00638125,73.8977374 8.00638125,73.8977374 L8.00638125,78.5942528 C8.00638125,78.5942528 11.181975,77.7052834 12.5305687,80.5152589 C13.1946937,81.8991117 13.1106937,91.5177988 18.2832562,98.7160442 C22.5036,104.588964 29.0588812,106.071013 36.4672875,105.74521 C48.5849437,105.212609 54.336975,95.645946 57.450225,83.0774675 C57.450225,83.0774675 53.5776937,78.3757497 61.6062562,78.4024123 C69.6348187,78.4290748 65.7622875,83.0774675 65.7622875,83.0774675 C68.8748812,95.645946 74.6269125,105.212609 86.7445687,105.74521 C94.152975,106.071013 100.708256,104.588964 104.9286,98.7160442 C110.101162,91.5177988 110.017819,81.8991117 110.681287,80.5152589 C112.029881,77.7052834 115.205475,78.5942528 115.205475,78.5942528 L115.205475,73.8977374 C115.205475,73.8977374 107.470256,72.1399583 105.403069,71.3355288" id="Fill-295" fill="#142019"></path>
                </g>
            </g>
        </g>
    </g>
</svg>