<?xml version="1.0" encoding="UTF-8"?>
<svg width="218px" height="277px" viewBox="0 0 218 277" version="1.1" xmlns="http://www.w3.org/2000/svg" xmlns:xlink="http://www.w3.org/1999/xlink">
    <!-- Generator: Sketch 61.2 (89653) - https://sketch.com -->
    <title>Group 94</title>
    <desc>Created with Sketch.</desc>
    <defs>
        <polygon id="path-1" points="0.602516471 0.372272152 211.586787 0.372272152 211.586787 136.038047 0.602516471 136.038047"></polygon>
    </defs>
    <g id="Symbols" stroke="none" stroke-width="1" fill="none" fill-rule="evenodd">
        <g id="avatar-/-poppetje-5" transform="translate(8.000000, -18.000000)">
            <g id="Group-94" transform="translate(-8.000000, 18.000000)">
                <path d="M93.3498096,197.590513 C93.3498096,197.590513 79.8158055,194.371442 73.5000625,188.665962 C67.1836915,182.959871 64.1765537,179.302058 70.4922967,175.790288 C76.8080396,172.27913 98.3120893,167.012392 106.432869,167.012392 C114.55302,167.012392 137.862106,166.426995 143.726276,173.303268 C149.591702,180.180153 149.977329,194.729524 141.362897,196.818132 C132.749092,198.90735 93.3498096,197.590513 93.3498096,197.590513" id="Fill-1" fill="#B34218"></path>
                <g id="Group-24" transform="translate(3.000000, 9.000000)">
                    <g id="Group-5" transform="translate(0.000000, 131.068620)">
                        <mask id="mask-2" fill="white">
                            <use xlink:href="#path-1"></use>
                        </mask>
                        <g id="Clip-4"></g>
                        <path d="M169.348281,60.4383497 C169.348281,60.4383497 161.804199,55.0651575 147.545952,50.3342636 C133.295811,45.5990214 123.473352,37.0410481 123.473352,26.9456584 L123.473352,0.372272152 L106.313822,0.372272152 L105.875481,0.372272152 L88.7159518,0.372272152 L88.7159518,26.9456584 C88.7159518,37.0410481 78.8934929,45.5990214 64.6433518,50.3342636 C50.3844812,55.0651575 42.8410224,60.4383497 42.8410224,60.4383497 L0.602516471,136.038233 L29.4320224,136.038233 L56.8673165,99.4818902 C56.8673165,99.4818902 62.8457165,110.123296 67.5352812,136.038233 L105.875481,136.038233 L106.313822,136.038233 L144.654022,136.038233 C149.343587,110.123296 155.321364,99.4818902 155.321364,99.4818902 L182.757281,136.038233 L211.586787,136.038233 L169.348281,60.4383497 Z" id="Fill-3" fill="#DDC695" mask="url(#mask-2)"></path>
                    </g>
                    <path d="M171.510182,54.7694766 C171.510182,104.005311 149.536382,144.352083 106.934359,144.352083 C64.3354529,144.352083 40.6787471,103.576076 40.6787471,54.3408636 C40.6787471,5.09509073 65.0543824,0.0896360279 107.652665,0.0896360279 C150.255312,0.0896360279 171.510182,5.52494611 171.510182,54.7694766" id="Fill-6" fill="#F4D9A3"></path>
                    <path d="M90.1107247,83.5541955 C90.1107247,90.3163424 84.5407365,95.8019679 77.6800424,95.8019679 C70.8137365,95.8019679 65.2555953,90.3163424 65.2555953,83.5541955 C65.2555953,76.7914274 70.8137365,71.3089077 77.6800424,71.3089077 C84.5407365,71.3089077 90.1107247,76.7914274 90.1107247,83.5541955" id="Fill-8" fill="#8F6240"></path>
                    <path d="M86.9132659,83.5511517 C86.9132659,88.2702432 83.06796,92.1041556 78.3335012,92.1041556 C73.5940541,92.1041556 69.7537365,88.2702432 69.7537365,83.5511517 C69.7537365,78.8401355 73.5940541,75.0062231 78.3335012,75.0062231 C83.06796,75.0062231 86.9132659,78.8401355 86.9132659,83.5511517" id="Fill-10" fill="#2A1D01"></path>
                    <path d="M74.7182153,79.1228337 C74.7182153,80.4856989 73.6039682,81.600714 72.2384388,81.600714 C70.8679212,81.600714 69.7536741,80.4856989 69.7536741,79.1228337 C69.7536741,77.7599686 70.8679212,76.6548924 72.2384388,76.6548924 C73.6039682,76.6548924 74.7182153,77.7599686 74.7182153,79.1228337" id="Fill-12" fill="#FFFFFF"></path>
                    <path d="M82.2313082,114.276432 C89.7897318,118.84085 97.8800259,121.659757 106.080685,121.554156 C114.329979,121.554156 122.233838,118.374966 130.092802,114.276432 C127.205861,117.666202 123.595626,120.477033 119.501532,122.502075 C115.415544,124.560038 110.788955,125.681886 106.121214,125.754611 C101.457838,125.762639 96.7988259,124.725893 92.6847788,122.700852 C88.5738494,120.708112 84.8619788,117.896659 82.2313082,114.276432" id="Fill-14" fill="#A8856F"></path>
                    <path d="M123.420165,83.5541955 C123.420165,90.3163424 128.989529,95.8019679 135.850847,95.8019679 C142.716529,95.8019679 148.275294,90.3163424 148.275294,83.5541955 C148.275294,76.7914274 142.716529,71.3089077 135.850847,71.3089077 C128.989529,71.3089077 123.420165,76.7914274 123.420165,83.5541955" id="Fill-16" fill="#8F6240"></path>
                    <path d="M126.617312,83.5511517 C126.617312,88.2702432 130.462618,92.1041556 135.197076,92.1041556 C139.936524,92.1041556 143.776841,88.2702432 143.776841,83.5511517 C143.776841,78.8401355 139.936524,75.0062231 135.197076,75.0062231 C130.462618,75.0062231 126.617312,78.8401355 126.617312,83.5511517" id="Fill-18" fill="#2A1D01"></path>
                    <path d="M127.102916,79.1228337 C127.102916,80.4856989 128.217164,81.600714 129.582693,81.600714 C130.953211,81.600714 132.066834,80.4856989 132.066834,79.1228337 C132.066834,77.7599686 130.953211,76.6548924 129.582693,76.6548924 C128.217164,76.6548924 127.102916,77.7599686 127.102916,79.1228337" id="Fill-20" fill="#FFFFFF"></path>
                    <path d="M81.9615694,12.6142676 C81.9646871,13.5155973 82.0307812,14.4150635 82.1205694,15.3095602 C82.2203341,16.2021935 82.3494047,17.0929631 82.5545459,17.9644763 C82.7646753,18.8341259 82.9953812,19.6994273 83.3408165,20.5193826 C83.6874988,21.3356109 84.1189812,22.1139473 84.6776635,22.7860622 L84.3004282,22.8506647 L85.46144,19.5832669 L86.6492635,16.3251868 L86.8612635,15.7425215 L87.1605576,16.2885372 L90.3835812,22.161778 L89.8255224,22.1853828 L92.4187812,16.3102785 L92.64824,15.7915946 L92.9213459,16.2848102 C93.7387929,17.761351 94.5743224,19.2273318 95.3755576,20.7131902 L94.9783694,20.6734348 L97.6857341,17.6489177 L97.8441106,17.4718819 L97.9775459,17.6619624 L99.7115812,20.1404638 L99.5226518,20.1100261 L101.87024,18.4986896 L101.933216,18.4552071 L101.972499,18.5235367 C102.165169,18.8583518 102.455734,19.1602445 102.745675,19.4397747 C103.039981,19.7199261 103.356734,19.9777151 103.686581,20.2199747 C103.342393,19.9994564 103.008805,19.7603027 102.693922,19.496302 C102.379664,19.2298165 102.082864,18.9484227 101.84904,18.5862758 L101.951299,18.6105017 L99.6816518,20.329302 L99.5756518,20.409434 L99.4920988,20.2988643 L97.6751341,17.879996 L97.9669459,17.8924196 L95.3468753,20.9914781 L95.1267694,21.2517518 L94.9503106,20.9517227 C94.0935812,19.4969231 93.2717694,18.022867 92.4318753,16.5587498 L92.9338165,16.5332815 L90.3954282,22.4326118 L90.1416518,23.0227311 L89.8373694,22.4568377 L86.6654753,16.5556439 L87.1773929,16.5183732 L85.95964,19.7658933 L84.7150753,23.0034746 L84.5735341,23.3712122 L84.33784,23.0680771 C83.1855576,21.5853246 82.6119106,19.7969522 82.2851812,18.01914 C82.1180753,17.1265068 82.0295341,16.2239347 81.9715459,15.3213626 C81.9166753,14.4194118 81.9066988,13.514355 81.9615694,12.6142676" id="Fill-22" fill="#A8713F"></path>
                </g>
                <g id="Group-29" transform="translate(20.000000, 179.000000)">
                    <path d="M152.267656,19.5432471 C149.879071,17.4568084 115.233001,0.157014839 115.233001,0.157014839 C113.651684,4.4118729 102.214557,10.3676729 90.4389796,10.51286 C77.8291838,10.6686858 64.83205,4.71413742 63.1391697,0.157014839 C63.1391697,0.157014839 28.4930993,17.4568084 26.1045148,19.5432471 C23.716557,21.6296858 0.432402113,62.3146148 0.432402113,62.3146148 C0.432402113,62.3146148 1.11807817,61.4535052 4.01433873,62.3146148 C11.0296697,64.4010535 26.7018176,76.47286 26.7018176,82.5826084 L40.7318528,67.5307116 C40.7318528,67.5307116 42.2674162,85.9100213 43.6042965,96.6156923 L86.7435993,96.6156923 L91.6285711,96.6156923 L134.767874,96.6156923 C136.104754,85.9100213 137.640318,67.5307116 137.640318,67.5307116 L151.670353,82.5826084 C151.670353,76.47286 167.342501,64.4010535 174.357832,62.3146148 C177.254092,61.4535052 177.939768,62.3146148 177.939768,62.3146148 C177.939768,62.3146148 154.655613,21.6296858 152.267656,19.5432471" id="Fill-25" fill="#DFE5E8"></path>
                    <path d="M89.2133493,16.0817239 C108.009899,16.0817239 117.574265,7.40053677 121.110448,3.18573032 C120.916152,3.08747871 120.72499,2.99110452 120.538215,2.89723355 C117.017075,7.04820774 107.615666,15.4559174 89.2133493,15.4559174 C70.0394901,15.4559174 60.3184338,6.96873032 57.0172859,3.30838839 C56.828631,3.40351097 56.6362155,3.50051097 56.4406662,3.59938839 C59.723638,7.28726581 69.6063986,16.0817239 89.2133493,16.0817239" id="Fill-27" fill="#CBD0D4"></path>
                </g>
                <g id="Group-42" transform="translate(0.000000, 182.000000)">
                    <path d="M89.5668928,93.6178371 C89.5668928,93.6178371 90.1534315,35.9541285 89.5668928,30.7218768 C88.9803542,25.4890026 83.098102,12.6365258 72.3767496,0.391625166 C72.3767496,0.391625166 49.5791966,10.3823934 45.0411736,13.5074265 C40.5037754,16.6312146 0.000124928367,93.6178371 0.000124928367,93.6178371 L38.1776092,93.6178371 L59.494761,68.2191616 L61.5117295,93.6178371 L89.5668928,93.6178371 Z" id="Fill-30" fill="#D14E20"></path>
                    <path d="M89.436655,93.6178371 C90.0231937,35.9441682 90.0350619,36.0587113 89.436655,30.7218768 C88.8501163,25.4890026 86.0754573,15.4969894 71.8217553,3.24150596" id="Stroke-32" stroke="#FFFFFF" stroke-width="4"></path>
                    <path d="M44.4978602,14.0305894 C54.5158659,19.4016623 59.5810865,60.7355166 58.8746166,67.4954238 C58.8084046,68.1291457 58.7421926,68.6919007 58.6772298,69.193649 L59.4955106,68.2194106 L59.7035163,70.8389603 C59.8403129,69.9954503 59.9789834,68.9446424 60.1170292,67.6242848 C60.6991954,62.0546291 56.4703702,20.1673576 45.5191496,13.1945497 C45.3436252,13.3053576 45.1837169,13.4093179 45.0419232,13.507053 C44.8970063,13.6066556 44.7139862,13.7840728 44.4978602,14.0305894" id="Fill-34" fill="#B3431F"></path>
                    <path d="M127.928397,93.6178371 C127.928397,93.6178371 127.341858,35.9541285 127.928397,30.7218768 C128.514935,25.4890026 134.397187,12.6365258 145.11854,0.391625166 C145.11854,0.391625166 167.916093,10.3823934 172.454116,13.5074265 C176.991514,16.6312146 217.495164,93.6178371 217.495164,93.6178371 L179.317056,93.6178371 L158.000528,68.2191616 L155.98356,93.6178371 L127.928397,93.6178371 Z" id="Fill-36" fill="#D14E20"></path>
                    <path d="M128.058634,93.6178371 C127.472096,35.9441682 127.460228,36.0587113 128.058634,30.7218768 C128.645173,25.4890026 131.419832,15.4969894 145.673534,3.24150596" id="Stroke-38" stroke="#FFFFFF" stroke-width="4"></path>
                    <path d="M172.997179,14.0305894 C162.979174,19.4016623 157.914578,60.7355166 158.621048,67.4954238 C158.68726,68.1291457 158.752847,68.6919007 158.81781,69.193649 L157.999529,68.2194106 L157.791523,70.8389603 C157.654727,69.9954503 157.516056,68.9446424 157.378635,67.6242848 C156.795844,62.0546291 161.024669,20.1673576 171.97589,13.1945497 C172.152039,13.3053576 172.311323,13.4093179 172.453116,13.507053 C172.598033,13.6066556 172.781053,13.7840728 172.997179,14.0305894" id="Fill-40" fill="#B3431F"></path>
                </g>
                <g id="Group-93" transform="translate(42.000000, 0.000000)">
                    <path d="M120.460678,18.3051664 C96.867285,0.960149517 47.6473318,2.2134901 21.9857056,14.9318862 C-6.63832243,29.1196519 0.200060748,73.547751 4.5362757,93.3541326 C4.5362757,93.3541326 9.51243458,55.6949418 21.9130701,50.2172413 C34.3137056,44.7395408 43.7319019,42.1024973 67.2144626,42.1024973 C90.6976495,42.1024973 100.115846,44.7395408 112.516481,50.2172413 C124.917117,55.6949418 129.927089,93.3541326 129.927089,93.3541326 C134.263304,73.547751 138.674033,31.6946181 120.460678,18.3051664" id="Fill-43" fill="#754B1D"></path>
                    <path d="M118.016868,48.6684749 C115.860345,45.6105473 111.119625,43.2187092 104.93684,41.4128807 C103.530466,41.001929 102.050205,40.6220159 100.508579,40.2719 C99.7909897,40.1080159 99.0608776,39.9515812 98.3182421,39.8007333 C97.6613916,39.6678879 96.9951486,39.5393879 96.3207654,39.4158541 C95.4322327,39.2532116 94.5292981,39.0992599 93.6144664,38.9533783 C84.7817374,37.5454652 74.7962327,36.9073106 65.5759056,36.9073106 C64.412485,36.9073106 61.9384944,36.2499121 61.9384944,36.2499121 L58.508971,37.1134072 L55.0600364,36.4684242 L52.6254944,37.5796077 L49.7595224,36.4684242 L47.3813355,38.210313 L43.8547561,35.3113034 C43.8547561,35.3113034 43.6118028,38.7888734 42.8597748,38.9204773 C30.1667187,41.138499 19.7948682,44.8941754 17.1975224,48.6684749 C15.4580271,51.1950208 10.789943,60.9995087 10.789943,60.9995087 L8.74112056,62.5917913 L9.32721402,65.2350425 L8.12434486,67.1588179 C8.12434486,67.1588179 7.51633551,74.0152551 7.41113925,75.1674097 C7.24207383,77.0104845 7.06799907,78.6648444 6.98972804,80.1466295 C9.62527009,68.771586 14.467429,53.8804845 21.9131953,50.5916295 C34.3138308,45.1133082 43.7320271,42.475644 67.2145879,42.475644 C90.6977748,42.475644 100.115971,45.1133082 112.516607,50.5916295 C120.45642,54.0983758 125.411289,70.7971681 127.949149,82.3584435 C127.771943,71.423528 123.259775,56.1003686 118.016868,48.6684749" id="Fill-45" fill="#54340A"></path>
                    <path d="M33.1609925,46.1047447 L32.9124037,46.0941915 C32.8247402,46.0892254 32.7414598,46.0805345 32.7145346,46.0743268 L32.4584318,46.0290104 L32.2048336,45.9768655 L32.0007028,45.9154089 C31.7389645,45.8309838 31.4528056,45.7428341 31.2461701,45.6323365 C31.0251327,45.5255635 30.7984598,45.4181698 30.5918243,45.3008437 L30.0332822,44.9277592 C29.3188243,44.4131384 28.744628,43.8438896 28.271871,43.25788 L27.9061888,42.820235 L27.605628,42.3695539 L27.0220393,41.4700539 C26.7164692,40.8585925 26.3745813,40.255822 26.120357,39.6443606 C25.0583757,37.2047229 24.5486748,34.752049 24.1297682,32.3254476 C23.9550673,31.1074911 23.752815,29.9013292 23.6751701,28.6877181 C23.5680953,27.4772109 23.4497495,26.2747737 23.4284598,25.0673703 C23.295086,22.6606336 23.3470579,20.258863 23.3614598,17.8726118 C23.8154318,20.2247205 24.2299551,22.56938 24.8235626,24.8699645 C25.0740299,26.0283268 25.4196748,27.1612374 25.7502916,28.2910442 C26.0521047,29.428921 26.4710112,30.5233437 26.8561047,31.6196287 C27.6820206,33.7774355 28.6093757,35.9066867 29.8429271,37.6597495 C30.140357,38.1042229 30.4847495,38.4835152 30.791572,38.8938461 L31.3056561,39.4084669 L31.5561234,39.6642254 L31.8203664,39.8634935 C32.1610019,40.1496698 32.5135346,40.3526626 32.8122168,40.4730925 C32.8867308,40.4979234 32.958114,40.5252374 33.0276187,40.5550345 L33.1985626,40.5780031 C33.2618056,40.6009717 33.2737028,40.5680708 33.2993757,40.5686915 C33.3031327,40.5668292 33.3131514,40.5686915 33.3118991,40.5655877 C33.3025065,40.5575176 33.2918617,40.5519307 33.2812168,40.5463437 C33.2699458,40.5407568 33.2593009,40.5370321 33.2480299,40.5339283 L33.1616187,40.5239959 C33.1165346,40.5202713 33.0708243,40.5190297 33.025114,40.5190297 C34.5811421,40.4817833 35.8729271,41.7022229 35.909871,43.2448437 C35.9474411,44.7868437 34.7170206,46.0668775 33.1609925,46.1047447" id="Fill-47" fill="#54340A"></path>
                    <path d="M37.5346523,44.0357085 C37.4419794,44.0114983 37.3129888,43.9723896 37.254129,43.9488002 L37.0988393,43.8836191 C36.9986523,43.840165 36.8834374,43.7911239 36.8120542,43.7476698 C36.654886,43.6588993 36.4833159,43.5670249 36.3449327,43.4720466 C36.0750542,43.2808486 35.802671,43.0865466 35.5904,42.8792085 C35.3574654,42.6762157 35.1464467,42.4663944 34.9661103,42.2485031 C34.7776336,42.0330949 34.5835215,41.8201698 34.436372,41.5948292 L33.9730075,40.9281191 L33.5897925,40.2465104 C33.3174093,39.7989331 33.1558579,39.3302495 32.9448393,38.8752229 C32.2015776,37.0371143 31.8377738,35.1878316 31.5578766,33.3627592 C31.3405963,31.5302374 31.2228766,29.7163389 31.2272598,27.9123727 C31.2472972,27.0091481 31.2209981,26.1127519 31.2804841,25.2169766 L31.4364,22.5383413 L31.8277551,25.1846964 C31.9498579,26.0637109 32.1571196,26.9315514 32.3174187,27.799392 C32.6724561,29.5313486 33.1439607,31.2260587 33.6912318,32.86552 C34.2917271,34.4789089 34.9717458,36.0525684 35.865914,37.3804017 C36.1051103,37.6932713 36.3061103,38.0452495 36.5691009,38.3115611 L36.9366617,38.735549 L37.3273907,39.0968389 C37.4519981,39.2272012 37.5897551,39.3141094 37.7199981,39.4103292 C37.8483626,39.5164814 37.9786056,39.5934572 38.1050916,39.6567761 C38.2322037,39.7412012 38.3474187,39.7716191 38.4557458,39.8187978 C38.5083439,39.8392833 38.5440355,39.8343171 38.5847364,39.8479742 C38.6116617,39.8585273 38.6047738,39.843008 38.6085308,39.8399041 L38.6104093,39.8343171 C38.6035215,39.8299717 38.5290075,39.8038993 38.490185,39.7952085 L37.5346523,44.0357085 Z" id="Fill-49" fill="#54340A"></path>
                    <path d="M41.970428,43.1555145 C41.7218393,43.028256 41.6755028,42.9779734 41.5389981,42.8904444 C41.4262879,42.8122271 41.3392505,42.7383551 41.2396897,42.6613792 C41.0393159,42.5092899 40.8884093,42.3509928 40.7155869,42.1951787 C40.399372,41.8748599 40.1056991,41.5508164 39.8564841,41.207529 C39.5847271,40.8760362 39.3849794,40.5141256 39.1620636,40.1683551 C38.9666991,39.8101691 38.7851103,39.4495 38.6172972,39.0900725 C37.9754748,37.6337391 37.671157,36.1382971 37.5603252,34.6844469 C37.4714093,33.9575217 37.5064748,33.234942 37.5027178,32.5229155 C37.5290168,31.8115097 37.6066617,31.1075531 37.6705308,30.4122874 C37.7869981,29.7188841 37.8853065,29.0310676 38.0180542,28.3531836 L38.4951944,26.3431208 L38.5646991,28.3916715 C38.6147925,29.0695556 38.7005776,29.7424734 38.7663252,30.407942 C38.884671,31.069686 38.988615,31.7277053 39.1388953,32.368343 C39.3186056,33.0033937 39.4569888,33.6403068 39.7043252,34.2350072 C40.1326243,35.4405483 40.7193439,36.5566981 41.4607271,37.4543357 C41.6510822,37.6728478 41.8439421,37.8832899 42.0368019,38.0844203 C42.2490729,38.2632029 42.4369234,38.4661957 42.6573346,38.6108357 C42.8645963,38.7753406 43.0837551,38.9038406 43.291643,39.0211667 C43.3955869,39.0652415 43.5032879,39.1335266 43.5959607,39.159599 C43.6404187,39.1738768 43.6930168,39.198087 43.7293346,39.2055362 C43.7424841,39.1999493 43.8420449,39.2396787 43.749372,39.18443 L41.970428,43.1555145 Z" id="Fill-51" fill="#54340A"></path>
                    <path d="M111.726445,44.0247829 C111.713921,44.0558215 111.782174,43.9906403 111.817865,43.9651886 C111.859193,43.9347708 111.910538,43.8820051 111.956875,43.8404133 C112.052679,43.7578505 112.148482,43.6510775 112.246164,43.5523746 C112.437146,43.3468988 112.633763,43.1296283 112.814099,42.8943553 C113.188548,42.4337418 113.529809,41.9240872 113.851034,41.3958094 C114.49223,40.3355292 115.018211,39.1709592 115.455277,37.9542442 C115.874183,36.7313215 116.199164,35.4525292 116.41895,34.1414568 C116.545436,33.4865413 116.592398,32.8216935 116.683819,32.153121 C116.737669,31.4845486 116.766473,30.8103891 116.8078,30.1306428 C116.947436,30.7911452 117.102099,31.4572345 117.23109,32.1301524 C117.323136,32.8049326 117.459015,33.4852998 117.514118,34.173737 C117.65751,35.5499906 117.691323,36.9516959 117.605538,38.3720244 C117.500968,39.7880075 117.284314,41.2213722 116.886697,42.6454254 C116.686323,43.3574519 116.452763,44.0688577 116.148445,44.7728143 C116.004426,45.1272756 115.834108,45.4773915 115.651893,45.8318529 C115.555464,46.0087732 115.467174,46.1844519 115.353211,46.3663384 C115.296856,46.4588336 115.25052,46.5438795 115.18352,46.6419616 C115.110884,46.7462514 115.075193,46.8145365 114.948707,46.9697297 L111.726445,44.0247829 Z" id="Fill-53" fill="#54340A"></path>
                    <path d="M107.391858,43.6422626 C107.508325,43.545422 107.697428,43.3281514 107.850213,43.1456442 C108.013643,42.95755 108.169559,42.7514534 108.329232,42.5503229 C108.639811,42.1381297 108.946634,41.7122795 109.233419,41.2684268 C109.809493,40.3832046 110.350503,39.4520452 110.81512,38.4768109 C111.280363,37.5015766 111.712419,36.4928205 112.054307,35.4461973 C112.419989,34.4032988 112.685484,33.3250162 112.925933,32.223765 C113.05054,33.3368109 113.148222,34.4734461 113.136325,35.6175307 C113.148222,36.7659606 113.059933,37.9181152 112.920923,39.0777191 C112.78254,40.2385645 112.551484,41.3944437 112.255933,42.5509437 C112.109409,43.1295041 111.934082,43.7049606 111.743101,44.2829002 C111.641036,44.5715597 111.543979,44.8608399 111.42626,45.1526031 C111.307288,45.4542988 111.207727,45.7125403 111.019877,46.0806587 L107.391858,43.6422626 Z" id="Fill-55" fill="#54340A"></path>
                    <path d="M123.985316,62.8389831 C123.86697,62.8619517 123.961521,62.8600894 123.959643,62.8718841 C123.983437,62.8787126 124.029148,62.877471 124.064213,62.8811957 C124.13497,62.8929903 124.235783,62.8737464 124.324699,62.8743671 C124.51255,62.850157 124.716054,62.8216014 124.92269,62.7582826 C125.133082,62.7173116 125.337839,62.6186087 125.554493,62.5459783 C125.763007,62.4503792 125.975905,62.3467101 126.190054,62.2355918 C127.03726,61.7662874 127.840007,61.0691594 128.548204,60.2478768 C128.926409,59.853686 129.230727,59.3918309 129.568858,58.9430121 C129.884447,58.4799155 130.169353,57.9888841 130.467409,57.4978527 C130.724138,56.9881981 130.999652,56.4785435 131.248241,55.952128 L131.933895,54.3387391 L131.776101,56.0986304 C131.699708,56.6852609 131.592634,57.2706498 131.498708,57.8665918 C131.360951,58.4494976 131.231335,59.0448188 131.057886,59.6326908 C130.860017,60.2131135 130.689073,60.8127802 130.416064,61.3845121 C129.922643,62.5459783 129.257026,63.6937874 128.315269,64.7224082 C128.074194,64.9738213 127.821222,65.2227512 127.556979,65.4654734 C127.273325,65.6914348 127.003447,65.9360193 126.681596,66.1371498 C126.374774,66.3531787 126.035391,66.5425145 125.676596,66.7206763 C125.484989,66.8032391 125.313419,66.8926304 125.098017,66.9646401 C124.990316,67.0006449 124.895764,67.0378913 124.77554,67.0720338 C124.629643,67.1067971 124.581428,67.1359734 124.317185,67.1713575 L123.985316,62.8389831 Z" id="Fill-57" fill="#54340A"></path>
                    <polygon id="Fill-59" fill="#754B1D" points="23.106171 14.9321345 25.3628813 5.29773841 28.0691804 9.37559589 35.5857037 3.21318285 35.5857037 8.21599203 44.6144234 1.95177222 45.5856103 5.29773841 51.4221243 3.56329879 51.223629 6.12460797 62.9342271 0.581726329 63.555386 5.29773841 67.4983673 1.9294244 68.6599093 5.05563696 85.9120963 2.12000169 85.9120963 4.2858785 94.4505262 5.29773841 94.4505262 6.9179558 98.7980121 6.9179558 98.7980121 8.89263454 111.0659 8.58721425 113.337638 14.4864196 115.162293 14.9321345 115.162293 16.4704099 127.517844 31.6060959 130.93547 29.1192795 130.93547 34.3244606 132.787676 34.3244606 132.39319 41.29512 133.826489 41.29512 133.665564 52.6440911 124.151564 33.1356804 111.839218 21.9176925 81.5646103 9.83124324 47.0984327 15.8546031"></polygon>
                    <path d="M20.7865308,21.9176304 C20.7865308,21.9176304 20.2780822,16.6925845 17.2242598,13.539058 L16.4747364,18.3512899 L13.6613626,17.8720531 L12.9694467,21.4315652 L11.116615,21.9176304 L10.6883159,23.9984614 L9.08031589,45.49707 L20.7865308,22.7476039 L20.7865308,21.9176304 Z" id="Fill-61" fill="#754B1D"></path>
                    <polygon id="Fill-63" fill="#54340A" points="15.6053019 53.2333287 11.3373393 46.9939399 18.0974514 50.4460582"></polygon>
                    <polygon id="Fill-65" fill="#54340A" points="14.1181523 56.5572575 10.1595168 52.460156 15.8275916 53.2404676"></polygon>
                    <path d="M64.8827374,28.3642333 C64.7706533,28.1960039 64.6660832,28.0271536 64.5702794,27.8583034 C64.4813636,27.698144 64.3836813,27.495772 64.3573822,27.3747213 L64.2797374,27.0183976 L63.8414196,27.1971802 C63.183943,27.4653541 62.5358589,27.7515304 61.8896533,28.0395691 C61.5515224,27.3027116 61.1977374,26.5751657 60.8520925,25.8426536 L60.3743262,24.8320353 L59.357429,25.6291077 C58.7588121,26.0990329 58.1783542,26.5875812 57.5910084,27.0686802 C57.1827467,26.0077792 56.7782421,24.9443952 56.3486907,23.892185 L55.2647935,21.2340353 L53.729429,23.7667889 C53.1621206,24.7029145 52.6060832,25.6446271 52.0563075,26.590685 C51.581672,25.5043324 51.1001486,24.419842 50.6048495,23.3421802 L49.2466907,20.3841971 L47.9261019,23.2683082 C47.4445785,24.3198976 46.9768308,25.3783155 46.5153449,26.4398372 C46.3575505,26.8048517 46.2066439,27.1735908 46.050728,27.5392261 C46.0338215,27.4988758 46.0156626,27.4616295 45.9993822,27.4206585 C45.6881766,26.6446923 45.4971953,25.8041657 45.2955692,24.9543275 C45.101457,24.100144 45.0018963,23.2198879 44.8860551,22.3315618 C44.7915037,21.442615 44.7176159,20.5424942 44.680672,19.6311995 C44.4120458,20.5064894 44.234214,21.4078517 44.1045972,22.3191464 C43.9680925,23.2310618 43.9061019,24.1560135 43.907324,25.0927599 C43.9054757,26.0319894 43.9912607,26.9786681 44.1872514,27.9346585 C44.3901299,28.8881657 44.7019617,29.8559507 45.2442234,30.7759362 L46.2053916,32.4048444 L47.2285505,30.6344 C47.8090084,29.6306101 48.3700551,28.6168879 48.9285972,27.6019242 C48.9699243,27.5274314 49.0087467,27.4523179 49.0494477,27.3778251 C49.4971579,28.4796971 49.9517561,29.5784652 50.4132421,30.6747502 L51.6593168,33.6339749 L53.2216065,30.8305643 C53.8070738,29.7808372 54.3856533,28.7280063 54.957971,27.6714507 C55.2766907,28.3139507 55.5828869,28.9614169 55.9097467,29.6001923 L56.7412981,31.2247551 L57.9084757,30.0030739 C58.5878682,29.2922889 59.2522327,28.5659845 59.9165972,27.8396802 C60.2559804,28.3226415 60.5972421,28.8037406 60.9547841,29.2761488 L61.4093822,29.8776778 L61.895915,29.5225957 C62.5840738,29.0210111 63.273485,28.5212889 63.9522514,28.0029435 C64.006728,28.0656415 64.062457,28.1258565 64.1213168,28.1897961 C64.2703449,28.3480932 64.4312701,28.4896295 64.5972047,28.6224749 C64.9278215,28.8887865 65.2697093,29.1277841 65.6310084,29.335743 C65.3655131,29.0179072 65.1062794,28.6994507 64.8827374,28.3642333" id="Fill-67" fill="#A8713F"></path>
                    <path d="M21.6685514,39.682414 C21.2634206,39.2919478 20.8501495,38.5457787 20.5276729,37.7828488 C20.1939252,37.011228 19.8889813,36.1887039 19.6078318,35.3444527 L18.7718972,32.7688657 C18.492,31.8979213 18.2189907,31.0189068 17.8990187,30.1305807 C17.7274486,31.0604986 17.6723458,31.9941411 17.6529346,32.9296459 C17.6366542,33.8651507 17.6848692,34.8025179 17.7963271,35.739885 C17.8664579,36.3600372 17.9879346,36.9808101 18.1344579,37.6028246 C17.9497383,37.4823947 17.7600093,37.3625855 17.5853084,37.2396725 L17.4732243,37.1614551 C17.1864393,36.9634285 16.8119907,36.8976266 16.4550748,37.0161942 C15.8558318,37.2148415 15.532729,37.8579623 15.7331028,38.452042 C15.8796262,38.8859623 16.0380467,39.2733246 16.210243,39.6749647 C16.3786822,40.0747425 16.5659065,40.4658295 16.7656542,40.8550541 C17.0192523,41.3411193 17.2978972,41.820356 17.621,42.285315 C17.4694673,42.2927643 17.3160561,42.293385 17.159514,42.2815903 C16.8827477,42.2691749 16.5978411,42.2275831 16.3129346,42.1617812 C16.0248972,42.1009454 15.7393645,42.0121749 15.4438131,41.9196797 C15.8489439,42.3827763 16.3567664,42.7645517 16.9503738,43.0513488 C17.2515607,43.1817111 17.5721589,43.2891048 17.9152991,43.3518029 C18.0874953,43.3822208 18.2634486,43.4070517 18.4469159,43.4107763 C18.6435327,43.4076725 18.7906822,43.414501 19.0630654,43.3474575 C19.0993832,43.3387667 19.1388318,43.3244889 19.1745234,43.3089696 C19.4844766,43.1661918 19.6191028,42.8017981 19.4750841,42.4951362 L19.3886729,42.3095251 C19.1851682,41.8749841 19.0142243,41.4019551 18.8526729,40.9189937 C18.9541121,40.9773464 19.0536729,41.0394237 19.1557383,41.0965348 C19.512028,41.2883536 19.8551682,41.4665155 20.2365047,41.6521266 L20.2609252,41.6639213 C20.7286729,41.8917449 21.309757,41.8079406 21.692972,41.4174744 C22.1688598,40.93203 22.158215,40.155443 21.6685514,39.682414" id="Fill-69" fill="#A8713F"></path>
                    <path d="M129.101361,41.2440304 C128.978006,41.2322357 128.854024,41.2216826 128.730669,41.2092671 C128.803931,40.1893372 128.874062,39.1687865 128.907249,38.1494773 L128.981763,35.856342 L127.835249,37.0972671 C127.810828,36.5696101 127.78265,36.0419531 127.731931,35.5099507 C127.666183,34.8550353 127.576641,34.1970159 127.442641,33.5346512 C127.301127,32.8691826 127.148968,32.2068179 126.74509,31.4755473 L126.252295,30.5810135 L125.56351,31.2514483 L125.127071,31.6766778 C125.095763,31.5997019 125.065707,31.5227261 125.034398,31.4451295 C124.869716,31.0354193 124.690006,30.6300546 124.485875,30.235243 C124.288006,29.8379483 124.076361,29.4456198 123.82652,29.0737768 C123.58294,28.7019338 123.313688,28.3331947 122.972426,28.0463976 C123.175931,28.4368638 123.300538,28.8478155 123.423893,29.2569048 C123.537856,29.6697188 123.646183,30.0819121 123.737604,30.4990715 L123.999342,31.7524121 L124.222258,33.002028 L124.399464,33.9996101 L125.292379,33.3459362 L125.619865,33.1069386 C125.663071,33.338487 125.701267,33.5781053 125.730071,33.8177237 C125.800828,34.4198734 125.855931,35.0350594 125.894127,35.6570739 C125.971146,36.897999 126.013099,38.1705836 126.036893,39.4127502 L126.086361,41.9063952 L127.295492,40.441371 C127.326174,40.8914314 127.356856,41.3402502 127.389417,41.7903106 L127.438884,42.4818517 L128.040006,42.4352937 C128.232239,42.4203952 128.425099,42.3999097 128.617333,42.3812865 C128.736931,43.5247502 128.88408,44.668214 129.101361,45.8104362 C129.356837,44.4708082 129.525903,43.1305594 129.652389,41.7903106 L129.698725,41.2992792 L129.101361,41.2440304 Z" id="Fill-71" fill="#A8713F"></path>
                    <path d="M46.7144037,231.25816 C46.7144037,231.25816 44.9580019,213.555578 39.1916187,207.319914 C33.4246093,201.084249 17.5193103,193.965846 15.3665439,185.796474 C14.4323009,182.253102 15.3264692,177.992116 18.195572,176.368174 C20.5994318,175.00744 19.9864131,171.221346 21.6576561,169.486286 C26.6738897,164.27738 41.7432542,160.477008 49.6229551,159.517293 C49.6229551,159.517293 49.6511327,167.260814 49.5440579,168.730805 C49.4357308,170.201416 48.9160112,171.830945 48.9160112,171.830945 C48.9160112,171.830945 42.7770579,173.189817 36.2492542,177.194423 C28.2217776,182.119636 38.5836093,190.114571 43.1057963,198.415546 C47.6279832,206.716522 46.8734505,218.784969 46.7144037,231.25816" id="Fill-73" fill="#F05A24"></path>
                    <path d="M39.1933093,207.320224 C38.0280103,206.099784 36.7149355,205.032055 35.3667953,204.019574 C34.0186551,203.00461 32.6304402,202.043654 31.2365897,201.090147 C28.4501411,199.183132 25.6280009,197.318951 22.9517579,195.245569 C21.615515,194.207016 20.3162159,193.116318 19.1077112,191.922572 C17.9154869,190.719514 16.7852533,189.418994 15.9687299,187.90555 C15.1183935,186.402038 14.7514589,184.657045 14.7420472,182.946195 C14.7389355,181.233482 15.120272,179.476074 16.0726738,177.984357 C16.549814,177.245016 17.1885056,176.586376 17.9649542,176.125142 C18.6518607,175.739021 19.095814,175.110178 19.4063935,174.377045 C19.7057019,173.636463 19.8854121,172.826975 20.0951785,172.005693 C20.3143374,171.189376 20.547272,170.323398 21.0983,169.553639 C23.5315897,166.90418 26.6968701,165.470195 29.8220757,164.126221 C32.9742065,162.815149 36.232786,161.802668 39.5239262,160.932345 C42.8181972,160.067608 46.1519168,159.36241 49.5482533,158.901176 L49.7010383,160.132789 C46.3773374,160.533188 43.0624028,161.179412 39.7963093,161.985176 C36.5314682,162.794043 33.2935523,163.74755 30.1777393,164.988475 C28.6085617,165.586279 27.1013748,166.311963 25.6292533,167.091654 C24.9235617,167.525574 24.1890664,167.92349 23.5397299,168.428799 L23.037543,168.789468 C22.8734869,168.912381 22.7313467,169.057642 22.5766832,169.190487 C22.2861411,169.464248 21.9336084,169.728697 21.7275991,170.014253 C21.280515,170.612678 21.0356832,171.399818 20.8146458,172.193787 C20.5942346,172.995205 20.4001224,173.830765 20.0563561,174.647081 C19.7144682,175.450982 19.1177299,176.25985 18.3037112,176.693149 C17.6186832,177.086098 17.0413561,177.658451 16.5967766,178.32392 C15.7088701,179.664789 15.3100009,181.319149 15.2899636,182.95054 C15.276814,184.588139 15.5936551,186.240016 16.3845056,187.688279 C17.1446738,189.153304 18.2298234,190.447615 19.3869822,191.651294 C20.5604215,192.846903 21.8334215,193.949395 23.1464963,195.002226 C25.7776551,197.106026 28.5691131,199.01242 31.3267579,200.963509 C32.7055804,201.938122 34.0806458,202.920806 35.4143841,203.958118 C36.7481224,204.992946 38.0467953,206.081782 39.1933093,207.320224" id="Fill-75" fill="#F97C55"></path>
                    <path d="M40.4111439,256.445526 C40.1569196,256.445526 39.9477794,256.244395 39.9415178,255.99112 L39.8244243,251.037972 C39.8187888,250.780972 40.0235458,250.567427 40.2827794,250.561219 C40.5313682,250.575497 40.757415,250.759245 40.7636766,251.016245 L40.8807701,255.968772 C40.8870318,256.225772 40.6816486,256.439318 40.422415,256.445526 L40.4111439,256.445526 Z" id="Fill-77" fill="#C7C8CA"></path>
                    <path d="M41.0743187,205.088111 C41.0743187,205.088111 41.4493935,204.41271 40.6316178,203.568458 C39.8144682,202.724207 37.9754121,202.150613 37.7024028,202.657164 C37.4300196,203.163094 38.0367766,204.210338 39.0956271,204.885118 C40.1551037,205.560519 40.8019355,205.425811 41.0743187,205.088111" id="Fill-79" fill="#D14E20"></path>
                    <path d="M40.2927981,252.578421 C39.953415,252.578421 39.6753963,252.309626 39.6672561,251.971925 L38.5244991,204.099157 C38.5163589,203.757111 38.7899944,203.472797 39.1356393,203.464002 C39.4769009,203.457899 39.7680692,203.727935 39.7762093,204.069981 L40.9189664,251.94337 C40.9271065,252.285416 40.653471,252.56973 40.3078262,252.578421 L40.2927981,252.578421 Z" id="Fill-81" fill="#FFFFFF"></path>
                    <path d="M87.4058206,231.25816 C87.4058206,231.25816 89.1622224,213.555578 94.9286056,207.319914 C100.694989,201.084249 116.600914,193.965846 118.75368,185.796474 C119.687923,182.253102 118.793755,177.992116 115.924652,176.368174 C113.520793,175.00744 114.133811,171.221346 112.462568,169.486286 C107.446335,164.27738 92.3763439,160.477008 84.4972692,159.517293 C84.4972692,159.517293 84.4684654,167.260814 84.5761664,168.730805 C84.6838673,170.201416 85.2035869,171.830945 85.2035869,171.830945 C85.2035869,171.830945 91.3431664,173.189817 97.8709701,177.194423 C105.898447,182.119636 95.536615,190.114571 91.014428,198.415546 C86.491615,206.716522 87.2467738,218.784969 87.4058206,231.25816" id="Fill-83" fill="#F05A24"></path>
                    <path d="M93.7090804,256.445526 L93.6978093,256.445526 C93.4385757,256.439318 93.2331925,256.225772 93.2394542,255.968772 L93.3565477,251.016245 C93.3628093,250.76297 93.5719495,250.561219 93.8261738,250.561219 L93.8374449,250.561219 C94.0966785,250.567427 94.3014355,250.780972 94.2958,251.037972 L94.1787065,255.99112 C94.1724449,256.244395 93.9633047,256.445526 93.7090804,256.445526" id="Fill-85" fill="#C7C8CA"></path>
                    <path d="M94.926915,207.320224 C96.073429,206.081782 97.3721019,204.992946 98.7058402,203.958118 C100.039579,202.920806 101.414644,201.938122 102.793466,200.963509 C105.551111,199.01242 108.342569,197.106026 110.973728,195.002226 C112.286803,193.949395 113.559803,192.846903 114.733242,191.651294 C115.890401,190.447615 116.97555,189.153304 117.735719,187.688279 C118.525943,186.240016 118.84341,184.588139 118.830261,182.95054 C118.810223,181.319149 118.411354,179.664789 117.522821,178.32392 C117.078242,177.658451 116.501541,177.086098 115.816513,176.693149 C115.002494,176.25985 114.405756,175.450982 114.063868,174.647081 C113.720102,173.830765 113.52599,172.995205 113.305579,172.193787 C113.084541,171.399818 112.839709,170.612678 112.391999,170.014253 C112.186616,169.728697 111.834083,169.464248 111.542915,169.190487 C111.388878,169.057642 111.246737,168.912381 111.082681,168.789468 L110.580494,168.428799 C109.931158,167.92349 109.196663,167.525574 108.490971,167.091654 C107.01885,166.311963 105.511663,165.586279 103.942485,164.988475 C100.826672,163.74755 97.5887561,162.794043 94.323915,161.985176 C91.0571953,161.179412 87.7428869,160.533188 84.419186,160.132789 L84.571971,158.901176 C87.9676813,159.36241 91.3020271,160.067608 94.5962981,160.932345 C97.8874383,161.802668 101.145392,162.815149 104.298149,164.126221 C107.423354,165.470195 110.588635,166.90418 113.021298,169.553639 C113.572952,170.323398 113.805887,171.189376 114.025046,172.005693 C114.234812,172.826975 114.414522,173.636463 114.713831,174.377045 C115.023784,175.110178 115.468364,175.739021 116.15527,176.125142 C116.931719,176.586376 117.57041,177.245016 118.04755,177.984357 C118.999952,179.476074 119.380663,181.233482 119.37817,182.946195 C119.368765,184.657045 119.001831,186.402038 118.151494,187.90555 C117.334971,189.418994 116.204737,190.719514 115.012513,191.922572 C113.804008,193.116318 112.504083,194.207016 111.168466,195.245569 C108.491597,197.318951 105.670083,199.183132 102.883635,201.090147 C101.489784,202.043654 100.101569,203.00461 98.753429,204.019574 C97.4052888,205.032055 96.092214,206.099784 94.926915,207.320224" id="Fill-87" fill="#F97C55"></path>
                    <path d="M93.2939308,205.088111 C93.2939308,205.088111 92.9194822,204.41271 93.7366318,203.568458 C94.5544075,202.724207 96.3934636,202.150613 96.6658467,202.657164 C96.9382299,203.163094 96.3314729,204.210338 95.2726224,204.885118 C94.213772,205.560519 93.566314,205.425811 93.2939308,205.088111" id="Fill-89" fill="#D14E20"></path>
                    <path d="M93.8271131,252.578421 L93.812085,252.578421 C93.4664402,252.56973 93.1928047,252.285416 93.2009449,251.94337 L94.3437019,204.069981 C94.3512159,203.727935 94.6405056,203.45852 94.984272,203.464021 C95.3299168,203.472797 95.6035523,203.757111 95.5954121,204.099157 L94.4526551,251.971925 C94.444515,252.309626 94.1658701,252.578421 93.8271131,252.578421" id="Fill-91" fill="#FFFFFF"></path>
                </g>
            </g>
        </g>
    </g>
</svg>