<?xml version="1.0" encoding="UTF-8" standalone="no"?>
<svg width="265px" height="179px" viewBox="0 0 265 179" version="1.1" xmlns="http://www.w3.org/2000/svg" xmlns:xlink="http://www.w3.org/1999/xlink">
    <!-- Generator: Sketch 3.8.2 (29753) - http://www.bohemiancoding.com/sketch -->
    <title>blog-feature-image-default</title>
    <desc>Created with Sketch.</desc>
    <defs>
        <path d="M0,0.955476402 L265,0.955476402 L265,182.495993 L0,182.495993 L0,0.955476402 Z M64.7074737,117.949564 L201.26695,117.949564 L201.26695,40.0784676 L64.7074737,40.0784676 L64.7074737,117.949564 Z" id="path-1"></path>
    </defs>
    <g id="Symbols" stroke="none" stroke-width="1" fill="none" fill-rule="evenodd">
        <g id="blog-feature-image-default">
            <g id="poppetje" transform="translate(103.000000, 43.619768)">
                <g id="Group-26" transform="translate(0.773829, 0.017702)">
                    <path d="M44.0959877,6.33502591 C44.0959877,6.33502591 39.5068407,-2.11920793 24.9481234,0.749114567 C10.3894061,3.61768057 6.11676963,17.2048943 6.59128013,25.0552195 C7.06604588,32.9055447 8.91431405,37.5629465 12.7160136,43.0309982 C16.4669183,48.4259965 14.8202979,51.9276925 11.9717034,52.8335555 C11.9717034,52.8335555 28.2712284,63.854401 45.2037745,52.9845326 C45.2037745,52.9845326 41.0893932,51.7769589 41.564159,48.6064386 C42.0386695,45.4361618 48.0521137,41.5109992 51.6917292,34.8682477 C55.3316,28.2254963 56.9138973,9.50530271 44.0959877,6.33502591" id="Fill-2" fill="#4C360D"></path>
                    <path d="M7.83343069,77.5526803 L15.2479444,68.0920133 C15.2479444,68.0920133 16.8636795,70.8458853 18.1309977,77.5526803 L39.9541415,77.5526803 C40.6627166,70.1981446 41.6224582,66.0789033 41.6224582,66.0789033 L52.9900349,77.5526803 L61.1238443,77.5526803 C56.0688653,71.2033603 46.2070107,58.8013173 45.8425131,58.2285781 C45.3516666,57.4595687 44.704862,55.6765771 43.5442384,55.7204092 C41.0951108,55.8131871 33.9738798,51.5858267 34.0407554,49.3197082 C34.117841,46.709508 34.0407554,42.4422117 34.0407554,42.4422117 L24.8662901,42.4422117 L24.8662901,49.3197082 C24.8662901,51.9321001 21.2006391,54.1470811 17.349421,55.3724312 C13.4959057,56.5968073 11.4572207,57.9875017 11.4572207,57.9875017 L0.0421673667,77.5526803 L7.83343069,77.5526803 Z" id="Fill-4" fill="#F3D9A6"></path>
                    <path d="M47.9523619,22.5998195 C47.9523619,35.3420481 41.6701389,45.7838232 29.4901002,45.7838232 C17.3110824,45.7838232 10.5474572,35.2310069 10.5474572,22.4887782 C10.5474572,9.74411449 17.516559,8.44863307 29.6955767,8.44863307 C41.8756155,8.44863307 47.9523619,9.85515575 47.9523619,22.5998195" id="Fill-6" fill="#F4D89A"></path>
                    <path d="M25.1519664,30.049276 C25.1519664,31.7993935 23.6467548,33.2188223 21.7926158,33.2188223 C19.9369454,33.2188223 18.4347968,31.7993935 18.4347968,30.049276 C18.4347968,28.2991585 19.9369454,26.8802167 21.7926158,26.8802167 C23.6467548,26.8802167 25.1519664,28.2991585 25.1519664,30.049276" id="Fill-8" fill="#00ADE9"></path>
                    <path d="M24.2878927,30.0485698 C24.2878927,31.2697802 23.2485131,32.2618462 21.9691981,32.2618462 C20.6883515,32.2618462 19.6505034,31.2697802 19.6505034,30.0485698 C19.6505034,28.8293075 20.6883515,27.8372415 21.9691981,27.8372415 C23.2485131,27.8372415 24.2878927,28.8293075 24.2878927,30.0485698" id="Fill-10" fill="#234471"></path>
                    <path d="M20.992125,28.9024097 C20.992125,29.2552579 20.6911848,29.5438191 20.3220927,29.5438191 C19.9514691,29.5438191 19.6505289,29.2552579 19.6505289,28.9024097 C19.6505289,28.5495614 19.9514691,28.2639224 20.3220927,28.2639224 C20.6911848,28.2639224 20.992125,28.5495614 20.992125,28.9024097" id="Fill-12" fill="#FFFFFF"></path>
                    <path d="M22.2130132,37.8142017 C24.5112879,39.1432877 26.9716465,39.9641651 29.4651877,39.9334827 C31.9737887,39.9334827 34.3769712,39.0076518 36.7668808,37.8142017 C35.8890746,38.8013975 34.7912426,39.6198398 33.5463864,40.2096248 C32.3038275,40.8086632 30.8968872,41.1354557 29.477695,41.1566412 C28.0595237,41.1590763 26.6426288,40.857122 25.3916465,40.267337 C24.1416853,39.687049 23.012968,38.8686067 22.2130132,37.8142017" id="Fill-14" fill="#C42C76"></path>
                    <path d="M40.8366953,12.3963935 C40.8366953,12.3963935 40.2743787,16.3843821 42.5514675,22.2856409 C45.0511347,28.7645091 47.741474,31.1548184 50.2733027,29.4436628 C50.2733027,29.4436628 47.5382947,30.334428 48.2951121,27.5566918 C49.3237712,23.7825064 51.4403076,17.4056695 48.2688213,13.0385335 C45.5404498,9.28115034 42.5925628,9.88286736 42.5925628,9.88286736 C42.5925628,9.88286736 40.2189893,2.18327581 29.4900491,2.0839231 C14.0787955,1.94122534 3.505558,20.4507814 11.4969376,33.2076207 C11.4969376,33.2076207 8.88725751,23.4036024 14.3455321,22.7906838 C19.8025305,22.1780088 39.3409279,15.6648055 40.8366953,12.0898125" id="Fill-16" fill="#5F3F12"></path>
                    <path d="M41.5513454,13.4172913 C41.5513454,13.4172913 39.5185312,17.1900157 32.7020691,20.3751467 C27.2848898,22.9064492 21.0378914,23.3136005 15.0247024,23.1626234 C15.0247024,23.1626234 12.9673842,26.4838773 13.1256394,31.9188115 C13.2838947,37.3537457 16.1654165,43.0959915 16.1654165,43.0959915 C16.1654165,43.0959915 4.9298042,26.9424096 13.7124601,13.8833724 C23.9827153,-1.38699306 39.9815554,6.10853582 42.4345118,10.637607 C42.4345118,10.637607 42.4735651,12.0991633 41.5513454,13.4172913" id="Fill-18" fill="#754B1D"></path>
                    <path d="M26.5895111,19.9908855 C26.5895111,19.9908855 34.6738019,18.3055421 38.2169328,12.4093971 C38.2169328,12.4093971 35.8890491,14.9370469 32.4025838,16.2001413 C32.4025838,16.2001413 34.8754498,14.2199054 35.348684,13.1613607 C35.348684,13.1613607 28.5960346,13.0982912 23.3802478,16.5456842 C23.3802478,16.5456842 28.8607292,10.4191772 40.0455467,10.6490521 C40.0455467,10.6490521 38.7090556,17.9227419 26.5895111,19.9908855" id="Fill-20" fill="#A26527"></path>
                    <path d="M40.5561496,10.1890831 C38.6992029,9.56861572 36.8126472,9.13833081 34.9260914,8.80155435 C33.0357069,8.49010308 31.1317942,8.30722591 29.2375809,8.36201601 C25.4361367,8.4187542 21.7309218,9.44953857 18.3210317,11.3384576 C19.7256746,10.0198426 21.4266633,8.94522616 23.3058168,8.25414039 C25.1752708,7.53894699 27.1940462,7.19145601 29.2066956,7.13837049 C33.2274,7.0835804 37.2526989,8.12215714 40.5561496,10.1890831" id="Fill-22" fill="#A26527"></path>
                    <path d="M46.4694081,21.802514 C45.81903,21.0366702 45.2937247,20.1819447 44.8102805,19.3079817 C44.3355147,18.4264699 43.9534048,17.4974734 43.6468491,16.5397425 C43.0658992,14.6303685 42.4344097,10.6377532 42.4344097,10.6377532 C42.4344097,10.6377532 45.6102352,11.4486466 46.8737247,13.7281582 C48.136959,16.0074262 48.0578313,18.5740379 48.0578313,18.5740379 C48.0578313,18.5740379 47.3668685,16.2733408 46.3170236,14.7241204 C45.2674339,13.1751435 44.2290753,12.9043586 43.7851948,12.4597065 C43.7851948,12.4597065 44.181854,14.8405189 44.5764711,16.6868235 C44.9782352,18.5367807 45.7164194,19.9798301 46.4694081,21.802514" id="Fill-24" fill="#A26527"></path>
                </g>
                <g transform="translate(5.000000, 26.189452)">
                    <polygon id="Fill-31" fill="#C42C76" points="18.8286323 35.8814209 31.3302866 35.8814209 26.1081186 45.3924948"></polygon>
                    <path d="M10.590885,42.5231252 C10.590885,42.5231252 10.6779254,41.7363394 10.7169787,40.5514123 C10.756032,39.3674591 10.7534795,37.7839036 10.5773567,36.2149587 C10.5339641,35.8229051 10.475767,35.4327996 10.4124649,35.0499994 C10.3409948,34.6686604 10.2713115,34.2934091 10.1835053,33.934473 C10.0974859,33.5752935 9.99691729,33.2324293 9.89251987,32.910507 C9.84095929,32.7493024 9.78965396,32.5927244 9.72941486,32.4449129 C9.67351502,32.2956403 9.61735994,32.1519685 9.55303683,32.0185242 C9.4348559,31.7470088 9.3082517,31.5054454 9.186242,31.2969995 C9.1224294,31.1942376 9.06244556,31.0980506 9.00731147,31.0089253 C8.94554087,30.9236963 8.88887528,30.8455291 8.8378252,30.7749107 C8.7405748,30.6290473 8.63770889,30.5345648 8.57900129,30.4607808 C8.51672019,30.3896755 8.48353764,30.3519312 8.48353764,30.3519312 L8.49604491,30.3397556 C8.49604491,30.3397556 8.53229047,30.3753083 8.60044233,30.4417869 C8.66502068,30.5109442 8.77682036,30.5995824 8.88632278,30.738871 C8.94375412,30.8068108 9.00756672,30.8818123 9.07673958,30.9636322 C9.13774443,31.0510528 9.20359903,31.1457788 9.27379289,31.2468361 C9.4075441,31.4530904 9.55507884,31.6902706 9.68270404,31.9632471 C9.75213215,32.0976655 9.81390275,32.2418243 9.87541809,32.3918274 C9.94152795,32.540613 9.99844879,32.6979214 10.0558801,32.8601001 C10.1755926,33.1832399 10.2669722,33.5338965 10.3565651,33.8967288 C10.4443712,34.260048 10.5183939,34.6387084 10.578633,35.0254048 C10.6345328,35.4125881 10.6845619,35.8065898 10.7195312,36.201809 C10.8688527,37.782199 10.8491984,39.3691637 10.779515,40.5540909 C10.7134052,41.7397486 10.6087525,42.5250733 10.6087525,42.5250733 L10.590885,42.5231252 Z" id="Fill-33" fill="#064C6C"></path>
                    <path d="M38.6533696,41.5180557 C38.6533696,41.5180557 38.6023195,40.7692577 38.6278446,39.6442344 C38.6485199,38.5199415 38.7623616,37.0182058 39.058452,35.5400908 C39.1345166,35.1711708 39.217473,34.8032248 39.3165102,34.4447758 C39.4137606,34.0858398 39.5255603,33.7361572 39.6542065,33.404251 C39.7141903,33.2369586 39.7823422,33.0755104 39.8510045,32.918202 C39.9148171,32.7589454 39.9916475,32.6089423 40.0664359,32.4630789 C40.2170336,32.1715956 40.3760546,31.9039764 40.5383939,31.6663091 C40.613948,31.5440663 40.7022646,31.4366777 40.783179,31.3329418 C40.8617961,31.2277448 40.9422,31.1322883 41.0236249,31.0468157 C41.1760094,30.8678347 41.3299254,30.7302507 41.4560191,30.6177484 C41.5795603,30.5023239 41.6944229,30.430488 41.7638511,30.3730193 C41.8360869,30.3179857 41.8743745,30.2887643 41.8743745,30.2887643 L41.8856055,30.3021574 C41.8856055,30.3021574 41.8496152,30.334301 41.7827396,30.3944483 C41.7184165,30.4570308 41.6114666,30.536172 41.4991564,30.6596324 C41.38557,30.7816317 41.243906,30.9253035 41.103263,31.1081806 C41.0279641,31.1958448 40.954452,31.2937364 40.8832372,31.401125 C40.8099803,31.5070526 40.7300869,31.6161457 40.6588721,31.7379015 C40.5072533,31.9755688 40.3597186,32.2429444 40.2213729,32.5334537 C40.0843034,32.8242065 39.9416184,33.1324921 39.8213955,33.4619632 C39.693515,33.7885122 39.5865651,34.1347856 39.4788494,34.4869033 C39.3729205,34.8395081 39.2823066,35.2023403 39.1983292,35.5671205 C38.876969,37.0294074 38.741431,38.5252988 38.6903809,39.6459389 C38.6380546,40.7680401 38.6712372,41.5170816 38.6712372,41.5170816 L38.6533696,41.5180557 Z" id="Fill-35" fill="#064C6C"></path>
                    <path d="M29.9277877,3.87752644 C29.9277877,5.62764391 31.4329994,7.04707271 33.2871383,7.04707271 C35.1428087,7.04707271 36.6449574,5.62764391 36.6449574,3.87752644 C36.6449574,2.12740896 35.1428087,0.708467186 33.2871383,0.708467186 C31.4329994,0.708467186 29.9277877,2.12740896 29.9277877,3.87752644" id="Fill-37" fill="#00ADE9"></path>
                    <path d="M30.7918614,3.87682025 C30.7918614,5.09803065 31.831241,6.09009669 33.1105561,6.09009669 C34.3914026,6.09009669 35.4292507,5.09803065 35.4292507,3.87682025 C35.4292507,2.65755795 34.3914026,1.66549191 33.1105561,1.66549191 C31.831241,1.66549191 30.7918614,2.65755795 30.7918614,3.87682025" id="Fill-39" fill="#234471"></path>
                    <path d="M30.9231111,2.73066011 C30.9231111,3.08350834 31.2240514,3.37206952 31.5931435,3.37206952 C31.963767,3.37206952 32.2647073,3.08350834 32.2647073,2.73066011 C32.2647073,2.37781188 31.963767,2.09217284 31.5931435,2.09217284 C31.2240514,2.09217284 30.9231111,2.37781188 30.9231111,2.73066011" id="Fill-41" fill="#FFFFFF"></path>
                    <path d="M26.6354914,27.4019593 C26.6354914,28.0550572 26.0805771,28.5844513 25.3959955,28.5844513 C24.7111586,28.5844513 24.1562443,28.0550572 24.1562443,27.4019593 C24.1562443,26.7488613 24.7111586,26.2194672 25.3959955,26.2194672 C26.0805771,26.2194672 26.6354914,26.7488613 26.6354914,27.4019593" id="Fill-43" fill="#00ADE9"></path>
                    <path d="M26.1633292,27.1251841 C26.1633292,27.293207 26.020389,27.4295735 25.8442662,27.4295735 C25.6681435,27.4295735 25.5252032,27.293207 25.5252032,27.1251841 C25.5252032,26.9571611 25.6681435,26.8207946 25.8442662,26.8207946 C26.020389,26.8207946 26.1633292,26.9571611 26.1633292,27.1251841" id="Fill-45" fill="#FFFEEF"></path>
                    <path d="M24.156474,27.2258274 C24.156474,27.7817642 23.6840055,28.2325041 23.1012688,28.2325041 C22.5185321,28.2325041 22.0460637,27.7817642 22.0460637,27.2258274 C22.0460637,26.6698905 22.5185321,26.2191506 23.1012688,26.2191506 C23.6840055,26.2191506 24.156474,26.6698905 24.156474,27.2258274" id="Fill-47" fill="#00ADE9"></path>
                    <path d="M23.7545567,26.9902543 C23.7545567,27.1334391 23.6330575,27.2493506 23.4829703,27.2493506 C23.332883,27.2493506 23.2113838,27.1334391 23.2113838,26.9902543 C23.2113838,26.8470695 23.332883,26.731158 23.4829703,26.731158 C23.6330575,26.731158 23.7545567,26.8470695 23.7545567,26.9902543" id="Fill-49" fill="#FFFEEF"></path>
                    <path d="M22.1556682,26.6219674 C22.1556682,27.1243318 21.7288895,27.5314831 21.2023079,27.5314831 C20.6757263,27.5314831 20.2489477,27.1243318 20.2489477,26.6219674 C20.2489477,26.1196031 20.6757263,25.7124518 21.2023079,25.7124518 C21.7288895,25.7124518 22.1556682,26.1196031 22.1556682,26.6219674" id="Fill-51" fill="#00ADE9"></path>
                    <path d="M21.8427983,26.433078 C21.8427983,26.575624 21.7218044,26.6910567 21.5723911,26.6910567 C21.4229777,26.6910567 21.3017024,26.575624 21.3017024,26.433078 C21.3017024,26.2905321 21.4229777,26.1750994 21.5723911,26.1750994 C21.7218044,26.1750994 21.8427983,26.2905321 21.8427983,26.433078" id="Fill-53" fill="#FFFEEF"></path>
                    <path d="M20.6880805,25.4896875 C20.6880805,25.9275212 20.3161806,26.2823175 19.8572404,26.2823175 C19.3983002,26.2823175 19.0264003,25.9275212 19.0264003,25.4896875 C19.0264003,25.0518537 19.3983002,24.6970574 19.8572404,24.6970574 C20.3161806,24.6970574 20.6880805,25.0518537 20.6880805,25.4896875" id="Fill-55" fill="#00ADE9"></path>
                    <path d="M20.4849172,25.3580963 C20.4849172,25.500631 20.3638486,25.6160749 20.2143693,25.6160749 C20.0648899,25.6160749 19.9438213,25.500631 19.9438213,25.3580963 C19.9438213,25.2155616 20.0648899,25.1001177 20.2143693,25.1001177 C20.3638486,25.1001177 20.4849172,25.2155616 20.4849172,25.3580963" id="Fill-57" fill="#FFFEEF"></path>
                    <path d="M26.5959021,26.999386 C26.5959021,27.5553228 27.0683706,28.0060627 27.6511073,28.0060627 C28.2338439,28.0060627 28.7063124,27.5553228 28.7063124,26.999386 C28.7063124,26.4434491 28.2338439,25.9927093 27.6511073,25.9927093 C27.0683706,25.9927093 26.5959021,26.4434491 26.5959021,26.999386" id="Fill-59" fill="#00ADE9"></path>
                    <path d="M27.5243754,26.5464789 C27.5243754,26.6896637 27.6458746,26.8055751 27.7959619,26.8055751 C27.9460491,26.8055751 28.0675483,26.6896637 28.0675483,26.5464789 C28.0675483,26.4032941 27.9460491,26.2873826 27.7959619,26.2873826 C27.6458746,26.2873826 27.5243754,26.4032941 27.5243754,26.5464789" id="Fill-61" fill="#FFFEEF"></path>
                    <path d="M28.5967079,26.3955017 C28.5967079,26.897866 29.0234866,27.3050173 29.5500682,27.3050173 C30.0766498,27.3050173 30.5034284,26.897866 30.5034284,26.3955017 C30.5034284,25.8931374 30.0766498,25.4859861 29.5500682,25.4859861 C29.0234866,25.4859861 28.5967079,25.8931374 28.5967079,26.3955017" id="Fill-63" fill="#00ADE9"></path>
                    <path d="M29.2763121,25.9549918 C29.2763121,26.0975378 29.397306,26.2129704 29.5467194,26.2129704 C29.6961327,26.2129704 29.817408,26.0975378 29.817408,25.9549918 C29.817408,25.8124459 29.6961327,25.6970132 29.5467194,25.6970132 C29.397306,25.6970132 29.2763121,25.8124459 29.2763121,25.9549918" id="Fill-65" fill="#FFFEEF"></path>
                    <path d="M30.0642701,25.2632461 C30.0642701,25.7010798 30.43617,26.0558762 30.8951102,26.0558762 C31.3540504,26.0558762 31.7259502,25.7010798 31.7259502,25.2632461 C31.7259502,24.8254123 31.3540504,24.470616 30.8951102,24.470616 C30.43617,24.470616 30.0642701,24.8254123 30.0642701,25.2632461" id="Fill-67" fill="#00ADE9"></path>
                    <path d="M30.5917451,24.9303439 C30.5917451,25.0728787 30.7128137,25.1883226 30.862293,25.1883226 C31.0117724,25.1883226 31.132841,25.0728787 31.132841,24.9303439 C31.132841,24.7878092 31.0117724,24.6723653 30.862293,24.6723653 C30.7128137,24.6723653 30.5917451,24.7878092 30.5917451,24.9303439" id="Fill-69" fill="#FFFEEF"></path>
                    <path d="M10.5997932,42.5240749 C10.5997932,42.5240749 12.508811,46.3944474 13.7255897,51.3808334 L36.9258094,51.3808334 C37.3821971,45.9441946 38.6622779,41.5176417 38.6622779,41.5176417 L45.2265525,47.7442319 L50.9000032,42.5240749 C47.7318352,38.0734144 42.5887948,31.187882 42.196475,30.4967962 C41.5108724,29.2889789 38.4843683,28.9222506 37.3962359,28.5340931 C35.2046559,27.7529081 34.350588,27.6277432 32.3529984,26.3035274 C30.8554443,31.5032294 25.5804394,41.7187823 25.5804394,41.7187823 C25.5804394,41.7187823 19.4615767,30.5973665 18.9069176,26.2616434 C17.4770048,27.4882111 16.3784071,27.9489349 14.1868271,28.6349069 C13.1007367,28.974849 10.4943748,29.5407699 8.48989338,30.345819 C6.48541195,31.1511117 0.47196769,43.5305082 0.47196769,43.5305082 L5.95780937,48.3615337 L10.5997932,42.5240749 Z" id="Fill-71" fill="#F99D1C"></path>
                </g>
            </g>
            <g id="bg-monitor" transform="translate(0.000000, -2.000000)">
                <mask id="mask-2" fill="white">
                    <use xlink:href="#path-1"></use>
                </mask>
                <use id="Combined-Shape" fill="#F0F0F0" xlink:href="#path-1"></use>
                <path d="M64.7074737,96.8682095 L-12,104.146928 L-12,193.96171 L276,193.96171 L276,76.8188098 L201.26695,83.9101765 L201.26695,117.949564 L64.7074737,117.949564 L64.7074737,96.8682095 Z" id="Combined-Shape" fill="#DEDEDE" opacity="0.439540578" mask="url(#mask-2)"></path>
                <g id="Group-85" mask="url(#mask-2)">
                    <g transform="translate(54.000000, 29.809220)">
                        <g id="monitor">
                            <path d="M147.26695,0.0541813188 L10.7074737,0.0541813188 C4.79383231,0.0541813188 -2.55250416e-05,4.62757165 -2.55250416e-05,10.2692471 L-2.55250416e-05,88.1403431 C-2.55250416e-05,93.7820186 4.79383231,98.355409 10.7074737,98.355409 L147.26695,98.355409 C153.180592,98.355409 157.974449,93.7820186 157.974449,88.1403431 L157.974449,10.2692471 C157.974449,4.62757165 153.180592,0.0541813188 147.26695,0.0541813188 L147.26695,0.0541813188 Z M10.7074737,88.1403431 L147.26695,88.1403431 L147.26695,10.2692471 L10.7074737,10.2692471 L10.7074737,88.1403431 Z" id="Fill-75" fill="#9B9B9B"></path>
                        </g>
                        <g id="standaard" transform="translate(54.134087, 103.735918)">
                            <path d="M48.5570556,18.5656124 C48.5570556,18.5656124 34.2027939,13.0142797 34.2027939,0.134467075 L15.5034045,0.134467075 C15.5034045,13.0142797 1.14914281,18.5656124 1.14914281,18.5656124 L1.14914281,23.3771571 L48.5570556,23.3771571 L48.5570556,18.5656124 Z" id="Fill-78" fill="#9B9B9B"></path>
                            <polygon id="Fill-83" fill="#B3B3B3" points="0.741686591 23.2290533 48.6927722 23.2290533 48.6927722 18.7876463 0.741686591 18.7876463"></polygon>
                        </g>
                    </g>
                </g>
            </g>
            <polygon id="Fill-73" fill-opacity="0.3" fill="#BFE1C7" points="121.911157 33.9699408 201.519163 105.031236 210.586679 105.031236 134.952921 35.302436 143.784074 35.302436 207.57115 91.2630937 208.502304 34.4141059"></polygon>
            <path d="M125.6676,38.0784676 L201.266899,38.0784676 L201.266899,104.796978 L211.974398,114.253749 L211.974398,38.0784676 C211.974398,32.4367921 207.180541,27.8634018 201.266899,27.8634018 L112.362418,27.8634018 L125.6676,38.0784676 Z" id="Fill-81" fill="#B0B0B0"></path>
        </g>
    </g>
</svg>