<svg height="179" viewBox="0 0 265 179" width="265" xmlns="http://www.w3.org/2000/svg" xmlns:xlink="http://www.w3.org/1999/xlink"><defs><path id="a" d="m0 .9554764h265v181.5405166h-265zm64.7074737 116.9940876h136.5594763v-77.8710964h-136.5594763z"/><mask id="b" fill="#fff"><use fill="#fff" fill-rule="evenodd" xlink:href="#a"/></mask></defs><g fill="none" fill-rule="evenodd"><g transform="translate(103.773829 43.63747)"><path d="m44.0959877 6.33502591s-4.589147-8.45423384-19.1478643-5.58591134c-14.5587173 2.868566-18.83135377 16.45577973-18.35684327 24.30610493.47476575 7.8503252 2.32303392 12.507727 6.12473347 17.9757787 3.7509047 5.3949983 2.1042843 8.8966943-.7443102 9.8025573 0 0 16.299525 11.0208455 33.2320711.1509771 0 0-4.1143813-1.2075737-3.6396155-4.378094.4745105-3.1702768 6.4879547-7.0954394 10.1275702-13.7381909 3.6398708-6.6427514 5.2221681-25.36294499-7.5957415-28.53322179" fill="#4c360d"/><path d="m7.83343069 77.5526803 7.41451371-9.460667s1.6157351 2.753872 2.8830533 9.460667h21.8231438c.7085751-7.3545357 1.6683167-11.473777 1.6683167-11.473777l11.3675767 11.473777h8.1338094c-5.054979-6.34932-14.9168336-18.751363-15.2813312-19.3241022-.4908465-.7690094-1.1376511-2.552001-2.2982747-2.5081689-2.4491276.0927779-9.5703586-4.1345825-9.503483-6.400701.0770856-2.6102002 0-6.8774965 0-6.8774965h-9.1744653v6.8774965c0 2.6123919-3.665651 4.8273729-7.5168691 6.052723-3.8535153 1.2243761-5.8922003 2.6150705-5.8922003 2.6150705l-11.41505333 19.5651786z" fill="#f3d9a6"/><path d="m47.9523619 22.5998195c0 12.7422286-6.282223 23.1840037-18.4622617 23.1840037-12.1790178 0-18.942643-10.5528163-18.942643-23.295045 0-12.74466371 6.9691018-14.04014513 19.1481195-14.04014513 12.1800388 0 18.2567852 1.40652268 18.2567852 14.15118643" fill="#f4d89a"/><path d="m25.1519664 30.049276c0 1.7501175-1.5052116 3.1695463-3.3593506 3.1695463-1.8556704 0-3.357819-1.4194288-3.357819-3.1695463s1.5021486-3.1690593 3.357819-3.1690593c1.854139 0 3.3593506 1.4189418 3.3593506 3.1690593" fill="#00ade9"/><path d="m24.2878927 30.0485698c0 1.2212104-1.0393796 2.2132764-2.3186946 2.2132764-1.2808466 0-2.3186947-.992066-2.3186947-2.2132764 0-1.2192623 1.0378481-2.2113283 2.3186947-2.2113283 1.279315 0 2.3186946.992066 2.3186946 2.2113283" fill="#234471"/><path d="m20.992125 28.9024097c0 .3528482-.3009402.6414094-.6700323.6414094-.3706236 0-.6715638-.2885612-.6715638-.6414094 0-.3528483.3009402-.6384873.6715638-.6384873.3690921 0 .6700323.285639.6700323.6384873" fill="#fff"/><path d="m22.2130132 37.8142017c2.2982747 1.329086 4.7586333 2.1499634 7.2521745 2.119281 2.508601 0 4.9117835-.9258309 7.3016931-2.119281-.8778062.9871958-1.9756382 1.8056381-3.2204944 2.3954231-1.2425589.5990384-2.6494992.9258309-4.0686914.9470164-1.4181713.0024351-2.8350662-.2995192-4.0860485-.8893042-1.2499612-.580288-2.3786785-1.3987303-3.1786333-2.4531353" fill="#c42c76"/><path d="m40.8366953 12.3963935s-.5623166 3.9879886 1.7147722 9.8892474c2.4996672 6.4788682 5.1900065 8.8691775 7.7218352 7.1580219 0 0-2.735008.8907652-1.9781906-1.886971 1.0286591-3.7741854 3.1451955-10.1510223-.0262908-14.5181583-2.7283715-3.75738316-5.6762585-3.15566614-5.6762585-3.15566614s-2.3735735-7.69959155-13.1025137-7.79894426c-15.4112536-.14269776-25.9844911 18.3668583-17.9931115 31.1236976 0 0-2.60968009-9.8040183 2.8485945-10.4169369 5.4569984-.612675 24.9953958-7.1258783 26.4911632-10.7008713" fill="#5f3f12"/><path d="m41.5513454 13.4172913s-2.0328142 3.7727244-8.8492763 6.9578554c-5.4171793 2.5313025-11.6641777 2.9384538-17.6773667 2.7874767 0 0-2.0573182 3.3212539-1.899063 8.7561881.1582553 5.4349342 3.0397771 11.17718 3.0397771 11.17718s-11.2356123-16.1535819-2.4529564-29.2126191c10.2702552-15.27036546 26.2690953-7.77483658 28.7220517-3.2457654 0 0 .0390533 1.4615563-.8831664 2.7796843" fill="#754b1d"/><g fill="#a26527"><path d="m26.5895111 19.9908855s8.0842908-1.6853434 11.6274217-7.5814884c0 0-2.3278837 2.5276498-5.814349 3.7907442 0 0 2.472866-1.9802359 2.9461002-3.0387806 0 0-6.7526494-.0630695-11.9684362 3.3843235 0 0 5.4804814-6.126507 16.6652989-5.8966321 0 0-1.3364911 7.2736898-13.4560356 9.3418334"/><path d="m40.5561496 10.1890831c-1.8569467-.62046738-3.7435024-1.05075229-5.6300582-1.38752875-1.8903845-.31145127-3.7942972-.49432844-5.6885105-.43953834-3.8014442.05673819-7.5066591 1.08752256-10.9165492 2.97644159 1.4046429-1.318615 3.1056316-2.39323144 4.9847851-3.08431721 1.869454-.7151934 3.8882294-1.06268438 5.9008788-1.1157699 4.0207044-.05479009 8.0460033.98378665 11.349454 3.05071261"/><path d="m46.4694081 21.802514c-.6503781-.7658438-1.1756834-1.6205693-1.6591276-2.4945323-.4747658-.8815118-.8568757-1.8105083-1.1634314-2.7682392-.5809499-1.909374-1.2124394-5.9019893-1.2124394-5.9019893s3.1758255.8108934 4.439315 3.090405c1.2632343 2.279268 1.1841066 4.8458797 1.1841066 4.8458797s-.6909628-2.3006971-1.7408077-3.8499175c-1.0495897-1.5489769-2.0879483-1.8197618-2.5318288-2.2644139 0 0 .3966592 2.3808124.7912763 4.227117.4017641 1.8499572 1.1399483 3.2930066 1.892937 5.1156905"/></g></g><g transform="translate(108 69.80922)"><path d="m18.8286323 35.8814209h12.5016543l-5.222168 9.5110739z" fill="#c42c76"/><path d="m10.590885 42.5231252s.0870404-.7867858.1260937-1.9717129c.0390533-1.1839532.0365008-2.7675087-.139622-4.3364536-.0433926-.3920536-.1015897-.7821591-.1648918-1.1649593-.0714701-.381339-.1411534-.7565903-.2289596-1.1155264-.0860194-.3591795-.18658801-.7020437-.29098543-1.023966-.05156058-.1612046-.10286591-.3177826-.16310501-.4655941-.05589984-.1492726-.11205492-.2929444-.17637803-.4263887-.11818093-.2715154-.24478513-.5130788-.36679483-.7215247-.0638126-.1027619-.12379644-.1989489-.17893053-.2880742-.0617706-.085229-.11843619-.1633962-.16948627-.2340146-.0972504-.1458634-.20011631-.2403459-.25882391-.3141299-.0622811-.0711053-.09546365-.1088496-.09546365-.1088496l.01250727-.0121756s.03624556.0355527.10439742.1020313c.06457835.0691573.17637803.1577955.28588045.2970841.05743134.0679398.12124394.1429413.1904168.2247612.06100485.0874206.12685945.1821466.19705331.2832039.13375121.2062543.28128595.4434345.40891115.716411.06942811.1344184.13119871.2785772.19271405.4285803.06610986.1487856.1230307.306094.18046201.4682727.1197125.3231398.2110921.6737964.300685 1.0366287.0878061.3633192.1618288.7419796.2220679 1.128676.0558998.3871833.1059289.781185.1408982 1.1764042.1493215 1.58039.1296672 3.1673547.0599838 4.3522819-.0661098 1.1856577-.1707625 1.9709824-.1707625 1.9709824z" fill="#064c6c"/><path d="m38.6533696 41.5180557s-.0510501-.748798-.025525-1.8738213c.0206753-1.1242929.134517-2.6260286.4306074-4.1041436.0760646-.36892.159021-.736866.2580582-1.095315.0972504-.358936.2090501-.7086186.3376963-1.0405248.0599838-.1672924.1281357-.3287406.196798-.486049.0638126-.1592566.140643-.3092597.2154314-.4551231.1505977-.2914833.3096187-.5591025.471958-.7967698.0755541-.1222428.1638707-.2296314.2447851-.3333673.0786171-.105197.159021-.2006535.2404459-.2861261.1523845-.178981.3063005-.316565.4323942-.4290673.1235412-.1154245.2384038-.1872604.307832-.2447291.0722358-.0550336.1105234-.084255.1105234-.084255l.011231.0133931s-.0359903.0321436-.1028659.0922909c-.0643231.0625825-.171273.1417237-.2835832.2651841-.1135864.1219993-.2552504.2656711-.3958934.4485482-.0752989.0876642-.148811.1855558-.2200258.2929444-.0732569.1059276-.1531503.2150207-.2243651.3367765-.1516188.2376673-.2991535.5050429-.4374992.7955522-.1370695.2907528-.2797545.5990384-.3999774.9285095-.1278805.326549-.2348304.6728224-.3425461 1.0249401-.1059289.3526048-.1965428.715437-.2805202 1.0802172-.3213602 1.4622869-.4568982 2.9581783-.5079483 4.0788184-.0523263 1.1221012-.0191437 1.8711427-.0191437 1.8711427z" fill="#064c6c"/><path d="m29.9277877 3.87752644c0 1.75011747 1.5052117 3.16954627 3.3593506 3.16954627 1.8556704 0 3.3578191-1.4194288 3.3578191-3.16954627 0-1.75011748-1.5021487-3.16905925-3.3578191-3.16905925-1.8541389 0-3.3593506 1.41894177-3.3593506 3.16905925" fill="#00ade9"/><path d="m30.7918614 3.87682025c0 1.2212104 1.0393796 2.21327644 2.3186947 2.21327644 1.2808465 0 2.3186946-.99206604 2.3186946-2.21327644 0-1.2192623-1.0378481-2.21132834-2.3186946-2.21132834-1.2793151 0-2.3186947.99206604-2.3186947 2.21132834" fill="#234471"/><path d="m30.9231111 2.73066011c0 .35284823.3009403.64140941.6700324.64140941.3706235 0 .6715638-.28856118.6715638-.64140941s-.3009403-.63848727-.6715638-.63848727c-.3690921 0-.6700324.28563904-.6700324.63848727" fill="#fff"/><path d="m26.6354914 27.4019593c0 .6530979-.5549143 1.182492-1.2394959 1.182492-.6848369 0-1.2397512-.5293941-1.2397512-1.182492 0-.653098.5549143-1.1824921 1.2397512-1.1824921.6845816 0 1.2394959.5293941 1.2394959 1.1824921" fill="#00ade9"/><path d="m26.1633292 27.1251841c0 .1680229-.1429402.3043894-.319063.3043894-.1761227 0-.319063-.1363665-.319063-.3043894 0-.168023.1429403-.3043895.319063-.3043895.1761228 0 .319063.1363665.319063.3043895" fill="#fffeef"/><path d="m24.156474 27.2258274c0 .5559368-.4724685 1.0066767-1.0552052 1.0066767s-1.0552051-.4507399-1.0552051-1.0066767c0-.5559369.4724684-1.0066768 1.0552051-1.0066768s1.0552052.4507399 1.0552052 1.0066768" fill="#00ade9"/><path d="m23.7545567 26.9902543c0 .1431848-.1214992.2590963-.2715864.2590963-.1500873 0-.2715865-.1159115-.2715865-.2590963s.1214992-.2590963.2715865-.2590963c.1500872 0 .2715864.1159115.2715864.2590963" fill="#fffeef"/><path d="m22.1556682 26.6219674c0 .5023644-.4267787.9095157-.9533603.9095157s-.9533602-.4071513-.9533602-.9095157c0-.5023643.4267786-.9095156.9533602-.9095156s.9533603.4071513.9533603.9095156" fill="#00ade9"/><path d="m21.8427983 26.433078c0 .142546-.1209939.2579787-.2704072.2579787-.1494134 0-.2706887-.1154327-.2706887-.2579787 0-.1425459.1212753-.2579786.2706887-.2579786.1494133 0 .2704072.1154327.2704072.2579786" fill="#fffeef"/><path d="m20.6880805 25.4896875c0 .4378337-.3718999.79263-.8308401.79263s-.8308401-.3547963-.8308401-.79263c0-.4378338.3718999-.7926301.8308401-.7926301s.8308401.3547963.8308401.7926301" fill="#00ade9"/><path d="m20.4849172 25.3580963c0 .1425347-.1210686.2579786-.2705479.2579786-.1494794 0-.270548-.1154439-.270548-.2579786s.1210686-.2579786.270548-.2579786c.1494793 0 .2705479.1154439.2705479.2579786" fill="#fffeef"/><path d="m26.5959021 26.999386c0 .5559368.4724685 1.0066767 1.0552052 1.0066767.5827366 0 1.0552051-.4507399 1.0552051-1.0066767 0-.5559369-.4724685-1.0066767-1.0552051-1.0066767-.5827367 0-1.0552052.4507398-1.0552052 1.0066767" fill="#00ade9"/><path d="m27.5243754 26.5464789c0 .1431848.1214992.2590962.2715865.2590962.1500872 0 .2715864-.1159114.2715864-.2590962s-.1214992-.2590963-.2715864-.2590963c-.1500873 0-.2715865.1159115-.2715865.2590963" fill="#fffeef"/><path d="m28.5967079 26.3955017c0 .5023643.4267787.9095156.9533603.9095156s.9533602-.4071513.9533602-.9095156-.4267786-.9095156-.9533602-.9095156-.9533603.4071513-.9533603.9095156" fill="#00ade9"/><path d="m29.2763121 25.9549918c0 .142546.1209939.2579786.2704073.2579786.1494133 0 .2706886-.1154326.2706886-.2579786 0-.1425459-.1212753-.2579786-.2706886-.2579786-.1494134 0-.2704073.1154327-.2704073.2579786" fill="#fffeef"/><path d="m30.0642701 25.2632461c0 .4378337.3718999.7926301.8308401.7926301s.83084-.3547964.83084-.7926301c0-.4378338-.3718998-.7926301-.83084-.7926301s-.8308401.3547963-.8308401.7926301" fill="#00ade9"/><path d="m30.5917451 24.9303439c0 .1425348.1210686.2579787.2705479.2579787.1494794 0 .270548-.1154439.270548-.2579787 0-.1425347-.1210686-.2579786-.270548-.2579786-.1494793 0-.2705479.1154439-.2705479.2579786" fill="#fffeef"/><path d="m10.5997932 42.5240749s1.9090178 3.8703725 3.1257965 8.8567585h23.2002197c.4563877-5.4366388 1.7364685-9.8631917 1.7364685-9.8631917l6.5642746 6.2265902 5.6734507-5.220157c-3.168168-4.4506605-8.3112084-11.3361929-8.7035282-12.0272787-.6856026-1.2078173-3.7121067-1.5745456-4.8002391-1.9627031-2.19158-.781185-3.0456479-.9063499-5.0432375-2.2305657-1.4975541 5.199702-6.772559 15.4152549-6.772559 15.4152549s-6.1188627-11.1214158-6.6735218-15.4571389c-1.4299128 1.2265677-2.5285105 1.6872915-4.7200905 2.3732635-1.0860904.3399421-3.6924523.905863-5.69693372 1.7109121-2.00448143.8052927-8.01792569 13.1846892-8.01792569 13.1846892l5.48584168 4.8310255z" fill="#f99d1c"/></g><g transform="translate(0 -2)"><use fill="#f0f0f0" xlink:href="#a"/><path d="m64.7074737 96.8682095-76.7074737 7.2787185v89.814782h288v-117.1429002l-74.73305 7.0913667v34.0393875h-136.5594763z" fill="#dedede" mask="url(#b)" opacity=".439541"/><g mask="url(#b)"><g transform="translate(54 29.80922)"><path d="m147.26695.05418132h-136.5594763c-5.91364139 0-10.70749923 4.57339033-10.70749923 10.21506578v77.871096c0 5.6416755 4.79385784 10.2150659 10.70749923 10.2150659h136.5594763c5.913642 0 10.707499-4.5733904 10.707499-10.2150659v-77.871096c0-5.64167545-4.793857-10.21506578-10.707499-10.21506578zm-136.5594763 88.08616178h136.5594763v-77.871096h-136.5594763z" fill="#9b9b9b"/><g transform="translate(54.134087 103.735918)"><path d="m48.5570556 18.5656124s-14.3542617-5.5513327-14.3542617-18.43114532h-18.6993894c0 12.87981262-14.35426169 18.43114532-14.35426169 18.43114532v4.8115447h47.40791279z" fill="#9b9b9b"/><path d="m.74168659 23.2290533h47.95108561v-4.441407h-47.95108561z" fill="#b3b3b3"/></g></g></g></g><path d="m121.911157 33.9699408 79.608006 71.0612952h9.067516l-75.633758-69.7288h8.831153l63.787076 55.9606577.931154-56.8489878z" fill="#bfe1c7" fill-opacity=".3"/><path d="m125.6676 38.0784676h75.599299v66.7185104l10.707499 9.456771v-76.1752814c0-5.6416755-4.793857-10.2150658-10.707499-10.2150658h-88.904481z" fill="#b0b0b0"/></g></svg>