<svg height="35" viewBox="0 0 29 35" width="29" xmlns="http://www.w3.org/2000/svg"><path d="m10.7577869 22.4999678c.2343746 0 .4335925-.0820309.5976548-.2460931l1.898433-1.898433c.1640622-.1640623.2460931-.3632802.2460931-.5976548 0-.2343747-.0820309-.4335926-.2460931-.5976549l-3.41014817-3.4101481 3.41014817-3.4101481c.1640622-.1640623.2460931-.3632802.2460931-.5976548 0-.2343747-.0820309-.4335926-.2460931-.5976549l-1.898433-1.89843294c-.1640623-.16406228-.3632802-.24609316-.5976548-.24609316-.2343747 0-.4335926.08203088-.5976549.24609316l-3.41014809 3.41014814-3.41014812-3.41014814c-.16406229-.16406228-.36328021-.24609316-.59765483-.24609316s-.43359254.08203088-.59765482.24609316l-1.89843298 1.89843294c-.16406228.1640623-.24609316.3632802-.24609316.5976549 0 .2343746.08203088.4335925.24609316.5976548l3.41014812 3.4101481-3.41014812 3.4101481c-.16406228.1640623-.24609316.3632802-.24609316.5976549 0 .2343746.08203088.4335925.24609316.5976548l1.89843298 1.898433c.16406228.1640622.3632802.2460931.59765482.2460931s.43359254-.0820309.59765483-.2460931l3.41014812-3.4101482 3.41014809 3.4101482c.1640623.1640622.3632802.2460931.5976549.2460931z" fill="#cf4202"/></svg>