<?xml version="1.0" encoding="UTF-8" standalone="no"?>
<svg width="258px" height="218px" viewBox="0 0 258 218" version="1.1" xmlns="http://www.w3.org/2000/svg" xmlns:xlink="http://www.w3.org/1999/xlink" xmlns:sketch="http://www.bohemiancoding.com/sketch/ns">
    <!-- Generator: Sketch 3.2.2 (9983) - http://www.bohemiancoding.com/sketch -->
    <title>desktop</title>
    <desc>Created with Sketch.</desc>
    <defs>
        <path id="path-1" d="M10.3482968,5.3266195 C10.3482968,8.14102868 8.06666129,10.4244015 5.25737419,10.4244015 C2.44559032,10.4244015 0.166035484,8.14102868 0.166035484,5.3266195 C0.166035484,2.50804207 2.44559032,0.225086042 5.25737419,0.225086042 C8.06666129,0.225086042 10.3482968,2.50804207 10.3482968,5.3266195"></path>
        <path id="path-3" d="M10.4269452,5.3266195 C10.4269452,8.14102868 8.14739032,10.4244015 5.3376871,10.4244015 C2.52798387,10.4244015 0.244267742,8.14102868 0.244267742,5.3266195 C0.244267742,2.50804207 2.52798387,0.225086042 5.3376871,0.225086042 C8.14739032,0.225086042 10.4269452,2.50804207 10.4269452,5.3266195"></path>
    </defs>
    <g id="Page-1" stroke="none" stroke-width="1" fill="none" fill-rule="evenodd" sketch:type="MSPage">
        <g id="desktop" sketch:type="MSArtboardGroup">
            <g sketch:type="MSLayerGroup">
                <path d="M8.32382903,10.3026883 L248.915903,10.3026883 L248.915903,160.069105 L8.32382903,160.069105 L8.32382903,10.3026883 Z" id="Fill-1" fill="#1BB24B" sketch:type="MSShapeGroup"></path>
                <path d="M153.2391,37.9465889 C153.2391,37.9465889 145.7571,23.4752237 122.022348,28.385434 C98.2875968,33.2948107 91.3220129,56.5524512 92.0960129,69.9905048 C92.8695968,83.4281415 95.8827871,91.4003556 102.081029,100.760184 C108.195629,109.994964 105.511181,115.988922 100.867597,117.539514 C100.867597,117.539514 127.439932,136.404226 155.044684,117.797946 C155.044684,117.797946 148.3371,115.730906 149.1111,110.303832 C149.8851,104.877174 159.688684,98.1583556 165.622268,86.7877591 C171.555852,75.4175793 174.135852,43.3736635 153.2391,37.9465889" id="Fill-2" fill="#4C360D" sketch:type="MSShapeGroup"></path>
                <path d="M94.1204806,159.851939 L106.208613,143.657415 C106.208613,143.657415 108.842294,148.372134 110.90879,159.851939 L146.486574,159.851939 C147.641748,147.26296 149.206394,140.212348 149.206394,140.212348 L167.7387,159.851939 L180.999068,159.851939 C172.758048,148.983618 156.680487,127.754669 156.086255,126.774711 C155.285623,125.457541 154.231568,122.405958 152.339429,122.481403 C148.346671,122.639797 136.737087,115.404115 136.846113,111.524298 C136.971784,107.056757 136.846113,99.7527151 136.846113,99.7527151 L121.889187,99.7527151 L121.889187,111.524298 C121.889187,115.996424 115.913158,119.787874 109.634603,121.885759 C103.352303,123.981143 100.028681,126.36122 100.028681,126.36122 L81.4189742,159.851939 L94.1204806,159.851939" id="Fill-3" fill="#F3D9A6" sketch:type="MSShapeGroup"></path>
                <path d="M159.525561,65.7872314 C159.525561,87.5984857 149.28421,105.471985 129.426948,105.471985 C109.572184,105.471985 98.5455968,87.408413 98.5455968,65.5975755 C98.5455968,43.782153 109.906752,41.5642218 129.761932,41.5642218 C149.619194,41.5642218 159.525561,43.9722256 159.525561,65.7872314" id="Fill-4" fill="#F4D89A" sketch:type="MSShapeGroup"></path>
                <path d="M122.354835,78.5387725 C122.354835,81.534501 119.900923,83.9645966 116.878161,83.9645966 C113.852903,83.9645966 111.403984,81.534501 111.403984,78.5387725 C111.403984,75.543044 113.852903,73.1141989 116.878161,73.1141989 C119.900923,73.1141989 122.354835,75.543044 122.354835,78.5387725" id="Fill-5" fill="#00ADE9" sketch:type="MSShapeGroup"></path>
                <path d="M120.946239,78.5379388 C120.946239,80.6283212 119.251761,82.3264704 117.166123,82.3264704 C115.077987,82.3264704 113.386006,80.6283212 113.386006,78.5379388 C113.386006,76.450891 115.077987,74.752325 117.166123,74.752325 C119.251761,74.752325 120.946239,76.450891 120.946239,78.5379388" id="Fill-6" fill="#234471" sketch:type="MSShapeGroup"></path>
                <path d="M115.573181,76.5759388 C115.573181,77.1799197 115.082565,77.6738585 114.480842,77.6738585 C113.876623,77.6738585 113.386006,77.1799197 113.386006,76.5759388 C113.386006,75.9719579 113.876623,75.4826042 114.480842,75.4826042 C115.082565,75.4826042 115.573181,75.9719579 115.573181,76.5759388" id="Fill-7" fill="#FFFFFF" sketch:type="MSShapeGroup"></path>
                <path d="M117.563526,91.8305201 C121.310352,94.1055564 125.321419,95.5106769 129.386584,95.4581568 C133.4763,95.4581568 137.394155,93.8733843 141.290371,91.8305201 C139.859303,93.5199159 138.069532,94.9212849 136.040071,95.9308375 C134.014355,96.9562294 131.720652,97.5156099 129.406974,97.5518738 C127.094961,97.5560421 124.785029,97.0391778 122.745581,96.0296252 C120.707797,95.0363289 118.867674,93.6353767 117.563526,91.8305201" id="Fill-8" fill="#C42C76" sketch:type="MSShapeGroup"></path>
                <path d="M147.925132,48.321805 C147.925132,48.321805 147.008816,55.1481644 150.720687,65.2495258 C154.795839,76.3395985 159.181839,80.4311625 163.309839,77.502543 C163.309839,77.502543 158.8506,79.0272925 160.084423,74.2721415 C161.761839,67.8117553 165.212381,56.8963327 160.041561,49.4209751 C155.593558,42.9893499 150.7881,44.019327 150.7881,44.019327 C150.7881,44.019327 146.9181,30.8397055 129.426948,30.6700574 C104.302742,30.4253805 87.0650129,62.1087419 100.093597,83.9450057 C100.093181,83.9450057 95.8390935,67.163174 104.737181,66.1144398 C113.634019,65.0652887 145.486616,53.9164436 147.925132,47.797021 L147.925132,48.321805" id="Fill-9" fill="#5F3F12" sketch:type="MSShapeGroup"></path>
                <path d="M149.090294,50.0691396 C149.090294,50.0691396 145.776242,56.5278585 134.663932,61.9795258 C125.83201,66.3128489 115.648084,67.0089484 105.8445,66.7509331 C105.8445,66.7509331 102.4905,72.4360229 102.748916,81.7391625 C103.0065,91.0423021 107.704181,100.871476 107.704181,100.871476 C107.704181,100.871476 89.387429,73.2204895 103.705181,50.8673614 C120.448132,24.7286195 146.531516,37.5589407 150.529684,45.3114876 C150.529684,45.3114876 150.594184,47.8136941 149.090294,50.0691396" id="Fill-10" fill="#754B1D" sketch:type="MSShapeGroup"></path>
                <path d="M124.698474,61.3217744 C124.698474,61.3217744 137.878113,58.4369216 143.6544,48.3443136 C143.6544,48.3443136 139.859303,52.6709675 134.175397,54.833044 C134.175397,54.833044 138.206855,51.4434149 138.978358,49.6310554 C138.978358,49.6310554 127.969665,49.5230975 119.466068,55.4245201 C119.466068,55.4245201 128.40119,44.9371778 146.635548,45.3310784 C146.635548,45.3310784 144.456697,57.7816711 124.698474,61.3217744" id="Fill-11" fill="#A26527" sketch:type="MSShapeGroup"></path>
                <path d="M147.467806,44.5436941 C144.440884,43.4816214 141.364858,42.744673 138.289248,42.1686195 C135.207397,41.635499 132.10349,41.3224627 129.015813,41.4162486 C122.817987,41.513369 116.777874,43.2777935 111.218806,46.5111128 C113.508348,44.254 116.281848,42.4145468 119.34539,41.2320115 C122.392703,40.0069598 125.683868,39.4129828 128.965461,39.3216979 C135.51991,39.227912 142.082681,41.0052581 147.467806,44.5436941" id="Fill-12" fill="#A26527" sketch:type="MSShapeGroup"></path>
                <path d="M157.108268,64.422543 C156.048387,63.1116252 155.191577,61.648566 154.403429,60.1529943 C153.629429,58.6436673 153.006484,57.0534761 152.507129,55.4145163 C151.559603,52.1461836 150.529684,45.3114876 150.529684,45.3114876 C150.529684,45.3114876 155.707577,46.6995182 157.767,50.6014264 C159.826839,54.5029178 159.697839,58.8962639 159.697839,58.8962639 C159.697839,58.8962639 158.570961,54.9580918 156.859839,52.3066616 C155.148716,49.6548145 153.455487,49.191304 152.732255,48.4305966 C152.732255,48.4305966 153.378919,52.5054876 154.022255,55.6662792 C154.677242,58.8329063 155.880271,61.3026004 157.108268,64.422543" id="Fill-13" fill="#A26527" sketch:type="MSShapeGroup"></path>
                <g id="Group-16" transform="translate(106.945161, 82.948375)">
                    <mask id="mask-2" sketch:name="Clip 15" fill="white">
                        <use xlink:href="#path-1"></use>
                    </mask>
                    <g id="Clip-15"></g>
                    <path d="M10.3482968,5.3266195 C10.3482968,8.14102868 8.06666129,10.4244015 5.25737419,10.4244015 C2.44559032,10.4244015 0.166035484,8.14102868 0.166035484,5.3266195 C0.166035484,2.50804207 2.44559032,0.225086042 5.25737419,0.225086042 C8.06666129,0.225086042 10.3482968,2.50804207 10.3482968,5.3266195" id="Fill-14" sketch:type="MSShapeGroup" mask="url(#mask-2)"></path>
                </g>
                <g id="Group-19" transform="translate(139.403226, 82.948375)">
                    <mask id="mask-4" sketch:name="Clip 18" fill="white">
                        <use xlink:href="#path-3"></use>
                    </mask>
                    <g id="Clip-18"></g>
                    <path d="M10.4269452,5.3266195 C10.4269452,8.14102868 8.14739032,10.4244015 5.3376871,10.4244015 C2.52798387,10.4244015 0.244267742,8.14102868 0.244267742,5.3266195 C0.244267742,2.50804207 2.52798387,0.225086042 5.3376871,0.225086042 C8.14739032,0.225086042 10.4269452,2.50804207 10.4269452,5.3266195" id="Fill-17" sketch:type="MSShapeGroup" mask="url(#mask-4)"></path>
                </g>
                <path d="M118.935919,133.320964 L139.316671,133.320964 L130.803087,149.601354 L118.935919,133.320964" id="Fill-20" fill="#C42C76" sketch:type="MSShapeGroup"></path>
                <path d="M105.506187,144.689893 C105.506187,144.689893 105.647671,143.343128 105.711755,141.314853 C105.775423,139.288245 105.771261,136.577625 105.484132,133.892015 C105.41339,133.220925 105.318513,132.55317 105.215313,131.89792 C105.098797,131.24517 104.984777,130.602841 104.841629,129.98844 C104.70181,129.373621 104.537855,128.78673 104.367658,128.235686 C104.2836,127.959331 104.199958,127.691312 104.101752,127.438715 C104.010203,127.183201 103.919071,126.937273 103.814206,126.708853 C103.621539,126.243675 103.415139,125.8306 103.216229,125.473797 C103.111781,125.297897 103.014406,125.132834 102.924523,124.980692 C102.823819,124.834803 102.731439,124.701002 102.647797,124.580122 C102.489668,124.330027 102.321968,124.168298 102.226258,124.042417 C102.124723,123.920704 102.070626,123.856096 102.070626,123.856096 L102.091016,123.835254 C102.091016,123.835254 102.150106,123.896111 102.261213,124.009488 C102.366494,124.128283 102.548758,124.279591 102.727277,124.518432 C102.820906,124.63431 102.924523,124.763109 103.037294,124.903163 C103.136748,125.052803 103.24411,125.214948 103.358961,125.387931 C103.577013,125.740983 103.817535,126.146554 104.025184,126.614233 C104.138787,126.844321 104.239074,127.091082 104.339777,127.347847 C104.447139,127.602111 104.540352,127.87138 104.633981,128.149403 C104.829145,128.702115 104.978119,129.302761 105.124181,129.923832 C105.267329,130.545736 105.388006,131.193901 105.486213,131.85582 C105.576929,132.518574 105.658906,133.192998 105.715916,133.869507 C105.958935,136.574707 105.92731,139.291163 105.813706,141.319021 C105.705929,143.348547 105.5349,144.693228 105.5349,144.693228 L105.506187,144.689893" id="Fill-21" fill="#064C6C" sketch:type="MSShapeGroup"></path>
                <path d="M151.255829,142.969235 C151.255829,142.969235 151.172187,141.687495 151.2138,139.761759 C151.247923,137.837273 151.4331,135.266707 151.91581,132.736574 C152.039816,132.105082 152.175058,131.475258 152.336516,130.86169 C152.495477,130.247289 152.677742,129.648727 152.887471,129.08101 C152.985261,128.794233 153.095952,128.517878 153.208306,128.248608 C153.312339,127.976421 153.437177,127.719239 153.559519,127.46956 C153.804619,126.971036 154.064284,126.512528 154.328942,126.105706 C154.452116,125.896459 154.596097,125.713055 154.72801,125.535488 C154.855761,125.355002 154.986842,125.191606 155.120003,125.045717 C155.368432,124.73935 155.618942,124.503426 155.824926,124.310853 C156.026332,124.113694 156.213174,123.990314 156.326777,123.891943 C156.444126,123.798157 156.506961,123.748138 156.506961,123.748138 L156.524855,123.771063 C156.524855,123.771063 156.466597,123.825667 156.357155,123.928623 C156.25229,124.035748 156.078348,124.171216 155.895252,124.382547 C155.710074,124.591377 155.479123,124.837721 155.249419,125.150757 C155.127077,125.300398 155.007232,125.467962 154.891132,125.651782 C154.771703,125.833101 154.641455,126.020256 154.524939,126.228669 C154.277758,126.635491 154.037652,127.093166 153.81211,127.590023 C153.588648,128.087713 153.356032,128.615415 153.160035,129.17938 C152.951555,129.738761 152.776781,130.331488 152.60159,130.933801 C152.428481,131.537365 152.281171,132.158853 152.144265,132.782841 C151.620358,135.286298 151.399394,137.846444 151.315752,139.765094 C151.230445,141.685411 151.284958,142.967985 151.284958,142.967985 L151.255829,142.969235" id="Fill-22" fill="#064C6C" sketch:type="MSShapeGroup"></path>
                <path d="M137.030458,78.5387725 C137.030458,81.534501 139.484371,83.9645966 142.507132,83.9645966 C145.53239,83.9645966 147.981726,81.534501 147.981726,78.5387725 C147.981726,75.543044 145.53239,73.1141989 142.507132,73.1141989 C139.484371,73.1141989 137.030458,75.543044 137.030458,78.5387725" id="Fill-23" fill="#00ADE9" sketch:type="MSShapeGroup"></path>
                <path d="M138.439471,78.5379388 C138.439471,80.6283212 140.133532,82.3264704 142.219587,82.3264704 C144.307723,82.3264704 145.999287,80.6283212 145.999287,78.5379388 C145.999287,76.450891 144.307723,74.752325 142.219587,74.752325 C140.133532,74.752325 138.439471,76.450891 138.439471,78.5379388" id="Fill-24" fill="#234471" sketch:type="MSShapeGroup"></path>
                <path d="M138.653361,76.5759388 C138.653361,77.1799197 139.143977,77.6738585 139.7457,77.6738585 C140.349919,77.6738585 140.840535,77.1799197 140.840535,76.5759388 C140.840535,75.9719579 140.349919,75.4826042 139.7457,75.4826042 C139.143977,75.4826042 138.653361,75.9719579 138.653361,76.5759388" id="Fill-25" fill="#FFFFFF" sketch:type="MSShapeGroup"></path>
                <path d="M131.663226,118.806249 C131.663226,119.924176 130.758145,120.830772 129.642087,120.830772 C128.526029,120.830772 127.621365,119.924176 127.621365,118.806249 C127.621365,117.688321 128.526029,116.782141 129.642087,116.782141 C130.758145,116.782141 131.663226,117.688321 131.663226,118.806249" id="Fill-26" fill="#00ADE9" sketch:type="MSShapeGroup"></path>
                <path d="M130.373642,117.811702 C130.085681,117.811702 129.853065,118.045124 129.853065,118.332734 C129.853065,118.620761 130.085681,118.853767 130.373642,118.853767 C130.660771,118.853767 130.893387,118.620761 130.893387,118.332734 C130.893387,118.045124 130.660771,117.811702 130.373642,117.811702" id="Fill-27" fill="#33BDEB" sketch:type="MSShapeGroup"></path>
                <path d="M127.621781,118.5053 C127.621781,119.456497 126.851526,120.228459 125.901503,120.228459 C124.951481,120.228459 124.181226,119.456497 124.181226,118.5053 C124.181226,117.55327 124.951481,116.782141 125.901503,116.782141 C126.851526,116.782141 127.621781,117.55327 127.621781,118.5053" id="Fill-28" fill="#00ADE9" sketch:type="MSShapeGroup"></path>
                <path d="M126.523616,117.65831 C126.278932,117.65831 126.081271,117.856302 126.081271,118.101396 C126.081271,118.346489 126.278932,118.545315 126.523616,118.545315 C126.7683,118.545315 126.966377,118.346489 126.966377,118.101396 C126.966377,117.856302 126.7683,117.65831 126.523616,117.65831" id="Fill-29" fill="#33BDEB" sketch:type="MSShapeGroup"></path>
                <path d="M124.359745,117.471572 C124.359745,118.331067 123.663977,119.028 122.805919,119.028 C121.947445,119.028 121.251261,118.331067 121.251261,117.471572 C121.251261,116.611243 121.947445,115.914727 122.805919,115.914727 C123.663977,115.914727 124.359745,116.611243 124.359745,117.471572" id="Fill-30" fill="#00ADE9" sketch:type="MSShapeGroup"></path>
                <path d="M123.367694,116.706279 C123.146729,116.706279 122.967794,116.885931 122.967794,117.106849 C122.967794,117.328184 123.146729,117.507836 123.367694,117.507836 C123.589074,117.507836 123.76801,117.328184 123.76801,117.106849 C123.76801,116.885931 123.589074,116.706279 123.367694,116.706279" id="Fill-31" fill="#33BDEB" sketch:type="MSShapeGroup"></path>
                <path d="M121.967419,115.533331 C121.967419,116.282367 121.360703,116.889683 120.612919,116.889683 C119.865135,116.889683 119.258003,116.282367 119.258003,115.533331 C119.258003,114.783878 119.865135,114.176562 120.612919,114.176562 C121.360703,114.176562 121.967419,114.783878 121.967419,115.533331" id="Fill-32" fill="#00ADE9" sketch:type="MSShapeGroup"></path>
                <path d="M121.102703,114.866409 C120.910035,114.866409 120.753987,115.022719 120.753987,115.215709 C120.753987,115.4087 120.910035,115.56501 121.102703,115.56501 C121.295371,115.56501 121.451419,115.4087 121.451419,115.215709 C121.451419,115.022719 121.295371,114.866409 121.102703,114.866409" id="Fill-33" fill="#33BDEB" sketch:type="MSShapeGroup"></path>
                <path d="M131.59831,118.117235 C131.59831,119.069266 132.368981,119.840394 133.318587,119.840394 C134.26861,119.840394 135.038865,119.069266 135.038865,118.117235 C135.038865,117.165621 134.26861,116.394493 133.318587,116.394493 C132.368981,116.394493 131.59831,117.165621 131.59831,118.117235" id="Fill-34" fill="#00ADE9" sketch:type="MSShapeGroup"></path>
                <path d="M133.555365,116.898436 C133.310681,116.898436 133.112603,117.097262 133.112603,117.341939 C133.112603,117.587033 133.310681,117.785859 133.555365,117.785859 C133.800048,117.785859 133.99771,117.587033 133.99771,117.341939 C133.99771,117.097262 133.800048,116.898436 133.555365,116.898436" id="Fill-35" fill="#33BDEB" sketch:type="MSShapeGroup"></path>
                <path d="M134.860761,117.083507 C134.860761,117.943419 135.556113,118.640769 136.414587,118.640769 C137.272645,118.640769 137.968829,117.943419 137.968829,117.083507 C137.968829,116.224011 137.272645,115.527078 136.414587,115.527078 C135.556113,115.527078 134.860761,116.224011 134.860761,117.083507" id="Fill-36" fill="#00ADE9" sketch:type="MSShapeGroup"></path>
                <path d="M136.368397,115.88805 C136.147848,115.88805 135.968497,116.067285 135.968497,116.28862 C135.968497,116.509954 136.147848,116.689189 136.368397,116.689189 C136.589361,116.689189 136.768713,116.509954 136.768713,116.28862 C136.768713,116.067285 136.589361,115.88805 136.368397,115.88805" id="Fill-37" fill="#33BDEB" sketch:type="MSShapeGroup"></path>
                <path d="M137.253087,115.145266 C137.253087,115.894719 137.859387,116.502034 138.607587,116.502034 C139.355787,116.502034 139.962087,115.894719 139.962087,115.145266 C139.962087,114.396229 139.355787,113.788914 138.607587,113.788914 C137.859387,113.788914 137.253087,114.396229 137.253087,115.145266" id="Fill-38" fill="#00ADE9" sketch:type="MSShapeGroup"></path>
                <path d="M138.461526,114.134046 C138.268858,114.134046 138.113226,114.290772 138.113226,114.483346 C138.113226,114.676337 138.268858,114.832646 138.461526,114.832646 C138.654194,114.832646 138.810242,114.676337 138.810242,114.483346 C138.810242,114.290772 138.654194,114.134046 138.461526,114.134046" id="Fill-39" fill="#33BDEB" sketch:type="MSShapeGroup"></path>
                <path d="M105.520752,144.69156 C105.520752,144.69156 108.632565,151.316593 110.616668,159.851939 L148.439052,159.851939 C149.18309,150.545881 151.270394,142.968402 151.270394,142.968402 L161.971984,153.627059 L171.221284,144.69156 C166.05629,137.072815 157.671706,125.286642 157.032116,124.104107 C155.913977,122.03665 150.979935,121.40891 149.206394,120.744489 C145.63351,119.406895 144.240726,119.193063 140.984516,116.926363 C138.543087,125.826849 129.943365,143.313117 129.943365,143.313117 C129.943365,143.313117 119.967919,124.276256 119.063671,116.854669 C116.732516,118.954222 114.941081,119.742857 111.368197,120.917055 C109.597984,121.498528 105.348474,122.467231 102.080613,123.845675 C98.8131677,125.223702 89.0095839,146.414302 89.0095839,146.414302 L97.953029,154.683713 L105.520752,144.69156" id="Fill-40" fill="#F99D1C" sketch:type="MSShapeGroup"></path>
                <path d="M248.915903,125.833935 L248.915903,132.192616 L255.484916,132.192616 L248.915903,125.833935 M248.915903,11.297652 L248.915903,107.103025 L250.568352,108.624857 L252.08639,11.3147419 L248.915903,11.297652" id="Fill-41" fill="#F9FCF9" sketch:type="MSShapeGroup"></path>
                <path d="M110.918777,10.5544512 L128.937581,27.4425736 C129.766926,27.3925545 130.571719,27.3687954 131.351129,27.3687954 C147.768668,27.3687954 153.2391,37.9465889 153.2391,37.9465889 C165.618523,41.1615679 169.75859,53.7159503 169.843481,65.7813958 L240.701932,132.192616 L248.915903,132.192616 L248.915903,125.833935 L132.180474,12.8353231 L146.578123,12.8353231 L248.915903,107.103025 L248.915903,11.297652 L110.918777,10.5544512" id="Fill-42" fill="#2CB758" sketch:type="MSShapeGroup"></path>
                <path d="M131.351129,27.3687954 C130.571719,27.3687954 129.766926,27.3925545 128.937581,27.4425736 L132.574132,30.850543 C147.389158,32.4494876 150.7881,44.019327 150.7881,44.019327 C150.7881,44.019327 151.070652,43.9588872 151.562932,43.9588872 C153.098865,43.9588872 156.672997,44.5499465 160.041561,49.4209751 C162.036068,52.3045774 162.748065,55.7004589 162.773448,59.154696 L169.843481,65.7813958 C169.75859,53.7159503 165.618523,41.1615679 153.2391,37.9465889 C153.2391,37.9465889 147.768668,27.3687954 131.351129,27.3687954" id="Fill-43" fill="#58471F" sketch:type="MSShapeGroup"></path>
                <path d="M152.732255,48.4305966 C152.732255,48.4305966 152.829629,49.0454149 152.98651,49.9820229 L158.223494,54.890566 C157.831084,54.0073117 157.371677,53.0994646 156.859839,52.3066616 C155.148716,49.6548145 153.455487,49.191304 152.732255,48.4305966 M132.574132,30.850543 L139.195994,37.0570822 C144.842865,39.1132849 149.099032,42.5370937 150.529684,45.3114876 C150.529684,45.3114876 150.552987,46.2097476 150.247965,47.4152084 L150.983265,48.1046386 C150.707371,46.4911052 150.529684,45.3114876 150.529684,45.3114876 C150.529684,45.3114876 155.707577,46.6995182 157.767,50.6014264 C158.766958,52.4954837 159.251332,54.5054187 159.484781,56.0722677 L162.773448,59.154696 C162.748065,55.7004589 162.036068,52.3045774 160.041561,49.4209751 C156.672997,44.5499465 153.098865,43.9588872 151.562932,43.9588872 C151.070652,43.9588872 150.7881,44.019327 150.7881,44.019327 C150.7881,44.019327 147.389158,32.4494876 132.574132,30.850543" id="Fill-44" fill="#695024" sketch:type="MSShapeGroup"></path>
                <path d="M139.195994,37.0570822 L146.594768,43.9913996 C146.888971,44.1706348 147.180261,44.3544551 147.467806,44.5436941 C147.318,44.491174 147.168194,44.4390707 147.018387,44.388218 L150.247965,47.4152084 C150.552987,46.2097476 150.529684,45.3114876 150.529684,45.3114876 C149.099032,42.5370937 144.842865,39.1132849 139.195994,37.0570822" id="Fill-45" fill="#7D5A2E" sketch:type="MSShapeGroup"></path>
                <path d="M146.594768,43.9913996 L147.018387,44.388218 C147.168194,44.4390707 147.318,44.491174 147.467806,44.5436941 C147.180261,44.3544551 146.888971,44.1706348 146.594768,43.9913996" id="Fill-46" fill="#A57237" sketch:type="MSShapeGroup"></path>
                <path d="M150.529684,45.3114876 C150.529684,45.3114876 150.707371,46.4911052 150.983265,48.1046386 L152.98651,49.9820229 C152.829629,49.0454149 152.732255,48.4305966 152.732255,48.4305966 C153.455487,49.191304 155.148716,49.6548145 156.859839,52.3066616 C157.371677,53.0994646 157.831084,54.0073117 158.223494,54.890566 L159.484781,56.0722677 C159.251332,54.5054187 158.766958,52.4954837 157.767,50.6014264 C155.707577,46.6995182 150.529684,45.3114876 150.529684,45.3114876" id="Fill-47" fill="#A57237" sketch:type="MSShapeGroup"></path>
                <path d="M17.6613484,17.5871396 L240.291213,17.5871396 L240.291213,150.881843 L17.6613484,150.881843 L17.6613484,17.5871396 Z M240.291213,0.101705545 L17.6613484,0.101705545 C8.02047097,0.101705545 0.205151613,7.93011472 0.205151613,17.5871396 L0.205151613,150.881843 C0.205151613,160.538451 8.02047097,168.367277 17.6613484,168.367277 L240.291213,168.367277 C249.931674,168.367277 257.74741,160.538451 257.74741,150.881843 L257.74741,17.5871396 C257.74741,7.93011472 249.931674,0.101705545 240.291213,0.101705545 L240.291213,0.101705545 Z" id="Fill-48" fill="#004152" sketch:type="MSShapeGroup"></path>
                <path d="M167.620103,209.356279 C167.620103,209.356279 144.218671,199.853897 144.218671,177.807136 L113.733474,177.807136 C113.733474,199.853897 90.3320419,209.356279 90.3320419,209.356279 L90.3320419,217.592344 L167.620103,217.592344 L167.620103,209.356279" id="Fill-49" fill="#004152" sketch:type="MSShapeGroup"></path>
                <path d="M117.042948,17.5871396 L240.291213,17.5871396 L240.291213,131.791212 L257.74741,147.97865 L257.74741,17.5871396 C257.74741,7.93011472 249.931674,0.101705545 240.291213,0.101705545 L95.3518065,0.101705545 L117.042948,17.5871396" id="Fill-50" fill="#074C5F" sketch:type="MSShapeGroup"></path>
            </g>
        </g>
    </g>
</svg>