<svg height="218" viewBox="0 0 258 218" width="258" xmlns="http://www.w3.org/2000/svg" xmlns:xlink="http://www.w3.org/1999/xlink"><mask id="a" fill="#fff"><path d="m10.3482968 5.3266195c0 2.81440918-2.28163551 5.097782-5.09092261 5.097782-2.81178387 0-5.09133871-2.28337282-5.09133871-5.097782 0-2.81857743 2.27955484-5.10153346 5.09133871-5.10153346 2.8092871 0 5.09092261 2.28295603 5.09092261 5.10153346" fill="#fff" fill-rule="evenodd"/></mask><mask id="b" fill="#fff"><path d="m10.4269452 5.3266195c0 2.81440918-2.27955488 5.097782-5.0892581 5.097782-2.80970323 0-5.09341936-2.28337282-5.09341936-5.097782 0-2.81857743 2.28371613-5.10153346 5.09341936-5.10153346 2.80970322 0 5.0892581 2.28295603 5.0892581 5.10153346" fill="#fff" fill-rule="evenodd"/></mask><g fill="none" fill-rule="evenodd"><path d="m8.32382903 10.3026883h240.59207397v149.7664167h-240.59207397z" fill="#1bb24b"/><path d="m153.2391 37.9465889s-7.482-14.4713652-31.216752-9.5611549c-23.7347512 4.9093767-30.7003351 28.1670172-29.9263351 41.6050708.7735839 13.4376367 3.7867742 21.4098508 9.9850161 30.7696792 6.1146 9.23478 3.430152 15.228738-1.213432 16.77933 0 0 26.572335 18.864712 54.177087.258432 0 0-6.707584-2.06704-5.933584-7.494114.774-5.426658 10.577584-12.1454764 16.511168-23.5160729 5.933584-11.3701798 8.513584-43.4140956-12.383168-48.8411702" fill="#4c360d"/><path d="m94.1204806 159.851939 12.0881324-16.194524s2.633681 4.714719 4.700177 16.194524h35.577784c1.155174-12.588979 2.71982-19.639591 2.71982-19.639591l18.532306 19.639591h13.260368c-8.24102-10.868321-24.318581-32.09727-24.912813-33.077228-.800632-1.31717-1.854687-4.368753-3.746826-4.293308-3.992758.158394-15.602342-7.077288-15.493316-10.957105.125671-4.467541 0-11.7715829 0-11.7715829h-14.956926v11.7715829c0 4.472126-5.976029 8.263576-12.254584 10.361461-6.2823 2.095384-9.605922 4.475461-9.605922 4.475461l-18.6097068 33.490719z" fill="#f3d9a6"/><path d="m159.525561 65.7872314c0 21.8112543-10.241351 39.6847536-30.098613 39.6847536-19.854764 0-30.8813512-18.063572-30.8813512-39.8744095 0-21.8154225 11.3611552-24.0333537 31.2163352-24.0333537 19.857262 0 29.763629 2.4080038 29.763629 24.2230096" fill="#f4d89a"/><path d="m122.354835 78.5387725c0 2.9957285-2.453912 5.4258241-5.476674 5.4258241-3.025258 0-5.474177-2.4300956-5.474177-5.4258241s2.448919-5.4245736 5.474177-5.4245736c3.022762 0 5.476674 2.4288451 5.476674 5.4245736" fill="#00ade9"/><path d="m120.946239 78.5379388c0 2.0903824-1.694478 3.7885316-3.780116 3.7885316-2.088136 0-3.780117-1.6981492-3.780117-3.7885316 0-2.0870478 1.691981-3.7856138 3.780117-3.7856138 2.085638 0 3.780116 1.698566 3.780116 3.7856138" fill="#234471"/><path d="m115.573181 76.5759388c0 .6039809-.490616 1.0979197-1.092339 1.0979197-.604219 0-1.094836-.4939388-1.094836-1.0979197s.490617-1.0933346 1.094836-1.0933346c.601723 0 1.092339.4893537 1.092339 1.0933346" fill="#fff"/><path d="m117.563526 91.8305201c3.746826 2.2750363 7.757893 3.6801568 11.823058 3.6276367 4.089716 0 8.007571-1.5847725 11.903787-3.6276367-1.431068 1.6893958-3.220839 3.0907648-5.2503 4.1003174-2.025716 1.0253919-4.319419 1.5847724-6.633097 1.6210363-2.312013.0041683-4.621945-.512696-6.661393-1.5222486-2.037784-.9932963-3.877907-2.3942485-5.182055-4.1991051" fill="#c42c76"/><path d="m147.925132 48.321805s-.916316 6.8263594 2.795555 16.9277208c4.075152 11.0900727 8.461152 15.1816367 12.589152 12.2530172 0 0-4.459239 1.5247495-3.225416-3.2304015 1.677416-6.4603862 5.127958-17.3758088-.042862-24.8511664-4.448003-6.4316252-9.253461-5.4016481-9.253461-5.4016481s-3.87-13.1796215-21.361152-13.3492696c-25.124206-.2446769-42.3619351 31.4386845-29.333351 53.2749483-.000416 0-4.2545035-16.7818317 4.643584-17.8305659 8.896838-1.0491511 40.749435-12.1979962 43.187951-18.3174188z" fill="#5f3f12"/><path d="m149.090294 50.0691396s-3.314052 6.4587189-14.426362 11.9103862c-8.831922 4.3333231-19.015848 5.0294226-28.819432 4.7714073 0 0-3.354 5.6850898-3.095584 14.9882294.257584 9.3031396 4.955265 19.1323135 4.955265 19.1323135s-18.316752-27.6509865-3.999-50.0041146c16.742951-26.1387419 42.826335-13.3084207 46.824503-5.5558738 0 0 .0645 2.5022065-1.43939 4.757652" fill="#754b1d"/><g fill="#a26527"><path d="m124.698474 61.3217744s13.179639-2.8848528 18.955926-12.9774608c0 0-3.795097 4.3266539-9.479003 6.4887304 0 0 4.031458-3.3896291 4.802961-5.2019886 0 0-11.008693-.1079579-19.51229 5.7934647 0 0 8.935122-10.4873423 27.16948-10.0934417 0 0-2.178851 12.4505927-21.937074 15.990696"/><path d="m147.467806 44.5436941c-3.026922-1.0620727-6.102948-1.7990211-9.178558-2.3750746-3.081851-.5331205-6.185758-.8461568-9.273435-.7523709-6.197826.0971204-12.237939 1.8615449-17.797007 5.0948642 2.289542-2.2571128 5.063042-4.096566 8.126584-5.2791013 3.047313-1.2250517 6.338478-1.8190287 9.620071-1.9103136 6.554449-.0937859 13.11722 1.6835602 18.502345 5.2219962"/><path d="m157.108268 64.422543c-1.059881-1.3109178-1.916691-2.773977-2.704839-4.2695487-.774-1.509327-1.396945-3.0995182-1.8963-4.738478-.947526-3.2683327-1.977445-10.1030287-1.977445-10.1030287s5.177893 1.3880306 7.237316 5.2899388c2.059839 3.9014914 1.930839 8.2948375 1.930839 8.2948375s-1.126878-3.9381721-2.838-6.5896023c-1.711123-2.6518471-3.404352-3.1153576-4.127584-3.876065 0 0 .646664 4.074891 1.29 7.2356826.654987 3.1666271 1.858016 5.6363212 3.086013 8.7562638"/></g><path d="m10.3482968 5.3266195c0 2.81440918-2.28163551 5.097782-5.09092261 5.097782-2.81178387 0-5.09133871-2.28337282-5.09133871-5.097782 0-2.81857743 2.27955484-5.10153346 5.09133871-5.10153346 2.8092871 0 5.09092261 2.28295603 5.09092261 5.10153346" mask="url(#a)" transform="translate(106.945161 82.948375)"/><path d="m10.4269452 5.3266195c0 2.81440918-2.27955488 5.097782-5.0892581 5.097782-2.80970323 0-5.09341936-2.28337282-5.09341936-5.097782 0-2.81857743 2.28371613-5.10153346 5.09341936-5.10153346 2.80970322 0 5.0892581 2.28295603 5.0892581 5.10153346" mask="url(#b)" transform="translate(139.403226 82.948375)"/><path d="m118.935919 133.320964h20.380752l-8.513584 16.28039z" fill="#c42c76"/><path d="m105.506187 144.689893s.141484-1.346765.205568-3.37504c.063668-2.026608.059506-4.737228-.227623-7.422838-.070742-.67109-.165619-1.338845-.268819-1.994095-.116516-.65275-.230536-1.295079-.373684-1.90948-.139819-.614819-.303774-1.20171-.473971-1.752754-.084058-.276355-.1677-.544374-.265906-.796971-.091549-.255514-.182681-.501442-.287546-.729862-.192667-.465178-.399067-.878253-.597977-1.235056-.104448-.1759-.201823-.340963-.291706-.493105-.100704-.145889-.193084-.27969-.276726-.40057-.158129-.250095-.325829-.411824-.421539-.537705-.101535-.121713-.155632-.186321-.155632-.186321l.02039-.020842s.05909.060857.170197.174234c.105281.118795.287545.270103.466064.508944.093629.115878.197246.244677.310017.384731.099454.14964.206816.311785.321667.484768.218052.353052.458574.758623.666223 1.226302.113603.230088.21389.476849.314593.733614.107362.254264.200575.523533.294204.801556.195164.552712.344138 1.153358.4902 1.774429.143148.621904.263825 1.270069.362032 1.931988.090716.662754.172693 1.337178.229703 2.013687.243019 2.7052.211394 5.421656.09779 7.449514-.107777 2.029526-.278806 3.374207-.278806 3.374207z" fill="#064c6c"/><path d="m151.255829 142.969235s-.083642-1.28174-.042029-3.207476c.034123-1.924486.2193-4.495052.70201-7.025185.124006-.631492.259248-1.261316.420706-1.874884.158961-.614401.341226-1.212963.550955-1.78068.09779-.286777.208481-.563132.320835-.832402.104033-.272187.228871-.529369.351213-.779048.2451-.498524.504765-.957032.769423-1.363854.123174-.209247.267155-.392651.399068-.570218.127751-.180486.258832-.343882.391993-.489771.248429-.306367.498939-.542291.704923-.734864.201406-.197159.388248-.320539.501851-.41891.117349-.093786.180184-.143805.180184-.143805l.017894.022925s-.058258.054604-.1677.15756c-.104865.107125-.278807.242593-.461903.453924-.185178.20883-.416129.455174-.645833.76821-.122342.149641-.242187.317205-.358287.501025-.119429.181319-.249677.368474-.366193.576887-.247181.406822-.487287.864497-.712829 1.361354-.223462.49769-.456078 1.025392-.652075 1.589357-.20848.559381-.383254 1.152108-.558445 1.754421-.173109.603564-.320419 1.225052-.457325 1.84904-.523907 2.503457-.744871 5.063603-.828513 6.982253-.085307 1.920317-.030794 3.202891-.030794 3.202891z" fill="#064c6c"/><path d="m137.030458 78.5387725c0 2.9957285 2.453913 5.4258241 5.476674 5.4258241 3.025258 0 5.474594-2.4300956 5.474594-5.4258241s-2.449336-5.4245736-5.474594-5.4245736c-3.022761 0-5.476674 2.4288451-5.476674 5.4245736" fill="#00ade9"/><path d="m138.439471 78.5379388c0 2.0903824 1.694061 3.7885316 3.780116 3.7885316 2.088136 0 3.7797-1.6981492 3.7797-3.7885316 0-2.0870478-1.691564-3.7856138-3.7797-3.7856138-2.086055 0-3.780116 1.698566-3.780116 3.7856138" fill="#234471"/><path d="m138.653361 76.5759388c0 .6039809.490616 1.0979197 1.092339 1.0979197.604219 0 1.094835-.4939388 1.094835-1.0979197s-.490616-1.0933346-1.094835-1.0933346c-.601723 0-1.092339.4893537-1.092339 1.0933346" fill="#fff"/><path d="m131.663226 118.806249c0 1.117927-.905081 2.024523-2.021139 2.024523s-2.020722-.906596-2.020722-2.024523c0-1.117928.904664-2.024108 2.020722-2.024108s2.021139.90618 2.021139 2.024108" fill="#00ade9"/><path d="m130.373642 117.811702c-.287961 0-.520577.233422-.520577.521032 0 .288027.232616.521033.520577.521033.287129 0 .519745-.233006.519745-.521033 0-.28761-.232616-.521032-.519745-.521032" fill="#33bdeb"/><path d="m127.621781 118.5053c0 .951197-.770255 1.723159-1.720278 1.723159-.950022 0-1.720277-.771962-1.720277-1.723159 0-.95203.770255-1.723159 1.720277-1.723159.950023 0 1.720278.771129 1.720278 1.723159" fill="#00ade9"/><path d="m126.523616 117.65831c-.244684 0-.442345.197992-.442345.443086 0 .245093.197661.443919.442345.443919s.442761-.198826.442761-.443919c0-.245094-.198077-.443086-.442761-.443086" fill="#33bdeb"/><path d="m124.359745 117.471572c0 .859495-.695768 1.556428-1.553826 1.556428-.858474 0-1.554658-.696933-1.554658-1.556428 0-.860329.696184-1.556845 1.554658-1.556845.858058 0 1.553826.696516 1.553826 1.556845" fill="#00ade9"/><path d="m123.367694 116.706279c-.220965 0-.3999.179652-.3999.40057 0 .221335.178935.400987.3999.400987.22138 0 .400316-.179652.400316-.400987 0-.220918-.178936-.40057-.400316-.40057" fill="#33bdeb"/><path d="m121.967419 115.533331c0 .749036-.606716 1.356352-1.3545 1.356352s-1.354916-.607316-1.354916-1.356352c0-.749453.607132-1.356769 1.354916-1.356769s1.3545.607316 1.3545 1.356769" fill="#00ade9"/><path d="m121.102703 114.866409c-.192668 0-.348716.15631-.348716.3493 0 .192991.156048.349301.348716.349301s.348716-.15631.348716-.349301c0-.19299-.156048-.3493-.348716-.3493" fill="#33bdeb"/><path d="m131.59831 118.117235c0 .952031.770671 1.723159 1.720277 1.723159.950023 0 1.720278-.771128 1.720278-1.723159 0-.951614-.770255-1.722742-1.720278-1.722742-.949606 0-1.720277.771128-1.720277 1.722742" fill="#00ade9"/><path d="m133.555365 116.898436c-.244684 0-.442762.198826-.442762.443503 0 .245094.198078.44392.442762.44392.244683 0 .442345-.198826.442345-.44392 0-.244677-.197662-.443503-.442345-.443503" fill="#33bdeb"/><path d="m134.860761 117.083507c0 .859912.695352 1.557262 1.553826 1.557262.858058 0 1.554242-.69735 1.554242-1.557262 0-.859496-.696184-1.556429-1.554242-1.556429-.858474 0-1.553826.696933-1.553826 1.556429" fill="#00ade9"/><path d="m136.368397 115.88805c-.220549 0-.3999.179235-.3999.40057 0 .221334.179351.400569.3999.400569.220964 0 .400316-.179235.400316-.400569 0-.221335-.179352-.40057-.400316-.40057" fill="#33bdeb"/><path d="m137.253087 115.145266c0 .749453.6063 1.356768 1.3545 1.356768s1.3545-.607315 1.3545-1.356768c0-.749037-.6063-1.356352-1.3545-1.356352s-1.3545.607315-1.3545 1.356352" fill="#00ade9"/><path d="m138.461526 114.134046c-.192668 0-.3483.156726-.3483.3493 0 .192991.155632.3493.3483.3493s.348716-.156309.348716-.3493c0-.192574-.156048-.3493-.348716-.3493" fill="#33bdeb"/><path d="m105.520752 144.69156s3.111813 6.625033 5.095916 15.160379h37.822384c.744038-9.306058 2.831342-16.883537 2.831342-16.883537l10.70159 10.658657 9.2493-8.935499c-5.164994-7.618745-13.549578-19.404918-14.189168-20.587453-1.118139-2.067457-6.052181-2.695197-7.825722-3.359618-3.572884-1.337594-4.965668-1.551426-8.221878-3.818126-2.441429 8.900486-11.041151 26.386754-11.041151 26.386754s-9.975446-19.036861-10.879694-26.458448c-2.331155 2.099553-4.12259 2.888188-7.695474 4.062386-1.770213.581473-6.019723 1.550176-9.287584 2.92862-3.2674453 1.378027-13.0710291 22.568627-13.0710291 22.568627l8.9434451 8.269411z" fill="#f99d1c"/><path d="m248.915903 125.833935v6.358681h6.569013zm0-114.536283v95.805373l1.652449 1.521832 1.518038-97.3101151z" fill="#f9fcf9"/><path d="m110.918777 10.5544512 18.018804 16.8881224c.829345-.0500191 1.634138-.0737782 2.413548-.0737782 16.417539 0 21.887971 10.5777935 21.887971 10.5777935 12.379423 3.214979 16.51949 15.7693614 16.604381 27.8348069l70.858451 66.4112202h8.213971v-6.358681l-116.735429-112.9986119h14.397649l102.33778 94.2677019v-95.805373z" fill="#2cb758"/><path d="m131.351129 27.3687954c-.77941 0-1.584203.0237591-2.413548.0737782l3.636551 3.4079694c14.815026 1.5989446 18.213968 13.168784 18.213968 13.168784s.282552-.0604398.774832-.0604398c1.535933 0 5.110065.5910593 8.478629 5.4620879 1.994507 2.8836023 2.706504 6.2794838 2.731887 9.7337209l7.070033 6.6266998c-.084891-12.0654455-4.224958-24.6198279-16.604381-27.8348069 0 0-5.470432-10.5777935-21.887971-10.5777935" fill="#58471f"/><path d="m152.732255 48.4305966s.097374.6148183.254255 1.5514263l5.236984 4.9085431c-.39241-.8832543-.851817-1.7911014-1.363655-2.5839044-1.711123-2.6518471-3.404352-3.1153576-4.127584-3.876065m-20.158123-17.5800536 6.621862 6.2065392c5.646871 2.0562027 9.903038 5.4800115 11.33369 8.2544054 0 0 .023303.89826-.281719 2.1037208l.7353.6894302c-.275894-1.6135334-.453581-2.793151-.453581-2.793151s5.177893 1.3880306 7.237316 5.2899388c.999958 1.8940573 1.484332 3.9039923 1.717781 5.4708413l3.288667 3.0824283c-.025383-3.4542371-.73738-6.8501186-2.731887-9.7337209-3.368564-4.8710286-6.942696-5.4620879-8.478629-5.4620879-.49228 0-.774832.0604398-.774832.0604398s-3.398942-11.5698394-18.213968-13.168784" fill="#695024"/><path d="m139.195994 37.0570822 7.398774 6.9343174c.294203.1792352.585493.3630555.873038.5522945-.149806-.0525201-.299612-.1046234-.449419-.1554761l3.229578 3.0269904c.305022-1.2054608.281719-2.1037208.281719-2.1037208-1.430652-2.7743939-5.686819-6.1982027-11.33369-8.2544054" fill="#7d5a2e"/><path d="m146.594768 43.9913996.423619.3968184c.149807.0508527.299613.102956.449419.1554761-.287545-.189239-.578835-.3730593-.873038-.5522945" fill="#a57237"/><path d="m150.529684 45.3114876s.177687 1.1796176.453581 2.793151l2.003245 1.8773843c-.156881-.936608-.254255-1.5514263-.254255-1.5514263.723232.7607074 2.416461 1.2242179 4.127584 3.876065.511838.792803.971245 1.7006501 1.363655 2.5839044l1.261287 1.1817017c-.233449-1.566849-.717823-3.576784-1.717781-5.4708413-2.059423-3.9019082-7.237316-5.2899388-7.237316-5.2899388" fill="#a57237"/><path d="m17.6613484 17.5871396h222.6298646v133.2947034h-222.6298646zm222.6298646-17.48543405h-222.6298646c-9.64087743 0-17.45619679 7.82840917-17.45619679 17.48543405v133.2947034c0 9.656608 7.81531936 17.485434 17.45619679 17.485434h222.6298646c9.640461 0 17.456197-7.828826 17.456197-17.485434v-133.2947034c0-9.65702488-7.815736-17.48543405-17.456197-17.48543405z" fill="#004152"/><path d="m167.620103 209.356279s-23.401432-9.502382-23.401432-31.549143h-30.485197c0 22.046761-23.4014321 31.549143-23.4014321 31.549143v8.236065h77.2880611z" fill="#004152"/><path d="m117.042948 17.5871396h123.248265v114.2040724l17.456197 16.187438v-130.3915104c0-9.65702488-7.815736-17.48543405-17.456197-17.48543405h-144.9394065z" fill="#074c5f"/></g></svg>