<?xml version="1.0" encoding="UTF-8" standalone="no"?>
<svg width="150px" height="150px" viewBox="0 0 150 150" version="1.1" xmlns="http://www.w3.org/2000/svg" xmlns:xlink="http://www.w3.org/1999/xlink">
    <!-- Generator: Sketch 3.6.1 (26313) - http://www.bohemiancoding.com/sketch -->
    <title>featured-image-default</title>
    <desc>Created with Sketch.</desc>
    <defs>
        <path id="path-1" d="M0,0.0668301887 L98.7116625,0.0668301887 L98.7116625,132 L0,132 L0,0.0668301887 Z"></path>
        <path id="path-3" d="M0.3056625,5.09777358 C0.3056625,7.90090566 2.5653375,10.1743774 5.3521875,10.1743774 L5.3521875,10.1743774 C8.1373875,10.1743774 10.399125,7.90090566 10.399125,5.09777358 L10.399125,5.09777358 C10.399125,2.29090566 8.1373875,0.0174339623 5.3521875,0.0174339623 L5.3521875,0.0174339623 C2.5653375,0.0174339623 0.3056625,2.29090566 0.3056625,5.09777358"></path>
        <path id="path-5" d="M0.3832125,5.09777358 C0.3832125,7.90090566 2.6470125,10.1743774 5.4322125,10.1743774 L5.4322125,10.1743774 C8.2174125,10.1743774 10.476675,7.90090566 10.476675,5.09777358 L10.476675,5.09777358 C10.476675,2.29090566 8.2174125,0.0174339623 5.4322125,0.0174339623 L5.4322125,0.0174339623 C2.6470125,0.0174339623 0.3832125,2.29090566 0.3832125,5.09777358"></path>
    </defs>
    <g id="Page-1" stroke="none" stroke-width="1" fill="none" fill-rule="evenodd">
        <g id="featured-image-default">
            <g transform="translate(26.000000, 18.000000)">
                <g id="Group-26">
                    <path d="M71.19354,10.6010113 C71.19354,10.6010113 63.7772025,-3.81023396 40.24944,1.07916226 C16.7216775,5.96897358 9.81684,29.1299925 10.5836775,42.5118038 C11.3509275,55.8936151 14.33784,63.8327094 20.481615,73.1536528 C26.5433025,82.3500679 23.882265,88.3191245 19.278765,89.8632755 C19.278765,89.8632755 45.6197775,108.649615 72.98379,90.120634 C72.98379,90.120634 66.3347025,88.0621811 67.1019525,82.6576528 C67.86879,77.2535396 77.5868775,70.562634 83.468715,59.2392755 C89.350965,47.915917 91.9080525,16.0051245 71.19354,10.6010113" id="Fill-1" fill="#4C360D"></path>
                    <g id="Group-5">
                        <mask id="mask-2" fill="white">
                            <use xlink:href="#path-1"></use>
                        </mask>
                        <g id="Clip-4"></g>
                        <path d="M12.5910675,132 L24.5733675,115.87317 C24.5733675,115.87317 27.1844925,120.567472 29.232555,132 L64.5000675,132 C65.6451675,119.463321 67.1961675,112.441585 67.1961675,112.441585 L85.566855,132 L98.71158,132 C90.54243,121.17683 74.60508,100.036075 74.01603,99.0597736 C73.2227925,97.7489057 72.1775175,94.7095849 70.30188,94.7843019 C66.3439425,94.9424528 54.835605,87.7364151 54.94368,83.8735472 C55.068255,79.4241509 54.94368,72.1500377 54.94368,72.1500377 L40.1171925,72.1500377 L40.1171925,83.8735472 C40.1171925,88.3266792 34.19328,92.1023774 27.96948,94.1911321 C21.7419675,96.2782264 18.44733,98.6488302 18.44733,98.6488302 L-8.25e-05,132 L12.5910675,132 Z" id="Fill-3" fill="#F3D9A6" mask="url(#mask-2)"></path>
                    </g>
                    <path d="M77.4256725,38.3263245 C77.4256725,60.046966 67.2732225,77.8462113 47.5895475,77.8462113 C27.9075225,77.8462113 16.9770975,59.857683 16.9770975,38.1370415 C16.9770975,16.4122491 28.239585,14.2039472 47.92161,14.2039472 C67.605285,14.2039472 77.4256725,16.6015321 77.4256725,38.3263245" id="Fill-6" fill="#F4D89A"></path>
                    <path d="M40.5788625,51.0248075 C40.5788625,54.0080906 38.14635,56.4276755 35.14995,56.4276755 C32.151075,56.4276755 29.7235125,54.0080906 29.7235125,51.0248075 C29.7235125,48.0415245 32.151075,45.6227698 35.14995,45.6227698 C38.14635,45.6227698 40.5788625,48.0415245 40.5788625,51.0248075" id="Fill-8" fill="#00ADE9"></path>
                    <path d="M39.1824675,51.0236038 C39.1824675,53.1053019 37.5027675,54.7963962 35.4353175,54.7963962 C33.3653925,54.7963962 31.6881675,53.1053019 31.6881675,51.0236038 C31.6881675,48.9452264 33.3653925,47.2541321 35.4353175,47.2541321 C37.5027675,47.2541321 39.1824675,48.9452264 39.1824675,51.0236038" id="Fill-10" fill="#234471"></path>
                    <path d="M33.8563087,49.0698377 C33.8563087,49.6713094 33.3699712,50.1631962 32.7734963,50.1631962 C32.1745462,50.1631962 31.6882087,49.6713094 31.6882087,49.0698377 C31.6882087,48.468366 32.1745462,47.9814604 32.7734963,47.9814604 C33.3699712,47.9814604 33.8563087,48.468366 33.8563087,49.0698377" id="Fill-12" fill="#FFFFFF"></path>
                    <path d="M35.8293787,64.2610453 C39.5435288,66.5266302 43.5196162,67.9259132 47.5493287,67.8736113 C51.6033787,67.8736113 55.4870662,66.2954226 59.3493037,64.2610453 C57.9307162,65.9438377 56.1565538,67.3389698 54.1447912,68.3443283 C52.1367413,69.3654604 49.8630412,69.922517 47.5695413,69.9586302 C45.2776912,69.9627811 42.9879038,69.4480642 40.9662412,68.4427057 C38.9462287,67.4535358 37.1221537,66.0584038 35.8293787,64.2610453" id="Fill-14" fill="#C42C76"></path>
                    <path d="M65.9263275,20.9333736 C65.9263275,20.9333736 65.01759,27.7313736 68.6975025,37.7907698 C72.737115,48.8347698 77.084865,52.9093358 81.1764525,49.9924679 C81.1764525,49.9924679 76.756515,51.510883 77.9795775,46.7759019 C79.6419525,40.3423547 83.0624025,29.4722792 77.93709,22.0279774 C73.5278775,15.6230717 68.763915,16.6487698 68.763915,16.6487698 C68.763915,16.6487698 64.9280775,3.52390189 47.589465,3.3545434 C22.6839525,3.11129811 5.596965,34.663034 18.511515,56.4085811 C18.511515,56.4085811 14.294115,39.6964679 23.115015,38.6516755 C31.9338525,37.6072981 63.5090775,26.5047698 65.9263275,20.4107698" id="Fill-16" fill="#5F3F12"></path>
                    <path d="M67.081245,22.6736151 C67.081245,22.6736151 63.796095,29.1046717 52.7802825,34.5341057 C44.0253825,38.8490113 33.93027,39.5430491 24.212595,39.2856906 C24.212595,39.2856906 20.887845,44.9471623 21.143595,54.2116528 C21.399345,63.4761434 26.0560575,73.264483 26.0560575,73.264483 C26.0560575,73.264483 7.8986325,45.7287849 22.0919325,23.4681057 C38.6892825,-2.56204528 64.54437,10.2149736 68.508495,17.9353132 C68.508495,17.9353132 68.5716075,20.4267094 67.081245,22.6736151" id="Fill-18" fill="#754B1D"></path>
                    <path d="M42.9020213,33.8790868 C42.9020213,33.8790868 55.9667213,31.0062189 61.6926338,20.9555396 C61.6926338,20.9555396 57.9306338,25.2642189 52.2962963,27.4173132 C52.2962963,27.4173132 56.2925963,24.041766 57.0573713,22.2373509 C57.0573713,22.2373509 46.1446838,22.1298415 37.7156588,28.0063321 C37.7156588,28.0063321 46.5724463,17.5629736 64.6477838,17.9548226 C64.6477838,17.9548226 62.4879338,30.3536906 42.9020213,33.8790868" id="Fill-20" fill="#A26527"></path>
                    <path d="M65.4729488,17.1707509 C62.4720113,16.1130906 59.4232238,15.3796189 56.3744363,14.8055434 C53.3194613,14.2746377 50.2426238,13.9629019 47.1814613,14.0562981 C41.0380988,14.1530151 35.0502488,15.9101094 29.5396613,19.1299962 C31.8096488,16.8822604 34.5585488,15.0504491 37.5953738,13.8724113 C40.6165238,12.6532792 43.8789863,12.0609396 47.1315488,11.9704491 C53.6292488,11.8770528 60.1343738,13.6474302 65.4729488,17.1707509" id="Fill-22" fill="#A26527"></path>
                    <path d="M75.02913,36.9672226 C73.97808,35.6617509 73.129155,34.2047698 72.34788,32.7149962 C71.58063,31.2123547 70.9631175,29.6287698 70.467705,27.9962038 C69.528855,24.7414491 68.50833,17.9355623 68.50833,17.9355623 C68.50833,17.9355623 73.640655,19.3178264 75.68253,23.2035245 C77.7239925,27.0888075 77.5961175,31.4639019 77.5961175,31.4639019 C77.5961175,31.4639019 76.47948,27.5420906 74.7828675,24.9012604 C73.0866675,22.2608453 71.4086175,21.7992604 70.69128,21.0412981 C70.69128,21.0412981 71.332305,25.0996755 71.97003,28.2469208 C72.619305,31.4003925 73.812255,33.8602415 75.02913,36.9672226" id="Fill-24" fill="#A26527"></path>
                </g>
                <g id="Group-29" transform="translate(25.162500, 55.622642)">
                    <mask id="mask-4" fill="white">
                        <use xlink:href="#path-3"></use>
                    </mask>
                    <g id="Clip-28"></g>
                    <path d="M0.3056625,5.09777358 C0.3056625,7.90090566 2.5653375,10.1743774 5.3521875,10.1743774 L5.3521875,10.1743774 C8.1373875,10.1743774 10.399125,7.90090566 10.399125,5.09777358 L10.399125,5.09777358 C10.399125,2.29090566 8.1373875,0.0174339623 5.3521875,0.0174339623 L5.3521875,0.0174339623 C2.5653375,0.0174339623 0.3056625,2.29090566 0.3056625,5.09777358" id="Fill-27" mask="url(#mask-4)"></path>
                </g>
                <g id="Group-32" transform="translate(57.337500, 55.622642)">
                    <mask id="mask-6" fill="white">
                        <use xlink:href="#path-5"></use>
                    </mask>
                    <g id="Clip-31"></g>
                    <path d="M0.3832125,5.09777358 C0.3832125,7.90090566 2.6470125,10.1743774 5.4322125,10.1743774 L5.4322125,10.1743774 C8.2174125,10.1743774 10.476675,7.90090566 10.476675,5.09777358 L10.476675,5.09777358 C10.476675,2.29090566 8.2174125,0.0174339623 5.4322125,0.0174339623 L5.4322125,0.0174339623 C2.6470125,0.0174339623 0.3832125,2.29090566 0.3832125,5.09777358" id="Fill-30" mask="url(#mask-6)"></path>
                </g>
                <g id="Group-75" transform="translate(7.425000, 45.245283)">
                    <path d="M29.7647213,60.3339623 L49.9681463,60.3339623 L41.5288088,76.546717 L29.7647213,60.3339623 Z" id="Fill-33" fill="#C42C76"></path>
                    <path d="M16.4520263,71.6555358 C16.4520263,71.6555358 16.5926888,70.314366 16.6558013,68.294517 C16.7189138,66.2763283 16.7147888,63.5769698 16.4301638,60.902517 C16.3600388,60.2342151 16.2659888,59.569234 16.1636888,58.9167057 C16.0481888,58.2666679 15.9355763,57.6270075 15.7936763,57.0151585 C15.6546638,56.4028943 15.4921388,55.8184415 15.3234263,55.2696868 C15.2401013,54.9948943 15.1571888,54.7279887 15.0598388,54.4760264 C14.9695013,54.2215736 14.8787513,53.9766679 14.7748013,53.7491962 C14.5838138,53.286366 14.3792138,52.8745925 14.1820388,52.5192717 C14.0789138,52.3441019 13.9819763,52.1801396 13.8928763,52.0282151 C13.7930513,51.8829321 13.7014763,51.7496868 13.6189763,51.6293094 C13.4618138,51.3806679 13.2955763,51.2196113 13.2007013,51.0938377 C13.1000513,50.9726302 13.0464263,50.9082906 13.0464263,50.9082906 L13.0666388,50.8875358 C13.0666388,50.8875358 13.1252138,50.9481396 13.2353513,51.0614604 C13.3397138,51.1793472 13.5203888,51.3304415 13.6973513,51.5678755 C13.7901638,51.6836868 13.8932888,51.8115358 14.0050763,51.9510075 C14.1036638,52.1000264 14.2100888,52.2614981 14.3235263,52.4337623 C14.5396763,52.7853472 14.7781013,53.1896491 14.9843513,53.6549698 C15.0965513,53.8841019 15.1963763,54.1298377 15.2957888,54.3855358 C15.4026263,54.6391585 15.4946138,54.9073094 15.5874263,55.1837623 C15.7808888,55.7345925 15.9285638,56.3323283 16.0733513,56.9508189 C16.2152513,57.5701396 16.3348763,58.2156113 16.4322263,58.8747811 C16.5225638,59.5347811 16.6034138,60.2064038 16.6599263,60.8801019 C16.9012388,63.5740642 16.8694763,66.279234 16.7568638,68.299083 C16.6500263,70.3201774 16.4809013,71.6588566 16.4809013,71.6588566 L16.4520263,71.6555358 Z" id="Fill-35" fill="#064C6C"></path>
                    <path d="M61.8026475,69.9422755 C61.8026475,69.9422755 61.7201475,68.6658604 61.7613975,66.7481245 C61.79481,64.831634 61.978785,62.2717472 62.457285,59.7521245 C62.58021,59.1232566 62.7142725,58.4960491 62.8743225,57.8850302 C63.031485,57.2731811 63.21216,56.6771057 63.42006,56.1113321 C63.5169975,55.8261623 63.627135,55.5509547 63.7380975,55.2828038 C63.8412225,55.0113321 63.965385,54.755634 64.0862475,54.5069925 C64.3296225,54.0101245 64.58661,53.5539358 64.84896,53.1488038 C64.97106,52.9404264 65.113785,52.7573698 65.2445475,52.5805396 C65.3715975,52.4012189 65.501535,52.2385019 65.6331225,52.0928038 C65.879385,51.7877094 66.1281225,51.5531811 66.3318975,51.3614075 C66.5315475,51.1646528 66.7171725,51.0422 66.8293725,50.9442377 C66.94611,50.8504264 67.007985,50.8006151 67.007985,50.8006151 L67.026135,50.8234453 C67.026135,50.8234453 66.9679725,50.8782377 66.8598975,50.980766 C66.7559475,51.0874453 66.58311,51.2223509 66.40161,51.4328038 C66.2180475,51.640766 65.98911,51.8856717 65.7618225,52.1974075 C65.640135,52.3468415 65.521335,52.5137094 65.4062475,52.696766 C65.28786,52.8773321 65.1587475,53.0632943 65.04366,53.2708415 C64.798635,53.6759736 64.56021,54.1317472 64.336635,54.6269547 C64.1151225,55.1225774 63.884535,55.6480868 63.6902475,56.2097094 C63.483585,56.7663509 63.3107475,57.3566151 63.1366725,57.9568415 C62.965485,58.5578981 62.8190475,59.1763887 62.683335,59.7982 C62.1639975,62.2908415 61.94496,64.840766 61.86246,66.7510302 C61.7778975,68.6637849 61.8315225,69.9406151 61.8315225,69.9406151 L61.8026475,69.9422755 Z" id="Fill-37" fill="#064C6C"></path>
                    <path d="M47.7016238,5.77952453 C47.7016238,8.76280755 50.1341362,11.1823925 53.1305363,11.1823925 C56.1294113,11.1823925 58.5569738,8.76280755 58.5569738,5.77952453 C58.5569738,2.79624151 56.1294113,0.377486792 53.1305363,0.377486792 C50.1341362,0.377486792 47.7016238,2.79624151 47.7016238,5.77952453" id="Fill-39" fill="#00ADE9"></path>
                    <path d="M49.0980188,5.77832075 C49.0980188,7.86001887 50.7777188,9.55111321 52.8451688,9.55111321 C54.9150938,9.55111321 56.5923188,7.86001887 56.5923188,5.77832075 C56.5923188,3.6999434 54.9150938,2.00884906 52.8451688,2.00884906 C50.7777188,2.00884906 49.0980188,3.6999434 49.0980188,5.77832075" id="Fill-41" fill="#234471"></path>
                    <path d="M49.3101263,3.82455472 C49.3101263,4.42602642 49.7964638,4.91791321 50.3929388,4.91791321 C50.9918888,4.91791321 51.4782263,4.42602642 51.4782263,3.82455472 C51.4782263,3.22308302 50.9918888,2.73617736 50.3929388,2.73617736 C49.7964638,2.73617736 49.3101263,3.22308302 49.3101263,3.82455472" id="Fill-43" fill="#FFFFFF"></path>
                    <path d="M42.381075,45.8797132 C42.381075,46.9929962 41.4843,47.8954113 40.377975,47.8954113 C39.2712375,47.8954113 38.3744625,46.9929962 38.3744625,45.8797132 C38.3744625,44.7664302 39.2712375,43.8640151 40.377975,43.8640151 C41.4843,43.8640151 42.381075,44.7664302 42.381075,45.8797132" id="Fill-45" fill="#00ADE9"></path>
                    <path d="M41.6180325,45.407917 C41.6180325,45.6943321 41.3870325,45.9267849 41.1024075,45.9267849 C40.8177825,45.9267849 40.5867825,45.6943321 40.5867825,45.407917 C40.5867825,45.1215019 40.8177825,44.8890491 41.1024075,44.8890491 C41.3870325,44.8890491 41.6180325,45.1215019 41.6180325,45.407917" id="Fill-47" fill="#FFFEEF"></path>
                    <path d="M38.3747925,45.5794755 C38.3747925,46.5271358 37.611255,47.2954755 36.6695175,47.2954755 C35.72778,47.2954755 34.9642425,46.5271358 34.9642425,45.5794755 C34.9642425,44.6318151 35.72778,43.8634755 36.6695175,43.8634755 C37.611255,43.8634755 38.3747925,44.6318151 38.3747925,45.5794755" id="Fill-49" fill="#00ADE9"></path>
                    <path d="M37.7253113,45.1778717 C37.7253113,45.4219472 37.5289613,45.6195321 37.2864113,45.6195321 C37.0438613,45.6195321 36.8475113,45.4219472 36.8475113,45.1778717 C36.8475113,44.9337962 37.0438613,44.7362113 37.2864113,44.7362113 C37.5289613,44.7362113 37.7253113,44.9337962 37.7253113,45.1778717" id="Fill-51" fill="#FFFEEF"></path>
                    <path d="M35.1414113,44.5501245 C35.1414113,45.4064642 34.4517113,46.1005019 33.6007238,46.1005019 C32.7497363,46.1005019 32.0600363,45.4064642 32.0600363,44.5501245 C32.0600363,43.6937849 32.7497363,42.9997472 33.6007238,42.9997472 C34.4517113,42.9997472 35.1414113,43.6937849 35.1414113,44.5501245" id="Fill-53" fill="#00ADE9"></path>
                    <path d="M34.5545888,44.1872491 C34.5545888,44.4076642 34.3772138,44.5861547 34.1581763,44.5861547 C33.9391388,44.5861547 33.7613513,44.4076642 33.7613513,44.1872491 C33.7613513,43.966834 33.9391388,43.7883434 34.1581763,43.7883434 C34.3772138,43.7883434 34.5545888,43.966834 34.5545888,44.1872491" id="Fill-55" fill="#FFFEEF"></path>
                    <path d="M32.7697013,42.6200189 C32.7697013,43.3663585 32.1686888,43.9711509 31.4270138,43.9711509 C30.6853388,43.9711509 30.0843263,43.3663585 30.0843263,42.6200189 C30.0843263,41.8736792 30.6853388,41.2688868 31.4270138,41.2688868 C32.1686888,41.2688868 32.7697013,41.8736792 32.7697013,42.6200189" id="Fill-57" fill="#00ADE9"></path>
                    <path d="M32.2582838,42.3038 C32.2582838,42.4959887 32.1035963,42.6516491 31.9126088,42.6516491 C31.7216213,42.6516491 31.5669338,42.4959887 31.5669338,42.3038 C31.5669338,42.1116113 31.7216213,41.9559509 31.9126088,41.9559509 C32.1035963,41.9559509 32.2582838,42.1116113 32.2582838,42.3038" id="Fill-59" fill="#FFFEEF"></path>
                    <path d="M42.3170963,45.1934792 C42.3170963,46.1411396 43.0806338,46.9094792 44.0223713,46.9094792 C44.9641088,46.9094792 45.7276463,46.1411396 45.7276463,45.1934792 C45.7276463,44.2458189 44.9641088,43.4774792 44.0223713,43.4774792 C43.0806338,43.4774792 42.3170963,44.2458189 42.3170963,45.1934792" id="Fill-61" fill="#00ADE9"></path>
                    <path d="M43.817565,44.4214453 C43.817565,44.6655208 44.013915,44.8631057 44.256465,44.8631057 C44.499015,44.8631057 44.695365,44.6655208 44.695365,44.4214453 C44.695365,44.1773698 44.499015,43.9797849 44.256465,43.9797849 C44.013915,43.9797849 43.817565,44.1773698 43.817565,44.4214453" id="Fill-63" fill="#FFFEEF"></path>
                    <path d="M45.5504775,44.1640868 C45.5504775,45.0204264 46.2401775,45.7144642 47.091165,45.7144642 C47.9421525,45.7144642 48.6318525,45.0204264 48.6318525,44.1640868 C48.6318525,43.3077472 47.9421525,42.6137094 47.091165,42.6137094 C46.2401775,42.6137094 45.5504775,43.3077472 45.5504775,44.1640868" id="Fill-65" fill="#00ADE9"></path>
                    <path d="M46.6488,43.3723358 C46.6488,43.5927509 46.826175,43.7712415 47.0452125,43.7712415 C47.26425,43.7712415 47.4420375,43.5927509 47.4420375,43.3723358 C47.4420375,43.1519208 47.26425,42.9734302 47.0452125,42.9734302 C46.826175,42.9734302 46.6488,43.1519208 46.6488,43.3723358" id="Fill-67" fill="#FFFEEF"></path>
                    <path d="M47.9221875,42.2339811 C47.9221875,42.9803208 48.5232,43.5851132 49.264875,43.5851132 C50.00655,43.5851132 50.6075625,42.9803208 50.6075625,42.2339811 C50.6075625,41.4876415 50.00655,40.8828491 49.264875,40.8828491 C48.5232,40.8828491 47.9221875,41.4876415 47.9221875,42.2339811" id="Fill-69" fill="#00ADE9"></path>
                    <path d="M48.7746188,41.5746453 C48.7746188,41.766834 48.9293063,41.9224943 49.1202938,41.9224943 C49.3112813,41.9224943 49.4659688,41.766834 49.4659688,41.5746453 C49.4659688,41.3824566 49.3112813,41.2267962 49.1202938,41.2267962 C48.9293063,41.2267962 48.7746188,41.3824566 48.7746188,41.5746453" id="Fill-71" fill="#FFFEEF"></path>
                    <path d="M16.4664225,71.6571547 C16.4664225,71.6571547 19.55151,78.2546642 21.5178975,86.7545509 L59.0108475,86.7545509 C59.7483975,77.4871547 61.817085,69.9415698 61.817085,69.9415698 L72.4253475,80.5555321 L81.593985,71.6571547 C76.474035,64.0704755 68.1625725,52.3332679 67.52856,51.1552302 C66.420585,49.0963623 61.5295725,48.4712302 59.771085,47.8095698 C56.22936,46.4779472 54.849135,46.2645887 51.62091,44.0073057 C49.2007725,52.8708151 40.6760475,70.2844377 40.6760475,70.2844377 C40.6760475,70.2844377 30.7875975,51.3266642 29.891235,43.9359094 C27.58041,46.0267396 25.80501,46.8120981 22.263285,47.9814189 C20.5080975,48.5608906 16.29606,49.5255698 13.0566975,50.8978717 C9.817335,52.2705887 0.0992475,73.3727396 0.0992475,73.3727396 L8.9646975,81.6077962 L16.4664225,71.6571547 Z" id="Fill-73" fill="#F99D1C"></path>
                </g>
            </g>
        </g>
    </g>
</svg>