<svg height="150" viewBox="0 0 150 150" width="150" xmlns="http://www.w3.org/2000/svg" xmlns:xlink="http://www.w3.org/1999/xlink"><mask id="a" fill="#fff"><path d="m0 .06683019h98.7116625v131.93316981h-98.7116625z" fill="#fff" fill-rule="evenodd"/></mask><mask id="b" fill="#fff"><path d="m.3056625 5.09777358c0 2.80313208 2.259675 5.07660382 5.046525 5.07660382 2.7852 0 5.0469375-2.27347174 5.0469375-5.07660382 0-2.80686792-2.2617375-5.08033962-5.0469375-5.08033962-2.78685 0-5.046525 2.2734717-5.046525 5.08033962" fill="#fff" fill-rule="evenodd"/></mask><mask id="c" fill="#fff"><path d="m.3832125 5.09777358c0 2.80313208 2.2638 5.07660382 5.049 5.07660382 2.7852 0 5.0444625-2.27347174 5.0444625-5.07660382 0-2.80686792-2.2592625-5.08033962-5.0444625-5.08033962-2.7852 0-5.049 2.2734717-5.049 5.08033962" fill="#fff" fill-rule="evenodd"/></mask><g fill="none" fill-rule="evenodd"><g transform="translate(26 18)"><path d="m71.19354 10.6010113s-7.4163375-14.41124526-30.9441-9.52184904c-23.5277625 4.88981132-30.4326 28.05083024-29.6657625 41.43264154.76725 13.3818113 3.7541625 21.3209056 9.8979375 30.641849 6.0616875 9.1964151 3.40065 15.1654717-1.20285 16.7096227 0 0 26.3410125 18.7863395 53.705025.2573585 0 0-6.6490875-2.0584529-5.8818375-7.4629812.7668375-5.4041132 10.484925-12.0950188 16.3667625-23.4183773 5.88225-11.3233585 8.4393375-43.234151-12.275175-48.6382642" fill="#4c360d"/><path d="m12.5910675 132 11.9823-16.12683s2.611125 4.694302 4.6591875 16.12683h35.2675125c1.1451-12.536679 2.6961-19.558415 2.6961-19.558415l18.3706875 19.558415h13.144725c-8.16915-10.82317-24.1065-31.963925-24.69555-32.9402264-.7932375-1.3108679-1.8385125-4.3501887-3.71415-4.2754717-3.9579375.1581509-15.466275-7.0478868-15.3582-10.9107547.124575-4.4493963 0-11.7235095 0-11.7235095h-14.8264875v11.7235095c0 4.453132-5.9239125 8.2288302-12.1477125 10.3175849-6.2275125 2.0870943-9.52215 4.4576981-9.52215 4.4576981l-18.4474125 33.3511698z" fill="#f3d9a6" mask="url(#a)"/><path d="m77.4256725 38.3263245c0 21.7206415-10.15245 39.5198868-29.836125 39.5198868-19.682025 0-30.61245-17.9885283-30.61245-39.7091698 0-21.7247924 11.2624875-23.9330943 30.9445125-23.9330943 19.683675 0 29.5040625 2.3975849 29.5040625 24.1223773" fill="#f4d89a"/><path d="m40.5788625 51.0248075c0 2.9832831-2.4325125 5.402868-5.4289125 5.402868-2.998875 0-5.4264375-2.4195849-5.4264375-5.402868 0-2.983283 2.4275625-5.4020377 5.4264375-5.4020377 2.9964 0 5.4289125 2.4187547 5.4289125 5.4020377" fill="#00ade9"/><path d="m39.1824675 51.0236038c0 2.0816981-1.6797 3.7727924-3.74715 3.7727924-2.069925 0-3.74715-1.6910943-3.74715-3.7727924 0-2.0783774 1.677225-3.7694717 3.74715-3.7694717 2.06745 0 3.74715 1.6910943 3.74715 3.7694717" fill="#234471"/><path d="m33.8563087 49.0698377c0 .6014717-.4863375 1.0933585-1.0828124 1.0933585-.5989501 0-1.0852876-.4918868-1.0852876-1.0933585s.4863375-1.0883773 1.0852876-1.0883773c.5964749 0 1.0828124.4869056 1.0828124 1.0883773" fill="#fff"/><path d="m35.8293787 64.2610453c3.7141501 2.2655849 7.6902375 3.6648679 11.71995 3.612566 4.05405 0 7.9377375-1.5781887 11.799975-3.612566-1.4185875 1.6827924-3.1927499 3.0779245-5.2045125 4.083283-2.0080499 1.0211321-4.28175 1.5781887-6.5752499 1.6143019-2.2918501.0041509-4.5816375-.510566-6.6033001-1.5159245-2.0200125-.9891699-3.8440875-2.3843019-5.1368625-4.1816604" fill="#c42c76"/><path d="m65.9263275 20.9333736s-.9087375 6.798 2.771175 16.8573962c4.0396125 11.044 8.3873625 15.118566 12.47895 12.2016981 0 0-4.4199375 1.5184151-3.196875-3.216566 1.662375-6.4335472 5.082825-17.3036227-.0424875-24.7479245-4.4092125-6.4049057-9.173175-5.3792076-9.173175-5.3792076s-3.8358375-13.12486791-21.17445-13.2942264c-24.9055125-.24324529-41.9925 31.3084906-29.07795 53.0540377 0 0-4.2174-16.7121132 4.6035-17.7569056 8.8188375-1.0443774 40.3940625-12.1469057 42.8113125-18.2409057" fill="#5f3f12"/><path d="m67.081245 22.6736151s-3.28515 6.4310566-14.3009625 11.8604906c-8.7549 4.3149056-18.8500125 5.0089434-28.5676875 4.7515849 0 0-3.32475 5.6614717-3.069 14.9259622.25575 9.2644906 4.9124625 19.0528302 4.9124625 19.0528302s-18.157425-27.5356981-3.964125-49.7963773c16.59735-26.03015098 42.4524375-13.2531321 46.4165625-5.5327925 0 0 .0631125 2.4913962-1.42725 4.7383019" fill="#754b1d"/><g fill="#a26527"><path d="m42.9020213 33.8790868s13.0647-2.8728679 18.7906125-12.9235472c0 0-3.762 4.3086793-9.3963375 6.4617736 0 0 3.9963-3.3755472 4.761075-5.1799623 0 0-10.9126875-.1075094-19.3417125 5.7689812 0 0 8.8567875-10.4433585 26.932125-10.0515095 0 0-2.15985 12.398868-21.7457625 15.9242642"/><path d="m65.4729488 17.1707509c-3.0009375-1.0576603-6.049725-1.791132-9.0985125-2.3652075-3.054975-.5309057-6.1318125-.8426415-9.192975-.7492453-6.1433625.096717-12.1312125 1.8538113-17.6418 5.0736981 2.2699875-2.2477358 5.0188875-4.0795471 8.0557125-5.2575849 3.02115-1.2191321 6.2836125-1.8114717 9.536175-1.9019622 6.4977-.0933963 13.002825 1.6769811 18.3414 5.2003018"/><path d="m75.02913 36.9672226c-1.05105-1.3054717-1.899975-2.7624528-2.68125-4.2522264-.76725-1.5026415-1.3847625-3.0862264-1.880175-4.7187924-.93885-3.2547547-1.959375-10.0606415-1.959375-10.0606415s5.132325 1.3822641 7.1742 5.2679622c2.0414625 3.885283 1.9135875 8.2603774 1.9135875 8.2603774s-1.1166375-3.9218113-2.81325-6.5626415c-1.6962-2.6404151-3.37425-3.102-4.0915875-3.8599623 0 0 .641025 4.0583774 1.27875 7.2056227.649275 3.1534717 1.842225 5.6133207 3.0591 8.7203018"/></g></g><path d="m.3056625 5.09777358c0 2.80313208 2.259675 5.07660382 5.046525 5.07660382 2.7852 0 5.0469375-2.27347174 5.0469375-5.07660382 0-2.80686792-2.2617375-5.08033962-5.0469375-5.08033962-2.78685 0-5.046525 2.2734717-5.046525 5.08033962" mask="url(#b)" transform="translate(51.1625 73.622642)"/><path d="m.3832125 5.09777358c0 2.80313208 2.2638 5.07660382 5.049 5.07660382 2.7852 0 5.0444625-2.27347174 5.0444625-5.07660382 0-2.80686792-2.2592625-5.08033962-5.0444625-5.08033962-2.7852 0-5.049 2.2734717-5.049 5.08033962" mask="url(#c)" transform="translate(83.3375 73.622642)"/><g transform="translate(33.425 63.245283)"><path d="m29.7647213 60.3339623h20.203425l-8.4393375 16.2127547z" fill="#c42c76"/><path d="m16.4520263 71.6555358s.1406625-1.3411698.203775-3.3610188c.0631125-2.0181887.0589875-4.7175472-.2256375-7.392-.070125-.6683019-.164175-1.333283-.266475-1.9858113-.1155-.6500378-.2281125-1.2896982-.3700125-1.9015472-.1390125-.6122642-.3015375-1.196717-.47025-1.7454717-.083325-.2747925-.1662375-.5416981-.2635875-.7936604-.0903375-.2544528-.1810875-.4993585-.2850375-.7268302-.1909875-.4628302-.3955875-.8746037-.5927625-1.2299245-.103125-.1751698-.2000625-.3391321-.2891625-.4910566-.099825-.145283-.1914-.2785283-.2739-.3989057-.1571625-.2486415-.3234-.4096981-.418275-.5354717-.10065-.1212075-.154275-.1855471-.154275-.1855471l.0202125-.0207548s.058575.0606038.1687125.1739246c.1043625.1178868.2850375.2689811.462.5064151.0928125.1158113.1959375.2436603.307725.383132.0985875.1490189.2050125.3104906.31845.4827548.21615.3515849.454575.7558868.660825 1.2212075.1122.2291321.212025.4748679.3114375.730566.1068375.2536227.198825.5217736.2916375.7982265.1934625.5508302.3411375 1.148566.485925 1.7670566.1419.6193207.261525 1.2647924.358875 1.9239622.0903375.66.1711875 1.3316227.2277 2.0053208.2413125 2.6939623.20955 5.3991321.0969375 7.4189811-.1068375 2.0210944-.2759625 3.3597736-.2759625 3.3597736z" fill="#064c6c"/><path d="m61.8026475 69.9422755s-.0825-1.2764151-.04125-3.194151c.0334125-1.9164905.2173875-4.4763773.6958875-6.996.122925-.6288679.2569875-1.2560754.4170375-1.8670943.1571625-.6118491.3378375-1.2079245.5457375-1.7736981.0969375-.2851698.207075-.5603774.3180375-.8285283.103125-.2714717.2272875-.5271698.34815-.7758113.243375-.496868.5003625-.9530567.7627125-1.3581887.1221-.2083774.264825-.391434.3955875-.5682642.12705-.1793207.2569875-.3420377.388575-.4877358.2462625-.3050944.495-.5396227.698775-.7313963.19965-.1967547.385275-.3192075.497475-.4171698.1167375-.0938113.1786125-.1436226.1786125-.1436226l.01815.0228302s-.0581625.0547924-.1662375.1573207c-.10395.1066793-.2767875.2415849-.4582875.4520378-.1835625.2079622-.4125.4528679-.6397875.7646037-.1216875.149434-.2404875.3163019-.355575.4993585-.1183875.1805661-.2475.3665283-.3625875.5740755-.245025.4051321-.48345.8609057-.707025 1.3561132-.2215125.4956227-.4521 1.0211321-.6463875 1.5827547-.2066625.5566415-.3795 1.1469057-.553575 1.7471321-.1711875.6010566-.317625 1.2195472-.4533375 1.8413585-.5193375 2.4926415-.738375 5.042566-.820875 6.9528302-.0845625 1.9127547-.0309375 3.1895849-.0309375 3.1895849z" fill="#064c6c"/><path d="m47.7016238 5.77952453c0 2.98328302 2.4325124 5.40286797 5.4289125 5.40286797 2.998875 0 5.4264375-2.41958495 5.4264375-5.40286797s-2.4275625-5.40203774-5.4264375-5.40203774c-2.9964001 0-5.4289125 2.41875472-5.4289125 5.40203774" fill="#00ade9"/><path d="m49.0980188 5.77832075c0 2.08169812 1.6797 3.77279246 3.74715 3.77279246 2.069925 0 3.74715-1.69109434 3.74715-3.77279246 0-2.07837735-1.677225-3.76947169-3.74715-3.76947169-2.06745 0-3.74715 1.69109434-3.74715 3.76947169" fill="#234471"/><path d="m49.3101263 3.82455472c0 .6014717.4863375 1.09335849 1.0828125 1.09335849.59895 0 1.0852875-.49188679 1.0852875-1.09335849s-.4863375-1.08837736-1.0852875-1.08837736c-.596475 0-1.0828125.48690566-1.0828125 1.08837736" fill="#fff"/><path d="m42.381075 45.8797132c0 1.113283-.896775 2.0156981-2.0031 2.0156981-1.1067375 0-2.0035125-.9024151-2.0035125-2.0156981s.896775-2.0156981 2.0035125-2.0156981c1.106325 0 2.0031.9024151 2.0031 2.0156981" fill="#00ade9"/><path d="m41.6180325 45.407917c0 .2864151-.231.5188679-.515625.5188679s-.515625-.2324528-.515625-.5188679.231-.5188679.515625-.5188679.515625.2324528.515625.5188679" fill="#fffeef"/><path d="m38.3747925 45.5794755c0 .9476603-.7635375 1.716-1.705275 1.716s-1.705275-.7683397-1.705275-1.716c0-.9476604.7635375-1.716 1.705275-1.716s1.705275.7683396 1.705275 1.716" fill="#00ade9"/><path d="m37.7253113 45.1778717c0 .2440755-.19635.4416604-.4389.4416604s-.4389-.1975849-.4389-.4416604.19635-.4416604.4389-.4416604.4389.1975849.4389.4416604" fill="#fffeef"/><path d="m35.1414113 44.5501245c0 .8563397-.6897 1.5503774-1.5406875 1.5503774s-1.5406875-.6940377-1.5406875-1.5503774c0-.8563396.6897-1.5503773 1.5406875-1.5503773s1.5406875.6940377 1.5406875 1.5503773" fill="#00ade9"/><path d="m34.5545888 44.1872491c0 .2204151-.177375.3989056-.3964125.3989056s-.396825-.1784905-.396825-.3989056.1777875-.3989057.396825-.3989057.3964125.1784906.3964125.3989057" fill="#fffeef"/><path d="m32.7697013 42.6200189c0 .7463396-.6010125 1.351132-1.3426875 1.351132s-1.3426875-.6047924-1.3426875-1.351132c0-.7463397.6010125-1.3511321 1.3426875-1.3511321s1.3426875.6047924 1.3426875 1.3511321" fill="#00ade9"/><path d="m32.2582838 42.3038c0 .1921887-.1546875.3478491-.345675.3478491s-.345675-.1556604-.345675-.3478491.1546875-.3478491.345675-.3478491.345675.1556604.345675.3478491" fill="#fffeef"/><path d="m42.3170963 45.1934792c0 .9476604.7635375 1.716 1.705275 1.716s1.705275-.7683396 1.705275-1.716c0-.9476603-.7635375-1.716-1.705275-1.716s-1.705275.7683397-1.705275 1.716" fill="#00ade9"/><path d="m43.817565 44.4214453c0 .2440755.19635.4416604.4389.4416604s.4389-.1975849.4389-.4416604-.19635-.4416604-.4389-.4416604-.4389.1975849-.4389.4416604" fill="#fffeef"/><path d="m45.5504775 44.1640868c0 .8563396.6897 1.5503774 1.5406875 1.5503774s1.5406875-.6940378 1.5406875-1.5503774-.6897-1.5503774-1.5406875-1.5503774-1.5406875.6940378-1.5406875 1.5503774" fill="#00ade9"/><path d="m46.6488 43.3723358c0 .2204151.177375.3989057.3964125.3989057s.396825-.1784906.396825-.3989057c0-.220415-.1777875-.3989056-.396825-.3989056s-.3964125.1784906-.3964125.3989056" fill="#fffeef"/><path d="m47.9221875 42.2339811c0 .7463397.6010125 1.3511321 1.3426875 1.3511321s1.3426875-.6047924 1.3426875-1.3511321c0-.7463396-.6010125-1.351132-1.3426875-1.351132s-1.3426875.6047924-1.3426875 1.351132" fill="#00ade9"/><path d="m48.7746188 41.5746453c0 .1921887.1546875.347849.345675.347849s.345675-.1556603.345675-.347849-.1546875-.3478491-.345675-.3478491-.345675.1556604-.345675.3478491" fill="#fffeef"/><path d="m16.4664225 71.6571547s3.0850875 6.5975095 5.051475 15.0973962h37.49295c.73755-9.2673962 2.8062375-16.8129811 2.8062375-16.8129811l10.6082625 10.6139623 9.1686375-8.8983774c-5.11995-7.5866792-13.4314125-19.3238868-14.065425-20.5019245-1.107975-2.0588679-5.9989875-2.684-7.757475-3.3456604-3.541725-1.3316226-4.92195-1.5449811-8.150175-3.8022641-2.4201375 8.8635094-10.9448625 26.277132-10.9448625 26.277132s-9.88845-18.9577735-10.7848125-26.3485283c-2.310825 2.0908302-4.086225 2.8761887-7.62795 4.0455095-1.7551875.5794717-5.967225 1.5441509-9.2065875 2.9164528-3.2393625 1.372717-12.95745 22.4748679-12.95745 22.4748679l8.86545 8.2350566z" fill="#f99d1c"/></g></g></svg>