<?xml version="1.0" encoding="UTF-8" standalone="no"?>
<svg width="140px" height="140px" viewBox="0 0 140 140" version="1.1" xmlns="http://www.w3.org/2000/svg" xmlns:xlink="http://www.w3.org/1999/xlink">
    <!-- Generator: Sketch 3.6.1 (26313) - http://www.bohemiancoding.com/sketch -->
    <title>footer-logo</title>
    <desc>Created with Sketch.</desc>
    <defs>
        <path id="path-1" d="M70,140 C108.659932,140 140,108.659932 140,70 C140,31.3400675 108.659932,0 70,0 C31.3400675,0 0,31.3400675 0,70 C0,108.659932 31.3400675,140 70,140 Z"></path>
        <radialGradient cx="49.4685714%" cy="50.1694921%" fx="49.4685714%" fy="50.1694921%" r="50.2642857%" id="radialGradient-3">
            <stop stop-color="#EFB698" offset="0%"></stop>
            <stop stop-color="#F4D9A6" offset="100%"></stop>
        </radialGradient>
        <radialGradient cx="50.6971429%" cy="50.1694921%" fx="50.6971429%" fy="50.1694921%" r="50.2642857%" id="radialGradient-4">
            <stop stop-color="#EFB698" offset="0%"></stop>
            <stop stop-color="#F4D9A6" offset="100%"></stop>
        </radialGradient>
        <radialGradient cx="49.6206897%" cy="50.5880966%" fx="49.6206897%" fy="50.5880966%" r="50.7344828%" id="radialGradient-5">
            <stop stop-color="#EFB698" offset="0%"></stop>
            <stop stop-color="#F4D9A6" offset="100%"></stop>
        </radialGradient>
        <radialGradient cx="49.7172414%" cy="50.5880966%" fx="49.7172414%" fy="50.5880966%" r="50.7344828%" id="radialGradient-6">
            <stop stop-color="#EFB698" offset="0%"></stop>
            <stop stop-color="#F4D9A6" offset="100%"></stop>
        </radialGradient>
        <radialGradient cx="52.3342235%" cy="49.2676471%" fx="52.3342235%" fy="49.2676471%" r="51.0823529%" id="radialGradient-7">
            <stop stop-color="#EFB698" offset="0%"></stop>
            <stop stop-color="#F4D9A6" offset="100%"></stop>
        </radialGradient>
        <radialGradient cx="53.8005191%" cy="49.2676471%" fx="53.8005191%" fy="49.2676471%" r="51.0823529%" id="radialGradient-8">
            <stop stop-color="#EFB698" offset="0%"></stop>
            <stop stop-color="#F4D9A6" offset="100%"></stop>
        </radialGradient>
    </defs>
    <g id="Page-1" stroke="none" stroke-width="1" fill="none" fill-rule="evenodd">
        <g id="footer-logo">
            <mask id="mask-2" fill="white">
                <use xlink:href="#path-1"></use>
            </mask>
            <use id="Mask" fill="#002F3E" xlink:href="#path-1"></use>
            <g id="logo-footer" mask="url(#mask-2)">
                <g transform="translate(10.000000, 27.000000)">
                    <rect id="XMLID_168_" fill="#1E94D2" x="31.4190005" y="3.18166667" width="76.6126069" height="46.9872222"></rect>
                    <path d="M77.5339852,11.8966667 C77.5339852,11.8966667 75.1384016,7.37777778 67.5830994,8.89944444 C60.0277972,10.4211111 57.8164893,17.7527778 58.0468338,21.9488889 C58.2771784,26.145 59.2446257,28.6811111 61.225589,31.5861111 C63.1604835,34.4911111 62.331243,36.3816667 60.8570377,36.8427778 C60.8570377,36.8427778 69.3337182,42.745 78.0868122,36.935 C78.0868122,36.935 75.9676421,36.2894444 76.1979866,34.5833333 C76.4283312,32.8772222 79.5610175,30.7561111 81.449843,27.2055556 C83.3386686,23.655 84.213978,13.6027778 77.5339852,11.8966667 L77.5339852,11.8966667 Z" id="XMLID_167_" fill="#4C3715"></path>
                    <path d="M58.7378676,50.1227778 L62.6076565,45.0505556 C62.6076565,45.0505556 63.436897,46.5261111 64.0818618,50.1227778 L75.4148151,50.1227778 C75.7833664,46.1572222 76.2901245,43.9438889 76.2901245,43.9438889 L82.1869457,50.1227778 L86.4252859,50.1227778 C83.7993577,46.7105556 78.6857081,40.0705556 78.5014324,39.7477778 C78.2250189,39.3327778 77.9025365,38.3644444 77.3036406,38.4105556 C76.013711,38.4566667 72.3281977,36.1972222 72.3742666,34.9522222 C72.4203356,33.5688889 72.3742666,31.2633333 72.3742666,31.2633333 L67.6291683,31.2633333 L67.6291683,34.9522222 C67.6291683,36.3355556 65.7403428,37.5344444 63.7133105,38.2261111 C61.7323471,38.8716667 60.672762,39.6094444 60.672762,39.6094444 L54.7298719,50.1227778 L58.7378676,50.1227778 L58.7378676,50.1227778 Z" id="XMLID_166_" fill="#F4D9A6"></path>
                    <path d="M79.5610175,20.6116667 C79.5610175,27.4361111 76.2901245,33.0616667 69.978683,33.0616667 C63.6672416,33.0616667 60.166004,27.39 60.166004,20.5655556 C60.166004,13.7411111 63.8054483,13.0033333 70.1168898,13.0033333 C76.3822623,13.0033333 79.5610175,13.7872222 79.5610175,20.6116667 L79.5610175,20.6116667 Z" id="XMLID_165_" fill="#F4D89B"></path>
                    <ellipse id="XMLID_164_" fill="#1BACE3" cx="65.9706874" cy="24.6233333" rx="1.7506188" ry="1.70611111"></ellipse>
                    <path d="M67.260617,24.6233333 C67.260617,25.2688889 66.70779,25.8222222 66.0628252,25.8222222 C65.4178604,25.8222222 64.8650334,25.2688889 64.8650334,24.6233333 C64.8650334,23.9777778 65.4178604,23.4244444 66.0628252,23.4244444 C66.70779,23.4244444 67.260617,23.9777778 67.260617,24.6233333 L67.260617,24.6233333 Z" id="XMLID_163_" fill="#234572"></path>
                    <ellipse id="XMLID_162_" fill="#FFFFFF" cx="65.1875158" cy="23.9777778" rx="0.368551326" ry="0.322777778"></ellipse>
                    <path d="M66.2010319,28.7733333 C67.3988237,29.465 68.6887534,29.9261111 69.978683,29.9261111 C71.2686127,29.9261111 72.5124734,29.4188889 73.7563341,28.7733333 C73.295645,29.2805556 72.742818,29.7416667 72.0978531,30.0644444 C71.4528883,30.3872222 70.7157857,30.5716667 69.978683,30.5716667 C69.2415804,30.5716667 68.5044777,30.4333333 67.8595129,30.1105556 C67.1684792,29.7877778 66.6156522,29.3727778 66.2010319,28.7733333 L66.2010319,28.7733333 Z" id="XMLID_161_" fill="#C52D77"></path>
                    <path d="M75.8755042,15.1244444 C75.8755042,15.1244444 75.5990907,17.2455556 76.7508136,20.4272222 C78.0407433,23.8855556 79.4228108,25.1766667 80.7588093,24.2544444 C80.7588093,24.2544444 79.3306729,24.7155556 79.7452932,23.24 C80.2981202,21.2111111 81.3577052,17.7988889 79.7452932,15.4472222 C78.3171568,13.4183333 76.7968826,13.7411111 76.7968826,13.7411111 C76.7968826,13.7411111 75.5530218,9.59111111 69.978683,9.545 C61.9626917,9.45277778 56.4804907,19.4127778 60.6266931,26.2833333 C60.6266931,26.2833333 59.2906946,21.0266667 62.1008984,20.7038889 C64.9111023,20.3811111 75.0923327,16.8766667 75.8294353,14.94" id="XMLID_160_" fill="#5F4118"></path>
                    <path d="M76.2440556,15.6777778 C76.2440556,15.6777778 75.1844705,17.7066667 71.637164,19.4127778 C68.8269601,20.75 65.602136,20.9805556 62.4694498,20.8883333 C62.4694498,20.8883333 61.4098647,22.6866667 61.5020025,25.5916667 C61.5941404,28.4966667 63.0683457,31.5861111 63.0683457,31.5861111 C63.0683457,31.5861111 57.2175934,22.9172222 61.778416,15.9083333 C67.1224102,7.70055556 75.4148151,11.7122222 76.7047447,14.1561111 C76.7047447,14.2022222 76.7047447,14.9861111 76.2440556,15.6777778 L76.2440556,15.6777778 Z" id="XMLID_159_" fill="#764D1E"></path>
                    <path d="M68.4584088,19.2283333 C68.4584088,19.2283333 72.6506801,18.3061111 74.4934368,15.1705556 C74.4934368,15.1705556 73.295645,16.5077778 71.4528883,17.1994444 C71.4528883,17.1994444 72.742818,16.1388889 72.9731625,15.5855556 C72.9731625,15.5855556 69.471925,15.5394444 66.7538589,17.3838889 C66.7538589,17.3838889 69.6101317,14.11 75.4148151,14.2022222 C75.460884,14.2022222 74.7698503,18.1216667 68.4584088,19.2283333 L68.4584088,19.2283333 Z" id="XMLID_158_" fill="#A26628"></path>
                    <path d="M75.6912286,13.9255556 C74.7237813,13.6027778 73.7563341,13.3722222 72.7888869,13.1877778 C71.8214397,13.0033333 70.8079235,12.9111111 69.8404763,12.9572222 C67.8595129,13.0033333 65.9246184,13.5566667 64.1739996,14.5711111 C64.9111023,13.8794444 65.7864117,13.28 66.7538589,12.9111111 C67.7213062,12.5422222 68.7808912,12.3577778 69.7944074,12.3116667 C71.9135775,12.2655556 73.9866787,12.8188889 75.6912286,13.9255556 L75.6912286,13.9255556 Z" id="XMLID_157_" fill="#A26628"></path>
                    <path d="M78.7778459,20.1966667 C78.4553635,19.7816667 78.17895,19.3205556 77.9025365,18.8594444 C77.672192,18.3983333 77.4418474,17.8911111 77.3036406,17.3838889 C76.9811582,16.3694444 76.6586758,14.2022222 76.6586758,14.2022222 C76.6586758,14.2022222 78.3171568,14.6172222 78.9621216,15.8622222 C79.6070864,17.1072222 79.5610175,18.4444444 79.5610175,18.4444444 C79.5610175,18.4444444 79.1924662,17.1994444 78.6396392,16.3694444 C78.0868122,15.5394444 77.5339852,15.4011111 77.3036406,15.1705556 C77.3036406,15.1705556 77.4879163,16.4616667 77.7182609,17.43 C77.9946744,18.4444444 78.3632257,19.2283333 78.7778459,20.1966667 L78.7778459,20.1966667 Z" id="XMLID_156_" fill="#A26628"></path>
                    <ellipse id="XMLID_155_" fill="url(#radialGradient-3)" cx="64.496482" cy="27.6666667" rx="1.61241205" ry="1.61388889"></ellipse>
                    <ellipse id="XMLID_154_" fill="url(#radialGradient-4)" cx="74.8159192" cy="27.6666667" rx="1.61241205" ry="1.61388889"></ellipse>
                    <path d="M66.6156522,41.8227778 L73.1113693,41.8227778 L70.3933033,46.895 L66.6156522,41.8227778 Z" id="XMLID_153_" fill="#C52D77"></path>
                    <g id="XMLID_150_" stroke-width="1" fill="none" transform="translate(61.271658, 38.733333)">
                        <path d="M1.05958506,6.64 C1.05958506,6.64 1.10565398,6.225 1.10565398,5.57944444 C1.10565398,4.93388889 1.10565398,4.10388889 0.967447231,3.27388889 C0.921378315,2.85888889 0.829240483,2.44388889 0.737102652,2.075 C0.691033736,1.89055556 0.64496482,1.70611111 0.598895905,1.52166667 C0.552826989,1.33722222 0.506758073,1.19888889 0.460689157,1.06055556 C0.414620242,0.922222222 0.368551326,0.783888889 0.276413494,0.691666667 C0.230344579,0.553333333 0.184275663,0.461111111 0.138206747,0.415 C0.0460689157,0.276666667 0,0.184444444 0,0.184444444 L0,0.184444444 C0,0.184444444 0.0921378315,0.230555556 0.230344579,0.368888889 C0.276413494,0.415 0.32248241,0.461111111 0.368551326,0.461111111 C0.414620242,0.507222222 0.460689157,0.553333333 0.460689157,0.599444444 C0.552826989,0.691666667 0.64496482,0.83 0.691033736,0.968333333 C0.783171568,1.10666667 0.875309399,1.29111111 0.921378315,1.42944444 C0.967447231,1.61388889 1.05958506,1.79833333 1.10565398,1.98277778 C1.19779181,2.39777778 1.24386073,2.81277778 1.28992964,3.22777778 C1.33599856,4.10388889 1.33599856,4.93388889 1.28992964,5.57944444 C1.15172289,6.225 1.10565398,6.64 1.05958506,6.64 L1.05958506,6.64 L1.05958506,6.64 Z" id="XMLID_152_" fill="#074D6C"></path>
                    </g>
                    <g id="XMLID_147_" stroke-width="1" fill="none" transform="translate(76.474400, 38.733333)">
                        <path d="M0.414620242,6.08666667 C0.414620242,6.08666667 0.368551326,5.67166667 0.368551326,5.07222222 C0.368551326,4.47277778 0.414620242,3.64277778 0.552826989,2.85888889 C0.598895905,2.67444444 0.64496482,2.44388889 0.691033736,2.25944444 C0.737102652,2.075 0.783171568,1.89055556 0.875309399,1.70611111 C0.921378315,1.52166667 1.01351615,1.33722222 1.10565398,1.19888889 C1.19779181,1.06055556 1.28992964,0.922222222 1.38206747,0.783888889 C1.4742053,0.645555556 1.56634314,0.553333333 1.65848097,0.461111111 C1.7506188,0.368888889 1.84275663,0.276666667 1.88882555,0.230555556 C2.02703229,0.138333333 2.11917012,0.0922222222 2.11917012,0.0922222222 L2.11917012,0.138333333 C2.11917012,0.138333333 2.07310121,0.230555556 1.93489446,0.368888889 C1.88882555,0.415 1.79668771,0.507222222 1.7506188,0.599444444 C1.70454988,0.691666667 1.61241205,0.83 1.56634314,0.922222222 C1.52027422,1.06055556 1.42813639,1.19888889 1.38206747,1.33722222 C1.33599856,1.47555556 1.24386073,1.66 1.19779181,1.84444444 C1.05958506,2.16722222 0.921378315,2.58222222 0.829240483,2.95111111 C0.64496482,3.735 0.552826989,4.51888889 0.506758073,5.11833333 C0.460689157,5.71777778 0.460689157,6.08666667 0.414620242,6.08666667 L0.414620242,6.08666667 L0.414620242,6.08666667 Z" id="XMLID_149_" fill="#074D6C"></path>
                    </g>
                    <ellipse id="XMLID_146_" fill="#1BACE3" cx="74.1248854" cy="24.6233333" rx="1.7506188" ry="1.70611111"></ellipse>
                    <path d="M72.8349558,24.6233333 C72.8349558,25.2688889 73.3877828,25.8222222 74.0327476,25.8222222 C74.6777124,25.8222222 75.2305394,25.2688889 75.2305394,24.6233333 C75.2305394,23.9777778 74.6777124,23.4244444 74.0327476,23.4244444 C73.3877828,23.4244444 72.8349558,23.9777778 72.8349558,24.6233333 L72.8349558,24.6233333 Z" id="XMLID_145_" fill="#234572"></path>
                    <ellipse id="XMLID_144_" fill="#FFFFFF" cx="73.249576" cy="23.9777778" rx="0.368551326" ry="0.322777778"></ellipse>
                    <ellipse id="XMLID_143_" fill="#1BACE3" cx="70.0247519" cy="37.2577778" rx="0.64496482" ry="0.645555556"></ellipse>
                    <ellipse id="XMLID_142_" fill="#FFFEF1" opacity="0.2" cx="70.3208209" cy="37.185" rx="0.25" ry="0.25"></ellipse>
                    <ellipse id="XMLID_141_" fill="#1BACE3" cx="68.8269601" cy="37.1655556" rx="0.552826989" ry="0.553333333"></ellipse>
                    <circle id="XMLID_140_" fill="#FFFEF1" opacity="0.2" cx="69.169098" cy="37.1388889" r="0.25"></circle>
                    <ellipse id="XMLID_139_" fill="#1BACE3" cx="67.8595129" cy="36.8427778" rx="0.506758073" ry="0.507222222"></ellipse>
                    <circle id="XMLID_138_" fill="#FFFEF1" opacity="0.2" cx="68.1555818" cy="36.8161111" r="0.25"></circle>
                    <ellipse id="XMLID_137_" fill="#1BACE3" cx="67.1684792" cy="36.2433333" rx="0.414620242" ry="0.415"></ellipse>
                    <circle id="XMLID_136_" fill="#FFFEF1" opacity="0.2" cx="67.4145481" cy="36.2127778" r="0.2"></circle>
                    <ellipse id="XMLID_135_" fill="#1BACE3" cx="71.2225437" cy="37.0272222" rx="0.552826989" ry="0.553333333"></ellipse>
                    <circle id="XMLID_134_" fill="#FFFEF1" opacity="0.2" cx="71.3804059" cy="36.9083333" r="0.25"></circle>
                    <ellipse id="XMLID_133_" fill="#1BACE3" cx="72.189991" cy="36.7044444" rx="0.506758073" ry="0.507222222"></ellipse>
                    <circle id="XMLID_132_" fill="#FFFEF1" opacity="0.2" cx="72.3017842" cy="36.5855556" r="0.25"></circle>
                    <ellipse id="XMLID_131_" fill="#1BACE3" cx="72.8810247" cy="36.105" rx="0.414620242" ry="0.415"></ellipse>
                    <circle id="XMLID_130_" fill="#FFFEF1" opacity="0.2" cx="72.942818" cy="35.9822222" r="0.2"></circle>
                    <path d="M62.331243,45.3733333 C62.331243,45.3733333 63.3447592,47.4483333 63.9436551,50.1227778 L76.013711,50.1227778 C76.2440556,47.2177778 76.9350893,44.82 76.9350893,44.82 L80.3441891,48.1861111 L83.2925997,45.3733333 C81.6341187,42.9755556 78.9621216,39.2866667 78.7778459,38.9177778 C78.4092946,38.2722222 76.8429515,38.0877778 76.2901245,37.8572222 C75.1384016,37.4422222 74.7237813,37.35 73.6641963,36.6583333 C72.8810247,39.4711111 70.1629587,44.9583333 70.1629587,44.9583333 C70.1629587,44.9583333 66.9842035,38.9638889 66.70779,36.6583333 C65.9706874,37.3038889 65.4178604,37.5805556 64.2661375,37.9494444 C63.7133105,38.1338889 62.331243,38.4566667 61.3177269,38.8716667 C60.2581418,39.2866667 57.1715244,45.9727778 57.1715244,45.9727778 L60.0277972,48.555 L62.331243,45.3733333 L62.331243,45.3733333 Z" id="XMLID_129_" fill="#F99E1F"></path>
                    <path d="M64.0818618,3.27388889 L105.405679,41.4538889 L110.104709,41.4538889 L70.8539924,4.01166667 L75.4148151,4.01166667 L108.538366,34.0761111 L108.999055,3.50444444 L64.0818618,3.27388889 Z" id="XMLID_128_" fill="#C0E2C8" opacity="0.1"></path>
                    <g id="XMLID_124_" stroke-width="1" fill="none" transform="translate(28.562728, 0.000000)">
                        <path d="M76.7047447,5.48722222 L76.7047447,47.31 L5.80468338,47.31 L5.80468338,5.48722222 L76.7047447,5.48722222 L76.7047447,5.48722222 Z M76.7047447,0 L5.80468338,0 C2.76413494,0 0.276413494,2.44388889 0.276413494,5.48722222 L0.276413494,47.31 C0.276413494,50.3533333 2.76413494,52.7972222 5.8507523,52.7972222 L76.7508136,52.7972222 C79.837431,52.7972222 82.3251524,50.3533333 82.3251524,47.31 L82.3251524,5.48722222 C82.2330146,2.44388889 79.7452932,0 76.7047447,0 L76.7047447,0 L76.7047447,0 Z" id="XMLID_125_" fill="#024252"></path>
                    </g>
                    <path d="M82.1408768,65.6622222 C82.1408768,65.6622222 74.6777124,62.665 74.6777124,55.7483333 L64.9571712,55.7483333 C64.9571712,62.665 57.4940069,65.6622222 57.4940069,65.6622222 L57.4940069,68.2444444 L82.0948079,68.2444444 L82.0948079,65.6622222 L82.1408768,65.6622222 Z" id="XMLID_123_" fill="#024252"></path>
                    <path d="M66.0167563,5.48722222 L105.267472,5.48722222 L105.267472,41.3155556 L110.841811,46.3877778 L110.841811,5.48722222 C110.841811,2.44388889 108.35409,0 105.267472,0 L59.1064189,0 L66.0167563,5.48722222 L66.0167563,5.48722222 Z" id="XMLID_122_" fill="#0D4D5F"></path>
                    <rect id="XMLID_121_" fill="#145265" x="57.3097312" y="65.8005556" width="24.8772145" height="2.39777778"></rect>
                    <rect id="XMLID_120_" fill="#1E94D2" x="2.02703229" y="21.6261111" width="38.7439581" height="48.8316667"></rect>
                    <path d="M27.6874184,35.3211111 C27.6874184,35.3211111 25.706455,31.54 19.3950135,32.8311111 C13.0835721,34.1222222 11.2408154,40.2088889 11.4250911,43.7594444 C11.6093668,47.31 12.4386073,49.385 14.0970882,51.8288889 C15.7095003,54.2727778 15.0184665,55.8405556 13.7746058,56.2555556 C13.7746058,56.2555556 20.8692188,61.1894444 28.1941764,56.3016667 C28.1941764,56.3016667 26.3974887,55.7483333 26.6278333,54.3188889 C26.812109,52.8894444 29.4380372,51.1372222 31.0043803,48.14 C32.5707234,45.1427778 33.2617572,36.7505556 27.6874184,35.3211111 L27.6874184,35.3211111 Z" id="XMLID_119_" fill="#4C3715"></path>
                    <path d="M11.9318492,67.3222222 L15.1566733,63.08 C15.1566733,63.08 15.847707,64.325 16.400534,67.3222222 L25.8907307,67.3222222 C26.2132131,64.0022222 26.6278333,62.1577778 26.6278333,62.1577778 L31.5572073,67.3222222 L35.1045138,67.3222222 C32.8932058,64.4633333 28.6087967,58.8838889 28.4705899,58.6533333 C28.2402454,58.3305556 27.9638319,57.5005556 27.4570738,57.5466667 C26.3974887,57.5927778 23.3108714,55.7022222 23.3108714,54.6877778 C23.3569403,53.535 23.3108714,51.5983333 23.3108714,51.5983333 L19.3489446,51.5983333 L19.3489446,54.6877778 C19.3489446,55.8405556 17.7365326,56.855 16.0780516,57.4083333 C14.4195706,57.9616667 13.4981923,58.5611111 13.4981923,58.5611111 L8.56881833,67.3222222 L11.9318492,67.3222222 L11.9318492,67.3222222 Z" id="XMLID_118_" fill="#F4D9A6"></path>
                    <path d="M29.3458993,42.6066667 C29.3458993,48.3244444 26.6278333,53.0277778 21.329908,53.0277778 C16.0319827,53.0277778 13.129641,48.2783333 13.129641,42.5605556 C13.129641,36.8427778 16.1701894,36.2433333 21.4220458,36.2433333 C26.7199711,36.2433333 29.3458993,36.8888889 29.3458993,42.6066667 L29.3458993,42.6066667 Z" id="XMLID_117_" fill="#F4D89B"></path>
                    <ellipse id="XMLID_116_" fill="#1BACE3" cx="18.0129461" cy="45.9727778" rx="1.4742053" ry="1.42944444"></ellipse>
                    <path d="M19.0725311,45.9727778 C19.0725311,46.5261111 18.611842,46.9872222 18.059015,46.9872222 C17.506188,46.9872222 17.0454988,46.5261111 17.0454988,45.9727778 C17.0454988,45.4194444 17.506188,44.9583333 18.059015,44.9583333 C18.6579109,44.9583333 19.0725311,45.4194444 19.0725311,45.9727778 L19.0725311,45.9727778 Z" id="XMLID_115_" fill="#234572"></path>
                    <ellipse id="XMLID_114_" fill="#FFFFFF" cx="17.3679812" cy="45.4655556" rx="0.276413494" ry="0.276666667"></ellipse>
                    <path d="M18.1972217,49.4772222 C19.2107379,50.0766667 20.2703229,50.4455556 21.329908,50.4455556 C22.435562,50.4455556 23.4490781,50.0305556 24.5086632,49.4772222 C24.1401119,49.9383333 23.6333538,50.3072222 23.1265957,50.5377778 C22.5737687,50.8144444 21.9748728,50.9527778 21.3759769,50.9527778 C20.777081,50.9527778 20.1321162,50.8144444 19.5792892,50.5377778 C19.0264622,50.3072222 18.5197041,49.9383333 18.1972217,49.4772222 L18.1972217,49.4772222 Z" id="XMLID_113_" fill="#C52D77"></path>
                    <path d="M26.259282,38.0416667 C26.259282,38.0416667 26.0289374,39.84 26.9963846,42.4683333 C28.1020386,45.3733333 29.2537615,46.4338889 30.3594155,45.6961111 C30.3594155,45.6961111 29.1616237,46.1111111 29.4841061,44.8661111 C29.9447952,43.16 30.8661736,40.3011111 29.4841061,38.3644444 C28.2863143,36.6583333 27.0424535,36.935 27.0424535,36.935 C27.0424535,36.935 26.0289374,33.4766667 21.3759769,33.4305556 C14.6959841,33.3844444 10.0890925,41.6844444 13.5442612,47.4022222 C13.5442612,47.4022222 12.3925383,42.9755556 14.788122,42.745 C17.1376367,42.4683333 25.6603861,39.5633333 26.3053509,37.9494444" id="XMLID_112_" fill="#5F4118"></path>
                    <path d="M26.5817644,38.5027778 C26.5817644,38.5027778 25.706455,40.2088889 22.7580444,41.6383333 C20.4085297,42.7911111 17.6904636,42.9755556 15.0645355,42.8833333 C15.0645355,42.8833333 14.1892261,44.3588889 14.235295,46.8027778 C14.2813639,49.2466667 15.5712935,51.8288889 15.5712935,51.8288889 C15.5712935,51.8288889 10.6879885,44.5894444 14.5117085,38.6872222 C18.9803933,31.8166667 25.9367996,35.1827778 26.9963846,37.2116667 C26.9503157,37.2577778 26.9963846,37.9033333 26.5817644,38.5027778 L26.5817644,38.5027778 Z" id="XMLID_111_" fill="#764D1E"></path>
                    <path d="M20.0860473,41.4538889 C20.0860473,41.4538889 23.5872849,40.7161111 25.153628,38.0416667 C25.153628,38.0416667 24.1401119,39.1944444 22.6198376,39.7477778 C22.6198376,39.7477778 23.6794227,38.8716667 23.9097673,38.3644444 C23.9097673,38.3644444 20.9613567,38.3183333 18.7039798,39.8861111 C18.7039798,39.8861111 21.0995634,37.1194444 25.9367996,37.2577778 C25.9367996,37.2577778 25.3379037,40.5316667 20.0860473,41.4538889 L20.0860473,41.4538889 Z" id="XMLID_110_" fill="#A26628"></path>
                    <path d="M26.1671441,37.0272222 C25.3839726,36.7505556 24.5547321,36.5661111 23.7254916,36.3816667 C22.8962511,36.2433333 22.0670106,36.1511111 21.2377702,36.1972222 C19.5792892,36.2433333 17.9668771,36.7044444 16.4926718,37.5344444 C17.0915677,36.935 17.8286704,36.4738889 18.6579109,36.1511111 C19.4871514,35.8283333 20.3624608,35.69 21.2377702,35.6438889 C22.988389,35.6438889 24.6929388,36.105 26.1671441,37.0272222 L26.1671441,37.0272222 Z" id="XMLID_109_" fill="#A26628"></path>
                    <path d="M28.7009345,42.2838889 C28.424521,41.9611111 28.1941764,41.5461111 27.9638319,41.1772222 C27.7795562,40.7622222 27.5952805,40.3472222 27.4570738,39.9322222 C27.2267292,39.0561111 26.9503157,37.2577778 26.9503157,37.2577778 C26.9503157,37.2577778 28.3323832,37.6266667 28.8852102,38.6411111 C29.4380372,39.6555556 29.3919682,40.8083333 29.3919682,40.8083333 C29.3919682,40.8083333 29.0694858,39.7938889 28.6548656,39.0561111 C28.1941764,38.3644444 27.7334873,38.2261111 27.5492116,38.0416667 C27.5492116,38.0416667 27.7334873,39.1022222 27.871694,39.9322222 C28.0559697,40.8083333 28.3784521,41.4538889 28.7009345,42.2838889 L28.7009345,42.2838889 Z" id="XMLID_108_" fill="#A26628"></path>
                    <ellipse id="XMLID_107_" fill="url(#radialGradient-5)" cx="16.7690853" cy="48.5088889" rx="1.33599856" ry="1.33722222"></ellipse>
                    <ellipse id="XMLID_106_" fill="url(#radialGradient-6)" cx="25.4300415" cy="48.5088889" rx="1.33599856" ry="1.33722222"></ellipse>
                    <path d="M18.565773,60.3594444 L23.9558362,60.3594444 L21.6984593,64.6016667 L18.565773,60.3594444 Z" id="XMLID_105_" fill="#C52D77"></path>
                    <g id="XMLID_102_" stroke-width="1" fill="none" transform="translate(13.820675, 57.638889)">
                        <path d="M1.15172289,5.67166667 C1.15172289,5.67166667 1.24386073,4.24222222 1.05958506,2.85888889 C1.01351615,2.49 0.921378315,2.16722222 0.875309399,1.84444444 C0.829240483,1.66 0.783171568,1.52166667 0.783171568,1.38333333 C0.737102652,1.245 0.691033736,1.10666667 0.64496482,0.968333333 C0.598895905,0.83 0.552826989,0.737777778 0.506758073,0.645555556 C0.460689157,0.553333333 0.414620242,0.461111111 0.368551326,0.415 C0.276413494,0.276666667 0.230344579,0.184444444 0.230344579,0.184444444 L0.230344579,0.184444444 C0.230344579,0.184444444 0.32248241,0.230555556 0.414620242,0.368888889 C0.460689157,0.415 0.552826989,0.507222222 0.598895905,0.599444444 C0.64496482,0.691666667 0.737102652,0.783888889 0.829240483,0.922222222 C0.875309399,1.06055556 0.967447231,1.19888889 1.01351615,1.33722222 C1.05958506,1.47555556 1.10565398,1.66 1.15172289,1.79833333 C1.24386073,2.12111111 1.24386073,2.49 1.28992964,2.85888889 C1.42813639,4.28833333 1.19779181,5.67166667 1.15172289,5.67166667 L1.15172289,5.67166667 L1.15172289,5.67166667 Z" id="XMLID_104_" fill="#074D6C"></path>
                    </g>
                    <g id="XMLID_99_" stroke-width="1" fill="none" transform="translate(26.719971, 57.638889)">
                        <path d="M0.414620242,5.25666667 C0.414620242,5.25666667 0.276413494,3.91944444 0.506758073,2.53611111 C0.552826989,2.35166667 0.552826989,2.21333333 0.598895905,2.02888889 C0.64496482,1.84444444 0.691033736,1.70611111 0.737102652,1.56777778 C0.783171568,1.42944444 0.875309399,1.29111111 0.921378315,1.15277778 C0.967447231,1.01444444 1.05958506,0.922222222 1.15172289,0.783888889 C1.24386073,0.691666667 1.33599856,0.599444444 1.38206747,0.507222222 C1.42813639,0.415 1.52027422,0.368888889 1.61241205,0.322777778 C1.7506188,0.230555556 1.79668771,0.184444444 1.79668771,0.184444444 L1.79668771,0.230555556 C1.79668771,0.230555556 1.7506188,0.322777778 1.65848097,0.415 C1.61241205,0.461111111 1.56634314,0.553333333 1.52027422,0.645555556 C1.4742053,0.737777778 1.42813639,0.83 1.33599856,0.922222222 C1.28992964,1.01444444 1.24386073,1.15277778 1.15172289,1.29111111 C1.10565398,1.42944444 1.01351615,1.56777778 1.01351615,1.70611111 C0.921378315,1.98277778 0.783171568,2.30555556 0.737102652,2.62833333 C0.598895905,3.27388889 0.506758073,3.91944444 0.460689157,4.42666667 C0.460689157,4.88777778 0.460689157,5.25666667 0.414620242,5.25666667 L0.414620242,5.25666667 L0.414620242,5.25666667 Z" id="XMLID_169_" fill="#074D6C"></path>
                    </g>
                    <ellipse id="XMLID_98_" fill="#1BACE3" cx="24.8311456" cy="45.9727778" rx="1.4742053" ry="1.42944444"></ellipse>
                    <path d="M23.7254916,45.9727778 C23.7254916,46.5261111 24.1861808,46.9872222 24.7390078,46.9872222 C25.2918347,46.9872222 25.7525239,46.5261111 25.7525239,45.9727778 C25.7525239,45.4194444 25.2918347,44.9583333 24.7390078,44.9583333 C24.1861808,44.9583333 23.7254916,45.4194444 23.7254916,45.9727778 L23.7254916,45.9727778 Z" id="XMLID_97_" fill="#234572"></path>
                    <ellipse id="XMLID_96_" fill="#FFFFFF" cx="24.0940429" cy="45.4655556" rx="0.276413494" ry="0.276666667"></ellipse>
                    <ellipse id="XMLID_95_" fill="#1BACE3" cx="21.4220458" cy="56.5322222" rx="0.552826989" ry="0.553333333"></ellipse>
                    <circle id="XMLID_94_" fill="#FFFEF1" opacity="0.2" cx="21.7181147" cy="56.5055556" r="0.25"></circle>
                    <ellipse id="XMLID_93_" fill="#1BACE3" cx="20.4085297" cy="56.44" rx="0.460689157" ry="0.461111111"></ellipse>
                    <circle id="XMLID_92_" fill="#FFFEF1" opacity="0.2" cx="20.7045986" cy="56.4594444" r="0.25"></circle>
                    <ellipse id="XMLID_91_" fill="#1BACE3" cx="19.5792892" cy="56.1633333" rx="0.414620242" ry="0.415"></ellipse>
                    <circle id="XMLID_90_" fill="#FFFEF1" opacity="0.2" cx="19.8253581" cy="56.1788889" r="0.2"></circle>
                    <ellipse id="XMLID_89_" fill="#1BACE3" cx="18.9803933" cy="55.6561111" rx="0.368551326" ry="0.368888889"></ellipse>
                    <circle id="XMLID_88_" fill="#FFFEF1" opacity="0.2" cx="19.2264622" cy="55.7177778" r="0.2"></circle>
                    <ellipse id="XMLID_87_" fill="#1BACE3" cx="22.3894931" cy="56.3477778" rx="0.460689157" ry="0.461111111"></ellipse>
                    <circle id="XMLID_86_" fill="#FFFEF1" opacity="0.2" cx="22.5473552" cy="56.275" r="0.25"></circle>
                    <ellipse id="XMLID_85_" fill="#1BACE3" cx="23.2187335" cy="56.0711111" rx="0.414620242" ry="0.415"></ellipse>
                    <circle id="XMLID_84_" fill="#FFFEF1" opacity="0.2" cx="23.2805268" cy="55.9944444" r="0.2"></circle>
                    <ellipse id="XMLID_83_" fill="#1BACE3" cx="23.7715605" cy="55.5638889" rx="0.368551326" ry="0.368888889"></ellipse>
                    <circle id="XMLID_82_" fill="#FFFEF1" opacity="0.2" cx="23.8794227" cy="55.4872222" r="0.2"></circle>
                    <path d="M14.9723976,63.3105556 C14.9723976,63.3105556 15.8016381,65.0627778 16.3083962,67.2761111 L26.3974887,67.2761111 C26.5817644,64.8322222 27.1345914,62.8494444 27.1345914,62.8494444 L29.9908642,65.6622222 L32.4325167,63.3105556 C31.0504492,61.3277778 28.8391413,58.2383333 28.6548656,57.9155556 C28.3784521,57.3622222 27.0424535,57.2238889 26.5817644,57.0394444 C25.6143172,56.6705556 25.2457658,56.6244444 24.3704564,56.025 C23.7254916,58.3766667 21.4220458,62.9416667 21.4220458,62.9416667 C21.4220458,62.9416667 18.7500487,57.9616667 18.5197041,55.9788889 C17.9208082,56.5322222 17.4140502,56.7166667 16.4926718,57.0394444 C16.0319827,57.1777778 14.8802598,57.4544444 14.0049504,57.8233333 C13.129641,58.1922222 10.5037128,63.7255556 10.5037128,63.7255556 L12.8992964,65.8927778 L14.9723976,63.3105556 L14.9723976,63.3105556 Z" id="XMLID_81_" fill="#F99E1F"></path>
                    <path d="M39.94175,42.9294444 L15.7095003,20.2888889 L19.3489446,20.2888889 L39.94175,38.5027778 L39.94175,22.41 L10.3194371,19.7355556 L39.94175,46.6183333 L39.94175,42.9294444 Z" id="XMLID_80_" fill="#C0E2C8" opacity="0.1"></path>
                    <g id="XMLID_76_" stroke-width="1" fill="none" transform="translate(0.000000, 18.905556)">
                        <path d="M4.42261591,5.21055556 L38.0989933,5.21055556 L38.0989933,47.9094444 L4.42261591,47.9094444 L4.42261591,5.21055556 Z M0,4.47277778 L0,49.5694444 C0,51.9672222 1.98096338,53.95 4.42261591,53.95 L38.0989933,53.95 C40.5406459,53.95 42.5216092,52.0133333 42.5216092,49.5694444 L42.5216092,4.47277778 C42.5216092,2.075 40.5406459,0.0922222222 38.0989933,0.0922222222 L4.42261591,0.0922222222 C1.98096338,0.138333333 0,2.075 0,4.47277778 L0,4.47277778 L0,4.47277778 Z" id="XMLID_77_" fill="#024252"></path>
                    </g>
                    <path d="M42.5216092,48.7855556 L42.5216092,23.3783333 C42.5216092,20.9805556 40.5406459,18.9977778 38.0989933,18.9977778 L9.44412773,18.9977778 L15.1566733,24.07 L38.0989933,24.1161111 L38.0989933,44.82 L40.1720945,46.7105556 L42.5216092,48.7855556 L42.5216092,48.7855556 Z" id="XMLID_75_" fill="#0D4D5F"></path>
                    <ellipse id="XMLID_74_" fill="#FFFFFF" cx="21.0074256" cy="69.7661111" rx="1.70454988" ry="1.70611111"></ellipse>
                    <rect id="XMLID_210_" fill="#1E94D2" x="24.6468699" y="60.6361111" width="36.8551326" height="19.9661111"></rect>
                    <path d="M47.3127765,64.3711111 C47.3127765,64.3711111 46.1610536,62.1116667 42.4755403,62.8494444 C38.7900271,63.6333333 37.730442,67.2761111 37.8225798,69.3972222 C37.9607866,71.5183333 38.4214757,72.7633333 39.388923,74.2388889 C40.3563702,75.6683333 39.94175,76.6366667 39.2046473,76.8672222 C39.2046473,76.8672222 43.3047808,79.8183333 47.58919,76.9133333 C47.58919,76.9133333 46.5296049,76.5905556 46.6678117,75.7144444 C46.8060184,74.8844444 48.3262926,73.8238889 49.2476709,72.0255556 C50.1229803,70.2733333 50.5376006,65.2472222 47.3127765,64.3711111 L47.3127765,64.3711111 Z" id="XMLID_209_" fill="#4C3715"></path>
                    <path d="M39.2507162,82.0777778 L39.9878189,80.9711111 C39.9878189,80.9711111 40.4024391,80.5561111 40.7249215,82.3544444 L46.2531914,82.3544444 C46.4374671,80.3716667 46.6678117,80.4177778 46.6678117,80.4177778 L48.0498791,81.7088889 L50.1229803,81.7088889 C48.8330507,80.0027778 47.8195345,78.4811111 47.7273967,78.2966667 C47.58919,78.1122222 47.4509832,77.605 47.1285008,77.605 C46.5296049,77.6511111 44.6868483,76.4983333 44.7329172,75.8988889 L44.7329172,74.0544444 L42.4294714,74.0544444 L42.4294714,75.8988889 C42.4294714,76.5905556 41.5080931,77.19 40.5406459,77.5127778 C39.5731986,77.8355556 39.0664406,78.2044444 39.0664406,78.2044444 L37.3158218,82.0777778 L39.2507162,82.0777778 L39.2507162,82.0777778 Z" id="XMLID_208_" fill="#F4D9A6"></path>
                    <path d="M48.2802237,68.7516667 C48.2802237,72.1638889 46.7138806,74.9766667 43.6272632,74.9766667 C40.5406459,74.9766667 38.836096,72.1177778 38.836096,68.7055556 C38.836096,65.2933333 40.5867148,64.9244444 43.6733321,64.9244444 C46.7599495,64.9705556 48.2802237,65.3394444 48.2802237,68.7516667 L48.2802237,68.7516667 Z" id="XMLID_207_" fill="#F4D89B"></path>
                    <ellipse id="XMLID_206_" fill="#1BACE3" cx="41.6462998" cy="70.7805556" rx="0.829240483" ry="0.83"></ellipse>
                    <ellipse id="XMLID_205_" fill="#234572" cx="41.6923688" cy="70.7805556" rx="0.598895905" ry="0.599444444"></ellipse>
                    <circle id="XMLID_204_" fill="#FFFFFF" cx="41.3434728" cy="70.5233333" r="0.25"></circle>
                    <path d="M41.7845066,72.8555556 C42.3834025,73.2244444 42.9822984,73.455 43.6272632,73.4088889 C44.272228,73.4088889 44.8711239,73.1783333 45.4700198,72.8555556 C45.2396753,73.1322222 44.9632618,73.3627778 44.6407794,73.5011111 C44.318297,73.6394444 43.9497456,73.7316667 43.6272632,73.7777778 C43.2587119,73.7777778 42.8901606,73.6855556 42.6137471,73.5472222 C42.2451957,73.3627778 41.9687822,73.1322222 41.7845066,72.8555556 L41.7845066,72.8555556 Z" id="XMLID_203_" fill="#C52D77"></path>
                    <path d="M46.483536,66.0311111 C46.483536,66.0311111 46.3453292,67.0916667 46.8981562,68.7055556 C47.5431211,70.4577778 48.1880859,71.1033333 48.8330507,70.6422222 C48.8330507,70.6422222 48.142017,70.8727778 48.3262926,70.135 C48.6027061,69.1205556 49.1094642,67.4144444 48.3262926,66.2155556 C47.6352589,65.2011111 46.8981562,65.3855556 46.8981562,65.3855556 C46.8981562,65.3855556 46.2992603,63.3105556 43.5811943,63.3105556 C39.6653365,63.2644444 36.9933393,68.2444444 39.0203716,71.6566667 C39.0203716,71.6566667 38.3754068,69.0283333 39.7574743,68.8438889 C41.1395418,68.6594444 46.0689157,66.9072222 46.4374671,65.985" id="XMLID_202_" fill="#5F4118"></path>
                    <path d="M46.6678117,66.3077778 C46.6678117,66.3077778 46.1610536,67.3222222 44.4104348,68.1983333 C43.0283673,68.89 41.4620242,68.9822222 39.94175,68.9361111 C39.94175,68.9361111 39.4349919,69.8122222 39.4810608,71.2877778 C39.5271297,72.7633333 40.2642324,74.285 40.2642324,74.285 C40.2642324,74.285 37.4079596,69.9505556 39.6653365,66.4461111 C42.2451957,62.3422222 46.2992603,64.3711111 46.9442251,65.57 C46.8981562,65.5238889 46.8981562,65.9388889 46.6678117,66.3077778 L46.6678117,66.3077778 Z" id="XMLID_201_" fill="#764D1E"></path>
                    <ellipse id="XMLID_200_" fill="url(#radialGradient-7)" cx="40.9552661" cy="72.3022222" rx="0.783171568" ry="0.783888889"></ellipse>
                    <ellipse id="XMLID_199_" fill="url(#radialGradient-8)" cx="45.9767779" cy="72.3022222" rx="0.783171568" ry="0.783888889"></ellipse>
                    <path d="M41.9687822,79.3572222 L45.1475374,79.3572222 L43.8115389,81.9394444 L41.9687822,79.3572222 Z" id="XMLID_198_" fill="#C52D77"></path>
                    <g id="XMLID_195_" stroke-width="1" fill="none" transform="translate(39.158578, 77.466667)">
                        <path d="M0.737102652,3.68888889 C0.737102652,3.68888889 0.783171568,2.81277778 0.64496482,2.02888889 C0.598895905,1.84444444 0.552826989,1.61388889 0.506758073,1.42944444 C0.506758073,1.33722222 0.460689157,1.245 0.460689157,1.15277778 C0.460689157,1.06055556 0.414620242,1.01444444 0.414620242,0.922222222 C0.368551326,0.783888889 0.32248241,0.645555556 0.276413494,0.553333333 C0.230344579,0.461111111 0.230344579,0.415 0.230344579,0.415 L0.230344579,0.415 C0.230344579,0.415 0.276413494,0.461111111 0.368551326,0.507222222 C0.414620242,0.553333333 0.460689157,0.599444444 0.506758073,0.645555556 C0.552826989,0.691666667 0.598895905,0.737777778 0.64496482,0.83 C0.737102652,0.968333333 0.829240483,1.15277778 0.875309399,1.38333333 C0.921378315,1.56777778 0.921378315,1.79833333 0.921378315,2.02888889 C0.921378315,2.85888889 0.783171568,3.68888889 0.737102652,3.68888889 L0.737102652,3.68888889 L0.737102652,3.68888889 Z" id="XMLID_213_" fill="#074D6C"></path>
                    </g>
                    <g id="XMLID_192_" stroke-width="1" fill="none" transform="translate(46.529605, 77.927778)">
                        <path d="M0.460689157,2.95111111 C0.460689157,2.95111111 0.368551326,2.16722222 0.460689157,1.33722222 C0.506758073,1.15277778 0.506758073,0.922222222 0.598895905,0.737777778 C0.64496482,0.553333333 0.783171568,0.368888889 0.875309399,0.276666667 C0.921378315,0.230555556 0.967447231,0.184444444 1.01351615,0.138333333 C1.05958506,0.0922222222 1.10565398,0.0461111111 1.15172289,0.0461111111 C1.24386073,0 1.28992964,0 1.28992964,0 L1.28992964,0.0461111111 C1.28992964,0.0461111111 1.24386073,0.0922222222 1.19779181,0.184444444 C1.15172289,0.276666667 1.10565398,0.368888889 1.05958506,0.507222222 C1.01351615,0.645555556 0.967447231,0.783888889 0.875309399,0.968333333 C0.829240483,1.15277778 0.737102652,1.33722222 0.691033736,1.52166667 C0.506758073,2.12111111 0.506758073,2.95111111 0.460689157,2.95111111 L0.460689157,2.95111111 L0.460689157,2.95111111 Z" id="XMLID_215_" fill="#074D6C"></path>
                    </g>
                    <ellipse id="XMLID_191_" fill="#1BACE3" cx="45.6542955" cy="70.7805556" rx="0.829240483" ry="0.83"></ellipse>
                    <ellipse id="XMLID_190_" fill="#234572" cx="45.6082266" cy="70.7805556" rx="0.598895905" ry="0.599444444"></ellipse>
                    <circle id="XMLID_189_" fill="#FFFFFF" cx="45.2593307" cy="70.5233333" r="0.25"></circle>
                    <ellipse id="XMLID_188_" fill="#1BACE3" cx="43.6272632" cy="77.0977778" rx="0.32248241" ry="0.322777778"></ellipse>
                    <circle id="XMLID_187_" fill="#FFFEF1" opacity="0.2" cx="43.8733321" cy="77.1133333" r="0.2"></circle>
                    <ellipse id="XMLID_186_" fill="#1BACE3" cx="43.0744362" cy="77.0516667" rx="0.276413494" ry="0.276666667"></ellipse>
                    <circle id="XMLID_185_" fill="#FFFEF1" opacity="0.2" cx="43.2205051" cy="77.0133333" r="0.1"></circle>
                    <ellipse id="XMLID_184_" fill="#1BACE3" cx="42.5873336" cy="76.8866667" rx="0.25" ry="0.25"></ellipse>
                    <circle id="XMLID_183_" fill="#FFFEF1" opacity="0.2" cx="42.7137471" cy="76.875" r="0.1"></circle>
                    <circle id="XMLID_182_" fill="#1BACE3" cx="42.2648512" cy="76.61" r="0.25"></circle>
                    <circle id="XMLID_181_" fill="#FFFEF1" opacity="0.2" cx="42.3912647" cy="76.5983333" r="0.1"></circle>
                    <ellipse id="XMLID_180_" fill="#1BACE3" cx="44.2261591" cy="76.9594444" rx="0.276413494" ry="0.276666667"></ellipse>
                    <circle id="XMLID_179_" fill="#FFFEF1" opacity="0.2" cx="44.3261591" cy="76.9211111" r="0.1"></circle>
                    <circle id="XMLID_178_" fill="#1BACE3" cx="44.7065037" cy="76.8405556" r="0.25"></circle>
                    <circle id="XMLID_177_" fill="#FFFEF1" opacity="0.2" cx="44.7407794" cy="76.7366667" r="0.1"></circle>
                    <ellipse id="XMLID_176_" fill="#1BACE3" cx="45.075055" cy="76.5177778" rx="0.25" ry="0.25"></ellipse>
                    <circle id="XMLID_175_" fill="#FFFEF1" opacity="0.2" cx="45.0632618" cy="76.46" r="0.1"></circle>
                    <path d="M39.895681,81.1555556 C39.895681,81.1555556 40.4024391,80.6483333 40.6788526,81.9855556 L46.5296049,81.9855556 C46.6678117,80.51 46.9442251,80.8788889 46.9442251,80.8788889 L48.6027061,82.5388889 L50.0308425,81.1555556 C49.2476709,79.9566667 47.9116724,78.1122222 47.8195345,77.9277778 C47.6352589,77.605 46.8981562,77.5127778 46.6217427,77.4205556 C46.0689157,77.19 45.8385712,77.19 45.3318131,76.8211111 C44.9632618,78.2044444 43.6272632,80.9711111 43.6272632,80.9711111 C43.6272632,80.9711111 42.0609201,77.9738889 41.9227133,76.8211111 C41.554162,77.1438889 41.2777485,77.2822222 40.7249215,77.4666667 C40.448508,77.5588889 39.8035432,77.6972222 39.2967851,77.9277778 C38.7900271,78.1583333 37.2697528,81.4783333 37.2697528,81.4783333 L38.6518203,82.7694444 L39.895681,81.1555556 L39.895681,81.1555556 Z" id="XMLID_174_" fill="#F99E1F"></path>
                    <path d="M22.988389,61.2816667 L22.988389,62.8955556 L22.988389,75.7605556 L22.988389,80.4177778 C22.988389,82.3544444 23.6333538,82.7233333 25.5682482,82.7233333 L64.3122064,82.7233333 C66.5235143,82.7233333 66.9381346,82.1238889 66.9381346,79.9566667 L66.9381346,61.7888889 C66.9381346,59.6216667 66.2471008,58.93 64.0357929,58.93 L45.0553996,58.93 L45.0553996,58.93 L25.5221793,58.93 C23.5872849,58.9761111 22.988389,59.345 22.988389,61.2816667 L22.988389,61.2816667 Z M65.3257225,71.2877778 C65.3257225,72.1638889 64.5886199,72.9016667 63.6672416,72.9016667 C62.7458633,72.9016667 62.0087606,72.1638889 62.0087606,71.2877778 C62.0087606,70.4116667 62.7458633,69.6738889 63.6672416,69.6738889 C64.5886199,69.6738889 65.3257225,70.4116667 65.3257225,71.2877778 L65.3257225,71.2877778 Z M59.613177,61.6044444 C59.8435216,61.6044444 60.0738661,61.7888889 60.0738661,62.0194444 L60.0738661,79.6338889 C60.0738661,79.8644444 59.8895905,80.0488889 59.613177,80.0488889 L25.7985928,80.0488889 C25.6143172,80.0027778 25.4761104,79.9105556 25.4300415,79.6338889 L25.4300415,73.9161111 L25.4300415,73.9161111 L25.4300415,61.9733333 C25.4300415,61.7427778 25.6143172,61.5583333 25.8907307,61.5583333 L59.613177,61.6044444 L59.613177,61.6044444 Z" id="XMLID_54_" fill="#024252"></path>
                    <path d="M43.3508497,68.1061111 C43.3508497,68.1061111 45.2857442,67.645 46.1610536,66.1233333 C46.1610536,66.1233333 45.6082266,66.7688889 44.7789861,67.0916667 C44.7789861,67.0916667 45.377882,66.5844444 45.4700198,66.3077778 C45.4700198,66.3077778 43.8576078,66.3077778 42.5676782,67.1838889 C42.5676782,67.1838889 43.9036767,65.57 46.5756738,65.6622222 C46.6217427,65.6622222 46.2992603,67.5527778 43.3508497,68.1061111 L43.3508497,68.1061111 Z" id="XMLID_47_" fill="#A26628"></path>
                    <path d="M46.7138806,65.5238889 C46.2531914,65.3394444 45.7925023,65.2472222 45.377882,65.155 C44.9171929,65.0627778 44.4565037,65.0166667 43.9958145,65.0627778 C43.0744362,65.0627778 42.1991268,65.3394444 41.3698863,65.8466667 C41.6923688,65.5238889 42.106989,65.2011111 42.5676782,65.0627778 C43.0283673,64.8783333 43.4890565,64.7861111 43.9958145,64.7861111 C44.9632618,64.74 45.930709,65.0166667 46.7138806,65.5238889 L46.7138806,65.5238889 Z" id="XMLID_46_" fill="#A26628"></path>
                    <path d="M48.0038102,68.475 C47.8656035,68.2905556 47.7273967,68.06 47.58919,67.8294444 C47.4970521,67.5988889 47.4049143,67.3683333 47.3127765,67.0916667 C47.1745697,66.5844444 47.036363,65.57 47.036363,65.57 C47.036363,65.57 47.8195345,65.8005556 48.095948,66.3538889 C48.4184305,66.9533333 48.3723615,67.5988889 48.3723615,67.5988889 C48.3723615,67.5988889 48.1880859,66.9994444 47.9577413,66.5844444 C47.7273967,66.1694444 47.4509832,66.1233333 47.3588454,65.985 C47.3588454,65.985 47.4509832,66.5844444 47.5431211,67.0916667 C47.6352589,67.645 47.8195345,68.0138889 48.0038102,68.475 L48.0038102,68.475 Z" id="XMLID_45_" fill="#A26628"></path>
                    <g id="XMLID_48_" opacity="0.1" stroke-width="1" fill="none" transform="translate(43.304781, 59.944444)">
                        <path d="M17.8286704,9.59111111 L17.8286704,0.461111111 L17.7365326,0.415 L17.8286704,0.415 L17.8286704,0.322777778 L8.43061158,0.322777778 L7.55530218,0.230555556 L17.8286704,9.59111111 Z" id="XMLID_49_" fill="#C0E2C8"></path>
                        <path d="M17.3679812,12.7266667 L4.05406459,0.737777778 L0.598895905,0.322777778 L0.276413494,0.691666667 L17.8286704,16.4616667 L17.3679812,12.7266667 Z" id="XMLID_51_" fill="#C0E2C8"></path>
                    </g>
                    <path d="M64.0818618,58.9761111 L45.0553996,58.9761111 L45.0553996,58.9761111 L41.6002309,58.9761111 L44.5486415,61.6505556 L59.5671081,61.6505556 C59.7974526,61.6505556 60.0277972,61.835 60.0277972,62.0655556 L60.0277972,75.4377778 L66.8459968,81.5244444 C66.9381346,81.1555556 66.9842035,80.6483333 66.9842035,80.0027778 L66.9842035,61.835 C66.9842035,59.6216667 66.2931698,58.9761111 64.0818618,58.9761111 L64.0818618,58.9761111 Z M63.6672416,72.9016667 C62.7458633,72.9016667 62.0087606,72.1638889 62.0087606,71.2877778 C62.0087606,70.4116667 62.7458633,69.6738889 63.6672416,69.6738889 C64.5886199,69.6738889 65.3257225,70.4116667 65.3257225,71.2877778 C65.3257225,72.21 64.5886199,72.9016667 63.6672416,72.9016667 L63.6672416,72.9016667 Z" id="XMLID_61_" fill="#0D4D5F"></path>
                </g>
            </g>
        </g>
    </g>
</svg>