<svg height="140" viewBox="0 0 140 140" width="140" xmlns="http://www.w3.org/2000/svg" xmlns:xlink="http://www.w3.org/1999/xlink"><defs><path id="a" d="m70 140c38.659932 0 70-31.340068 70-70 0-38.6599325-31.340068-70-70-70-38.6599325 0-70 31.3400675-70 70 0 38.659932 31.3400675 70 70 70z"/><linearGradient id="b"><stop offset="0" stop-color="#efb698"/><stop offset="1" stop-color="#f4d9a6"/></linearGradient><radialGradient id="c" cx="49.468571%" cy="50.169492%" r="50.264286%" xlink:href="#b"/><radialGradient id="d" cx="50.697143%" cy="50.169492%" r="50.264286%" xlink:href="#b"/><radialGradient id="e" cx="49.62069%" cy="50.588097%" r="50.734483%" xlink:href="#b"/><radialGradient id="f" cx="49.717241%" cy="50.588097%" r="50.734483%" xlink:href="#b"/><radialGradient id="g" cx="52.334224%" cy="49.267647%" r="51.082353%" xlink:href="#b"/><radialGradient id="h" cx="53.800519%" cy="49.267647%" r="51.082353%" xlink:href="#b"/><mask id="i" fill="#fff"><use fill="#fff" fill-rule="evenodd" xlink:href="#a"/></mask></defs><g fill="none" fill-rule="evenodd"><use fill="#002f3e" xlink:href="#a"/><g mask="url(#i)"><g transform="translate(10 27)"><path d="m31.419001 3.181667h76.612607v46.987222h-76.612607z" fill="#1e94d2"/><path d="m77.5339852 11.8966667s-2.3955836-4.51888892-9.9508858-2.99722226-9.7666101 8.85333336-9.5362656 13.04944446c.2303446 4.1961111 1.1977919 6.7322222 3.1787552 9.6372222 1.9348945 2.905 1.105654 4.7955556-.3685513 5.2566667 0 0 8.4766805 5.9022222 17.2297745.0922222 0 0-2.1191701-.6455556-1.8888256-2.3516667.2303446-1.7061111 3.3630309-3.8272222 5.2518564-7.3777777 1.8888256-3.5505556 2.764135-13.6027778-3.9158578-15.3088889z" fill="#4c3715"/><path d="m58.7378676 50.1227778 3.8697889-5.0722222s.8292405 1.4755555 1.4742053 5.0722222h11.3329533c.3685513-3.9655556.8753094-6.1788889.8753094-6.1788889l5.8968212 6.1788889h4.2383402c-2.6259282-3.4122222-7.7395778-10.0522222-7.9238535-10.375-.2764135-.415-.5988959-1.3833334-1.1977918-1.3372222-1.2899296.0461111-4.9754429-2.2133334-4.929374-3.4583334.046069-1.3833333 0-3.6888889 0-3.6888889h-4.7450983v3.6888889c0 1.3833334-1.8888255 2.5822222-3.9158578 3.2738889-1.9809634.6455556-3.0405485 1.3833333-3.0405485 1.3833333l-5.9428901 10.5133334z" fill="#f4d9a6"/><path d="m79.5610175 20.6116667c0 6.8244444-3.270893 12.45-9.5823345 12.45-6.3114414 0-9.812679-5.6716667-9.812679-12.4961111 0-6.8244445 3.6394443-7.5622223 9.9508858-7.5622223 6.2653725 0 9.4441277.7838889 9.4441277 7.6083334z" fill="#f4d89b"/><ellipse cx="65.970687" cy="24.623333" fill="#1bace3" rx="1.750619" ry="1.706111"/><path d="m67.260617 24.6233333c0 .6455556-.552827 1.1988889-1.1977918 1.1988889s-1.1977918-.5533333-1.1977918-1.1988889c0-.6455555.552827-1.1988889 1.1977918-1.1988889s1.1977918.5533334 1.1977918 1.1988889z" fill="#234572"/><ellipse cx="65.187516" cy="23.977778" fill="#fff" rx=".368551" ry=".322778"/><path d="m66.2010319 28.7733333c1.1977918.6916667 2.4877215 1.1527778 3.7776511 1.1527778 1.2899297 0 2.5337904-.5072222 3.7776511-1.1527778-.4606891.5072223-1.0135161.9683334-1.658481 1.2911111-.6449648.3227778-1.3820674.5072223-2.1191701.5072223-.7371026 0-1.4742053-.1383334-2.1191701-.4611111-.6910337-.3227778-1.2438607-.7377778-1.658481-1.3372223z" fill="#c52d77"/><path d="m75.8755042 15.1244444s-.2764135 2.1211112.8753094 5.3027778c1.2899297 3.4583334 2.6719972 4.7494445 4.0079957 3.8272222 0 0-1.4281364.4611112-1.0135161-1.0144444.552827-2.0288889 1.612412-5.4411111 0-7.7927778-1.4281364-2.0288889-2.9484106-1.7061111-2.9484106-1.7061111s-1.2438608-4.14999999-6.8181996-4.1961111c-8.0159913-.09222222-13.4981923 9.8677778-9.3519899 16.7383333 0 0-1.3359985-5.2566666 1.4742053-5.5794444 2.8102039-.3227778 12.9914343-3.8272222 13.7285369-5.7638889" fill="#5f4118"/><path d="m76.2440556 15.6777778s-1.0595851 2.0288889-4.6068916 3.735c-2.8102039 1.3372222-6.035028 1.5677778-9.1677142 1.4755555 0 0-1.0595851 1.7983334-.9674473 4.7033334.0921379 2.905 1.5663432 5.9944444 1.5663432 5.9944444s-5.8507523-8.6688889-1.2899297-15.6777778c5.3439942-8.20777774 13.6363991-4.1961111 14.9263287-1.7522222 0 .0461111 0 .83-.4606891 1.5216667z" fill="#764d1e"/><g fill="#a26628"><path d="m68.4584088 19.2283333s4.1922713-.9222222 6.035028-4.0577777c0 0-1.1977918 1.3372222-3.0405485 2.0288888 0 0 1.2899297-1.0605555 1.5202742-1.6138888 0 0-3.5012375-.0461112-6.2193036 1.7983333 0 0 2.8562728-3.2738889 8.6609562-3.1816667.0460689 0-.6449648 3.9194445-6.9564063 5.0261111z"/><path d="m75.6912286 13.9255556c-.9674473-.3227778-1.9348945-.5533334-2.9023417-.7377778-.9674472-.1844445-1.9809634-.2766667-2.9484106-.2305556-1.9809634.0461111-3.9158579.5994445-5.6664767 1.6138889.7371027-.6916667 1.6124121-1.2911111 2.5798593-1.66.9674473-.3688889 2.0270323-.5533333 3.0405485-.5994444 2.1191701-.0461111 4.1922713.5072222 5.8968212 1.6138889z"/><path d="m78.7778459 20.1966667c-.3224824-.415-.5988959-.8761111-.8753094-1.3372223-.2303445-.4611111-.4606891-.9683333-.5988959-1.4755555-.3224824-1.0144445-.6449648-3.1816667-.6449648-3.1816667s1.658481.415 2.3034458 1.66.5988959 2.5822222.5988959 2.5822222-.3685513-1.245-.9213783-2.075-1.105654-.9683333-1.3359986-1.1988888c0 0 .1842757 1.2911111.4146203 2.2594444.2764135 1.0144444.6449648 1.7983333 1.059585 2.7666667z"/></g><ellipse cx="64.496482" cy="27.666667" fill="url(#c)" rx="1.612412" ry="1.613889"/><ellipse cx="74.815919" cy="27.666667" fill="url(#d)" rx="1.612412" ry="1.613889"/><path d="m66.6156522 41.8227778h6.4957171l-2.718066 5.0722222z" fill="#c52d77"/><path d="m1.05958506 6.64s.04606892-.415.04606892-1.06055556c0-.64555555 0-1.47555555-.13820675-2.30555555-.04606891-.415-.13820675-.83-.23034458-1.19888889-.04606891-.18444444-.09213783-.36888889-.13820674-.55333333-.04606892-.18444445-.09213784-.32277778-.13820675-.46111111-.04606892-.13833334-.09213783-.27666667-.18427567-.36888889-.04606891-.13833334-.09213783-.23055556-.13820674-.27666667-.09213783-.13833333-.13820675-.23055556-.13820675-.23055556s.09213783.04611112.23034458.18444445c.04606891.04611111.09213783.09222222.13820675.09222222.04606891.04611111.09213783.09222222.09213783.13833333.09213783.09222223.18427566.23055556.23034458.36888889.09213783.13833334.18427566.32277778.23034458.46111111.04606891.18444445.13820674.36888889.18427566.55333334.09213783.415.13820675.83.18427566 1.245.04606892.87611111.04606892 1.70611111 0 2.35166666-.13820675.64555556-.18427566 1.06055556-.23034458 1.06055556z" fill="#074d6c" transform="translate(61.271658 38.733333)"/><path d="m.41462024 6.08666667s-.04606891-.415-.04606891-1.01444445c0-.59944444.04606891-1.42944444.18427566-2.21333333.04606892-.18444445.09213783-.415.13820675-.59944445.04606891-.18444444.09213783-.36888888.18427566-.55333333.04606892-.18444444.13820675-.36888889.23034458-.50722222s.18427566-.27666667.27641349-.415.18427567-.23055556.2764135-.32277778.18427566-.18444444.23034458-.23055555c.13820674-.09222223.23034457-.13833334.23034457-.13833334v.04611111s-.04606891.09222223-.18427566.23055556c-.04606891.04611111-.13820675.13833333-.18427566.23055555-.04606892.09222223-.13820675.23055556-.18427566.32277778-.04606892.13833334-.13820675.27666667-.18427567.415-.04606891.13833334-.13820674.32277778-.18427566.50722222-.13820675.32277778-.27641349.73777778-.36855133 1.10666667-.18427566.78388889-.27641349 1.56777778-.32248241 2.16722222-.04606891.59944445-.04606891.96833334-.09213783.96833334z" fill="#074d6c" transform="translate(76.4744 38.733333)"/><ellipse cx="74.124885" cy="24.623333" fill="#1bace3" rx="1.750619" ry="1.706111"/><path d="m72.8349558 24.6233333c0 .6455556.552827 1.1988889 1.1977918 1.1988889s1.1977918-.5533333 1.1977918-1.1988889c0-.6455555-.552827-1.1988889-1.1977918-1.1988889s-1.1977918.5533334-1.1977918 1.1988889z" fill="#234572"/><ellipse cx="73.249576" cy="23.977778" fill="#fff" rx=".368551" ry=".322778"/><ellipse cx="70.024752" cy="37.257778" fill="#1bace3" rx=".644965" ry=".645556"/><ellipse cx="70.320821" cy="37.185" fill="#fffef1" opacity=".2" rx=".25" ry=".25"/><ellipse cx="68.82696" cy="37.165556" fill="#1bace3" rx=".552827" ry=".553333"/><circle cx="69.169098" cy="37.138889" fill="#fffef1" opacity=".2" r=".25"/><ellipse cx="67.859513" cy="36.842778" fill="#1bace3" rx=".506758" ry=".507222"/><circle cx="68.155582" cy="36.816111" fill="#fffef1" opacity=".2" r=".25"/><ellipse cx="67.168479" cy="36.243333" fill="#1bace3" rx=".41462" ry=".415"/><circle cx="67.414548" cy="36.212778" fill="#fffef1" opacity=".2" r=".2"/><ellipse cx="71.222544" cy="37.027222" fill="#1bace3" rx=".552827" ry=".553333"/><circle cx="71.380406" cy="36.908333" fill="#fffef1" opacity=".2" r=".25"/><ellipse cx="72.189991" cy="36.704444" fill="#1bace3" rx=".506758" ry=".507222"/><circle cx="72.301784" cy="36.585556" fill="#fffef1" opacity=".2" r=".25"/><ellipse cx="72.881025" cy="36.105" fill="#1bace3" rx=".41462" ry=".415"/><circle cx="72.942818" cy="35.982222" fill="#fffef1" opacity=".2" r=".2"/><path d="m62.331243 45.3733333s1.0135162 2.075 1.6124121 4.7494445h12.0700559c.2303446-2.905.9213783-5.3027778.9213783-5.3027778l3.4090998 3.3661111 2.9484106-2.8127778c-1.658481-2.3977777-4.3304781-6.0866666-4.5147538-6.4555555-.3685513-.6455556-1.9348944-.83-2.4877214-1.0605556-1.1517229-.415-1.5663432-.5072222-2.6259282-1.1988889-.7831716 2.8127778-3.5012376 8.3-3.5012376 8.3s-3.1787552-5.9944444-3.4551687-8.3c-.7371026.6455556-1.2899296.9222223-2.4416525 1.2911111-.552827.1844445-1.9348945.5072223-2.9484106.9222223-1.0595851.415-4.1462025 7.1011111-4.1462025 7.1011111l2.8562728 2.5822222z" fill="#f99e1f"/><path d="m64.0818618 3.27388889 41.3238172 38.18000001h4.69903l-39.2507166-37.44222223h4.5608227l33.1235509 30.06444443.460689-30.57166666z" fill="#c0e2c8" opacity=".1"/><path d="m76.7047447 5.48722222v41.82277778h-70.90006132v-41.82277778zm0-5.48722222h-70.90006132c-3.04054844 0-5.52826989 2.44388889-5.52826989 5.48722222v41.82277778c0 3.0433333 2.48772145 5.4872222 5.57433881 5.4872222h70.9000613c3.0866174 0 5.5743388-2.4438889 5.5743388-5.4872222v-41.82277778c-.0921378-3.04333333-2.5798592-5.48722222-5.6204077-5.48722222z" fill="#024252" transform="translate(28.562728)"/><path d="m82.1408768 65.6622222s-7.4631644-2.9972222-7.4631644-9.9138889h-9.7205412c0 6.9166667-7.4631643 9.9138889-7.4631643 9.9138889v2.5822222h24.600801v-2.5822222z" fill="#024252"/><path d="m66.0167563 5.48722222h39.2507157v35.82833338l5.574339 5.0722222v-40.90055558c0-3.04333333-2.487721-5.48722222-5.574339-5.48722222h-46.1610531z" fill="#0d4d5f"/><path d="m57.309731 65.800556h24.877215v2.397778h-24.877215z" fill="#145265"/><path d="m2.027032 21.626111h38.743958v48.831667h-38.743958z" fill="#1e94d2"/><path d="m27.6874184 35.3211111s-1.9809634-3.7811111-8.2924049-2.49c-6.3114414 1.2911111-8.1541981 7.3777778-7.9699224 10.9283333.1842757 3.5505556 1.0135162 5.6255556 2.6719971 8.0694445 1.6124121 2.4438889.9213783 4.0116667-.3224824 4.4266667 0 0 7.094613 4.9338888 14.4195706.0461111 0 0-1.7966877-.5533334-1.5663431-1.9827778.1842757-1.4294445 2.8102039-3.1816667 4.376547-6.1788889s2.2573769-11.3894444-3.3169619-12.8188889z" fill="#4c3715"/><path d="m11.9318492 67.3222222 3.2248241-4.2422222s.6910337 1.245 1.2438607 4.2422222h9.4901967c.3224824-3.32.7371026-5.1644444.7371026-5.1644444l4.929374 5.1644444h3.5473065c-2.211308-2.8588889-6.4957171-8.4383333-6.6339239-8.6688889-.2303445-.3227777-.506758-1.1527777-1.0135161-1.1066666-1.0595851.0461111-4.1462024-1.8444445-4.1462024-2.8588889.0460689-1.1527778 0-3.0894445 0-3.0894445h-3.9619268v3.0894445c0 1.1527778-1.612412 2.1672222-3.270893 2.7205555-1.658481.5533334-2.5798593 1.1527778-2.5798593 1.1527778l-4.92937397 8.7611111z" fill="#f4d9a6"/><path d="m29.3458993 42.6066667c0 5.7177777-2.718066 10.4211111-8.0159913 10.4211111s-8.200267-4.7494445-8.200267-10.4672222c0-5.7177778 3.0405484-6.3172223 8.2924048-6.3172223 5.2979253 0 7.9238535.6455556 7.9238535 6.3633334z" fill="#f4d89b"/><ellipse cx="18.012946" cy="45.972778" fill="#1bace3" rx="1.474205" ry="1.429444"/><path d="m19.0725311 45.9727778c0 .5533333-.4606891 1.0144444-1.0135161 1.0144444s-1.0135162-.4611111-1.0135162-1.0144444c0-.5533334.4606892-1.0144445 1.0135162-1.0144445.5988959 0 1.0135161.4611111 1.0135161 1.0144445z" fill="#234572"/><ellipse cx="17.367981" cy="45.465556" fill="#fff" rx=".276413" ry=".276667"/><path d="m18.1972217 49.4772222c1.0135162.5994445 2.0731012.9683334 3.1326863.9683334 1.105654 0 2.1191701-.415 3.1787552-.9683334-.3685513.4611111-.8753094.83-1.3820675 1.0605556-.552827.2766666-1.1517229.415-1.7506188.415s-1.2438607-.1383334-1.7966877-.415c-.552827-.2305556-1.0595851-.5994445-1.3820675-1.0605556z" fill="#c52d77"/><path d="m26.259282 38.0416667s-.2303446 1.7983333.7371026 4.4266666c1.105654 2.905 2.2573769 3.9655556 3.3630309 3.2277778 0 0-1.1977918.415-.8753094-.83.4606891-1.7061111 1.3820675-4.565 0-6.5016667-1.1977918-1.7061111-2.4416526-1.4294444-2.4416526-1.4294444s-1.0135161-3.4583333-5.6664766-3.5044444c-6.6799928-.0461112-11.2868844 8.2538888-7.8317157 13.9716666 0 0-1.1517229-4.4266666 1.2438608-4.6572222 2.3495147-.2766667 10.8722641-3.1816667 11.5172289-4.7955556" fill="#5f4118"/><path d="m26.5817644 38.5027778s-.8753094 1.7061111-3.82372 3.1355555c-2.3495147 1.1527778-5.0675808 1.3372223-7.6935089 1.245 0 0-.8753094 1.4755556-.8292405 3.9194445s1.3359985 5.0261111 1.3359985 5.0261111-4.883305-7.2394445-1.059585-13.1416667c4.4686848-6.8705555 11.4250911-3.5044444 12.4846761-1.4755555-.0460689.0461111 0 .6916666-.4146202 1.2911111z" fill="#764d1e"/><path d="m20.0860473 41.4538889s3.5012376-.7377778 5.0675807-3.4122222c0 0-1.0135161 1.1527777-2.5337904 1.7061111 0 0 1.0595851-.8761111 1.2899297-1.3833334 0 0-2.9484106-.0461111-5.2057875 1.5216667 0 0 2.3955836-2.7666667 7.2328198-2.6283333 0 0-.5988959 3.2738889-5.8507523 4.1961111z" fill="#a26628"/><path d="m26.1671441 37.0272222c-.7831715-.2766666-1.612412-.4611111-2.4416525-.6455555-.8292405-.1383334-1.658481-.2305556-2.4877214-.1844445-1.658481.0461111-3.2708931.5072222-4.7450984 1.3372222.5988959-.5994444 1.3359986-1.0605555 2.1652391-1.3833333s1.7045499-.4611111 2.5798593-.5072222c1.7506188 0 3.4551686.4611111 4.9293739 1.3833333z" fill="#a26628"/><path d="m28.7009345 42.2838889c-.2764135-.3227778-.5067581-.7377778-.7371026-1.1066667-.1842757-.415-.3685514-.83-.5067581-1.245-.2303446-.8761111-.5067581-2.6744444-.5067581-2.6744444s1.3820675.3688889 1.9348945 1.3833333c.552827 1.0144445.506758 2.1672222.506758 2.1672222s-.3224824-1.0144444-.7371026-1.7522222c-.4606892-.6916667-.9213783-.83-1.105654-1.0144444 0 0 .1842757 1.0605555.3224824 1.8905555.1842757.8761111.5067581 1.5216667.8292405 2.3516667z" fill="#a26628"/><ellipse cx="16.769085" cy="48.508889" fill="url(#e)" rx="1.335999" ry="1.337222"/><ellipse cx="25.430042" cy="48.508889" fill="url(#f)" rx="1.335999" ry="1.337222"/><path d="m18.565773 60.3594444h5.3900632l-2.2573769 4.2422223z" fill="#c52d77"/><path d="m1.15172289 5.67166667s.09213784-1.42944445-.09213783-2.81277778c-.04606891-.36888889-.13820674-.69166667-.18427566-1.01444445-.04606892-.18444444-.09213783-.32277777-.09213783-.46111111-.04606892-.13833333-.09213783-.27666666-.13820675-.415-.04606891-.13833333-.09213783-.23055555-.13820675-.32277777-.04606891-.09222223-.09213783-.18444445-.13820674-.23055556-.09213784-.13833333-.13820675-.23055556-.13820675-.23055556s.09213783.04611112.18427566.18444445c.04606892.04611111.13820675.13833333.18427567.23055555.04606891.09222223.13820674.18444445.23034457.32277778.04606892.13833334.13820675.27666667.18427567.415.04606891.13833334.09213783.32277778.13820674.46111111.09213784.32277778.09213784.69166667.13820675 1.06055556.13820675 1.42944444-.09213783 2.81277778-.13820675 2.81277778z" fill="#074d6c" transform="translate(13.820675 57.638889)"/><path d="m.41462024 5.25666667s-.13820675-1.33722223.09213783-2.72055556c.04606892-.18444444.04606892-.32277778.09213784-.50722222.04606891-.18444445.09213783-.32277778.13820674-.46111111.04606892-.13833334.13820675-.27666667.18427567-.415.04606891-.13833334.13820674-.23055556.23034457-.36888889.09213784-.09222222.18427567-.18444445.23034458-.27666667.04606892-.09222222.13820675-.13833333.23034458-.18444444.13820675-.09222222.18427566-.13833334.18427566-.13833334v.04611112s-.04606891.09222222-.13820674.18444444c-.04606892.04611111-.09213783.13833333-.13820675.23055556-.04606892.09222222-.09213783.18444444-.18427566.27666666-.04606892.09222222-.09213783.23055556-.18427567.36888889-.04606891.13833333-.13820674.27666667-.13820674.415-.09213783.27666667-.23034458.59944445-.2764135.92222222-.13820674.64555556-.23034458 1.29111111-.27641349 1.79833334 0 .46111111 0 .83-.04606892.83z" fill="#074d6c" transform="translate(26.719971 57.638889)"/><ellipse cx="24.831146" cy="45.972778" fill="#1bace3" rx="1.474205" ry="1.429444"/><path d="m23.7254916 45.9727778c0 .5533333.4606892 1.0144444 1.0135162 1.0144444.5528269 0 1.0135161-.4611111 1.0135161-1.0144444 0-.5533334-.4606892-1.0144445-1.0135161-1.0144445-.552827 0-1.0135162.4611111-1.0135162 1.0144445z" fill="#234572"/><ellipse cx="24.094043" cy="45.465556" fill="#fff" rx=".276413" ry=".276667"/><ellipse cx="21.422046" cy="56.532222" fill="#1bace3" rx=".552827" ry=".553333"/><circle cx="21.718115" cy="56.505556" fill="#fffef1" opacity=".2" r=".25"/><ellipse cx="20.40853" cy="56.44" fill="#1bace3" rx=".460689" ry=".461111"/><circle cx="20.704599" cy="56.459444" fill="#fffef1" opacity=".2" r=".25"/><ellipse cx="19.579289" cy="56.163333" fill="#1bace3" rx=".41462" ry=".415"/><circle cx="19.825358" cy="56.178889" fill="#fffef1" opacity=".2" r=".2"/><ellipse cx="18.980393" cy="55.656111" fill="#1bace3" rx=".368551" ry=".368889"/><circle cx="19.226462" cy="55.717778" fill="#fffef1" opacity=".2" r=".2"/><ellipse cx="22.389493" cy="56.347778" fill="#1bace3" rx=".460689" ry=".461111"/><circle cx="22.547355" cy="56.275" fill="#fffef1" opacity=".2" r=".25"/><ellipse cx="23.218734" cy="56.071111" fill="#1bace3" rx=".41462" ry=".415"/><circle cx="23.280527" cy="55.994444" fill="#fffef1" opacity=".2" r=".2"/><ellipse cx="23.771561" cy="55.563889" fill="#1bace3" rx=".368551" ry=".368889"/><circle cx="23.879423" cy="55.487222" fill="#fffef1" opacity=".2" r=".2"/><path d="m14.9723976 63.3105556s.8292405 1.7522222 1.3359986 3.9655555h10.0890925c.1842757-2.4438889.7371027-4.4266667.7371027-4.4266667l2.8562728 2.8127778 2.4416525-2.3516666c-1.3820675-1.9827778-3.5933754-5.0722223-3.7776511-5.395-.2764135-.5533334-1.6124121-.6916667-2.0731012-.8761112-.9674472-.3688888-1.3359986-.415-2.211308-1.0144444-.6449648 2.3516667-2.9484106 6.9166667-2.9484106 6.9166667s-2.6719971-4.98-2.9023417-6.9627778c-.5988959.5533333-1.1056539.7377778-2.0270323 1.0605555-.4606891.1383334-1.612412.415-2.4877214.7838889s-3.5012376 5.9022223-3.5012376 5.9022223l2.3955836 2.1672222z" fill="#f99e1f"/><path d="m39.94175 42.9294444-24.2322497-22.6405555h3.6394443l20.5928054 18.2138889v-16.0927778l-29.6223129-2.6744444 29.6223129 26.8827777z" fill="#c0e2c8" opacity=".1"/><path d="m4.42261591 5.21055556h33.67637739v42.69888884h-33.67637739zm-4.42261591-.73777778v45.09666662c0 2.3977778 1.98096338 4.3805556 4.42261591 4.3805556h33.67637739c2.4416526 0 4.4226159-1.9366667 4.4226159-4.3805556v-45.09666662c0-2.39777778-1.9809633-4.38055556-4.4226159-4.38055556h-33.67637739c-2.44165253.04611111-4.42261591 1.98277778-4.42261591 4.38055556z" fill="#024252" transform="translate(0 18.905556)"/><path d="m42.5216092 48.7855556v-25.4072223c0-2.3977777-1.9809633-4.3805555-4.4226159-4.3805555h-28.65486557l5.71254557 5.0722222 22.94232.0461111v20.7038889l2.0731012 1.8905556z" fill="#0d4d5f"/><ellipse cx="21.007426" cy="69.766111" fill="#fff" rx="1.70455" ry="1.706111"/><path d="m24.64687 60.636111h36.855133v19.966111h-36.855133z" fill="#1e94d2"/><path d="m47.3127765 64.3711111s-1.1517229-2.2594444-4.8372362-1.5216667c-3.6855132.7838889-4.7450983 4.4266667-4.6529605 6.5477778.1382068 2.1211111.5988959 3.3661111 1.5663432 4.8416667.9674472 1.4294444.552827 2.3977778-.1842757 2.6283333 0 0 4.1001335 2.9511111 8.3845427.0461111 0 0-1.0595851-.3227777-.9213783-1.1988889.1382067-.83 1.6584809-1.8905555 2.5798592-3.6888888.8753094-1.7522223 1.2899297-6.7783334-1.9348944-7.6544445z" fill="#4c3715"/><path d="m39.2507162 82.0777778.7371027-1.1066667s.4146202-.415.7371026 1.3833333h5.5282699c.1842757-1.9827777.4146203-1.9366666.4146203-1.9366666l1.3820674 1.2911111h2.0731012c-1.2899296-1.7061111-2.3034458-3.2277778-2.3955836-3.4122222-.1382067-.1844445-.2764135-.6916667-.5988959-.6916667-.5988959.0461111-2.4416525-1.1066667-2.3955836-1.7061111v-1.8444445h-2.3034458v1.8444445c0 .6916667-.9213783 1.2911111-1.8888255 1.6138889-.9674473.3227778-1.4742053.6916666-1.4742053.6916666l-1.7506188 3.8733334z" fill="#f4d9a6"/><path d="m48.2802237 68.7516667c0 3.4122222-1.5663431 6.225-4.6529605 6.225-3.0866173 0-4.7911672-2.8588889-4.7911672-6.2711111 0-3.4122223 1.7506188-3.7811112 4.8372361-3.7811112 3.0866174.0461112 4.6068916.415 4.6068916 3.8272223z" fill="#f4d89b"/><ellipse cx="41.6463" cy="70.780556" fill="#1bace3" rx=".82924" ry=".83"/><ellipse cx="41.692369" cy="70.780556" fill="#234572" rx=".598896" ry=".599444"/><circle cx="41.343473" cy="70.523333" fill="#fff" r=".25"/><path d="m41.7845066 72.8555556c.5988959.3688888 1.1977918.5994444 1.8427566.5533333.6449648 0 1.2438607-.2305556 1.8427566-.5533333-.2303445.2766666-.506758.5072222-.8292404.6455555s-.6910338.2305556-1.0135162.2766667c-.3685513 0-.7371026-.0922222-1.0135161-.2305556-.3685514-.1844444-.6449649-.415-.8292405-.6916666z" fill="#c52d77"/><path d="m46.483536 66.0311111s-.1382068 1.0605556.4146202 2.6744445c.6449649 1.7522222 1.2899297 2.3977777 1.9348945 1.9366666 0 0-.6910337.2305556-.5067581-.5072222.2764135-1.0144444.7831716-2.7205556 0-3.9194444-.6910337-1.0144445-1.4281364-.83-1.4281364-.83s-.5988959-2.075-3.3169619-2.075c-3.9158578-.0461112-6.587855 4.9338888-4.5608227 8.3461111 0 0-.6449648-2.6283334.7371027-2.8127778 1.3820675-.1844445 6.3114414-1.9366667 6.6799928-2.8588889" fill="#5f4118"/><path d="m46.6678117 66.3077778s-.5067581 1.0144444-2.2573769 1.8905555c-1.3820675.6916667-2.9484106.7838889-4.4686848.7377778 0 0-.5067581.8761111-.4606892 2.3516667.0460689 1.4755555.7831716 2.9972222.7831716 2.9972222s-2.8562728-4.3344444-.5988959-7.8388889c2.5798592-4.1038889 6.6339238-2.075 7.2788886-.8761111-.0460689-.0461111-.0460689.3688889-.2764134.7377778z" fill="#764d1e"/><ellipse cx="40.955266" cy="72.302222" fill="url(#g)" rx=".783172" ry=".783889"/><ellipse cx="45.976778" cy="72.302222" fill="url(#h)" rx=".783172" ry=".783889"/><path d="m41.9687822 79.3572222h3.1787552l-1.3359985 2.5822222z" fill="#c52d77"/><path d="m.73710265 3.68888889s.04606892-.87611111-.09213783-1.66c-.04606891-.18444445-.09213783-.415-.13820675-.59944445 0-.09222222-.04606891-.18444444-.04606891-.27666666s-.04606892-.13833334-.04606892-.23055556c-.04606891-.13833333-.09213783-.27666666-.13820675-.36888889-.04606891-.09222222-.04606891-.13833333-.04606891-.13833333s.04606891.04611111.13820675.09222222c.04606891.04611111.09213783.09222222.13820674.13833334.04606892.04611111.09213784.09222222.13820675.18444444.09213783.13833333.18427566.32277778.23034458.55333333.04606892.18444445.04606892.415.04606892.64555556 0 .83-.13820675 1.66-.18427567 1.66z" fill="#074d6c" transform="translate(39.158578 77.466667)"/><path d="m.46068916 2.95111111s-.09213783-.78388889 0-1.61388889c.04606891-.18444444.04606891-.415.13820675-.59944444.04606891-.18444445.18427566-.36888889.27641349-.46111111.04606892-.04611111.09213783-.09222223.13820675-.13833334.04606891-.04611111.09213783-.09222222.13820674-.09222222.09213784-.04611111.13820675-.04611111.13820675-.04611111v.04611111s-.04606891.04611111-.09213783.13833333c-.04606892.09222223-.09213783.18444445-.13820675.32277778-.04606891.13833334-.09213783.27666667-.18427566.46111111-.04606892.18444445-.13820675.36888889-.18427566.55333334-.18427567.59944444-.18427567 1.42944444-.23034458 1.42944444z" fill="#074d6c" transform="translate(46.529605 77.927778)"/><ellipse cx="45.654296" cy="70.780556" fill="#1bace3" rx=".82924" ry=".83"/><ellipse cx="45.608227" cy="70.780556" fill="#234572" rx=".598896" ry=".599444"/><circle cx="45.259331" cy="70.523333" fill="#fff" r=".25"/><ellipse cx="43.627263" cy="77.097778" fill="#1bace3" rx=".322482" ry=".322778"/><circle cx="43.873332" cy="77.113333" fill="#fffef1" opacity=".2" r=".2"/><ellipse cx="43.074436" cy="77.051667" fill="#1bace3" rx=".276413" ry=".276667"/><circle cx="43.220505" cy="77.013333" fill="#fffef1" opacity=".2" r=".1"/><ellipse cx="42.587334" cy="76.886667" fill="#1bace3" rx=".25" ry=".25"/><circle cx="42.713747" cy="76.875" fill="#fffef1" opacity=".2" r=".1"/><circle cx="42.264851" cy="76.61" fill="#1bace3" r=".25"/><circle cx="42.391265" cy="76.598333" fill="#fffef1" opacity=".2" r=".1"/><ellipse cx="44.226159" cy="76.959444" fill="#1bace3" rx=".276413" ry=".276667"/><circle cx="44.326159" cy="76.921111" fill="#fffef1" opacity=".2" r=".1"/><circle cx="44.706504" cy="76.840556" fill="#1bace3" r=".25"/><circle cx="44.740779" cy="76.736667" fill="#fffef1" opacity=".2" r=".1"/><ellipse cx="45.075055" cy="76.517778" fill="#1bace3" rx=".25" ry=".25"/><circle cx="45.063262" cy="76.46" fill="#fffef1" opacity=".2" r=".1"/><path d="m39.895681 81.1555556s.5067581-.5072223.7831716.83h5.8507523c.1382068-1.4755556.4146202-1.1066667.4146202-1.1066667l1.658481 1.66 1.4281364-1.3833333c-.7831716-1.1988889-2.1191701-3.0433334-2.211308-3.2277778-.1842756-.3227778-.9213783-.415-1.1977918-.5072222-.552827-.2305556-.7831715-.2305556-1.2899296-.5994445-.3685513 1.3833333-1.7045499 4.15-1.7045499 4.15s-1.5663431-2.9972222-1.7045499-4.15c-.3685513.3227778-.6449648.4611111-1.1977918.6455556-.2764135.0922222-.9213783.2305555-1.4281364.4611111-.506758.2305555-2.0270323 3.5505555-2.0270323 3.5505555l1.3820675 1.2911111z" fill="#f99e1f"/><path d="m22.988389 61.2816667v1.6138889 12.865 4.6572222c0 1.9366666.6449648 2.3055555 2.5798592 2.3055555h38.7439582c2.2113079 0 2.6259282-.5994444 2.6259282-2.7666666v-18.1677778c0-2.1672222-.6910338-2.8588889-2.9023417-2.8588889h-18.9803933-19.5332203c-1.9348944.0461111-2.5337903.415-2.5337903 2.3516667zm42.3373335 10.0061111c0 .8761111-.7371026 1.6138889-1.6584809 1.6138889s-1.658481-.7377778-1.658481-1.6138889.7371027-1.6138889 1.658481-1.6138889 1.6584809.7377778 1.6584809 1.6138889zm-5.7125455-9.6833334c.2303446 0 .4606891.1844445.4606891.415v17.6144445c0 .2305555-.1842756.415-.4606891.415h-33.8145842c-.1842756-.0461111-.3224824-.1383333-.3685513-.415v-5.7177778-11.9427778c0-.2305555.1842757-.415.4606892-.415z" fill="#024252"/><path d="m43.3508497 68.1061111s1.9348945-.4611111 2.8102039-1.9827778c0 0-.552827.6455556-1.3820675.9683334 0 0 .5988959-.5072223.6910337-.7838889 0 0-1.612412 0-2.9023416.8761111 0 0 1.3359985-1.6138889 4.0079956-1.5216667.0460689 0-.2764135 1.8905556-3.2248241 2.4438889z" fill="#a26628"/><path d="m46.7138806 65.5238889c-.4606892-.1844445-.9213783-.2766667-1.3359986-.3688889-.4606891-.0922222-.9213783-.1383333-1.3820675-.0922222-.9213783 0-1.7966877.2766666-2.6259282.7838889.3224825-.3227778.7371027-.6455556 1.1977919-.7838889.4606891-.1844445.9213783-.2766667 1.4281363-.2766667.9674473-.0461111 1.9348945.2305556 2.7180661.7377778z" fill="#a26628"/><path d="m48.0038102 68.475c-.1382067-.1844444-.2764135-.415-.4146202-.6455556-.0921379-.2305555-.1842757-.4611111-.2764135-.7377777-.1382068-.5072223-.2764135-1.5216667-.2764135-1.5216667s.7831715.2305556 1.059585.7838889c.3224825.5994444.2764135 1.245.2764135 1.245s-.1842756-.5994445-.4146202-1.0144445-.5067581-.4611111-.5988959-.5994444c0 0 .0921378.5994444.1842757 1.1066667.0921378.5533333.2764134.9222222.4606891 1.3833333z" fill="#a26628"/><g fill="#c0e2c8" opacity=".1" transform="translate(43.304781 59.944444)"><path d="m17.8286704 9.59111111v-9.13l-.0921378-.04611111h.0921378v-.09222222h-9.39805882l-.8753094-.09222222z"/><path d="m17.3679812 12.7266667-13.31391661-11.98888892-3.45516868-.415-.32248242.36888889 17.55225691 15.77000003z"/></g><path d="m64.0818618 58.9761111h-19.0264622-3.4551687l2.9484106 2.6744445h15.0184666c.2303445 0 .4606891.1844444.4606891.415v13.3722222l6.8181996 6.0866666c.0921378-.3688888.1382067-.8761111.1382067-1.5216666v-18.1677778c0-2.2133333-.6910337-2.8588889-2.9023417-2.8588889zm-.4146202 13.9255556c-.9213783 0-1.658481-.7377778-1.658481-1.6138889s.7371027-1.6138889 1.658481-1.6138889 1.6584809.7377778 1.6584809 1.6138889c0 .9222222-.7371026 1.6138889-1.6584809 1.6138889z" fill="#0d4d5f"/></g></g></g></svg>