<svg height="300" viewBox="0 0 335 300" width="335" xmlns="http://www.w3.org/2000/svg" xmlns:xlink="http://www.w3.org/1999/xlink"><mask id="a" fill="#fff"><path d="m0 .13375235h197.423325v264.04790765h-197.423325z" fill="#fff" fill-rule="evenodd"/></mask><mask id="b" fill="#fff"><path d="m.611325 10.2025628c0 5.6101218 4.51935 10.160194 10.09305 10.160194 5.5704 0 10.093875-4.5500722 10.093875-10.160194 0-5.61759872-4.523475-10.16767088-10.093875-10.16767088-5.5737 0-10.09305 4.55007216-10.09305 10.16767088" fill="#fff" fill-rule="evenodd"/></mask><mask id="c" fill="#fff"><path d="m.766425 10.2025628c0 5.6101218 4.5276 10.160194 10.098 10.160194 5.5704 0 10.088925-4.5500722 10.088925-10.160194 0-5.61759872-4.518525-10.16767088-10.088925-10.16767088-5.5704 0-10.098 4.55007216-10.098 10.16767088" fill="#fff" fill-rule="evenodd"/></mask><g fill="none" fill-rule="evenodd"><g transform="translate(117 34)"><path d="m142.38708 21.2166118s-14.832675-28.8423234-61.8882-19.05680212c-47.055525 9.78635202-60.8652 56.14026412-59.331525 82.92230292 1.5345 26.7820384 7.508325 42.6711534 19.795875 61.3258674 12.123375 18.405487 6.8013 30.351815-2.4057 33.442242 0 0 52.682025 37.598533 107.41005.515071 0 0-13.298175-4.119739-11.763675-14.936233 1.533675-10.815664 20.96985-24.206683 32.733525-46.868983 11.7645-22.6623008 16.878675-86.5278016-24.55035-97.3434652" fill="#4c360d"/><path d="m25.182135 264.18166 23.9646-32.275855s5.22225 9.395064 9.318375 32.275855h70.535025c2.2902-25.090612 5.3922-39.143747 5.3922-39.143747l36.741375 39.143747h26.28945c-16.3383-21.661235-48.213-63.971839-49.3911-65.925786-1.586475-2.62354-3.677025-8.706364-7.4283-8.556827-7.915875.316519-30.93255-14.105473-30.7164-21.836525.24915-8.904916 0-23.463153 0-23.463153h-29.652975v23.463153c0 8.912392-11.847825 16.468985-24.295425 20.649369-12.455025 4.177061-19.0443 8.921531-19.0443 8.921531l-36.894825 66.748238z" fill="#f3d9a6" mask="url(#a)"/><path d="m154.851345 76.7053941c0 43.4711749-20.3049 79.0941609-59.67225 79.0941609-39.36405 0-61.2249-36.001812-61.2249-79.4729875 0-43.4794827 22.524975-47.8991256 61.889025-47.8991256 39.36735 0 59.008125 4.7984694 59.008125 48.2779522" fill="#f4d89a"/><path d="m81.157725 102.119836c0 5.970672-4.865025 10.813171-10.857825 10.813171-5.99775 0-10.852875-4.842499-10.852875-10.813171 0-5.9706718 4.855125-10.8115099 10.852875-10.8115099 5.9928 0 10.857825 4.8408381 10.857825 10.8115099" fill="#00ade9"/><path d="m78.364935 102.117427c0 4.166261-3.3594 7.550777-7.4943 7.550777-4.13985 0-7.4943-3.384516-7.4943-7.550777 0-4.1596153 3.35445-7.5441313 7.4943-7.5441313 4.1349 0 7.4943 3.384516 7.4943 7.5441313" fill="#234471"/><path d="m67.7126175 98.2072058c0 1.2037711-.972675 2.1882212-2.165625 2.1882212-1.1979 0-2.170575-.9844501-2.170575-2.1882212 0-1.2037712.972675-2.1782526 2.170575-2.1782526 1.19295 0 2.165625.9744814 2.165625 2.1782526" fill="#fff"/><path d="m95.0986575 127.835126c8.1080995 0 16.9950925.344078 22.8200435 2.334216-4.072021-.002443-18.1926185 1.766415-22.7796185 1.838691-4.5837.008308-19.2257524-1.941056-23.0919634-1.898546 5.9714356-1.853081 14.9921134-2.169685 23.0515384-2.274361z" fill="#c42c76"/><path d="m131.852655 41.8955559s-1.817475 13.6053554 5.54235 33.7379917c8.079225 22.1031988 16.774725 30.2579384 24.9579 24.4201884 0 0-8.839875 3.03892-6.39375-6.4375588 3.32475-12.8759483 10.16565-34.6310587-.084975-49.5299074-8.818425-12.8186258-18.34635-10.765818-18.34635-10.765818s-7.671675-26.2677984-42.3489-26.60674846c-49.811025-.48682532-83.985 62.66006816-58.1559 106.18108866 0 0-8.4348-33.4472255 9.207-35.5382483 17.637675-2.090192 80.788125-24.310528 85.622625-36.5069146" fill="#5f3f12"/><path d="m134.16249 45.3784338s-6.5703 12.8709637-28.601925 23.7373036c-17.5098 8.6357496-37.700025 10.0247802-57.135375 9.509709 0 0-6.6495 11.3307348-6.138 29.8724656.5115 18.541731 9.824925 38.131881 9.824925 38.131881s-36.31485-55.1092909-7.92825-99.6612847c33.1947-52.09612477 84.904875-26.5245032 92.833125-11.0731992 0 0 .126225 4.9862212-2.8545 9.4831247" fill="#754b1d"/><g fill="#a26527"><path d="m85.8040425 67.8047983s26.1294005-5.7496895 37.5812255-25.8648799c0 0-7.524 8.6232882-18.792675 12.93244 0 0 7.9926-6.7557398 9.52215-10.3670533 0 0-21.8253755-.2151668-38.6834255 11.5459016 0 0 17.713575-20.9010892 53.8642505-20.1168518 0 0-4.3197 24.8147992-43.4915255 31.8704434"/><path d="m130.945897 34.3651324c-6.001875-2.1167763-12.09945-3.5847291-18.197025-4.7336701-6.10995-1.062542-12.263625-1.6864427-18.3859495-1.4995217-12.286725.1935671-24.262425 3.7101739-35.2836 10.1543787 4.539975-4.498565 10.037775-8.1647086 16.111425-10.5224053 6.0423-2.439942 12.567225-3.6254364 19.07235-3.8065421 12.9953995-.1869209 26.0056495 3.3562702 36.6827995 10.4077605"/><path d="m150.05826 73.9853199c-2.1021-2.61274-3.79995-5.5287074-5.3625-8.5103048-1.5345-3.007351-2.769525-6.1767001-3.76035-9.4440789-1.8777-6.5139887-3.91875-20.1351286-3.91875-20.1351286s10.26465 2.7664306 14.3484 10.5431743c4.082925 7.775913 3.827175 16.5321228 3.827175 16.5321228s-2.233275-7.8490199-5.6265-13.1343146c-3.3924-5.284464-6.7485-6.208269-8.183175-7.7252367 0 0 1.28205 8.1223399 2.5575 14.4211618 1.29855 6.3112832 3.68445 11.2343666 6.1182 17.4526047"/></g><path d="m52.8159953 89.4106865s2.0283203-4.721997 8.6054687-5.9386539 11.296875-1.5850743 11.296875-1.5850743-3.2430137-.8517567-6.7598627-1.2303755c-2.9224035-.3146216-6.0338942-.3025347-7.6307623.7964834-3.5185547 2.421587-5.5117187 7.9576203-5.5117187 7.9576203z" fill="#754b1d" transform="matrix(.96592583 -.25881905 .25881905 .96592583 -19.846581 19.139761)"/><path d="m114.815995 87.4093103s2.028321-4.721997 8.605469-5.9386539 11.296875-1.5850743 11.296875-1.5850743-3.243014-.8517567-6.759863-1.2303755c-2.922403-.3146216-6.033894-.3025347-7.630762.7964833-3.518555 2.4215871-5.511719 7.9576204-5.511719 7.9576204z" fill="#754b1d" transform="matrix(-.96592583 -.25881905 -.25881905 .96592583 266.750322 35.118346)"/></g><path d="m.611325 10.2025628c0 5.6101218 4.51935 10.160194 10.09305 10.160194 5.5704 0 10.093875-4.5500722 10.093875-10.160194 0-5.61759872-4.523475-10.16767088-10.093875-10.16767088-5.5737 0-10.09305 4.55007216-10.09305 10.16767088" mask="url(#b)" transform="translate(167.325 145.321831)"/><path d="m.766425 10.2025628c0 5.6101218 4.5276 10.160194 10.098 10.160194 5.5704 0 10.088925-4.5500722 10.088925-10.160194 0-5.61759872-4.518525-10.16767088-10.088925-10.16767088-5.5704 0-10.098 4.55007216-10.098 10.16767088" mask="url(#c)" transform="translate(231.675 145.321831)"/><g transform="translate(131.85 124.552833)"><path d="m59.5294425 120.750957h40.40685l-16.878675 32.447821z" fill="#c42c76"/><path d="m32.9040525 143.409685s.281325-2.684186.40755-6.726664c.126225-4.039154.117975-9.441586-.451275-14.794172-.14025-1.337524-.32835-2.668401-.53295-3.974356-.231-1.30097-.456225-2.581171-.740025-3.805711-.278025-1.225371-.603075-2.395081-.9405-3.493346-.16665-.549963-.332475-1.084142-.527175-1.588413-.180675-.509256-.362175-.999404-.570075-1.45466-.381975-.926298-.791175-1.750412-1.185525-2.461542-.20625-.350581-.400125-.678731-.578325-.982789-.19965-.290766-.3828-.55744-.5478-.79836-.314325-.497626-.6468-.819961-.83655-1.071681-.2013-.242582-.30855-.371349-.30855-.371349l.040425-.041538s.11715.121291.337425.348088c.208725.235936.570075.538332.924 1.013527.185625.231782.391875.487656.61545.766792.197175.298242.410025.621408.6369.966173.4323.703654.90915 1.512814 1.32165 2.444096.2244.45858.42405.950389.622875 1.462138.213675.507594.39765 1.044265.583275 1.597551.386925 1.102418.682275 2.298713.97185 3.536545.2838 1.239494.52305 2.531325.71775 3.850572.180675 1.320909.342375 2.665078.4554 4.013401.482625 5.391632.4191 10.805695.193875 14.848173-.213675 4.04497-.551925 6.724171-.551925 6.724171z" fill="#064c6c"/><path d="m123.605295 139.980806s-.165-2.554587-.0825-6.392698c.066825-3.835618.434775-8.958915 1.391775-14.001628.24585-1.258601.513975-2.513879.834075-3.736758.314325-1.22454.675675-2.417511 1.091475-3.549837.193875-.570732.41415-1.121526.636075-1.658197.20625-.543317.454575-1.055065.6963-1.55269.48675-.99442 1.000725-1.907425 1.525425-2.718247.2442-.417041.52965-.783406.791175-1.13731.2541-.358888.513975-.684546.77715-.976143.492525-.610608.99-1.079988 1.39755-1.463799.3993-.39378.77055-.638854.99495-.834914.233475-.187751.357225-.287443.357225-.287443l.0363.045692s-.116325.109661-.332475.314858c-.2079.213506-.553575.483503-.916575.904698-.367125.416211-.825.906359-1.279575 1.53026-.243375.299073-.480975.633039-.71115.999404-.236775.36138-.495.733561-.725175 1.148941-.49005.810821-.9669 1.722996-1.41405 2.714093-.443025.991927-.9042 2.043669-1.292775 3.167687-.413325 1.114049-.759 2.29539-1.10715 3.496669-.342375 1.20294-.63525 2.440772-.906675 3.685251-1.038675 4.988713-1.47675 10.092071-1.64175 13.915229-.169125 3.828141-.061875 6.383559-.061875 6.383559z" fill="#064c6c"/><path d="m95.4032475 11.5670029c0 5.9706716 4.8650255 10.8131713 10.8578255 10.8131713 5.99775 0 10.852875-4.8424997 10.852875-10.8131713 0-5.97067167-4.855125-10.81150981-10.852875-10.81150981-5.9928 0-10.8578255 4.84083814-10.8578255 10.81150981" fill="#00ade9"/><path d="m98.1960375 11.5645937c0 4.1662611 3.3593995 7.550777 7.4942995 7.550777 4.13985 0 7.4943-3.3845159 7.4943-7.550777 0-4.15961501-3.35445-7.54413099-7.4943-7.54413099-4.1349 0-7.4942995 3.38451598-7.4942995 7.54413099" fill="#234471"/><path d="m98.6202525 7.65437282c0 1.20377114.972675 2.18822167 2.1656255 2.18822167 1.1979 0 2.170575-.98445053 2.170575-2.18822167 0-1.20377115-.972675-2.17825255-2.170575-2.17825255-1.1929505 0-2.1656255.9744814-2.1656255 2.17825255" fill="#fff"/><path d="m84.76215 91.8225665c0 2.2280981-1.79355 4.0341702-4.0062 4.0341702-2.213475 0-4.007025-1.8060721-4.007025-4.0341702 0-2.2280982 1.79355-4.0341703 4.007025-4.0341703 2.21265 0 4.0062 1.8060721 4.0062 4.0341703" fill="#00ade9"/><path d="m83.236065 90.8783247c0 .5732244-.462 1.0384499-1.03125 1.0384499s-1.03125-.4652255-1.03125-1.0384499c0-.5732243.462-1.0384499 1.03125-1.0384499s1.03125.4652256 1.03125 1.0384499" fill="#fffeef"/><path d="m76.749585 91.2216778c0 1.8966249-1.527075 3.4343616-3.41055 3.4343616s-3.41055-1.5377367-3.41055-3.4343616 1.527075-3.4343616 3.41055-3.4343616 3.41055 1.5377367 3.41055 3.4343616" fill="#00ade9"/><path d="m75.4506225 90.4179176c0 .4884868-.3927.8839285-.8778.8839285s-.8778-.3954417-.8778-.8839285c0-.4884869.3927-.8839286.8778-.8839286s.8778.3954417.8778.8839286" fill="#fffeef"/><path d="m70.2828225 89.1615593c0 1.7138578-1.3794 3.1028884-3.081375 3.1028884s-3.081375-1.3890306-3.081375-3.1028884c0-1.7138577 1.3794-3.1028883 3.081375-3.1028883s3.081375 1.3890306 3.081375 3.1028883" fill="#00ade9"/><path d="m69.1091775 88.435309c0 .4411335-.35475.7983603-.792825.7983603s-.79365-.3572268-.79365-.7983603c0-.4411336.355575-.7983603.79365-.7983603s.792825.3572267.792825.7983603" fill="#fffeef"/><path d="m65.5394025 85.2986918c0 1.4937063-1.202025 2.7041236-2.685375 2.7041236s-2.685375-1.2104173-2.685375-2.7041236c0-1.4937064 1.202025-2.7041236 2.685375-2.7041236s2.685375 1.2104172 2.685375 2.7041236" fill="#00ade9"/><path d="m64.5165675 84.6658188c0 .3846419-.309375.6961769-.69135.6961769s-.69135-.311535-.69135-.6961769c0-.3846418.309375-.6961768.69135-.6961768s.69135.311535.69135.6961768" fill="#fffeef"/><path d="m84.6341925 90.4491541c0 1.896625 1.527075 3.4343616 3.41055 3.4343616s3.41055-1.5377366 3.41055-3.4343616c0-1.8966249-1.527075-3.4343615-3.41055-3.4343615s-3.41055 1.5377366-3.41055 3.4343615" fill="#00ade9"/><path d="m87.63513 88.9040237c0 .4884869.3927.8839286.8778.8839286s.8778-.3954417.8778-.8839286c0-.4884868-.3927-.8839285-.8778-.8839285s-.8778.3954417-.8778.8839285" fill="#fffeef"/><path d="m91.100955 88.3889526c0 1.7138577 1.3794 3.1028883 3.081375 3.1028883s3.081375-1.3890306 3.081375-3.1028883c0-1.7138578-1.3794-3.1028884-3.081375-3.1028884s-3.081375 1.3890306-3.081375 3.1028884" fill="#00ade9"/><path d="m93.2976 86.8043611c0 .4411335.35475.7983603.792825.7983603s.79365-.3572268.79365-.7983603c0-.4411336-.355575-.7983603-.79365-.7983603s-.792825.3572267-.792825.7983603" fill="#fffeef"/><path d="m95.844375 84.526085c0 1.4937064 1.202025 2.7041236 2.685375 2.7041236s2.685375-1.2104172 2.685375-2.7041236c0-1.4937063-1.202025-2.7041236-2.685375-2.7041236s-2.685375 1.2104173-2.685375 2.7041236" fill="#00ade9"/><path d="m97.5492375 83.2065059c0 .3846419.309375.6961769.69135.6961769s.69135-.311535.69135-.6961769c0-.3846418-.309375-.6961768-.69135-.6961768s-.69135.311535-.69135.6961768" fill="#fffeef"/><path d="m32.932845 143.412925s6.170175 13.204098 10.10295 30.215569h74.9859c1.4751-18.547546 5.612475-33.6491 5.612475-33.6491l21.216525 21.242531 18.337275-17.809c-10.2399-15.1838-26.862825-38.674368-28.13085-41.032064-2.21595-4.1205696-11.997975-5.3716941-15.51495-6.6959254-7.08345-2.6650779-9.8439-3.0920885-16.30035-7.6097611-4.840275 17.7392165-21.889725 52.5904275-21.889725 52.5904275s-19.7769-37.941638-21.569625-52.7333182c-4.62165 4.1845378-8.17245 5.7563356-15.2559 8.0965864-3.510375 1.1597408-11.93445 3.0904269-18.413175 5.8369188-6.478725 2.747324-25.9149 44.980666-25.9149 44.980666l17.7309 16.481447z" fill="#f99d1c"/></g><path d="m52.6664145 134.477472v-21.794526c0-9.240879 1.5692059-16.7381953 3.8358365-23.0150186s5.2306861-11.158797 7.8460292-15.5177021c2.4409868-4.0101927 4.0101926-7.3229606 4.5332612-9.5895912.1743563-1.2204934 0-3.1384117-.6974248-4.8819737-.871781-1.743562-2.4409868-3.1384117-5.0563299-3.1384117-3.3127678 0-5.5793985 2.0922745-7.4973167 4.7076175-1.9179183 2.7896993-3.1384117 6.1024671-3.6614803 7.671673l-15.1689897-7.1486044c.871781-2.7896992 3.8358365-8.1947415 8.1947416-13.0767152 4.1845489-4.7076175 10.287016-8.7178102 18.4817575-8.543454 9.7639474.1743562 15.6920584 4.5332613 18.83047 9.7639474 3.1384117 5.2306861 3.8358365 11.158797 3.8358365 14.6459211 0 7.1486043-3.1384117 12.3792904-6.7998919 18.6561138-1.0461373 1.743562-2.0922745 3.6614802-3.3127679 5.5793985-2.4409869 4.1845489-4.7076175 9.0665226-6.1024671 14.6459206-.6974248 2.964056-1.0461373 5.928111-1.0461373 9.240879v21.794526zm-1.0461372 15.168989h18.3074014v19.353539h-18.3074014z" fill="#002f3e"/></g></svg>