<?xml version="1.0" encoding="UTF-8" standalone="no"?>
<svg width="335px" height="300px" viewBox="0 0 335 300" version="1.1" xmlns="http://www.w3.org/2000/svg" xmlns:xlink="http://www.w3.org/1999/xlink">
    <!-- Generator: Sketch 3.8.3 (29802) - http://www.bohemiancoding.com/sketch -->
    <title>gc-404</title>
    <desc>Created with Sketch.</desc>
    <defs>
        <polygon id="path-1" points="0 0.13375235 197.423325 0.13375235 197.423325 264.18166 0 264.18166"></polygon>
        <path d="M0.611325,10.2025628 C0.611325,15.8126846 5.130675,20.3627568 10.704375,20.3627568 L10.704375,20.3627568 C16.274775,20.3627568 20.79825,15.8126846 20.79825,10.2025628 L20.79825,10.2025628 C20.79825,4.58496408 16.274775,0.0348919173 10.704375,0.0348919173 L10.704375,0.0348919173 C5.130675,0.0348919173 0.611325,4.58496408 0.611325,10.2025628" id="path-3"></path>
        <path d="M0.766425,10.2025628 C0.766425,15.8126846 5.294025,20.3627568 10.864425,20.3627568 L10.864425,20.3627568 C16.434825,20.3627568 20.95335,15.8126846 20.95335,10.2025628 L20.95335,10.2025628 C20.95335,4.58496408 16.434825,0.0348919173 10.864425,0.0348919173 L10.864425,0.0348919173 C5.294025,0.0348919173 0.766425,4.58496408 0.766425,10.2025628" id="path-5"></path>
    </defs>
    <g id="Symbols" stroke="none" stroke-width="1" fill="none" fill-rule="evenodd">
        <g id="gc-404">
            <g id="Page-1" transform="translate(117.000000, 34.000000)">
                <g id="Group-26">
                    <path d="M142.38708,21.2166118 C142.38708,21.2166118 127.554405,-7.6257116 80.49888,2.15980968 C33.443355,11.9461617 19.63368,58.3000738 21.167355,85.0821126 C22.701855,111.864151 28.67568,127.753266 40.96323,146.40798 C53.086605,164.813467 47.76453,176.759795 38.55753,179.850222 C38.55753,179.850222 91.239555,217.448755 145.96758,180.365293 C145.96758,180.365293 132.669405,176.245554 134.203905,165.42906 C135.73758,154.613396 155.173755,141.222377 166.93743,118.560077 C178.70193,95.8977762 183.816105,32.0322754 142.38708,21.2166118" id="Fill-1" fill="#4C360D"></path>
                    <g id="Group-5">
                        <mask id="mask-2" fill="white">
                            <use xlink:href="#path-1"></use>
                        </mask>
                        <g id="Clip-4"></g>
                        <path d="M25.182135,264.18166 L49.146735,231.905805 C49.146735,231.905805 54.368985,241.300869 58.46511,264.18166 L129.000135,264.18166 C131.290335,239.091048 134.392335,225.037913 134.392335,225.037913 L171.13371,264.18166 L197.42316,264.18166 C181.08486,242.520425 149.21016,200.209821 148.03206,198.255874 C146.445585,195.632334 144.355035,189.54951 140.60376,189.699047 C132.687885,190.015566 109.67121,175.593574 109.88736,167.862522 C110.13651,158.957606 109.88736,144.399369 109.88736,144.399369 L80.234385,144.399369 L80.234385,167.862522 C80.234385,176.774914 68.38656,184.331507 55.93896,188.511891 C43.483935,192.688952 36.89466,197.433422 36.89466,197.433422 L-0.000164999999,264.18166 L25.182135,264.18166 Z" id="Fill-3" fill="#F3D9A6" mask="url(#mask-2)"></path>
                    </g>
                    <path d="M154.851345,76.7053941 C154.851345,120.176569 134.546445,155.799555 95.179095,155.799555 C55.815045,155.799555 33.954195,119.797743 33.954195,76.3265675 C33.954195,32.8470848 56.47917,28.4274419 95.84322,28.4274419 C135.21057,28.4274419 154.851345,33.2259113 154.851345,76.7053941" id="Fill-6" fill="#F4D89A"></path>
                    <path d="M81.157725,102.119836 C81.157725,108.090508 76.2927,112.933007 70.2999,112.933007 C64.30215,112.933007 59.447025,108.090508 59.447025,102.119836 C59.447025,96.1491642 64.30215,91.3083261 70.2999,91.3083261 C76.2927,91.3083261 81.157725,96.1491642 81.157725,102.119836" id="Fill-8" fill="#00ADE9"></path>
                    <path d="M78.364935,102.117427 C78.364935,106.283688 75.005535,109.668204 70.870635,109.668204 C66.730785,109.668204 63.376335,106.283688 63.376335,102.117427 C63.376335,97.9578117 66.730785,94.5732957 70.870635,94.5732957 C75.005535,94.5732957 78.364935,97.9578117 78.364935,102.117427" id="Fill-10" fill="#234471"></path>
                    <path d="M67.7126175,98.2072058 C67.7126175,99.4109769 66.7399425,100.395427 65.5469925,100.395427 C64.3490925,100.395427 63.3764175,99.4109769 63.3764175,98.2072058 C63.3764175,97.0034346 64.3490925,96.0289532 65.5469925,96.0289532 C66.7399425,96.0289532 67.7126175,97.0034346 67.7126175,98.2072058" id="Fill-12" fill="#FFFFFF"></path>
                    <path d="M95.0986575,127.835126 C103.206757,127.835126 112.09375,128.179204 117.918701,130.169342 C113.84668,130.166899 99.7260825,131.935757 95.1390825,132.008033 C90.5553825,132.016341 75.9133301,130.066977 72.0471191,130.109487 C78.0185547,128.256406 87.0392325,127.939802 95.0986575,127.835126 Z" id="Fill-14" fill="#C42C76"></path>
                    <path d="M131.852655,41.8955559 C131.852655,41.8955559 130.03518,55.5009113 137.395005,75.6335476 C145.47423,97.7367464 154.16973,105.891486 162.352905,100.053736 C162.352905,100.053736 153.51303,103.092656 155.959155,93.6161772 C159.283905,80.7402289 166.124805,58.9851185 155.87418,44.0862698 C147.055755,31.267644 137.52783,33.3204518 137.52783,33.3204518 C137.52783,33.3204518 129.856155,7.0526534 95.17893,6.71370334 C45.367905,6.22687802 11.19393,69.3737715 37.02303,112.894792 C37.02303,112.894792 28.58823,79.4475665 46.23003,77.3565437 C63.867705,75.2663517 127.018155,53.0460157 131.852655,40.8496291" id="Fill-16" fill="#5F3F12"></path>
                    <path d="M134.16249,45.3784338 C134.16249,45.3784338 127.59219,58.2493975 105.560565,69.1157374 C88.050765,77.751487 67.86054,79.1405176 48.42519,78.6254464 C48.42519,78.6254464 41.77569,89.9561812 42.28719,108.497912 C42.79869,127.039643 52.112115,146.629793 52.112115,146.629793 C52.112115,146.629793 15.797265,91.5205021 44.183865,46.9685083 C77.378565,-5.12761647 129.08874,20.4440051 137.01699,35.8953091 C137.01699,35.8953091 137.143215,40.8815303 134.16249,45.3784338" id="Fill-18" fill="#754B1D"></path>
                    <path d="M85.8040425,67.8047983 C85.8040425,67.8047983 111.933443,62.0551088 123.385268,41.9399184 C123.385268,41.9399184 115.861268,50.5632066 104.592593,54.8723584 C104.592593,54.8723584 112.585193,48.1166186 114.114743,44.5053051 C114.114743,44.5053051 92.2893675,44.2901383 75.4313175,56.0512067 C75.4313175,56.0512067 93.1448925,35.1501175 129.295568,35.9343549 C129.295568,35.9343549 124.975868,60.7491541 85.8040425,67.8047983" id="Fill-20" fill="#A26527"></path>
                    <path d="M130.945897,34.3651324 C124.944022,32.2483561 118.846447,30.7804033 112.748872,29.6314623 C106.638922,28.5689203 100.485247,27.9450196 94.3629225,28.1319406 C82.0761975,28.3255077 70.1004975,31.8421145 59.0793225,38.2863193 C63.6192975,33.7877543 69.1170975,30.1216107 75.1907475,27.763914 C81.2330475,25.323972 87.7579725,24.1384776 94.2630975,23.9573719 C107.258497,23.770451 120.268747,27.3136421 130.945897,34.3651324" id="Fill-22" fill="#A26527"></path>
                    <path d="M150.05826,73.9853199 C147.95616,71.3725799 146.25831,68.4566125 144.69576,65.4750151 C143.16126,62.4676641 141.926235,59.298315 140.93541,56.0309362 C139.05771,49.5169475 137.01666,35.8958076 137.01666,35.8958076 C137.01666,35.8958076 147.28131,38.6622382 151.36506,46.4389819 C155.447985,54.2148949 155.192235,62.9711047 155.192235,62.9711047 C155.192235,62.9711047 152.95896,55.1220848 149.565735,49.8367901 C146.173335,44.5523261 142.817235,43.6285211 141.38256,42.1115534 C141.38256,42.1115534 142.66461,50.2338933 143.94006,56.5327152 C145.23861,62.8439984 147.62451,67.7670818 150.05826,73.9853199" id="Fill-24" fill="#A26527"></path>
                    <path d="M52.8159953,89.4106865 C52.8159953,89.4106865 54.8443156,84.6886895 61.421464,83.4720326 C67.9986124,82.2553757 72.718339,81.8869583 72.718339,81.8869583 C72.718339,81.8869583 69.4753253,81.0352016 65.9584763,80.6565828 C63.0360728,80.3419612 59.9245821,80.3540481 58.327714,81.4530662 C54.8091593,83.8746532 52.8159953,89.4106865 52.8159953,89.4106865 Z" id="Path-173" fill="#754B1D" transform="translate(62.767167, 84.944755) rotate(-15.000000) translate(-62.767167, -84.944755) "></path>
                    <path d="M114.815995,87.4093103 C114.815995,87.4093103 116.844316,82.6873133 123.421464,81.4706564 C129.998612,80.2539995 134.718339,79.8855821 134.718339,79.8855821 C134.718339,79.8855821 131.475325,79.0338254 127.958476,78.6552066 C125.036073,78.340585 121.924582,78.3526719 120.327714,79.4516899 C116.809159,81.873277 114.815995,87.4093103 114.815995,87.4093103 Z" id="Path-173" fill="#754B1D" transform="translate(124.767167, 82.943379) scale(-1, 1) rotate(-15.000000) translate(-124.767167, -82.943379) "></path>
                </g>
                <g id="Group-29" transform="translate(50.325000, 111.321831)">
                    <mask id="mask-4" fill="white">
                        <use xlink:href="#path-3"></use>
                    </mask>
                    <g id="Clip-28"></g>
                    <path d="M0.611325,10.2025628 C0.611325,15.8126846 5.130675,20.3627568 10.704375,20.3627568 L10.704375,20.3627568 C16.274775,20.3627568 20.79825,15.8126846 20.79825,10.2025628 L20.79825,10.2025628 C20.79825,4.58496408 16.274775,0.0348919173 10.704375,0.0348919173 L10.704375,0.0348919173 C5.130675,0.0348919173 0.611325,4.58496408 0.611325,10.2025628" id="Fill-27" mask="url(#mask-4)"></path>
                </g>
                <g id="Group-32" transform="translate(114.675000, 111.321831)">
                    <mask id="mask-6" fill="white">
                        <use xlink:href="#path-5"></use>
                    </mask>
                    <g id="Clip-31"></g>
                    <path d="M0.766425,10.2025628 C0.766425,15.8126846 5.294025,20.3627568 10.864425,20.3627568 L10.864425,20.3627568 C16.434825,20.3627568 20.95335,15.8126846 20.95335,10.2025628 L20.95335,10.2025628 C20.95335,4.58496408 16.434825,0.0348919173 10.864425,0.0348919173 L10.864425,0.0348919173 C5.294025,0.0348919173 0.766425,4.58496408 0.766425,10.2025628" id="Fill-30" mask="url(#mask-6)"></path>
                </g>
                <g id="Group-75" transform="translate(14.850000, 90.552833)">
                    <polygon id="Fill-33" fill="#C42C76" points="59.5294425 120.750957 99.9362925 120.750957 83.0576175 153.198778"></polygon>
                    <path d="M32.9040525,143.409685 C32.9040525,143.409685 33.1853775,140.725499 33.3116025,136.683021 C33.4378275,132.643867 33.4295775,127.241435 32.8603275,121.888849 C32.7200775,120.551325 32.5319775,119.220448 32.3273775,117.914493 C32.0963775,116.613523 31.8711525,115.333322 31.5873525,114.108782 C31.3093275,112.883411 30.9842775,111.713701 30.6468525,110.615436 C30.4802025,110.065473 30.3143775,109.531294 30.1196775,109.027023 C29.9390025,108.517767 29.7575025,108.027619 29.5496025,107.572363 C29.1676275,106.646065 28.7584275,105.821951 28.3640775,105.110821 C28.1578275,104.76024 27.9639525,104.43209 27.7857525,104.128032 C27.5861025,103.837266 27.4029525,103.570592 27.2379525,103.329672 C26.9236275,102.832046 26.5911525,102.509711 26.4014025,102.257991 C26.2001025,102.015409 26.0928525,101.886642 26.0928525,101.886642 L26.1332775,101.845104 C26.1332775,101.845104 26.2504275,101.966395 26.4707025,102.193192 C26.6794275,102.429128 27.0407775,102.731524 27.3947025,103.206719 C27.5803275,103.438501 27.7865775,103.694375 28.0101525,103.973511 C28.2073275,104.271753 28.4201775,104.594919 28.6470525,104.939684 C29.0793525,105.643338 29.5562025,106.452498 29.9687025,107.38378 C30.1931025,107.84236 30.3927525,108.334169 30.5915775,108.845918 C30.8052525,109.353512 30.9892275,109.890183 31.1748525,110.443469 C31.5617775,111.545887 31.8571275,112.742182 32.1467025,113.980014 C32.4305025,115.219508 32.6697525,116.511339 32.8644525,117.830586 C33.0451275,119.151495 33.2068275,120.495664 33.3198525,121.843987 C33.8024775,127.235619 33.7389525,132.649682 33.5137275,136.69216 C33.3000525,140.73713 32.9618025,143.416331 32.9618025,143.416331 L32.9040525,143.409685 Z" id="Fill-35" fill="#064C6C"></path>
                    <path d="M123.605295,139.980806 C123.605295,139.980806 123.440295,137.426219 123.522795,133.588108 C123.58962,129.75249 123.95757,124.629193 124.91457,119.58648 C125.16042,118.327879 125.428545,117.072601 125.748645,115.849722 C126.06297,114.625182 126.42432,113.432211 126.84012,112.299885 C127.033995,111.729153 127.25427,111.178359 127.476195,110.641688 C127.682445,110.098371 127.93077,109.586623 128.172495,109.088998 C128.659245,108.094578 129.17322,107.181573 129.69792,106.370751 C129.94212,105.95371 130.22757,105.587345 130.489095,105.233441 C130.743195,104.874553 131.00307,104.548895 131.266245,104.257298 C131.75877,103.64669 132.256245,103.17731 132.663795,102.793499 C133.063095,102.399719 133.434345,102.154645 133.658745,101.958585 C133.89222,101.770834 134.01597,101.671142 134.01597,101.671142 L134.05227,101.716834 C134.05227,101.716834 133.935945,101.826495 133.719795,102.031692 C133.511895,102.245198 133.16622,102.515195 132.80322,102.93639 C132.436095,103.352601 131.97822,103.842749 131.523645,104.46665 C131.28027,104.765723 131.04267,105.099689 130.812495,105.466054 C130.57572,105.827434 130.317495,106.199615 130.08732,106.614995 C129.59727,107.425816 129.12042,108.337991 128.67327,109.329088 C128.230245,110.321015 127.76907,111.372757 127.380495,112.496775 C126.96717,113.610824 126.621495,114.792165 126.273345,115.993444 C125.93097,117.196384 125.638095,118.434216 125.36667,119.678695 C124.327995,124.667408 123.88992,129.770766 123.72492,133.593924 C123.555795,137.422065 123.663045,139.977483 123.663045,139.977483 L123.605295,139.980806 Z" id="Fill-37" fill="#064C6C"></path>
                    <path d="M95.4032475,11.5670029 C95.4032475,17.5376745 100.268273,22.3801742 106.261073,22.3801742 C112.258823,22.3801742 117.113948,17.5376745 117.113948,11.5670029 C117.113948,5.59633123 112.258823,0.755493085 106.261073,0.755493085 C100.268273,0.755493085 95.4032475,5.59633123 95.4032475,11.5670029" id="Fill-39" fill="#00ADE9"></path>
                    <path d="M98.1960375,11.5645937 C98.1960375,15.7308548 101.555437,19.1153707 105.690337,19.1153707 C109.830187,19.1153707 113.184637,15.7308548 113.184637,11.5645937 C113.184637,7.40497869 109.830187,4.02046271 105.690337,4.02046271 C101.555437,4.02046271 98.1960375,7.40497869 98.1960375,11.5645937" id="Fill-41" fill="#234471"></path>
                    <path d="M98.6202525,7.65437282 C98.6202525,8.85814396 99.5929275,9.84259449 100.785878,9.84259449 C101.983778,9.84259449 102.956453,8.85814396 102.956453,7.65437282 C102.956453,6.45060167 101.983778,5.47612027 100.785878,5.47612027 C99.5929275,5.47612027 98.6202525,6.45060167 98.6202525,7.65437282" id="Fill-43" fill="#FFFFFF"></path>
                    <path d="M84.76215,91.8225665 C84.76215,94.0506646 82.9686,95.8567367 80.75595,95.8567367 C78.542475,95.8567367 76.748925,94.0506646 76.748925,91.8225665 C76.748925,89.5944683 78.542475,87.7883962 80.75595,87.7883962 C82.9686,87.7883962 84.76215,89.5944683 84.76215,91.8225665" id="Fill-45" fill="#00ADE9"></path>
                    <path d="M83.236065,90.8783247 C83.236065,91.4515491 82.774065,91.9167746 82.204815,91.9167746 C81.635565,91.9167746 81.173565,91.4515491 81.173565,90.8783247 C81.173565,90.3051004 81.635565,89.8398748 82.204815,89.8398748 C82.774065,89.8398748 83.236065,90.3051004 83.236065,90.8783247" id="Fill-47" fill="#FFFEEF"></path>
                    <path d="M76.749585,91.2216778 C76.749585,93.1183027 75.22251,94.6560394 73.339035,94.6560394 C71.45556,94.6560394 69.928485,93.1183027 69.928485,91.2216778 C69.928485,89.3250529 71.45556,87.7873162 73.339035,87.7873162 C75.22251,87.7873162 76.749585,89.3250529 76.749585,91.2216778" id="Fill-49" fill="#00ADE9"></path>
                    <path d="M75.4506225,90.4179176 C75.4506225,90.9064044 75.0579225,91.3018461 74.5728225,91.3018461 C74.0877225,91.3018461 73.6950225,90.9064044 73.6950225,90.4179176 C73.6950225,89.9294307 74.0877225,89.533989 74.5728225,89.533989 C75.0579225,89.533989 75.4506225,89.9294307 75.4506225,90.4179176" id="Fill-51" fill="#FFFEEF"></path>
                    <path d="M70.2828225,89.1615593 C70.2828225,90.8754171 68.9034225,92.2644477 67.2014475,92.2644477 C65.4994725,92.2644477 64.1200725,90.8754171 64.1200725,89.1615593 C64.1200725,87.4477016 65.4994725,86.058671 67.2014475,86.058671 C68.9034225,86.058671 70.2828225,87.4477016 70.2828225,89.1615593" id="Fill-53" fill="#00ADE9"></path>
                    <path d="M69.1091775,88.435309 C69.1091775,88.8764425 68.7544275,89.2336693 68.3163525,89.2336693 C67.8782775,89.2336693 67.5227025,88.8764425 67.5227025,88.435309 C67.5227025,87.9941754 67.8782775,87.6369487 68.3163525,87.6369487 C68.7544275,87.6369487 69.1091775,87.9941754 69.1091775,88.435309" id="Fill-55" fill="#FFFEEF"></path>
                    <path d="M65.5394025,85.2986918 C65.5394025,86.7923981 64.3373775,88.0028154 62.8540275,88.0028154 C61.3706775,88.0028154 60.1686525,86.7923981 60.1686525,85.2986918 C60.1686525,83.8049854 61.3706775,82.5945682 62.8540275,82.5945682 C64.3373775,82.5945682 65.5394025,83.8049854 65.5394025,85.2986918" id="Fill-57" fill="#00ADE9"></path>
                    <path d="M64.5165675,84.6658188 C64.5165675,85.0504607 64.2071925,85.3619957 63.8252175,85.3619957 C63.4432425,85.3619957 63.1338675,85.0504607 63.1338675,84.6658188 C63.1338675,84.281177 63.4432425,83.969642 63.8252175,83.969642 C64.2071925,83.969642 64.5165675,84.281177 64.5165675,84.6658188" id="Fill-59" fill="#FFFEEF"></path>
                    <path d="M84.6341925,90.4491541 C84.6341925,92.3457791 86.1612675,93.8835157 88.0447425,93.8835157 C89.9282175,93.8835157 91.4552925,92.3457791 91.4552925,90.4491541 C91.4552925,88.5525292 89.9282175,87.0147926 88.0447425,87.0147926 C86.1612675,87.0147926 84.6341925,88.5525292 84.6341925,90.4491541" id="Fill-61" fill="#00ADE9"></path>
                    <path d="M87.63513,88.9040237 C87.63513,89.3925106 88.02783,89.7879523 88.51293,89.7879523 C88.99803,89.7879523 89.39073,89.3925106 89.39073,88.9040237 C89.39073,88.4155369 88.99803,88.0200952 88.51293,88.0200952 C88.02783,88.0200952 87.63513,88.4155369 87.63513,88.9040237" id="Fill-63" fill="#FFFEEF"></path>
                    <path d="M91.100955,88.3889526 C91.100955,90.1028103 92.480355,91.4918409 94.18233,91.4918409 C95.884305,91.4918409 97.263705,90.1028103 97.263705,88.3889526 C97.263705,86.6750948 95.884305,85.2860642 94.18233,85.2860642 C92.480355,85.2860642 91.100955,86.6750948 91.100955,88.3889526" id="Fill-65" fill="#00ADE9"></path>
                    <path d="M93.2976,86.8043611 C93.2976,87.2454946 93.65235,87.6027214 94.090425,87.6027214 C94.5285,87.6027214 94.884075,87.2454946 94.884075,86.8043611 C94.884075,86.3632275 94.5285,86.0060008 94.090425,86.0060008 C93.65235,86.0060008 93.2976,86.3632275 93.2976,86.8043611" id="Fill-67" fill="#FFFEEF"></path>
                    <path d="M95.844375,84.526085 C95.844375,86.0197914 97.0464,87.2302086 98.52975,87.2302086 C100.0131,87.2302086 101.215125,86.0197914 101.215125,84.526085 C101.215125,83.0323787 100.0131,81.8219614 98.52975,81.8219614 C97.0464,81.8219614 95.844375,83.0323787 95.844375,84.526085" id="Fill-69" fill="#00ADE9"></path>
                    <path d="M97.5492375,83.2065059 C97.5492375,83.5911478 97.8586125,83.9026828 98.2405875,83.9026828 C98.6225625,83.9026828 98.9319375,83.5911478 98.9319375,83.2065059 C98.9319375,82.8218641 98.6225625,82.5103291 98.2405875,82.5103291 C97.8586125,82.5103291 97.5492375,82.8218641 97.5492375,83.2065059" id="Fill-71" fill="#FFFEEF"></path>
                    <path d="M32.932845,143.412925 C32.932845,143.412925 39.10302,156.617023 43.035795,173.628494 L118.021695,173.628494 C119.496795,155.080948 123.63417,139.979394 123.63417,139.979394 L144.850695,161.221925 L163.18797,143.412925 C152.94807,128.229125 136.325145,104.738557 135.05712,102.380861 C132.84117,98.2602914 123.059145,97.0091669 119.54217,95.6849356 C112.45872,93.0198577 109.69827,92.5928471 103.24182,88.0751745 C98.401545,105.814391 81.352095,140.665602 81.352095,140.665602 C81.352095,140.665602 61.575195,102.723964 59.78247,87.9322838 C55.16082,92.1168216 51.61002,93.6886194 44.52657,96.0288702 C41.016195,97.188611 32.59212,99.1192971 26.113395,101.865789 C19.63467,104.613113 0.198495,146.846455 0.198495,146.846455 L17.929395,163.327902 L32.932845,143.412925 Z" id="hemd" fill="#F99D1C"></path>
                </g>
            </g>
            <path d="M52.6664145,134.477472 L52.6664145,112.682946 C52.6664145,103.442067 54.2356204,95.9447507 56.502251,89.6679274 C58.7688816,83.3911041 61.7329371,78.5091304 64.3482802,74.1502253 C66.789267,70.1400326 68.3584728,66.8272647 68.8815414,64.5606341 C69.0558977,63.3401407 68.8815414,61.4222224 68.1841166,59.6786604 C67.3123356,57.9350984 65.7431298,56.5402487 63.1277867,56.5402487 C59.8150189,56.5402487 57.5483882,58.6325232 55.63047,61.2478662 C53.7125517,64.0375655 52.4920583,67.3503333 51.9689897,68.9195392 L36.8,61.7709348 C37.671781,58.9812356 40.6358365,53.5761933 44.9947416,48.6942196 C49.1792905,43.9866021 55.2817576,39.9764094 63.4764991,40.1507656 C73.2404465,40.3251218 79.1685575,44.6840269 82.3069691,49.914713 C85.4453808,55.1453991 86.1428056,61.07351 86.1428056,64.5606341 C86.1428056,71.7092384 83.0043939,76.9399245 79.3429137,83.2167479 C78.2967764,84.9603099 77.2506392,86.8782281 76.0301458,88.7961464 C73.5891589,92.9806953 71.3225283,97.862669 69.9276787,103.442067 C69.2302539,106.406123 68.8815414,109.370178 68.8815414,112.682946 L68.8815414,134.477472 L52.6664145,134.477472 Z M51.6202773,149.646461 L69.9276787,149.646461 L69.9276787,169 L51.6202773,169 L51.6202773,149.646461 Z" id="?" fill="#002F3E"></path>
        </g>
    </g>
</svg>