<svg height="600" viewBox="0 0 600 600" width="600" xmlns="http://www.w3.org/2000/svg" xmlns:xlink="http://www.w3.org/1999/xlink"><mask id="a" fill="#fff"><path d="m46.3709138 23.4574675c0 12.7402598-10.3375517 23.0746754-23.0783017 23.0746754-12.7397759 0-23.09681038-10.3344156-23.09681038-23.0746754 0-12.7577922 10.35703448-23.09318179 23.09681038-23.09318179 12.74075 0 23.0783017 10.33538959 23.0783017 23.09318179" fill="none"/></mask><mask id="b" fill="#fff"><path d="m46.8959741 23.4574675c0 12.7402598-10.3472931 23.0746754-23.0880431 23.0746754-12.7495172 0-23.08706893-10.3344156-23.08706893-23.0746754 0-12.7577922 10.33755173-23.09318179 23.08706893-23.09318179 12.74075 0 23.0880431 10.33538959 23.0880431 23.09318179" fill="none"/></mask><g fill="none" fill-rule="evenodd" transform="translate(80)"><path d="m325.819914 47.9123377s-33.926302-65.5071429-141.557828-43.28084419c-107.6305515 22.22435069-139.2169739 127.50292249-135.7081291 188.33181849 3.509819 60.826948 17.1730776 96.913636 45.2789052 139.281818 27.7298099 41.803247 15.5560089 68.935714-5.5019311 75.954545 0 0 120.498914 85.392857 245.67856 1.169806 0 0-30.418431-9.358442-26.907638-33.922403 3.509819-24.565909 47.965578-54.97987 74.873216-106.449351 26.907638-51.470454 38.607034-196.5194802-56.155155-221.0853893" fill="#4c360d"/><path d="m57.736181 599.732143 54.814741-73.305195s11.942931 21.337987 21.313164 73.305195h161.336724c5.236966-56.986364 12.333561-88.903247 12.333561-88.903247l84.037905 88.903247h60.13256c-37.370853-49.197078-110.279233-145.292533-112.974672-149.730195-3.626716-5.959091-8.409733-19.773701-16.988966-19.432792-18.107276.716883-70.751638-32.036688-70.25775-49.596429.570845-20.224675 0-53.287987 0-53.287987h-67.826301v53.287987c0 20.242208-27.100518 37.40552-55.571647 46.900325-28.4876897 9.485065-43.5595517 20.260714-43.5595517 20.260714l-84.38956899 151.598377z" fill="#f3d9a6"/><path d="m354.330009 173.937662c0 98.731169-46.444949 179.636689-136.490362 179.636689-90.036647 0-140.0381729-81.766559-140.0381729-180.497728 0-98.7496749 51.5202069-108.7879866 141.5578279-108.7879866 90.045414 0 134.970707 10.8993506 134.970707 109.6490256" fill="#f4d89a"/><path d="m185.770052 231.658442c0 13.560389-11.128552 24.560064-24.835647 24.560064-13.71781 0-24.823957-10.999675-24.823957-24.560064 0-13.561364 11.106147-24.555195 24.823957-24.555195 13.707095 0 24.835647 10.993831 24.835647 24.555195" fill="#00ade9"/><path d="m179.381655 231.652597c0 9.462663-7.683026 17.15065-17.142879 17.15065-9.468621 0-17.140931-7.687987-17.140931-17.15065 0-9.447078 7.67231-17.134091 17.140931-17.134091 9.459853 0 17.142879 7.687013 17.142879 17.134091" fill="#234471"/><path d="m155.016517 222.772403c0 2.733116-2.224931 4.96948-4.953491 4.96948-2.739276 0-4.965181-2.236364-4.965181-4.96948 0-2.734091 2.225905-4.948052 4.965181-4.948052 2.72856 0 4.953491 2.213961 4.953491 4.948052" fill="#fff"/><path d="m164.042879 291.824026c16.98994 10.298377 35.178069 16.65974 53.61363 16.422078 18.545638 0 36.312939-7.174675 53.979905-16.422078-6.489707 7.648052-14.604276 13.990909-23.808905 18.561039-9.185147 4.641234-19.586992 7.173701-30.079431 7.337338-10.482699.018506-20.958578-2.32013-30.207044-6.89026-9.240672-4.496104-17.585137-10.838961-23.498155-19.008117" fill="#c42c76"/><path d="m301.724612 94.8779221s-4.156646 30.8999999 12.676457 76.6246749c18.480371 50.200325 38.368371 68.721429 57.087405 55.463961 0 0-20.221155 6.901948-14.623758-14.622077 7.60412-29.244156 23.250724-78.652598-.194828-112.4922083-20.1705-29.1126623-41.963914-24.450974-41.963914-24.450974s-17.548121-59.6581169-96.866327-60.4275974c-113.93225-1.1064935-192.0990263 142.3110387-133.0185349 241.1561687 0 0-19.2937759-75.96526 21.0579399-80.713636 40.343922-4.747403 184.786172-55.214611 195.84556-82.9149353" fill="#5f3f12"/><path d="m307.007362 102.787987s-15.028026 29.233442-65.420181 53.912338c-40.050707 19.613961-86.231664 22.766883-130.687422 21.597078 0 0-15.2092159 25.73474-14.0392762 67.846753 1.1699396 42.112013 22.4723882 86.605519 22.4723882 86.605519s-83.0627934-125.164285-18.133578-226.349026c75.926259-118.3217529 194.203164-60.2435061 212.336741-25.1503243 0 0 .290294 11.325-6.528672 21.5376623" fill="#754b1d"/><g fill="#a26527"><path d="m196.396922 153.722727s59.766285-13.05974 85.960854-58.7435062c0 0-17.211069 19.5847402-42.98481 29.3717532 0 0 18.280672-15.343831 21.78075-23.547078 0 0-49.921647-.487987-88.482897 26.224675 0 0 40.516345-47.4720775 123.204095-45.68961 0 0-9.879707 56.359091-99.477992 72.383766"/><path d="m299.650672 77.775c-13.728525-4.8077922-27.676232-8.1428571-41.622965-10.7512987-13.974983-2.4126623-28.050302-3.8298701-42.053535-3.4051948-28.103879.4392857-55.495663 8.4262987-80.703431 23.062013 10.382362-10.2165585 22.958483-18.5425325 36.851638-23.8977273 13.819121-5.5422078 28.744862-8.2334416 43.623845-8.6454545 29.722897-.4246754 59.48281 7.6217532 83.904448 23.6376623"/><path d="m343.366086 167.759416c-4.80737-5.934741-8.691258-12.556169-12.26537-19.327598-3.510794-6.831818-6.333845-14.027922-8.600664-21.449026-4.295949-14.795454-8.964018-45.7324673-8.964018-45.7324673s23.478673 6.2844156 32.818707 23.9454543c9.340035 17.662013 8.754578 37.547727 8.754578 37.547727s-5.108379-17.824675-12.868362-29.828571-15.437164-14.100974-18.719035-17.5470779c0 0 2.93313 18.4470779 5.849699 32.7535719 2.97112 14.33474 8.428241 25.51461 13.994465 39.637987"/></g><path d="m170.265672 479.635714h92.422311l-38.607035 73.69578z" fill="#c42c76"/><path d="m109.396664 531.102273s.675077-6.094481 1.012129-15.276624c.168526-4.58961.263017-9.948701.15781-15.687662-.065267-2.868506-.153913-5.833442-.333155-8.84026-.156836-3.007792-.405241-6.058441-.714043-9.101298-.304905-3.043832-.720862-6.074026-1.176758-9.048702-.507526-2.964935-1.031613-5.879221-1.680388-8.667857-.640009-2.790584-1.372561-5.460389-2.163561-7.95974-.388681-1.251624-.775414-2.468182-1.229362-3.614611-.215284-.578571-.426672-1.146428-.634164-1.704545-.21431-.555195-.467586-1.082143-.691638-1.609091-.455896-1.049026-.886465-2.059091-1.390094-2.971753-.495837-.916559-.8923107-1.829221-1.4086038-2.603572-.4860948-.792857-.9419914-1.53409-1.3618448-2.219805-.4705086-.653571-.9020517-1.253571-1.2917069-1.796104-.1948276-.270779-.3799138-.527922-.5533104-.770454-.184112-.232792-.3750431-.437338-.5425948-.635065-.3409483-.391559-.6302672-.725649-.8650345-.995455-.4714827-.542532-.7228103-.830844-.7228103-.830844l.0487069-.048701s.2630172.279545.755931.802597c.2454828.262013.5503879.58539.9069224.96526.1772931.192857.3769914.390584.571819.617532.1841121.235715.3799138.487013.586431.751949.4130345.530844.8708793 1.118181 1.369638 1.75909.4373879.681819.9117931 1.42013 1.4173706 2.208117.5357756.772403.9536806 1.681169 1.4728966 2.596754.527009.911688.980957 1.919805 1.461207 2.967857.236715.525974.501681 1.053896.728655 1.609091.221129.557142.446155 1.125974.675078 1.703571.48025 1.149351.894258 2.364935 1.312163 3.619481.452975 1.243831.804638 2.553896 1.176759 3.891233.398422 1.329546.688716 2.716559 1.032586 4.11526.348742 1.398701.59325 2.843182.900104 4.292533.2825 1.455194.499732 2.93961.753008 4.428896.426673 2.992207.811457 6.037013 1.08519 9.093506.284448 3.054546.507526 6.114935.640009 9.13052.154888 3.01461.218207 5.985389.260094 8.858766.021431 2.874351.01169 5.652273-.051629 8.286039-.060396 2.632792-.146121 5.122402-.263017 7.418182-.44031 9.185065-1.182604 15.273701-1.182604 15.273701z" fill="#064c6c"/><path d="m316.858819 523.309091s-.345819-5.803247-.109103-14.514935c.116896-4.353896.365301-9.434416.901077-14.855844.264966-2.710715.57669-5.509091.98875-8.340585.388681-2.834415.889388-5.699026 1.431983-8.555844.575715-2.850974 1.20306-5.692208 1.947302-8.459415.381862-1.380195.732551-2.758442 1.180655-4.09091.212362-.670129.422776-1.335389.632215-1.996753.233793-.652597.464664-1.301299.693586-1.944156.442259-1.292532.94394-2.538311 1.450492-3.752922.470508-1.228246 1.035508-2.386363 1.579077-3.515259 1.095906-2.251949 2.256104-4.323702 3.442604-6.160715.55331-.942857 1.188448-1.780519 1.769034-2.589935.291268-.404221.574742-.797727.850423-1.180519.302957-.362338.59812-.713961.882569-1.053896.583508-.67013 1.075448-1.343182 1.62681-1.880845.544543-.540584 1.046224-1.038311 1.498224-1.487337.437388-.463637.882569-.819156 1.265405-1.133766.380888-.315585.703328-.583442.966345-.801624.524086-.434415.803664-.666234.803664-.666234l.041888.053572s-.269836.243506-.773466.698376c-.253275.227923-.563051.508442-.929327.838637-.366276.327273-.793923.698376-1.209879 1.178571-.862113.928247-1.93269 2.028896-3.000345 3.434416-.274707.343831-.559155.698376-.852371 1.062662-.264965.385714-.538698.782143-.818276 1.189286-.559155.814286-1.168965 1.65487-1.698896 2.602597-1.135845 1.844805-2.242466 3.920455-3.280897 6.175325-.505578 1.133766-1.06181 2.281169-1.534267 3.497727-.502655 1.203896-1.001414 2.438961-1.44075 3.721753-.227948.638962-.457845 1.281819-.68969 1.93052-.208465.656493-.417905 1.316883-.629293 1.982143-.439336 1.325649-.813405 2.688312-1.205009 4.057792-.771517 2.743831-1.427112 5.565584-2.033025 8.398052-.565 2.841234-1.090061 5.693182-1.502121 8.515909-.436414 2.820779-.772491 5.61039-1.060836 8.313312-.289319 2.702922-.500707 5.323052-.679949 7.808766-.164629 2.486688-.29906 4.840909-.375043 7.014935-.339 8.699026-.06137 14.503247-.06137 14.503247z" fill="#064c6c"/><path d="m252.320233 231.658442c0 13.560389 11.128551 24.560064 24.834672 24.560064 13.718785 0 24.824931-10.999675 24.824931-24.560064 0-13.561364-11.106146-24.555195-24.824931-24.555195-13.706121 0-24.834672 10.993831-24.834672 24.555195" fill="#00ade9"/><path d="m258.707655 231.652597c0 9.462663 7.683026 17.15065 17.142879 17.15065 9.468621 0 17.140932-7.687987 17.140932-17.15065 0-9.447078-7.672311-17.134091-17.140932-17.134091-9.459853 0-17.142879 7.687013-17.142879 17.134091" fill="#234471"/><path d="m259.677897 222.772403c0 2.733116 2.225905 4.96948 4.954465 4.96948 2.739276 0 4.964207-2.236364 4.964207-4.96948 0-2.734091-2.224931-4.948052-4.964207-4.948052-2.72856 0-4.954465 2.213961-4.954465 4.948052" fill="#fff"/><path d="m227.980422 413.933766c0 5.061039-4.103069 9.164611-9.163715 9.164611-5.061621 0-9.16469-4.103572-9.16469-9.164611 0-5.060065 4.103069-9.162662 9.16469-9.162662 5.060646 0 9.163715 4.102597 9.163715 9.162662" fill="#00ade9"/><path d="m222.131698 409.430844c-1.30437 0-2.359362 1.055844-2.359362 2.359091 0 1.302273 1.054992 2.358117 2.359362 2.358117 1.302423 0 2.358388-1.055844 2.358388-2.358117 0-1.303247-1.055965-2.359091-2.358388-2.359091" fill="#33bdea"/><path d="m209.652991 412.57013c0 4.307143-3.49131 7.798052-7.799922 7.798052s-7.799922-3.490909-7.799922-7.798052c0-4.308117 3.49131-7.8 7.799922-7.8s7.799922 3.491883 7.799922 7.8" fill="#00ade9"/><path d="m204.674172 408.736364c-1.108569 0-2.007698.899026-2.007698 2.007467 0 1.108442.899129 2.008442 2.007698 2.008442s2.007699-.9 2.007699-2.008442c0-1.108441-.89913-2.007467-2.007699-2.007467" fill="#33bdea"/><path d="m194.861681 407.889935c0 3.893182-3.156207 7.048052-7.047888 7.048052s-7.046914-3.15487-7.046914-7.048052c0-3.891234 3.155233-7.046104 7.046914-7.046104s7.047888 3.15487 7.047888 7.046104" fill="#00ade9"/><path d="m190.363112 404.427273c-1.001414 0-1.813845.812337-1.813845 1.813636s.812431 1.813636 1.813845 1.813636c1.002388 0 1.813845-.812337 1.813845-1.813636s-.811457-1.813636-1.813845-1.813636" fill="#33bdea"/><path d="m184.011733 399.116883c0 3.392533-2.749017 6.141234-6.14194 6.141234-3.391948 0-6.14194-2.748701-6.14194-6.141234 0-3.391558 2.749992-6.141234 6.14194-6.141234 3.392923 0 6.14194 2.749676 6.14194 6.141234" fill="#00ade9"/><path d="m180.090828 396.098377c-.872828 0-1.581026.708117-1.581026 1.580844 0 .874675.708198 1.580844 1.581026 1.580844.873801 0 1.581025-.706169 1.581025-1.580844 0-.872727-.707224-1.580844-1.581025-1.580844" fill="#33bdea"/><path d="m227.687207 410.814935c0 4.308117 3.493259 7.8 7.800896 7.8 4.308613 0 7.800897-3.491883 7.800897-7.8 0-4.307143-3.492284-7.8-7.800897-7.8-4.307637 0-7.800896 3.492857-7.800896 7.8" fill="#00ade9"/><path d="m236.560629 405.297078c-1.109543 0-2.008672.9-2.008672 2.008441 0 1.109416.899129 2.007468 2.008672 2.007468 1.108569 0 2.006724-.898052 2.006724-2.007468 0-1.108441-.898155-2.008441-2.006724-2.008441" fill="#33bdea"/><path d="m242.479491 406.135714c0 3.892208 3.155233 7.047078 7.047888 7.047078 3.891681 0 7.047888-3.15487 7.047888-7.047078 0-3.891233-3.156207-7.047078-7.047888-7.047078-3.892655 0-7.047888 3.155845-7.047888 7.047078" fill="#00ade9"/><path d="m249.31794 400.723052c-1.001414 0-1.814819.811364-1.814819 1.81461 0 1.000325.813405 1.813637 1.814819 1.813637 1.002388 0 1.813844-.813312 1.813844-1.813637 0-1.003246-.811456-1.81461-1.813844-1.81461" fill="#33bdea"/><path d="m253.32944 397.361688c0 3.392533 2.749991 6.142208 6.141939 6.142208 3.391949 0 6.14194-2.749675 6.14194-6.142208 0-3.391558-2.749991-6.141233-6.14194-6.141233-3.391948 0-6.141939 2.749675-6.141939 6.141233" fill="#00ade9"/><path d="m258.808966 392.78474c-.872828 0-1.581026.707143-1.581026 1.580844 0 .873702.708198 1.579871 1.581026 1.579871.874775 0 1.581025-.706169 1.581025-1.579871 0-.873701-.70625-1.580844-1.581025-1.580844" fill="#33bdea"/><path d="m109.430759 531.105195s14.112336 29.99026 23.1085 68.625974h171.515491c3.374414-42.12565 12.838164-76.424026 12.838164-76.424026l48.529603 48.246428 41.942483-40.448376c-23.422172-34.48539-61.444724-87.836689-64.344733-93.190909-5.068439-9.358442-27.443414-12.20065-35.485896-15.207468-16.202837-6.054545-22.517199-7.022727-37.284155-17.283117-11.072052 40.289611-50.068742 119.442857-50.068742 119.442857s-45.236043-86.172077-49.33619-119.767207c-10.572318 9.503571-18.694681 13.072402-34.896543 18.387662-8.028844 2.633766-27.297293 7.018831-42.1168531 13.257468-14.8185862 6.238636-59.2743448 102.15974-59.2743448 102.15974l40.5562845 37.431818z" fill="#f99d1c"/><path d="m46.3709138 23.4574675c0 12.7402598-10.3375517 23.0746754-23.0783017 23.0746754-12.7397759 0-23.09681038-10.3344156-23.09681038-23.0746754 0-12.7577922 10.35703448-23.09318179 23.09681038-23.09318179 12.74075 0 23.0783017 10.33538959 23.0783017 23.09318179" mask="url(#a)" transform="translate(263.991379 252.272727)"/><path d="m46.8959741 23.4574675c0 12.7402598-10.3472931 23.0746754-23.0880431 23.0746754-12.7495172 0-23.08706893-10.3344156-23.08706893-23.0746754 0-12.7577922 10.33755173-23.09318179 23.08706893-23.09318179 12.74075 0 23.0880431 10.33538959 23.0880431 23.09318179" mask="url(#b)" transform="translate(115.922414 252.272727)"/></g></svg>