<?xml version="1.0" encoding="utf-8"?>
<!-- Generator: Adobe Illustrator 24.1.0, SVG Export Plug-In . SVG Version: 6.00 Build 0)  -->
<svg version="1.1" id="Layer_1" xmlns="http://www.w3.org/2000/svg" xmlns:xlink="http://www.w3.org/1999/xlink" x="0px" y="0px"
	 viewBox="0 0 12 9" style="enable-background:new 0 0 12 9;" xml:space="preserve">
<style type="text/css">
	.st0{enable-background:new    ;}
	.st1{fill:#004A5D;}
</style>
<desc>Created with Sketch.</desc>
<g id="Page-1">
	<g id="_x30_2a2.-Tipkaarten-Gefilterd" transform="translate(-805.000000, -624.000000)">
		<g id="Content" transform="translate(225.000000, 328.000000)">
			<g id="Filters" transform="translate(197.000000, 279.000000)">
				<g id="Top">
					<g class="st0">
						<path class="st1" d="M383.2,21.9c-0.1-0.1-0.2-0.2-0.2-0.4s0.1-0.3,0.2-0.4l0.9-0.8c0.1-0.1,0.2-0.2,0.4-0.2s0.3,0.1,0.4,0.2
							l2.6,2.6l5.6-5.6c0.1-0.1,0.3-0.2,0.4-0.2s0.3,0.1,0.4,0.2l0.9,0.8c0.1,0.1,0.2,0.2,0.2,0.4s-0.1,0.3-0.2,0.4l-6.9,6.9
							c-0.1,0.1-0.2,0.2-0.4,0.2s-0.3-0.1-0.4-0.2L383.2,21.9z"/>
					</g>
				</g>
			</g>
		</g>
	</g>
</g>
</svg>
