<svg height="12" viewBox="0 0 10 12" width="10" xmlns="http://www.w3.org/2000/svg"><path d="m8.24414062 11.0888672v-1.12109376c-.25292968.03417966-.59472656.05468746-1.07324218.05468746-1.92089844 0-3.19921875-.84082028-3.68457032-2.39941402h3.69140626v-.9296875h-3.86914063c-.02050781-.19824219-.03417969-.41015626-.03417969-.62890626 0-.23242187.01367188-.45117187.03417969-.66308593h3.86914063v-.9296875h-3.67773438c.4921875-1.53125 1.76367188-2.36523438 3.67089844-2.36523438.47851562 0 .82714844.01367188 1.07324218.0546875v-1.12109375c-.22558593-.03417968-.67675781-.06835937-1.07324218-.06835937-2.72070313 0-4.46386719 1.24414062-4.99023438 3.5h-1.46972656v.9296875h1.32617188c-.02050782.21191406-.02734376.4375-.02734376.66308593 0 .21875.00683594.42382813.02734376.62890626h-1.32617188v.9296875h1.46289062c.51953126 2.28320312 2.26269532 3.53417972 4.99707032 3.53417972.39648437 0 .84765625-.0341797 1.07324218-.0683594z" fill="#1bb24b" fill-rule="evenodd"/></svg>