<?xml version="1.0" encoding="UTF-8"?>
<svg width="11px" height="12px" viewBox="0 0 11 12" version="1.1" xmlns="http://www.w3.org/2000/svg" xmlns:xlink="http://www.w3.org/1999/xlink">
    <!-- Generator: Sketch 62 (91390) - https://sketch.com -->
    <title>search</title>
    <desc>Created with Sketch.</desc>
    <g id="Symbols" stroke="none" stroke-width="1" fill="none" fill-rule="evenodd">
        <path d="M10.2415813,11.2246065 L10.8495835,10.6166043 C11.0493835,10.4146433 11.0493835,10.0880773 10.8495835,9.88613728 L8.70759223,7.744146 C8.61091277,7.64746655 8.47986679,7.59375574 8.34235873,7.59375574 L7.99216845,7.59375574 C8.58512739,6.8353633 8.93747869,5.88145094 8.93747869,4.84376229 C8.93747869,2.3752051 6.93729654,0.375022948 4.46873935,0.375022948 C2.00018215,0.375022948 0,2.3752051 0,4.84376229 C0,7.31231949 2.00018215,9.31250164 4.46873935,9.31250164 C5.50642799,9.31250164 6.46034036,8.96015034 7.21873279,8.36719139 L7.21873279,8.71738167 C7.21873279,8.85488974 7.2724436,8.98593572 7.36912306,9.08261518 L9.51325437,11.2246065 C9.71305439,11.4265675 10.0396203,11.4265675 10.2415813,11.2246065 Z M4.46873935,7.76563033 C2.853114,7.76563033 1.54687131,6.45938764 1.54687131,4.84376229 C1.54687131,3.22813695 2.853114,1.92189426 4.46873935,1.92189426 C6.08436469,1.92189426 7.39060738,3.22813695 7.39060738,4.84376229 C7.39060738,6.45938764 6.08436469,7.76563033 4.46873935,7.76563033 Z M4.81248853,6.90625738 C4.95427667,6.90625738 5.07030041,6.79023364 5.07030041,6.64844549 L5.07030041,5.44532336 L6.27342254,5.44532336 C6.41521069,5.44532336 6.53123443,5.32929962 6.53123443,5.18751147 L6.53123443,4.50001311 C6.53123443,4.35822497 6.41521069,4.24220123 6.27342254,4.24220123 L5.07030041,4.24220123 L5.07030041,3.0390791 C5.07030041,2.89729095 4.95427667,2.78126721 4.81248853,2.78126721 L4.12499017,2.78126721 C3.98320202,2.78126721 3.86717828,2.89729095 3.86717828,3.0390791 L3.86717828,4.24220123 L2.66405615,4.24220123 C2.522268,4.24220123 2.40624426,4.35822497 2.40624426,4.50001311 L2.40624426,5.18751147 C2.40624426,5.32929962 2.522268,5.44532336 2.66405615,5.44532336 L3.86717828,5.44532336 L3.86717828,6.64844549 C3.86717828,6.79023364 3.98320202,6.90625738 4.12499017,6.90625738 L4.81248853,6.90625738 Z" id="search" fill="#FFFFFF" fill-rule="nonzero"></path>
    </g>
</svg>