<svg height="15" viewBox="0 0 14 15" width="14" xmlns="http://www.w3.org/2000/svg"><g fill="#1bb24b" fill-rule="evenodd"><path d="m12.0168204 13.0067619h-11.01537869v-7.94561904h11.01537869zm-9.01249526-11.67009523c0-.07247619.02343003-.132.07038611-.17847619.04695609-.04647619.10687551-.06980953.17995031-.06980953h.50067285c.0730748 0 .13309025.0232381.17995031.06980953.04686006.04657142.07038611.10609523.07038611.17847619v2.23466666c0 .07247619-.02343003.132-.07038611.17847619-.04695609.04647619-.10687551.06980953-.17995031.06980953h-.50067285c-.0730748 0-.13309025-.0232381-.17995031-.06980953-.04686005-.04657142-.07038611-.106-.07038611-.17847619zm6.00845823 0c0-.07247619.02333401-.132.07019407-.17847619s.1068755-.06980953.18004633-.06980953h.50057682c.07317083 0 .13299423.0232381.18004633.06980953.04686006.04657142.07029008.10609523.07029008.17847619v2.23466666c0 .07247619-.02343002.13190477-.07029008.17847619-.0470521.04647619-.1068755.06980953-.18004633.06980953h-.50057682c-.07317083 0-.13318627-.0232381-.18004633-.06980953-.04686006-.04657142-.07019407-.106-.07019407-.17847619zm3.70828233 1.03971428c-.198003-.19657143-.4328794-.29485714-.7040532-.29485714h-1.0013457v-.74495238c0-.34133333-.1226236-.63361905-.3677746-.87676191-.2452472-.24314285-.5397549-.3647619-.88409956-.3647619h-.50057682c-.34434461 0-.63894843.12161905-.88409952.3647619-.24524711.24314286-.36777464.53542858-.36777464.87676191v.74495238h-3.00413309v-.74495238c0-.34133333-.12262356-.63361905-.36777465-.87676191-.24515108-.24314285-.53985092-.3647619-.88409951-.3647619h-.50067285c-.34424859 0-.63894843.12161905-.88409951.3647619-.24515109.24314286-.36777465.53542858-.36777465.87676191v.74495238h-1.00134569c-.27126981 0-.5059542.09828571-.7041492.29485714-.19819501.19657143-.29729251.42942857-.29729251.69838095v9.9320952c0 .2688572.0990975.5016191.29729251.6982858.198195.1965714.43287939.2948571.7041492.2948571h11.01537869c.2711738 0 .5060503-.0982857.7040532-.2948571.198195-.1965715.2972925-.4294286.2972925-.6982858v-9.9320952c0-.26904761-.0990014-.50180952-.2971004-.69838095z"/><path d="m5.54375624 11.2778476c.07067419.07.15440774.1051429.25110462.1051429.09679291-.0000953.18052646-.0351429.25120065-.1052381l3.42606567-3.39790478c.07048214-.07.10591526-.15304762.10591526-.24904762 0-.09590476-.03543312-.17885714-.10591526-.24895238l-.56933051-.56457143c-.07067419-.07009524-.15431171-.10514286-.2510086-.10514286-.09669688 0-.18052645.03504762-.25110462.10514286l-2.60572656 2.58438095-1.17735899-1.16761904c-.07067418-.07009524-.15431171-.10514286-.25110462-.10514286-.0967929 0-.18043043.03504762-.25110461.10514286l-.56913847.56457142c-.07067419.07-.10601128.15304762-.10601128.24904762 0 .09590476.03533709.17885715.10601128.24895238z"/></g></svg>