<svg height="16" viewBox="0 0 16 16" width="16" xmlns="http://www.w3.org/2000/svg"><path d="m11.8432488 5.6613498-1.5045986-1.50459857c-.2090016-.20900164-.54862932-.20900164-.75709779 0l-3.58181899 3.58181899-3.58128583-3.58181899c-.20846847-.20900164-.54809614-.20900164-.75709779 0l-1.50459857 1.50459857c-.20900164.20900165-.20900164.54809615 0 .75709779l3.58128583 3.58181901-3.58128583 3.5807526c-.20900164.2090017-.20900164.5486294 0 .7570978l1.50459857 1.5051318c.20900165.2084684.54862932.2084684.75709779 0l3.58128583-3.5812859 3.58181899 3.5812859c.20846847.2084684.54809619.2084684.75709779 0l1.5045986-1.5051318c.2090016-.2084684.2090016-.5480961 0-.7570978l-3.58181902-3.5807526 3.58181902-3.58181901c.2090016-.20900164.2090016-.54809614 0-.75709779" fill="#ffffff" fill-rule="evenodd"/></svg>