<svg height="11" viewBox="0 0 11 11" width="11" xmlns="http://www.w3.org/2000/svg"><path d="m10.9156983 8.48962931c-.030819-.09274138-.2265431-.2292931-.5871724-.40946552-.0976725-.05670689-.2368793-.13389655-.41695693-.23175862-.18036207-.09786207-.34393966-.1880431-.49063794-.2705431-.14688793-.08231035-.28467241-.16225-.41335344-.23934483-.02057759-.0154569-.08496552-.0605-.1931638-.13522414-.10819827-.07462931-.19951724-.13000862-.2743362-.16613793-.07462931-.03603448-.14802587-.05405172-.22018966-.05405172-.10298276 0-.23166379.07339655-.38613793.22018965-.15447414.14679311-.29614655.30638793-.42482759.47906897-.12877586.17258621-.26523275.33218103-.40937069.47897414-.14423275.14688793-.26276724.22018965-.35541379.22018965-.04637069 0-.10440517-.01289655-.17391379-.0385-.0694138-.02569827-.12223276-.0477931-.1584569-.06562069-.03593965-.01811207-.09767241-.05405172-.1852931-.1082931-.08771552-.05405173-.13655173-.08373276-.14679311-.08894828-.70561206-.39144827-1.31080172-.83960345-1.81556896-1.34427586-.50467241-.50476724-.95282759-1.1099569-1.34427586-1.81556896-.00512069-.01033621-.03480173-.05926725-.08885345-.14679311-.05414655-.08762069-.09018104-.14935345-.10819828-.18548276-.01801724-.03603448-.03992241-.08885344-.06562069-.15836207-.02569827-.06950862-.03859482-.12744827-.03859482-.17381896 0-.09264655.07339655-.21118104.22018965-.35541379.1467931-.14413794.30648276-.28068966.47897414-.40937069.17258621-.12868104.33218103-.27035345.47897414-.42482759.1467931-.15456897.22018965-.28325.22018965-.38623276 0-.07206896-.01801724-.14556034-.05405172-.22018965-.03603449-.07481897-.0914138-.16613793-.16613793-.27433621-.07472414-.10819828-.11976724-.17249138-.13522414-.19316379-.07718966-.12868104-.15693966-.26646552-.23943966-.41325862-.0825-.14679311-.1725862-.31037069-.27044827-.49063794-.09786207-.18017241-.17505173-.31928448-.23175862-.41714655-.18026724-.36043965-.31672414-.55625862-.40946552-.58707758-.03603448-.0154569-.09018103-.02323276-.16225-.02323276-.13911207 0-.32061207.02569827-.54468966.07728448-.22407758.05149138-.40045689.1055431-.52923275.16225-.25755173.10810345-.53046552.42226724-.81893104.94239655-.26267241.48409483-.39400862.9631638-.39400862 1.43701724 0 .13892242.00900862.27414656.02702586.40557759.01801724.13133621.05025862.2794569.09662931.44426724.04637069.16481035.08373276.28723276.11199138.36698276s.08107759.22265517.15836207.42871552c.07718966.20606034.12356035.33218103.13901724.37855172.18026724.50476724.39400862.95538793.64122414 1.35205173.40671552.65924137.96174138 1.34048275 1.6647931 2.04353448.70305173.70305172 1.38419828 1.25807758 2.04353449 1.66498276.39656896.24712069.84737931.46095689 1.35205172.64131899.04637069.015362.17258621.0617327.37855173.139112.20596551.0771897.34896551.1300087.42871551.1583621.07975.0283535.20217242.0657155.36688793.1120862.165.0463707.31302587.0786121.44436207.0967242.13133621.0178275.26656035.0270258.40557759.0270258.47375862 0 .95282758-.131431 1.43701724-.3940086.5200345-.2884655.8341983-.56147414.9423966-.81912069.0568017-.12858621.1107586-.30506035.16225-.52913793.0515862-.22398276.0772844-.40548276.0772844-.54459483.0000949-.07235345-.007681-.12640517-.0232327-.16272414z" fill="#004152" fill-rule="evenodd"/></svg>