<svg height="14" viewBox="0 0 14 14" width="14" xmlns="http://www.w3.org/2000/svg"><g fill="#1bb24b" fill-rule="evenodd"><path d="m13.02 3.51022222c-.6216667-1.06511111-1.465-1.90844444-2.5301111-2.53011111-1.06533334-.62166667-2.22833334-.93244444-3.48977779-.93244444-1.26133333 0-2.42466667.31077777-3.48977778.93244444-1.06522222.62155556-1.90855555 1.46488889-2.53022222 2.53011111-.62177778 1.06522222-.93255555 2.22855556-.93255555 3.48977778 0 1.26133333.31088888 2.42444444.93244444 3.4897778.62166667 1.065 1.465 1.9084444 2.53022222 2.5301111s2.22844445.9324444 3.48977778.9324444 2.42466667-.3107777 3.4897778-.9324444c1.0651111-.6215556 1.9084444-1.465 2.5301111-2.5301111.6215555-1.06522224.9323333-2.22855558.9323333-3.4897778 0-1.26133333-.3107778-2.42466667-.9322222-3.48977778zm-1.7562222 5.96111111c-.4405556.75433337-1.038 1.35188887-1.79244447 1.79244447-.75433333.4405555-1.57811111.6606666-2.47133333.6606666-.89311111 0-1.71688889-.2201111-2.47133333-.6606666-.75433334-.4405556-1.35177778-1.0381111-1.79233334-1.79244447-.44066666-.75433333-.66088889-1.57811111-.66088889-2.47133333s.22033334-1.717.66088889-2.47133333c.44044445-.75433334 1.038-1.35188889 1.79233334-1.79244445.75433333-.44055555 1.57811111-.66077778 2.47133333-.66077778s1.717.22022223 2.47133333.66077778c.75444447.44055556 1.35188887 1.03811111 1.79244447 1.79244445.4405555.75433333.6606666 1.57811111.6606666 2.47133333s-.2201111 1.717-.6606666 2.47133333z"/><path d="m7.86911111 3.52377778h-.57944444c-.08466667 0-.15388889.02722222-.20833334.08144444-.05411111.05433334-.08133333.12366667-.08133333.20822222v3.18655556h-2.02777778c-.08455555 0-.15388889.02711111-.20822222.08133333-.05433333.05422223-.08144444.12366667-.08144444.20833334v.57933333c0 .08455556.02711111.15388889.08144444.20822222.05433333.05422222.12377778.08133334.20822222.08133334h2.897c.08444445 0 .15388889-.02711112.208-.08133334.05422222-.05433333.08155556-.12366666.08155556-.20822222v-4.05555556c0-.08444444-.02733334-.15377777-.08155556-.20822222-.05422222-.05422222-.12366666-.08144444-.20811111-.08144444z"/></g></svg>