<svg height="32" viewBox="0 0 32 32" width="32" xmlns="http://www.w3.org/2000/svg"><path d="m13.3333333 19.9733333v-8.0173333l8 4.204zm2.6666667-14.69599997c-5.892 0-10.66666667 4.78399997-10.66666667 10.68933337 0 5.904 4.77466667 10.6893333 10.66666667 10.6893333s10.6666667-4.7853333 10.6666667-10.6893333c0-5.9053334-4.7746667-10.68933337-10.6666667-10.68933337zm10.8053333 18.48399997c-2.4226666 3.3626667-6.3586666 5.5653334-10.8053333 5.5653334s-8.384-2.2026667-10.80666667-5.5666667l-2.328 1.3466667c2.88933334 4.164 7.69066667 6.8933333 13.13466667 6.8933333 5.4426667 0 10.244-2.7293333 13.1346667-6.8906667zm-22.95066663-2.3133333c-.75733334-1.6746667-1.188-3.528-1.188-5.4813333 0-6.91733337 5.272-12.6226667 12.00000003-13.2946667v-2.672c-8.2106667.68-14.6666667 7.56-14.6666667 15.9666667 0 2.4426666.56133333 4.7506666 1.53733333 6.8226666zm13.47866663-18.77733333c6.728.672 12 6.37866666 12 13.29466663 0 1.9546667-.432 3.808-1.1893333 5.4826667l2.3173333 1.34c.976-2.0693333 1.5386667-4.3786667 1.5386667-6.8213333 0-8.4066667-6.456-15.2866667-14.6666667-15.9666667z" fill="#25b34b" fill-rule="evenodd" transform="translate(0 .0006)"/></svg>