<svg height="14" viewBox="0 0 9 14" width="9" xmlns="http://www.w3.org/2000/svg"><path d="m7.62932143 1.34907143c-.87289286-.89945455-1.92621429-1.34907143-3.15996429-1.34907143s-2.28707143.44972727-3.15996428 1.34907143c-.87289286.89934415-1.30939286 1.98458441-1.30939286 3.25572078 0 .65361688.096 1.19022078.288 1.60992208l3.18621429 6.96127921c.08732142.1978182.22264285.3536883.40596428.4675.18332143.1139221.37971429.1709935.58928572.1709935.20946428 0 .40596428-.0570714.58928571-.1709935.18332143-.1138117.32142857-.2696818.41453571-.4675l3.17732143-6.96127921c.19210715-.4197013.28810715-.9563052.28810715-1.60992208.00010714-1.27113637-.43639286-2.35626624-1.30939286-3.25572078zm-1.58003572 4.88363636c-.43639285.44961689-.963.67448052-1.57992857.67448052s-1.14353571-.22486363-1.58003571-.67448052c-.4365-.44972727-.65475-.99229221-.65475-1.62791558 0-.63551299.21825-1.17818831.65475-1.6278052.4365-.44972727.96321428-.67459091 1.58003571-.67459091.61692857 0 1.14353572.22486364 1.57992857.67459091.4365.44961689.65475.99229221.65475 1.6278052 0 .63551298-.21825 1.17807792-.65475 1.62791558z" fill="#1bb24b" fill-rule="evenodd"/></svg>