<svg height="26" viewBox="0 0 26 26" width="26" xmlns="http://www.w3.org/2000/svg"><path d="m5.042 15.165c-.00274444 1.3911059-1.12889838 2.5186005-2.52 2.523-1.39188279-.0033008-2.51925097-1.131116-2.522-2.523.00385032-1.3909399 1.13105744-2.5172532 2.522-2.52h2.52zm1.271 0c.00384805-1.3905507 1.13044792-2.5167036 2.521-2.52 1.3905521.0032964 2.517152 1.1294493 2.521 2.52v6.313c-.0032964 1.3911044-1.1298971 2.5181519-2.521 2.522-1.39110294-.0038481-2.51770364-1.1308956-2.521-2.522zm2.521-10.123c-1.39032495-.00384286-2.51660553-1.12967669-2.521-2.52.00329636-1.39110436 1.12989706-2.51815194 2.521-2.522 1.3911029.00384806 2.5177036 1.13089564 2.521 2.522v2.52zm0 1.271c1.3907139.00384557 2.5171544 1.13028615 2.521 2.521-.0038456 1.3907139-1.1302861 2.5171544-2.521 2.521h-6.312c-1.39110436-.0032964-2.51815194-1.1298971-2.522-2.521.00384806-1.39110294 1.13089564-2.51770364 2.522-2.521zm10.122 2.521c.0038481-1.39110294 1.1308956-2.51770364 2.522-2.521 1.3911044.00329636 2.5181519 1.12989706 2.522 2.521-.0038481 1.3911029-1.1308956 2.5177036-2.522 2.521h-2.522zm-1.268 0c-.0038503 1.3914922-1.1315052 2.5182532-2.523 2.521-1.3905507-.003848-2.5167036-1.1304479-2.52-2.521v-6.312c.0027468-1.39094256 1.1290601-2.51814968 2.52-2.522 1.391884.00274903 2.5196992 1.13011721 2.523 2.522zm-2.523 10.122c1.391884.002749 2.5196992 1.1301172 2.523 2.522-.0033008 1.3918828-1.131116 2.519251-2.523 2.522-1.3909399-.0038503-2.5172532-1.1310574-2.52-2.522v-2.522zm0-1.268c-1.3913294-.0038524-2.517803-1.131667-2.52-2.523.0032987-1.3903889 1.1296111-2.5167013 2.52-2.52h6.313c1.3909426.0027468 2.5181497 1.1290601 2.522 2.52-.002749 1.391884-1.1301172 2.5196992-2.522 2.523z" fill="#00586f" transform="translate(1 1)"/></svg>