<svg height="29" viewBox="0 0 31 29" width="31" xmlns="http://www.w3.org/2000/svg"><path d="m17.402625 8.00316667c-.5489583-.56704167-.5179583-1.45570834.0452083-2.00466667l5.762125-5.58775c.2815834-.27254167.64325-.41075 1.0010417-.41075.36425 0 .7272083.14208333 1.0023333.42754167zm-9.47308333 14.23545833c-.11883334.1149583-.17954167.2686667-.17954167.422375 0 .3229167.26220833.589.58770833.589.14854167 0 .29579167-.05425.41075-.1653333l.96616667-.941625-.817625-.84475zm10.60716663-8.3725833-3.3195833 3.204625c-1.0643333 1.0320416-2.0757083 1.7153333-3.4939583 2.3120833.6406666-1.4001667 1.35625-2.3921667 2.4192916-3.4229167l3.3182917-3.2020416-1.3549583-1.398875-3.3118334 3.2097916c-1.7799166 1.7256667-2.6866666 3.3970834-3.52624997 5.731125l1.46345837 1.5099584c2.356-.7659584 4.0558333-1.6210417 5.83575-3.3467084l3.3105416-3.2110833zm10.17575-9.3555417-7.1390416 6.9220417-1.600375-1.6520417 7.141625-6.924625c1.0643333-1.03720833 2.6957083.589 1.5977916 1.654625zm-.8305416-3.9215c-.7388334 0-1.4931667.26995833-2.1183334.87575l-8.5301666 8.273125 4.2960833 4.4355833 8.5301667-8.27054163c.6264583-.60708334.9403333-1.41308334.9403333-2.220375 0-1.84191667-1.5254583-3.09354167-3.1180833-3.09354167zm-4.6319167 15.5129167v9.7314166h-20.66666667v-15.5h10.35012497l2.65825-2.5833333h-15.5917083v20.6666667h25.8333333v-14.8192917z" fill="#25b34b" transform="translate(0 .0006)"/></svg>