<svg height="14" viewBox="0 0 9 14" width="9" xmlns="http://www.w3.org/2000/svg"><path d="m7.65996429 1.39642857c-.87289286-.89945454-1.92621429-1.34907143-3.15996429-1.34907143s-2.28707143.44972728-3.15996429 1.34907143c-.87289285.89934416-1.30939285 1.98458442-1.30939285 3.25572078 0 .65361688.096 1.19022078.288 1.60992208l3.18621428 6.96127917c.08732143.1978182.22264286.3536884.40596429.4675.18332143.1139221.37971428.1709936.58928571.1709936.20946429 0 .40596429-.0570715.58928572-.1709936.18332143-.1138116.32142857-.2696818.41453571-.4675l3.17732143-6.96127917c.19210714-.4197013.28810714-.9563052.28810714-1.60992208.00010715-1.27113636-.43639285-2.35626623-1.30939285-3.25572078zm-1.58003572 4.88363637c-.43639286.44961688-.963.67448051-1.57992857.67448051s-1.14353571-.22486363-1.58003571-.67448051c-.4365-.44972728-.65475-.99229221-.65475-1.62791559 0-.63551299.21825-1.17818831.65475-1.62780519.4365-.44972728.96321428-.67459091 1.58003571-.67459091.61692857 0 1.14353571.22486363 1.57992857.67459091.4365.44961688.65475.9922922.65475 1.62780519s-.21825 1.17807792-.65475 1.62791559z" fill="#1bb24b" fill-rule="evenodd"/></svg>