<?xml version="1.0" encoding="UTF-8" standalone="no"?>
<svg width="47px" height="73px" viewBox="0 0 47 73" version="1.1" xmlns="http://www.w3.org/2000/svg" xmlns:xlink="http://www.w3.org/1999/xlink">
    <!-- Generator: Sketch 3.6.1 (26313) - http://www.bohemiancoding.com/sketch -->
    <title>logo-mobile</title>
    <desc>Created with Sketch.</desc>
    <defs></defs>
    <g id="Mobile" stroke="none" stroke-width="1" fill="none" fill-rule="evenodd">
        <g id="M01---Mobile-Detail" transform="translate(-13.000000, -16.000000)">
            <g id="Header" transform="translate(-48.000000, -26.000000)">
                <g id="logo-mobile" transform="translate(61.000000, 41.000000)">
                    <path d="M5.04266149,64.3803374 L43.1643472,64.3803374 L43.1643472,5.10599322 L5.04266149,5.10599322 L5.04266149,64.3803374 Z" id="Fill-1" fill="#1BB24B"></path>
                    <g id="Group-26" transform="translate(11.158534, 23.082640)">
                        <path d="M20.4479059,4.01408354 C20.4479059,4.01408354 18.3294972,-0.0928485108 11.6092972,1.30058113 C4.88898072,2.69401077 2.91670126,9.2944916 3.13577868,13.1081131 C3.35497263,16.9217347 4.20809275,19.1842152 5.96292621,21.8405062 C7.69433704,24.4613473 6.9342083,26.162478 5.61939417,26.6025023 C5.61939417,26.6025023 13.1431888,31.9561502 20.9592419,26.6757422 C20.9592419,26.6757422 19.0600271,26.0891212 19.2791046,24.5489778 C19.4982985,23.0088344 22.2740561,21.1020236 23.9541935,17.8751401 C25.6342143,14.6482565 26.3647443,5.55422693 20.4479059,4.01408354" id="Fill-2" fill="#4C360D"></path>
                        <path d="M3.70914392,38.610625 L7.131646,34.0147641 C7.131646,34.0147641 7.87744148,35.3526204 8.46254135,38.610625 L18.5360242,38.610625 C18.8630089,35.0378995 19.3061746,33.0369064 19.3061746,33.0369064 L24.5534285,38.610625 L28.3079261,38.610625 C25.9745185,35.5262433 21.4222528,29.5015028 21.2540992,29.2232849 C21.0274473,28.8495977 20.7290126,27.9835888 20.1932051,28.0048822 C19.0626258,28.0498089 15.7755322,25.9962844 15.8064128,24.8953462 C15.8420711,23.627454 15.8064128,21.554508 15.8064128,21.554508 L11.5714597,21.554508 L11.5714597,24.8953462 C11.5714597,26.1645255 9.87943623,27.2405433 8.10176278,27.8358221 C6.32292402,28.4305159 5.38182335,29.1061713 5.38182335,29.1061713 L0.112778261,38.610625 L3.70914392,38.610625 Z" id="Fill-4" fill="#F3D9A6"></path>
                        <path d="M22.2280032,11.9152859 C22.2280032,18.1052256 19.3281406,23.1777307 13.7057749,23.1777307 C8.08399187,23.1777307 4.96202206,18.0512902 4.96202206,11.8613505 C4.96202206,5.67024077 8.17884774,5.040799 13.8006308,5.040799 C19.4229965,5.040799 22.2280032,5.72417621 22.2280032,11.9152859" id="Fill-6" fill="#F4D89A"></path>
                        <path d="M11.7033723,15.5341315 C11.7033723,16.3842289 11.0085007,17.0739239 10.1527004,17.0739239 C9.29620086,17.0739239 8.60272759,16.3842289 8.60272759,15.5341315 C8.60272759,14.6839171 9.29620086,13.9946901 10.1527004,13.9946901 C11.0085007,13.9946901 11.7033723,14.6839171 11.7033723,15.5341315" id="Fill-8" fill="#00ADE9"></path>
                        <path d="M11.3045116,15.5337922 C11.3045116,16.127082 10.8247553,16.608991 10.2341785,16.608991 C9.64290253,16.608991 9.16384547,16.127082 9.16384547,15.5337922 C9.16384547,14.9415553 9.64290253,14.4595293 10.2341785,14.4595293 C10.8247553,14.4595293 11.3045116,14.9415553 11.3045116,15.5337922" id="Fill-10" fill="#234471"></path>
                        <path d="M9.78319366,14.9770053 C9.78319366,15.1484054 9.64428925,15.2885673 9.47392159,15.2885673 C9.30285475,15.2885673 9.16395034,15.1484054 9.16395034,14.9770053 C9.16395034,14.8056053 9.30285475,14.6668473 9.47392159,14.6668473 C9.64428925,14.6668473 9.78319366,14.8056053 9.78319366,14.9770053" id="Fill-12" fill="#FFFFFF"></path>
                        <path d="M10.3467587,19.3062309 C11.4076527,19.9519352 12.5433594,20.3506597 13.6943316,20.3358011 C14.8522956,20.3358011 15.9616664,19.8860661 17.0647445,19.3062309 C16.6595678,19.7858 16.152893,20.1834715 15.5781644,20.4698792 C15.0046011,20.7609668 14.3551763,20.9197312 13.7000416,20.9299099 C13.0454895,20.9310799 12.3915201,20.7844831 11.8139948,20.4979584 C11.2369355,20.2159966 10.7159274,19.8184421 10.3467587,19.3062309" id="Fill-14" fill="#C42C76"></path>
                        <path d="M18.9434267,6.95860745 C18.9434267,6.95860745 18.6839132,8.89583735 19.7349021,11.7626053 C20.8887876,14.9099312 22.1306536,16.0711225 23.2993384,15.2399786 C23.2993384,15.2399786 22.0368465,15.6726321 22.3863216,14.3231932 C22.861067,12.4897393 23.8379426,9.39201998 22.3740859,7.27052042 C21.1147403,5.44525629 19.7540131,5.73751382 19.7540131,5.73751382 C19.7540131,5.73751382 18.6582764,1.99724915 13.7058448,1.94892955 C6.5920047,1.87966756 1.71147245,10.8712081 5.40024683,17.0684016 C5.40024683,17.0684016 4.19555406,12.3057036 6.71517749,12.0080642 C9.23410173,11.7104248 18.2529832,8.54625147 18.9434267,6.80967077" id="Fill-16" fill="#5F3F12"></path>
                        <path d="M19.2733013,7.45455609 C19.2733013,7.45455609 18.3349974,9.28730801 15.1885562,10.8345882 C12.6878107,12.0643396 9.80437891,12.2619469 7.02862135,12.188707 C7.02862135,12.188707 6.07901394,13.8020902 6.15207859,16.4423528 C6.22502671,19.0824983 7.55510634,21.8720485 7.55510634,21.8720485 C7.55510634,21.8720485 2.36879794,14.0248518 6.42289558,7.68106153 C11.1635912,0.262891386 18.5487144,3.90405993 19.6809252,6.1041812 C19.6809252,6.1041812 19.6989874,6.81423364 19.2733013,7.45455609" id="Fill-18" fill="#754B1D"></path>
                        <path d="M12.3669322,10.6479084 C12.3669322,10.6479084 16.0985898,9.82916611 17.7342125,6.96497207 C17.7342125,6.96497207 16.6595678,8.19285151 15.050281,8.80649873 C15.050281,8.80649873 16.1916977,7.8444356 16.4101925,7.33011849 C16.4101925,7.33011849 13.293117,7.29958238 10.8854794,8.97427187 C10.8854794,8.97427187 13.4153575,5.99799508 18.5781267,6.10984384 C18.5781267,6.10984384 17.9613306,9.6432585 12.3669322,10.6479084" id="Fill-20" fill="#A26527"></path>
                        <path d="M23.4157175,10.3848883 C23.7159002,9.52426124 23.9241402,8.64994557 24.0870499,7.77562989 C24.2377239,6.89955927 24.3262871,6.01717082 24.2997182,5.13934525 C24.2723335,3.37761027 23.7735828,1.66045101 22.8595172,0.0801777778 C23.4976384,0.731029927 24.0174812,1.51947009 24.3519239,2.39039287 C24.6980196,3.25675277 24.8660566,4.19237467 24.8918099,5.12507166 C24.9182623,6.98835969 24.4157826,8.85387066 23.4157175,10.3848883" id="Fill-22" fill="#A26527"></path>
                        <path d="M21.5434795,11.5279686 C21.2432968,11.1559194 21.0007967,10.7406984 20.7776407,10.3161177 C20.5584468,9.88791011 20.3821361,9.43665418 20.240668,8.97147566 C19.9724147,8.04380952 19.6809718,6.1042397 19.6809718,6.1042397 C19.6809718,6.1042397 21.146926,6.49816729 21.7300449,7.60554022 C22.3132803,8.71279615 22.2766897,9.95962904 22.2766897,9.95962904 C22.2766897,9.95962904 21.9577456,8.84196041 21.4732116,8.0894382 C20.9886776,7.336916 20.5092709,7.20541181 20.3044102,6.98931907 C20.3044102,6.98931907 20.4875962,8.14583057 20.6697335,9.04284359 C20.8551336,9.94161156 21.1958689,10.6425383 21.5434795,11.5279686" id="Fill-24" fill="#A26527"></path>
                    </g>
                    <path d="M18.5457548,41.3798566 C18.5457548,42.1785925 19.1912175,42.8265197 19.9873542,42.8265197 L19.9873542,42.8265197 C20.7827917,42.8265197 21.428837,42.1785925 21.428837,41.3798566 L21.428837,41.3798566 C21.428837,40.5799508 20.7827917,39.9320235 19.9873542,39.9320235 L19.9873542,39.9320235 C19.1912175,39.9320235 18.5457548,40.5799508 18.5457548,41.3798566" id="Fill-27"></path>
                    <path d="M27.7581935,41.3798566 C27.7581935,42.1785925 28.4048215,42.8265197 29.200259,42.8265197 L29.200259,42.8265197 C29.995813,42.8265197 30.6412757,42.1785925 30.6412757,41.3798566 L30.6412757,41.3798566 C30.6412757,40.5799508 29.995813,39.9320235 29.200259,39.9320235 L29.200259,39.9320235 C28.4048215,39.9320235 27.7581935,40.5799508 27.7581935,41.3798566" id="Fill-29"></path>
                    <g id="Group-81" transform="translate(0.000000, 0.065518)">
                        <path d="M21.8938522,54.0983008 L27.6645612,54.0983008 L25.2540104,58.718614 L21.8938522,54.0983008 Z" id="Fill-31" fill="#C42C76"></path>
                        <path d="M18.0913789,57.3247515 C18.0913789,57.3247515 18.131582,56.9425236 18.1496442,56.3669002 C18.167823,55.7918619 18.1666577,55.0224922 18.0854359,54.2603762 C18.0655092,54.0699058 18.0385906,53.8803713 18.0093414,53.6943466 C17.9764798,53.509024 17.9442009,53.3267433 17.9036482,53.1524183 C17.8640278,52.9779764 17.8176487,52.8113732 17.769405,52.6549487 C17.7456328,52.576561 17.7218606,52.5005132 17.6940098,52.4287943 C17.66814,52.3562564 17.6422702,52.2865264 17.6125549,52.2215933 C17.5580186,52.0896211 17.4995203,51.9723905 17.4431195,51.8711884 C17.4136373,51.8212309 17.3860196,51.7744322 17.3604994,51.7311435 C17.3320659,51.6898437 17.3058465,51.6518198 17.2821908,51.6175398 C17.2373266,51.5466398 17.1897821,51.5007772 17.162747,51.4649762 C17.133964,51.4304622 17.118582,51.4120937 17.118582,51.4120937 L17.1244085,51.4063609 C17.1244085,51.4063609 17.1410723,51.4235594 17.1725356,51.4558505 C17.2022509,51.4894285 17.2538739,51.5324833 17.3044482,51.6002243 C17.3309006,51.6332173 17.3602663,51.6697203 17.3921957,51.7093821 C17.4202795,51.7519689 17.450694,51.7979486 17.483206,51.8470871 C17.5448507,51.9472362 17.6129045,52.0623609 17.6717524,52.1951521 C17.7039149,52.2603192 17.7322318,52.3304001 17.7606653,52.403289 C17.7911963,52.4754759 17.8174156,52.5518747 17.8439846,52.6307304 C17.8992201,52.7876229 17.9414041,52.958087 17.9827725,53.1342839 C18.0233251,53.3107147 18.057352,53.4946334 18.0853193,53.68253 C18.1109561,53.8706605 18.1341456,54.06195 18.1503434,54.2539414 C18.2193295,55.0216732 18.2103566,55.7926809 18.1781942,56.3681872 C18.1477797,56.9441615 18.0995361,57.3256875 18.0995361,57.3256875 L18.0913789,57.3247515 Z" id="Fill-33" fill="#064C6C"></path>
                        <path d="M31.0449841,56.8364895 C31.0449841,56.8364895 31.021445,56.4726301 31.0332146,55.9261389 C31.0428866,55.3799987 31.0954419,54.6505248 31.2322487,53.9325166 C31.2673244,53.7533948 31.305663,53.574624 31.3513429,53.400533 C31.3964403,53.2262081 31.4479468,53.056329 31.5073773,52.8951077 C31.5349951,52.813795 31.5664583,52.7354073 31.5981546,52.6590085 C31.6276369,52.5816738 31.6630622,52.5086679 31.6976717,52.4378849 C31.7670074,52.296319 31.8404216,52.1662188 31.9153508,52.0508601 C31.9501934,51.9914259 31.9909791,51.9393624 32.0282689,51.8889368 C32.0645099,51.8378093 32.1015666,51.7913617 32.139206,51.7499449 C32.2094739,51.6630164 32.2805575,51.5960943 32.3388228,51.5413399 C32.3956897,51.4852985 32.4487111,51.4504335 32.480757,51.4223543 C32.5140847,51.3957961 32.5317974,51.3815225 32.5317974,51.3815225 L32.5368082,51.3879573 C32.5368082,51.3879573 32.5203774,51.4035179 32.4893802,51.43265 C32.459665,51.4631862 32.4103725,51.501561 32.3585164,51.5614633 C32.3059612,51.6206636 32.2405875,51.6906276 32.1755635,51.779428 C32.1408374,51.8218978 32.106927,51.8693984 32.0739489,51.9216959 C32.040155,51.9730574 32.0032148,52.0261739 31.9703532,52.0852571 C31.9003183,52.2007328 31.832148,52.330599 31.7684058,52.471697 C31.7050132,52.6129119 31.6391734,52.7627845 31.5837049,52.9228359 C31.5246239,53.0814833 31.4752149,53.2497244 31.4255729,53.4206565 C31.3766301,53.5920565 31.3347956,53.7683704 31.296224,53.9455033 C31.1478806,54.6560237 31.0854202,55.3825726 31.0617645,55.9270749 C31.0377593,56.4721621 31.0531413,56.8360215 31.0531413,56.8360215 L31.0449841,56.8364895 Z" id="Fill-35" fill="#064C6C"></path>
                        <path d="M27.0172108,38.5512529 C27.0172108,39.4013503 27.7120824,40.0910453 28.5678827,40.0910453 C29.4243822,40.0910453 30.1178555,39.4013503 30.1178555,38.5512529 C30.1178555,37.7010386 29.4243822,37.0118115 28.5678827,37.0118115 C27.7120824,37.0118115 27.0172108,37.7010386 27.0172108,38.5512529" id="Fill-37" fill="#00ADE9"></path>
                        <path d="M27.4160715,38.5509136 C27.4160715,39.1442035 27.8958278,39.6261125 28.4864046,39.6261125 C29.0776805,39.6261125 29.5567376,39.1442035 29.5567376,38.5509136 C29.5567376,37.9586768 29.0776805,37.4766508 28.4864046,37.4766508 C27.8958278,37.4766508 27.4160715,37.9586768 27.4160715,38.5509136" id="Fill-39" fill="#234471"></path>
                        <path d="M27.4766441,37.9941268 C27.4766441,38.1655268 27.6155485,38.3056887 27.7859162,38.3056887 C27.956983,38.3056887 28.0958874,38.1655268 28.0958874,37.9941268 C28.0958874,37.8227267 27.956983,37.6839688 27.7859162,37.6839688 C27.6155485,37.6839688 27.4766441,37.8227267 27.4766441,37.9941268" id="Fill-41" fill="#FFFFFF"></path>
                        <path d="M25.497501,49.9791075 C25.497501,50.2964024 25.2413668,50.5535609 24.925336,50.5535609 C24.6093052,50.5535609 24.3530545,50.2964024 24.3530545,49.9791075 C24.3530545,49.6618127 24.6093052,49.4046542 24.925336,49.4046542 C25.2413668,49.4046542 25.497501,49.6618127 25.497501,49.9791075" id="Fill-43" fill="#00ADE9"></path>
                        <path id="Fill-45" fill="#FFFEEF" d="M25.484953,49.9467596 C25.484953,50.0848134 25.3730068,50.1967596 25.234953,50.1967596 C25.0968992,50.1967596 24.984953,50.0848134 24.984953,49.9467596 C24.984953,49.8087058 25.0968992,49.6967596 25.234953,49.6967596 C25.3730068,49.6967596 25.484953,49.8087058 25.484953,49.9467596"></path>
                        <path d="M24.353171,49.8935362 C24.353171,50.1635644 24.1351424,50.3825821 23.8660734,50.3825821 C23.5971209,50.3825821 23.3790922,50.1635644 23.3790922,49.8935362 C23.3790922,49.623508 23.5971209,49.4044904 23.8660734,49.4044904 C24.1351424,49.4044904 24.353171,49.623508 24.353171,49.8935362" id="Fill-47" fill="#00ADE9"></path>
                        <path id="Fill-49" fill="#FFFEEF" d="M24.4168807,49.9032018 C24.4168807,50.0412129 24.3048918,50.1532018 24.1668807,50.1532018 C24.0288695,50.1532018 23.9168807,50.0412129 23.9168807,49.9032018 C23.9168807,49.7651906 24.0288695,49.6532018 24.1668807,49.6532018 C24.3048918,49.6532018 24.4168807,49.7651906 24.4168807,49.9032018"></path>
                        <path d="M23.4296082,49.6001789 C23.4296082,49.8442339 23.2325551,50.0419581 22.9895889,50.0419581 C22.7465062,50.0419581 22.549453,49.8442339 22.549453,49.6001789 C22.549453,49.356124 22.7465062,49.1583997 22.9895889,49.1583997 C23.2325551,49.1583997 23.4296082,49.356124 23.4296082,49.6001789" id="Fill-51" fill="#00ADE9"></path>
                        <path id="Fill-53" fill="#FFFEEF" d="M23.5354553,49.6330566 C23.5354553,49.7711739 23.4235726,49.8830566 23.2854553,49.8830566 C23.147338,49.8830566 23.0354553,49.7711739 23.0354553,49.6330566 C23.0354553,49.4949393 23.147338,49.3830566 23.2854553,49.3830566 C23.4235726,49.3830566 23.5354553,49.4949393 23.5354553,49.6330566"></path>
                        <path d="M22.7521695,49.0501428 C22.7521695,49.2628426 22.58052,49.4351786 22.3686675,49.4351786 C22.156815,49.4351786 21.9851655,49.2628426 21.9851655,49.0501428 C21.9851655,48.8374429 22.156815,48.6651069 22.3686675,48.6651069 C22.58052,48.6651069 22.7521695,48.8374429 22.7521695,49.0501428" id="Fill-55" fill="#00ADE9"></path>
                        <path id="Fill-57" fill="#FFFEEF" d="M22.9086958,49.1109241 C22.9086958,49.2490587 22.7968304,49.3609241 22.6586958,49.3609241 C22.5205612,49.3609241 22.4086958,49.2490587 22.4086958,49.1109241 C22.4086958,48.9727895 22.5205612,48.8609241 22.6586958,48.8609241 C22.7968304,48.8609241 22.9086958,48.9727895 22.9086958,49.1109241"></path>
                        <path d="M25.4792173,49.783536 C25.4792173,50.0535642 25.697246,50.2725818 25.966315,50.2725818 C26.2352675,50.2725818 26.4532962,50.0535642 26.4532962,49.783536 C26.4532962,49.5135078 26.2352675,49.2944902 25.966315,49.2944902 C25.697246,49.2944902 25.4792173,49.5135078 25.4792173,49.783536" id="Fill-59" fill="#00ADE9"></path>
                        <path id="Fill-61" fill="#FFFEEF" d="M25.907805,49.6876238 C25.907805,49.825635 26.0197939,49.9376238 26.157805,49.9376238 C26.2958162,49.9376238 26.407805,49.825635 26.407805,49.6876238 C26.407805,49.5496127 26.2958162,49.4376238 26.157805,49.4376238 C26.0197939,49.4376238 25.907805,49.5496127 25.907805,49.6876238"></path>
                        <path d="M26.4027802,49.4901787 C26.4027802,49.7342336 26.5998333,49.9319579 26.8427995,49.9319579 C27.0858822,49.9319579 27.2829354,49.7342336 27.2829354,49.4901787 C27.2829354,49.2461238 27.0858822,49.0483995 26.8427995,49.0483995 C26.5998333,49.0483995 26.4027802,49.2461238 26.4027802,49.4901787" id="Fill-63" fill="#00ADE9"></path>
                        <path id="Fill-65" fill="#FFFEEF" d="M26.716492,49.4008183 C26.716492,49.5389356 26.8283748,49.6508183 26.966492,49.6508183 C27.1046093,49.6508183 27.216492,49.5389356 27.216492,49.4008183 C27.216492,49.2627011 27.1046093,49.1508183 26.966492,49.1508183 C26.8283748,49.1508183 26.716492,49.2627011 26.716492,49.4008183"></path>
                        <path d="M27.0802188,48.9401308 C27.0802188,49.1528307 27.2518683,49.3251667 27.4637209,49.3251667 C27.6755734,49.3251667 27.8472229,49.1528307 27.8472229,48.9401308 C27.8472229,48.727431 27.6755734,48.555095 27.4637209,48.555095 C27.2518683,48.555095 27.0802188,48.727431 27.0802188,48.9401308" id="Fill-67" fill="#00ADE9"></path>
                        <path id="Fill-69" fill="#FFFEEF" d="M27.3236861,48.9031381 C27.3236861,49.0412727 27.4355515,49.1531381 27.5736861,49.1531381 C27.7118207,49.1531381 27.8236861,49.0412727 27.8236861,48.9031381 C27.8236861,48.7650036 27.7118207,48.6531381 27.5736861,48.6531381 C27.4355515,48.6531381 27.3236861,48.7650036 27.3236861,48.9031381"></path>
                        <path d="M18.0954342,57.3252078 C18.0954342,57.3252078 18.9766382,59.2054603 19.5383154,61.6277582 L30.2474724,61.6277582 C30.4581596,58.9866767 31.049086,56.8362789 31.049086,56.8362789 L34.0791132,59.8611093 L36.6980207,57.3252078 C35.2355624,55.1631104 32.8614856,51.8181773 32.6803971,51.482514 C32.3639002,50.895776 30.966932,50.7175902 30.4646853,50.5291086 C29.4530837,50.1495716 29.0587443,50.0888504 28.1367547,49.445486 C27.4453789,51.9714428 25.0104732,56.9340881 25.0104732,56.9340881 C25.0104732,56.9340881 22.1860059,51.5314186 21.9299883,49.4251286 C21.2699593,50.0209923 20.7628184,50.2448068 19.7511002,50.5780132 C19.2497858,50.7430954 18.0467244,51.0180375 17.1214719,51.4091571 C16.1962194,51.8002768 13.4204618,57.8141366 13.4204618,57.8141366 L15.9526706,60.1609716 L18.0954342,57.3252078 Z" id="Fill-71" fill="#F99D1C"></path>
                        <path d="M44.1024763,36.6412014 L21.6415635,68.9296922 L26.7398914,68.9296922 L44.1024763,44.4440564 L41.5977688,68.3018884 L13.896827,69.8110276 L44.1024763,30.1776066 L44.1024763,36.6412014 Z" id="Fill-73" fill="#BFE1C7" opacity="0.376515858"></path>
                        <g id="Group-77" transform="translate(0.903846, 0.904762)"></g>
                        <g id="Group-80" transform="translate(0.400513, 0.320136)">
                            <path d="M41.6513175,59.3808522 C41.6513175,59.8422869 41.2787694,60.216325 40.8191729,60.216325 L5.63102715,60.216325 C5.17143068,60.216325 4.79888253,59.8422869 4.79888253,59.3808522 L4.79888253,5.90193515 C4.85038903,5.58194942 5.02937995,5.24956205 5.5827835,5.21481405 L17.2530844,5.21481405 L17.2530844,5.21481405 L40.8192895,5.21481405 C41.2787694,5.21481405 41.651201,5.58873522 41.6513175,6.05016986 L41.6513175,26.760676 L41.6513175,26.760676 L41.6513175,59.3808522 Z M22.4046667,70.1887652 C20.6877057,70.1887652 19.2959814,68.7914747 19.2959814,67.0676466 C19.2959814,65.3439355 20.6877057,63.946528 22.4046667,63.946528 C24.1216278,63.946528 25.5133521,65.3439355 25.5133521,67.0676466 C25.5133521,68.7914747 24.1216278,70.1887652 22.4046667,70.1887652 L22.4046667,70.1887652 Z M39.2164118,0.636034671 L38.3842672,0.636034671 L13.7976042,0.636034671 L7.23367172,0.636034671 C3.51658042,0.636034671 0.503333611,3.66133305 0.503333611,7.39329096 L0.503333611,65.7637194 C0.503333611,69.9571119 3.8892451,73.3564484 8.06581634,73.3564484 L38.3842672,73.3564484 C42.560955,73.3564484 45.9467499,69.9571119 45.9467499,65.7637194 L45.9467499,31.8435938 L45.9468665,31.8437108 L45.9468665,7.39329096 C45.9468665,3.66133305 42.9335031,0.636034671 39.2164118,0.636034671 L39.2164118,0.636034671 Z" id="Fill-75" fill="#F0F0F0"></path>
                            <path d="M25.5133754,67.06767 C25.5133754,68.7913811 24.1215346,70.1887886 22.40469,70.1887886 C20.687729,70.1887886 19.2960047,68.7913811 19.2960047,67.06767 C19.2960047,65.3439589 20.687729,63.9465514 22.40469,63.9465514 C24.1215346,63.9465514 25.5133754,65.3439589 25.5133754,67.06767 L25.5133754,67.06767 Z M10.024252,73.3564718 L38.3842905,73.3564718 C42.5609783,73.3564718 45.9467732,69.9571353 45.9467732,65.7637428 L45.9467732,31.8436172 L45.9468898,31.8437342 L45.9468898,27.2027126 L41.6513409,32.7216768 L41.6513409,59.3808756 C41.6513409,59.8423103 41.2787927,60.2163484 40.8190797,60.2163484 L20.2515552,60.2163484 L10.024252,73.3564718 Z" id="Fill-78" fill="#FFFFFF"></path>
                        </g>
                    </g>
                </g>
            </g>
        </g>
    </g>
</svg>