<?xml version="1.0" encoding="UTF-8" standalone="no"?>
<svg width="101px" height="86px" viewBox="0 0 101 86" version="1.1" xmlns="http://www.w3.org/2000/svg" xmlns:xlink="http://www.w3.org/1999/xlink">
    <!-- Generator: Sketch 3.6.1 (26313) - http://www.bohemiancoding.com/sketch -->
    <title>logo-desktop</title>
    <desc>Created with Sketch.</desc>
    <defs></defs>
    <g id="Page-1" stroke="none" stroke-width="1" fill="none" fill-rule="evenodd">
        <g id="logo-desktop">
            <path d="M3.25851165,4.03317148 L97.4425791,4.03317148 L97.4425791,62.6619121 L3.25851165,62.6619121 L3.25851165,4.03317148 L3.25851165,4.03317148 Z" id="Fill-1" fill="#1BB24B"></path>
            <path d="M59.9881846,14.8548704 C59.9881846,14.8548704 57.0592219,9.18979589 47.767829,11.1119855 C38.4764365,13.0338487 35.7496342,22.1384678 36.0526303,27.3990341 C36.3554635,32.6594371 37.5350307,35.7803028 39.9614433,39.4443749 C42.3551128,43.0594946 41.3042376,45.4059366 39.4864237,46.0129436 C39.4864237,46.0129436 49.8886391,53.3978722 60.6950127,46.1141114 C60.6950127,46.1141114 58.069209,45.3049316 58.3722052,43.1804065 C58.6752013,41.0560442 62.5129895,38.4258427 64.835797,33.9746195 C67.1586045,29.5235594 68.1685916,16.9793958 59.9881846,14.8548704" id="Fill-2" fill="#4C360D"></path>
            <path d="M36.8451444,62.5768986 L41.5772598,56.2372627 C41.5772598,56.2372627 42.6082613,58.0829237 43.4172281,62.5768986 L57.3447876,62.5768986 C57.7970011,57.6487177 58.4095097,54.8886297 58.4095097,54.8886297 L65.6643121,62.5768986 L70.8553202,62.5768986 C67.6292256,58.3223001 61.335377,50.0118486 61.1027543,49.6282265 C60.7893326,49.1125967 60.3767039,47.918 59.6359923,47.9475343 C58.0729558,48.0095405 53.5281766,45.1770034 53.5708568,43.6581797 C53.620053,41.909281 53.5708568,39.0499832 53.5708568,39.0499832 L47.7157008,39.0499832 L47.7157008,43.6581797 C47.7157008,45.4088734 45.3762774,46.8931043 42.9184249,47.7143588 C40.4591062,48.5346344 39.158015,49.466358 39.158015,49.466358 L31.8729127,62.5768986 L36.8451444,62.5768986" id="Fill-3" fill="#F3D9A6"></path>
            <path d="M62.4491321,25.7535876 C62.4491321,34.2919929 58.4399722,41.2888936 50.6664921,41.2888936 C42.8939898,41.2888936 38.5774352,34.2175855 38.5774352,25.6793434 C38.5774352,17.1393063 43.0249624,16.2710575 50.7976275,16.2710575 C58.5711077,16.2710575 62.4491321,17.2137136 62.4491321,25.7535876" id="Fill-4" fill="#F4D89A"></path>
            <path d="M47.897987,30.7454062 C47.897987,31.9181377 46.9373593,32.869442 45.7540451,32.869442 C44.5697538,32.869442 43.6110807,31.9181377 43.6110807,30.7454062 C43.6110807,29.5726748 44.5697538,28.6218599 45.7540451,28.6218599 C46.9373593,28.6218599 47.897987,29.5726748 47.897987,30.7454062" id="Fill-5" fill="#00ADE9"></path>
            <path d="M47.3465669,30.7450799 C47.3465669,31.5633974 46.6832332,32.2281683 45.866773,32.2281683 C45.0493348,32.2281683 44.3869786,31.5633974 44.3869786,30.7450799 C44.3869786,29.9280677 45.0493348,29.2631337 45.866773,29.2631337 C46.6832332,29.2631337 47.3465669,29.9280677 47.3465669,30.7450799" id="Fill-6" fill="#234471"></path>
            <path d="M45.2431874,29.9770199 C45.2431874,30.213459 45.051127,30.4068202 44.8155717,30.4068202 C44.5790394,30.4068202 44.3869786,30.213459 44.3869786,29.9770199 C44.3869786,29.7405808 44.5790394,29.5490145 44.8155717,29.5490145 C45.051127,29.5490145 45.2431874,29.7405808 45.2431874,29.9770199" id="Fill-7" fill="#FFFFFF"></path>
            <path d="M46.0223435,35.9486984 C47.4891055,36.839302 49.0593094,37.3893615 50.6506908,37.3688016 C52.2516833,37.3688016 53.7853976,36.7484141 55.310641,35.9486984 C54.7504239,36.6100426 54.049786,37.1586335 53.2553173,37.5538409 C52.4623145,37.9552489 51.5644035,38.1742284 50.6586729,38.1884246 C49.7535941,38.1900563 48.8493299,37.9877205 48.0509515,37.5925131 C47.2532246,37.2036695 46.5328755,36.6552418 46.0223435,35.9486984" id="Fill-8" fill="#C42C76"></path>
            <path d="M57.9079368,18.9164342 C57.9079368,18.9164342 57.5492285,21.5887346 59.0023068,25.5430931 C60.5975979,29.8845003 62.314576,31.4862161 63.9305553,30.3397557 C63.9305553,30.3397557 62.1849065,30.9366461 62.6679086,29.0751573 C63.3245631,26.5461236 64.6753394,22.2730863 62.6511295,19.346724 C60.9098792,16.8289494 59.0286968,17.2321523 59.0286968,17.2321523 C59.0286968,17.2321523 57.5137161,12.0727539 50.6664921,12.0063421 C40.8311726,11.910559 34.0831554,24.3135771 39.1834275,32.8617728 C39.1832647,32.8617728 37.5179261,26.2922249 41.0012415,25.8816791 C44.4840677,25.4709702 56.9533361,21.1065555 57.9079368,18.7109982 L57.9079368,18.9164342" id="Fill-9" fill="#5F3F12"></path>
            <path d="M58.3640603,19.6004596 C58.3640603,19.6004596 57.0667154,22.1288405 52.716603,24.2629931 C49.2591893,25.9593499 45.2725095,26.2318505 41.4347213,26.1308458 C41.4347213,26.1308458 40.121738,28.3563758 40.2228996,31.9982561 C40.3237355,35.6401364 42.1627267,39.4879422 42.1627267,39.4879422 C42.1627267,39.4879422 34.9923067,28.6634693 40.5972466,19.9129378 C47.1515741,9.68046008 57.3623809,14.7031186 58.9275352,17.7379917 C58.9275352,17.7379917 58.9527849,18.7175251 58.3640603,19.6004596" id="Fill-10" fill="#754B1D"></path>
            <path d="M48.8154464,24.0055046 C48.8154464,24.0055046 53.9748516,22.8761774 56.2360824,18.9252456 C56.2360824,18.9252456 54.7504239,20.6189916 52.5253573,21.4653751 C52.5253573,21.4653751 54.1035436,20.1384442 54.4055622,19.4289637 C54.4055622,19.4289637 50.0960126,19.3867016 46.7671275,21.696919 C46.7671275,21.696919 50.2649408,17.5914614 57.4031061,17.7456608 C57.4031061,17.7456608 56.5501559,22.6196679 48.8154464,24.0055046" id="Fill-11" fill="#A26527"></path>
            <path d="M57.7289084,17.4374252 C56.5439656,17.0216578 55.3398003,16.7331662 54.1357978,16.5076598 C52.9293521,16.2989602 51.7142723,16.1764166 50.5055459,16.2131308 C48.0792962,16.2511503 45.714786,16.9418658 43.5385894,18.2076064 C44.4348716,17.3240193 45.5206077,16.6039324 46.719886,16.1410078 C47.9128111,15.6614395 49.2011965,15.4289165 50.4858347,15.3931814 C53.0516909,15.3564673 55.6208049,16.0522412 57.7289084,17.4374252" id="Fill-12" fill="#A26527"></path>
            <path d="M61.5028395,25.2193559 C61.0879302,24.7061737 60.7525166,24.133433 60.443982,23.5479647 C60.1409858,22.9571117 59.8971229,22.3346029 59.7016414,21.6930028 C59.3307154,20.4135556 58.9275352,17.7379917 58.9275352,17.7379917 C58.9275352,17.7379917 60.954514,18.2813611 61.7607119,19.8088328 C62.5670727,21.3361413 62.5165734,23.0559952 62.5165734,23.0559952 C62.5165734,23.0559952 62.0754368,21.5143273 61.4055875,20.4763776 C60.7357379,19.4382646 60.0728931,19.2568152 59.789771,18.9590226 C59.789771,18.9590226 60.0429192,20.5542116 60.2947646,21.7915599 C60.5511709,23.0311927 61.0221181,23.9979986 61.5028395,25.2193559" id="Fill-13" fill="#A26527"></path>
            <path d="M46.5595912,52.1908742 L54.5380009,52.1908742 L51.2052063,58.5641239 L46.5595912,52.1908742" id="Fill-20" fill="#C42C76"></path>
            <path d="M41.3022826,56.6414447 C41.3022826,56.6414447 41.3576691,56.1142294 41.3827559,55.3202249 C41.4076799,54.526873 41.4060506,53.4657524 41.2936488,52.4144223 C41.2659556,52.1517122 41.2288143,51.8903075 41.1884148,51.6337982 C41.1428025,51.3782676 41.0981674,51.1268164 41.0421295,50.8862981 C40.9873949,50.6456162 40.9232118,50.4158673 40.8565851,50.2001513 C40.8236791,50.0919672 40.7909359,49.9870463 40.7524914,49.8881627 C40.716653,49.7881372 40.6809777,49.6918643 40.6399264,49.6024452 C40.5645035,49.4203429 40.4837045,49.2586374 40.4058376,49.1189604 C40.3649496,49.0501012 40.3268304,48.9854844 40.2916441,48.9259257 C40.2522217,48.8688148 40.2160579,48.816436 40.1833148,48.7691154 C40.1214123,48.6712112 40.0557632,48.6078995 40.0182958,48.5586212 C39.9785481,48.5109744 39.9573709,48.4856825 39.9573709,48.4856825 L39.9653529,48.4775235 C39.9653529,48.4775235 39.9884847,48.5013471 40.0319796,48.5457305 C40.0731937,48.5922349 40.1445442,48.6514672 40.2144286,48.7449657 C40.2510814,48.7903283 40.2916441,48.8407489 40.3357903,48.8955756 C40.3747234,48.9541548 40.4167522,49.0176294 40.4617126,49.0853467 C40.547073,49.2235552 40.6412296,49.3823232 40.7225175,49.5654045 C40.7669895,49.6554766 40.8062486,49.7520756 40.8456706,49.8525908 C40.8876994,49.952127 40.9241893,50.0575372 40.960842,50.1663742 C41.0372424,50.3827432 41.095561,50.6178768 41.1527395,50.8610062 C41.2087774,51.1044616 41.2560186,51.3581974 41.2944634,51.6173174 C41.3299758,51.8767643 41.3620672,52.1407796 41.3843848,52.4056112 C41.4795189,53.4646101 41.4671387,54.5280153 41.4226664,55.3218566 C41.3804752,56.1163508 41.3135228,56.6427502 41.3135228,56.6427502 L41.3022826,56.6414447" id="Fill-21" fill="#064C6C"></path>
            <path d="M59.2117977,55.9678623 C59.2117977,55.9678623 59.1790545,55.4661023 59.1953447,54.7122385 C59.2087027,53.9588641 59.2811936,52.9525701 59.470159,51.9621043 C59.5187034,51.7148955 59.5716463,51.4683396 59.6348519,51.2281475 C59.69708,50.9876292 59.7684309,50.7533114 59.8505331,50.5310684 C59.8888147,50.4188045 59.9321467,50.3106204 59.9761297,50.2052098 C60.0168553,50.0986573 60.0657253,49.9979788 60.1136183,49.9002375 C60.2095671,49.7050814 60.3112176,49.5255903 60.4148227,49.3663325 C60.4630413,49.284419 60.5194053,49.2126223 60.571045,49.1431105 C60.6210554,49.072456 60.6723694,49.0084917 60.7244977,48.9513809 C60.8217496,48.831448 60.9198162,48.7390914 61.0004524,48.6637052 C61.0792963,48.5865238 61.152439,48.5382245 61.1969109,48.4997154 C61.2428493,48.4630012 61.2674471,48.4434204 61.2674471,48.4434204 L61.2744521,48.4523948 C61.2744521,48.4523948 61.2516459,48.4737705 61.2088029,48.5140745 C61.1677516,48.5560105 61.0996589,48.6090418 61.0279827,48.6917711 C60.9554915,48.7735214 60.8650816,48.8699571 60.7751599,48.9925007 C60.7272669,49.0510803 60.6803514,49.1166762 60.634902,49.1886359 C60.5881494,49.2596164 60.5371615,49.3328816 60.4915492,49.4144686 C60.3947858,49.5737263 60.300792,49.7528914 60.2124996,49.9473949 C60.1250214,50.1422246 60.0339597,50.348803 59.9572331,50.5695771 C59.8756199,50.7885568 59.8072015,51.0205904 59.7386199,51.2563766 C59.6708533,51.4926525 59.6131861,51.7359451 59.5595918,51.9802164 C59.3544991,52.9602393 59.2679988,53.9624542 59.2352556,54.7135441 C59.2018607,55.4652865 59.2232007,55.967373 59.2232007,55.967373 L59.2117977,55.9678623" id="Fill-22" fill="#064C6C"></path>
            <path d="M53.6430219,30.7454062 C53.6430219,31.9181377 54.60365,32.869442 55.7869639,32.869442 C56.9712552,32.869442 57.9300915,31.9181377 57.9300915,30.7454062 C57.9300915,29.5726748 56.9712552,28.6218599 55.7869639,28.6218599 C54.60365,28.6218599 53.6430219,29.5726748 53.6430219,30.7454062" id="Fill-23" fill="#00ADE9"></path>
            <path d="M54.1946053,30.7450799 C54.1946053,31.5633974 54.8577757,32.2281683 55.6743992,32.2281683 C56.4918374,32.2281683 57.1540304,31.5633974 57.1540304,30.7450799 C57.1540304,29.9280677 56.4918374,29.2631337 55.6743992,29.2631337 C54.8577757,29.2631337 54.1946053,29.9280677 54.1946053,30.7450799" id="Fill-24" fill="#234471"></path>
            <path d="M54.2783363,29.9770199 C54.2783363,30.213459 54.4703967,30.4068202 54.705952,30.4068202 C54.9424843,30.4068202 55.1345447,30.213459 55.1345447,29.9770199 C55.1345447,29.7405808 54.9424843,29.5490145 54.705952,29.5490145 C54.4703967,29.5490145 54.2783363,29.7405808 54.2783363,29.9770199" id="Fill-25" fill="#FFFFFF"></path>
            <path d="M51.541923,46.5088296 C51.541923,46.9464621 51.1876129,47.3013653 50.7507121,47.3013653 C50.3138112,47.3013653 49.9596643,46.9464621 49.9596643,46.5088296 C49.9596643,46.0711967 50.3138112,45.7164564 50.7507121,45.7164564 C51.1876129,45.7164564 51.541923,46.0711967 51.541923,46.5088296" id="Fill-26" fill="#00ADE9"></path>
            <path id="Fill-27" fill="#33BDEB" d="M51.0835031,46.1194964 C50.9451032,46.1194964 50.8333032,46.2314961 50.8333032,46.3694962 C50.8333032,46.5076963 50.9451032,46.6194964 51.0835031,46.6194964 C51.2215032,46.6194964 51.3333032,46.5076963 51.3333032,46.3694962 C51.3333032,46.2314961 51.2215032,46.1194964 51.0835031,46.1194964"></path>
            <path d="M49.9598272,46.3910177 C49.9598272,46.7633808 49.6582971,47.0655791 49.2863936,47.0655791 C48.9144905,47.0655791 48.6129604,46.7633808 48.6129604,46.3910177 C48.6129604,46.0183286 48.9144905,45.7164564 49.2863936,45.7164564 C49.6582971,45.7164564 49.9598272,46.0183286 49.9598272,46.3910177" id="Fill-28" fill="#00ADE9"></path>
            <path id="Fill-29" fill="#33BDEB" d="M49.6066495,46.0594484 C49.4684265,46.0594484 49.356767,46.1710554 49.356767,46.3092136 C49.356767,46.4473712 49.4684265,46.5594484 49.6066495,46.5594484 C49.7448725,46.5594484 49.856767,46.4473712 49.856767,46.3092136 C49.856767,46.1710554 49.7448725,46.0594484 49.6066495,46.0594484"></path>
            <path d="M48.6828449,45.9863464 C48.6828449,46.3228111 48.4104741,46.595638 48.0745719,46.595638 C47.7385069,46.595638 47.4659733,46.3228111 47.4659733,45.9863464 C47.4659733,45.6495553 47.7385069,45.3768916 48.0745719,45.3768916 C48.4104741,45.3768916 48.6828449,45.6495553 48.6828449,45.9863464" id="Fill-30" fill="#00ADE9"></path>
            <path id="Fill-31" fill="#33BDEB" d="M48.3878108,45.6867588 C48.249745,45.6867588 48.1379408,45.7988232 48.1379408,45.9366288 C48.1379408,46.0746944 48.249745,46.1867588 48.3878108,46.1867588 C48.526136,46.1867588 48.6379408,46.0746944 48.6379408,45.9366288 C48.6379408,45.7988232 48.526136,45.6867588 48.3878108,45.6867588"></path>
            <path d="M47.7463261,45.2275874 C47.7463261,45.5208109 47.5088163,45.7585556 47.2160829,45.7585556 C46.9233495,45.7585556 46.6856768,45.5208109 46.6856768,45.2275874 C46.6856768,44.9342006 46.9233495,44.6964559 47.2160829,44.6964559 C47.5088163,44.6964559 47.7463261,44.9342006 47.7463261,45.2275874" id="Fill-32" fill="#00ADE9"></path>
            <path id="Fill-33" fill="#33BDEB" d="M47.5213065,44.9665088 C47.3831797,44.9665088 47.2713065,45.0783824 47.2713065,45.2165085 C47.2713065,45.3546352 47.3831797,45.4665088 47.5213065,45.4665088 C47.6594332,45.4665088 47.7713065,45.3546352 47.7713065,45.2165085 C47.7713065,45.0783824 47.6594332,44.9665088 47.5213065,44.9665088"></path>
            <path d="M51.5165105,46.2391028 C51.5165105,46.6117923 51.8182035,46.9136642 52.1899437,46.9136642 C52.5618472,46.9136642 52.8633773,46.6117923 52.8633773,46.2391028 C52.8633773,45.8665765 52.5618472,45.5647046 52.1899437,45.5647046 C51.8182035,45.5647046 51.5165105,45.8665765 51.5165105,46.2391028" id="Fill-34" fill="#00ADE9"></path>
            <path id="Fill-35" fill="#33BDEB" d="M52.3594254,45.7619821 C52.2212025,45.7619821 52.1093076,45.8740065 52.1093076,46.0118646 C52.1093076,46.1499577 52.2212025,46.2619821 52.3594254,46.2619821 C52.4976476,46.2619821 52.6093076,46.1499577 52.6093076,46.0118646 C52.6093076,45.8740065 52.4976476,45.7619821 52.3594254,45.7619821"></path>
            <path d="M52.7936553,45.8344315 C52.7936553,46.1710594 53.0658632,46.4440495 53.4019282,46.4440495 C53.7378304,46.4440495 54.010364,46.1710594 54.010364,45.8344315 C54.010364,45.4979664 53.7378304,45.2251395 53.4019282,45.2251395 C53.0658632,45.2251395 52.7936553,45.4979664 52.7936553,45.8344315" id="Fill-36" fill="#00ADE9"></path>
            <path id="Fill-37" fill="#33BDEB" d="M53.4771684,45.3664485 C53.3393624,45.3664485 53.2272983,45.4783111 53.2272983,45.6164488 C53.2272983,45.7545858 53.3393624,45.8664485 53.4771684,45.8664485 C53.6152336,45.8664485 53.7272983,45.7545858 53.7272983,45.6164488 C53.7272983,45.4783111 53.6152336,45.3664485 53.4771684,45.3664485"></path>
            <path d="M53.730174,45.0756724 C53.730174,45.3690592 53.967521,45.6068035 54.2604173,45.6068035 C54.5533135,45.6068035 54.7906605,45.3690592 54.7906605,45.0756724 C54.7906605,44.7824485 54.5533135,44.5447041 54.2604173,44.5447041 C53.967521,44.5447041 53.730174,44.7824485 53.730174,45.0756724" id="Fill-38" fill="#00ADE9"></path>
            <path id="Fill-39" fill="#33BDEB" d="M54.3167416,44.6798122 C54.1785325,44.6798122 54.0668908,44.7919837 54.0668908,44.9298122 C54.0668908,45.0679392 54.1785325,45.1798122 54.3167416,45.1798122 C54.4549508,45.1798122 54.5668908,45.0679392 54.5668908,44.9298122 C54.5668908,44.7919837 54.4549508,44.6798122 54.3167416,44.6798122"></path>
            <path d="M41.3079844,56.6420973 C41.3079844,56.6420973 42.5261592,59.2355848 43.3028718,62.5768986 L58.10912,62.5768986 C58.4003869,58.9338758 59.2174994,55.9675363 59.2174994,55.9675363 L63.4068281,60.140058 L67.0276319,56.6420973 C65.0057027,53.6596033 61.7234074,49.0456953 61.4730285,48.5827708 C61.035313,47.7734278 59.103794,47.5276878 58.4095097,47.2675883 C57.0108404,46.7439632 56.4656102,46.6602549 55.1909086,45.7729146 C54.2351676,49.257169 50.8686527,56.1024811 50.8686527,56.1024811 C50.8686527,56.1024811 46.9635861,48.6501616 46.6096021,45.7448487 C45.6970298,46.5667563 44.9957405,46.8754815 43.5970712,47.3351423 C42.9040897,47.5627703 41.2405431,47.9419864 39.9612805,48.481603 C38.6821806,49.0210563 34.8443925,57.3164954 34.8443925,57.3164954 L38.3454639,60.5537041 L41.3079844,56.6420973" id="Fill-40" fill="#F99D1C"></path>
            <path d="M97.4425791,49.2599429 L97.4425791,51.7491622 L100.014137,51.7491622 L97.4425791,49.2599429 M97.4425791,4.4226678 L97.4425791,41.9273934 L98.0894598,42.5231417 L98.6837229,4.42935795 L97.4425791,4.4226678" id="Fill-41" fill="#F9FCF9"></path>
            <path d="M43.4211377,4.13172856 L50.4749206,10.7428859 C50.7995825,10.723305 51.1146331,10.7140041 51.4197471,10.7140041 C57.8466862,10.7140041 59.9881846,14.8548704 59.9881846,14.8548704 C64.8343309,16.1134314 66.4550342,21.0280688 66.4882663,25.7513031 L94.2270734,51.7491622 L97.4425791,51.7491622 L97.4425791,49.2599429 L51.744409,5.02461663 L57.3806261,5.02461663 L97.4425791,41.9273934 L97.4425791,4.4226678 L43.4211377,4.13172856" id="Fill-42" fill="#2CB758"></path>
            <path d="M51.4197471,10.7140041 C51.1146331,10.7140041 50.7995825,10.723305 50.4749206,10.7428859 L51.8985135,12.0769965 C57.6981202,12.7029319 59.0286968,17.2321523 59.0286968,17.2321523 C59.0286968,17.2321523 59.1393068,17.2084921 59.3320186,17.2084921 C59.9332871,17.2084921 61.3324449,17.4398728 62.6511295,19.346724 C63.4319149,20.4755617 63.7106389,21.8049402 63.7205755,23.157163 L66.4882663,25.7513031 C66.4550342,21.0280688 64.8343309,16.1134314 59.9881846,14.8548704 C59.9881846,14.8548704 57.8466862,10.7140041 51.4197471,10.7140041" id="Fill-43" fill="#58471F"></path>
            <path d="M59.789771,18.9590226 C59.789771,18.9590226 59.8278898,19.1997043 59.8893037,19.5663562 L61.9394147,21.4878931 C61.7857988,21.1421274 61.6059557,20.7867345 61.4055875,20.4763776 C60.7357379,19.4382646 60.0728931,19.2568152 59.789771,18.9590226 M51.8985135,12.0769965 L54.4907597,14.5066572 C56.7013283,15.3115945 58.3674809,16.6519056 58.9275352,17.7379917 C58.9275352,17.7379917 58.9366576,18.0896316 58.8172513,18.5615308 L59.1050976,18.8314206 C58.997094,18.1997741 58.9275352,17.7379917 58.9275352,17.7379917 C58.9275352,17.7379917 60.954514,18.2813611 61.7607119,19.8088328 C62.1521634,20.5502954 62.3417802,21.3371203 62.433168,21.9504914 L63.7205755,23.157163 C63.7106389,21.8049402 63.4319149,20.4755617 62.6511295,19.346724 C61.3324449,17.4398728 59.9332871,17.2084921 59.3320186,17.2084921 C59.1393068,17.2084921 59.0286968,17.2321523 59.0286968,17.2321523 C59.0286968,17.2321523 57.6981202,12.7029319 51.8985135,12.0769965" id="Fill-44" fill="#695024"></path>
            <path d="M54.4907597,14.5066572 L57.387142,17.2212196 C57.5023131,17.2913845 57.6163437,17.3633442 57.7289084,17.4374252 C57.6702641,17.4168653 57.6116199,17.3964685 57.5529753,17.3765613 L58.8172513,18.5615308 C58.9366576,18.0896316 58.9275352,17.7379917 58.9275352,17.7379917 C58.3674809,16.6519056 56.7013283,15.3115945 54.4907597,14.5066572" id="Fill-45" fill="#7D5A2E"></path>
            <path id="Fill-46" fill="#A57237" d="M57.387142,17.2212196 L57.629754,17.5804649 C57.7155504,17.6265026 57.8013462,17.6736724 57.887142,17.7212196 C57.7224613,17.5498989 57.5556358,17.3834838 57.387142,17.2212196"></path>
            <path d="M58.9275352,17.7379917 C58.9275352,17.7379917 58.997094,18.1997741 59.1050976,18.8314206 L59.8893037,19.5663562 C59.8278898,19.1997043 59.789771,18.9590226 59.789771,18.9590226 C60.0728931,19.2568152 60.7357379,19.4382646 61.4055875,20.4763776 C61.6059557,20.7867345 61.7857988,21.1421274 61.9394147,21.4878931 L62.433168,21.9504914 C62.3417802,21.3371203 62.1521634,20.5502954 61.7607119,19.8088328 C60.954514,18.2813611 58.9275352,17.7379917 58.9275352,17.7379917" id="Fill-47" fill="#A57237"></path>
            <path d="M6.91385049,6.88480013 L94.0662901,6.88480013 L94.0662901,59.0653942 L6.91385049,59.0653942 L6.91385049,6.88480013 L6.91385049,6.88480013 Z M94.0662901,0.0398144534 L6.91385049,0.0398144534 C3.13975671,0.0398144534 0.0803102656,3.10438514 0.0803102656,6.88480013 L0.0803102656,59.0653942 C0.0803102656,62.845646 3.13975671,65.9103798 6.91385049,65.9103798 L94.0662901,65.9103798 C97.8402208,65.9103798 100.89983,62.845646 100.89983,59.0653942 L100.89983,6.88480013 C100.89983,3.10438514 97.8402208,0.0398144534 94.0662901,0.0398144534 L94.0662901,0.0398144534 L94.0662901,0.0398144534 Z" id="Fill-48" fill="#E6E7E8"></path>
            <path d="M65.6178852,81.9562573 C65.6178852,81.9562573 56.4569764,78.23638 56.4569764,69.6057814 L44.5230012,69.6057814 C44.5230012,78.23638 35.3620923,81.9562573 35.3620923,81.9562573 L35.3620923,85.1804121 L65.6178852,85.1804121 L65.6178852,81.9562573" id="Fill-49" fill="#E6E7E8"></path>
            <path d="M45.8185539,6.88480013 L94.0662901,6.88480013 L94.0662901,51.5920255 L100.89983,57.9288874 L100.89983,6.88480013 C100.89983,3.10438514 97.8402208,0.0398144534 94.0662901,0.0398144534 L37.3271689,0.0398144534 L45.8185539,6.88480013" id="Fill-50" fill="#FFFFFF"></path>
        </g>
    </g>
</svg>