<svg height="73" viewBox="0 0 47 73" width="47" xmlns="http://www.w3.org/2000/svg"><g fill="none" fill-rule="evenodd" transform="translate(0 -1)"><path d="m5.04266149 64.3803374h38.12168571v-59.27434418h-38.12168571z" fill="#1bb24b"/><g transform="translate(11.158534 23.08264)"><path d="m20.4479059 4.01408354s-2.1184087-4.10693205-8.8386087-2.71350241c-6.72031648 1.39342964-8.69259594 7.99391047-8.47351852 11.80753197.21919395 3.8136216 1.07231407 6.0761021 2.82714753 8.7323931 1.73141083 2.6208411.97128209 4.3219718-.34353204 4.7619961 0 0 7.52379463 5.3536479 15.33984773.0732399 0 0-1.8992148-.586621-1.6801373-2.1267644.2191939-1.5401434 2.9949515-3.4469542 4.6750889-6.6738377 1.6800208-3.2268836 2.4105508-12.32091317-3.5062876-13.86105656" fill="#4c360d"/><path d="m3.70914392 38.610625 3.42250208-4.5958609s.74579548 1.3378563 1.33089535 4.5958609h10.07348285c.3269847-3.5727255.7701504-5.5737186.7701504-5.5737186l5.2472539 5.5737186h3.7544976c-2.3334076-3.0843817-6.8856733-9.1091222-7.0538269-9.3873401-.2266519-.3736872-.5250866-1.2396961-1.0608941-1.2184027-1.1305793.0449267-4.4176729-2.0085978-4.3867923-3.109536.0356583-1.2678922 0-3.3408382 0-3.3408382h-4.2349531v3.3408382c0 1.2691793-1.69202347 2.3451971-3.46969692 2.9404759-1.77883876.5946938-2.71993943 1.2703492-2.71993943 1.2703492l-5.26904509 9.5044537z" fill="#f3d9a6"/><path d="m22.2280032 11.9152859c0 6.1899397-2.8998626 11.2624448-8.5222283 11.2624448-5.62178303 0-8.74375284-5.1264405-8.74375284-11.3163802 0-6.19110973 3.21682568-6.8205515 8.83860874-6.8205515 5.6223657 0 8.4273724.68337721 8.4273724 6.8744869" fill="#f4d89a"/><path d="m11.7033723 15.5341315c0 .8500974-.6948716 1.5397924-1.5506719 1.5397924-.85649954 0-1.54997281-.689695-1.54997281-1.5397924 0-.8502144.69347327-1.5394414 1.54997281-1.5394414.8558003 0 1.5506719.689227 1.5506719 1.5394414" fill="#00ade9"/><path d="m11.3045116 15.5337922c0 .5932898-.4797563 1.0751988-1.0703331 1.0751988-.59127597 0-1.07033303-.481909-1.07033303-1.0751988 0-.5922369.47905706-1.0742629 1.07033303-1.0742629.5905768 0 1.0703331.482026 1.0703331 1.0742629" fill="#234471"/><path d="m9.78319366 14.9770053c0 .1714001-.13890441.311562-.30927207.311562-.17106684 0-.30997125-.1401619-.30997125-.311562 0-.1714.13890441-.310158.30997125-.310158.17036766 0 .30927207.138758.30927207.310158" fill="#fff"/><path d="m10.3467587 19.3062309c1.060894.6457043 2.1966007 1.0444288 3.3475729 1.0295702 1.157964 0 2.2673348-.449735 3.3704129-1.0295702-.4051767.4795691-.9118515.8772406-1.4865801 1.1636483-.5735633.2910876-1.2229881.449852-1.8781228.4600307-.6545521.00117-1.3085215-.1454268-1.8860468-.4319515-.5770593-.2819618-1.0980674-.6795163-1.4672361-1.1917275" fill="#c42c76"/><path d="m18.9434267 6.95860745s-.2595135 1.9372299.7914754 4.80399785c1.1538855 3.1473259 2.3957515 4.3085172 3.5644363 3.4773733 0 0-1.2624919.4326535-.9130168-.9167854.4747454-1.8334539 1.451621-4.93117322-.0122357-7.05267278-1.2593456-1.82526413-2.6200728-1.5330066-2.6200728-1.5330066s-1.0957367-3.74026467-6.0481683-3.78858427c-7.1138401-.06926199-11.99437235 8.92227855-8.30559797 15.11947205 0 0-1.20469277-4.762698 1.31493066-5.0603374 2.51892424-.2976394 11.53780571-3.46181273 12.22824921-5.19839343" fill="#5f3f12"/><path d="m19.2733013 7.45455609s-.9383039 1.83275192-4.0847451 3.38003211c-2.5007455 1.2297514-5.38417729 1.4273587-8.15993485 1.3541188 0 0-.94960741 1.6133832-.87654276 4.2536458.07294812 2.6401455 1.40302775 5.4296957 1.40302775 5.4296957s-5.1863084-7.8471967-1.13221076-14.19098697c4.74069562-7.41817014 12.12581882-3.7770016 13.25802962-1.57688033 0 0 .0180622.71005244-.4076239 1.35037489" fill="#754b1d"/><g fill="#a26527"><path d="m12.3669322 10.6479084s3.7316576-.81874229 5.3672803-3.68293633c0 0-1.0746447 1.22787944-2.6839315 1.84152666 0 0 1.1414167-.96206313 1.3599115-1.47638024 0 0-3.1170755-.03053611-5.5247131 1.64415338 0 0 2.5298781-2.97627679 7.6926473-2.86442803 0 0-.6167961 3.53341466-6.2111945 4.53806456"/><path d="m23.4157175 10.3848883c.3001827-.86062706.5084227-1.73494273.6713324-2.60925841.150674-.87607062.2392372-1.75845907.2126683-2.63628464-.0273847-1.76173498-.5261354-3.47889424-1.440201-5.05916747.6381212.65085215 1.157964 1.43929231 1.4924067 2.31021509.3460957.8663599.5141327 1.8019818.539886 2.73467879.0264524 1.86328803-.4760273 3.728799-1.4760924 5.25981664"/><path d="m21.5434795 11.5279686c-.3001827-.3720492-.5426828-.7872702-.7658388-1.2118509-.2191939-.42820759-.3955046-.87946352-.5369727-1.34464204-.2682533-.92766614-.5596962-2.86723596-.5596962-2.86723596s1.4659542.39392759 2.0490731 1.50130052c.5832354 1.10725593.5466448 2.35408882.5466448 2.35408882s-.3189441-1.11766863-.8034781-1.87019084c-.484534-.7525222-.9639407-.88402639-1.1688014-1.10011913 0 0 .183186 1.1565115.3653233 2.05352452.1854001.89876797.5261354 1.59969471.873746 2.48512501"/></g></g><path d="m18.5457548 41.3798566c0 .7987359.6454627 1.4466631 1.4415994 1.4466631.7954375 0 1.4414828-.6479272 1.4414828-1.4466631 0-.7999058-.6460453-1.4478331-1.4414828-1.4478331-.7961367 0-1.4415994.6479273-1.4415994 1.4478331"/><path d="m27.7581935 41.3798566c0 .7987359.646628 1.4466631 1.4420655 1.4466631.795554 0 1.4410167-.6479272 1.4410167-1.4466631 0-.7999058-.6454627-1.4478331-1.4410167-1.4478331-.7954375 0-1.4420655.6479273-1.4420655 1.4478331"/><g transform="translate(0 .065518)"><path d="m21.8938522 54.0983008h5.770709l-2.4105508 4.6203132z" fill="#c42c76"/><path d="m18.0913789 57.3247515s.0402031-.3822279.0582653-.9578513c.0181788-.5750383.0170135-1.344408-.0642083-2.106524-.0199267-.1904704-.0468453-.3800049-.0760945-.5660296-.0328616-.1853226-.0651405-.3676033-.1056932-.5419283-.0396204-.1744419-.0859995-.3410451-.1342432-.4974696-.0237722-.0783877-.0475444-.1544355-.0753952-.2261544-.0258698-.0725379-.0517396-.1422679-.0814549-.207201-.0545363-.1319722-.1130346-.2492028-.1694354-.3504049-.0294822-.0499575-.0570999-.0967562-.0826201-.1400449-.0284335-.0412998-.0546529-.0793237-.0783086-.1136037-.0448642-.0709-.0924087-.1167626-.1194438-.1525636-.028783-.034514-.044165-.0528825-.044165-.0528825l.0058265-.0057328s.0166638.0171985.0481271.0494896c.0297153.033578.0813383.0766328.1319126.1443738.0264524.032993.0558181.069496.0877475.1091578.0280838.0425868.0584983.0885665.0910103.137705.0616447.1001491.1296985.2152738.1885464.348065.0321625.0651671.0604794.135248.0889129.2081369.030531.0721869.0567503.1485857.0833193.2274414.0552355.1568925.0974195.3273566.1387879.5035535.0405526.1764308.0745795.3603495.1025468.5482461.0256368.1881305.0488263.37942.0650241.5714114.0689861.7677318.0600132 1.5387395.0278508 2.1142458-.0304145.5759743-.0786581.9575003-.0786581.9575003z" fill="#064c6c"/><path d="m31.0449841 56.8364895s-.0235391-.3638594-.0117695-.9103506c.009672-.5461402.0622273-1.2756141.1990341-1.9936223.0350757-.1791218.0734143-.3578926.1190942-.5319836.0450974-.1743249.0966039-.344204.1560344-.5054253.0276178-.0813127.059081-.1597004.0907773-.2360992.0294823-.0773347.0649076-.1503406.0995171-.2211236.0693357-.1415659.1427499-.2716661.2176791-.3870248.0348426-.0594342.0756283-.1114977.1129181-.1619233.036241-.0511275.0732977-.0975751.1109371-.1389919.0702679-.0869285.1413515-.1538506.1996168-.208605.0568669-.0560414.1098883-.0909064.1419342-.1189856.0333277-.0265582.0510404-.0408318.0510404-.0408318l.0050108.0064348s-.0164308.0155606-.047428.0446927c-.0297152.0305362-.0790077.068911-.1308638.1288133-.0525552.0592003-.1179289.1291643-.1829529.2179647-.0347261.0424698-.0686365.0899704-.1016146.1422679-.0337939.0513615-.0707341.104478-.1035957.1635612-.0700349.1154757-.1382052.2453419-.2019474.3864399-.0633926.1412149-.1292324.2910875-.1847009.4511389-.059081.1586474-.10849.3268885-.158132.4978206-.0489428.1714-.0907773.3477139-.1293489.5248468-.1483434.7105204-.2108038 1.4370693-.2344595 1.9815716-.0240052.5450872-.0086232.9089466-.0086232.9089466z" fill="#064c6c"/><path d="m27.0172108 38.5512529c0 .8500974.6948716 1.5397924 1.5506719 1.5397924.8564995 0 1.5499728-.689695 1.5499728-1.5397924 0-.8502143-.6934733-1.5394414-1.5499728-1.5394414-.8558003 0-1.5506719.6892271-1.5506719 1.5394414" fill="#00ade9"/><path d="m27.4160715 38.5509136c0 .5932899.4797563 1.0751989 1.0703331 1.0751989.5912759 0 1.070333-.481909 1.070333-1.0751989 0-.5922368-.4790571-1.0742628-1.070333-1.0742628-.5905768 0-1.0703331.482026-1.0703331 1.0742628" fill="#234471"/><path d="m27.4766441 37.9941268c0 .1714.1389044.3115619.3092721.3115619.1710668 0 .3099712-.1401619.3099712-.3115619 0-.1714001-.1389044-.310158-.3099712-.310158-.1703677 0-.3092721.1387579-.3092721.310158" fill="#fff"/><path d="m25.497501 49.9791075c0 .3172949-.2561342.5744534-.572165.5744534s-.5722815-.2571585-.5722815-.5744534c0-.3172948.2562507-.5744533.5722815-.5744533s.572165.2571585.572165.5744533" fill="#00ade9"/><path d="m25.484953 49.9467596c0 .1380538-.1119462.25-.25.25s-.25-.1119462-.25-.25.1119462-.25.25-.25.25.1119462.25.25" fill="#fffeef"/><path d="m24.353171 49.8935362c0 .2700282-.2180286.4890459-.4870976.4890459-.2689525 0-.4869812-.2190177-.4869812-.4890459s.2180287-.4890458.4869812-.4890458c.269069 0 .4870976.2190176.4870976.4890458" fill="#00ade9"/><path d="m24.4168807 49.9032018c0 .1380111-.1119889.25-.25.25-.1380112 0-.25-.1119889-.25-.25 0-.1380112.1119888-.25.25-.25.1380111 0 .25.1119888.25.25" fill="#fffeef"/><path d="m23.4296082 49.6001789c0 .244055-.1970531.4417792-.4400193.4417792-.2430827 0-.4401359-.1977242-.4401359-.4417792 0-.2440549.1970532-.4417792.4401359-.4417792.2429662 0 .4400193.1977243.4400193.4417792" fill="#00ade9"/><path d="m23.5354553 49.6330566c0 .1381173-.1118827.25-.25.25s-.25-.1118827-.25-.25.1118827-.25.25-.25.25.1118827.25.25" fill="#fffeef"/><path d="m22.7521695 49.0501428c0 .2126998-.1716495.3850358-.383502.3850358s-.383502-.172336-.383502-.3850358c0-.2126999.1716495-.3850359.383502-.3850359s.383502.172336.383502.3850359" fill="#00ade9"/><path d="m22.9086958 49.1109241c0 .1381346-.1118654.25-.25.25s-.25-.1118654-.25-.25.1118654-.25.25-.25.25.1118654.25.25" fill="#fffeef"/><path d="m25.4792173 49.783536c0 .2700282.2180287.4890458.4870977.4890458.2689525 0 .4869812-.2190176.4869812-.4890458s-.2180287-.4890458-.4869812-.4890458c-.269069 0-.4870977.2190176-.4870977.4890458" fill="#00ade9"/><path d="m25.907805 49.6876238c0 .1380112.1119889.25.25.25.1380112 0 .25-.1119888.25-.25 0-.1380111-.1119888-.25-.25-.25-.1380111 0-.25.1119889-.25.25" fill="#fffeef"/><path d="m26.4027802 49.4901787c0 .2440549.1970531.4417792.4400193.4417792.2430827 0 .4401359-.1977243.4401359-.4417792s-.1970532-.4417792-.4401359-.4417792c-.2429662 0-.4400193.1977243-.4400193.4417792" fill="#00ade9"/><path d="m26.716492 49.4008183c0 .1381173.1118828.25.25.25.1381173 0 .25-.1118827.25-.25 0-.1381172-.1118827-.25-.25-.25-.1381172 0-.25.1118828-.25.25" fill="#fffeef"/><path d="m27.0802188 48.9401308c0 .2126999.1716495.3850359.3835021.3850359.2118525 0 .383502-.172336.383502-.3850359 0-.2126998-.1716495-.3850358-.383502-.3850358-.2118526 0-.3835021.172336-.3835021.3850358" fill="#00ade9"/><path d="m27.3236861 48.9031381c0 .1381346.1118654.25.25.25s.25-.1118654.25-.25c0-.1381345-.1118654-.25-.25-.25s-.25.1118655-.25.25" fill="#fffeef"/><path d="m18.0954342 57.3252078s.881204 1.8802525 1.4428812 4.3025504h10.709157c.2106872-2.6410815.8016136-4.7914793.8016136-4.7914793l3.0300272 3.0248304 2.6189075-2.5359015c-1.4624583-2.1620974-3.8365351-5.5070305-4.0176236-5.8426938-.3164969-.586738-1.7134651-.7649238-2.2157118-.9534054-1.0116016-.379537-1.405941-.4402582-2.3279306-1.0836226-.6913758 2.5259568-3.1262815 7.4886021-3.1262815 7.4886021s-2.8244673-5.4026695-3.0804849-7.5089595c-.660029.5958637-1.1671699.8196782-2.1788881 1.1528846-.5013144.1650822-1.7043758.4400243-2.6296283.8311439-.9252525.3911197-3.7010101 6.4049795-3.7010101 6.4049795l2.5322088 2.346835z" fill="#f99d1c"/><path d="m44.1024763 36.6412014-22.4609128 32.2884908h5.0983279l17.3625849-24.4856358-2.5047075 23.857832-27.7009418 1.5091392 30.2056493-39.633421z" fill="#bfe1c7" opacity=".376516"/><g transform="translate(.400513 .320136)"><path d="m41.6513175 59.3808522c0 .4614347-.3725481.8354728-.8321446.8354728h-35.18814575c-.45959647 0-.83214462-.3740381-.83214462-.8354728v-53.47891705c.0515065-.31998573.23049742-.6523731.78390097-.6871211h11.6703009 23.5662051c.4594799 0 .8319115.37392117.832028.83535581v20.71050614zm-19.2466508 10.807913c-1.716961 0-3.1086853-1.3972905-3.1086853-3.1211186 0-1.7237111 1.3917243-3.1211186 3.1086853-3.1211186 1.7169611 0 3.1086854 1.3974075 3.1086854 3.1211186 0 1.7238281-1.3917243 3.1211186-3.1086854 3.1211186zm16.8117451-69.55273053h-.8321446-24.586663-6.56393248c-3.7170913 0-6.73033811 3.02529838-6.73033811 6.75725629v58.37042844c0 4.1933925 3.38591149 7.592729 7.56248273 7.592729h30.31845086c4.1766878 0 7.5624827-3.3993365 7.5624827-7.592729v-33.9201256l.0001166.000117v-24.45041984c0-3.73195791-3.0133634-6.75725629-6.7304547-6.75725629z" fill="#f0f0f0"/><path d="m25.5133754 67.06767c0 1.7237111-1.3918408 3.1211186-3.1086854 3.1211186-1.716961 0-3.1086853-1.3974075-3.1086853-3.1211186s1.3917243-3.1211186 3.1086853-3.1211186c1.7168446 0 3.1086854 1.3974075 3.1086854 3.1211186zm-15.4891234 6.2888018h28.3600385c4.1766878 0 7.5624827-3.3993365 7.5624827-7.592729v-33.9201256l.0001166.000117v-4.6410216l-4.2955489 5.5189642v26.6591988c0 .4614347-.3725482.8354728-.8322612.8354728h-20.5675245z" fill="#fff"/></g></g></g></svg>