<?xml version="1.0" encoding="UTF-8" standalone="no"?>
<svg width="600px" height="600px" viewBox="0 0 600 600" version="1.1" xmlns="http://www.w3.org/2000/svg" xmlns:xlink="http://www.w3.org/1999/xlink" xmlns:sketch="http://www.bohemiancoding.com/sketch/ns">
    <!-- Generator: Sketch 3.2.2 (9983) - http://www.bohemiancoding.com/sketch -->
    <title>meisje-gebruiker-centraal</title>
    <desc>Created with Sketch.</desc>
    <defs>
        <path id="path-1" d="M46.3709138,23.4574675 C46.3709138,36.1977273 36.0333621,46.5321429 23.2926121,46.5321429 C10.5528362,46.5321429 0.195801724,36.1977273 0.195801724,23.4574675 C0.195801724,10.6996753 10.5528362,0.364285714 23.2926121,0.364285714 C36.0333621,0.364285714 46.3709138,10.6996753 46.3709138,23.4574675"></path>
        <path id="path-3" d="M46.8959741,23.4574675 C46.8959741,36.1977273 36.548681,46.5321429 23.807931,46.5321429 C11.0584138,46.5321429 0.720862069,36.1977273 0.720862069,23.4574675 C0.720862069,10.6996753 11.0584138,0.364285714 23.807931,0.364285714 C36.548681,0.364285714 46.8959741,10.6996753 46.8959741,23.4574675"></path>
    </defs>
    <g id="Page-1" stroke="none" stroke-width="1" fill="none" fill-rule="evenodd" sketch:type="MSPage">
        <g id="meisje-gebruiker-centraal" sketch:type="MSArtboardGroup">
            <g id="meisje" sketch:type="MSLayerGroup" transform="translate(80.000000, 0.000000)">
                <path d="M325.819914,47.9123377 C325.819914,47.9123377 291.893612,-17.5948052 184.262086,4.63149351 C76.6315345,26.8558442 45.0451121,132.134416 48.5539569,192.963312 C52.0637759,253.79026 65.7270345,289.876948 93.8328621,332.24513 C121.562672,374.048377 109.388871,401.180844 88.330931,408.199675 C88.330931,408.199675 208.829845,493.592532 334.009491,409.369481 C334.009491,409.369481 303.59106,400.011039 307.101853,375.447078 C310.611672,350.881169 355.067431,320.467208 381.975069,268.997727 C408.882707,217.527273 420.582103,72.4782468 325.819914,47.9123377" id="Fill-1" fill="#4C360D" sketch:type="MSShapeGroup"></path>
                <path d="M57.736181,599.732143 L112.550922,526.426948 C112.550922,526.426948 124.493853,547.764935 133.864086,599.732143 L295.20081,599.732143 C300.437776,542.745779 307.534371,510.828896 307.534371,510.828896 L391.572276,599.732143 L451.704836,599.732143 C414.333983,550.535065 341.425603,454.43961 338.730164,450.001948 C335.103448,444.042857 330.320431,430.228247 321.741198,430.569156 C303.633922,431.286039 250.98956,398.532468 251.483448,380.972727 C252.054293,360.748052 251.483448,327.68474 251.483448,327.68474 L183.657147,327.68474 L183.657147,380.972727 C183.657147,401.214935 156.556629,418.378247 128.0855,427.873052 C99.5978103,437.358117 84.5259483,448.133766 84.5259483,448.133766 L0.13637931,599.732143 L57.736181,599.732143" id="Fill-2" fill="#F3D9A6" sketch:type="MSShapeGroup"></path>
                <path d="M354.330009,173.937662 C354.330009,272.668831 307.88506,353.574351 217.839647,353.574351 C127.803,353.574351 77.8014741,271.807792 77.8014741,173.076623 C77.8014741,74.3269481 129.321681,64.2886364 219.359302,64.2886364 C309.404716,64.2886364 354.330009,75.187987 354.330009,173.937662" id="Fill-3" fill="#F4D89A" sketch:type="MSShapeGroup"></path>
                <path d="M185.770052,231.658442 C185.770052,245.218831 174.6415,256.218506 160.934405,256.218506 C147.216595,256.218506 136.110448,245.218831 136.110448,231.658442 C136.110448,218.097078 147.216595,207.103247 160.934405,207.103247 C174.6415,207.103247 185.770052,218.097078 185.770052,231.658442" id="Fill-4" fill="#00ADE9" sketch:type="MSShapeGroup"></path>
                <path d="M179.381655,231.652597 C179.381655,241.11526 171.698629,248.803247 162.238776,248.803247 C152.770155,248.803247 145.097845,241.11526 145.097845,231.652597 C145.097845,222.205519 152.770155,214.518506 162.238776,214.518506 C171.698629,214.518506 179.381655,222.205519 179.381655,231.652597" id="Fill-5" fill="#234471" sketch:type="MSShapeGroup"></path>
                <path d="M155.016517,222.772403 C155.016517,225.505519 152.791586,227.741883 150.063026,227.741883 C147.32375,227.741883 145.097845,225.505519 145.097845,222.772403 C145.097845,220.038312 147.32375,217.824351 150.063026,217.824351 C152.791586,217.824351 155.016517,220.038312 155.016517,222.772403" id="Fill-6" fill="#FFFFFF" sketch:type="MSShapeGroup"></path>
                <path d="M164.042879,291.824026 C181.032819,302.122403 199.220948,308.483766 217.656509,308.246104 C236.202147,308.246104 253.969448,301.071429 271.636414,291.824026 C265.146707,299.472078 257.032138,305.814935 247.827509,310.385065 C238.642362,315.026299 228.240517,317.558766 217.748078,317.722403 C207.265379,317.740909 196.7895,315.402273 187.541034,310.832143 C178.300362,306.336039 169.955897,299.993182 164.042879,291.824026" id="Fill-7" fill="#C42C76" sketch:type="MSShapeGroup"></path>
                <path d="M301.724612,94.8779221 C301.724612,94.8779221 297.567966,125.777922 314.401069,171.502597 C332.88144,221.702922 352.76944,240.224026 371.488474,226.966558 C371.488474,226.966558 351.267319,233.868506 356.864716,212.344481 C364.468836,183.100325 380.11544,133.691883 356.669888,99.8522727 C336.499388,70.7396104 314.705974,75.4012987 314.705974,75.4012987 C314.705974,75.4012987 297.157853,15.7431818 217.839647,14.9737013 C103.907397,13.8672078 25.7406207,157.28474 84.8211121,256.12987 C84.8211121,256.12987 65.5273362,180.16461 105.879052,175.416234 C146.222974,170.668831 290.665224,120.201623 301.724612,92.5012987" id="Fill-8" fill="#5F3F12" sketch:type="MSShapeGroup"></path>
                <path d="M307.007362,102.787987 C307.007362,102.787987 291.979336,132.021429 241.587181,156.700325 C201.536474,176.314286 155.355517,179.467208 110.899759,178.297403 C110.899759,178.297403 95.6905431,204.032143 96.8604828,246.144156 C98.0304224,288.256169 119.332871,332.749675 119.332871,332.749675 C119.332871,332.749675 36.2700776,207.58539 101.199293,106.400649 C177.125552,-11.9211039 295.402457,46.1571429 313.536034,81.2503247 C313.536034,81.2503247 313.826328,92.5753247 307.007362,102.787987" id="Fill-9" fill="#754B1D" sketch:type="MSShapeGroup"></path>
                <path d="M196.396922,153.722727 C196.396922,153.722727 256.163207,140.662987 282.357776,94.9792208 C282.357776,94.9792208 265.146707,114.563961 239.372966,124.350974 C239.372966,124.350974 257.653638,109.007143 261.153716,100.803896 C261.153716,100.803896 211.232069,100.315909 172.670819,127.028571 C172.670819,127.028571 213.187164,79.5564935 295.874914,81.338961 C295.874914,81.338961 285.995207,137.698052 196.396922,153.722727" id="Fill-10" fill="#A26527" sketch:type="MSShapeGroup"></path>
                <path d="M299.650672,77.775 C285.922147,72.9672078 271.97444,69.6321429 258.027707,67.0237013 C244.052724,64.611039 229.977405,63.1938312 215.974172,63.6185065 C187.870293,64.0577922 160.478509,72.0448052 135.270741,86.6805195 C145.653103,76.463961 158.229224,68.137987 172.122379,62.7827922 C185.9415,57.2405844 200.867241,54.5493506 215.746224,54.1373377 C245.469121,53.7126623 275.229034,61.7590909 299.650672,77.775" id="Fill-11" fill="#A26527" sketch:type="MSShapeGroup"></path>
                <path d="M343.366086,167.759416 C338.558716,161.824675 334.674828,155.203247 331.100716,148.431818 C327.589922,141.6 324.766871,134.403896 322.500052,126.982792 C318.204103,112.187338 313.536034,81.2503247 313.536034,81.2503247 C313.536034,81.2503247 337.014707,87.5347403 346.354741,105.195779 C355.694776,122.857792 355.109319,142.743506 355.109319,142.743506 C355.109319,142.743506 350.00094,124.918831 342.240957,112.914935 C334.480974,100.911039 326.803793,98.813961 323.521922,95.3678571 C323.521922,95.3678571 326.455052,113.814935 329.371621,128.121429 C332.342741,142.456169 337.799862,153.636039 343.366086,167.759416" id="Fill-12" fill="#A26527" sketch:type="MSShapeGroup"></path>
                <path d="M170.265672,479.635714 L262.687983,479.635714 L224.080948,553.331494 L170.265672,479.635714" id="Fill-19" fill="#C42C76" sketch:type="MSShapeGroup"></path>
                <path d="M109.396664,531.102273 C109.396664,531.102273 110.071741,525.007792 110.408793,515.825649 C110.577319,511.236039 110.67181,505.876948 110.566603,500.137987 C110.501336,497.269481 110.41269,494.304545 110.233448,491.297727 C110.076612,488.289935 109.828207,485.239286 109.519405,482.196429 C109.2145,479.152597 108.798543,476.122403 108.342647,473.147727 C107.835121,470.182792 107.311034,467.268506 106.662259,464.47987 C106.02225,461.689286 105.289698,459.019481 104.498698,456.52013 C104.110017,455.268506 103.723284,454.051948 103.269336,452.905519 C103.054052,452.326948 102.842664,451.759091 102.635172,451.200974 C102.420862,450.645779 102.167586,450.118831 101.943534,449.591883 C101.487638,448.542857 101.057069,447.532792 100.55344,446.62013 C100.057603,445.703571 99.6611293,444.790909 99.1448362,444.016558 C98.6587414,443.223701 98.2028448,442.482468 97.7829914,441.796753 C97.3124828,441.143182 96.8809397,440.543182 96.4912845,440.000649 C96.2964569,439.72987 96.1113707,439.472727 95.9379741,439.230195 C95.7538621,438.997403 95.562931,438.792857 95.3953793,438.59513 C95.054431,438.203571 94.7651121,437.869481 94.5303448,437.599675 C94.0588621,437.057143 93.8075345,436.768831 93.8075345,436.768831 L93.8562414,436.72013 C93.8562414,436.72013 94.1192586,436.999675 94.6121724,437.522727 C94.8576552,437.78474 95.1625603,438.108117 95.5190948,438.487987 C95.6963879,438.680844 95.8960862,438.878571 96.0909138,439.105519 C96.2750259,439.341234 96.4708276,439.592532 96.6773448,439.857468 C97.0903793,440.388312 97.5482241,440.975649 98.0469828,441.616558 C98.4843707,442.298377 98.9587759,443.036688 99.4643534,443.824675 C100.000129,444.597078 100.418034,445.505844 100.93725,446.421429 C101.464259,447.333117 101.918207,448.341234 102.398457,449.389286 C102.635172,449.91526 102.900138,450.443182 103.127112,450.998377 C103.348241,451.555519 103.573267,452.124351 103.80219,452.701948 C104.28244,453.851299 104.696448,455.066883 105.114353,456.321429 C105.567328,457.56526 105.918991,458.875325 106.291112,460.212662 C106.689534,461.542208 106.979828,462.929221 107.323698,464.327922 C107.67244,465.726623 107.916948,467.171104 108.223802,468.620455 C108.506302,470.075649 108.723534,471.560065 108.97681,473.049351 C109.403483,476.041558 109.788267,479.086364 110.062,482.142857 C110.346448,485.197403 110.569526,488.257792 110.702009,491.273377 C110.856897,494.287987 110.920216,497.258766 110.962103,500.132143 C110.983534,503.006494 110.973793,505.784416 110.910474,508.418182 C110.850078,511.050974 110.764353,513.540584 110.647457,515.836364 C110.207147,525.021429 109.464853,531.110065 109.464853,531.110065 L109.396664,531.102273" id="Fill-20" fill="#064C6C" sketch:type="MSShapeGroup"></path>
                <path d="M316.858819,523.309091 C316.858819,523.309091 316.513,517.505844 316.749716,508.794156 C316.866612,504.44026 317.115017,499.35974 317.650793,493.938312 C317.915759,491.227597 318.227483,488.429221 318.639543,485.597727 C319.028224,482.763312 319.528931,479.898701 320.071526,477.041883 C320.647241,474.190909 321.274586,471.349675 322.018828,468.582468 C322.40069,467.202273 322.751379,465.824026 323.199483,464.491558 C323.411845,463.821429 323.622259,463.156169 323.831698,462.494805 C324.065491,461.842208 324.296362,461.193506 324.525284,460.550649 C324.967543,459.258117 325.469224,458.012338 325.975776,456.797727 C326.446284,455.569481 327.011284,454.411364 327.554853,453.282468 C328.650759,451.030519 329.810957,448.958766 330.997457,447.121753 C331.550767,446.178896 332.185905,445.341234 332.766491,444.531818 C333.057759,444.127597 333.341233,443.734091 333.616914,443.351299 C333.919871,442.988961 334.215034,442.637338 334.499483,442.297403 C335.082991,441.627273 335.574931,440.954221 336.126293,440.416558 C336.670836,439.875974 337.172517,439.378247 337.624517,438.929221 C338.061905,438.465584 338.507086,438.110065 338.889922,437.795455 C339.27081,437.47987 339.59325,437.212013 339.856267,436.993831 C340.380353,436.559416 340.659931,436.327597 340.659931,436.327597 L340.701819,436.381169 C340.701819,436.381169 340.431983,436.624675 339.928353,437.079545 C339.675078,437.307468 339.365302,437.587987 338.999026,437.918182 C338.63275,438.245455 338.205103,438.616558 337.789147,439.096753 C336.927034,440.025 335.856457,441.125649 334.788802,442.531169 C334.514095,442.875 334.229647,443.229545 333.936431,443.593831 C333.671466,443.979545 333.397733,444.375974 333.118155,444.783117 C332.559,445.597403 331.94919,446.437987 331.419259,447.385714 C330.283414,449.230519 329.176793,451.306169 328.138362,453.561039 C327.632784,454.694805 327.076552,455.842208 326.604095,457.058766 C326.10144,458.262662 325.602681,459.497727 325.163345,460.780519 C324.935397,461.419481 324.7055,462.062338 324.473655,462.711039 C324.26519,463.367532 324.05575,464.027922 323.844362,464.693182 C323.405026,466.018831 323.030957,467.381494 322.639353,468.750974 C321.867836,471.494805 321.212241,474.316558 320.606328,477.149026 C320.041328,479.99026 319.516267,482.842208 319.104207,485.664935 C318.667793,488.485714 318.331716,491.275325 318.043371,493.978247 C317.754052,496.681169 317.542664,499.301299 317.363422,501.787013 C317.198793,504.273701 317.064362,506.627922 316.988379,508.801948 C316.649379,517.500974 316.927009,523.305195 316.927009,523.305195 L316.858819,523.309091" id="Fill-21" fill="#064C6C" sketch:type="MSShapeGroup"></path>
                <path d="M252.320233,231.658442 C252.320233,245.218831 263.448784,256.218506 277.154905,256.218506 C290.87369,256.218506 301.979836,245.218831 301.979836,231.658442 C301.979836,218.097078 290.87369,207.103247 277.154905,207.103247 C263.448784,207.103247 252.320233,218.097078 252.320233,231.658442" id="Fill-22" fill="#00ADE9" sketch:type="MSShapeGroup"></path>
                <path d="M258.707655,231.652597 C258.707655,241.11526 266.390681,248.803247 275.850534,248.803247 C285.319155,248.803247 292.991466,241.11526 292.991466,231.652597 C292.991466,222.205519 285.319155,214.518506 275.850534,214.518506 C266.390681,214.518506 258.707655,222.205519 258.707655,231.652597" id="Fill-23" fill="#234471" sketch:type="MSShapeGroup"></path>
                <path d="M259.677897,222.772403 C259.677897,225.505519 261.903802,227.741883 264.632362,227.741883 C267.371638,227.741883 269.596569,225.505519 269.596569,222.772403 C269.596569,220.038312 267.371638,217.824351 264.632362,217.824351 C261.903802,217.824351 259.677897,220.038312 259.677897,222.772403" id="Fill-24" fill="#FFFFFF" sketch:type="MSShapeGroup"></path>
                <path d="M227.980422,413.933766 C227.980422,418.994805 223.877353,423.098377 218.816707,423.098377 C213.755086,423.098377 209.652017,418.994805 209.652017,413.933766 C209.652017,408.873701 213.755086,404.771104 218.816707,404.771104 C223.877353,404.771104 227.980422,408.873701 227.980422,413.933766" id="Fill-25" fill="#00ADE9" sketch:type="MSShapeGroup"></path>
                <path d="M222.131698,409.430844 C220.827328,409.430844 219.772336,410.486688 219.772336,411.789935 C219.772336,413.092208 220.827328,414.148052 222.131698,414.148052 C223.434121,414.148052 224.490086,413.092208 224.490086,411.789935 C224.490086,410.486688 223.434121,409.430844 222.131698,409.430844" id="Fill-26" fill="#33BDEB" sketch:type="MSShapeGroup"></path>
                <path d="M209.652991,412.57013 C209.652991,416.877273 206.161681,420.368182 201.853069,420.368182 C197.544457,420.368182 194.053147,416.877273 194.053147,412.57013 C194.053147,408.262013 197.544457,404.77013 201.853069,404.77013 C206.161681,404.77013 209.652991,408.262013 209.652991,412.57013" id="Fill-27" fill="#00ADE9" sketch:type="MSShapeGroup"></path>
                <path d="M204.674172,408.736364 C203.565603,408.736364 202.666474,409.63539 202.666474,410.743831 C202.666474,411.852273 203.565603,412.752273 204.674172,412.752273 C205.782741,412.752273 206.681871,411.852273 206.681871,410.743831 C206.681871,409.63539 205.782741,408.736364 204.674172,408.736364" id="Fill-28" fill="#33BDEB" sketch:type="MSShapeGroup"></path>
                <path d="M194.861681,407.889935 C194.861681,411.783117 191.705474,414.937987 187.813793,414.937987 C183.922112,414.937987 180.766879,411.783117 180.766879,407.889935 C180.766879,403.998701 183.922112,400.843831 187.813793,400.843831 C191.705474,400.843831 194.861681,403.998701 194.861681,407.889935" id="Fill-29" fill="#00ADE9" sketch:type="MSShapeGroup"></path>
                <path d="M190.363112,404.427273 C189.361698,404.427273 188.549267,405.23961 188.549267,406.240909 C188.549267,407.242208 189.361698,408.054545 190.363112,408.054545 C191.3655,408.054545 192.176957,407.242208 192.176957,406.240909 C192.176957,405.23961 191.3655,404.427273 190.363112,404.427273" id="Fill-30" fill="#33BDEB" sketch:type="MSShapeGroup"></path>
                <path d="M184.011733,399.116883 C184.011733,402.509416 181.262716,405.258117 177.869793,405.258117 C174.477845,405.258117 171.727853,402.509416 171.727853,399.116883 C171.727853,395.725325 174.477845,392.975649 177.869793,392.975649 C181.262716,392.975649 184.011733,395.725325 184.011733,399.116883" id="Fill-31" fill="#00ADE9" sketch:type="MSShapeGroup"></path>
                <path d="M180.090828,396.098377 C179.218,396.098377 178.509802,396.806494 178.509802,397.679221 C178.509802,398.553896 179.218,399.260065 180.090828,399.260065 C180.964629,399.260065 181.671853,398.553896 181.671853,397.679221 C181.671853,396.806494 180.964629,396.098377 180.090828,396.098377" id="Fill-32" fill="#33BDEB" sketch:type="MSShapeGroup"></path>
                <path d="M227.687207,410.814935 C227.687207,415.123052 231.180466,418.614935 235.488103,418.614935 C239.796716,418.614935 243.289,415.123052 243.289,410.814935 C243.289,406.507792 239.796716,403.014935 235.488103,403.014935 C231.180466,403.014935 227.687207,406.507792 227.687207,410.814935" id="Fill-33" fill="#00ADE9" sketch:type="MSShapeGroup"></path>
                <path d="M236.560629,405.297078 C235.451086,405.297078 234.551957,406.197078 234.551957,407.305519 C234.551957,408.414935 235.451086,409.312987 236.560629,409.312987 C237.669198,409.312987 238.567353,408.414935 238.567353,407.305519 C238.567353,406.197078 237.669198,405.297078 236.560629,405.297078" id="Fill-34" fill="#33BDEB" sketch:type="MSShapeGroup"></path>
                <path d="M242.479491,406.135714 C242.479491,410.027922 245.634724,413.182792 249.527379,413.182792 C253.41906,413.182792 256.575267,410.027922 256.575267,406.135714 C256.575267,402.244481 253.41906,399.088636 249.527379,399.088636 C245.634724,399.088636 242.479491,402.244481 242.479491,406.135714" id="Fill-35" fill="#00ADE9" sketch:type="MSShapeGroup"></path>
                <path d="M249.31794,400.723052 C248.316526,400.723052 247.503121,401.534416 247.503121,402.537662 C247.503121,403.537987 248.316526,404.351299 249.31794,404.351299 C250.320328,404.351299 251.131784,403.537987 251.131784,402.537662 C251.131784,401.534416 250.320328,400.723052 249.31794,400.723052" id="Fill-36" fill="#33BDEB" sketch:type="MSShapeGroup"></path>
                <path d="M253.32944,397.361688 C253.32944,400.754221 256.079431,403.503896 259.471379,403.503896 C262.863328,403.503896 265.613319,400.754221 265.613319,397.361688 C265.613319,393.97013 262.863328,391.220455 259.471379,391.220455 C256.079431,391.220455 253.32944,393.97013 253.32944,397.361688" id="Fill-37" fill="#00ADE9" sketch:type="MSShapeGroup"></path>
                <path d="M258.808966,392.78474 C257.936138,392.78474 257.22794,393.491883 257.22794,394.365584 C257.22794,395.239286 257.936138,395.945455 258.808966,395.945455 C259.683741,395.945455 260.389991,395.239286 260.389991,394.365584 C260.389991,393.491883 259.683741,392.78474 258.808966,392.78474" id="Fill-38" fill="#33BDEB" sketch:type="MSShapeGroup"></path>
                <path d="M109.430759,531.105195 C109.430759,531.105195 123.543095,561.095455 132.539259,599.731169 L304.05475,599.731169 C307.429164,557.605519 316.892914,523.307143 316.892914,523.307143 L365.422517,571.553571 L407.365,531.105195 C383.942828,496.619805 345.920276,443.268506 343.020267,437.914286 C337.951828,428.555844 315.576853,425.713636 307.534371,422.706818 C291.331534,416.652273 285.017172,415.684091 270.250216,405.423701 C259.178164,445.713312 220.181474,524.866558 220.181474,524.866558 C220.181474,524.866558 174.945431,438.694481 170.845284,405.099351 C160.272966,414.602922 152.150603,418.171753 135.948741,423.487013 C127.919897,426.120779 108.651448,430.505844 93.8318879,436.744481 C79.0133017,442.983117 34.5575431,538.904221 34.5575431,538.904221 L75.1138276,576.336039 L109.430759,531.105195" id="Fill-39" fill="#F99D1C" sketch:type="MSShapeGroup"></path>
                <g id="Group-18" transform="translate(263.991379, 252.272727)">
                    <mask id="mask-2" sketch:name="Clip 17" fill="white">
                        <use xlink:href="#path-1"></use>
                    </mask>
                    <g id="Clip-17"></g>
                    <path d="M46.3709138,23.4574675 C46.3709138,36.1977273 36.0333621,46.5321429 23.2926121,46.5321429 C10.5528362,46.5321429 0.195801724,36.1977273 0.195801724,23.4574675 C0.195801724,10.6996753 10.5528362,0.364285714 23.2926121,0.364285714 C36.0333621,0.364285714 46.3709138,10.6996753 46.3709138,23.4574675" id="Fill-16" sketch:type="MSShapeGroup" mask="url(#mask-2)"></path>
                </g>
                <g id="Group-15" transform="translate(115.922414, 252.272727)">
                    <mask id="mask-4" sketch:name="Clip 14" fill="white">
                        <use xlink:href="#path-3"></use>
                    </mask>
                    <g id="Clip-14"></g>
                    <path d="M46.8959741,23.4574675 C46.8959741,36.1977273 36.548681,46.5321429 23.807931,46.5321429 C11.0584138,46.5321429 0.720862069,36.1977273 0.720862069,23.4574675 C0.720862069,10.6996753 11.0584138,0.364285714 23.807931,0.364285714 C36.548681,0.364285714 46.8959741,10.6996753 46.8959741,23.4574675" id="Fill-13" sketch:type="MSShapeGroup" mask="url(#mask-4)"></path>
                </g>
            </g>
        </g>
    </g>
</svg>