<?xml version="1.0" encoding="UTF-8" standalone="no"?>
<svg width="102px" height="45px" viewBox="0 0 102 45" version="1.1" xmlns="http://www.w3.org/2000/svg" xmlns:xlink="http://www.w3.org/1999/xlink" xmlns:sketch="http://www.bohemiancoding.com/sketch/ns">
    <!-- Generator: Sketch 3.2.2 (9983) - http://www.bohemiancoding.com/sketch -->
    <title>mobiel</title>
    <desc>Created with Sketch.</desc>
    <defs>
        <path id="path-1" d="M2.94475456,1.43390026 C2.94475456,2.21961637 2.30715568,2.85709719 1.52211781,2.85709719 C0.736389902,2.85709719 0.0993660589,2.21961637 0.0993660589,1.43390026 C0.0993660589,0.647148338 0.736389902,0.00966751918 1.52211781,0.00966751918 C2.30715568,0.00966751918 2.94475456,0.647148338 2.94475456,1.43390026"></path>
        <path id="path-3" d="M2.95119495,1.43390026 C2.95119495,2.21961637 2.31417111,2.85709719 1.52913324,2.85709719 C0.743980365,2.85709719 0.105806452,2.21961637 0.105806452,1.43390026 C0.105806452,0.647148338 0.743980365,0.00966751918 1.52913324,0.00966751918 C2.31417111,0.00966751918 2.95119495,0.647148338 2.95119495,1.43390026"></path>
    </defs>
    <g id="Page-1" stroke="none" stroke-width="1" fill="none" fill-rule="evenodd" sketch:type="MSPage">
        <g id="mobiel" sketch:type="MSArtboardGroup">
            <g id="mobiel-op-z'n-kant" sketch:type="MSLayerGroup" transform="translate(10.000000, 0.000000)">
                <path d="M4.07722861,3.18395141 L72.700763,3.18395141 L72.700763,40.834335 L4.07722861,40.834335 L4.07722861,3.18395141 Z" id="Fill-100" fill="#1BB24B" sketch:type="MSShapeGroup"></path>
                <path d="M43.9261234,9.82611253 C43.9261234,9.82611253 41.8355259,5.78601023 35.2030715,7.15672634 C28.5706171,8.52744246 26.6241234,15.0204476 26.8403366,18.7719054 C27.0567798,22.5233632 27.8987461,24.7489642 29.6305217,27.3618414 C31.3394109,29.9400767 30.5892202,31.6134783 29.2915961,32.0463299 C29.2915961,32.0463299 36.7170238,37.312711 44.4307742,32.118376 C44.4307742,32.118376 42.5563899,31.5413171 42.7727181,30.0261637 C42.9889313,28.5112404 45.7285133,26.6353964 47.3865694,23.4612276 C49.0447405,20.2868286 49.7656045,11.3410358 43.9261234,9.82611253" id="Fill-101" fill="#4C360D" sketch:type="MSShapeGroup"></path>
                <path d="M27.4062861,43.8586573 L30.7841571,39.337711 C30.7840421,39.337711 31.520087,40.6537596 32.0975372,43.8586573 L42.0393184,43.8586573 C42.3620281,40.3441688 42.7993997,38.3757928 42.7993997,38.3757928 L47.9779355,43.8586573 L51.6834614,43.8586573 C49.380561,40.8245524 44.8879271,34.8980179 44.7217419,34.624335 C44.4981683,34.2567391 44.2036353,33.4048465 43.6748331,33.4257928 C42.5590351,33.4701023 39.3149173,31.4499361 39.3453941,30.3669437 C39.3805863,29.1197187 39.3453941,27.0805627 39.3453941,27.0805627 L35.1656942,27.0805627 L35.1656942,30.3669437 C35.1656942,31.6154348 33.4957924,32.673913 31.7414755,33.2594885 C29.9858934,33.8446036 29.0570968,34.5091304 29.0570968,34.5091304 L23.8568247,43.8586573 L27.4062861,43.8586573" id="Fill-102" fill="#F3D9A6" sketch:type="MSShapeGroup"></path>
                <path d="M45.6829705,17.5984527 C45.6829705,23.6876087 42.821021,28.6773146 37.2721627,28.6773146 C31.7239944,28.6773146 28.6427265,23.6345524 28.6427265,17.5453964 C28.6427265,11.4552046 31.8174951,10.8361381 37.3658934,10.8361381 C42.9146367,10.8361381 45.6829705,11.5082609 45.6829705,17.5984527" id="Fill-103" fill="#F4D89A" sketch:type="MSShapeGroup"></path>
                <path d="M35.2959972,21.1582864 C35.2959972,21.9946419 34.6102104,22.6729795 33.7655989,22.6729795 C32.9201823,22.6729795 32.2357756,21.9946419 32.2357756,21.1582864 C32.2357756,20.322046 32.9201823,19.6439386 33.7655989,19.6439386 C34.6102104,19.6439386 35.2959972,20.322046 35.2959972,21.1582864" id="Fill-104" fill="#00ADE9" sketch:type="MSShapeGroup"></path>
                <path d="M34.9023282,21.1580563 C34.9023282,21.7415601 34.4288443,22.2157289 33.8459888,22.2157289 C33.2624432,22.2157289 32.7896494,21.7415601 32.7896494,21.1580563 C32.7896494,20.5753581 33.2624432,20.1013043 33.8459888,20.1013043 C34.4288443,20.1013043 34.9023282,20.5753581 34.9023282,21.1580563" id="Fill-105" fill="#234471" sketch:type="MSShapeGroup"></path>
                <path d="M33.4009116,20.6103453 C33.4009116,20.7788363 33.2638233,20.9168286 33.095683,20.9168286 C32.9268527,20.9168286 32.7896494,20.7788363 32.7896494,20.6103453 C32.7896494,20.4417391 32.9268527,20.3051279 33.095683,20.3051279 C33.2638233,20.3051279 33.4009116,20.4417391 33.4009116,20.6103453" id="Fill-106" fill="#FFFFFF" sketch:type="MSShapeGroup"></path>
                <path d="M33.9570856,24.8690026 C35.0041094,25.5040665 36.1249677,25.8964066 37.260892,25.8817903 C38.4037167,25.8817903 39.4985835,25.4392711 40.5872398,24.8690026 C40.1873604,25.3406394 39.68731,25.7318286 39.1200954,26.0136829 C38.5540309,26.2999105 37.9130968,26.456087 37.2665273,26.4662148 C36.620533,26.4673657 35.9751136,26.3230435 35.4051388,26.0413043 C34.8357391,25.7639386 34.3214278,25.3728645 33.9570856,24.8690026" id="Fill-107" fill="#C42C76" sketch:type="MSShapeGroup"></path>
                <path d="M42.4413829,12.7225703 C42.4413829,12.7225703 42.1852623,14.6283376 43.2225105,17.448376 C44.36131,20.544399 45.5868247,21.6866624 46.740345,20.8689514 C46.740345,20.8689514 45.494359,21.2946675 45.8391501,19.9672251 C46.3078036,18.1636573 47.2719074,15.1164322 45.8271893,13.029399 C44.5841935,11.2338875 43.2412567,11.5214962 43.2412567,11.5214962 C43.2412567,11.5214962 42.1598457,7.8420844 37.2721627,7.79466752 C30.2514446,7.72641944 25.4346059,16.571509 29.0752679,22.6675703 C29.0752679,22.6675703 27.8863254,17.9825064 30.372892,17.6897187 C32.8589986,17.3969309 41.7598513,14.2844501 42.4413829,12.5760614" id="Fill-108" fill="#5F3F12" sketch:type="MSShapeGroup"></path>
                <path d="M42.7669677,13.2104348 C42.7668527,13.2104348 41.8408163,15.0134271 38.7355119,16.5353708 C36.2675764,17.7450767 33.4217279,17.939578 30.6822609,17.8674169 C30.6822609,17.8674169 29.7450687,19.4546164 29.8171781,22.0517263 C29.8892875,24.6488363 31.2019776,27.3930307 31.2019776,27.3930307 C31.2019776,27.3930307 26.0834755,19.6736317 30.0845694,13.4332481 C34.7632847,6.13599744 42.0517391,9.7178133 43.1692623,11.8821867 C43.1692623,11.8821867 43.1870884,12.580665 42.7669677,13.2104348" id="Fill-109" fill="#754B1D" sketch:type="MSShapeGroup"></path>
                <path d="M35.9508471,16.3518031 C35.9508471,16.3518031 39.6338317,15.5464066 41.2479551,12.7287852 C41.2479551,12.7287852 40.1873604,13.9366496 38.5991136,14.5402941 C38.5991136,14.5402941 39.7256073,13.5940281 39.9412454,13.0880946 C39.9412454,13.0880946 36.8650379,13.0579412 34.488763,14.7054476 C34.488763,14.7054476 36.9855652,11.7776854 42.0809509,11.8875959 C42.0808359,11.8875959 41.4721038,15.3634143 35.9508471,16.3518031" id="Fill-110" fill="#A26527" sketch:type="MSShapeGroup"></path>
                <path d="M42.3134951,11.6677749 C41.4676185,11.3713043 40.6081711,11.1656394 39.7486087,11.0047442 C38.8874362,10.8559335 38.0200533,10.7685806 37.1572707,10.7947059 C35.4253801,10.821867 33.7374222,11.3144501 32.1841374,12.2170972 C32.8239215,11.5869821 33.5988387,11.0734527 34.4549509,10.7432609 C35.3065778,10.4013299 36.2262889,10.2353708 37.1432398,10.2100512 C38.9748415,10.1838107 40.8086283,10.6800767 42.3134951,11.6677749" id="Fill-111" fill="#A26527" sketch:type="MSShapeGroup"></path>
                <path d="M45.0074194,17.2175064 C44.7111613,16.8515217 44.4718317,16.4430691 44.2514783,16.0254092 C44.0352651,15.6040665 43.8612595,15.1602813 43.721641,14.7026854 C43.4568948,13.7901407 43.1692623,11.8821867 43.1692623,11.8821867 C43.1692623,11.8821867 44.6160505,12.2696931 45.1915456,13.3590153 C45.7670407,14.4482225 45.7310435,15.6746164 45.7310435,15.6746164 C45.7310435,15.6746164 45.4162693,14.5752813 44.9380701,13.8350256 C44.459871,13.0946547 43.9867321,12.9654092 43.7845498,12.7528389 C43.7845498,12.7528389 43.9653408,13.8904987 44.1449818,14.77289 C44.3280729,15.6570077 44.6643534,16.346509 45.0074194,17.2175064" id="Fill-112" fill="#A26527" sketch:type="MSShapeGroup"></path>
                <g id="Group-115" transform="translate(30.936886, 22.442455)">
                    <mask id="mask-2" sketch:name="Clip 114" fill="white">
                        <use xlink:href="#path-1"></use>
                    </mask>
                    <g id="Clip-114"></g>
                    <path d="M2.94475456,1.43390026 C2.94475456,2.21961637 2.30715568,2.85709719 1.52211781,2.85709719 C0.736389902,2.85709719 0.0993660589,2.21961637 0.0993660589,1.43390026 C0.0993660589,0.647148338 0.736389902,0.00966751918 1.52211781,0.00966751918 C2.30715568,0.00966751918 2.94475456,0.647148338 2.94475456,1.43390026" id="Fill-113" sketch:type="MSShapeGroup" mask="url(#mask-2)"></path>
                </g>
                <g id="Group-118" transform="translate(40.022440, 22.442455)">
                    <mask id="mask-4" sketch:name="Clip 117" fill="white">
                        <use xlink:href="#path-3"></use>
                    </mask>
                    <g id="Clip-117"></g>
                    <path d="M2.95119495,1.43390026 C2.95119495,2.21961637 2.31417111,2.85709719 1.52913324,2.85709719 C0.743980365,2.85709719 0.105806452,2.21961637 0.105806452,1.43390026 C0.105806452,0.647148338 0.743980365,0.00966751918 1.52913324,0.00966751918 C2.31417111,0.00966751918 2.95119495,0.647148338 2.95119495,1.43390026" id="Fill-116" sketch:type="MSShapeGroup" mask="url(#mask-4)"></path>
                </g>
                <path d="M34.3406339,36.4519565 L40.0357812,36.4519565 L37.6567461,40.9969565 L34.3406339,36.4519565" id="Fill-119" fill="#C42C76" sketch:type="MSShapeGroup"></path>
                <path d="M30.5878401,39.6257801 C30.5878401,39.6257801 30.6275175,39.2498977 30.6453436,38.6836573 C30.6632847,38.1178772 30.6621346,37.3611637 30.5819748,36.6113555 C30.5623086,36.4239898 30.5357419,36.2375448 30.5068752,36.0546675 C30.4744432,35.8723657 30.4425863,35.6930563 30.4025638,35.5214578 C30.3634614,35.3498593 30.3175736,35.1859719 30.2700757,35.0320972 C30.2464993,34.9551023 30.2231529,34.880179 30.1956662,34.8096292 C30.1701346,34.7382737 30.1446031,34.6696803 30.1152763,34.6058056 C30.061453,34.4760997 30.0037195,34.360665 29.9480561,34.2611125 C29.9189593,34.2119693 29.8917027,34.1659335 29.8665161,34.1234655 C29.8383394,34.0827238 29.8125778,34.0453197 29.7892314,34.0115985 C29.7449537,33.9419693 29.6980309,33.8967391 29.6712342,33.8616368 C29.6429425,33.8276854 29.6277616,33.8095013 29.6277616,33.8095013 L29.6335119,33.8038619 C29.6335119,33.8038619 29.6499579,33.8207801 29.6808948,33.8525448 C29.7103366,33.8856905 29.7612847,33.9280435 29.8110827,33.9945652 C29.8373043,34.0270205 29.8662861,34.0629284 29.897798,34.1020588 C29.9255147,34.1438363 29.9555316,34.1890665 29.9875035,34.2374041 C30.0484572,34.3359207 30.1156213,34.4492839 30.1735849,34.5797954 C30.2053268,34.6440153 30.2333885,34.7128389 30.2614502,34.7845396 C30.291467,34.855665 30.3174586,34.9308184 30.3435652,35.0082737 C30.3980785,35.1627238 30.4397111,35.3302941 30.4806536,35.5036189 C30.520561,35.677289 30.5542581,35.8582097 30.5817447,36.0429284 C30.6071613,36.2279923 30.6300477,36.4162788 30.6460337,36.6050256 C30.7140028,37.360243 30.7052623,38.1186829 30.6735203,38.6848082 C30.6435035,39.2513939 30.5957756,39.6267008 30.5957756,39.6267008 L30.5878401,39.6257801" id="Fill-120" fill="#064C6C" sketch:type="MSShapeGroup"></path>
                <path d="M43.3720196,39.1455115 C43.3720196,39.1455115 43.3487882,38.7876982 43.3605189,38.25 C43.3700645,37.7127621 43.4219327,36.995179 43.5568359,36.2888747 C43.591453,36.1126726 43.6292903,35.9368159 43.6744881,35.7655627 C43.7188808,35.5940793 43.7697139,35.4269693 43.8283675,35.268376 C43.8556241,35.1883887 43.886676,35.1112788 43.9179579,35.0361253 C43.9470547,34.9600512 43.9820168,34.8882353 44.0161739,34.8186061 C44.0847181,34.6794629 44.1571725,34.5514834 44.231122,34.43789 C44.2653941,34.3794246 44.3057616,34.3282097 44.3424488,34.2786061 C44.378331,34.228312 44.4149032,34.1826215 44.4520505,34.1418798 C44.5213997,34.0563683 44.591439,33.9905371 44.6489425,33.9366752 C44.7051809,33.8815473 44.7573941,33.8472506 44.789136,33.8196292 C44.821913,33.7935038 44.8395091,33.7794629 44.8395091,33.7794629 L44.8444544,33.7857928 C44.8443394,33.7857928 44.8281234,33.8010997 44.7975316,33.8298721 C44.7682048,33.8597954 44.7195568,33.8975448 44.6683787,33.9564706 C44.6165105,34.014821 44.5519916,34.0835294 44.4878177,34.1708824 C44.4535456,34.2126598 44.4200785,34.2595013 44.3876466,34.3108312 C44.3541795,34.3614706 44.3177223,34.4136061 44.2852903,34.4718414 C44.2161711,34.5853197 44.149007,34.7130691 44.0859832,34.851867 C44.0234194,34.9907801 43.9584404,35.1382097 43.9036971,35.2956522 C43.8455035,35.4517136 43.7966255,35.6172123 43.7476325,35.7853581 C43.6993296,35.9539642 43.6581571,36.1274041 43.6199748,36.3016496 C43.4735708,37.0005882 43.4119271,37.7154092 43.3886957,38.2509207 C43.3648892,38.7871228 43.3800701,39.1451662 43.3800701,39.1451662 L43.3720196,39.1455115" id="Fill-121" fill="#064C6C" sketch:type="MSShapeGroup"></path>
                <path d="M39.3969173,21.1582864 C39.3969173,21.9946419 40.0827041,22.6729795 40.9273156,22.6729795 C41.7727321,22.6729795 42.4570238,21.9946419 42.4570238,21.1582864 C42.4570238,20.322046 41.7727321,19.6439386 40.9273156,19.6439386 C40.0827041,19.6439386 39.3969173,20.322046 39.3969173,21.1582864" id="Fill-122" fill="#00ADE9" sketch:type="MSShapeGroup"></path>
                <path d="M39.7905863,21.1580563 C39.7905863,21.7415601 40.2640701,22.2157289 40.8469257,22.2157289 C41.4304712,22.2157289 41.9031501,21.7415601 41.9031501,21.1580563 C41.9031501,20.5753581 41.4304712,20.1013043 40.8469257,20.1013043 C40.2640701,20.1013043 39.7905863,20.5753581 39.7905863,21.1580563" id="Fill-123" fill="#234471" sketch:type="MSShapeGroup"></path>
                <path d="M39.8503899,20.6103453 C39.8503899,20.7788363 39.9874783,20.9168286 40.1556185,20.9168286 C40.3244488,20.9168286 40.4615372,20.7788363 40.4615372,20.6103453 C40.4615372,20.4417391 40.3244488,20.3051279 40.1556185,20.3051279 C39.9874783,20.3051279 39.8503899,20.4417391 39.8503899,20.6103453" id="Fill-124" fill="#FFFFFF" sketch:type="MSShapeGroup"></path>
                <path d="M37.8971108,32.3998849 C37.8971108,32.7120077 37.6442104,32.9650895 37.3324264,32.9650895 C37.0204123,32.9650895 36.7676269,32.7120077 36.7676269,32.3998849 C36.7676269,32.0878772 37.0204123,31.8347954 37.3324264,31.8347954 C37.6442104,31.8347954 37.8971108,32.0878772 37.8971108,32.3998849" id="Fill-125" fill="#00ADE9" sketch:type="MSShapeGroup"></path>
                <path id="Fill-126" fill="#33BDEB" sketch:type="MSShapeGroup" d="M37.5365638,32.1221739 C37.4564039,32.1221739 37.391195,32.1873146 37.391195,32.2676471 C37.391195,32.3479795 37.4564039,32.4131202 37.5365638,32.4131202 C37.6169537,32.4131202 37.6819327,32.3479795 37.6819327,32.2676471 C37.6819327,32.1873146 37.6169537,32.1221739 37.5365638,32.1221739"></path>
                <path d="M36.7677419,32.3157545 C36.7677419,32.5814962 36.5524488,32.7968286 36.2870126,32.7968286 C36.0215764,32.7968286 35.8063983,32.5814962 35.8063983,32.3157545 C35.8063983,32.0500128 36.0215764,31.8346803 36.2870126,31.8346803 C36.5524488,31.8346803 36.7677419,32.0500128 36.7677419,32.3157545" id="Fill-127" fill="#00ADE9" sketch:type="MSShapeGroup"></path>
                <path id="Fill-128" fill="#33BDEB" sketch:type="MSShapeGroup" d="M36.4609032,32.0793606 C36.3925891,32.0793606 36.3371557,32.1347187 36.3371557,32.2030818 C36.3371557,32.2715601 36.3925891,32.3269182 36.4609032,32.3269182 C36.5292174,32.3269182 36.5846508,32.2715601 36.5846508,32.2030818 C36.5846508,32.1347187 36.5292174,32.0793606 36.4609032,32.0793606"></path>
                <path d="M35.8563114,32.02711 C35.8563114,32.2671867 35.6617195,32.4618031 35.4219299,32.4618031 C35.1821403,32.4618031 34.9876634,32.2671867 34.9876634,32.02711 C34.9876634,31.7871483 35.1821403,31.592532 35.4219299,31.592532 C35.6617195,31.592532 35.8563114,31.7871483 35.8563114,32.02711" id="Fill-129" fill="#00ADE9" sketch:type="MSShapeGroup"></path>
                <path id="Fill-130" fill="#33BDEB" sketch:type="MSShapeGroup" d="M35.5790295,31.8135038 C35.5172707,31.8135038 35.4672426,31.8636829 35.4672426,31.9254859 C35.4672426,31.987289 35.5172707,32.0372379 35.5790295,32.0372379 C35.6407882,32.0372379 35.6908163,31.987289 35.6908163,31.9254859 C35.6908163,31.8636829 35.6407882,31.8135038 35.5790295,31.8135038"></path>
                <path d="M35.1876606,31.4860742 C35.1876606,31.6951918 35.0182553,31.8648338 34.8091725,31.8648338 C34.6000898,31.8648338 34.4305694,31.6951918 34.4305694,31.4860742 C34.4305694,31.2768414 34.6000898,31.1073146 34.8091725,31.1073146 C35.0182553,31.1073146 35.1876606,31.2768414 35.1876606,31.4860742" id="Fill-131" fill="#00ADE9" sketch:type="MSShapeGroup"></path>
                <path id="Fill-132" fill="#33BDEB" sketch:type="MSShapeGroup" d="M34.9460309,31.2998593 C34.8923226,31.2998593 34.8487349,31.3435934 34.8487349,31.3974552 C34.8487349,31.4513171 34.8923226,31.4950512 34.9460309,31.4950512 C34.9998541,31.4950512 35.0435568,31.4513171 35.0435568,31.3974552 C35.0435568,31.3435934 34.9998541,31.2998593 34.9460309,31.2998593"></path>
                <path d="M37.8790547,32.2075703 C37.8790547,32.4731969 38.0942328,32.6885294 38.359669,32.6885294 C38.6251052,32.6885294 38.8403983,32.4731969 38.8403983,32.2075703 C38.8403983,31.9418286 38.6251052,31.7264962 38.359669,31.7264962 C38.0942328,31.7264962 37.8790547,31.9418286 37.8790547,32.2075703" id="Fill-133" fill="#00ADE9" sketch:type="MSShapeGroup"></path>
                <path id="Fill-134" fill="#33BDEB" sketch:type="MSShapeGroup" d="M38.425798,31.8673657 C38.3574839,31.8673657 38.3021655,31.9227238 38.3021655,31.991087 C38.3021655,32.0594501 38.3574839,32.1149233 38.425798,32.1149233 C38.4939972,32.1149233 38.5494306,32.0594501 38.5494306,31.991087 C38.5494306,31.9227238 38.4939972,31.8673657 38.425798,31.8673657"></path>
                <path d="M38.7904853,31.9189258 C38.7904853,32.1590026 38.9849621,32.3536189 39.2248668,32.3536189 C39.4646564,32.3536189 39.6591332,32.1590026 39.6591332,31.9189258 C39.6591332,31.6789642 39.4646564,31.4843478 39.2248668,31.4843478 C38.9849621,31.4843478 38.7904853,31.6789642 38.7904853,31.9189258" id="Fill-135" fill="#00ADE9" sketch:type="MSShapeGroup"></path>
                <path id="Fill-136" fill="#33BDEB" sketch:type="MSShapeGroup" d="M39.211986,31.5851662 C39.1502272,31.5851662 39.1000842,31.6352302 39.1000842,31.6970332 C39.1000842,31.7587212 39.1502272,31.8089003 39.211986,31.8089003 C39.2736297,31.8089003 39.3236578,31.7587212 39.3236578,31.6970332 C39.3236578,31.6352302 39.2736297,31.5851662 39.211986,31.5851662"></path>
                <path d="M39.459136,31.37789 C39.459136,31.5870077 39.6286564,31.7566496 39.8376241,31.7566496 C40.0467069,31.7566496 40.2161122,31.5870077 40.2161122,31.37789 C40.2161122,31.1686573 40.0467069,30.9991304 39.8376241,30.9991304 C39.6286564,30.9991304 39.459136,31.1686573 39.459136,31.37789" id="Fill-137" fill="#00ADE9" sketch:type="MSShapeGroup"></path>
                <path id="Fill-138" fill="#33BDEB" sketch:type="MSShapeGroup" d="M39.7969116,31.0955754 C39.7430884,31.0955754 39.6993857,31.1391944 39.6993857,31.1930563 C39.6993857,31.2468031 39.7430884,31.2905371 39.7969116,31.2905371 C39.8506199,31.2905371 39.8943226,31.2468031 39.8943226,31.1930563 C39.8943226,31.1391944 39.8506199,31.0955754 39.7969116,31.0955754"></path>
                <path d="M30.5918654,39.6262404 C30.5918654,39.6262404 31.4614334,41.475844 32.0157672,43.8586573 L42.5849116,43.8586573 C42.7928443,41.2606266 43.3760449,39.1452813 43.3760449,39.1452813 L46.3665722,42.1209207 L48.9511248,39.6262404 C47.5079018,37.4993862 45.164864,34.2090921 44.9861431,33.8787852 C44.673669,33.3017263 43.2949649,33.126445 42.7993997,32.9409207 C41.8010238,32.5675703 41.4118401,32.5078389 40.5017896,31.8750767 C39.819568,34.3598593 37.4164965,39.2414962 37.4164965,39.2414962 C37.4164965,39.2414962 34.6289565,33.9270077 34.3762861,31.8550512 C33.7247714,32.441202 33.2242609,32.6612532 32.225885,32.9890281 C31.7311248,33.1515345 30.5437924,33.4219949 29.6305217,33.8067391 C28.7174811,34.1914834 25.977899,40.1071995 25.977899,40.1071995 L28.4771164,42.4157801 L30.5918654,39.6262404" id="Fill-139" fill="#F99D1C" sketch:type="MSShapeGroup"></path>
                <path d="M72.700763,4.31769821 L72.700763,16.1734143 L77.2370996,19.4053581 L77.2370996,24.4405243 L72.700763,21.2699233 L72.700763,27.9525959 L78.1034474,32.0896036 L76.6199719,4.73121483 L72.700763,4.31769821 M45.4976942,2.25748082 L39.1439018,2.25748082 L40.3538906,3.18395141 L46.8232651,3.18395141 L45.4976942,2.25748082 M53.1678569,2.25748082 L54.4683562,3.18395141 L61.9516325,3.18395141 L53.1678569,2.25748082" id="Fill-140" fill="#F9FCF9" sketch:type="MSShapeGroup"></path>
                <path d="M46.8232651,3.18395141 L40.3538906,3.18395141 L72.700763,27.9525959 L72.700763,21.2699233 L46.8232651,3.18395141 M61.9516325,3.18395141 L54.4683562,3.18395141 L72.700763,16.1734143 L72.700763,4.31769821 L61.9516325,3.18395141" id="Fill-141" fill="#2CB758" sketch:type="MSShapeGroup"></path>
                <path d="M0.0623338008,6.68750639 L0.0623338008,38.2747442 C0.0623338008,41.9458696 3.03618513,44.9218542 6.70467882,44.9218542 L74.439669,44.9218542 C78.5617504,44.9218542 81.9032791,41.5778133 81.9032791,37.45289 L81.9032791,7.50924552 C81.9032791,3.38432225 78.5617504,0.0403964194 74.439669,0.0403964194 L41.0963759,0.0403964194 L41.0963759,0.0402813299 L6.70467882,0.0402813299 C3.03618513,0.0402813299 0.0623338008,3.01638107 0.0623338008,6.68750639 L0.0623338008,6.68750639 Z M78.7894642,23.2913555 C78.7894642,24.9869693 77.4158205,26.3615985 75.7214222,26.3615985 C74.0269088,26.3615985 72.6532651,24.9869693 72.6532651,23.2913555 C72.6532651,21.5956266 74.0269088,20.2211125 75.7214222,20.2211125 C77.4158205,20.2211125 78.7894642,21.5956266 78.7894642,23.2913555 L78.7894642,23.2913555 Z M68.1653464,4.282711 C68.6189341,4.282711 68.9866115,4.65065217 68.9866115,5.10456522 L68.9866115,39.8575703 C68.9866115,40.3114834 68.6189341,40.6794246 68.1653464,40.6794246 L5.23868443,40.6794246 C4.92414025,40.628555 4.59740533,40.4517775 4.56313324,39.9052174 L4.56324825,5.10445013 C4.56324825,4.65065217 4.93092567,4.28282609 5.38439832,4.282711 L68.1653464,4.282711 L68.1653464,4.282711 Z" id="Fill-142" fill="#004152" sketch:type="MSShapeGroup"></path>
                <path d="M81.9032791,35.5186957 L81.9032791,7.50924552 C81.9032791,3.38432225 78.5617504,0.0403964194 74.439669,0.0403964194 L41.0963759,0.0403964194 L41.0963759,0.0402813299 L36.5343927,0.0402813299 L41.9595035,4.282711 L68.1653464,4.282711 C68.6189341,4.282711 68.9866115,4.65065217 68.9866115,5.10456522 L68.9866115,25.4178645 L81.9032791,35.5186957 L81.9032791,35.5186957 Z M75.7214222,20.2211125 C77.4158205,20.2211125 78.7894642,21.5956266 78.7894642,23.2913555 C78.7894642,24.9869693 77.4158205,26.3615985 75.7214222,26.3615985 C74.0269088,26.3615985 72.6532651,24.9869693 72.6532651,23.2913555 C72.6532651,21.5956266 74.0269088,20.2211125 75.7214222,20.2211125 L75.7214222,20.2211125 Z" id="Fill-143" fill="#074C5F" sketch:type="MSShapeGroup"></path>
            </g>
        </g>
    </g>
</svg>