<svg height="45" viewBox="0 0 102 45" width="102" xmlns="http://www.w3.org/2000/svg" xmlns:xlink="http://www.w3.org/1999/xlink"><mask id="a" fill="#fff"><path d="m2.94475456 1.43390026c0 .78571611-.63759888 1.42319693-1.42263675 1.42319693-.78572791 0-1.42275175-.63748082-1.42275175-1.42319693 0-.78675192.63702384-1.42423274 1.42275175-1.42423274.78503787 0 1.42263675.63748082 1.42263675 1.42423274" fill="#fff" fill-rule="evenodd"/></mask><mask id="b" fill="#fff"><path d="m2.95119495 1.43390026c0 .78571611-.63702384 1.42319693-1.42206171 1.42319693-.78515287 0-1.42332679-.63748082-1.42332679-1.42319693 0-.78675192.63817392-1.42423274 1.42332679-1.42423274.78503787 0 1.42206171.63748082 1.42206171 1.42423274" fill="#fff" fill-rule="evenodd"/></mask><g fill="none" fill-rule="evenodd" transform="translate(10)"><path d="m4.07722861 3.18395141h68.62353439v37.65038359h-68.62353439z" fill="#1bb24b"/><path d="m43.9261234 9.82611253s-2.0905975-4.0401023-8.7230519-2.66938619c-6.6324544 1.37071612-8.5789481 7.86372126-8.3627349 11.61517906.2164432 3.7514578 1.0584095 5.9770588 2.7901851 8.589936 1.7088892 2.5782353.9586985 4.2516369-.3389256 4.6844885 0 0 7.4254277 5.2663811 15.1391781.0720461 0 0-1.8743843-.5770589-1.6580561-2.0922123.2162132-1.5149233 2.9557952-3.3907673 4.6138513-6.5649361 1.6581711-3.174399 2.3790351-12.1201918-3.460446-13.63511507" fill="#4c360d"/><path d="m27.4062861 43.8586573 3.377871-4.5209463c-.000115 0 .7359299 1.3160486 1.3133801 4.5209463h9.9417812c.3227097-3.5144885.7600813-5.4828645.7600813-5.4828645l5.1785358 5.4828645h3.7055259c-2.3029004-3.0341049-6.7955343-8.9606394-6.9617195-9.2343223-.2235736-.3675959-.5181066-1.2194885-1.0469088-1.1985422-1.115798.0443095-4.3599158-1.9758567-4.329439-3.0588491.0351922-1.247225 0-3.286381 0-3.286381h-4.1796999v3.286381c0 1.2484911-1.6699018 2.3069693-3.4242187 2.8925448-1.7555821.5851151-2.6843787 1.2496419-2.6843787 1.2496419l-5.2002721 9.3495269z" fill="#f3d9a6"/><path d="m45.6829705 17.5984527c0 6.089156-2.8619495 11.0788619-8.4108078 11.0788619-5.5481683 0-8.6294362-5.0427622-8.6294362-11.1319182 0-6.0901918 3.1747686-6.7092583 8.7231669-6.7092583 5.5487433 0 8.3170771.6721228 8.3170771 6.7623146" fill="#f4d89a"/><path d="m35.2959972 21.1582864c0 .8363555-.6857868 1.5146931-1.5303983 1.5146931-.8454166 0-1.5298233-.6783376-1.5298233-1.5146931 0-.8362404.6844067-1.5143478 1.5298233-1.5143478.8446115 0 1.5303983.6781074 1.5303983 1.5143478" fill="#00ade9"/><path d="m34.9023282 21.1580563c0 .5835038-.4734839 1.0576726-1.0563394 1.0576726-.5835456 0-1.0563394-.4741688-1.0563394-1.0576726 0-.5826982.4727938-1.056752 1.0563394-1.056752.5828555 0 1.0563394.4740538 1.0563394 1.056752" fill="#234471"/><path d="m33.4009116 20.6103453c0 .168491-.1370883.3064833-.3052286.3064833-.1688303 0-.3060336-.1379923-.3060336-.3064833 0-.1686062.1372033-.3052174.3060336-.3052174.1681403 0 .3052286.1366112.3052286.3052174" fill="#fff"/><path d="m33.9570856 24.8690026c1.0470238.6350639 2.1678821 1.027404 3.3038064 1.0127877 1.1428247 0 2.2376915-.4425192 3.3263478-1.0127877-.3998794.4716368-.8999298.862826-1.4671444 1.1446803-.5660645.2862276-1.2069986.4424041-1.8535681.4525319-.6459943.0011509-1.2914137-.1431713-1.8613885-.4249105-.5693997-.2773657-1.083711-.6684398-1.4480532-1.1723017" fill="#c42c76"/><path d="m42.4413829 12.7225703s-.2561206 1.9057673.7811276 4.7258057c1.1387995 3.096023 2.3643142 4.2382864 3.5178345 3.4205754 0 0-1.245986.4257161-.9011949-.9017263.4686535-1.8035678 1.4327573-4.8507929-.0119608-6.9378261-1.2429958-1.7955115-2.5859326-1.5079028-2.5859326-1.5079028s-1.081411-3.6794118-5.969094-3.72682868c-7.0207181-.06824808-11.8375568 8.77684148-8.1968948 14.87290278 0 0-1.1889425-4.6850639 1.2976241-4.9778516 2.4861066-.2927878 11.3869593-3.4052686 12.0684909-5.1136573" fill="#5f3f12"/><path d="m42.7669677 13.2104348c-.000115 0-.9261514 1.8029923-4.0314558 3.324936-2.4679355 1.2097059-5.313784 1.4042072-8.053251 1.3320461 0 0-.9371922 1.5871995-.8650828 4.1843094.0721094 2.59711 1.3847995 5.3413044 1.3847995 5.3413044s-5.1185021-7.719399-1.1174082-13.9597826c4.6787153-7.29725066 11.9671697-3.7154348 13.0846929-1.5510614 0 0 .0178261.6984783-.4022946 1.3282481" fill="#754b1d"/><g fill="#a26527"><path d="m35.9508471 16.3518031s3.6829846-.8053965 5.297108-3.6230179c0 0-1.0605947 1.2078644-2.6488415 1.8115089 0 0 1.1264937-.946266 1.3421318-1.4521995 0 0-3.0762075-.0301534-5.4524824 1.617353 0 0 2.4968022-2.9277622 7.5921879-2.8178517-.000115 0-.6088471 3.4758184-6.1301038 4.4642072"/><path d="m42.3134951 11.6677749c-.8458766-.2964706-1.705324-.5021355-2.5648864-.6630307-.8611725-.1488107-1.7285554-.2361636-2.591338-.2100383-1.7318906.0271611-3.4198485.5197442-4.9731333 1.4223913.6397841-.6301151 1.4147013-1.1436445 2.2708135-1.4738363.8516269-.341931 1.771338-.5078901 2.6882889-.5332097 1.8316017-.0262405 3.6653885.4700255 5.1702553 1.4577237"/><path d="m45.0074194 17.2175064c-.2962581-.3659847-.5355877-.7744373-.7559411-1.1920972-.2162132-.4213427-.3902188-.8651279-.5298373-1.3227238-.2647462-.9125447-.5523787-2.8204987-.5523787-2.8204987s1.4467882.3875064 2.0222833 1.4768286c.5754951 1.0892072.5394979 2.3156011.5394979 2.3156011s-.3147742-1.0993351-.7929734-1.8395908c-.4781991-.7403709-.951338-.8696164-1.1535203-1.0821867 0 0 .180791 1.1376598.360432 2.0200511.1830911.8841177.5193716 1.573619.8624376 2.4446164"/></g><path d="m2.94475456 1.43390026c0 .78571611-.63759888 1.42319693-1.42263675 1.42319693-.78572791 0-1.42275175-.63748082-1.42275175-1.42319693 0-.78675192.63702384-1.42423274 1.42275175-1.42423274.78503787 0 1.42263675.63748082 1.42263675 1.42423274" mask="url(#a)" transform="translate(30.936886 22.442455)"/><path d="m2.95119495 1.43390026c0 .78571611-.63702384 1.42319693-1.42206171 1.42319693-.78515287 0-1.42332679-.63748082-1.42332679-1.42319693 0-.78675192.63817392-1.42423274 1.42332679-1.42423274.78503787 0 1.42206171.63748082 1.42206171 1.42423274" mask="url(#b)" transform="translate(40.02244 22.442455)"/><path d="m34.3406339 36.4519565h5.6951473l-2.3790351 4.545z" fill="#c42c76"/><path d="m30.5878401 39.6257801s.0396774-.3758824.0575035-.9421228c.0179411-.5657801.016791-1.3224936-.0633688-2.0723018-.0196662-.1873657-.0462329-.3738107-.0750996-.556688-.032432-.1823018-.0642889-.3616112-.1043114-.5332097-.0391024-.1715985-.0849902-.3354859-.1324881-.4893606-.0235764-.0769949-.0469228-.1519182-.0744095-.222468-.0255316-.0713555-.0510631-.1399489-.0803899-.2038236-.0538233-.1297059-.1115568-.2451406-.1672202-.3446931-.0290968-.0491432-.0563534-.095179-.08154-.137647-.0281767-.0407417-.0539383-.0781458-.0772847-.111867-.0442777-.0696292-.0912005-.1148594-.1179972-.1499617-.0282917-.0339514-.0434726-.0521355-.0434726-.0521355l.0057503-.0056394s.016446.0169182.0473829.0486829c.0294418.0331457.0803899.0754987.1301879.1420204.0262216.0324553.0552034.0683632.0867153.1074936.0277167.0417775.0577336.0870077.0897055.1353453.0609537.0985166.1281178.2118798.1860814.3423913.0317419.0642199.0598036.1330435.0878653.2047442.0300168.0711254.0560084.1462788.082115.2237341.0545133.1544501.0961459.3220204.1370884.4953452.0399074.1736701.0736045.3545908.1010911.5393095.0254166.1850639.048303.3733504.064289.5620972.0679691.7552174.0592286 1.5136573.0274866 2.0797826-.0300168.5665857-.0777447.9418926-.0777447.9418926z" fill="#064c6c"/><path d="m43.3720196 39.1455115s-.0232314-.3578133-.0115007-.8955115c.0095456-.5372379.0614138-1.254821.196317-1.9611253.0346171-.1762021.0724544-.3520588.1176522-.523312.0443927-.1714834.0952258-.3385934.1538794-.4971867.0272566-.0799873.0583085-.1570972.0895904-.2322507.0290968-.0760741.0640589-.14789.098216-.2175192.0685442-.1391432.1409986-.2671227.2149481-.3807161.0342721-.0584654.0746396-.1096803.1113268-.1592839.0358822-.0502941.0724544-.0959846.1096017-.1367263.0693492-.0855115.1393885-.1513427.196892-.2052046.0562384-.0551279.1084516-.0894246.1401935-.117046.032777-.0261254.0503731-.0401663.0503731-.0401663l.0049453.0063299c-.000115 0-.016331.0153069-.0469228.0440793-.0293268.0299233-.0779748.0676727-.1291529.1265985-.0518682.0583504-.1163871.1270588-.180561.2144118-.0342721.0417774-.0677392.0886189-.1001711.1399488-.0334671.0506394-.0699243.1027749-.1023563.1610102-.0691192.1134783-.1362833.2412277-.1993071.3800256-.0625638.1389131-.1275428.2863427-.1822861.4437852-.0581936.1560614-.1070716.3215601-.1560646.4897059-.0483029.1686061-.0894754.342046-.1276577.5162915-.146404.6989386-.2080477 1.4137596-.2312791 1.9492711-.0238065.5362021-.0086256.8942455-.0086256.8942455z" fill="#064c6c"/><path d="m39.3969173 21.1582864c0 .8363555.6857868 1.5146931 1.5303983 1.5146931.8454165 0 1.5297082-.6783376 1.5297082-1.5146931 0-.8362404-.6842917-1.5143478-1.5297082-1.5143478-.8446115 0-1.5303983.6781074-1.5303983 1.5143478" fill="#00ade9"/><path d="m39.7905863 21.1580563c0 .5835038.4734838 1.0576726 1.0563394 1.0576726.5835455 0 1.0562244-.4741688 1.0562244-1.0576726 0-.5826982-.4726789-1.056752-1.0562244-1.056752-.5828556 0-1.0563394.4740538-1.0563394 1.056752" fill="#234471"/><path d="m39.8503899 20.6103453c0 .168491.1370884.3064833.3052286.3064833.1688303 0 .3059187-.1379923.3059187-.3064833 0-.1686062-.1370884-.3052174-.3059187-.3052174-.1681402 0-.3052286.1366112-.3052286.3052174" fill="#fff"/><path d="m37.8971108 32.3998849c0 .3121228-.2529004.5652046-.5646844.5652046-.3120141 0-.5647995-.2530818-.5647995-.5652046 0-.3120077.2527854-.5650895.5647995-.5650895.311784 0 .5646844.2530818.5646844.5650895" fill="#00ade9"/><path d="m37.5365638 32.1221739c-.0801599 0-.1453688.0651407-.1453688.1454732 0 .0803324.0652089.1454731.1453688.1454731.0803899 0 .1453689-.0651407.1453689-.1454731 0-.0803325-.064979-.1454732-.1453689-.1454732" fill="#33bdeb"/><path d="m36.7677419 32.3157545c0 .2657417-.2152931.4810741-.4807293.4810741s-.4806143-.2153324-.4806143-.4810741.2151781-.4810742.4806143-.4810742.4807293.2153325.4807293.4810742" fill="#00ade9"/><path d="m36.4609032 32.0793606c-.0683141 0-.1237475.0553581-.1237475.1237212 0 .0684783.0554334.1238364.1237475.1238364.0683142 0 .1237476-.0553581.1237476-.1238364 0-.0683631-.0554334-.1237212-.1237476-.1237212" fill="#33bdeb"/><path d="m35.8563114 32.02711c0 .2400767-.1945919.4346931-.4343815.4346931s-.4342665-.1946164-.4342665-.4346931c0-.2399617.1944769-.434578.4342665-.434578s.4343815.1946163.4343815.434578" fill="#00ade9"/><path d="m35.5790295 31.8135038c-.0617588 0-.1117869.0501791-.1117869.1119821 0 .0618031.0500281.111752.1117869.111752.0617587 0 .1117868-.0499489.1117868-.111752 0-.061803-.0500281-.1119821-.1117868-.1119821" fill="#33bdeb"/><path d="m35.1876606 31.4860742c0 .2091176-.1694053.3787596-.3784881.3787596-.2090827 0-.3786031-.169642-.3786031-.3787596 0-.2092328.1695204-.3787596.3786031-.3787596.2090828 0 .3784881.1695268.3784881.3787596" fill="#00ade9"/><path d="m34.9460309 31.2998593c-.0537083 0-.097296.0437341-.097296.0975959 0 .0538619.0435877.097596.097296.097596.0538232 0 .0975259-.0437341.0975259-.097596 0-.0538618-.0437027-.0975959-.0975259-.0975959" fill="#33bdeb"/><path d="m37.8790547 32.2075703c0 .2656266.2151781.4809591.4806143.4809591s.4807293-.2153325.4807293-.4809591c0-.2657417-.2152931-.4810741-.4807293-.4810741s-.4806143.2153324-.4806143.4810741" fill="#00ade9"/><path d="m38.425798 31.8673657c-.0683141 0-.1236325.0553581-.1236325.1237213 0 .0683631.0553184.1238363.1236325.1238363.0681992 0 .1236326-.0554732.1236326-.1238363 0-.0683632-.0554334-.1237213-.1236326-.1237213" fill="#33bdeb"/><path d="m38.7904853 31.9189258c0 .2400768.1944768.4346931.4343815.4346931.2397896 0 .4342664-.1946163.4342664-.4346931 0-.2399616-.1944768-.434578-.4342664-.434578-.2399047 0-.4343815.1946164-.4343815.434578" fill="#00ade9"/><path d="m39.211986 31.5851662c-.0617588 0-.1119018.050064-.1119018.111867 0 .061688.050143.1118671.1119018.1118671.0616437 0 .1116718-.0501791.1116718-.1118671 0-.061803-.0500281-.111867-.1116718-.111867" fill="#33bdeb"/><path d="m39.459136 31.37789c0 .2091177.1695204.3787596.3784881.3787596.2090828 0 .3784881-.1696419.3784881-.3787596 0-.2092327-.1694053-.3787596-.3784881-.3787596-.2089677 0-.3784881.1695269-.3784881.3787596" fill="#00ade9"/><path d="m39.7969116 31.0955754c-.0538232 0-.0975259.043619-.0975259.0974809 0 .0537468.0437027.0974808.0975259.0974808.0537083 0 .097411-.043734.097411-.0974808 0-.0538619-.0437027-.0974809-.097411-.0974809" fill="#33bdeb"/><path d="m30.5918654 39.6262404s.869568 1.8496036 1.4239018 4.2324169h10.5691444c.2079327-2.5980307.7911333-4.713376.7911333-4.713376l2.9905273 2.9756394 2.5845526-2.4946803c-1.443223-2.1268542-3.7862608-5.4171483-3.9649817-5.7474552-.3124741-.5770589-1.6911782-.7523402-2.1867434-.9378645-.9983759-.3733504-1.3875596-.4330818-2.2976101-1.065844-.6822216 2.4847826-3.0852931 7.3664195-3.0852931 7.3664195s-2.78754-5.3144885-3.0402104-7.386445c-.6515147.5861508-1.1520252.806202-2.1504011 1.1339769-.4947602.1625064-1.6820926.4329668-2.5953633.817711-.9130406.3847443-3.6526227 6.3004604-3.6526227 6.3004604l2.4992174 2.3085806z" fill="#f99d1c"/><path d="m72.700763 4.31769821v11.85571609l4.5363366 3.2319438v5.0351662l-4.5363366-3.170601v6.6826726l5.4026844 4.1370077-1.4834755-27.35838877zm-27.2030688-2.06021739h-6.3537924l1.2099888.92647059h6.4693745zm7.6701627 0 1.3004993.92647059h7.4832763z" fill="#f9fcf9"/><path d="m46.8232651 3.18395141h-6.4693745l32.3468724 24.76864449v-6.6826726zm15.1283674 0h-7.4832763l18.2324068 12.98946289v-11.85571609z" fill="#2cb758"/><path d="m.0623338 6.68750639v31.58723781c0 3.6711254 2.97385133 6.64711 6.64234502 6.64711h67.73499018c4.1220814 0 7.4636101-3.3440409 7.4636101-7.4689642v-29.94364448c0-4.12492327-3.3415287-7.4688491-7.4636101-7.4688491h-33.3432931v-.00011509h-34.39169708c-3.66849369 0-6.64234502 2.97609974-6.64234502 6.64722506zm78.7271304 16.60384911c0 1.6956138-1.3736437 3.070243-3.068042 3.070243-1.6945134 0-3.0681571-1.3746292-3.0681571-3.070243 0-1.6957289 1.3736437-3.070243 3.0681571-3.070243 1.6943983 0 3.068042 1.3745141 3.068042 3.070243zm-10.6241178-19.0086445c.4535877 0 .8212651.36794117.8212651.82185422v34.75300508c0 .4539131-.3676774.8218543-.8212651.8218543h-62.92666197c-.31454418-.0508696-.6412791-.2276471-.67555119-.7742072l.00011501-34.80076727c0-.45379796.36767742-.82162404.82115007-.82173913z" fill="#004152"/><path d="m81.9032791 35.5186957v-28.00945018c0-4.12492327-3.3415287-7.4688491-7.4636101-7.4688491h-33.3432931v-.00011509h-4.5619832l5.4251108 4.24242967h26.2058429c.4535877 0 .8212651.36794117.8212651.82185422v20.31329928zm-6.1818569-15.2975832c1.6943983 0 3.068042 1.3745141 3.068042 3.070243 0 1.6956138-1.3736437 3.070243-3.068042 3.070243-1.6945134 0-3.0681571-1.3746292-3.0681571-3.070243 0-1.6957289 1.3736437-3.070243 3.0681571-3.070243z" fill="#074c5f"/></g></svg>