<svg height="512" viewBox="0 0 400 512" width="400" xmlns="http://www.w3.org/2000/svg" xmlns:xlink="http://www.w3.org/1999/xlink"><mask id="a" fill="#fff"><path d="m26.361 13.242c0 7.011-5.694 12.699-12.704 12.699-7.017 0-12.705-5.688-12.705-12.699 0-7.021 5.688-12.709 12.705-12.709 7.01 0 12.704 5.688 12.704 12.709" fill="#fff" fill-rule="evenodd"/></mask><mask id="b" fill="#fff"><path d="m25.552 13.242c0 7.011-5.688 12.699-12.699 12.699-7.012 0-12.71-5.688-12.71-12.699 0-7.021 5.698-12.709 12.71-12.709 7.011 0 12.699 5.688 12.699 12.709" fill="#fff" fill-rule="evenodd"/></mask><g fill="none" fill-rule="evenodd"><path d="m19.414 24.911h362.902v463.447h-362.902z" fill="#1bb24b"/><path d="m260.058 154.864c-.001 0-18.669-36.052-77.896-23.82-59.228 12.231-76.61 70.171-74.679 103.647 1.932 33.476 9.45 53.337 24.916 76.654 15.26 23.006 8.561 37.939-3.028 41.801 0 0 66.31 46.996 135.194.644 0 0-16.739-5.151-14.807-18.669 1.931-13.52 26.394-30.258 41.202-58.584 14.806-28.326 21.244-108.154-30.902-121.673" fill="#4c360d"/><path d="m112.536 458.554 30.164-40.343s6.572 11.744 11.729 40.343h88.779c2.883-31.361 6.787-48.926 6.787-48.926l46.246 48.926h33.09c-20.565-27.075-60.685-79.96-62.168-82.403-1.996-3.279-4.628-10.882-9.349-10.695-9.964.396-38.935-17.631-38.662-27.295.314-11.13 0-29.327 0-29.327h-37.324v29.327c0 11.141-14.912 20.587-30.579 25.812-15.677 5.22-23.971 11.15-23.971 11.15l-46.438 83.431z" fill="#f3d9a6"/><path d="m275.747 224.221c0 54.336-25.558 98.862-75.108 98.862-49.546 0-77.061-45-77.061-99.336 0-54.346 28.35-59.871 77.896-59.871 49.551 0 74.273 5.999 74.273 60.345" fill="#f4d89a"/><path d="m182.991 255.987c0 7.463-6.124 13.517-13.666 13.517-7.549 0-13.661-6.054-13.661-13.517s6.112-13.513 13.661-13.513c7.542 0 13.666 6.05 13.666 13.513" fill="#00ade9"/><path d="m179.476 255.984c0 5.208-4.228 9.439-9.434 9.439-5.21 0-9.432-4.231-9.432-9.439 0-5.199 4.222-9.43 9.432-9.43 5.206 0 9.434 4.231 9.434 9.43" fill="#234471"/><path d="m166.068 251.097c0 1.504-1.225 2.735-2.726 2.735-1.507 0-2.732-1.231-2.732-2.735 0-1.505 1.225-2.723 2.732-2.723 1.501 0 2.726 1.218 2.726 2.723" fill="#fff"/><path d="m171.035 289.099c9.349 5.668 19.359 9.169 29.502 9.038 10.206 0 19.983-3.948 29.705-9.038-3.571 4.209-8.037 7.7-13.101 10.215-5.056 2.555-10.779 3.948-16.553 4.038-5.769.011-11.533-1.277-16.622-3.792-5.085-2.474-9.678-5.965-12.931-10.461" fill="#c42c76"/><path d="m246.799 180.711s-2.287 17.005 6.975 42.17c10.17 27.627 21.114 37.82 31.414 30.524 0 0-11.127 3.798-8.046-8.047 4.184-16.094 12.794-43.286-.108-61.91-11.099-16.022-23.092-13.456-23.092-13.456s-9.657-32.832-53.303-33.256c-62.695-.609-105.709 78.32-73.199 132.719 0 0-10.617-41.807 11.588-44.42 22.201-2.613 101.685-30.387 107.771-45.632" fill="#5f3f12"/><path d="m249.706 185.064s-8.27 16.089-35.999 29.67c-22.04 10.795-47.452 12.53-71.916 11.887 0 0-8.369 14.163-7.725 37.339.643 23.175 12.366 47.662 12.366 47.662s-45.708-68.883-9.978-124.57c41.78-65.117 106.866-33.154 116.844-13.841 0 0 .16 6.233-3.592 11.853" fill="#754b1d"/><g fill="#a26527"><path d="m188.839 213.096s32.888-7.187 47.302-32.33c0 0-9.47 10.779-23.653 16.165 0 0 10.059-8.444 11.985-12.959 0 0-27.471-.269-48.69 14.433 0 0 22.295-26.126 67.797-25.145 0 0-5.437 31.016-54.741 39.836"/><path d="m245.657 171.298c-7.553-2.645-15.229-4.481-22.904-5.917-7.69-1.328-15.436-2.107-23.141-1.873-15.465.241-30.539 4.637-44.41 12.692 5.714-5.623 12.634-10.205 20.279-13.152 7.605-3.051 15.818-4.532 24.006-4.759 16.356-.233 32.732 4.195 46.17 13.009"/><path d="m269.714 220.821c-2.647-3.266-4.783-6.91-6.75-10.637-1.932-3.76-3.485-7.72-4.733-11.805-2.364-8.142-4.933-25.168-4.933-25.168s12.921 3.458 18.06 13.178c5.14 9.72 4.818 20.665 4.818 20.665s-2.812-9.811-7.082-16.417-8.495-7.76-10.3-9.656c0 0 1.614 10.152 3.219 18.025 1.634 7.89 4.637 14.042 7.701 21.815"/></g><path d="m26.361 13.242c0 7.011-5.694 12.699-12.704 12.699-7.017 0-12.705-5.688-12.705-12.699 0-7.021 5.688-12.709 12.705-12.709 7.01 0 12.704 5.688 12.704 12.709" mask="url(#a)" transform="translate(144 267)"/><path d="m25.552 13.242c0 7.011-5.688 12.699-12.699 12.699-7.012 0-12.71-5.688-12.71-12.699 0-7.021 5.698-12.709 12.71-12.709 7.011 0 12.699 5.688 12.699 12.709" mask="url(#b)" transform="translate(226 267)"/><path d="m174.459 392.461h50.858l-21.244 40.557z" fill="#c42c76"/><path d="m140.948 420.783s.355-3.355.517-8.408c.161-5.048.152-11.802-.562-18.493-.176-1.672-.412-3.336-.67-4.968-.289-1.628-.574-3.228-.931-4.759-.35-1.531-.758-2.994-1.183-4.367-.211-.688-.42-1.356-.666-1.986-.228-.637-.456-1.249-.719-1.818-.481-1.158-.997-2.188-1.495-3.076-.26-.439-.504-.849-.729-1.229-.252-.363-.483-.696-.692-.997-.396-.622-.815-1.024-1.054-1.338-.254-.302-.389-.464-.389-.464l.049-.049s.147.151.424.435c.262.295.717.673 1.161 1.268.234.29.492.61.773.959.247.374.515.777.801 1.209.543.879 1.141 1.89 1.659 3.055.283.573.533 1.187.783 1.828.268.633.499 1.304.733 1.996.486 1.377.858 2.873 1.223 4.419.357 1.549.658 3.164.904 4.812.227 1.651.431 3.331.575 5.016.608 6.738.531 13.506.249 18.557-.267 5.056-.691 8.406-.691 8.406z" fill="#064c6c"/><path d="m255.111 416.497s-.207-3.194-.101-7.991c.087-4.794.551-11.197 1.757-17.499.311-1.573.649-3.141 1.052-4.67.397-1.529.851-3.02 1.375-4.435.243-.713.52-1.402.8-2.072.259-.679.572-1.319.876-1.941.611-1.242 1.257-2.384 1.917-3.397.307-.521.666-.979.994-1.422.319-.449.646-.856.977-1.22.619-.764 1.243-1.351 1.756-1.832.502-.492.968-.8 1.251-1.046.293-.234.449-.359.449-.359l.043.055s-.145.137-.419.392c-.262.268-.696.604-1.154 1.13-.464.519-1.041 1.132-1.614 1.912-.307.373-.606.79-.897 1.248-.298.452-.624.917-.914 1.436-.618 1.014-1.219 2.154-1.782 3.392-.56 1.24-1.139 2.556-1.629 3.961-.519 1.393-.955 2.87-1.393 4.371-.431 1.504-.799 3.053-1.139 4.608-1.305 6.237-1.855 12.616-2.061 17.396-.211 4.784-.074 7.979-.074 7.979z" fill="#064c6c"/><path d="m219.612 255.987c0 7.463 6.123 13.517 13.667 13.517 7.548 0 13.66-6.054 13.66-13.517s-6.112-13.513-13.66-13.513c-7.544 0-13.667 6.05-13.667 13.513" fill="#00ade9"/><path d="m223.128 255.984c0 5.208 4.227 9.439 9.433 9.439 5.21 0 9.432-4.231 9.432-9.439 0-5.199-4.222-9.43-9.432-9.43-5.206 0-9.433 4.231-9.433 9.43" fill="#234471"/><path d="m223.661 251.097c0 1.504 1.225 2.735 2.727 2.735 1.507 0 2.731-1.231 2.731-2.735 0-1.505-1.224-2.723-2.731-2.723-1.502 0-2.727 1.218-2.727 2.723" fill="#fff"/><path d="m206.218 356.302c0 2.785-2.257 5.043-5.042 5.043s-5.042-2.258-5.042-5.043c0-2.786 2.257-5.043 5.042-5.043s5.042 2.257 5.042 5.043" fill="#00ade9"/><path d="m203 353.824c-.717 0-1.298.581-1.298 1.297 0 .718.581 1.299 1.298 1.299.716 0 1.298-.581 1.298-1.299 0-.716-.582-1.297-1.298-1.297" fill="#33bdeb"/><path d="m196.134 355.551c0 2.371-1.922 4.292-4.293 4.292-2.37 0-4.292-1.921-4.292-4.292 0-2.37 1.922-4.293 4.292-4.293 2.371 0 4.293 1.923 4.293 4.293" fill="#00ade9"/><path d="m193.394 353.441c-.611 0-1.105.495-1.105 1.106 0 .609.494 1.104 1.105 1.104s1.105-.495 1.105-1.104c0-.611-.494-1.106-1.105-1.106" fill="#33bdeb"/><path d="m187.994 352.976c0 2.142-1.736 3.878-3.878 3.878s-3.878-1.736-3.878-3.878 1.736-3.878 3.878-3.878 3.878 1.736 3.878 3.878" fill="#00ade9"/><path d="m185.519 351.07c-.551 0-.998.447-.998.998 0 .552.447.998.998.998.552 0 .998-.446.998-.998 0-.551-.446-.998-.998-.998" fill="#33bdeb"/><path d="m182.024 348.147c0 1.867-1.513 3.381-3.38 3.381s-3.379-1.514-3.379-3.381c0-1.866 1.512-3.38 3.379-3.38s3.38 1.514 3.38 3.38" fill="#00ade9"/><path d="m179.866 346.486c-.48 0-.87.39-.87.871 0 .48.39.869.87.869.481 0 .869-.389.869-.869 0-.481-.388-.871-.869-.871" fill="#33bdeb"/><path d="m206.057 354.586c0 2.37 1.923 4.292 4.294 4.292 2.37 0 4.293-1.922 4.293-4.292 0-2.371-1.923-4.293-4.293-4.293-2.371 0-4.294 1.922-4.294 4.293" fill="#00ade9"/><path d="m210.94 351.549c-.611 0-1.105.495-1.105 1.104 0 .611.494 1.106 1.105 1.106s1.105-.495 1.105-1.106c0-.609-.494-1.104-1.105-1.104" fill="#33bdeb"/><path d="m214.197 352.01c0 2.142 1.737 3.879 3.878 3.879 2.142 0 3.879-1.737 3.879-3.879s-1.737-3.878-3.879-3.878c-2.141 0-3.878 1.736-3.878 3.878" fill="#00ade9"/><path d="m217.96 349.032c-.551 0-.999.446-.999.997 0 .552.448.999.999.999.552 0 .999-.447.999-.999 0-.551-.447-.997-.999-.997" fill="#33bdeb"/><path d="m220.168 347.182c0 1.867 1.513 3.38 3.38 3.38s3.379-1.513 3.379-3.38-1.512-3.38-3.379-3.38-3.38 1.513-3.38 3.38" fill="#00ade9"/><path d="m223.184 344.662c-.48 0-.871.39-.871.87 0 .481.391.871.871.871s.869-.39.869-.871c0-.48-.389-.87-.869-.87" fill="#33bdeb"/><path d="m140.983 420.787s7.766 16.504 12.716 37.768h94.382c1.857-23.184 7.065-42.06 7.065-42.06l26.705 26.552 23.08-22.26c-12.889-18.979-33.812-48.341-35.408-51.288-2.789-5.15-15.101-6.714-19.527-8.369-8.916-3.332-12.391-3.865-20.517-9.512-6.093 22.173-27.552 65.735-27.552 65.735s-24.892-47.424-27.149-65.913c-5.817 5.23-10.287 7.194-19.203 10.119-4.418 1.45-15.021 3.863-23.176 7.296-8.154 3.434-32.618 56.223-32.618 56.223l22.318 20.601z" fill="#f99d1c"/><path d="m97.42 6.793 19.693 18.118h44.165l-13.425-12.717h8.298z" fill="#f9fcf9"/><path d="m161.278 24.911h-44.165l119.345 109.802c17.195 7.79 23.6 20.151 23.6 20.151 18.597 4.821 29.742 18.075 35.715 34.42l79.232 72.896v-34.816z" fill="#2cb758"/><path d="m236.458 134.713 59.315 54.571c-5.973-16.345-17.118-29.599-35.715-34.42-.001 0-6.405-12.361-23.6-20.151" fill="#58471f"/><path d="m184.958 14.843 11.222 10.068h98.256zm-2.953-2.649h-25.854l28.807 2.649z" fill="#f9fcf9"/><path d="m294.436 24.911h-98.256l178.825 160.423v-153.014z" fill="#2cb758"/><path d="m41.881 48.627h315.651v405.187h-315.651zm-41.406-6.863v427.948c0 22.868 18.538 41.407 41.406 41.407h315.651c22.868 0 41.406-18.539 41.406-41.407v-427.948c0-22.868-18.538-41.407-41.406-41.407h-315.651c-22.868 0-41.406 18.539-41.406 41.407z" fill="#004152"/><path d="m398.938 282.743v-240.979c0-22.868-18.538-41.407-41.406-41.407h-268.374l53.535 47.967 214.839.303v196.371z" fill="#074c5f"/><path d="m213.587 481.838c0 8.831-7.159 15.99-15.99 15.99s-15.99-7.159-15.99-15.99 7.159-15.99 15.99-15.99 15.99 7.159 15.99 15.99" fill="#fff"/></g></svg>