<?xml version="1.0" encoding="UTF-8" standalone="no"?>
<svg width="400px" height="512px" viewBox="0 0 400 512" version="1.1" xmlns="http://www.w3.org/2000/svg" xmlns:xlink="http://www.w3.org/1999/xlink" xmlns:sketch="http://www.bohemiancoding.com/sketch/ns">
    <!-- Generator: Sketch 3.2.2 (9983) - http://www.bohemiancoding.com/sketch -->
    <title>tablet</title>
    <desc>Created with Sketch.</desc>
    <defs>
        <path id="path-1" d="M26.361,13.242 C26.361,20.253 20.667,25.941 13.657,25.941 C6.64,25.941 0.952,20.253 0.952,13.242 C0.952,6.221 6.64,0.533 13.657,0.533 C20.667,0.533 26.361,6.221 26.361,13.242"></path>
        <path id="path-3" d="M25.552,13.242 C25.552,20.253 19.864,25.941 12.853,25.941 C5.841,25.941 0.143,20.253 0.143,13.242 C0.143,6.221 5.841,0.533 12.853,0.533 C19.864,0.533 25.552,6.221 25.552,13.242"></path>
    </defs>
    <g id="Page-1" stroke="none" stroke-width="1" fill="none" fill-rule="evenodd" sketch:type="MSPage">
        <g id="tablet" sketch:type="MSArtboardGroup">
            <g sketch:type="MSLayerGroup">
                <path d="M19.414,24.911 L382.316,24.911 L382.316,488.358 L19.414,488.358 L19.414,24.911 Z" id="Fill-52" fill="#1BB24B" sketch:type="MSShapeGroup"></path>
                <path d="M260.058,154.864 C260.057,154.864 241.389,118.812 182.162,131.044 C122.934,143.275 105.552,201.215 107.483,234.691 C109.415,268.167 116.933,288.028 132.399,311.345 C147.659,334.351 140.96,349.284 129.371,353.146 C129.371,353.146 195.681,400.142 264.565,353.79 C264.565,353.79 247.826,348.639 249.758,335.121 C251.689,321.601 276.152,304.863 290.96,276.537 C305.766,248.211 312.204,168.383 260.058,154.864" id="Fill-53" fill="#4C360D" sketch:type="MSShapeGroup"></path>
                <path d="M112.536,458.554 L142.7,418.211 C142.7,418.211 149.272,429.955 154.429,458.554 L243.208,458.554 C246.091,427.193 249.995,409.628 249.995,409.628 L296.241,458.554 L329.331,458.554 C308.766,431.479 268.646,378.594 267.163,376.151 C265.167,372.872 262.535,365.269 257.814,365.456 C247.85,365.852 218.879,347.825 219.152,338.161 C219.466,327.031 219.152,308.834 219.152,308.834 L181.828,308.834 L181.828,338.161 C181.828,349.302 166.916,358.748 151.249,363.973 C135.572,369.193 127.278,375.123 127.278,375.123 L80.84,458.554 L112.536,458.554" id="Fill-54" fill="#F3D9A6" sketch:type="MSShapeGroup"></path>
                <path d="M275.747,224.221 C275.747,278.557 250.189,323.083 200.639,323.083 C151.093,323.083 123.578,278.083 123.578,223.747 C123.578,169.401 151.928,163.876 201.474,163.876 C251.025,163.876 275.747,169.875 275.747,224.221" id="Fill-55" fill="#F4D89A" sketch:type="MSShapeGroup"></path>
                <path d="M182.991,255.987 C182.991,263.45 176.867,269.504 169.325,269.504 C161.776,269.504 155.664,263.45 155.664,255.987 C155.664,248.524 161.776,242.474 169.325,242.474 C176.867,242.474 182.991,248.524 182.991,255.987" id="Fill-56" fill="#00ADE9" sketch:type="MSShapeGroup"></path>
                <path d="M179.476,255.984 C179.476,261.192 175.248,265.423 170.042,265.423 C164.832,265.423 160.61,261.192 160.61,255.984 C160.61,250.785 164.832,246.554 170.042,246.554 C175.248,246.554 179.476,250.785 179.476,255.984" id="Fill-57" fill="#234471" sketch:type="MSShapeGroup"></path>
                <path d="M166.068,251.097 C166.068,252.601 164.843,253.832 163.342,253.832 C161.835,253.832 160.61,252.601 160.61,251.097 C160.61,249.592 161.835,248.374 163.342,248.374 C164.843,248.374 166.068,249.592 166.068,251.097" id="Fill-58" fill="#FFFFFF" sketch:type="MSShapeGroup"></path>
                <path d="M171.035,289.099 C180.384,294.767 190.394,298.268 200.537,298.137 C210.743,298.137 220.52,294.189 230.242,289.099 C226.671,293.308 222.205,296.799 217.141,299.314 C212.085,301.869 206.362,303.262 200.588,303.352 C194.819,303.363 189.055,302.075 183.966,299.56 C178.881,297.086 174.288,293.595 171.035,289.099" id="Fill-59" fill="#C42C76" sketch:type="MSShapeGroup"></path>
                <path d="M246.799,180.711 C246.799,180.711 244.512,197.716 253.774,222.881 C263.944,250.508 274.888,260.701 285.188,253.405 C285.188,253.405 274.061,257.203 277.142,245.358 C281.326,229.264 289.936,202.072 277.034,183.448 C265.935,167.426 253.942,169.992 253.942,169.992 C253.942,169.992 244.285,137.16 200.639,136.736 C137.944,136.127 94.93,215.056 127.44,269.455 C127.44,269.455 116.823,227.648 139.028,225.035 C161.229,222.422 240.713,194.648 246.799,179.403" id="Fill-60" fill="#5F3F12" sketch:type="MSShapeGroup"></path>
                <path d="M249.706,185.064 C249.706,185.064 241.436,201.153 213.707,214.734 C191.667,225.529 166.255,227.264 141.791,226.621 C141.791,226.621 133.422,240.784 134.066,263.96 C134.709,287.135 146.432,311.622 146.432,311.622 C146.432,311.622 100.724,242.739 136.454,187.052 C178.234,121.935 243.32,153.898 253.298,173.211 C253.298,173.211 253.458,179.444 249.706,185.064" id="Fill-61" fill="#754B1D" sketch:type="MSShapeGroup"></path>
                <path d="M188.839,213.096 C188.839,213.096 221.727,205.909 236.141,180.766 C236.141,180.766 226.671,191.545 212.488,196.931 C212.488,196.931 222.547,188.487 224.473,183.972 C224.473,183.972 197.002,183.703 175.783,198.405 C175.783,198.405 198.078,172.279 243.58,173.26 C243.58,173.26 238.143,204.276 188.839,213.096" id="Fill-62" fill="#A26527" sketch:type="MSShapeGroup"></path>
                <path d="M245.657,171.298 C238.104,168.653 230.428,166.817 222.753,165.381 C215.063,164.053 207.317,163.274 199.612,163.508 C184.147,163.749 169.073,168.145 155.202,176.2 C160.916,170.577 167.836,165.995 175.481,163.048 C183.086,159.997 191.299,158.516 199.487,158.289 C215.843,158.056 232.219,162.484 245.657,171.298" id="Fill-63" fill="#A26527" sketch:type="MSShapeGroup"></path>
                <path d="M269.714,220.821 C267.067,217.555 264.931,213.911 262.964,210.184 C261.032,206.424 259.479,202.464 258.231,198.379 C255.867,190.237 253.298,173.211 253.298,173.211 C253.298,173.211 266.219,176.669 271.358,186.389 C276.498,196.109 276.176,207.054 276.176,207.054 C276.176,207.054 273.364,197.243 269.094,190.637 C264.824,184.031 260.599,182.877 258.794,180.981 C258.794,180.981 260.408,191.133 262.013,199.006 C263.647,206.896 266.65,213.048 269.714,220.821" id="Fill-64" fill="#A26527" sketch:type="MSShapeGroup"></path>
                <g id="Group-67" transform="translate(144.000000, 267.000000)">
                    <mask id="mask-2" sketch:name="Clip 66" fill="white">
                        <use xlink:href="#path-1"></use>
                    </mask>
                    <g id="Clip-66"></g>
                    <path d="M26.361,13.242 C26.361,20.253 20.667,25.941 13.657,25.941 C6.64,25.941 0.952,20.253 0.952,13.242 C0.952,6.221 6.64,0.533 13.657,0.533 C20.667,0.533 26.361,6.221 26.361,13.242" id="Fill-65" sketch:type="MSShapeGroup" mask="url(#mask-2)"></path>
                </g>
                <g id="Group-70" transform="translate(226.000000, 267.000000)">
                    <mask id="mask-4" sketch:name="Clip 69" fill="white">
                        <use xlink:href="#path-3"></use>
                    </mask>
                    <g id="Clip-69"></g>
                    <path d="M25.552,13.242 C25.552,20.253 19.864,25.941 12.853,25.941 C5.841,25.941 0.143,20.253 0.143,13.242 C0.143,6.221 5.841,0.533 12.853,0.533 C19.864,0.533 25.552,6.221 25.552,13.242" id="Fill-68" sketch:type="MSShapeGroup" mask="url(#mask-4)"></path>
                </g>
                <path d="M174.459,392.461 L225.317,392.461 L204.073,433.018 L174.459,392.461" id="Fill-71" fill="#C42C76" sketch:type="MSShapeGroup"></path>
                <path d="M140.948,420.783 C140.948,420.783 141.303,417.428 141.465,412.375 C141.626,407.327 141.617,400.573 140.903,393.882 C140.727,392.21 140.491,390.546 140.233,388.914 C139.944,387.286 139.659,385.686 139.302,384.155 C138.952,382.624 138.544,381.161 138.119,379.788 C137.908,379.1 137.699,378.432 137.453,377.802 C137.225,377.165 136.997,376.553 136.734,375.984 C136.253,374.826 135.737,373.796 135.239,372.908 C134.979,372.469 134.735,372.059 134.51,371.679 C134.258,371.316 134.027,370.983 133.818,370.682 C133.422,370.06 133.003,369.658 132.764,369.344 C132.51,369.042 132.375,368.88 132.375,368.88 L132.424,368.831 C132.424,368.831 132.571,368.982 132.848,369.266 C133.11,369.561 133.565,369.939 134.009,370.534 C134.243,370.824 134.501,371.144 134.782,371.493 C135.029,371.867 135.297,372.27 135.583,372.702 C136.126,373.581 136.724,374.592 137.242,375.757 C137.525,376.33 137.775,376.944 138.025,377.585 C138.293,378.218 138.524,378.889 138.758,379.581 C139.244,380.958 139.616,382.454 139.981,384 C140.338,385.549 140.639,387.164 140.885,388.812 C141.112,390.463 141.316,392.143 141.46,393.828 C142.068,400.566 141.991,407.334 141.709,412.385 C141.442,417.441 141.018,420.791 141.018,420.791 L140.948,420.783" id="Fill-72" fill="#064C6C" sketch:type="MSShapeGroup"></path>
                <path d="M255.111,416.497 C255.111,416.497 254.904,413.303 255.01,408.506 C255.097,403.712 255.561,397.309 256.767,391.007 C257.078,389.434 257.416,387.866 257.819,386.337 C258.216,384.808 258.67,383.317 259.194,381.902 C259.437,381.189 259.714,380.5 259.994,379.83 C260.253,379.151 260.566,378.511 260.87,377.889 C261.481,376.647 262.127,375.505 262.787,374.492 C263.094,373.971 263.453,373.513 263.781,373.07 C264.1,372.621 264.427,372.214 264.758,371.85 C265.377,371.086 266.001,370.499 266.514,370.018 C267.016,369.526 267.482,369.218 267.765,368.972 C268.058,368.738 268.214,368.613 268.214,368.613 L268.257,368.668 C268.257,368.668 268.112,368.805 267.838,369.06 C267.576,369.328 267.142,369.664 266.684,370.19 C266.22,370.709 265.643,371.322 265.07,372.102 C264.763,372.475 264.464,372.892 264.173,373.35 C263.875,373.802 263.549,374.267 263.259,374.786 C262.641,375.8 262.04,376.94 261.477,378.178 C260.917,379.418 260.338,380.734 259.848,382.139 C259.329,383.532 258.893,385.009 258.455,386.51 C258.024,388.014 257.656,389.563 257.316,391.118 C256.011,397.355 255.461,403.734 255.255,408.514 C255.044,413.298 255.181,416.493 255.181,416.493 L255.111,416.497" id="Fill-73" fill="#064C6C" sketch:type="MSShapeGroup"></path>
                <path d="M219.612,255.987 C219.612,263.45 225.735,269.504 233.279,269.504 C240.827,269.504 246.939,263.45 246.939,255.987 C246.939,248.524 240.827,242.474 233.279,242.474 C225.735,242.474 219.612,248.524 219.612,255.987" id="Fill-74" fill="#00ADE9" sketch:type="MSShapeGroup"></path>
                <path d="M223.128,255.984 C223.128,261.192 227.355,265.423 232.561,265.423 C237.771,265.423 241.993,261.192 241.993,255.984 C241.993,250.785 237.771,246.554 232.561,246.554 C227.355,246.554 223.128,250.785 223.128,255.984" id="Fill-75" fill="#234471" sketch:type="MSShapeGroup"></path>
                <path d="M223.661,251.097 C223.661,252.601 224.886,253.832 226.388,253.832 C227.895,253.832 229.119,252.601 229.119,251.097 C229.119,249.592 227.895,248.374 226.388,248.374 C224.886,248.374 223.661,249.592 223.661,251.097" id="Fill-76" fill="#FFFFFF" sketch:type="MSShapeGroup"></path>
                <path d="M206.218,356.302 C206.218,359.087 203.961,361.345 201.176,361.345 C198.391,361.345 196.134,359.087 196.134,356.302 C196.134,353.516 198.391,351.259 201.176,351.259 C203.961,351.259 206.218,353.516 206.218,356.302" id="Fill-77" fill="#00ADE9" sketch:type="MSShapeGroup"></path>
                <path d="M203,353.824 C202.283,353.824 201.702,354.405 201.702,355.121 C201.702,355.839 202.283,356.42 203,356.42 C203.716,356.42 204.298,355.839 204.298,355.121 C204.298,354.405 203.716,353.824 203,353.824" id="Fill-78" fill="#33BDEB" sketch:type="MSShapeGroup"></path>
                <path d="M196.134,355.551 C196.134,357.922 194.212,359.843 191.841,359.843 C189.471,359.843 187.549,357.922 187.549,355.551 C187.549,353.181 189.471,351.258 191.841,351.258 C194.212,351.258 196.134,353.181 196.134,355.551" id="Fill-79" fill="#00ADE9" sketch:type="MSShapeGroup"></path>
                <path d="M193.394,353.441 C192.783,353.441 192.289,353.936 192.289,354.547 C192.289,355.156 192.783,355.651 193.394,355.651 C194.005,355.651 194.499,355.156 194.499,354.547 C194.499,353.936 194.005,353.441 193.394,353.441" id="Fill-80" fill="#33BDEB" sketch:type="MSShapeGroup"></path>
                <path d="M187.994,352.976 C187.994,355.118 186.258,356.854 184.116,356.854 C181.974,356.854 180.238,355.118 180.238,352.976 C180.238,350.834 181.974,349.098 184.116,349.098 C186.258,349.098 187.994,350.834 187.994,352.976" id="Fill-81" fill="#00ADE9" sketch:type="MSShapeGroup"></path>
                <path d="M185.519,351.07 C184.968,351.07 184.521,351.517 184.521,352.068 C184.521,352.62 184.968,353.066 185.519,353.066 C186.071,353.066 186.517,352.62 186.517,352.068 C186.517,351.517 186.071,351.07 185.519,351.07" id="Fill-82" fill="#33BDEB" sketch:type="MSShapeGroup"></path>
                <path d="M182.024,348.147 C182.024,350.014 180.511,351.528 178.644,351.528 C176.777,351.528 175.265,350.014 175.265,348.147 C175.265,346.281 176.777,344.767 178.644,344.767 C180.511,344.767 182.024,346.281 182.024,348.147" id="Fill-83" fill="#00ADE9" sketch:type="MSShapeGroup"></path>
                <path d="M179.866,346.486 C179.386,346.486 178.996,346.876 178.996,347.357 C178.996,347.837 179.386,348.226 179.866,348.226 C180.347,348.226 180.735,347.837 180.735,347.357 C180.735,346.876 180.347,346.486 179.866,346.486" id="Fill-84" fill="#33BDEB" sketch:type="MSShapeGroup"></path>
                <path d="M206.057,354.586 C206.057,356.956 207.98,358.878 210.351,358.878 C212.721,358.878 214.644,356.956 214.644,354.586 C214.644,352.215 212.721,350.293 210.351,350.293 C207.98,350.293 206.057,352.215 206.057,354.586" id="Fill-85" fill="#00ADE9" sketch:type="MSShapeGroup"></path>
                <path d="M210.94,351.549 C210.329,351.549 209.835,352.044 209.835,352.653 C209.835,353.264 210.329,353.759 210.94,353.759 C211.551,353.759 212.045,353.264 212.045,352.653 C212.045,352.044 211.551,351.549 210.94,351.549" id="Fill-86" fill="#33BDEB" sketch:type="MSShapeGroup"></path>
                <path d="M214.197,352.01 C214.197,354.152 215.934,355.889 218.075,355.889 C220.217,355.889 221.954,354.152 221.954,352.01 C221.954,349.868 220.217,348.132 218.075,348.132 C215.934,348.132 214.197,349.868 214.197,352.01" id="Fill-87" fill="#00ADE9" sketch:type="MSShapeGroup"></path>
                <path d="M217.96,349.032 C217.409,349.032 216.961,349.478 216.961,350.029 C216.961,350.581 217.409,351.028 217.96,351.028 C218.512,351.028 218.959,350.581 218.959,350.029 C218.959,349.478 218.512,349.032 217.96,349.032" id="Fill-88" fill="#33BDEB" sketch:type="MSShapeGroup"></path>
                <path d="M220.168,347.182 C220.168,349.049 221.681,350.562 223.548,350.562 C225.415,350.562 226.927,349.049 226.927,347.182 C226.927,345.315 225.415,343.802 223.548,343.802 C221.681,343.802 220.168,345.315 220.168,347.182" id="Fill-89" fill="#00ADE9" sketch:type="MSShapeGroup"></path>
                <path d="M223.184,344.662 C222.704,344.662 222.313,345.052 222.313,345.532 C222.313,346.013 222.704,346.403 223.184,346.403 C223.664,346.403 224.053,346.013 224.053,345.532 C224.053,345.052 223.664,344.662 223.184,344.662" id="Fill-90" fill="#33BDEB" sketch:type="MSShapeGroup"></path>
                <path d="M140.983,420.787 C140.983,420.787 148.749,437.291 153.699,458.555 L248.081,458.555 C249.938,435.371 255.146,416.495 255.146,416.495 L281.851,443.047 L304.931,420.787 C292.042,401.808 271.119,372.446 269.523,369.499 C266.734,364.349 254.422,362.785 249.996,361.13 C241.08,357.798 237.605,357.265 229.479,351.618 C223.386,373.791 201.927,417.353 201.927,417.353 C201.927,417.353 177.035,369.929 174.778,351.44 C168.961,356.67 164.491,358.634 155.575,361.559 C151.157,363.009 140.554,365.422 132.399,368.855 C124.245,372.289 99.781,425.078 99.781,425.078 L122.099,445.679 L140.983,420.787" id="Fill-91" fill="#F99D1C" sketch:type="MSShapeGroup"></path>
                <path d="M97.42,6.793 L117.113,24.911 L161.278,24.911 L147.853,12.194 L156.151,12.194 L97.42,6.793" id="Fill-92" fill="#F9FCF9" sketch:type="MSShapeGroup"></path>
                <path d="M161.278,24.911 L117.113,24.911 L236.458,134.713 C253.653,142.503 260.058,154.864 260.058,154.864 C278.655,159.685 289.8,172.939 295.773,189.284 L375.005,262.18 L375.005,227.364 L161.278,24.911" id="Fill-93" fill="#2CB758" sketch:type="MSShapeGroup"></path>
                <path d="M236.458,134.713 L295.773,189.284 C289.8,172.939 278.655,159.685 260.058,154.864 C260.057,154.864 253.653,142.503 236.458,134.713" id="Fill-94" fill="#58471F" sketch:type="MSShapeGroup"></path>
                <path d="M184.958,14.843 L196.18,24.911 L294.436,24.911 L184.958,14.843 M182.005,12.194 L156.151,12.194 L184.958,14.843 L182.005,12.194" id="Fill-95" fill="#F9FCF9" sketch:type="MSShapeGroup"></path>
                <path d="M294.436,24.911 L196.18,24.911 L375.005,185.334 L375.005,32.32 L294.436,24.911" id="Fill-96" fill="#2CB758" sketch:type="MSShapeGroup"></path>
                <path d="M41.881,48.627 L357.532,48.627 L357.532,453.814 L41.881,453.814 L41.881,48.627 Z M0.475,41.764 L0.475,469.712 C0.475,492.58 19.013,511.119 41.881,511.119 L357.532,511.119 C380.4,511.119 398.938,492.58 398.938,469.712 L398.938,41.764 C398.938,18.896 380.4,0.357 357.532,0.357 L41.881,0.357 C19.013,0.357 0.475,18.896 0.475,41.764 L0.475,41.764 Z" id="Fill-97" fill="#004152" sketch:type="MSShapeGroup"></path>
                <path d="M398.938,282.743 L398.938,41.764 C398.938,18.896 380.4,0.357 357.532,0.357 L89.158,0.357 L142.693,48.324 L357.532,48.627 L357.532,244.998 L398.938,282.743" id="Fill-98" fill="#074C5F" sketch:type="MSShapeGroup"></path>
                <path d="M213.587,481.838 C213.587,490.669 206.428,497.828 197.597,497.828 C188.766,497.828 181.607,490.669 181.607,481.838 C181.607,473.007 188.766,465.848 197.597,465.848 C206.428,465.848 213.587,473.007 213.587,481.838" id="Fill-99" fill="#FFFFFF" sketch:type="MSShapeGroup"></path>
            </g>
        </g>
    </g>
</svg>