<svg height="19" viewBox="0 0 20 19" width="20" xmlns="http://www.w3.org/2000/svg"><path d="m274.098534 25.5578439c-3.402118 0-6.170303-2.6735009-6.170303-5.9596118 0-3.2866973 2.768185-5.9601981 6.170303-5.9601981 3.402422 0 6.170303 2.6735008 6.170303 5.9601981 0 3.2861109-2.767881 5.9596118-6.170303 5.9596118m0-14.5578439c-4.908202 0-8.901465 3.8573919-8.901465 8.5982321 0 1.8073463.581737 3.4857222 1.572239 4.8712762l-3.769308 3.6410731 1.956119 1.8894186 3.718023-3.5918298c1.503353 1.1196989 3.38391 1.7877077 5.424392 1.7877077 4.908203 0 8.901466-3.8568057 8.901466-8.5976458 0-4.7408402-3.993263-8.5982321-8.901466-8.5982321" fill="#fff" fill-rule="evenodd" transform="translate(-263 -11)"/></svg>
