<svg height="69" viewBox="0 0 68 69" width="68" xmlns="http://www.w3.org/2000/svg" xmlns:xlink="http://www.w3.org/1999/xlink"><defs><path id="a" d="m33.5830565 69c18.5474099 0 33.5830565-15.4461761 33.5830565-34.5s-15.0356466-34.5-33.5830565-34.5c-18.54741 0-33.5830565 15.4461761-33.5830565 34.5s15.0356465 34.5 33.5830565 34.5z"/><mask id="b" fill="#fff"><use fill="#fff" fill-rule="evenodd" xlink:href="#a"/></mask><mask id="c" fill="#fff"><path d="m0 .07295752h45.1361955v68.06454248h-45.1361955z" fill="#fff" fill-rule="evenodd"/></mask></defs><g fill="none" fill-rule="evenodd" opacity=".597773"><use fill="#0095da" xlink:href="#a"/><path d="m5.82760524 7.7625 53.43031566 54.8891639-28.4961683 29.2742207-53.4303157-54.8891639z" fill="#0086c4" mask="url(#b)"/><g mask="url(#b)"><g transform="translate(9.235341 7.7625)"><path d="m5.43413349 68.1375 7.99742651-11.5575222 2.1178611 11.5575222h17.4432996c1.1027777-9.2443527.0423573-12.7073151.0423573-12.7073151l7.0210819 12.7073151h5.0800995l-8.4471793-20.1564309s-.4484757-2.0163003-3.5852515-3.091383c-3.1346472-1.0763972-4.9123734-2.2912604-4.9123734-4.5858071v-6.0399183h-3.8051258-.0074498-3.8053387v6.0399183c0 2.2945467-2.3894581 3.3875949-5.5243182 4.463773-3.1365629 1.0753018-3.5335288 3.072103-3.5335288 3.072103l-11.51563004 20.297745z" fill="#e6cab7" mask="url(#c)"/><path d="m38.0371465 16.8700563c0 11.1907628-3.8562099 20.3284178-13.7707796 20.3284178-9.9135054 0-13.5804914-9.2472009-13.5804914-20.4379636 0-11.19295375 9.2259988-13.44718763 13.7477918-13.44718763s13.6034792 2.3637797 13.6034792 13.55673343" fill="#fedec8"/><path d="m21.1610717 24.0370258c0 1.5369279-1.2251666 2.7837784-2.7344885 2.7837784-1.5103861 0-2.7332114-1.2468505-2.7332114-2.7837784 0-1.5371469 1.2228253-2.7833402 2.7332114-2.7833402 1.5093219 0 2.7344885 1.2461933 2.7344885 2.7833402" fill="#6dcff7"/><path d="m20.457729 24.0364124c0 1.0724535-.8458673 1.9440001-1.8875569 1.9440001-1.0425411 0-1.8871313-.8715466-1.8871313-1.9440001 0-1.0707009.8445902-1.9422474 1.8871313-1.9422474 1.0416896 0 1.8875569.8715465 1.8875569 1.9422474" fill="#2a1d01"/><path d="m17.7749844 23.0298177c0 .3097956-.2449908.5632846-.5453226.5632846-.301609 0-.5468126-.253489-.5468126-.5632846s.2452036-.5608746.5468126-.5608746c.3003318 0 .5453226.251079.5453226.5608746" fill="#fff"/><path d="m18.3430607 30.1992849c1.8707418 1.1673203 3.8734508 1.8883509 5.9031918 1.8614026 2.0418735 0 3.9981812-.8132682 5.9434206-1.8614026-.7145387.8669456-1.6080845 1.5857853-2.621465 2.1037179-1.0114649.5262582-2.1565998.8132682-3.3119516.831891-1.1540746.0019718-2.3075107-.2631291-3.3257868-.7810617-1.0176376-.5096072-1.9362997-1.2284468-2.587409-2.1545472" fill="#c42c76"/><path d="m27.850022 24.0370258c0 1.5369279 1.2251666 2.7837784 2.7344885 2.7837784 1.5103861 0 2.7332115-1.2468505 2.7332115-2.7837784 0-1.5371469-1.2228254-2.7833402-2.7332115-2.7833402-1.5093219 0-2.7344885 1.2461933-2.7344885 2.7833402" fill="#6dcff7"/><path d="m28.5533647 24.0364124c0 1.0724535.8458673 1.9440001 1.887557 1.9440001 1.042541 0 1.8871312-.8715466 1.8871312-1.9440001 0-1.0707009-.8445902-1.9422474-1.8871312-1.9422474-1.0416897 0-1.887557.8715465-1.887557 1.9422474" fill="#2a1d01"/><path d="m28.6601943 23.0298177c0 .3097956.2449907.5632846.5453226.5632846.3016089 0 .5468126-.253489.5468126-.5632846s-.2452037-.5608746-.5468126-.5608746c-.3003319 0-.5453226.251079-.5453226.5608746" fill="#fff"/><path d="m11.3244053 23.8809887s1.7715535-10.8989327 7.094941-12.5611809c6.3146316-1.9718248 11.7095367-.3717986 13.4095725.3650066 2.6961755 1.1686348 5.6052014 11.9041252 5.6052014 11.9041252s1.4188605-9.0559339.567459-11.8309486c-.8514014-2.77523377-2.979905-5.47751005-2.979905-5.47751005s-.7094302-3.06728296-3.4056057-3.7975154c-2.6959627-.73023243-4.5407367-2.26387391-4.5407367-2.26387391v.73023244l-4.6827079-.87636656.2837295.87636656-5.6758676.51114079.7094302.87636656-3.8313064 1.16863481.8514014.43818328-3.8313064 2.33683143h1.5608317l-1.8209348 3.55563822-.4493272.60732203.8514015.2920492-1.27710217 3.6516003h1.13513097l-.8226666 3.6695659-.0287348.1279495.7094302-.1461341z" fill="#edc866"/><path d="m32.0418331 11.7579253 2.5542042-4.38183279-2.8379338 3.35933209s-10.2168172-2.62909965-14.1900948 1.0225007c0 0 6.0306892-3.28637459 14.4738244 0" fill="#c6a956"/><path d="m31.4742463 11.319742s2.5542043 1.6797756 4.4698575 7.2300241c0 0-.9933726-4.9661502-4.186128-7.8143415z" fill="#c6a956"/><path d="m28.423377 10.4433755-4.0441568-1.89886727.2128503.65727492-3.6893352-.94932408 1.1351309 1.16841572-2.5542043-.29204916.5676719.36522576-3.050997.51114081 1.5610445.2190916s-2.2704747.4381833-2.9090258 1.2415924c-.6385511.8031899-2.6961755 6.2804809-2.6961755 6.2804809s3.1927554-5.9154743 4.7537999-6.3536576c1.5608317-.4381832 10.7133971-.949324 10.7133971-.949324" fill="#c6a956"/><g fill="#efe08a"><path d="m31.899947 4.82001608-1.9156532-1.31454984 1.1351309 1.16841571-1.4624948-.29139188-.7368879-.1467914.0708792.73045153 1.0642518.21909164-2.7670547.21909164 1.7738949.5111408-.6385511 1.02250068h2.1285036z"/><path d="m34.950795 9.42094051c-.1419712.21909164-.9933726 1.16841569-.7094302 2.33705049.2837295 1.1684158 1.135131 3.1402405 1.135131 3.1402405l-.2837296-2.9211488.7094303.5111408z"/><path d="m30.2680872 8.83668884c-1.9865324-.07295752-5.6049885-1.606599-5.6049885-1.606599l3.0507842.65727492-.2837296-.73045152 1.7736821.21909164s-2.5542043-1.31454984-2.2704748-1.24137324c.2839424.07295752 3.1218762.5111408 3.1218762.5111408z"/><path d="m14.588125 11.1006504c-.4257007 1.460684-1.773682 5.9884318-1.773682 5.9884318l.4965798-2.7020572s-.2128503-.2190917-.2128503-.5111408c0-.2922683 1.4899525-2.7752338 1.4899525-2.7752338"/></g><path d="m13.6657592 58.7165595s.5683105 5.4604209 1.009975 9.4209405h18.1063285c.4333634-4.3489691 1.3173309-9.2018489 1.3173309-9.2018489l1.9156532 3.7245579 5.7469597-5.0391077-4.4698575-11.3927653-4.0441568-2.1909164s-1.9156532 6.5727492-8.301164 6.7918409c-6.3855107.2190916-9.7911165-6.7918409-9.7911165-6.7918409l-2.979905 1.0954582-5.74695963 10.0782154 4.25700713 7.6682074z" fill="#542f82"/><path d="m19.0183072 68.1375h9.4716281c1.5753055-1.2323905 2.7881268-3.0710075 2.7006453-4.9661502-.1419712-3.067283-1.2771021-8.0332141-2.6961755-8.3254823-1.4190733-.2920492-4.5407367-.8763666-4.5407367-.8763666s-1.844774-.4381833-4.2570071 1.6068181c-2.412446 2.0447823-4.1152488 7.0109325-2.2704748 10.5163987.4489014.8531429.9908184 1.5233442 1.5921207 2.0447823" fill="#c42c76"/><path d="m25.185476 59.1125895c-.3301309 0-.5976838-.2753982-.5976838-.6152093s.2675529-.6152093.5976838-.6152093.5976838.2753982.5976838.6152093-.2675529.6152093-.5976838.6152093m2.0322953 1.5995881c-.5380858-1.3535482-.9563367-2.6455316-.2392438-2.7070963 0 0-.9563367-1.5380233-2.8091991-.2460399-1.8528623 1.2919834-2.3311371 7.5674252-4.7218723 7.2598206 0 0 3.3451562.521219 5.5587999-.1229104 2.1666038-.6307649 2.7493881-2.8302259 2.2115153-4.183774" fill="#fff"/></g></g></g></svg>