<svg height="69" viewBox="0 0 69 69" width="69" xmlns="http://www.w3.org/2000/svg" xmlns:xlink="http://www.w3.org/1999/xlink"><defs><path id="a" d="m34.5 69c19.0538239 0 34.5-15.4461761 34.5-34.5s-15.4461761-34.5-34.5-34.5-34.5 15.4461761-34.5 34.5 15.4461761 34.5 34.5 34.5z"/><mask id="b" fill="#fff"><use fill="#fff" fill-rule="evenodd" xlink:href="#a"/></mask><mask id="c" fill="#fff"><path d="m0 .12851485h43.9191031v58.87148515h-43.9191031" fill="#fff" fill-rule="evenodd"/></mask></defs><g fill="none" fill-rule="evenodd"><use fill="#f7941e" xlink:href="#a"/><path d="m5.98672074 7.7625 54.88916386 54.8891639-29.2742207 29.2742207-54.8891639-54.8891639z" fill="#e88917" mask="url(#b)"/><g mask="url(#b)"><g transform="translate(10 11)"><g transform="translate(0 2.336634)"><path d="m19.3611049 36.2178218s-1.1838565-3.8295479-.7235336-4.1539505c.4605202-.3245974 7.2347444-1.1683168 9.7340628-.1947195l-.1973094 4.34867-7.6950673 3.4401089z" fill="#afb1b4"/><path d="m5.54812377 56.6633663 7.41330943-10.2718415 1.020287 10.2718415h18.1506906c.9251838-9.4458415 1.1718206-11.0016501 1.1718206-11.0016501l5.9634798 11.0016501h4.4649148l-7.8304215-17.9141914s-.4155336-1.7920033-3.3232825-2.7474917c-2.9059731-.9566568-5.5404485-2.0363763-5.5404485-4.0756733v-5.3680264h-3.5273004-.0069058-3.5274978v5.3680264c0 2.039297-2.6096143 3.0107525-5.5155874 3.9672145-2.9077489.9556832-3.2755337 2.7303565-3.2755337 2.7303565l-10.67483405 18.0397854z" fill="#e6cab7"/><path d="m36.1653166 11.0990099c0 9.9458812-3.5746547 18.0670462-12.7653274 18.0670462-9.1896861 0-12.5889327-8.2185247-12.5889327-18.1644059 0-9.94782842 8.5523767-10.97750499 12.7440179-10.97750499 4.1916413 0 12.6102422 1.12703631 12.6102422 11.07486469" fill="#fddfd8"/><path d="m20.5214027 17.4687122c0 1.3659571-1.135713 2.4741056-2.5348341 2.4741056-1.4001076 0-2.5336502-1.1081485-2.5336502-2.4741056 0-1.3661518 1.1335426-2.4737162 2.5336502-2.4737162 1.3991211 0 2.5348341 1.1075644 2.5348341 2.4737162" fill="#82b034"/><path d="m19.8694135 17.468167c0 .9531518-.7841077 1.7277459-1.74974 1.7277459-.9664215 0-1.7493452-.7745941-1.7493452-1.7277459 0-.9515941.7829237-1.7261881 1.7493452-1.7261881.9656323 0 1.74974.774594 1.74974 1.7261881" fill="#2a1d01"/><path d="m17.3825453 16.5735479c0 .2753333-.2271031.5006237-.5055067.5006237-.2795875 0-.5068879-.2252904-.5068879-.5006237 0-.2753334.2273004-.4984819.5068879-.4984819.2784036 0 .5055067.2231485.5055067.4984819" fill="#fff"/><path d="m17.9091444 22.94547c1.7341525 1.0374653 3.5906368 1.6782871 5.4721794 1.6543366 1.8927892 0 3.7062601-.7227987 5.5094708-1.6543366-.6623677.7705049-1.4906726 1.4093795-2.4300628 1.8696963-.9376143.4677162-1.999139.7227987-3.0701345.7393499-1.0698116.0017524-2.1390314-.2338581-3.0829596-.6941749-.9433364-.4529175-1.7949238-1.0917921-2.3984933-1.9148713" fill="#f99d1c"/><path d="m26.7219695 17.4687122c0 1.3659571 1.135713 2.4741056 2.5348341 2.4741056 1.4001076 0 2.5336502-1.1081485 2.5336502-2.4741056 0-1.3661518-1.1335426-2.4737162-2.5336502-2.4737162-1.3991211 0-2.5348341 1.1075644-2.5348341 2.4737162" fill="#82b034"/><path d="m27.3739785 17.468167c0 .9531518.7841076 1.7277459 1.7497399 1.7277459.9664215 0 1.7493453-.7745941 1.7493453-1.7277459 0-.9515941-.7829238-1.7261881-1.7493453-1.7261881-.9656323 0-1.7497399.774594-1.7497399 1.7261881" fill="#2a1d01"/><path d="m27.4730081 16.5735479c0 .2753333.2271031.5006237.5055067.5006237.2795874 0 .5068879-.2252904.5068879-.5006237 0-.2753334-.2273005-.4984819-.5068879-.4984819-.2784036 0-.5055067.2231485-.5055067.4984819" fill="#fff"/><path d="m18.7033937 35.049505s4.5381166 3.8943894 9.470852 0l-3.35426 9.7359735z" fill="#fff"/><path d="m21.4657256 42.0594059s1.5784753 2.7260726 2.1704035 2.7260726c.5919283 0 2.4663678-2.7260726 2.4663678-2.7260726l-2.367713-1.7524752z" fill="#189b41"/><path d="m5.77212915 56.6633663 6.66886095-9.5445643s.3287175 5.2979274.632574 9.5445643h19.7098296c.3403588-4.5264488.8077848-10.2827458.8077848-10.2827458l5.5140089 10.2827458h4.8137579c-2.8473722-6.9530429-7.8955336-19.188825-8.4584574-19.9297326-.7892377-1.038439-7.2347444-2.8557558-7.2347444-2.8557558l-4.8670314 7.009901-5.3930583-7.2696568s-5.7876771 2.0770726-6.3139013 2.3366337c-.3920538.1935511-7.86593725 13.7884752-11.65171304 20.7086105z" fill="#e6e7e8"/><path d="m2.95307085 53.3799871c.32911211.1491551.64678027.3199241.94669058.5002344l-.80206278 1.3492112c-.34469955-.1538284-.68032287-.2803961-.97983856-.3814555zm.89420628-1.5715808c.28452018.1427293.61935426.3179769.97510314.5197062l-.82317489 1.3846502c-.30069955-.1808944-.61935426-.3522475-.94945291-.5027657zm1.03626906-1.8216007c.33996412.1793366.66730045.3830132.97569507.5972046l-.93721974 1.5766436c-.35653811-.2023135-.69235874-.3783399-.97826009-.5218482zm.96365919-1.6934752c.32792825.1990033.65664574.4283828.97510314.6704191l-.8632287 1.4524125c-.30977578-.2143861-.63790134-.4186468-.97904933-.598957zm1.01989238-1.7927822.88710314.8959043-.82948879 1.395165c-.31924664-.2410627-.64934529-.4698581-.98023319-.6692508zm1.28626009-2.2606931.80383856 1.1328779-1.09960538 1.8496403-.88986547-.8986304zm1.76828699-3.1079175c.24584756.4468812.46742606.9593829.66513006 1.4995347l-1.520861 2.5584191-.80600897-1.1375511zm2.06286996-3.6258713c.1408789.6943697.2420987 1.4600066.31313 2.2474522l-1.5705829 2.6421485c-.203426-.5294422-.4323049-1.0320132-.6876233-1.4707162zm1.0297578-.419231c.0536682.5960363.12174 1.3546634.2000718 2.2363531l-.7414888.2054291c-.0747803-.7675842-.1791569-1.5108284-.322009-2.1845578zm1.8633902-.5551452.1643587 2.2852277-1.6335246.4523334c-.0787265-.8832476-.1469956-1.6438218-.2010583-2.2400529zm.3815964 5.3055215c-.6250762.1647326-1.1593901.3191452-1.5843946.4484389-.0893812-1.0232508-.173435-1.9734819-.2488072-2.8189538l1.6301704-.4515545zm1.1215067-5.7533763.1937579 2.3083994-1.3389417.3709405-.1645561-2.2891221zm.4502601 5.3670528c-.4944574.1127426-.9547803.2260693-1.3782063.3356964l-.2030314-2.8251848 1.3413095-.3715248zm.2616323 3.1162904c-.5149776.0428383-.992861.0901552-1.4299013.1392245l-.195731-2.7221782c.4230314-.1100165.8849327-.2237327 1.380574-.3370595zm1.611426-3.3063366.305435 3.1821056c-.6094888.0286238-1.1844484.0658152-1.7209328.1082641l-.2472287-2.9482476c.5212915-.1168317 1.0777041-.232495 1.6627265-.3421221zm.4652556 4.8465677c-.6203408.031934-1.2024036.0724356-1.740269.1195577l-.124305-1.4820099c.5370763-.0426435 1.1128251-.079835 1.7233005-.108264zm.1969148 2.0523432c-.624287.046538-1.212269.1032013-1.7611838.1662904l-.1598207-1.9057194c.538852-.0473169 1.1201256-.088208 1.7424395-.120142zm1.6929148-3.5797228.1341704 1.4623433c-.6418475.0089571-1.2531121.0272607-1.8274798.0545214l-.1408789-1.4691584c.5816681-.0251188 1.1945112-.0418647 1.8341883-.0477063zm.3186547 3.4739901c-.6333632.0196667-1.2398924.0508218-1.8154439.0911287l-.1779731-1.8554818c.5737758-.0272607 1.1852376-.0451749 1.8266906-.0539373zm4.6415067-3.2954323-.1168071 1.4017855c-1.647139-.1024225-3.151426-.1347459-4.5114799-.1205314l-.133973-1.4615643c1.4616681-.008373 3.0612556.0406963 4.76226.1803102zm.0635337 1.608967c.4437489.0290132.8949955.0617261 1.3588699.1012541l-.1503497 1.7674687c-.4595337-.0420594-.9117669-.0774984-1.3553184-.1057327zm.1327892-1.5918317c.4463139.0383597.8993363.0827558 1.35887.1343564l-.1164126 1.3659571c-.4620986-.0391386-.9166995-.0743828-1.3590673-.1032013zm1.4226009 1.7098317c.5459552.047901 1.1086816.1055379 1.6816682.1694059-.0317668.5950627-.063731 1.1953829-.0956951 1.7976502-.5895605-.0776931-1.1690583-.1440924-1.7363229-.1984192zm.1321973-1.5530825c.5358924.0621155 1.0794798.1331881 1.6303677.2149703-.0232825.4328614-.0467623.8707855-.0704394 1.3126039-.572-.0636732-1.130583-.119363-1.6757489-.1670693zm.2375606-2.7911089c.5459551.097165 1.0597488.2114653 1.5374349.3356963-.0432107.7932872-.0881973 1.6231816-.1341704 2.475274-.5489148-.0811981-1.0905291-.1518812-1.6242511-.213802zm1.5895246 3.036066c.6128431.0934653 1.2337758.199198 1.8624036.3195346-.0220986.4036535-.0441973.8112013-.0664933 1.2214753-.6373094-.0887921-1.2584394-.1666799-1.8659551-.236.0234798-.4390924.0467623-.8746799.0700448-1.3050099zm.1432467-2.6485743c.700843.1898515 1.3209865.3987855 1.8485919.6005149-.0384754.7023531-.0783319 1.4292409-.1187803 2.1715115-.6286278-.1199472-1.2497578-.2256798-1.8626009-.3187558.0453812-.8441089.0899731-1.6667986.1327893-2.4532706zm.1540986-2.8214851c.6457937.1820627 1.2825112.387297 1.8509597.5827953-.0449866.8158746-.0939193 1.7024324-.1452198 2.6351387-.5307623-.2007558-1.1509058-.4073532-1.8489865-.5950627.0509058-.9360165.0990493-1.817901.1432466-2.6228713zm.1726458-3.1246634 1.8513542.5964257c-.0436054.7796568-.098852 1.7711684-.1617937 2.9089142-.5706188-.1953036-1.2069417-.3991749-1.851157-.5796798.0647175-1.1794159.1201615-2.1808581.1615965-2.9256601zm1.872269 3.774637c.8387623.2928581 1.5019193.5533927 1.7781525.6641881-.0970763.8199637-.1637668 1.7435181-.1988879 2.7700792-.302278-.1651221-.8922332-.465769-1.7250762-.7915347.0514977-.9348481.1004304-1.8235478.1458116-2.6427326zm.1730404-3.1155116 2.2043408.7101419.043408.0967756c-.2673542.711505-.4743318 1.6362277-.6189596 2.7722211-.3099731-.1236468-.9697758-.3806765-1.790583-.6661353.0627444-1.1361881.1179911-2.1282838.1617938-2.9130033zm2.365148 1.0686205 1.319408 2.9385115c-.2192107.5898053-.4569686 1.2872905-.6742063 2.0503961l-1.1540627-2.3864819-.0345292-.0142145c.146009-1.1630594.3413453-1.9945116.5433902-2.5882112zm1.4344394 3.1947624 1.2420628 2.7661848c-.253148.4556435-.538852.9876171-.8160718 1.5408152l-1.0855964-2.2447261c.2087534-.7596007.4409866-1.4615644.6596054-2.0622739zm2.6013274 5.7934884c-.3344395.2759175-.674009.6071353-.9968072.950231l-1.0686278-2.2092871c.2709058-.5463828.5534529-1.0783564.8079821-1.5412046zm1.1566278 2.5761386c-.3373991.1923829-.6913722.433835-1.0340987.6889175l-1.0267982-2.1234158c.3204305-.3442641.6576323-.6780132.9877309-.9556832zm1.0913184 2.4306832c-.3703498.1174158-.7201794.2967525-1.0392287.503934l-.9975965-2.0626634c.3419373-.256835.6945292-.500429 1.0258117-.6928119zm1.2195695 2.7165313c-.3200359.1446766-.6386906.3277129-.9366278.5212641l-1.2331839-2.5498515c.3176682-.2093235.665722-.3906073 1.0319283-.5058812zm-1.9730942 1.2828119-1.237722-2.4552178c.2409148-.2387261.5386547-.5035446.8766458-.7438284l1.232 2.5475149c-.3324664.2252904-.6323767.4566171-.8709238.6515313zm-2.3623857-4.686703c.2701166-.2317161.5864036-.4936138.9192646-.7498646l.9924664 2.0523432c-.338583.237363-.6373094.4992607-.8823677.7397393zm-1.0246278-2.0326765c.2460449-.3043466.5353005-.6482211.8450763-.9891749l1.0098296 2.0881716c-.3338476.2552772-.6505292.5165907-.9228162.7500594zm-.9338654-1.8527558c.1825112-.4681056.409417-.971066.6509237-1.468769l1.0346906 2.1395776c-.3101704.338033-.6002152.6801551-.8498116.9872277zm-.1193722-.2367789-.8162691-1.6192871c.1059552-.6918383.2547265-1.3725776.4232287-2.0180726l1.0528431 2.176769c-.2405202.48933-.4693991.9882013-.6598027 1.4605907zm-.9668162-1.9181815-.8139013-1.6146139-.0122332-.0245346-.0234798-.0144092c-.0017758-.0009736-.0147982-.0091519-.0382781-.0227822.0343319-1.0405809.0986548-1.9286964.1834978-2.6857657l1.1467623 2.371099c-.1720538.6336172-.3263497 1.3052046-.4423677 1.9910066zm-1.1124305.1526601c-.6130403-.1440924-1.2209506-.2743598-1.8225471-.3915809.0396592-.728835.0787265-1.4432607.1166099-2.1341254.8839462.3495215 1.479426.6655512 1.7294171.8063333-.0161794.5457987-.0244664 1.1176898-.0234799 1.719373zm-2.2061166 3.0376237c-.6311928-.1104059-1.2519282-.2065973-1.861417-.2893531.0319641-.6034356.0641256-1.205703.0958924-1.801934.6067264.0693201 1.2292376.1487657 1.8657578.2375578-.0333453.6147293-.0668879 1.234132-.1002332 1.8537293zm-.1485739 2.7811783c-.6323767-.0998911-1.2529148-.1888779-1.8598386-.2667657.0447892-.8622178.090565-1.7361188.1367354-2.6088515.6079103.0829505 1.2290404.1797261 1.8612197.2905214-.0467623.8680594-.0929327 1.7345611-.1381165 2.5850958zm-.0982601 1.8675544c-.6276413-.0675676-1.2489686-.1261782-1.8626009-.1764158.0295964-.5781221.0597847-1.1667591.0907623-1.7620165.6059372.0778878 1.226278.1662904 1.8598386.2665709-.0301884.5666337-.0593902 1.1250891-.088 1.6718614zm-.1016144 1.9598515c-.528-.0303762-1.1566278-.0632838-1.8641794-.0938548.0297938-.5979835.0609686-1.2162178.0933274-1.8480825.613435.0504323 1.234565.1090429 1.8622063.1768053-.0315695.605967-.0621525 1.1965511-.0913543 1.765132zm-1.9584933-2.152429c-.642834-.0510166-1.2767892-.093076-1.8998923-.1271519l.1572556-1.8469142c.5952825.0572476 1.2063497.1240363 1.8337937.202703-.0309776.598373-.0615606 1.1903201-.091157 1.7713631zm-.1033901 2.050396c-.6088969-.0255083-1.2716592-.0488746-1.9758565-.0679571l.1629776-1.9156502c.6250762.0340759 1.2612018.0763301 1.9064036.1275413-.0323588.6347855-.063731 1.2551617-.0935247 1.856066zm-1.993417-2.187868c-.4567713-.0239505-.9072287-.0436172-1.3509776-.0593894l.1588341-1.9063037c.4398027.0311552.8894708.0675677 1.349991.110406zm-.1799462 2.1148482c-.4362511-.011099-.8869059-.0202508-1.3499911-.027066l.1627803-1.9530363c.4435516.0157723.894009.0352442 1.350583.0591947zm-1.3675516-2.1812475c-1.1538655-.0381651-2.2595874-.0504324-3.3039462-.0443961l-.1838924-2.0054158c1.1102601.0070099 2.3302243.0473168 3.6470673.1364983zm-.1791569 2.1516501c-.9368252-.0122673-1.9192287-.0142145-2.9235337-.0005841l-.1834977-2.001132c1.0340986-.0058416 2.1283766.0064257 3.2700089.0442013zm-4.9114261.0471221-.1931659-2.0147623c.575157-.0165512 1.1759642-.0280396 1.7998565-.0329076l.1836951 2.0030792c-.5917309.0091518-1.1899731.023561-1.7903857.0445907zm-2.0492556.0987228-.1704753-2.0318977c.5733812-.0297921 1.1846457-.0558845 1.8298475-.0757459l.1935606 2.0163202c-.6183677.0231716-1.237722.0531584-1.8529328.0913234zm-.1866547-2.2258383-.1675157-1.997627c.1466009-.0103202.2951749-.0204456.4473005-.0297921.4192825-.025703.8715157-.0477063 1.3543318-.0640627l.1933633 2.015736c-.6444126.0198613-1.2548879.0459538-1.8274799.0757458zm-1.569991 2.3596106-.1477848-2.0570165c.4729507-.0348548.9867444-.0681518 1.538027-.0981386l.1706726 2.0340396c-.5250404.0340759-1.0463318.0741881-1.5609148.1211155zm-.3020807-4.2051617c.4611121-.0500429.9644484-.0973598 1.5088251-.1380561l.1673184 1.9941221c-.550296.0299868-1.0633005.0632838-1.5356592.0979439zm-1.3600538 4.3848878c-.0501166-.6772344-.1035875-1.3784192-.1592287-2.0953763.4269775-.0412805.9216323-.0847029 1.4780448-.1269571l.1481794 2.0609109c-.4970224.0471221-.9869417.10067-1.4669955.1614225zm-.3231929-4.165439c.4244126-.065231.9212377-.1335775 1.4879104-.197835l.1400896 1.947c-.5564125.0420594-1.0514618.0856766-1.4792287.1267624-.0481435-.6160924-.0978654-1.2432838-.1487713-1.8759274zm-.1973094-2.4143267c.426583-.0897657.9299193-.1863465 1.5056682-.2809802l.1661345 2.3091782c-.5666726.0634786-1.064287.1306568-1.4898834.1951089-.0593901-.7372079-.1203587-1.4808416-.1819193-2.2233069zm1.5325023-2.648769-.1081256-1.5022607c.437435-.049264.9161076-.0967756 1.4322691-.1396139l.1245022 1.4843466c-.5234619.0480957-1.0080538.1014488-1.4486457.157528zm.1542959 2.1489241-.1404843-1.9549835c.4421704-.0564686.9241973-.1107954 1.4510135-.1592805l.1604125 1.9113663c-.5291838.0634786-1.020287.1322145-1.4709417.2028977zm1.6869956 2.3701254c-.5435875.0405017-1.0461346.0870396-1.5068521.1364984l-.1665291-2.3189142c.450852-.0716568.9427444-.1415611 1.4729148-.2054291zm1.9949955-.1084587c-.6394799.0225874-1.2398924.0551056-1.7992646.0944389l-.2010583-2.396802c.2671569-.0309604.5424036-.0605577.827713-.0878184.2965561-.0284291.6090942-.0551057.9356413-.0790562zm2.0070314-.0334918c-.6327713-.0007789-1.2367355.0089571-1.8103139.0268713l-.2375606-2.4764422c.5645023-.0391387 1.1704395-.0702938 1.814852-.0891816zm4.1115336-2.661231c-1.487713-.0891815-2.881704-.1047591-4.1642153-.0704885l-.1665291-1.8145907c1.3495964-.0136304 2.8436233.0198614 4.4775426.1215049zm-3.9100807 4.8584455c-.6238924.0050627-1.2250942.0165512-1.8004485.0331024l-.1933632-2.0159307c.5635157-.0171354 1.1678745-.0262872 1.809722-.02434zm-.0035516-2.1966303-.233417-2.5445941c1.2471928-.0311551 2.6319103-.0161617 4.1310672.0747723l-.216843 2.6037888c-1.3121076-.0882079-2.5421346-.1285149-3.6808072-.133967zm5.645417-2.3321551c.5678565.0547161 1.1489328.1205313 1.7426368.199198-.0461704.8731221-.0921435 1.747802-.1369327 2.6106039-.6231032-.0778877-1.2329866-.1452607-1.8276772-.2021188zm-.4182959 2.5895742c-.4587444-.0424488-.9093991-.0792508-1.3501884-.1104059l.2170404-2.6041782c.442565.0286237.894009.0632838 1.3551211.1059274zm-12.8166278-2.1779373c-.0556413-.6704191-.1116772-1.3388911-.1675157-1.9989901.4289507-.0778878.9378116-.1604488 1.5344753-.2396996l.1408789 1.9612145c-.5757488.0934653-1.0796771.1886831-1.5078385.2774752zm-.1838924-2.1935148c-.044-.5175644-.0876054-1.0292872-.1308161-1.5330264.4267802-.0660099.9498475-.1394192 1.5595336-.2104918l.1081255 1.505571c-.5935067.0786666-1.1071031.1604488-1.536843.2379472zm-.360287-4.1823796c.420861-.1285148.954583-.2835115 1.5812377-.4492178l.1937578 2.6939439c-.6094888.0708779-1.1335426.1440924-1.5620986.210297-.0730045-.8491716-.1444305-1.6714719-.2128969-2.4550231zm-1.144 4.5042509c.0153901-.2523565.0475516-.8382674.0708341-1.6233763.0678744-.0146039.4530224-.0956072 1.1055246-.2003663.0432108.5049076.0870135 1.018967.1310135 1.5378944-.6611839.1240363-1.1013812.2315214-1.3073722.2858482zm.0903677-4.3689208c-.0157847-.9112872-.0572197-1.8782641-.140287-2.8187591l.054852-.0921023.6787444-.188099c.0753722.8476138.1592287 1.7992079.2488072 2.8247954-.4180986.1296831-.7079462.227627-.8421166.274165zm.003157.220033.0112466-.0184984c.0935247-.0329076.3865292-.1341617.8450762-.2770858.0674799.7745941.1379193 1.5877426.2099373 2.4262046-.575157.0921023-.9464933.1660957-1.0832287.1947195.0179551-.6710033.0280179-1.4693531.0169686-2.3253399zm-1.2525202 1.6553102c-.1598206-.6114191-.3506188-1.250099-.5741704-1.8624917l1.5111928-2.5422575c.0718206.9042773.1063498 1.8270528.1183857 2.6939439zm-1.3107265 2.1241947-.88828697-1.2536039 1.48238567-2.4937723c.2160538.6197921.40113 1.2652871.5572018 1.8813795zm-1.0818475 1.7534489-.99601794-1.0057261 1.08105829-1.8186799.88670852 1.2495149zm-.87309417 1.4150264c-.31826009-.2866271-.67085202-.5874687-1.04179373-.8752641l.81528251-1.3714092.99365023 1.0033894zm-.9678027 1.56866c-.30523766-.2683234-.65447533-.5530033-1.03547982-.8263894l.8588879-1.4448185c.36896861.2881848.7207713.5894159 1.03765022.8754588zm-.97924663 1.5869637c-.35851121-.2480726-.72886099-.4784257-1.08401794-.6844389l.92774888-1.5608713c.38021525.2737756.72846637.5590396 1.03153363.8267789zm-.98161435 1.5910528c-.30326458-.2340528-.64973991-.4819307-1.02798206-.7185148l.82613452-1.3897129c.35436772.2056238.72412557.4355875 1.0810583.6830759zm-.85217937 1.3809505c-.3393722-.2330792-.70419731-.4334455-1.06527355-.6032409l.7898296-1.3287657c.37765022.2365842.72313901.4846568 1.02443049.7181254zm-3.25777579.748307.93248431-1.6387591c.29695067.1000858.63257399.2258746.97707623.3785346l-.74918386 1.2602245h.22868162l.70044843-1.1782476c.36147085.1690165.72669058.3682146 1.06369507.5995413l-.35713005.5787063h.23104933l.28649327-.464406c.19356054.1431188.37350673.2983103.536287.464406h.26735426c-.20500449-.2319109-.44138117-.4437657-.69886996-.6340066l.74405381-1.2058977c.64125561.5117227 1.04396413.9243333 1.05284305.9334851l.14285202-.1343564c-.00907623-.0093465-.42717489-.4381188-1.09250224-.9665875l.88434081-1.43333c.42480717.304736.82475336.6336172 1.14991928.975934l.14383856-.1331881c-.33680717-.3545842-.75174888-.6947591-1.19115695-1.0090363l.86303139-1.39867c.6515157.5915578 1.05955157 1.0658944 1.06862781 1.0764092l.1509417-.1250099c-.00927354-.011099-.43565919-.50666-1.11519283-1.1202211l.85987444-1.393802c.75569507.6939802 1.27876234 1.2658713 1.29020628 1.2785281l.14699552-.1300726c-.04735426-.0519901-.57574888-.6299175-1.3304574-1.3215611l.76141704-1.234132 1.31289687 1.3258449.1410762-.1363036-1.34801791-1.3610891.95300451-1.5447096 1.2124663 1.7082739.1479821-.1216997-1.2503498-1.7647425 1.0942781-1.7736997c.3857399 1.5842376.5721973 2.9032673.5753542 2.9299439l.1726458-.2190594c-.0132198-.1106007-.1984933-1.4198944-.5871929-2.9712244l.9912825-1.6068251c.0153902 2.1812475-.1031928 3.9228185-.1057578 3.959231l-.0100628.1411716.1371301-.0410858c.018547-.0056468.494852-.1438977 1.402278-.3150561.0560359.6620462.1120717 1.3322706.1679103 2.004637-.9417579.2017293-1.4620628.3606204-1.4829776.3670462l.0597848.1857624c.0102601-.0033103.5173453-.1600595 1.4391749-.3606205.0609686.7385709.1217399 1.4785049.1807354 2.2118185-1.0064754.1586963-1.5549955.2930528-1.5755157.2983102l.0489327.1884885c.0102601-.0025314.5491121-.1363037 1.5419731-.2953895.0507085.6289439.1000359 1.2518515.1479821 1.8642442-1.023444.1016436-1.6072825.1843994-1.6301704.1877096l.0286098.1927723c.0228879-.0033102.6017938-.0852871 1.6167534-.1863465.0560359.7192937.109704 1.4226204.1600179 2.1012178-.5179372.0677624-1.0234439.1440924-1.5123766.2295742l.0345291.191604c.4826188-.0843135.9812197-.15967 1.4922511-.2268482.0203229.2755281.0400538.5459934.0593902.8125644h.1990852c-.019731-.2747492-.0398565-.5530033-.0609686-.8374885.4798565-.0607525.9695784-.114495 1.4666009-.1618119l.0718206.9993004h.1965202l-.0732018-1.0174093c.5151749-.0469274 1.0374529-.0872343 1.5632825-.1215049l.0954977 1.1389142h.1967175l-.0966816-1.151571c.616-.038165 1.2363408-.0681518 1.8553005-.0913234l.1193722 1.2428944h.1969148l-.1197669-1.250099c.600018-.0210297 1.1980628-.035439 1.7893991-.0443961l.1187803 1.2944951h.1979014l-.1189776-1.2976106c.992269-.0132409 1.9630314-.0112937 2.8893991.0005842l-.1079283 1.2970264h.1967175l.1079283-1.2943004c.4628879.0066205.9133453.0157723 1.3495964.0268713l-.1079283 1.2674291h.1979014l.1075336-1.2623664c.7067623.0188878 1.3720897.0424489 1.9827623.0679571-.0203228.4093004-.0398565.8069175-.0586009 1.1944093h.1980987c.0187444-.3847657.0380807-.7798515.0582063-1.1860363.7075515.0305709 1.3361793.0632838 1.863982.0938547-.0193363.3750297-.0376861.7389604-.0554439 1.0921816h.1975067c.0175606-.3495215.035713-.7097525.0546547-1.0806931.9749059.0578317 1.5573633.1045644 1.5832108.1067063l.0163767-.1939406c-.0258476-.0021419-.61087-.0490693-1.5895247-.1072905.0290045-.5652706.0593901-1.1525445.0907623-1.7550066.5540449.0613367 1.1124305.1294885 1.6743678.2058185l.0270313-.1927723c-.5676591-.0771089-1.1315695-.1458448-1.691139-.2077656.0284126-.5436568.0576144-1.0991914.0874081-1.6627096.5789058.0932706 1.168861.1962772 1.7688789.3099934l.0372915-.1912145c-.6088969-.1154687-1.2073363-.2196436-1.795713-.3142773.0449865-.8491716.091157-1.7145049.1379193-2.5815907.5954798.106901 1.2006278.226264 1.8152466.3604257l.0424215-.1900462c-.6248789-.1364983-1.2404843-.2576138-1.8472107-.3662673.0335426-.6217393.0670852-1.2436733.1006278-1.8605446.5913363.0839241 1.1911569.1738845 1.8077489.2759175l.0327533-.1919934c-.6238923-.103396-1.2316054-.1947194-1.8300448-.2796171.0220986-.406769.0441973-.8108119.0659013-1.2111551.6055426.1183894 1.2173991.249825 1.834583.3954752.0007892.1497393.0009865.2979208.0027623.4509703l.1973094-.0021419c-.0088789-.7771254-.0033542-1.489604.0136144-2.1454191l.844287 1.6749768c-.1138475.7613532-.1763946 1.5345842-.1582422 2.2862014l.1973094-.0046733c-.0157847-.6482211.0299911-1.3131881.1166099-1.9725082l.7681256 1.5236798c-.2042153.5364522-.3498296 1.0279241-.3910673 1.4144423l.1963229.0206402c.0349237-.3281023.1507444-.7401287.3160897-1.1942145l.794565 1.5762541c-.3975785.4975083-.665722.8700066-.6974888.9145974l.1612018.1121584c.0074978-.0105148.2553184-.3545842.6345471-.8316469l.9139372 1.8132278c-.4001435.3489373-.6751928.6106402-.7111031.6449109l.13713.1398085c.0086816-.0081782.272287-.2576138.6665112-.601099l1.0366637 2.0564324c-.3373991.3483531-.5439821.6231023-.5688431.656594l.1592287.1148845c.0059193-.0077888.1917848-.2548878.5053095-.5814323l1.2280538 2.43633c-.1085202.0913234-.1975068.1694059-.2647893.2295743h.2993184c.0185471-.0157723.0368969-.0315446.0568251-.0482905l.0242691.0482905h.2203946l-.0893812-.1773895c.2347982-.1925775.5343139-.4250726.8669776-.6523102l.4013274.8296997h.2186188l-.4547982-.9403004c.297148-.1945247.6144215-.3781452.9303139-.5218482l.6564484 1.4621486h.2156592l-.6911749-1.5398416c.3224036-.1302673.6394799-.2126337.927157-.2126337v-.1947195c-.3164843 0-.6605919.0887921-1.0074619.2287954l-1.127426-2.5111023c.3042511-.0741881.6187623-.1000858.9370224-.0553003l.0278206-.1927723c-.3587085-.0504323-.7101165-.0192772-1.0469237.0654257l-1.0297579-2.2936006c.3780449-.2025083.7187982-.3253762.9693812-.3045413l.0163767-.1939406c-.283139-.0253135-.6572377.105538-1.0654709.320703l-1.088556-2.4240627c.316287-.2500198.6219193-.4410396.8946009-.5306106l-.0625471-.1849835c-.2825471.093076-.594296.2835116-.9145292.5315842l-1.2969148-2.8884686c.4212556-.7566799.739713-1.2826172.7487893-1.2976106l-.1690942-.1000858c-.0343318.0564686-.3113543.5138647-.6811121 1.1716271l-1.2641614-2.8154489c.3993542-1.0643366.7290583-1.7513069.7375426-1.7690264l-.1777758-.0841188c-.008287.0169406-.3032646.6322541-.6738117 1.599231l-1.3211838-2.9429901c.4421704-1.1326832.88513-1.2129076.8930224-1.2140759l-.0144036-.19433c-.0542601.0040891-.5236592.0722409-.9912825 1.1576072l-.0001973-.0001947-2.337722-.7533696c.0576144-1.0322079.0927354-1.6553103.0949058-1.69367l-.1969148-.0105148c-.0021704.0375808-.0361076.6416006-.0921435 1.6416798l-1.8513542-.5966204c.0418296-.7520066.0666906-1.195967.0686637-1.2292641l-.1969148-.0105148c-.0067086.1187789-.0299911.5333366-.0659014 1.1770792l-.2983318-.0961914-.0613633.1853729.3486458.1121584c-.041435.7446073-.0972736 1.7497492-.1623857 2.9346172-.4459192-.1211155-.8924305-.229769-1.32-.3140825l-.0388699.1908251c.4364484.0862607.8926278.1974455 1.3478206.3218713-.0441973.8055544-.0925381 1.6882178-.1436412 2.6255973-.4770942-.1230627-.9885202-.2363894-1.5317131-.3325808l.4453274-5.2334753-.1965202-.0163564-.4439462 5.2165346c-.3308879-.0553003-.6722332-.1045643-1.0250224-.145066l-.0226906.1935512c.3549597.0406963.6986727.0901551 1.031139.1458449l-.2219731 2.6088514c-.4593363-.0514059-.912556-.0958019-1.3590672-.1341617l.3636412-4.3644422-.1967174-.015967-.363444 4.3632739c-1.7132377-.1405874-3.3244664-.1896568-4.796-.1806997l-.3658117-3.9886336-.1965201.0175247.3644305 3.9728614c-.6398745.006231-1.2529148.0229769-1.8349776.0480957l-.3078027-3.2089769c.264-.0482904.5329327-.0954125.8075874-.1405874l.6712467-.110406-.0323588-.1919934-.6712466.110406c-.269722.044396-.5343139.0905445-.7939731.1378614l-.2756413-2.8744489-.1963228.0183036.2776143 2.8923631c-.5840359.1090429-1.1394619.2243168-1.660556.3407591l-.2407175-2.8707492 1.3539372-.3750297-.0534709-.1875149-1.3170403.3649043-.1939552-2.3124884.6783498-.2021188-.0570224-.1863466-.6379014.1900462-.123121-1.4679901-.1965202.015967.1264753 1.5094654-1.3071749.3894389-.1026009-1.4269043-.1967175.0136304.1057579 1.4709109-1.6737758.4986765c-.0597847-.6604884-.098852-1.086924-.109704-1.2062871l-.1965202.0175248c.0029596.0331023.0441973.484462.1130583 1.2463993l-.8876951.2644291c-.1026009-.4499967-.222565-.8670859-.3646278-1.2331585l-.184287.0695149c.1412736.3641254.2612377.7782937.362852 1.2273168l-2.00032283 3.5160495c-.22177578-.3522475-.46190134-.656594-.72234977-.8879208l-.132.1448713c.26695964.2369736.51280717.5627393.739713.9441947l-1.67318386 2.9410429-.49820627-.7033267-.16159642.111769.5530583.7792673-1.20378475 2.1156271-.57910314-.5849373-.14107624.1363036.61955157.6256337-.94866367 1.6673828c-.28570404-.1633696-.57061884-.3033729-.84764126-.4075478l-.07043946.1818679c.26695964.1002806.54299551.2365842.82100448.3962542l-.87250224 1.5336105c-.2829417-.1407821-.57357847-.2636501-.86855605-.3608151l-.06254709.1849835c.28313901.0930759.56233184.2108811.83442153.345627l-.94116592 1.6543366c-.4232287-.2079603-.70163229-.3281023-.71070852-.3319967l-.07833184.1787525c.00887892.0036997.27978475.1207261.69235874.3230396l-.80166816 1.4093796c-.2326278-.0991122-.46999103-.1875149-.71070852-.2597558l-.05741704.1863465c.22710314.0681518.45104933.1509076.67104933.2439835l-.84468162 1.4845413c-.53352466-.1701848-.91630493-.2525512-.96109417-.2618977l-.04084305.1904356c.01065471.0023367.37686099.0811981.90130942.2482674l-.93800897 1.6488844c-.25196412-.0907392-.52089686-.1711584-.80837668-.237363l-.04478924.1896568c.13180269.0303762.25926458.063868.38317489.0998911z" fill="#cdddc0"/><path d="m26.5712646 56.6633663-1.9486278-13.9224422-1.6771301.0973597-2.7558206 13.8250825z" fill="#1bb24b"/><path d="m18.6376305 32.0638129c.1316054 1.5577557 4.9984395 8.0483399 4.9984395 8.0483399s4.9327354-6.0363036 4.735426-8.2430594l1.9730941 2.5313531c0 1.4929142-4.4065112 9.1518152-4.4065112 9.1518152l-2.367713-2.9856336-2.433417 3.1155115s-4.4724126-7.4643762-4.4724126-9.5412541z" fill="#efeff0"/></g><path d="m21.1713991 46.1139132-.0793184-.1002805c-2.4492018-3.093703-4.4363049-9.4117657-4.4560359-9.4750495l.1886278-.0574423c.0193364.0626997 1.9535606 6.2115512 4.3439642 9.3118746l2.3675157-3.1153168 2.3586367 3.0066633c.476305-.7858877 3.1241973-5.2167293 4.4560359-8.7218745l.1848789.0685412c-1.4662062 3.8581716-4.5156233 8.8262442-4.5462062 8.8760924l-.0743857.1209208-2.3763946-3.0290561z" fill="#cdddc0"/><path d="m16.5329901 8.47029703s1.0852018 3.21287127 6.116592 3.60231027c5.0313901.3894389 8.9775784-.5841585 10.9506726.3894389s1.2825112 10.4174918 1.2825112 10.4174918 1.9730942-7.3019802 1.6771301-10.6122113c-.1343677-1.5026501-.2063857-6.07622109-3.058296-8.66501647-3.4310135-3.11453795-9.1748879-3.50495049-11.0493274-3.21287129-4.8106009.74966997-6.0179372 2.23927393-6.0179372 2.23927393s-1.9896681.12286799-2.5650224.58415842c-3.1569507 2.53135313-5.32735426 8.76237621-1.4798206 20.54290431 0 0-2.1704036-11.0990099 4.1434977-15.28547857" fill="#fcb963"/><path d="m33.6989094 11.8778878c-1.6078744-.9256964-7.5964125-.389439-10.6547085-.5841584-3.058296-.1947195-5.8206278-1.46039607-5.6233184-5.25742577 0 0 .9865471 1.94719472 3.058296 1.94719472 0 0-1.2825112-.87623762-2.6636772-4.18646865 0 0 3.2556054-2.62871287 10.852018-.09735973 0 0-5.0313902-3.69966997-12.3318386-.77887789 0 0-.8878924 3.11551155-2.4663677 4.77062706-1.4950134 1.56768647-3.3542601 4.77062706-1.833991 11.20902636.0775426-3.5248118.9427444-8.0730693 4.4976681-10.43014847 0 0 1.0852018 3.21287127 6.116592 3.60231027 5.0313901.3894389 8.9775784-.5841585 10.9506726.3894389.5875875.2899373.9389955 1.331297 1.1426188 2.6505215.0246637-.0130462.0412377-.0218086.0412377-.0218086s.0986547-2.5313532-1.0852018-3.2128713" fill="#f99d1c"/><path d="m18.0128108 7.78877888s.0201255.03797029.0633363.1030066c.0428161.06464686.1091121.15889109.2050045.26715511.0899731.11274258.2207892.23132674.362852.36879868.156269.12617822.3277309.267934.5351031.39839604.0505112.03368647.102009.06815182.1544933.10320132.0562332.0299868.1134529.06036304.1716592.09151816.1181883.05880528.2288789.13571947.3581166.19063036.2576861.11157426.5228699.2350264.8160717.32654455.1458117.04634324.2870852.10943235.4419731.14428713.1537041.03738614.308592.07613532.4634798.11936304l.234009.06269967.2413094.04342246c.1610045.0292079.3227982.0584158.484592.0876237.1600179.036802.3251659.0512113.4885381.0706832.1633722.0202508.3261524.0405017.4875515.060363.0806996.0103202.1612018.0206403.2413095.0309604.0806995.0056469.1610044.0112938.2409148.0171354.1600179.011099.3180627.022198.4733453.0331023.1556771.0120726.3087892.0194719.4587443.03466.1503498.0073994.29774.008373.4413812.0128515.2870852.0050627.5593722.0173301.8113363.0294027.2519642.011099.4830135.0005841.6886099.0058415.2053991-.0003894.3853453.0052575.533722.0085677.2967533.0073993.4680179.0184983.4680179.0184983s-.1649507.0395281-.4567713.0971651c-.1458116.0282343-.3231928.0642574-.5276054.098528-.2046098.0327129-.4346726.0852871-.6888071.1063169-.2541346.0251188-.5301704.0516006-.8229776.0718514-.1462063.0101254-.2965561.02434-.450852.0323235-.154296.0031155-.3119462-.0015578-.4725561-.0019472-.1608072-.0013631-.3241794-.0029208-.4895247-.0044786-.0828699-.0007789-.1661345-.0017525-.249991-.0025313-.0834619-.0079835-.1675157-.015967-.2517668-.0239505-.1686996-.0167459-.3387803-.0334918-.5094529-.0504324-.1704754-.018693-.3423319-.0315445-.5118206-.0693201-.1696861-.0340759-.3391749-.0683465-.5080718-.1024224l-.2527534-.0512113-.247426-.0710726c-.164556-.0467326-.3265471-.097165-.4859731-.1479868-.1604125-.0471221-.310565-.1236468-.4622959-.1826468-.3070135-.111769-.5796951-.2786436-.8401435-.42448848-.1300269-.07340924-.2462422-.16531683-.3612736-.24573597-.0568251-.04147525-.1124663-.08236634-.1673184-.12228383-.0507085-.04556436-.1006278-.0899604-.1495605-.13357756-.0949058-.09034984-.1949417-.16473267-.2716951-.25664026-.0777399-.08937624-.1515336-.17427393-.2207892-.2539142-.1260807-.1699901-.228287-.32109241-.2953722-.45622772-.0380807-.06425742-.0649148-.12559406-.0858296-.17992079-.022296-.05354786-.0416323-.09833333-.0524843-.13727723-.0252556-.07574587-.0323587-.11683168-.0323587-.11683168" fill="#ffd04f"/><path d="m26.398461 8.17821782c-.6803229-.02122442-1.3602511-.09891749-2.0324843-.22256435-.6732197-.12131024-1.3393363-.29441585-1.9892736-.52866337-.6481614-.23658416-1.2803408-.54385149-1.8499731-.96756106-.5635157-.42293069-1.0589596-.99852145-1.2994798-1.70165346l-.2103318-.61472938.6004125.28409571c.4642691.21964357.9238027.44824423 1.3859014.6719769.4611121.22606931.9245919.44707591 1.3833363.67723433l-.3306906.47414191-1.1779372-1.07718812c-.3944215-.35711551-.7807534-.7229934-1.1702421-1.08556106l-.2381525-.22178547.2517668-.17641585c.0998386-.06990429.161991-.09658085.2409148-.13455115.0743857-.03154456.1491659-.06464687.2235516-.08762376.1489686-.0539373.2983318-.09015512.4474977-.12423103.1493633-.03134983.2993184-.05763696.448879-.07263036.1495605-.02161386.2987264-.03018152.447695-.03874917.1491659-.01246205.2975426-.01148845.445722-.01226733.1483767-.00331023.2961614-.00038944.4433543.00895709.1471928.00837294.2949775.0099307.4409865.02765017l.4378296.04614851c.1462063.01285149.2898475.04147525.4346726.06133664.1442332.02336634.289453.04089109.4326996.06893069l.4283587.08840264c.1424574.03037624.2857041.05549505.4263857.09307591l.4228341.10690099c.140287.03777558.2819551.06873597.4204663.11274257l.8312646.25547195-.8563229-.14565016c-.1416681-.02803961-.2859013-.04303301-.428556-.06484159l-.4279641-.06269967c-.1420628-.02414521-.2859014-.03582838-.4287534-.05276898l-.4285561-.04770627c-.1426547-.01479868-.2859013-.02336633-.4287533-.03543894-.142852-.00915181-.2853094-.02706601-.4281615-.0290132l-.4279641-.0140198c-.1424574-.00662047-.2845202.00233663-.4263856.00058416-.1420628-.00175248-.2835337.00292079-.4242153.01363036-.1410762.00817822-.2821524.01421452-.4206637.03349175-.1394977.01518812-.2786008.03037624-.4143497.05763696-.1379193.02044555-.2711032.05354786-.4040897.08450825-.1310135.03427063-.2626188.07068317-.3837668.11936304-.063139.02141914-.1193722.04945874-.1771839.07555115-.0509058.02472938-.1175964.06425743-.1355516.07749835l.0136144-.39820132c.3997489.35146865.802852.69943235 1.1974708 1.05635314l1.1895785 1.06472607 1.5500628 1.38718152-1.8807534-.9130396c-.461704-.22431684-.9190672-.45759076-1.3787982-.68580198-.4587444-.23074258-.9198565-.45642245-1.3764305-.69105941l.3900808-.33063366c.090565.28837953.2322331.56273927.4179013.81198019.1854709.24943565.4102063.4749208.6584215.67840264.4944574.41163697 1.0800718.72825083 1.6871929.9959901.6086995.26832344 1.2473901.47959406 1.8959461.66185149.6501346.177 1.3103319.33043894 1.9809866.44123432" fill="#ffd04f"/><path d="m10.4163982 10.4174917c.0976682-.88889434.2786009-1.77097355.5297758-2.63494385.1252915-.43227722.2689327-.86046534.4384215-1.28028052.0816861-.21088119.1752108-.41767327.2689328-.62446535.0968789-.20562376.1980986-.40949505.3085919-.60966667.051695-.10183828.1130583-.19880858.1716592-.29714191.0582063-.09872277.1183856-.19627723.1844843-.29071617.1241076-.19355116.2657758-.37658746.4064574-.56059736.1507444-.17680528.3014888-.35438944.4715695-.51678548.0799103-.08567657.1704753-.16142244.2602511-.23833663.0885919-.07808251.1781704-.15519142.2778117-.22120132.1892197-.14389769.3981704-.26287129.6096861-.37639274l.3299013-.14876568c.1130583-.04205941.2294709-.07710891.3443049-.11546865.1138476-.04283828.2359821-.05530033.3539731-.08392409.0593902-.01148845.118583-.02667657.1785651-.03485478l.18113-.01733004c.241704-.03388119.4832108-.01869307.7253094-.01577228l-.190009.0529637c.3190494-.22314851.6313902-.40326403.9585292-.58045874.3259552-.17349505.6570404-.33647525.9952287-.48348845.3375964-.14818152.6805202-.28370627 1.028574-.40618482.3486457-.11975248.701435-.22879538 1.058565-.32167657.3561435-.09541254.7166278-.17641584 1.0794798-.24339934.3624574-.06990429.7284664-.12092079 1.09487-.16414851l.5516771-.04790099.5532556-.02433994c.3687713-.00428383.7379372-.00993069 1.1061166.01440924.368574.01090429.7349776.05510561 1.1007893.09541254.3636412.05822113.7284663.10729043 1.0865829.19063037.3612736.06795709.7146547.16882178 1.0686278.26365016.1761973.05043235.3486458.11274258.52287.16862706.1738296.05705281.3482511.11215842.5173453.18206271l.5104394.19880858c.170278.06581518.3332556.14876568.4995875.2229538.3342421.14526072.6546726.31836633.9758923.48777227.162583.08080858.3180628.17466337.4729507.26949175l.4652556.28059076c.3056323.19413532.5986368.40715842.8971659.60888779-.3180627-.17271617-.6317847-.35049505-.9510313-.51756436-.3255606-.15538613-.6404664-.32946534-.9727355-.46830033-.3289148-.14545544-.6554619-.29383168-.9940448-.41397359-.1685023-.06172608-.3336502-.13124093-.503731-.18770957l-.5102421-.16745875c-.1686996-.05958416-.3423319-.1039802-.5149776-.15071287-.172843-.04517492-.3439103-.0969703-.5181345-.13669307-.349435-.07379868-.6951211-.16239604-1.0485023-.21341254-.3502242-.06756766-.7053811-.10086469-1.058565-.14370297-.3553542-.02278218-.7093273-.05919472-1.0650762-.0609472-.355157-.01538283-.7109058-.00116831-1.0654709.01090429l-.5313542.03582839-.5291839.05822112c-.3518027.04439604-.7032107.09580198-1.0508699.16590099-.3482512.06717822-.6939373.14759736-1.0356772.2420363-.3425291.09132344-.6801255.1999769-1.0147623.31622443-.3350314.11488448-.665722.24262046-.9908879.38223432-.3257578.13864026-.6442152.29266336-.9569507.45583828-.3091838.1629802-.6231031.34465347-.8973632.53138944l-.082278.05588449-.1079283-.00292079c-.2097399-.00564687-.4210583-.02589769-.6292197-.00038944l-.156861.01090429c-.0520897.00564686-.1029955.01830363-.1544933.02687129-.1018116.02297689-.2079641.02920792-.3066188.0650363-.0998386.03134983-.2012556.05841584-.3003049.09249175l-.2900449.12267327c-.1872466.0959967-.3742959.19530363-.5465471.32050825-.0897757.05666336-.1742242.12189439-.2566995.1900462-.0838565.06620462-.1686996.13124093-.2450583.20737624-.1613991.14214521-.3074081.30162046-.4546009.46051155-.1381166.16745875-.2782063.33374918-.4033005.51308581-.1306188.17485809-.246834.3610099-.3644304.5459934-.1164126.18615181-.2249328.37756105-.3297041.57169637-.1016143.19549835-.2036233.39138614-.2945829.59292079-.0954978.19939274-.1801435.4040429-.2677489.60771947-.085435.20445545-.1661346.41124753-.2434798.61959736-.1519283.41728383-.2912287.8400198-.4179014 1.26742904-.1231211.4279934-.2413094.8589076-.3332556 1.2964422" fill="#f99d1c" mask="url(#c)"/><path d="m12.8827659 7.88613861c.2758386-.31310891.5260269-.64276897.7683229-.97573927.1217399-.16609571.2342063-.33842244.3496323-.50743894.112269-.17154786.2235515-.34309571.3269417-.51931684.0542601-.08645544.1033901-.1760264.1540986-.26423432.0503139-.08859736.1033902-.17563696.151139-.26520792.0943139-.18031023.192574-.35789439.2766279-.54248845.0420269-.09210231.0895784-.18167327.1306188-.2739703l.1229238-.2770858c.0832645-.18400991.1487713-.37483499.2241434-.56137624l.3032646.36665676c-.0562332.01382509-.1436412.04011221-.217435.06834654-.0773452.02317162-.1539013.06075247-.230852.09073927-.1515336.07029373-.3036592.14311881-.4459193.23561056-.1477847.08236634-.2815605.18829373-.4188878.2879901-.1349597.1030066-.2584754.22178548-.3906727.32946535l-.3596951.3670462-.3247713.40151155c-.1051659.13630364-.1961255.28429043-.296556.42546205-.1037848.13922442-.1846816.29363696-.2693274.44590759-.0808968.15421782-.1791569.29967327-.2464394.46187459l-.2225651.47686799c-.0810941.15674917-.1300269.32673927-.1939551.4910825l-.1909955.49575578-.1535068.5099703c-.0514977.17037953-.1110852.33959076-.156269.51211221-.0834619.34699013-.1724484.69456433-.2683408 1.04389113.0169686-.358868.0412377-.71948849.0708341-1.08108255.0201255-.17972607.0550493-.35731023.0820807-.5370363l.093722-.53742575.1377219-.52963696c.0520897-.17524753.0891839-.35536304.1596233-.52535314l.1919821-.51775907c.0290045-.08762376.0678744-.17154786.1108879-.25371947l.1231211-.24904621c.0820807-.16629043.1608072-.33452805.2645919-.49030363.1008251-.15713861.1888251-.32284488.3030673-.472l.3480538-.44434983c.1300269-.13766667.258278-.27708581.3910672-.41241585.1444305-.12442574.281166-.25780858.4364485-.36996699.156861-.11060066.3095785-.22626403.4798565-.31875578.1635695-.10164356.3401614-.1840099.5185291-.26267657.1858655-.07555115.3561435-.13883498.5838386-.17992079l.5143856-.09288119-.211121.45973268c-.0887893.19296699-.1679103.38982838-.264592.57870627-.0954977.18907261-.1870493.38009241-.2979372.56079208-.1029955.18478878-.2198027.36139934-.3326637.53976237-.0570224.08879208-.1189775.17427393-.1781704.26150825-.0586009.08781849-.1221345.17213202-.1870493.25527723-.126278.16882178-.2598565.33180198-.3940269.49380858-.1367354.16005941-.2793901.31486139-.4252018.46615842-.2910314.30259406-.6031749.58649505-.940574.83515181" fill="#ffd04f"/><g fill="#e8c6ac"><path d="m24.7554852 22.0033003c0 .2336634-.1919821.4231254-.4287534.4231254s-.4287533-.189462-.4287533-.4231254c0-.2336633.191982-.4231254.4287533-.4231254s.4287534.1894621.4287534.4231254"/><path d="m22.2180861 22.9403878c0 .2420363-.1988879.4383135-.4441435.4383135s-.4439462-.1962772-.4439462-.4383135.1986906-.4383135.4439462-.4383135.4441435.1962772.4441435.4383135"/><path d="m23.9322117 18.6200495c0 .2420363-.1988879.4383135-.4441435.4383135s-.4439462-.1962772-.4439462-.4383135.1986906-.4383135.4439462-.4383135.4441435.1962772.4441435.4383135"/><path d="m25.4983552 19.8735561c0 .2420363-.1988879.4383135-.4441435.4383135s-.4439462-.1962772-.4439462-.4383135.1986906-.4383135.4439462-.4383135.4441435.1962772.4441435.4383135"/><path d="m22.3945794 19.8127063c0 .1567491-.1288431.283901-.2876772.283901-.158834 0-.2874798-.1271519-.2874798-.283901 0-.1567492.1286458-.283901.2874798-.283901.1588341 0 .2876772.1271518.2876772.283901"/><path d="m26.4270906 23.7922855c0 .1567492-.1288431.283901-.2876771.283901-.1588341 0-.2874799-.1271518-.2874799-.283901s.1286458-.283901.2874799-.283901c.158834 0 .2876771.1271518.2876771.283901"/><path d="m24.5118081 24.2060644c0 .2420363-.1988879.4383135-.4441435.4383135s-.4439462-.1962772-.4439462-.4383135.1986906-.4383136.4439462-.4383136.4441435.1962773.4441435.4383136"/><path d="m20.0885256 23.2568069c0 .1567492-.1288431.283901-.2876772.283901s-.2874798-.1271518-.2874798-.283901c0-.1567491.1286457-.283901.2874798-.283901s.2876772.1271519.2876772.283901"/><path d="m27.5083265 23.0742574c0 .1567492-.1288431.283901-.2876772.283901s-.2874798-.1271518-.2874798-.283901c0-.1567491.1286457-.283901.2874798-.283901s.2876772.1271519.2876772.283901"/><path d="m22.4746673 21.2731023c0 .1063168-.0874081.1923828-.1949417.1923828-.107731 0-.1951391-.086066-.1951391-.1923828s.0874081-.1923828.1951391-.1923828c.1075336 0 .1949417.086066.1949417.1923828"/><path d="m23.4612143 20.299505c0 .1063168-.087408.1923828-.1949417.1923828-.1077309 0-.195139-.086066-.195139-.1923828 0-.1063169.0874081-.1923829.195139-.1923829.1075337 0 .1949417.086066.1949417.1923829"/></g></g></g></g></svg>