<?xml version="1.0" encoding="UTF-8" standalone="no"?>
<svg width="69px" height="69px" viewBox="0 0 69 69" version="1.1" xmlns="http://www.w3.org/2000/svg" xmlns:xlink="http://www.w3.org/1999/xlink">
    <!-- Generator: Sketch 3.6.1 (26313) - http://www.bohemiancoding.com/sketch -->
    <title>voorbeeld-persoon-2</title>
    <desc>Created with Sketch.</desc>
    <defs>
        <path id="path-1" d="M34.5,69 C53.5538239,69 69,53.5538239 69,34.5 C69,15.4461761 53.5538239,0 34.5,0 C15.4461761,0 0,15.4461761 0,34.5 C0,53.5538239 15.4461761,69 34.5,69 Z"></path>
        <path id="path-3" d="M0,0.128514851 L43.9191031,0.128514851 L43.9191031,59 L0,59"></path>
    </defs>
    <g id="Page-1" stroke="none" stroke-width="1" fill="none" fill-rule="evenodd">
        <g id="voorbeeld-persoon-2">
            <mask id="mask-2" fill="white">
                <use xlink:href="#path-1"></use>
            </mask>
            <use id="Mask" fill="#F7941E" xlink:href="#path-1"></use>
            <path d="M5.98672074,7.7625 L60.8758846,62.6516639 L31.6016639,91.9258846 L-23.2875,37.0367207 L5.98672074,7.7625 L5.98672074,7.7625 Z" id="Rectangle-27" fill="#E88917" mask="url(#mask-2)"></path>
            <g id="Page-1" mask="url(#mask-2)">
                <g transform="translate(10.000000, 11.000000)">
                    <g id="Group-33" transform="translate(0.000000, 2.336634)">
                        <path d="M19.3611049,36.2178218 C19.3611049,36.2178218 18.1772484,32.3882739 18.6375713,32.0638713 C19.0980915,31.7392739 25.8723157,30.8955545 28.3716341,31.8691518 L28.1743247,36.2178218 L20.4792574,39.6579307 L19.3611049,36.2178218 Z" id="Fill-1" fill="#AFB1B4"></path>
                        <path d="M5.54812377,56.6633663 L12.9614332,46.3915248 L13.9817202,56.6633663 L32.1324108,56.6633663 C33.0575946,47.2175248 33.3042314,45.6617162 33.3042314,45.6617162 L39.2677112,56.6633663 L43.732626,56.6633663 L35.9022045,38.7491749 C35.9022045,38.7491749 35.4866709,36.9571716 32.578922,36.0016832 C29.6729489,35.0450264 27.0384735,33.9653069 27.0384735,31.9260099 L27.0384735,26.5579835 L23.5111731,26.5579835 L23.5042673,26.5579835 L19.9767695,26.5579835 L19.9767695,31.9260099 C19.9767695,33.9653069 17.3671552,34.9367624 14.4611821,35.8932244 C11.5534332,36.8489076 11.1856484,38.6235809 11.1856484,38.6235809 L0.51081435,56.6633663 L5.54812377,56.6633663 Z" id="Fill-3" fill="#E6CAB7"></path>
                        <path d="M36.1653166,11.0990099 C36.1653166,21.0448911 32.5906619,29.1660561 23.3999892,29.1660561 C14.2103031,29.1660561 10.8110565,20.9475314 10.8110565,11.0016502 C10.8110565,1.05382178 19.3634332,0.0241452145 23.5550744,0.0241452145 C27.7467157,0.0241452145 36.1653166,1.15118152 36.1653166,11.0990099" id="Fill-5" fill="#FDDFD8"></path>
                        <path d="M20.5214027,17.4687122 C20.5214027,18.8346693 19.3856897,19.9428178 17.9865686,19.9428178 C16.586461,19.9428178 15.4529184,18.8346693 15.4529184,17.4687122 C15.4529184,16.1025604 16.586461,14.994996 17.9865686,14.994996 C19.3856897,14.994996 20.5214027,16.1025604 20.5214027,17.4687122" id="Fill-7" fill="#82B034"></path>
                        <path d="M19.8694135,17.468167 C19.8694135,18.4213188 19.0853058,19.1959129 18.1196735,19.1959129 C17.153252,19.1959129 16.3703283,18.4213188 16.3703283,17.468167 C16.3703283,16.5165729 17.153252,15.7419789 18.1196735,15.7419789 C19.0853058,15.7419789 19.8694135,16.5165729 19.8694135,17.468167" id="Fill-9" fill="#2A1D01"></path>
                        <path d="M17.3825453,16.5735479 C17.3825453,16.8488812 17.1554422,17.0741716 16.8770386,17.0741716 C16.5974511,17.0741716 16.3701507,16.8488812 16.3701507,16.5735479 C16.3701507,16.2982145 16.5974511,16.075066 16.8770386,16.075066 C17.1554422,16.075066 17.3825453,16.2982145 17.3825453,16.5735479" id="Fill-11" fill="#FFFFFF"></path>
                        <path d="M17.9091444,22.94547 C19.6432969,23.9829353 21.4997812,24.6237571 23.3813238,24.5998066 C25.274113,24.5998066 27.0875839,23.8770079 28.8907946,22.94547 C28.2284269,23.7159749 27.400122,24.3548495 26.4607318,24.8151663 C25.5231175,25.2828825 24.4615928,25.537965 23.3905973,25.5545162 C22.3207857,25.5562686 21.2515659,25.3206581 20.3076377,24.8603413 C19.3643013,24.4074238 18.5127139,23.7685492 17.9091444,22.94547" id="Fill-13" fill="#F99D1C"></path>
                        <path d="M26.7219695,17.4687122 C26.7219695,18.8346693 27.8576825,19.9428178 29.2568036,19.9428178 C30.6569112,19.9428178 31.7904538,18.8346693 31.7904538,17.4687122 C31.7904538,16.1025604 30.6569112,14.994996 29.2568036,14.994996 C27.8576825,14.994996 26.7219695,16.1025604 26.7219695,17.4687122" id="Fill-15" fill="#82B034"></path>
                        <path d="M27.3739785,17.468167 C27.3739785,18.4213188 28.1580861,19.1959129 29.1237184,19.1959129 C30.0901399,19.1959129 30.8730637,18.4213188 30.8730637,17.468167 C30.8730637,16.5165729 30.0901399,15.7419789 29.1237184,15.7419789 C28.1580861,15.7419789 27.3739785,16.5165729 27.3739785,17.468167" id="Fill-17" fill="#2A1D01"></path>
                        <path d="M27.4730081,16.5735479 C27.4730081,16.8488812 27.7001112,17.0741716 27.9785148,17.0741716 C28.2581022,17.0741716 28.4854027,16.8488812 28.4854027,16.5735479 C28.4854027,16.2982145 28.2581022,16.075066 27.9785148,16.075066 C27.7001112,16.075066 27.4730081,16.2982145 27.4730081,16.5735479" id="Fill-19" fill="#FFFFFF"></path>
                        <path d="M18.7033937,35.049505 C18.7033937,35.049505 23.2415103,38.9438944 28.1742457,35.049505 L24.8199857,44.7854785 L18.7033937,35.049505 Z" id="Fill-21" fill="#FFFFFF"></path>
                        <path d="M21.4657256,42.0594059 C21.4657256,42.0594059 23.0442009,44.7854785 23.6361291,44.7854785 C24.2280574,44.7854785 26.1024969,42.0594059 26.1024969,42.0594059 L23.7347839,40.3069307 L21.4657256,42.0594059 Z" id="Fill-23" fill="#189B41"></path>
                        <path d="M5.77212915,56.6633663 L12.4409901,47.118802 C12.4409901,47.118802 12.7697076,52.4167294 13.0735641,56.6633663 L32.7833937,56.6633663 C33.1237525,52.1369175 33.5911785,46.3806205 33.5911785,46.3806205 L39.1051874,56.6633663 L43.9189453,56.6633663 C41.0715731,49.7103234 36.0234117,37.4745413 35.4604879,36.7336337 C34.6712502,35.6951947 28.2257435,33.8778779 28.2257435,33.8778779 L23.3587121,40.8877789 L17.9656538,33.6181221 C17.9656538,33.6181221 12.1779767,35.6951947 11.6517525,35.9547558 C11.2596987,36.1483069 3.78581525,49.743231 3.94618834e-05,56.6633663 L5.77212915,56.6633663 Z" id="Fill-25" fill="#E6E7E8"></path>
                        <path d="M2.95307085,53.3799871 C3.28218296,53.5291422 3.59985112,53.6999112 3.89976143,53.8802215 L3.09769865,55.2294327 C2.7529991,55.0756043 2.41737578,54.9490366 2.11786009,54.8479772 L2.95307085,53.3799871 Z M3.84727713,51.8084063 C4.13179731,51.9511356 4.46663139,52.1263832 4.82238027,52.3281125 L3.99920538,53.7127627 C3.69850583,53.5318683 3.37985112,53.3605152 3.04975247,53.209997 L3.84727713,51.8084063 Z M4.88354619,49.9868056 C5.22351031,50.1661422 5.55084664,50.3698188 5.85924126,50.5840102 L4.92202152,52.1606538 C4.56548341,51.9583403 4.22966278,51.7823139 3.94376143,51.6388056 L4.88354619,49.9868056 Z M5.84720538,48.2933304 C6.17513363,48.4923337 6.50385112,48.7217132 6.82230852,48.9637495 L5.95907982,50.416162 C5.64930404,50.2017759 5.32117848,49.9975152 4.98003049,49.817205 L5.84720538,48.2933304 Z M6.86709776,46.5005482 L7.7542009,47.3964525 L6.92471211,48.7916175 C6.60546547,48.5505548 6.27536682,48.3217594 5.94447892,48.1223667 L6.86709776,46.5005482 Z M8.15335785,44.2398551 L8.95719641,45.372733 L7.85759103,47.2223733 L6.96772556,46.3237429 L8.15335785,44.2398551 Z M9.92164484,41.1319376 C10.1674924,41.5788188 10.3890709,42.0913205 10.5867749,42.6314723 L9.0659139,45.1898914 L8.25990493,44.0523403 L9.92164484,41.1319376 Z M11.9845148,37.5060663 C12.1253937,38.200436 12.2266135,38.9660729 12.2976448,39.7535185 L10.7270619,42.395667 C10.5236359,41.8662248 10.294757,41.3636538 10.0394386,40.9249508 L11.9845148,37.5060663 Z M13.0142726,37.0868353 C13.0679408,37.6828716 13.1360126,38.4414987 13.2143444,39.3231884 L12.4728556,39.5286175 C12.3980753,38.7610333 12.2936987,38.0177891 12.1508466,37.3440597 L13.0142726,37.0868353 Z M14.8776628,36.5316901 L15.0420215,38.8169178 L13.4084969,39.2692512 C13.3297704,38.3860036 13.2615013,37.6254294 13.2074386,37.0291983 L14.8776628,36.5316901 Z M15.2592592,41.8372116 C14.634183,42.0019442 14.0998691,42.1563568 13.6748646,42.2856505 C13.5854834,41.2623997 13.5014296,40.3121686 13.4260574,39.4666967 L15.0562278,39.0151422 L15.2592592,41.8372116 Z M16.3807659,36.0838353 L16.5745238,38.3922347 L15.2355821,38.7631752 L15.071026,36.4740531 L16.3807659,36.0838353 Z M16.831026,41.4508881 C16.3365686,41.5636307 15.8762457,41.6769574 15.4528197,41.7865845 L15.2497883,38.9613997 L16.5910978,38.5898749 L16.831026,41.4508881 Z M17.0926583,44.5671785 C16.5776807,44.6100168 16.0997973,44.6573337 15.662757,44.706403 L15.467026,41.9842248 C15.8900574,41.8742083 16.3519587,41.7604921 16.8476,41.6471653 L17.0926583,44.5671785 Z M18.7040843,41.2608419 L19.0095193,44.4429475 C18.4000305,44.4715713 17.8250709,44.5087627 17.2885865,44.5512116 L17.0413578,41.602964 C17.5626493,41.4861323 18.1190619,41.370469 18.7040843,41.2608419 L18.7040843,41.2608419 Z M19.1693399,46.1074096 C18.5489991,46.1393436 17.9669363,46.1798452 17.4290709,46.2269673 L17.3047659,44.7449574 C17.8418422,44.7023139 18.417591,44.6651224 19.0280664,44.6366934 L19.1693399,46.1074096 Z M19.3662547,48.1597528 C18.7419677,48.2062908 18.1539857,48.2629541 17.6050709,48.3260432 L17.4452502,46.4203238 C17.9841022,46.3730069 18.5653758,46.3321158 19.1876897,46.3001818 L19.3662547,48.1597528 Z M21.0591695,44.58003 L21.1933399,46.0423733 C20.5514924,46.0513304 19.9402278,46.069634 19.3658601,46.0968947 L19.2249812,44.6277363 C19.8066493,44.6026175 20.4194924,44.5858716 21.0591695,44.58003 L21.0591695,44.58003 Z M21.3778242,48.0540201 C20.744461,48.0736868 20.1379318,48.1048419 19.5623803,48.1451488 L19.3844072,46.289667 C19.958183,46.2624063 20.5696448,46.2444921 21.2110978,46.2357297 L21.3778242,48.0540201 Z M26.0193309,44.7585878 L25.9025238,46.1603733 C24.2553848,46.0579508 22.7510978,46.0256274 21.3910439,46.0398419 L21.2570709,44.5782776 C22.718739,44.5699046 24.3183265,44.6189739 26.0193309,44.7585878 L26.0193309,44.7585878 Z M26.0828646,46.3675548 C26.5266135,46.396568 26.9778601,46.4292809 27.4417345,46.4688089 L27.2913848,48.2362776 C26.8318511,48.1942182 26.3796179,48.1587792 25.9360664,48.1305449 L26.0828646,46.3675548 Z M26.2156538,44.7757231 C26.6619677,44.8140828 27.1149901,44.8584789 27.5745238,44.9100795 L27.4581112,46.2760366 C26.9960126,46.236898 26.5414117,46.2016538 26.0990439,46.1728353 L26.2156538,44.7757231 Z M27.6382547,46.4855548 C28.1842099,46.5334558 28.7469363,46.5910927 29.3199229,46.6549607 C29.2881561,47.2500234 29.2561919,47.8503436 29.2242278,48.4526109 C28.6346673,48.3749178 28.0551695,48.3085185 27.4879049,48.2541917 L27.6382547,46.4855548 Z M27.770452,44.9324723 C28.3063444,44.9945878 28.8499318,45.0656604 29.4008197,45.1474426 C29.3775372,45.580304 29.3540574,46.0182281 29.3303803,46.4600465 C28.7583803,46.3963733 28.1997973,46.3406835 27.6546314,46.2929772 L27.770452,44.9324723 Z M28.0080126,42.1413634 C28.5539677,42.2385284 29.0677614,42.3528287 29.5454475,42.4770597 C29.5022368,43.2703469 29.4572502,44.1002413 29.4112771,44.9523337 C28.8623623,44.8711356 28.320748,44.8004525 27.787026,44.7385317 L28.0080126,42.1413634 Z M29.5975372,45.1774294 C30.2103803,45.2708947 30.831313,45.3766274 31.4599408,45.496964 C31.4378422,45.9006175 31.4157435,46.3081653 31.3934475,46.7184393 C30.7561381,46.6296472 30.1350081,46.5517594 29.5274924,46.4824393 C29.5509722,46.0433469 29.5742547,45.6077594 29.5975372,45.1774294 L29.5975372,45.1774294 Z M29.7407839,42.5288551 C30.4416269,42.7187066 31.0617704,42.9276406 31.5893758,43.12937 C31.5509004,43.8317231 31.5110439,44.5586109 31.4705955,45.3008815 C30.8419677,45.1809343 30.2208377,45.0752017 29.6079946,44.9821257 C29.6533758,44.1380168 29.6979677,43.3153271 29.7407839,42.5288551 L29.7407839,42.5288551 Z M29.8948825,39.70737 C30.5406762,39.8894327 31.1773937,40.094667 31.7458422,40.2901653 C31.7008556,41.1060399 31.6519229,41.9925977 31.6006224,42.925304 C31.0698601,42.7245482 30.4497166,42.5179508 29.7516359,42.3302413 C29.8025417,41.3942248 29.8506852,40.5123403 29.8948825,39.70737 L29.8948825,39.70737 Z M30.0675283,36.5827066 L31.9188825,37.1791323 C31.8752771,37.9587891 31.8200305,38.9503007 31.7570888,40.0880465 C31.18647,39.8927429 30.5501471,39.6888716 29.9059318,39.5083667 C29.9706493,38.3289508 30.0260933,37.3275086 30.0675283,36.5827066 L30.0675283,36.5827066 Z M31.9397973,40.3573436 C32.7785596,40.6502017 33.4417166,40.9107363 33.7179498,41.0215317 C33.6208735,41.8414954 33.554183,42.7650498 33.5190619,43.7916109 C33.2167839,43.6264888 32.6268287,43.3258419 31.7939857,43.0000762 C31.8454834,42.0652281 31.8944161,41.1765284 31.9397973,40.3573436 L31.9397973,40.3573436 Z M32.1128377,37.241832 L34.3171785,37.9519739 L34.3605865,38.0487495 C34.0932323,38.7602545 33.8862547,39.6849772 33.7416269,40.8209706 C33.4316538,40.6973238 32.7718511,40.4402941 31.9510439,40.1548353 C32.0137883,39.0186472 32.069035,38.0265515 32.1128377,37.241832 L32.1128377,37.241832 Z M34.4779857,38.3104525 L35.7973937,41.248964 C35.578183,41.8387693 35.3404251,42.5362545 35.1231874,43.2993601 L33.9691247,40.9128782 L33.9345955,40.8986637 C34.0806045,39.7356043 34.2759408,38.9041521 34.4779857,38.3104525 L34.4779857,38.3104525 Z M35.9124251,41.5052149 L37.1544879,44.2713997 C36.9013399,44.7270432 36.6156359,45.2590168 36.3384161,45.8122149 L35.2528197,43.5674888 C35.4615731,42.8078881 35.6938063,42.1059244 35.9124251,41.5052149 L35.9124251,41.5052149 Z M38.5137525,47.2987033 C38.179313,47.5746208 37.8397435,47.9058386 37.5169453,48.2489343 L36.4483175,46.0396472 C36.7192233,45.4932644 37.0017704,44.9612908 37.2562996,44.4984426 L38.5137525,47.2987033 Z M39.6703803,49.8748419 C39.3329812,50.0672248 38.9790081,50.3086769 38.6362816,50.5637594 L37.6094834,48.4403436 C37.9299139,48.0960795 38.2671157,47.7623304 38.5972143,47.4846604 L39.6703803,49.8748419 Z M40.7616987,52.3055251 C40.3913489,52.4229409 40.0415193,52.6022776 39.72247,52.8094591 L38.7248735,50.7467957 C39.0668108,50.4899607 39.4194027,50.2463667 39.7506852,50.0539838 L40.7616987,52.3055251 Z M41.9812682,55.0220564 C41.6612323,55.166733 41.3425776,55.3497693 41.0446404,55.5433205 L39.8114565,52.993469 C40.1291247,52.7841455 40.4771785,52.6028617 40.8433848,52.4875878 L41.9812682,55.0220564 Z M40.008174,56.3048683 L38.770452,53.8496505 C39.0113668,53.6109244 39.3091067,53.3461059 39.6470978,53.1058221 L40.8790978,55.653337 C40.5466314,55.8786274 40.2467211,56.1099541 40.008174,56.3048683 L40.008174,56.3048683 Z M37.6457883,51.6181653 C37.9159049,51.3864492 38.2321919,51.1245515 38.5650529,50.8683007 L39.5575193,52.9206439 C39.2189363,53.1580069 38.9202099,53.4199046 38.6751516,53.6603832 L37.6457883,51.6181653 Z M36.6211605,49.5854888 C36.8672054,49.2811422 37.156461,48.9372677 37.4662368,48.5963139 L38.4760664,50.6844855 C38.1422188,50.9397627 37.8255372,51.2010762 37.5532502,51.4345449 L36.6211605,49.5854888 Z M35.6872951,47.732733 C35.8698063,47.2646274 36.0967121,46.761667 36.3382188,46.263964 L37.3729094,48.4035416 C37.062739,48.7415746 36.7726942,49.0836967 36.5230978,49.3907693 L35.6872951,47.732733 Z M35.5679229,47.4959541 L34.7516538,45.876667 C34.857609,45.1848287 35.0063803,44.5040894 35.1748825,43.8585944 L36.2277256,46.0353634 C35.9872054,46.5246934 35.7583265,47.0235647 35.5679229,47.4959541 L35.5679229,47.4959541 Z M34.6011067,45.5777726 L33.7872054,43.9631587 L33.7749722,43.9386241 L33.7514924,43.9242149 C33.7497166,43.9232413 33.7366942,43.915063 33.7132143,43.9014327 C33.7475462,42.8608518 33.8118691,41.9727363 33.8967121,41.215667 L35.0434744,43.586766 C34.8714206,44.2203832 34.7171247,44.8919706 34.6011067,45.5777726 L34.6011067,45.5777726 Z M33.4886762,45.7304327 C32.8756359,45.5863403 32.2677256,45.4560729 31.6661291,45.3388518 C31.7057883,44.6100168 31.7448556,43.8955911 31.782739,43.2047264 C32.6666852,43.5542479 33.262165,43.8702776 33.5121561,44.0110597 C33.4959767,44.5568584 33.4876897,45.1287495 33.4886762,45.7304327 L33.4886762,45.7304327 Z M31.2825596,48.7680564 C30.6513668,48.6576505 30.0306314,48.5614591 29.4211426,48.4787033 C29.4531067,47.8752677 29.4852682,47.2730003 29.517035,46.6767693 C30.1237614,46.7460894 30.7462726,46.825535 31.3827928,46.9143271 C31.3494475,47.5290564 31.3159049,48.1484591 31.2825596,48.7680564 L31.2825596,48.7680564 Z M31.1339857,51.5492347 C30.501609,51.4493436 29.8810709,51.3603568 29.2741471,51.282469 C29.3189363,50.4202512 29.3647121,49.5463502 29.4108825,48.6736175 C30.0187928,48.756568 30.6399229,48.8533436 31.2721022,48.9641389 C31.2253399,49.8321983 31.1791695,50.6987 31.1339857,51.5492347 L31.1339857,51.5492347 Z M31.0357256,53.4167891 C30.4080843,53.3492215 29.786757,53.2906109 29.1731247,53.2403733 C29.2027211,52.6622512 29.2329094,52.0736142 29.263887,51.4783568 C29.8698242,51.5562446 30.490165,51.6446472 31.1237256,51.7449277 C31.0935372,52.3115614 31.0643354,52.8700168 31.0357256,53.4167891 L31.0357256,53.4167891 Z M30.9341112,55.3766406 C30.4061112,55.3462644 29.7774834,55.3133568 29.0699318,55.2827858 C29.0997256,54.6848023 29.1309004,54.066568 29.1632592,53.4347033 C29.7766942,53.4851356 30.3978242,53.5437462 31.0254655,53.6115086 C30.993896,54.2174756 30.963313,54.8080597 30.9341112,55.3766406 L30.9341112,55.3766406 Z M28.9756179,53.2242116 C28.3327839,53.173195 27.6988287,53.1311356 27.0757256,53.0970597 L27.2329812,51.2501455 C27.8282637,51.3073931 28.4393309,51.3741818 29.0667749,51.4528485 C29.0357973,52.0512215 29.0052143,52.6431686 28.9756179,53.2242116 L28.9756179,53.2242116 Z M28.8722278,55.2746076 C28.2633309,55.2490993 27.6005686,55.225733 26.8963713,55.2066505 L27.0593489,53.2910003 C27.6844251,53.3250762 28.3205507,53.3673304 28.9657525,53.4185416 C28.9333937,54.0533271 28.9020215,54.6737033 28.8722278,55.2746076 L28.8722278,55.2746076 Z M26.8788108,53.0867396 C26.4220395,53.0627891 25.9715821,53.0431224 25.5278332,53.0273502 L25.6866673,51.1210465 C26.12647,51.1522017 26.5761381,51.1886142 27.0366583,51.2314525 L26.8788108,53.0867396 Z M26.6988646,55.2015878 C26.2626135,55.1904888 25.8119587,55.181337 25.3488735,55.1745218 L25.5116538,53.2214855 C25.9552054,53.2372578 26.4056628,53.2567297 26.8622368,53.2806802 L26.6988646,55.2015878 Z M25.331313,53.0203403 C24.1774475,52.9821752 23.0717256,52.9699079 22.0273668,52.9759442 L21.8434744,50.9705284 C22.9537345,50.9775383 24.1736987,51.0178452 25.4905417,51.1070267 L25.331313,53.0203403 Z M25.1521561,55.1719904 C24.2153309,55.1597231 23.2329274,55.1577759 22.2286224,55.1714063 L22.0451247,53.1702743 C23.0792233,53.1644327 24.1735013,53.1767 25.3151336,53.2144756 L25.1521561,55.1719904 Z M20.24073,55.2191125 L20.0475641,53.2043502 C20.6227211,53.187799 21.2235283,53.1763106 21.8474206,53.1714426 L22.0311157,55.1745218 C21.4393848,55.1836736 20.8411426,55.1980828 20.24073,55.2191125 L20.24073,55.2191125 Z M18.1914744,55.3178353 L18.0209991,53.2859376 C18.5943803,53.2561455 19.2056448,53.2300531 19.8508466,53.2101917 L20.0444072,55.2265119 C19.4260395,55.2496835 18.8066852,55.2796703 18.1914744,55.3178353 L18.1914744,55.3178353 Z M18.0048197,53.091997 L17.837304,51.09437 C17.9839049,51.0840498 18.1324789,51.0739244 18.2846045,51.0645779 C18.703887,51.0388749 19.1561202,51.0168716 19.6389363,51.0005152 L19.8322996,53.0162512 C19.187887,53.0361125 18.5774117,53.062205 18.0048197,53.091997 L18.0048197,53.091997 Z M16.4348287,55.4516076 L16.2870439,53.3945911 C16.7599946,53.3597363 17.2737883,53.3264393 17.8250709,53.2964525 L17.9957435,55.3304921 C17.4707031,55.364568 16.9494117,55.4046802 16.4348287,55.4516076 L16.4348287,55.4516076 Z M16.132748,51.2464459 C16.5938601,51.196403 17.0971964,51.1490861 17.6415731,51.1083898 L17.8088915,53.1025119 C17.2585955,53.1324987 16.745591,53.1657957 16.2732323,53.2004558 L16.132748,51.2464459 Z M14.7726942,55.6313337 C14.7225776,54.9540993 14.6691067,54.2529145 14.6134655,53.5359574 C15.040443,53.4946769 15.5350978,53.4512545 16.0915103,53.4090003 L16.2396897,55.4699112 C15.7426673,55.5170333 15.252748,55.5705812 14.7726942,55.6313337 L14.7726942,55.6313337 Z M14.4495013,51.4658947 C14.8739139,51.4006637 15.370739,51.3323172 15.9374117,51.2680597 L16.0775013,53.2150597 C15.5210888,53.2571191 15.0260395,53.3007363 14.5982726,53.3418221 C14.5501291,52.7257297 14.5004072,52.0985383 14.4495013,51.4658947 L14.4495013,51.4658947 Z M14.2521919,49.051568 C14.6787749,48.9618023 15.1821112,48.8652215 15.7578601,48.7705878 L15.9239946,51.079766 C15.357322,51.1432446 14.8597076,51.2104228 14.4341112,51.2748749 C14.3747211,50.537667 14.3137525,49.7940333 14.2521919,49.051568 L14.2521919,49.051568 Z M15.7846942,46.402799 L15.6765686,44.9005383 C16.1140036,44.8512743 16.5926762,44.8037627 17.1088377,44.7609244 L17.2333399,46.245271 C16.709878,46.2933667 16.2252861,46.3467198 15.7846942,46.402799 L15.7846942,46.402799 Z M15.9389901,48.5517231 L15.7985058,46.5967396 C16.2406762,46.540271 16.7227031,46.4859442 17.2495193,46.4374591 L17.4099318,48.3488254 C16.880748,48.412304 16.3896448,48.4810399 15.9389901,48.5517231 L15.9389901,48.5517231 Z M17.6259857,50.9218485 C17.0823982,50.9623502 16.5798511,51.0088881 16.1191336,51.0583469 L15.9526045,48.7394327 C16.4034565,48.6677759 16.8953489,48.5978716 17.4255193,48.5340036 L17.6259857,50.9218485 Z M19.6209812,50.8133898 C18.9815013,50.8359772 18.3810888,50.8684954 17.8217166,50.9078287 L17.6206583,48.5110267 C17.8878152,48.4800663 18.1630619,48.450469 18.4483713,48.4232083 C18.7449274,48.3947792 19.0574655,48.3681026 19.3840126,48.3441521 L19.6209812,50.8133898 Z M21.6280126,50.779898 C20.9952413,50.7791191 20.3912771,50.7888551 19.8176987,50.8067693 L19.5801381,48.3303271 C20.1446404,48.2911884 20.7505776,48.2600333 21.3949901,48.2411455 L21.6280126,50.779898 Z M25.7395462,48.118667 C24.2518332,48.0294855 22.8578422,48.0139079 21.5753309,48.0481785 L21.4088018,46.2335878 C22.7583982,46.2199574 24.2524251,46.2534492 25.8863444,46.3550927 L25.7395462,48.118667 Z M21.8294655,52.9771125 C21.2055731,52.9821752 20.6043713,52.9936637 20.029017,53.0102149 L19.8356538,50.9942842 C20.3991695,50.9771488 21.0035283,50.967997 21.6453758,50.9699442 L21.8294655,52.9771125 Z M21.8259139,50.7804822 L21.5924969,48.2358881 C22.8396897,48.204733 24.2244072,48.2197264 25.7235641,48.3106604 L25.5067211,50.9144492 C24.1946135,50.8262413 22.9645865,50.7859343 21.8259139,50.7804822 L21.8259139,50.7804822 Z M27.4713309,48.4483271 C28.0391874,48.5030432 28.6202637,48.5688584 29.2139677,48.6475251 C29.1677973,49.5206472 29.1218242,50.3953271 29.077035,51.258129 C28.4539318,51.1802413 27.8440484,51.1128683 27.2493578,51.0560102 L27.4713309,48.4483271 Z M27.053035,51.0379013 C26.5942906,50.9954525 26.1436359,50.9586505 25.7028466,50.9274954 L25.919887,48.3233172 C26.362452,48.3519409 26.813896,48.386601 27.2750081,48.4292446 L27.053035,51.0379013 Z M14.2364072,48.859964 C14.1807659,48.1895449 14.12473,47.5210729 14.0688915,46.8609739 C14.4978422,46.7830861 15.0067031,46.7005251 15.6033668,46.6212743 L15.7442457,48.5824888 C15.1684969,48.6759541 14.6645686,48.7711719 14.2364072,48.859964 L14.2364072,48.859964 Z M14.0525148,46.6664492 C14.0085148,46.1488848 13.9649094,45.637162 13.9216987,45.1334228 C14.3484789,45.0674129 14.8715462,44.9940036 15.4812323,44.922931 L15.5893578,46.428502 C14.9958511,46.5071686 14.4822547,46.5889508 14.0525148,46.6664492 L14.0525148,46.6664492 Z M13.6922278,42.4840696 C14.1130888,42.3555548 14.6468108,42.2005581 15.2734655,42.0348518 L15.4672233,44.7287957 C14.8577345,44.7996736 14.3336807,44.8728881 13.9051247,44.9390927 C13.8321202,44.0899211 13.7606942,43.2676208 13.6922278,42.4840696 L13.6922278,42.4840696 Z M12.5482278,46.9883205 C12.5636179,46.735964 12.5957794,46.1500531 12.6190619,45.3649442 C12.6869363,45.3503403 13.0720843,45.269337 13.7245865,45.1645779 C13.7677973,45.6694855 13.8116,46.1835449 13.8556,46.7024723 C13.1944161,46.8265086 12.7542188,46.9339937 12.5482278,46.9883205 L12.5482278,46.9883205 Z M12.6385955,42.6193997 C12.6228108,41.7081125 12.5813758,40.7411356 12.4983085,39.8006406 L12.5531605,39.7085383 L13.2319049,39.5204393 C13.3072771,40.3680531 13.3911336,41.3196472 13.4807121,42.3452347 C13.0626135,42.4749178 12.7727659,42.5728617 12.6385955,42.6193997 L12.6385955,42.6193997 Z M12.6417525,42.8394327 L12.6529991,42.8209343 C12.7465238,42.7880267 13.0395283,42.6867726 13.4980753,42.5438485 C13.5655552,43.3184426 13.6359946,44.1315911 13.7080126,44.9700531 C13.1328556,45.0621554 12.7615193,45.1361488 12.6247839,45.1647726 C12.642739,44.4937693 12.6528018,43.6954195 12.6417525,42.8394327 L12.6417525,42.8394327 Z M11.3892323,44.4947429 C11.2294117,43.8833238 11.0386135,43.2446439 10.8150619,42.6322512 L12.3262547,40.0899937 C12.3980753,40.994271 12.4326045,41.9170465 12.4446404,42.7839376 L11.3892323,44.4947429 Z M10.0785058,46.6189376 L9.19021883,45.3653337 L10.6726045,42.8715614 C10.8886583,43.4913535 11.0737345,44.1368485 11.2298063,44.7529409 L10.0785058,46.6189376 Z M8.9966583,48.3723865 L8.00064036,47.3666604 L9.08169865,45.5479805 L9.96840717,46.7974954 L8.9966583,48.3723865 Z M8.12356413,49.7874129 C7.80530404,49.5007858 7.45271211,49.1999442 7.0817704,48.9121488 L7.89705291,47.5407396 L8.89070314,48.544129 L8.12356413,49.7874129 Z M7.15576143,51.3560729 C6.85052377,51.0877495 6.5012861,50.8030696 6.12028161,50.5296835 L6.97916951,49.084865 C7.34813812,49.3730498 7.69994081,49.6742809 8.01681973,49.9603238 L7.15576143,51.3560729 Z M6.1765148,52.9430366 C5.81800359,52.694964 5.44765381,52.4646109 5.09249686,52.2585977 L6.02024574,50.6977264 C6.40046099,50.971502 6.74871211,51.256766 7.05177937,51.5245053 L6.1765148,52.9430366 Z M5.19490045,54.5340894 C4.89163587,54.3000366 4.54516054,54.0521587 4.16691839,53.8155746 L4.99305291,52.4258617 C5.34742063,52.6314855 5.71717848,52.8614492 6.07411121,53.1089376 L5.19490045,54.5340894 Z M4.34272108,55.9150399 C4.00334888,55.6819607 3.63852377,55.4815944 3.27744753,55.311799 L4.06727713,53.9830333 C4.44492735,54.2196175 4.79041614,54.4676901 5.09170762,54.7011587 L4.34272108,55.9150399 Z M1.08494529,56.6633469 L2.0174296,55.0245878 C2.31438027,55.1246736 2.65000359,55.2504624 2.99450583,55.4031224 L2.24532197,56.6633469 L2.47400359,56.6633469 L3.17445202,55.4850993 C3.53592287,55.6541158 3.9011426,55.8533139 4.23814709,56.0846406 L3.88101704,56.6633469 L4.11206637,56.6633469 L4.39855964,56.1989409 C4.59212018,56.3420597 4.77206637,56.4972512 4.93484664,56.6633469 L5.2022009,56.6633469 C4.99719641,56.431436 4.76081973,56.2195812 4.50333094,56.0293403 L5.24738475,54.8234426 C5.88864036,55.3351653 6.29134888,55.7477759 6.3002278,55.7569277 L6.44307982,55.6225713 C6.43400359,55.6132248 6.01590493,55.1844525 5.35057758,54.6559838 L6.23491839,53.2226538 C6.65972556,53.5273898 7.05967175,53.856271 7.38483767,54.1985878 L7.52867623,54.0653997 C7.19186906,53.7108155 6.77692735,53.3706406 6.33751928,53.0563634 L7.20055067,51.6576934 C7.85206637,52.2492512 8.26010224,52.7235878 8.26917848,52.7341026 L8.42012018,52.6090927 C8.41084664,52.5979937 7.98446099,52.1024327 7.30492735,51.4888716 L8.16480179,50.0950696 C8.92049686,50.7890498 9.44356413,51.3609409 9.45500807,51.3735977 L9.60200359,51.2435251 C9.55464933,51.191535 9.02625471,50.6136076 8.27154619,49.921964 L9.03296323,48.687832 L10.3458601,50.0136769 L10.4869363,49.8773733 L9.13891839,48.5162842 L10.0919229,46.9715746 L11.3043892,48.6798485 L11.4523713,48.5581488 L10.2020215,46.7934063 L11.2962996,45.0197066 C11.6820395,46.6039442 11.8684969,47.9229739 11.8716538,47.9496505 L12.0442996,47.7305911 C12.0310798,47.6199904 11.8458063,46.3106967 11.4571067,44.7593667 L12.4483892,43.1525416 C12.4637794,45.3337891 12.3451964,47.0753601 12.3426314,47.1117726 L12.3325686,47.2529442 L12.4696987,47.2118584 C12.4882457,47.2062116 12.9645507,47.0679607 13.8719767,46.8968023 C13.9280126,47.5588485 13.9840484,48.2290729 14.039887,48.9014393 C13.0981291,49.1031686 12.5778242,49.2620597 12.5569094,49.2684855 L12.6166942,49.4542479 C12.6269543,49.4509376 13.1340395,49.2941884 14.0558691,49.0936274 C14.1168377,49.8321983 14.177609,50.5721323 14.2366045,51.3054459 C13.2301291,51.4641422 12.681609,51.5984987 12.6610888,51.6037561 L12.7100215,51.7922446 C12.7202816,51.7897132 13.2591336,51.6559409 14.2519946,51.4968551 C14.3027031,52.125799 14.3520305,52.7487066 14.3999767,53.3610993 C13.3765327,53.4627429 12.7926942,53.5454987 12.7698063,53.5488089 L12.7984161,53.7415812 C12.821304,53.738271 13.4002099,53.6562941 14.4151695,53.5552347 C14.4712054,54.2745284 14.5248735,54.9778551 14.5751874,55.6564525 C14.0572502,55.7242149 13.5517435,55.8005449 13.0628108,55.8860267 L13.0973399,56.0776307 C13.5799587,55.9933172 14.0785596,55.9179607 14.589591,55.8507825 C14.6099139,56.1263106 14.6296448,56.3967759 14.6489812,56.6633469 L14.8480664,56.6633469 C14.8283354,56.3885977 14.8082099,56.1103436 14.7870978,55.8258584 C15.2669543,55.7651059 15.7566762,55.7113634 16.2536987,55.6640465 L16.3255193,56.6633469 L16.5220395,56.6633469 L16.4488377,55.6459376 C16.9640126,55.5990102 17.4862906,55.5587033 18.0121202,55.5244327 L18.1076179,56.6633469 L18.3043354,56.6633469 L18.2076538,55.5117759 C18.8236538,55.4736109 19.4439946,55.4436241 20.0629543,55.4204525 L20.1823265,56.6633469 L20.3792413,56.6633469 L20.2594744,55.4132479 C20.8594924,55.3922182 21.4575372,55.3778089 22.0488735,55.3688518 L22.1676538,56.6633469 L22.3655552,56.6633469 L22.2465776,55.3657363 C23.2388466,55.3524954 24.209609,55.3544426 25.1359767,55.3663205 L25.0280484,56.6633469 L25.2247659,56.6633469 L25.3326942,55.3690465 C25.7955821,55.375667 26.2460395,55.3848188 26.6822906,55.3959178 L26.5743623,56.6633469 L26.7722637,56.6633469 L26.8797973,55.4009805 C27.5865596,55.4198683 28.251887,55.4434294 28.8625596,55.4689376 C28.8422368,55.878238 28.8227031,56.2758551 28.8039587,56.6633469 L29.0020574,56.6633469 C29.0208018,56.2785812 29.0401381,55.8834954 29.0602637,55.4773106 C29.7678152,55.5078815 30.396443,55.5405944 30.9242457,55.5711653 C30.9049094,55.946195 30.8865596,56.3101257 30.8688018,56.6633469 L31.0663085,56.6633469 C31.0838691,56.3138254 31.1020215,55.9535944 31.1209632,55.5826538 C32.0958691,55.6404855 32.6783265,55.6872182 32.704174,55.6893601 L32.7205507,55.4954195 C32.6947031,55.4932776 32.1096807,55.4463502 31.131026,55.388129 C31.1600305,54.8228584 31.1904161,54.2355845 31.2217883,53.6331224 C31.7758332,53.6944591 32.3342188,53.7626109 32.8961561,53.8389409 L32.9231874,53.6461686 C32.3555283,53.5690597 31.7916179,53.5003238 31.2320484,53.438403 C31.260461,52.8947462 31.2896628,52.3392116 31.3194565,51.7756934 C31.8983623,51.868964 32.4883175,51.9719706 33.0883354,52.0856868 L33.1256269,51.8944723 C32.51673,51.7790036 31.9182906,51.6748287 31.3299139,51.580195 C31.3749004,50.7310234 31.4210709,49.8656901 31.4678332,48.9986043 C32.063313,49.1055053 32.668461,49.2248683 33.2830798,49.35903 L33.3255013,49.1689838 C32.7006224,49.0324855 32.085017,48.91137 31.4782906,48.8027165 C31.5118332,48.1809772 31.5453758,47.5590432 31.5789184,46.9421719 C32.1702547,47.026096 32.7700753,47.1160564 33.3866673,47.2180894 L33.4194206,47.026096 C32.7955283,46.9227 32.1878152,46.8313766 31.5893758,46.7464789 C31.6114744,46.3397099 31.6335731,45.935667 31.6552771,45.5353238 C32.2608197,45.6537132 32.8726762,45.7851488 33.4898601,45.930799 C33.4906493,46.0805383 33.4908466,46.2287198 33.4926224,46.3817693 L33.6899318,46.3796274 C33.6810529,45.602502 33.6865776,44.8900234 33.7035462,44.2342083 L34.5478332,45.9091851 C34.4339857,46.6705383 34.3714386,47.4437693 34.389591,48.1953865 L34.5869004,48.1907132 C34.5711157,47.5424921 34.6168915,46.8775251 34.7035103,46.218205 L35.4716359,47.7418848 C35.2674206,48.278337 35.1218063,48.7698089 35.0805686,49.1563271 L35.2768915,49.1769673 C35.3118152,48.848865 35.4276359,48.4368386 35.5929812,47.9827528 L36.3875462,49.5590069 C35.9899677,50.0565152 35.7218242,50.4290135 35.6900574,50.4736043 L35.8512592,50.5857627 C35.858757,50.5752479 36.1065776,50.2311785 36.4858063,49.7541158 L37.3997435,51.5673436 C36.9996,51.9162809 36.7245507,52.1779838 36.6886404,52.2122545 L36.8257704,52.352063 C36.834452,52.3438848 37.0980574,52.0944492 37.4922816,51.750964 L38.5289453,53.8073964 C38.1915462,54.1557495 37.9849632,54.4304987 37.9601022,54.4639904 L38.1193309,54.5788749 C38.1252502,54.5710861 38.3111157,54.3239871 38.6246404,53.9974426 L39.8526942,56.4337726 C39.744174,56.525096 39.6551874,56.6031785 39.5879049,56.6633469 L39.8872233,56.6633469 C39.9057704,56.6475746 39.9241202,56.6318023 39.9440484,56.6150564 L39.9683175,56.6633469 L40.1887121,56.6633469 L40.0993309,56.4859574 C40.3341291,56.2933799 40.6336448,56.0608848 40.9663085,55.8336472 L41.3676359,56.6633469 L41.5862547,56.6633469 L41.1314565,55.7230465 C41.4286045,55.5285218 41.745878,55.3449013 42.0617704,55.2011983 L42.7182188,56.6633469 L42.933878,56.6633469 L42.2427031,55.1235053 C42.5651067,54.993238 42.882183,54.9108716 43.1698601,54.9108716 L43.1698601,54.7161521 C42.8533758,54.7161521 42.5092682,54.8049442 42.1623982,54.9449475 L41.0349722,52.4338452 C41.3392233,52.3596571 41.6537345,52.3337594 41.9719946,52.3785449 L41.9998152,52.1857726 C41.6411067,52.1353403 41.2896987,52.1664954 40.9528915,52.2511983 L39.9231336,49.9575977 C40.3011785,49.7550894 40.6419318,49.6322215 40.8925148,49.6530564 L40.9088915,49.4591158 C40.6257525,49.4338023 40.2516538,49.5646538 39.8434206,49.7798188 L38.7548646,47.3557561 C39.0711516,47.1057363 39.3767839,46.9147165 39.6494655,46.8251455 L39.5869184,46.640162 C39.3043713,46.733238 38.9926224,46.9236736 38.6723892,47.1717462 L37.3754744,44.2832776 C37.79673,43.5265977 38.1151874,43.0006604 38.1242637,42.985667 L37.9551695,42.8855812 C37.9208377,42.9420498 37.6438152,43.3994459 37.2740574,44.0572083 L36.009896,41.2417594 C36.4092502,40.1774228 36.7389543,39.4904525 36.7474386,39.472733 L36.5696628,39.3886142 C36.5613758,39.4055548 36.2663982,40.0208683 35.8958511,40.9878452 L34.5746673,38.0448551 C35.0168377,36.9121719 35.4597973,36.8319475 35.4676897,36.8307792 L35.4532861,36.6364492 C35.399026,36.6405383 34.9296269,36.7086901 34.4620036,37.7940564 L34.4618063,37.7938617 L32.1240843,37.0404921 C32.1816987,36.0082842 32.2168197,35.3851818 32.2189901,35.3468221 L32.0220753,35.3363073 C32.0199049,35.3738881 31.9859677,35.9779079 31.9299318,36.9779871 L30.0785776,36.3813667 C30.1204072,35.6293601 30.1452682,35.1853997 30.1472413,35.1521026 L29.9503265,35.1415878 C29.9436179,35.2603667 29.9203354,35.6749244 29.8844251,36.318667 L29.5860933,36.2224756 L29.52473,36.4078485 L29.8733758,36.5200069 C29.8319408,37.2646142 29.7761022,38.2697561 29.7109901,39.4546241 C29.2650709,39.3335086 28.8185596,39.2248551 28.3909901,39.1405416 L28.3521202,39.3313667 C28.7885686,39.4176274 29.244748,39.5288122 29.6999408,39.653238 C29.6557435,40.4587924 29.6074027,41.3414558 29.5562996,42.2788353 C29.0792054,42.1557726 28.5677794,42.0424459 28.0245865,41.9462545 L28.4699139,36.7127792 L28.2733937,36.6964228 L27.8294475,41.9129574 C27.4985596,41.8576571 27.1572143,41.8083931 26.8044251,41.7678914 L26.7817345,41.9614426 C27.1366942,42.0021389 27.4804072,42.0515977 27.8128735,42.1072875 L27.5909004,44.7161389 C27.1315641,44.664733 26.6783444,44.620337 26.2318332,44.5819772 L26.5954744,40.217535 L26.398757,40.201568 L26.035313,44.5648419 C24.3220753,44.4242545 22.7108466,44.3751851 21.239313,44.3841422 L20.8735013,40.3955086 L20.6769812,40.4130333 L21.0414117,44.3858947 C20.4015372,44.3921257 19.7884969,44.4088716 19.2064341,44.4339904 L18.8986314,41.2250135 C19.1626314,41.1767231 19.4315641,41.129601 19.7062188,41.0844261 L20.3774655,40.9740201 L20.3451067,40.7820267 L19.6738601,40.8924327 C19.4041381,40.9368287 19.1395462,40.9829772 18.879887,41.0302941 L18.6042457,38.1558452 L18.4079229,38.1741488 L18.6855372,41.0665119 C18.1015013,41.1755548 17.5460753,41.2908287 17.0249812,41.407271 L16.7842637,38.5365218 L18.1382009,38.1614921 L18.08473,37.9739772 L16.7676897,38.3388815 L16.5737345,36.0263931 L17.2520843,35.8242743 L17.1950619,35.6379277 L16.5571605,35.8279739 L16.4340395,34.3599838 L16.2375193,34.3759508 L16.3639946,35.8854162 L15.0568197,36.2748551 L14.9542188,34.8479508 L14.7575013,34.8615812 L14.8632592,36.3324921 L13.1894834,36.8311686 C13.1296987,36.1706802 13.0906314,35.7442446 13.0797794,35.6248815 L12.8832592,35.6424063 C12.8862188,35.6755086 12.9274565,36.1268683 12.9963175,36.8888056 L12.1086224,37.1532347 C12.0060215,36.703238 11.8860574,36.2861488 11.7439946,35.9200762 L11.5597076,35.9895911 C11.7009812,36.3537165 11.8209453,36.7678848 11.9225596,37.2169079 L9.92223677,40.7329574 C9.70046099,40.3807099 9.46033543,40.0763634 9.199887,39.8450366 L9.067887,39.9899079 C9.33484664,40.2268815 9.58069417,40.5526472 9.8076,40.9341026 L8.13441614,43.8751455 L7.63620987,43.1718188 L7.47461345,43.2835878 L8.02767175,44.0628551 L6.823887,46.1784822 L6.24478386,45.5935449 L6.10370762,45.7298485 L6.72325919,46.3554822 L5.77459552,48.022865 C5.48889148,47.8594954 5.20397668,47.7194921 4.92695426,47.6153172 L4.8565148,47.7971851 C5.12347444,47.8974657 5.39951031,48.0337693 5.67751928,48.1934393 L4.80501704,49.7270498 C4.52207534,49.5862677 4.23143857,49.4633997 3.93646099,49.3662347 L3.8739139,49.5512182 C4.15705291,49.6442941 4.43624574,49.7620993 4.70833543,49.8968452 L3.76716951,51.5511818 C3.34394081,51.3432215 3.06553722,51.2230795 3.05646099,51.2191851 L2.97812915,51.3979376 C2.98700807,51.4016373 3.2579139,51.5186637 3.67048789,51.7209772 L2.86881973,53.1303568 C2.63619193,53.0312446 2.3988287,52.9428419 2.15811121,52.870601 L2.10069417,53.0569475 C2.32779731,53.1250993 2.5517435,53.2078551 2.7717435,53.300931 L1.92706188,54.7854723 C1.39353722,54.6152875 1.01075695,54.5329211 0.965967713,54.5235746 L0.925124664,54.7140102 C0.935779372,54.7163469 1.30198565,54.7952083 1.82643408,54.9622776 L0.888425112,56.611162 C0.636460987,56.5204228 0.367528251,56.4400036 0.0800484305,56.373799 L0.0352591928,56.5634558 C0.167061883,56.593832 0.294523767,56.6273238 0.418434081,56.6633469 L1.08494529,56.6633469 Z" id="Fill-27" fill="#CDDDC0"></path>
                        <path d="M26.5712646,56.6633663 L24.6226368,42.7409241 L22.9455067,42.8382838 L20.1896861,56.6633663 L26.5712646,56.6633663 Z" id="Fill-29" fill="#1BB24B"></path>
                        <path d="M18.6376305,32.0638129 C18.7692359,33.6215686 23.63607,40.1121528 23.63607,40.1121528 C23.63607,40.1121528 28.5688054,34.0758492 28.371496,31.8690934 L30.3445901,34.4004465 C30.3445901,35.8933607 25.9380789,43.5522617 25.9380789,43.5522617 L23.5703659,40.5666281 L21.1369489,43.6821396 C21.1369489,43.6821396 16.6645363,36.2177634 16.6645363,34.1408855 L18.6376305,32.0638129 Z" id="Fill-31" fill="#EFEFF0"></path>
                    </g>
                    <g id="Group-71">
                        <path d="M21.1713991,46.1139132 L21.0920807,46.0136327 C18.6428789,42.9199297 16.6557758,36.601867 16.6360448,36.5385832 L16.8246726,36.4811409 C16.844009,36.5438406 18.7782332,42.6926921 21.1686368,45.7930155 L23.5361525,42.6776987 L25.8947892,45.684362 C26.3710942,44.8984743 29.0189865,40.4676327 30.3508251,36.9624875 L30.535704,37.0310287 C29.0694978,40.8892003 26.0200807,45.8572729 25.9894978,45.9071211 L25.9151121,46.0280419 L23.5387175,42.9989858 L21.1713991,46.1139132 Z" id="Fill-34" fill="#CDDDC0"></path>
                        <path d="M16.5329901,8.47029703 C16.5329901,8.47029703 17.6181919,11.6831683 22.6495821,12.0726073 C27.6809722,12.4620462 31.6271605,11.4884488 33.6002547,12.4620462 C35.5733489,13.4356436 34.8827659,22.879538 34.8827659,22.879538 C34.8827659,22.879538 36.8558601,15.5775578 36.559896,12.2673267 C36.4255283,10.7646766 36.3535103,6.19110561 33.5016,3.60231023 C30.0705865,0.487772277 24.3267121,0.097359736 22.4522726,0.389438944 C17.6416717,1.13910891 16.4343354,2.62871287 16.4343354,2.62871287 C16.4343354,2.62871287 14.4446673,2.75158086 13.869313,3.21287129 C10.7123623,5.74422442 8.54195874,11.9752475 12.3894924,23.7557756 C12.3894924,23.7557756 10.2190888,12.6567657 16.5329901,8.47029703" id="Fill-36" fill="#FCB963"></path>
                        <path d="M33.6989094,11.8778878 C32.091035,10.9521914 26.1024969,11.4884488 23.0442009,11.2937294 C19.9859049,11.0990099 17.2235731,9.83333333 17.4208825,6.03630363 C17.4208825,6.03630363 18.4074296,7.98349835 20.4791785,7.98349835 C20.4791785,7.98349835 19.1966673,7.10726073 17.8155013,3.7970297 C17.8155013,3.7970297 21.0711067,1.16831683 28.6675193,3.69966997 C28.6675193,3.69966997 23.6361291,4.4408921e-16 16.3356807,2.92079208 C16.3356807,2.92079208 15.4477883,6.03630363 13.869313,7.69141914 C12.3742996,9.25910561 10.5150529,12.4620462 12.035322,18.9004455 C12.1128646,15.3756337 12.9780664,10.8273762 16.5329901,8.47029703 C16.5329901,8.47029703 17.6181919,11.6831683 22.6495821,12.0726073 C27.6809722,12.4620462 31.6271605,11.4884488 33.6002547,12.4620462 C34.1878422,12.7519835 34.5392502,13.7933432 34.7428735,15.1125677 C34.7675372,15.0995215 34.7841112,15.0907591 34.7841112,15.0907591 C34.7841112,15.0907591 34.8827659,12.5594059 33.6989094,11.8778878" id="Fill-38" fill="#F99D1C"></path>
                        <path d="M18.0128108,7.78877888 C18.0128108,7.78877888 18.0329363,7.82674917 18.0761471,7.89178548 C18.1189632,7.95643234 18.1852592,8.05067657 18.2811516,8.15894059 C18.3711247,8.27168317 18.5019408,8.39026733 18.6440036,8.52773927 C18.8002726,8.65391749 18.9717345,8.79567327 19.1791067,8.92613531 C19.2296179,8.95982178 19.2811157,8.99428713 19.3336,9.02933663 C19.3898332,9.05932343 19.4470529,9.08969967 19.5052592,9.12085479 C19.6234475,9.17966007 19.7341381,9.25657426 19.8633758,9.31148515 C20.1210619,9.42305941 20.3862457,9.54651155 20.6794475,9.6380297 C20.8252592,9.68437294 20.9665327,9.74746205 21.1214206,9.78231683 C21.2751247,9.81970297 21.4300126,9.85845215 21.5849004,9.90167987 L21.8189094,9.96437954 L22.0602188,10.007802 C22.2212233,10.0370099 22.383017,10.0662178 22.5448108,10.0954257 C22.7048287,10.1322277 22.8699767,10.146637 23.0333489,10.1661089 C23.1967211,10.1863597 23.3595013,10.2066106 23.5209004,10.2264719 C23.6016,10.2367921 23.6821022,10.2471122 23.7622099,10.2574323 C23.8429094,10.2630792 23.9232143,10.2687261 24.0031247,10.2745677 C24.1631426,10.2856667 24.3211874,10.2967657 24.47647,10.30767 C24.6321471,10.3197426 24.7852592,10.3271419 24.9352143,10.34233 C25.0855641,10.3497294 25.2329543,10.350703 25.3765955,10.3551815 C25.6636807,10.3602442 25.9359677,10.3725116 26.1879318,10.3845842 C26.439896,10.3956832 26.6709453,10.3851683 26.8765417,10.3904257 C27.0819408,10.3900363 27.261887,10.3956832 27.4102637,10.3989934 C27.707017,10.4063927 27.8782816,10.4174917 27.8782816,10.4174917 C27.8782816,10.4174917 27.7133309,10.4570198 27.4215103,10.5146568 C27.2756987,10.5428911 27.0983175,10.5789142 26.8939049,10.6131848 C26.6892951,10.6458977 26.4592323,10.6984719 26.2050978,10.7195017 C25.9509632,10.7446205 25.6749274,10.7711023 25.3821202,10.7913531 C25.2359139,10.8014785 25.0855641,10.8156931 24.9312682,10.8236766 C24.7769722,10.8267921 24.619322,10.8221188 24.4587121,10.8217294 C24.2979049,10.8203663 24.1345327,10.8188086 23.9691874,10.8172508 C23.8863175,10.8164719 23.8030529,10.8154983 23.7191964,10.8147195 C23.6357345,10.806736 23.5516807,10.7987525 23.4674296,10.790769 C23.29873,10.7740231 23.1286493,10.7572772 22.9579767,10.7403366 C22.7875013,10.7216436 22.6156448,10.7087921 22.4461561,10.6710165 C22.27647,10.6369406 22.1069812,10.60267 21.9380843,10.5685941 L21.6853309,10.5173828 L21.4379049,10.4463102 C21.2733489,10.3995776 21.1113578,10.3491452 20.9519318,10.2983234 C20.7915193,10.2512013 20.6413668,10.1746766 20.4896359,10.1156766 C20.1826224,10.0039076 19.9099408,9.837033 19.6494924,9.69118812 C19.5194655,9.61777888 19.4032502,9.52587129 19.2882188,9.44545215 C19.2313937,9.4039769 19.1757525,9.36308581 19.1209004,9.32316832 C19.0701919,9.27760396 19.0202726,9.23320792 18.9713399,9.18959076 C18.8764341,9.09924092 18.7763982,9.02485809 18.6996448,8.9329505 C18.6219049,8.84357426 18.5481112,8.75867657 18.4788556,8.6790363 C18.3527749,8.5090462 18.2505686,8.35794389 18.1834834,8.22280858 C18.1454027,8.15855116 18.1185686,8.09721452 18.0976538,8.04288779 C18.0753578,7.98933993 18.0560215,7.94455446 18.0451695,7.90561056 C18.0199139,7.82986469 18.0128108,7.78877888 18.0128108,7.78877888" id="Fill-40" fill="#FFD04F"></path>
                        <path d="M26.398461,8.17821782 C25.7181381,8.1569934 25.0382099,8.07930033 24.3659767,7.95565347 C23.692757,7.83434323 23.0266404,7.66123762 22.3767031,7.4269901 C21.7285417,7.19040594 21.0963623,6.88313861 20.52673,6.45942904 C19.9632143,6.03649835 19.4677704,5.46090759 19.2272502,4.75777558 L19.0169184,4.1430462 L19.6173309,4.42714191 C20.0816,4.64678548 20.5411336,4.87538614 21.0032323,5.09911881 C21.4643444,5.32518812 21.9278242,5.54619472 22.3865686,5.77635314 L22.055878,6.25049505 L20.8779408,5.17330693 C20.4835193,4.81619142 20.0971874,4.45031353 19.7076987,4.08774587 L19.4695462,3.8659604 L19.721313,3.68954455 C19.8211516,3.61964026 19.883304,3.5929637 19.9622278,3.5549934 C20.0366135,3.52344884 20.1113937,3.49034653 20.1857794,3.46736964 C20.334748,3.41343234 20.4841112,3.37721452 20.6332771,3.34313861 C20.7826404,3.31178878 20.9325955,3.28550165 21.0821561,3.27050825 C21.2317166,3.24889439 21.3808825,3.24032673 21.5298511,3.23175908 C21.679017,3.21929703 21.8273937,3.22027063 21.9755731,3.21949175 C22.1239498,3.21618152 22.2717345,3.21910231 22.4189274,3.22844884 C22.5661202,3.23682178 22.7139049,3.23837954 22.8599139,3.25609901 L23.2977435,3.30224752 C23.4439498,3.31509901 23.587591,3.34372277 23.7324161,3.36358416 C23.8766493,3.3869505 24.0218691,3.40447525 24.1651157,3.43251485 L24.5934744,3.52091749 C24.7359318,3.55129373 24.8791785,3.57641254 25.0198601,3.6139934 L25.4426942,3.72089439 C25.5829812,3.75866997 25.7246493,3.78963036 25.8631605,3.83363696 L26.6944251,4.08910891 L25.8381022,3.94345875 C25.6964341,3.91541914 25.5522009,3.90042574 25.4095462,3.87861716 L24.9815821,3.81591749 C24.8395193,3.79177228 24.6956807,3.78008911 24.5528287,3.76314851 L24.1242726,3.71544224 C23.9816179,3.70064356 23.8383713,3.69207591 23.6955193,3.6800033 C23.5526673,3.67085149 23.4102099,3.65293729 23.2673578,3.6509901 L22.8393937,3.6369703 C22.6969363,3.63034983 22.5548735,3.63930693 22.4130081,3.63755446 C22.2709453,3.63580198 22.1294744,3.64047525 21.9887928,3.65118482 C21.8477166,3.65936304 21.7066404,3.66539934 21.5681291,3.68467657 C21.4286314,3.69986469 21.2895283,3.71505281 21.1537794,3.74231353 C21.0158601,3.76275908 20.8826762,3.79586139 20.7496897,3.82682178 C20.6186762,3.86109241 20.4870709,3.89750495 20.3659229,3.94618482 C20.3027839,3.96760396 20.2465507,3.99564356 20.188739,4.02173597 C20.1378332,4.04646535 20.0711426,4.0859934 20.0531874,4.09923432 L20.0668018,3.701033 C20.4665507,4.05250165 20.8696538,4.40046535 21.2642726,4.75738614 L22.4538511,5.82211221 L24.0039139,7.20929373 L22.1231605,6.29625413 C21.6614565,6.07193729 21.2040933,5.83866337 20.7443623,5.61045215 C20.2856179,5.37970957 19.8245058,5.1540297 19.3679318,4.91939274 L19.7580126,4.58875908 C19.8485776,4.87713861 19.9902457,5.15149835 20.1759139,5.40073927 C20.3613848,5.65017492 20.5861202,5.87566007 20.8343354,6.07914191 C21.3287928,6.49077888 21.9144072,6.80739274 22.5215283,7.07513201 C23.1302278,7.34345545 23.7689184,7.55472607 24.4174744,7.7369835 C25.067609,7.9139835 25.7278063,8.06742244 26.398461,8.17821782" id="Fill-42" fill="#FFD04F"></path>
                        <g id="Group-46">
                            <mask id="mask-4" fill="white">
                                <use xlink:href="#path-3"></use>
                            </mask>
                            <g id="Clip-45"></g>
                            <path d="M10.4163982,10.4174917 C10.5140664,9.52859736 10.6949991,8.64651815 10.946174,7.78254785 C11.0714655,7.35027063 11.2151067,6.92208251 11.3845955,6.50226733 C11.4662816,6.29138614 11.5598063,6.08459406 11.6535283,5.87780198 C11.7504072,5.67217822 11.8516269,5.46830693 11.9621202,5.26813531 C12.0138152,5.16629703 12.0751785,5.06932673 12.1337794,4.9709934 C12.1919857,4.87227063 12.252165,4.77471617 12.3182637,4.68027723 C12.4423713,4.48672607 12.5840395,4.30368977 12.7247211,4.11967987 C12.8754655,3.94287459 13.0262099,3.76529043 13.1962906,3.60289439 C13.2762009,3.51721782 13.3667659,3.44147195 13.4565417,3.36455776 C13.5451336,3.28647525 13.6347121,3.20936634 13.7343534,3.14335644 C13.9235731,2.99945875 14.1325238,2.88048515 14.3440395,2.7669637 L14.6739408,2.61819802 C14.7869991,2.57613861 14.9034117,2.54108911 15.0182457,2.50272937 C15.1320933,2.45989109 15.2542278,2.44742904 15.3722188,2.41880528 C15.431609,2.40731683 15.4908018,2.39212871 15.5507839,2.3839505 L15.7319139,2.36662046 C15.9736179,2.33273927 16.2151247,2.34792739 16.4572233,2.35084818 L16.2672143,2.40381188 C16.5862637,2.18066337 16.8986045,2.00054785 17.2257435,1.82335314 C17.5516987,1.64985809 17.8827839,1.48687789 18.2209722,1.33986469 C18.5585686,1.19168317 18.9014924,1.05615842 19.2495462,0.933679868 C19.5981919,0.813927393 19.9509812,0.704884488 20.3081112,0.6120033 C20.6642547,0.516590759 21.024739,0.435587459 21.387591,0.36860396 C21.7500484,0.29869967 22.1160574,0.247683168 22.482461,0.204455446 L23.0341381,0.156554455 L23.5873937,0.132214521 C23.956165,0.127930693 24.3253309,0.122283828 24.6935103,0.146623762 C25.0620843,0.157528053 25.4284879,0.201729373 25.7942996,0.242036304 C26.1579408,0.300257426 26.5227659,0.349326733 26.8808825,0.432666667 C27.2421561,0.500623762 27.5955372,0.601488449 27.9495103,0.696316832 C28.1257076,0.746749175 28.2981561,0.809059406 28.4723803,0.864943894 C28.6462099,0.9219967 28.8206314,0.97710231 28.9897256,1.0470066 L29.500165,1.24581518 C29.670443,1.31163036 29.8334206,1.39458086 29.9997525,1.46876898 C30.3339946,1.6140297 30.6544251,1.78713531 30.9756448,1.95654125 C31.1382278,2.03734983 31.2937076,2.13120462 31.4485955,2.226033 L31.9138511,2.50662376 C32.2194834,2.70075908 32.5124879,2.91378218 32.811017,3.11551155 C32.4929543,2.94279538 32.1792323,2.7650165 31.8599857,2.59794719 C31.5344251,2.44256106 31.2195193,2.26848185 30.8872502,2.12964686 C30.5583354,1.98419142 30.2317883,1.83581518 29.8932054,1.71567327 C29.7247031,1.65394719 29.5595552,1.58443234 29.3894744,1.5279637 L28.8792323,1.36050495 C28.7105327,1.30092079 28.5369004,1.25652475 28.3642547,1.20979208 C28.1914117,1.16461716 28.0203444,1.11282178 27.8461202,1.07309901 C27.4966852,0.99930033 27.1509991,0.91070297 26.7976179,0.859686469 C26.4473937,0.792118812 26.0922368,0.758821782 25.7390529,0.715983498 C25.3836987,0.69320132 25.0297256,0.656788779 24.6739767,0.655036304 C24.3188197,0.639653465 23.9630709,0.653867987 23.6085058,0.665940594 L23.0771516,0.701768977 L22.5479677,0.759990099 C22.196165,0.804386139 21.844757,0.855792079 21.4970978,0.925891089 C21.1488466,0.993069307 20.8031605,1.07348845 20.4614206,1.16792739 C20.1188915,1.25925083 19.7812951,1.36790429 19.4466583,1.48415182 C19.1116269,1.5990363 18.7809363,1.72677228 18.4557704,1.86638614 C18.1300126,2.0050264 17.8115552,2.1590495 17.4988197,2.32222442 C17.1896359,2.48520462 16.8757166,2.66687789 16.6014565,2.85361386 L16.5191785,2.90949835 L16.4112502,2.90657756 C16.2015103,2.90093069 15.9901919,2.88067987 15.7820305,2.90618812 L15.6251695,2.91709241 C15.5730798,2.92273927 15.522174,2.93539604 15.4706762,2.9439637 C15.3688646,2.96694059 15.2627121,2.97317162 15.1640574,3.009 C15.0642188,3.04034983 14.9628018,3.06741584 14.8637525,3.10149175 L14.5737076,3.22416502 C14.386461,3.32016172 14.1994117,3.41946865 14.0271605,3.54467327 C13.9373848,3.60133663 13.8529363,3.66656766 13.770461,3.73471947 C13.6866045,3.80092409 13.6017614,3.8659604 13.5254027,3.94209571 C13.3640036,4.08424092 13.2179946,4.24371617 13.0708018,4.40260726 C12.9326852,4.57006601 12.7925955,4.73635644 12.6675013,4.91569307 C12.5368825,5.09055116 12.4206673,5.27670297 12.3030709,5.46168647 C12.1866583,5.64783828 12.0781381,5.83924752 11.9733668,6.03338284 C11.8717525,6.22888119 11.7697435,6.42476898 11.6787839,6.62630363 C11.5832861,6.82569637 11.4986404,7.03034653 11.411035,7.2340231 C11.3256,7.43847855 11.2449004,7.64527063 11.1675552,7.85362046 C11.0156269,8.27090429 10.8763265,8.69364026 10.7496538,9.1210495 C10.6265327,9.5490429 10.5083444,9.9799571 10.4163982,10.4174917" id="Fill-44" fill="#F99D1C" mask="url(#mask-4)"></path>
                        </g>
                        <path d="M12.8827659,7.88613861 C13.1586045,7.5730297 13.4087928,7.24336964 13.6510888,6.91039934 C13.7728287,6.74430363 13.8852951,6.5719769 14.0007211,6.4029604 C14.1129901,6.23141254 14.2242726,6.05986469 14.3276628,5.88364356 C14.3819229,5.79718812 14.4310529,5.70761716 14.4817614,5.61940924 C14.5320753,5.53081188 14.5851516,5.44377228 14.6329004,5.35420132 C14.7272143,5.17389109 14.8254744,4.99630693 14.9095283,4.81171287 C14.9515552,4.71961056 14.9991067,4.6300396 15.0401471,4.53774257 L15.1630709,4.26065677 C15.2463354,4.07664686 15.3118422,3.88582178 15.3872143,3.69928053 L15.6904789,4.06593729 C15.6342457,4.07976238 15.5468377,4.1060495 15.4730439,4.13428383 C15.3956987,4.15745545 15.3191426,4.1950363 15.2421919,4.2250231 C15.0906583,4.29531683 14.9385327,4.36814191 14.7962726,4.46063366 C14.6484879,4.543 14.5147121,4.64892739 14.3773848,4.74862376 C14.2424251,4.85163036 14.1189094,4.97040924 13.9867121,5.07808911 L13.627017,5.44513531 L13.3022457,5.84664686 C13.1970798,5.9829505 13.1061202,6.13093729 13.0056897,6.27210891 C12.9019049,6.41133333 12.8210081,6.56574587 12.7363623,6.7180165 C12.6554655,6.87223432 12.5572054,7.01768977 12.4899229,7.17989109 L12.2673578,7.65675908 C12.1862637,7.81350825 12.1373309,7.98349835 12.0734027,8.14784158 L11.8824072,8.64359736 L11.7289004,9.15356766 C11.6774027,9.32394719 11.6178152,9.49315842 11.5726314,9.66567987 C11.4891695,10.01267 11.400183,10.3602442 11.3042906,10.709571 C11.3212592,10.350703 11.3455283,9.99008251 11.3751247,9.62848845 C11.3952502,9.44876238 11.430174,9.27117822 11.4572054,9.09145215 L11.5509274,8.5540264 L11.6886493,8.02438944 C11.740739,7.84914191 11.7778332,7.6690264 11.8482726,7.4990363 L12.0402547,6.98127723 C12.0692592,6.89365347 12.1081291,6.80972937 12.1511426,6.72755776 L12.2742637,6.47851155 C12.3563444,6.31222112 12.4350709,6.1439835 12.5388556,5.98820792 C12.6396807,5.83106931 12.7276807,5.66536304 12.8419229,5.51620792 L13.1899767,5.07185809 C13.3200036,4.93419142 13.4482547,4.79477228 13.5810439,4.65944224 C13.7254744,4.5350165 13.8622099,4.40163366 14.0174924,4.28947525 C14.1743534,4.17887459 14.3270709,4.06321122 14.4973489,3.97071947 C14.6609184,3.86907591 14.8375103,3.78670957 15.015878,3.7080429 C15.2017435,3.63249175 15.3720215,3.56920792 15.5997166,3.52812211 L16.1141022,3.43524092 L15.9029812,3.8949736 C15.8141919,4.08794059 15.7350709,4.28480198 15.6383892,4.47367987 C15.5428915,4.66275248 15.4513399,4.85377228 15.340452,5.03447195 C15.2374565,5.21926073 15.1206493,5.39587129 15.0077883,5.57423432 C14.9507659,5.6630264 14.8888108,5.74850825 14.8296179,5.83574257 C14.771017,5.92356106 14.7074834,6.00787459 14.6425686,6.0910198 C14.5162906,6.25984158 14.3827121,6.42282178 14.2485417,6.58482838 C14.1118063,6.74488779 13.9691516,6.89968977 13.8233399,7.0509868 C13.5323085,7.35358086 13.220165,7.63748185 12.8827659,7.88613861" id="Fill-47" fill="#FFD04F"></path>
                        <path d="M24.7554852,22.0033003 C24.7554852,22.2369637 24.5635031,22.4264257 24.3267318,22.4264257 C24.0899605,22.4264257 23.8979785,22.2369637 23.8979785,22.0033003 C23.8979785,21.769637 24.0899605,21.5801749 24.3267318,21.5801749 C24.5635031,21.5801749 24.7554852,21.769637 24.7554852,22.0033003" id="Fill-49" fill="#E8C6AC"></path>
                        <path d="M22.2180861,22.9403878 C22.2180861,23.1824241 22.0191982,23.3787013 21.7739426,23.3787013 C21.528687,23.3787013 21.3299964,23.1824241 21.3299964,22.9403878 C21.3299964,22.6983515 21.528687,22.5020743 21.7739426,22.5020743 C22.0191982,22.5020743 22.2180861,22.6983515 22.2180861,22.9403878" id="Fill-51" fill="#E8C6AC"></path>
                        <path d="M23.9322117,18.6200495 C23.9322117,18.8620858 23.7333238,19.058363 23.4880682,19.058363 C23.2428126,19.058363 23.044122,18.8620858 23.044122,18.6200495 C23.044122,18.3780132 23.2428126,18.181736 23.4880682,18.181736 C23.7333238,18.181736 23.9322117,18.3780132 23.9322117,18.6200495" id="Fill-53" fill="#E8C6AC"></path>
                        <path d="M25.4983552,19.8735561 C25.4983552,20.1155924 25.2994673,20.3118696 25.0542117,20.3118696 C24.8089561,20.3118696 24.6102655,20.1155924 24.6102655,19.8735561 C24.6102655,19.6315198 24.8089561,19.4352426 25.0542117,19.4352426 C25.2994673,19.4352426 25.4983552,19.6315198 25.4983552,19.8735561" id="Fill-55" fill="#E8C6AC"></path>
                        <path d="M22.3945794,19.8127063 C22.3945794,19.9694554 22.2657363,20.0966073 22.1069022,20.0966073 C21.9480682,20.0966073 21.8194224,19.9694554 21.8194224,19.8127063 C21.8194224,19.6559571 21.9480682,19.5288053 22.1069022,19.5288053 C22.2657363,19.5288053 22.3945794,19.6559571 22.3945794,19.8127063" id="Fill-57" fill="#E8C6AC"></path>
                        <path d="M26.4270906,23.7922855 C26.4270906,23.9490347 26.2982475,24.0761865 26.1394135,24.0761865 C25.9805794,24.0761865 25.8519336,23.9490347 25.8519336,23.7922855 C25.8519336,23.6355363 25.9805794,23.5083845 26.1394135,23.5083845 C26.2982475,23.5083845 26.4270906,23.6355363 26.4270906,23.7922855" id="Fill-59" fill="#E8C6AC"></path>
                        <path d="M24.5118081,24.2060644 C24.5118081,24.4481007 24.3129202,24.6443779 24.0676646,24.6443779 C23.822409,24.6443779 23.6237184,24.4481007 23.6237184,24.2060644 C23.6237184,23.9640281 23.822409,23.7677508 24.0676646,23.7677508 C24.3129202,23.7677508 24.5118081,23.9640281 24.5118081,24.2060644" id="Fill-61" fill="#E8C6AC"></path>
                        <path d="M20.0885256,23.2568069 C20.0885256,23.4135561 19.9596825,23.5407079 19.8008484,23.5407079 C19.6420143,23.5407079 19.5133686,23.4135561 19.5133686,23.2568069 C19.5133686,23.1000578 19.6420143,22.9729059 19.8008484,22.9729059 C19.9596825,22.9729059 20.0885256,23.1000578 20.0885256,23.2568069" id="Fill-63" fill="#E8C6AC"></path>
                        <path d="M27.5083265,23.0742574 C27.5083265,23.2310066 27.3794834,23.3581584 27.2206493,23.3581584 C27.0618152,23.3581584 26.9331695,23.2310066 26.9331695,23.0742574 C26.9331695,22.9175083 27.0618152,22.7903564 27.2206493,22.7903564 C27.3794834,22.7903564 27.5083265,22.9175083 27.5083265,23.0742574" id="Fill-65" fill="#E8C6AC"></path>
                        <path id="Fill-67" fill="#E8C6AC" d="M22.4746673,21.2731023 C22.4746673,21.3794191 22.3872592,21.4654851 22.2797256,21.4654851 C22.1719946,21.4654851 22.0845865,21.3794191 22.0845865,21.2731023 C22.0845865,21.1667855 22.1719946,21.0807195 22.2797256,21.0807195 C22.3872592,21.0807195 22.4746673,21.1667855 22.4746673,21.2731023"></path>
                        <path id="Fill-69" fill="#E8C6AC" d="M23.4612143,20.299505 C23.4612143,20.4058218 23.3738063,20.4918878 23.2662726,20.4918878 C23.1585417,20.4918878 23.0711336,20.4058218 23.0711336,20.299505 C23.0711336,20.1931881 23.1585417,20.1071221 23.2662726,20.1071221 C23.3738063,20.1071221 23.4612143,20.1931881 23.4612143,20.299505"></path>
                    </g>
                </g>
            </g>
        </g>
    </g>
</svg>