<?xml version="1.0" encoding="utf-8"?><svg xmlns="http://www.w3.org/2000/svg" xmlns:xlink="http://www.w3.org/1999/xlink"><defs><svg version="1.1" id="commitment" x="0" y="0" viewBox="0 0 512 512" xml:space="preserve" xmlns="http://www.w3.org/2000/svg"><style>.ast0{fill:#fff}</style><path class="ast0" d="M414.3 267.2c6 0 17 1.4 22.7 11 8.1 13.5 4 38.6-11.2 67.2-3.6 6.7-5.1 12.8-5.4 18-5-8.7-11-15.3-17.4-21.7-9.5-9.4-15.7-15.6-15.7-45.9-.1-24.9 16.9-28.6 27-28.6m15.9 122.2c11 11.2 29.1 15.4 48 19.7l1 .2c6.5 1.5 8.2 3 8.2 3 .8 1.3 1.2 6.1 1.2 14.1v6c-17.9 9.9-36.5 18.7-55.7 26.3 1.2-27.2 1.4-32.3 1.3-34-.4-14.2-1.8-25.7-4-35.3M414.3 247c-26.6 0-47.2 17.2-47.2 48.8 0 79 44.2 40.3 47 129.5.1 2.3-1.5 37.6-2.7 62.5 34.4-11.1 67-25.9 97.4-43.7v-17.7c0-19.9-1.6-31.4-25-36.8-27.1-6.3-52.3-11.7-40.1-34.8 37.2-70.2 9.9-107.8-29.4-107.8zm-157.6-42.8c9.4 0 26.7 2.3 36.1 17.9 12.2 20.3 6.9 55.4-14.7 96.2-9.4 17.8-6.9 31.2-3.2 39.4 10.2 22.4 38.6 28.9 68.6 35.9l1.4.3c16.6 3.8 17.7 5.5 17.7 28.7l-3.6 58.6c-33.5 7.2-67.8 10.9-102.2 10.9-34.4 0-68.8-3.6-102.2-10.9l-3.6-58.7c0-23.2 1.1-24.8 17.7-28.7l2.2-.5c29.7-6.9 57.8-13.3 68-35.8 3.7-8.2 6.1-21.7-3.5-39.4-21.8-40.2-27.2-75-14.9-95.7 9.3-15.9 26.7-18.2 36.2-18.2m0-20.2c-53.4 0-88.9 52-39.2 143.7 16.8 31-18.1 38.3-53.5 46.4-31.3 7.2-33.4 22.5-33.4 49l4.6 74.4c38.8 9.6 79.5 14.8 121.4 14.8 42 0 82.7-5.2 121.4-14.8 1.3-20.6 4.6-74.3 4.6-74.3 0-26.5-2.1-41.8-33.4-49-36.1-8.3-69.7-15.7-53.5-46.4 49.8-93.7 13.4-143.8-39-143.8zM99.2 267.2c10.1 0 27 3.7 27 28.7 0 30.2-6.3 36.5-15.7 45.9-6.4 6.4-12.4 13-17.4 21.7-.3-5.3-1.9-11.3-5.4-18-15.1-28.6-19.3-53.7-11.2-67.2 5.7-9.6 16.7-11.1 22.7-11.1M83.3 389.4c-2.1 9.3-3.5 20.4-4 34-.1 1.9.1 7.4 1.3 35.3-19.2-7.6-37.9-16.4-55.7-26.3v-6c0-8 .4-12.7 1.2-14 0 0 1.6-1.6 8.3-3.1l1.1-.3c18.8-4.3 36.8-8.5 47.8-19.6M99.2 247c-39.3 0-66.6 37.6-29.4 107.8 12.2 23.1-13 28.6-40.1 34.8C6.2 395 4.6 406.5 4.6 426.4v17.7c30.4 17.9 63 32.6 97.4 43.7-1.1-25.2-2.7-61.2-2.6-63.7 3.2-87.6 47-49.6 47-128.3 0-31.6-20.6-48.8-47.2-48.8z"/></svg><svg version="1.1" id="gebruiksgemak" x="0" y="0" viewBox="0 0 512 512" xml:space="preserve" xmlns="http://www.w3.org/2000/svg"><style>.bst0{fill:#fff}</style><path class="bst0" d="M385.5 99.3H130.4c-18.5 0-33.5 15-33.5 33.5v345.8c0 18.5 15 33.5 33.5 33.5h255.1c18.5 0 33.5-15 33.5-33.5V132.7c0-18.4-15-33.4-33.5-33.4zM256.3 491.2c-9.8 0-17.8-8-17.8-17.8s8-17.8 17.8-17.8 17.8 8 17.8 17.8-8 17.8-17.8 17.8zm129.2-55H130.4V138.3h255.1v297.9z"/><path class="bst0" d="M323.1 259.5l-20.2-20.2-61.2 62.8-28.7-27.2-20.1 20.2 48.8 47.3z"/><path d="M419 327.5V132.7c0-18.5-15-33.5-33.5-33.5H131.7l34.5 38.8 219.2.2V297l33.6 30.5z" fill="#e5e5e5"/></svg><svg version="1.1" id="inclusie" x="0" y="0" viewBox="0 0 512 512" xml:space="preserve" xmlns="http://www.w3.org/2000/svg"><style>.cst0{fill:#fff}</style><path class="cst0" d="M255.2 38.3L199.1 130l-81.4-45.8 34.4 126v17.5s41.7-19.5 103.1-19.5 103.1 19.5 103.1 19.5v-17.5l34.4-126-81.4 45.8-56.1-91.7zm82.5 160.4s-41-14.6-82.5-14.6-82.5 14.6-82.5 14.6L154.2 131l52.9 29.8 48.1-78.6 48.1 78.6 52.9-29.8-18.5 67.7zm35.3 203c-19.5-4.5-37.6-8.4-28.8-25 26.7-50.5 7.1-77.4-21.1-77.4-19.1 0-33.9 12.3-33.9 35.1 0 56.7 31.7 29 33.8 93 .1 1.6-2.8 54.3-3.6 72.2 24.7-8 52.6-25.6 71.7-44.4v-27c-.1-14.3-1.2-22.6-18.1-26.5zM325.9 367l-.9 1.8c-1.8-2.1-3.7-4-5.6-5.9-6.3-6.3-9.5-9.4-9.5-28.5 0-9.8 4.2-14.4 13.2-14.4 3.7 0 8.6.8 11 4.9 3.6 6 3.4 20.3-8.2 42.1zm44.4 79.2c-8.5 7.5-18.4 14.6-28.5 20.5.1-2.4.2-4.8.4-7.1 1.6-31.2 1.6-31.4 1.6-32.9-.1-4.4-.4-8.5-.8-12.3 7.5 3.4 16.2 5.4 24.8 7.3l.7.2c.7.2 1.3.3 1.8.5.1 1.4.1 3.3.1 5.8v18z"/><path class="cst0" d="M276.5 390.6c-25.9-6-50.1-11.2-38.4-33.3C273.7 290 247.5 254 209.9 254c-38.3 0-63.9 37.4-28.2 103.2 12.1 22.2-13 27.5-38.4 33.3-22.5 5.2-24 16.2-24 35.2l3.3 32.7c45.7 42.1 96.9 52.2 133.6 52.2 16.7 0 30.4-2.1 39.2-4.3.9-14.8 5-80.6 5-80.6 0-18.9-1.5-29.9-23.9-35.1zm-.8 98.2c-5.4.6-12 1.1-19.5 1.1-29.9 0-73.4-7.4-113.8-41.6l-2.4-23.6c0-6.1.3-10 .9-11.5.6-.4 2.5-1.4 7-2.5l1.6-.4c21.9-5.1 44.5-10.3 53.1-29.2 3.2-7.2 5.4-18.8-2.7-33.8-14.4-26.5-18.4-49.9-10.9-62.6 5-8.3 14-10.1 20.8-10.1 6.7 0 15.7 1.7 20.6 9.8 7.5 12.5 3.5 36.1-10.7 63-7.9 15-5.7 26.6-2.5 33.8 8.6 18.9 31.4 24.1 53.5 29.2l1 .2c4.6 1.1 6.5 2.1 7 2.5.6 1.6.9 5.6.9 11.9-.2 5.5-2.4 41-3.9 63.8z"/><path transform="rotate(-56.88 73.613 235.975)" class="cst0" d="M63.3 193.5H84v85H63.3z"/><path transform="rotate(-85.852 62.293 312.338) scale(1.00002)" class="cst0" d="M51.9 285h20.7v54.7H51.9z"/><path transform="rotate(-33.123 436.744 235.98)" class="cst0" d="M394.3 225.6h85v20.7h-85z"/><path transform="matrix(.9974 -.07225 .07225 .9974 -21.396 33.192)" class="cst0" d="M420.7 302h54.7v20.7h-54.7z"/></svg><svg viewBox="0 0 512 512" id="informatieveiligheid" xmlns="http://www.w3.org/2000/svg"><path d="M321.4 238l-75.3 77-38.1-36.5-21.2 21.3 59.3 57.8 96.6-98.2-21.3-21.4zm-64.7-94.5c43 31 78.3 39.4 120.3 41.5v164.6c0 52.3-29 65.8-120.3 122.2-91.3-56.3-120.3-69.9-120.3-122.2V185c42.1-2.1 77.4-10.5 120.3-41.5zm0-43.8c-57.9 49.3-94.3 51.6-154.7 51.6v198.3c0 79.1 55.1 99.8 154.7 162.7 99.6-62.9 154.7-83.6 154.7-162.7V151.3c-60.4 0-96.7-2.3-154.7-51.6z" fill="#fff"/></svg><svg version="1.1" id="kanaalsturing" x="0" y="0" viewBox="0 0 512 512" xml:space="preserve" xmlns="http://www.w3.org/2000/svg"><style>.est0{fill:#fff}</style><path class="est0" d="M174.5 376.2l30.4-15.3v-62.3h41l-56.2-110.8-56.2 110.8h41z"/><path class="est0" d="M322.3 125.7l-56.2 110.9h41v65c0 19.9-10.7 38.4-28.2 48.3l-70.5 46.9c-21 12.1-34 34.6-34 58.9v41c0 8.4 6.8 15.3 15.2 15.3 8.4 0 15.2-6.9 15.2-15.3v-41c0-13.4 7.2-25.9 19.1-32.6l70.5-46.9c26.6-15.2 43.1-43.8 43.1-74.6v-65h41l-56.2-110.9z"/></svg><svg viewBox="0 0 512 512" id="procesaanpak" xmlns="http://www.w3.org/2000/svg"><path d="M327.7 178.5c-56.2 0-57.4-48.4-122.7-48.4-15.7 0-30.6 3.4-43.9 8V111H123v382.2c0 10.6 8.6 19.1 19.1 19.1 10.6 0 19.1-8.6 19.1-19.1V328.3c14.2-7.3 30.3-12.7 44.1-12.7 61.6 0 70.2 46 125.1 46 35.5 0 60.1-22.7 60.1-22.7V154.6s-27.1 23.9-62.8 23.9zm24.6 139.9c-24.4 11.3-39.7 3-58.8-10.1-18.8-13-44.6-30.8-88.2-30.8-14.6 0-29.8 3.7-44.1 9.1V179.1c25-13.2 57-16.7 86.7 6.6 29.1 22.8 59.6 37.6 104.3 28.5v104.2z" fill="#fff"/></svg><svg viewBox="0 0 512 512" id="samenwerking" xmlns="http://www.w3.org/2000/svg"><path d="M10.8 375.5L50 221.8l71.7 18.1-40.1 153.7-70.8-18.1zm374.3 18.3c2.5 5.8 3.8 12.2 3.2 18.5-1.6 16.9-14.2 29.4-29.6 32.6-5.2 10.8-14.9 18-26.1 20.4-5 10.4-14.7 18.1-26.3 20.5-6.6 13.6-19.7 20.6-34 20.6-10.5 0-20.4-3.7-27.6-10.9-18.9 8.2-38.7-1-45.4-17.5-12.1-1.4-22.5-9.2-27.1-20.3-12.2-1.4-22.6-9.3-27.2-20.4-24.1-2.8-37.6-29.3-24.4-50.7-4.7-1.2-10-2.1-15.3-3.1l7.8-29.8c10.7 2 20.5 4.5 29.5 7.3 18.6-13.3 43.7-6 51.8 13.8 12.4 1.4 22.7 9.4 27.1 20.3 12.2 1.4 22.6 9.2 27.1 20.3 15 1.7 27.6 13.3 29.5 29.1v4.6l9.1 8.2c5.1 5.9 13.8 6.6 19.5 2.2 5.8-4.5 6.6-12.7 1.5-18.5l-29.6-26c-3.2-2.8 1.1-7.7 4.3-4.9l30.3 26.6c5.2 6 14.1 6.7 19.7 2.3 5.8-4.5 6.4-12.8 1.4-18.6l-38.5-33.1c-3.3-2.7 1-7.7 4.2-4.9l39.5 33.9c5 5.7 13.8 6.8 19.7 2.3 5.8-4.5 7.1-12.3 0-20.2-25.2-22.6-54.3-48.9-84.2-77.2-7.2 9.9-44.2 30.5-66.6 30.5s-36.2-13.7-39.8-27.3c-3.2-11.8 1-23.2 10.8-28.8 10.9-6.4 21.4-15.5 31.7-25.8-16-11.9-24.5-8.1-42 .3-10.2 4.8-22.4 10.6-37.7 13.2l8.9-33.9c27-9.9 51.8-32.7 91.6-1.7l10-11.2c8-9.1 18.5-14.5 30.5-14.5 8.9 0 18.5 3.3 28.6 8.5 30.9 16.1 46.6 25.5 70 26.3l8 30.7h-.2c-36.5.7-54.4-10.3-91.8-29.9-10.4-5.3-17.5-6.5-22.4-.9-20 22.8-41.3 46.9-64.9 62.3 11.6 9.3 41-9.3 52.7-18.7 5.1-4.1 13-9.5 22.9-9.5 11.2 0 19.4 6.7 25.3 12.6 13.8 13.8 52.2 48.6 69.3 63.9 8.8-4.9 17.6-8.8 26.6-12.3l7.8 29.8c-6.4 2.4-12.8 5.5-19.2 9zm-224.4 17.8l12.4-15.2c5.1-6.1 4.4-14.7-1.6-19.2s-15-3.2-20 2.8L139 395.3c-5.1 6.1-4.3 14.7 1.6 19.1 6 4.5 15 3.3 20.1-2.8zm27 20.4l12.5-15.3c5-6 4.3-14.7-1.7-19.2s-14.9-3.2-20 2.9L166 415.7c-5.1 6.1-4.3 14.5 1.7 19 6.1 4.6 14.9 3.5 20-2.7zm27.3 20.2l12.4-15.2c5.1-6.1 4.4-14.7-1.6-19.2s-14.9-3.2-20 2.9l-12.4 15.1c-5.1 6.1-4.3 14.7 1.7 19.2 5.8 4.6 14.8 3.3 19.9-2.8zm37.9-14c-6-4.6-14.9-3.2-20.1 2.8l-12.4 15.3c-5.1 6.1-4.3 14.7 1.7 19.2s14.9 3.3 20-2.9l12.4-15.2c5.2-6.1 4.4-14.7-1.6-19.2zm29 23l-4.9-4.3c-1.3 4.9-3.5 9.4-6.7 13.2l-7.3 9c2.7 2.2 5.9 3.6 9.1 3.6 3 0 6-.9 8.4-2.8 5.8-4.6 6.5-12.9 1.4-18.7zm105.7-221.3l40.1 153.7 70.8-18.1-39.3-153.7-71.6 18.1z" fill="#fff"/></svg></defs></svg>