<?xml version="1.0" encoding="utf-8"?>
<!-- Generator: Adobe Illustrator 24.0.3, SVG Export Plug-In . SVG Version: 6.00 Build 0)  -->
<svg version="1.1" id="Layer_1" xmlns="http://www.w3.org/2000/svg" xmlns:xlink="http://www.w3.org/1999/xlink" x="0px" y="0px"
	 viewBox="0 0 30 40" style="enable-background:new 0 0 30 40;" xml:space="preserve">
<title>Group 11</title>
<desc>Created with Sketch.</desc>
<g>
	<path d="M12.8,20.6l-0.2-0.2c-0.1-0.1-0.2-0.2-0.3-0.3l-1.8,1.8l0.5,0.5L12.8,20.6z"/>
	<path d="M11.3,18.3l-3.1,3.1L7,25.9l4.5-1.2l2.8-2.8l-0.1-0.1c-0.5-0.4-0.6-0.4-0.9-0.7l-2.4,2.4l-2,0.6l0.5-2l2.5-2.5l-0.1-0.2
		C11.6,19,11.4,18.7,11.3,18.3z"/>
	<path d="M17.5,28.4h-5.6c-0.5,0-0.9,0.4-0.9,0.9c0,0.5,0.4,0.9,0.9,0.9h5.6c0.5,0,0.9-0.4,0.9-0.9C18.4,28.8,18,28.4,17.5,28.4z"/>
	<path d="M17.1,15.3c0.2,0.1,0.3,0.3,0.5,0.5l2.6-2.6l-0.5-0.5L17.1,15.3z"/>
	<path d="M16.5,14.9l3.2-3.2l1.4,1.4L18,16.3l0.3,0.3c0.2,0.2,0.4,0.5,0.5,0.7l4.2-4.2l-3.3-3.3l-4.5,4.5l0.3,0.1
		C15.9,14.6,16.2,14.7,16.5,14.9z"/>
	<path d="M11.1,15.6l1.4-1.5l0-0.2c0.1-3.4-3.7-3.2-5.6-4C7.6,11.8,7.5,15.6,11.1,15.6z"/>
	<path d="M12.2,16.8c0.6,1.8,0.7,2.3,2,3.3c1.8,1.4,7.9,5.6,7.9,5.6c0.5,0.3,1.1-0.3,0.8-0.8c0,0-4.4-6-5.8-7.7
		c-1.1-1.4-1.7-1.5-3.6-2l-1.3,1.3L12.2,16.8z"/>
</g>
<path d="M27.5,3.8H2.4C2.2,3.8,2,4,2,4.2v31.6c0,0.2,0.2,0.4,0.4,0.4h25.3c0.1,0,0.2-0.1,0.2-0.2V4.3C28,4.1,27.8,3.8,27.5,3.8z
	 M26.4,34.6H3.6V5.4h22.7V34.6z"/>
</svg>
