<?xml version="1.0" encoding="utf-8"?>
<!-- Generator: Adobe Illustrator 24.0.3, SVG Export Plug-In . SVG Version: 6.00 Build 0)  -->
<svg version="1.1" id="Layer_1" xmlns="http://www.w3.org/2000/svg" xmlns:xlink="http://www.w3.org/1999/xlink" x="0px" y="0px"
	 viewBox="0 0 30 35" style="enable-background:new 0 0 30 35;" xml:space="preserve">
<style type="text/css">
	.st0{fill-rule:evenodd;clip-rule:evenodd;}
</style>
<title>Group 15</title>
<desc>Created with Sketch.</desc>
<g id="Symbols">
	<g id="Icons-_x2F_-Stap-_x2F_-Deel" transform="translate(-9.000000, -7.000000)">
		<g id="Group-15" transform="translate(9.000000, 7.000000)">
			<path id="Fill-11" class="st0" d="M16.8,7.9c0.3,0,0.5,0.2,0.6,0.5l0,0.1v0.1c0,0.3-0.2,0.5-0.5,0.6l-0.1,0H6.4
				c-0.3,0-0.5,0.2-0.6,0.5l0,0.1v16.8c0,0.3,0.2,0.5,0.5,0.6l0.1,0h16.3c0.3,0,0.5-0.2,0.6-0.5l0-0.1V15.4c0-0.3,0.2-0.5,0.5-0.6
				l0.1,0h0.1c0.3,0,0.5,0.2,0.6,0.5l0,0.1v12.3c0,0.3-0.2,0.6-0.5,0.6l-0.1,0H5.2c-0.3,0-0.6-0.2-0.6-0.5l0-0.1V8.6
				C4.6,8.3,4.8,8,5.1,8l0.1,0H16.8z M17.5,22.9c0.3,0,0.6,0.3,0.6,0.6c0,0.3-0.3,0.6-0.6,0.6H9.6C9.3,24,9,23.8,9,23.4
				c0-0.3,0.3-0.6,0.6-0.6H17.5z M18.6,19.2c0.3,0,0.6,0.3,0.6,0.6c0,0.3-0.3,0.6-0.6,0.6h-9c-0.3,0-0.6-0.3-0.6-0.6
				c0-0.3,0.3-0.6,0.6-0.6H18.6z M17,15.5c0.3,0,0.6,0.3,0.6,0.6c0,0.3-0.3,0.6-0.6,0.6H9.6C9.3,16.6,9,16.4,9,16
				c0-0.3,0.3-0.6,0.6-0.6H17z M21.3,5.8l6.1,0.1l-0.1,5.8c0,0.4-0.4,0.8-0.8,0.8l0,0c-0.4,0-0.8-0.4-0.8-0.8l0,0l0-2.8l0-0.6
				l-0.5,0.4l-0.1,0.1c-1.2,1-3.2,2.8-4.8,4.5c-0.1,0.1-0.3,0.2-0.5,0.2l0,0h-0.1c-0.4,0-0.7-0.3-0.8-0.6c0-0.2,0-0.4,0.2-0.6
				c1.3-1.4,3.1-3.1,4.5-4.2l0,0l0.1-0.1l0.6-0.5l-0.8,0l-2.4,0c-0.4,0-0.8-0.4-0.8-0.8C20.5,6.1,20.9,5.8,21.3,5.8L21.3,5.8z
				 M13.5,11.8c0.3,0,0.6,0.3,0.6,0.6c0,0.3-0.3,0.6-0.6,0.6H9.6c-0.3,0-0.6-0.3-0.6-0.6c0-0.3,0.3-0.6,0.6-0.6H13.5z"/>
		</g>
	</g>
</g>
</svg>
