<?xml version="1.0" encoding="utf-8"?>
<!-- Generator: Adobe Illustrator 24.0.3, SVG Export Plug-In . SVG Version: 6.00 Build 0)  -->
<svg version="1.1" id="Layer_1" xmlns="http://www.w3.org/2000/svg" xmlns:xlink="http://www.w3.org/1999/xlink" x="0px" y="0px"
	 viewBox="0 0 30 35" style="enable-background:new 0 0 30 35;" xml:space="preserve">
<style type="text/css">
	.st0{fill-rule:evenodd;clip-rule:evenodd;}
</style>
<title>Group 22</title>
<desc>Created with Sketch.</desc>
<g id="Symbols">
	<g id="Icons-_x2F_-Stap-_x2F_-Verdiep" transform="translate(-7.000000, -4.000000)">
		<g id="Group-22" transform="translate(7.000000, 4.000000)">
			<path id="Fill-13" class="st0" d="M24.3,2.5c0.2,0,0.4,0.2,0.5,0.4l0,0.1v4.6c-0.4-0.2-0.8-0.3-1.1-0.4l-0.4-0.1V4.1H1.5v27.8
				h21.7v-7.1c0.4-0.1,0.8-0.2,1.2-0.4l0.4-0.2v9c0,0.1-0.1,0.2-0.2,0.2l-0.1,0H0.4c-0.2,0-0.3-0.1-0.4-0.3l0-0.1V2.9
				c0-0.2,0.1-0.3,0.3-0.4l0.1,0H24.3z M16.8,26.7c0.4,0,0.8,0.3,0.8,0.8c0,0.4-0.3,0.7-0.7,0.8l-0.1,0H6.2c-0.4,0-0.8-0.3-0.8-0.8
				c0-0.4,0.3-0.7,0.7-0.8l0.1,0H16.8z M21.2,8.4c1.9,0,3.9,0.7,5.3,2.2c2.6,2.6,2.9,6.5,1,9.4l-0.2,0.2l2.1,2.1l-1.9,1.9l-2.1-2.1
				c-1.3,0.9-2.8,1.4-4.3,1.4c-1.9,0-3.9-0.7-5.3-2.2c-3-3-3-7.7,0-10.7C17.4,9.2,19.3,8.4,21.2,8.4z M14.3,22
				c0.5,0.6,1.1,1.1,1.7,1.5l0,0l-0.1,0H6.2c-0.4,0-0.8-0.3-0.8-0.8S5.8,22,6.2,22l0,0H14.3z M21.2,10.1c-1.6,0-3.1,0.6-4.2,1.7
				c-1.1,1.1-1.7,2.6-1.7,4.2c0,1.6,0.6,3.1,1.7,4.2c0.2,0.2,0.3,0.3,0.5,0.4l0.3,0.2l0.8,0.5c0.8,0.4,1.7,0.6,2.6,0.6
				c0.8,0,1.6-0.2,2.3-0.5l0.3-0.1l0.8-0.5c0.3-0.2,0.5-0.4,0.8-0.6c1.1-1.1,1.7-2.6,1.7-4.2c0-1.6-0.6-3.1-1.7-4.2
				C24.3,10.7,22.8,10.1,21.2,10.1z M23.3,12.1c0.6,0.3,1.1,0.8,1.5,1.4l0,0v5c-0.4,0.6-0.9,1-1.5,1.4l0,0V12.1z M18.3,17.2
				c0.4,0,0.8,0.3,0.8,0.8s-0.3,0.8-0.8,0.8l0,0h-0.5c-0.4-0.4-0.7-1-0.8-1.5l0,0H18.3z M12.1,17.2c0.1,0.4,0.1,0.8,0.2,1.2l0.1,0.4
				H6.2c-0.4,0-0.8-0.3-0.8-0.8c0-0.4,0.3-0.7,0.7-0.8l0.1,0H12.1z M18.5,12.5c0.3,0.1,0.6,0.4,0.6,0.7c0,0.4-0.3,0.7-0.7,0.8
				l-0.1,0h-1C17.6,13.5,18,12.9,18.5,12.5z M12.7,12.5c-0.2,0.4-0.3,0.8-0.4,1.1L12.3,14h-6c-0.4,0-0.8-0.3-0.8-0.8
				c0-0.4,0.3-0.7,0.7-0.8l0.1,0H12.7z M11.4,7.8c0.4,0,0.8,0.3,0.8,0.8c0,0.4-0.3,0.7-0.7,0.8l-0.1,0H6.2C5.8,9.3,5.5,9,5.5,8.5
				c0-0.4,0.3-0.7,0.7-0.8l0.1,0H11.4z"/>
		</g>
	</g>
</g>
</svg>
