<?xml version="1.0" encoding="utf-8"?>
<!-- Generator: Adobe Illustrator 24.0.3, SVG Export Plug-In . SVG Version: 6.00 Build 0)  -->
<svg version="1.1" id="Layer_1" xmlns="http://www.w3.org/2000/svg" xmlns:xlink="http://www.w3.org/1999/xlink" x="0px" y="0px"
	 viewBox="0 0 30 35" style="enable-background:new 0 0 30 35;" xml:space="preserve">
<style type="text/css">
	.st0{fill-rule:evenodd;clip-rule:evenodd;}
</style>
<title>Fill 51</title>
<desc>Created with Sketch.</desc>
<g id="Desktop">
	<g id="_x30_1a.-Homepage" transform="translate(-915.000000, -1065.000000)">
		<g id="Top" transform="translate(0.000000, 163.000000)">
			<g id="Stappenplan">
				<g id="Plan" transform="translate(307.000000, 300.000000)">
					<g id="Stappen" transform="translate(192.000000, 181.000000)">
						<g id="_x35_.-Deel" transform="translate(391.000000, 394.000000)">
							<g id="Ico-5">
								<path id="Fill-51" class="st0" d="M41.7,32.8c0.5,0,0.9,0.4,0.9,0.9c0,0.5-0.4,0.9-0.9,0.9l0,0h-14v21.2H50V42.4
									c0-0.5,0.4-0.9,0.9-0.9c0.5,0,0.9,0.4,0.9,0.9l0,0v15.1H25.9V32.8H41.7z M46.2,31.3l7.8,0.1l-0.1,7.5l-2.2,0l0.1-4l-0.1,0.1
									c-2.3,1.9-6.4,5.6-8.5,9.1l0,0l-1.9-1.1c2.1-3.5,5.7-7,8.4-9.2l0,0l0.2-0.1l-3.6-0.1L46.2,31.3z"/>
							</g>
						</g>
					</g>
				</g>
			</g>
		</g>
	</g>
</g>
</svg>
