<?xml version="1.0" encoding="utf-8"?>
<!-- Generator: Adobe Illustrator 24.0.3, SVG Export Plug-In . SVG Version: 6.00 Build 0)  -->
<svg version="1.1" id="Layer_1" xmlns="http://www.w3.org/2000/svg" xmlns:xlink="http://www.w3.org/1999/xlink" x="0px" y="0px"
	 viewBox="0 0 30 40" style="enable-background:new 0 0 30 40;" xml:space="preserve">
<title>Group 11</title>
<desc>Created with Sketch.</desc>
<g>
	<defs>
		<path id="SVGID_1_" d="M20.4,3.2C20.4,3.2,20.4,3.3,20.4,3.2l0,0.1v3.2c0,0.1,0,0.1-0.1,0.1c-0.5,0.5-1.3,0.3-1.4-0.3l0-0.1V3.5
			C19,3,19.9,2.5,20.4,3.2z M26,6.1c0,0.1,0,0.1,0,0.2l0,0l-2.4,2.4c-0.1,0.1-0.3,0.2-0.4,0.2c-0.3,0-0.7-0.2-0.7-0.8
			c0,0,0-0.1,0-0.1l0-0.1l2.3-2.4C25.2,5.1,25.9,5.3,26,6.1z M27.6,10.6c0.1,0,0.1,0,0.1,0.1c0.5,0.5,0.3,1.3-0.3,1.4l-0.1,0h-2.8
			c-0.5,0-0.9-0.9-0.3-1.5c0,0,0.1,0,0.1,0l0,0H27.6z M21.8,13.6c0.5,0,0.9,0.7,0.3,1.1c0,0-0.1,0-0.1,0h-7.3c0,0-0.1,0-0.1,0
			c-0.7-0.4-0.3-1.1,0.3-1.1H21.8z M10.5,10.4c0.2-0.3,0.6-0.5,0.9-0.3c0.3,0.2,0.5,0.5,0.3,0.8l-2.9,5.8C8.7,17,8.4,17.2,8,17.2
			c-0.3,0-0.7-0.1-0.9-0.4L6,14.8c-0.2-0.3-0.1-0.7,0.2-0.9c0.3-0.2,0.7-0.1,0.9,0.2l0.6,1c0.1,0.2,0.3,0.1,0.4,0L10.5,10.4z
			 M21.9,17.2c0.5,0,0.8,0.7,0.3,1.1c0,0-0.1,0.1-0.1,0.1h-7.3c-0.5,0-0.9-0.7-0.3-1.1c0,0,0.1,0,0.1,0H21.9z M10.1,22.4
			c1.2-1.7-0.7-3.6-2.4-2.4c-0.1,0-0.1,0.1-0.1,0.1c-1.2,1.7,0.7,3.6,2.4,2.4C10,22.5,10,22.5,10.1,22.4z M21.9,21.9
			c0.5,0,0.8,0.7,0.3,1.1c0,0-0.1,0.1-0.1,0.1h-7.3c-0.5,0-0.9-0.7-0.3-1.1c0,0,0.1,0,0.1,0H21.9z M8.8,18.3c1.7,0,3,1.3,3,3
			c0,2.3-2.7,4-5,2.2c-0.1-0.1-0.3-0.2-0.3-0.4C4.9,20.9,6.6,18.3,8.8,18.3z M21.9,26.6c0.5,0,0.8,0.7,0.3,1.1c0,0-0.1,0-0.1,0h-7.3
			c-0.5,0-0.9-0.7-0.3-1.1c0,0,0.1,0,0.1,0H21.9z M9.9,27.1c-1.7-1.2-3.6,0.7-2.4,2.4c0,0.1,0.1,0.1,0.1,0.1
			c1.7,1.2,3.6-0.7,2.4-2.4C10,27.2,10,27.2,9.9,27.1z M8.8,25.5c2.3,0,3.9,2.5,2.4,4.8c-0.1,0.1-0.2,0.3-0.3,0.4
			c-2.3,1.8-5,0.1-5-2.2C5.9,26.8,7.2,25.5,8.8,25.5z M21.9,30.2c0.5,0,0.8,0.7,0.3,1.1c0,0-0.1,0.1-0.1,0.1h-6.2c0,0-0.1,0-0.1,0
			c-0.7-0.4-0.3-1.1,0.3-1.1H21.9z M17.2,5.3c0.1,0,0.2,0.1,0.2,0.2v1.1c0,0.1-0.1,0.2-0.2,0.2H4C3.9,6.9,3.8,7,3.8,7.1v27.2
			c0,0.1,0.1,0.2,0.2,0.2h20.2c0.1,0,0.2-0.1,0.2-0.2V14.1c0-0.1,0.1-0.2,0.2-0.2h1c0.1,0,0.2,0.1,0.2,0.2v21.7
			c0,0.2-0.1,0.3-0.3,0.3H2.6c-0.2,0-0.3-0.1-0.3-0.3V5.6c0-0.2,0.1-0.3,0.3-0.3H17.2z"/>
	</defs>
	<use xlink:href="#SVGID_1_"  style="overflow:visible;fill-rule:evenodd;clip-rule:evenodd;"/>
	<clipPath id="SVGID_2_">
		<use xlink:href="#SVGID_1_"  style="overflow:visible;"/>
	</clipPath>
</g>
</svg>
