<?xml version="1.0" encoding="utf-8"?>
<!-- Generator: Adobe Illustrator 24.0.3, SVG Export Plug-In . SVG Version: 6.00 Build 0)  -->
<svg version="1.1" id="Layer_1" xmlns="http://www.w3.org/2000/svg" xmlns:xlink="http://www.w3.org/1999/xlink" x="0px" y="0px"
	 viewBox="0 0 30 35" style="enable-background:new 0 0 30 35;" xml:space="preserve">
<style type="text/css">
	.st0{fill-rule:evenodd;clip-rule:evenodd;}
</style>
<title>Fill 46</title>
<desc>Created with Sketch.</desc>
<g id="Desktop">
	<g id="_x30_1a.-Homepage" transform="translate(-533.000000, -666.000000)">
		<g id="Top" transform="translate(0.000000, 163.000000)">
			<g id="Stappenplan">
				<g id="Plan" transform="translate(307.000000, 300.000000)">
					<g id="Stappen" transform="translate(192.000000, 181.000000)">
						<g id="_x32_.-Verdiep">
							<g id="Ico-2" transform="translate(2.000000, 0.000000)">
								<path id="Fill-46" class="st0" d="M44.7,32.9L43,32.7c0.4-2.8,2.1-4.9,4.9-5.4l0.3,1.7C45.5,29.5,44.8,31.7,44.7,32.9
									L44.7,32.9z M49.8,55.9c-0.3,0.3-0.7,0.5-1.1,0.5h-1.5c-0.4,0-0.8-0.2-1.1-0.5l-2-2.3h7.7L49.8,55.9z M52.2,51.4
									c0,0.4-0.3,0.7-0.7,0.7h-7c-0.4,0-0.7-0.3-0.7-0.7c0-0.4,0.3-0.7,0.7-0.7h7C51.8,50.7,52.2,51,52.2,51.4L52.2,51.4z
									 M52.2,48.6c0,0.4-0.3,0.7-0.7,0.7h-7c-0.4,0-0.7-0.3-0.7-0.7c0-0.4,0.3-0.7,0.7-0.7h7C51.8,47.9,52.2,48.2,52.2,48.6
									L52.2,48.6z M57.8,32.1c0,5.8-5.3,9.8-5.3,14.4h-2.8c0-2.9,1.4-5.4,2.8-7.7c1.3-2.2,2.5-4.3,2.5-6.7c0-4.4-3.5-6.6-7-6.6
									c-3.5,0-7,2.3-7,6.6c0,2.3,1.2,4.4,2.5,6.7c1.4,2.4,2.8,4.8,2.8,7.7h-2.8c0-4.6-5.3-8.6-5.3-14.4c0-6.1,4.9-9.5,9.8-9.5
									C52.9,22.7,57.8,26,57.8,32.1L57.8,32.1z"/>
							</g>
						</g>
					</g>
				</g>
			</g>
		</g>
	</g>
</g>
</svg>
