<?xml version="1.0" encoding="utf-8"?>
<!-- Generator: Adobe Illustrator 24.0.3, SVG Export Plug-In . SVG Version: 6.00 Build 0)  -->
<svg version="1.1" id="Layer_1" xmlns="http://www.w3.org/2000/svg" xmlns:xlink="http://www.w3.org/1999/xlink" x="0px" y="0px"
	 viewBox="0 0 30 35" style="enable-background:new 0 0 30 35;" xml:space="preserve">
<style type="text/css">
	.st0{fill-rule:evenodd;clip-rule:evenodd;}
</style>
<title>Fill 16</title>
<desc>Created with Sketch.</desc>
<g id="Desktop">
	<g id="_x30_1a.-Homepage" transform="translate(-869.000000, -783.000000)">
		<g id="Top" transform="translate(0.000000, 163.000000)">
			<g id="Stappenplan">
				<g id="Plan" transform="translate(307.000000, 300.000000)">
					<g id="Stappen" transform="translate(192.000000, 181.000000)">
						<g id="_x33_.-Ontwerp" transform="translate(343.000000, 117.000000)">
							<g id="Ico-3" transform="translate(7.000000, 0.000000)">
								<path id="Fill-16" class="st0" d="M21.8,32.8l4.4-5.2l1.8,1.6l-1.2,1.4l0.9,0.7l1.2-1.4l2,1.7l-0.8,0.9l0.9,0.7l0.8-0.9
									l2,1.7l-1.2,1.4l0.9,0.7l1.2-1.4l2,1.7L36,37.6l0.9,0.7l0.8-0.9l2,1.7l-1.2,1.4l0.9,0.7l1.2-1.4l2,1.7l-0.8,0.9l0.9,0.7
									l0.8-0.9l2,1.7l-1.2,1.4l0.9,0.7l1.2-1.4l1.8,1.5l-4.4,5.2L21.8,32.8z M32.5,43.9c0,0-0.2-0.4-0.5-0.8l0.7,0.6L32.5,43.9z
									 M47.6,28.1c0,0,0.1,0,0.1,0c0,0,0.1,0,0.2,0.1c0.1,0.1,0.1,0.2,0,0.3l-8.7,8.8l-1.5-1.3L47.6,28.1z M26.1,26l10.4,8.9
									l10.1-8.1c0.4-0.3,0.8-0.4,1.2-0.4c0.5,0,0.9,0.2,1.3,0.6c0.6,0.7,0.6,1.8,0,2.5l0,0l-8.6,8.7l9.5,8.1l-5.9,6.9l-10-8.5
									l-0.6,0.6l0,0l0,0C31.9,46,29.8,47,29.8,47l0,0l-2.7-3c0,0,1.2-2,2-3.3l0,0l0,0l0.1,0l-9-7.7L26.1,26z M26.7,45.1l1.9,2.2
									l-2.4,4c0,0-2.8,0.6-4.6,1.6l0,0l-0.4-0.5l2.2-2c0.2-0.2,0.4-0.3,0.7-0.3c0.1,0,0.3-0.1,0.4-0.2c0.3-0.2,0.3-0.7,0.1-0.9
									c-0.2-0.3-0.7-0.3-0.9-0.1c-0.1,0.1-0.2,0.2-0.2,0.4c0,0.3-0.2,0.5-0.4,0.7l0,0l-2.2,2l-0.4-0.5c1.2-1.7,2.1-4.4,2.1-4.4
									l0,0L26.7,45.1z"/>
							</g>
						</g>
					</g>
				</g>
			</g>
		</g>
	</g>
</g>
</svg>
