<?xml version="1.0" encoding="utf-8"?>
<!-- Generator: Adobe Illustrator 24.0.3, SVG Export Plug-In . SVG Version: 6.00 Build 0)  -->
<svg version="1.1" id="Layer_1" xmlns="http://www.w3.org/2000/svg" xmlns:xlink="http://www.w3.org/1999/xlink" x="0px" y="0px"
	 viewBox="0 0 30 35" style="enable-background:new 0 0 30 35;" xml:space="preserve">
<style type="text/css">
	.st0{fill-rule:evenodd;clip-rule:evenodd;}
</style>
<title>Fill 8</title>
<desc>Created with Sketch.</desc>
<g id="Symbols">
	<g id="Icons-_x2F_-Stap-_x2F_-Lampje" transform="translate(-8.000000, -4.000000)">
		<g id="Group-10" transform="translate(8.000000, 4.000000)">
			<path id="Fill-8" class="st0" d="M20.4,18c0.3,0,0.7,0.1,0.9,0.4c0.3,0.5,0.3,1.7-0.7,3.5c0,0.1-0.1,0.1-0.1,0.2
				c-0.2-0.2-0.3-0.3-0.5-0.5c-0.5-0.5-0.8-0.8-0.8-2.4C19.3,18.4,19.7,18,20.4,18 M17.6,2.8c-0.3,0.5-0.6,1-0.9,1.5l0,0H4v27.5
				h21.5V13.6c0.5-0.2,1-0.4,1.5-0.7l0,0v20.2c0,0.1-0.1,0.2-0.2,0.2l0,0h-24c-0.2,0-0.4-0.2-0.4-0.4l0,0V3.2c0-0.2,0.2-0.4,0.4-0.4
				l0,0C2.8,2.8,17.6,2.8,17.6,2.8z M20.4,16.3c2.3,0,4,2.2,1.8,6.4c-0.6,1.2,0.4,1.6,1.8,1.9l0,0v1.9c-0.7-0.2-1.3-0.3-1.9-0.6
				c0,0.3,0.1,0.7,0.1,1c0,0.1,0,0.1-0.1,2.7c0,0.2,0,0.4,0,0.6c0,0,0,0,0,0.1l0,0h-1.7c0.1-1.7,0.2-3.3,0.2-3.3
				c-0.2-5.3-2.8-3-2.8-7.7C17.6,17.3,18.9,16.3,20.4,16.3z M11,12.5c3.1,0,5.3,3,2.3,8.6c-1,1.8,1,2.3,3.2,2.8c1.9,0.4,2,1.3,2,2.9
				c0,0.1-0.1,1.6-0.2,3.2v0.2h-1.7v-0.1l0,0V30c0.1-1.5,0.2-3,0.2-3.3c0-0.5,0-0.9-0.1-1c0,0-0.2-0.1-0.5-0.2h-0.1H16
				c-1.8-0.4-3.7-0.9-4.5-2.4c-0.3-0.6-0.5-1.6,0.2-2.8c1.2-2.2,1.5-4.2,0.9-5.2c-0.4-0.7-1.2-0.8-1.7-0.8c-0.6,0-1.3,0.1-1.7,0.8
				c-0.6,1.1-0.3,3,0.9,5.2c0.7,1.2,0.5,2.2,0.2,2.8c-0.7,1.6-2.6,2-4.4,2.4c0,0-0.2,0-0.4,0.1H5.4v-1.8c2.1-0.5,4.2-0.9,3.2-2.8
				C5.7,15.6,7.8,12.5,11,12.5z M23.2,1.7c2.9,0,5.3,2.4,5.3,5.3s-2.4,5.3-5.3,5.3S18,9.9,18,7S20.3,1.7,23.2,1.7z M25.5,4.9
				L25.5,4.9l-2.7,2.8c0,0,0,0-0.1,0l0,0l-1.2-1.2c0,0,0,0-0.1,0l0,0l-0.8,0.8c0,0,0,0,0,0.1l0,0l2.1,2.1c0,0,0,0,0.1,0l0,0l3.6-3.7
				c0,0,0,0,0-0.1l0,0L25.5,4.9L25.5,4.9z"/>
		</g>
	</g>
</g>
</svg>
