<?xml version="1.0" encoding="utf-8"?>
<!-- Generator: Adobe Illustrator 24.0.3, SVG Export Plug-In . SVG Version: 6.00 Build 0)  -->
<svg version="1.1" id="Layer_1" xmlns="http://www.w3.org/2000/svg" xmlns:xlink="http://www.w3.org/1999/xlink" x="0px" y="0px"
	 viewBox="0 0 30 35" style="enable-background:new 0 0 30 35;" xml:space="preserve">
<style type="text/css">
	.st0{fill-rule:evenodd;clip-rule:evenodd;}
</style>
<title>Fill 12</title>
<desc>Created with Sketch.</desc>
<g id="Desktop">
	<g id="_x30_1a.-Homepage" transform="translate(-671.000000, -821.000000)">
		<g id="Top" transform="translate(0.000000, 163.000000)">
			<g id="Stappenplan">
				<g id="Plan" transform="translate(307.000000, 300.000000)">
					<g id="Stappen" transform="translate(192.000000, 181.000000)">
						<g id="_x31_.-Identificeer" transform="translate(131.000000, 157.000000)">
							<g id="Ico-1" transform="translate(21.000000, 0.000000)">
								<path id="Fill-12" class="st0" d="M30,46c-0.1-1.5-0.2-3.6-0.2-4s0-0.7,0.1-0.8c0,0,0.2-0.1,0.5-0.2h0.1
									c1.5-0.3,3-0.7,3.6-1.9c0.2-0.5,0.4-1.2-0.2-2.2c-0.9-1.8-1.2-3.4-0.7-4.2c0.3-0.5,0.9-0.7,1.4-0.7c0.4,0,1,0.1,1.4,0.7
									c0.5,0.8,0.2,2.4-0.7,4.2c-0.5,1-0.4,1.8-0.2,2.2c0.6,1.3,2.1,1.6,3.6,1.9h0.1c0.3,0.1,0.4,0.1,0.5,0.2
									c0,0.1,0.1,0.4,0.1,0.8c0,0.3-0.2,2.4-0.2,4c-1.4,0.7-2.8,1-4.4,1C32.9,47,31.4,46.6,30,46L30,46z M24.3,36.9
									c0-2.7,1.1-5.2,3-7.1c1.9-1.9,4.4-3,7.1-3s5.2,1.1,7.1,3c1.9,1.9,3,4.4,3,7.1s-1.1,5.2-3,7.1c-0.4,0.4-0.8,0.8-1.3,1.1
									c0.1-1.5,0.2-3.1,0.2-3.1c0-1.3-0.1-2-1.6-2.3c-1.7-0.4-3.3-0.7-2.6-2.2c2.4-4.5,0.6-6.9-1.9-6.9s-4.2,2.4-1.9,6.9
									c0.8,1.5-0.8,1.8-2.6,2.2c-1.5,0.3-1.6,1.1-1.6,2.3c0,0,0.1,1.6,0.2,3.1c-0.5-0.3-0.9-0.7-1.3-1.1
									C25.4,42.1,24.3,39.6,24.3,36.9L24.3,36.9z M47.2,46.8l-3.3-3.3c3.2-4.5,2.7-10.8-1.3-14.8c-2.3-2.3-5.2-3.4-8.2-3.4
									s-5.9,1.1-8.2,3.4c-4.5,4.5-4.5,11.9,0,16.4c2.3,2.3,5.2,3.4,8.2,3.4c2.3,0,4.6-0.7,6.6-2.1l3.3,3.3L47.2,46.8z"/>
							</g>
						</g>
					</g>
				</g>
			</g>
		</g>
	</g>
</g>
</svg>
