<?xml version="1.0" encoding="UTF-8"?>
<svg width="78px" height="69px" viewBox="0 0 78 69" version="1.1" xmlns="http://www.w3.org/2000/svg" xmlns:xlink="http://www.w3.org/1999/xlink">
    <!-- Generator: Sketch 61.2 (89653) - https://sketch.com -->
    <title>Group 5</title>
    <desc>Created with Sketch.</desc>
    <g id="Direct-Duidelijk" stroke="none" stroke-width="1" fill="none" fill-rule="evenodd">
        <g id="01a.-Direct-Duidelijk-Copy" transform="translate(-838.000000, -1669.000000)">
            <g id="Components-/-Footer" transform="translate(0.000000, 1584.000000)">
                <g id="Group-5" transform="translate(838.000000, 85.000000)">
                    <path d="M2.43650847,0.000661016949 C1.09067797,0.000661016949 0,1.092 0,2.43783051 L0,65.8022542 C0,67.1480847 1.09067797,68.2387627 2.43650847,68.2400847 L51.1779153,68.2400847 C52.5211017,68.2347966 53.6051695,67.1447797 53.6051695,65.8022542 L53.6051695,46.3062203 L53.6051695,43.8683898 L48.7414068,43.8683898 L48.7414068,46.3062203 L48.7414068,63.3657458 L4.87301695,63.3657458 L4.87301695,4.87566102 C19.5,4.92655932 34.3021525,5.11957627 48.7414068,4.87566102 L48.7414068,7.722 L48.7414068,10.1585085 L53.624339,10.1585085 L53.6051695,7.722 L53.6051695,2.43783051 C53.6064915,1.092 52.5144915,0.000661016949 51.168661,0.000661016949 C51.1534576,0.000661016949 51.1369322,0.000661016949 51.1204068,0.000661016949 C35.2533559,0.338440678 18.7444576,0.000661016949 2.43650847,0.000661016949" id="Fill-1" fill="#97CFE7"></path>
                    <path d="M75.3585102,5.08931079 C74.8078831,5.0933339 74.2731203,5.2843678 73.8447814,5.63140169 L32.0903237,38.1322831 L18.9354254,22.804622 C18.0562729,21.7800458 16.5141203,21.6604017 15.487561,22.5388932 C14.4629847,23.4173847 14.3440017,24.9595373 15.2211712,25.9854356 L31.4055102,44.8250797 L76.8339,9.47785932 C77.9120186,8.67075763 78.1321373,7.14380847 77.3256966,6.06635085 C76.8610017,5.44697797 76.131239,5.08407966 75.3585102,5.08931079" id="Fill-3" fill="#26FA97"></path>
                </g>
            </g>
        </g>
    </g>
</svg>