<?xml version="1.0" encoding="utf-8"?><svg xmlns="http://www.w3.org/2000/svg" xmlns:xlink="http://www.w3.org/1999/xlink"><defs><svg viewBox="0 0 30 35" id="doc-arrow" xmlns="http://www.w3.org/2000/svg"><path d="M16.8 7.9c.3 0 .5.2.6.5v.2c0 .3-.2.5-.5.6H6.4c-.3 0-.5.2-.6.5v16.9c0 .3.2.5.5.6h16.4c.3 0 .5-.2.6-.5V15.4c0-.3.2-.5.5-.6h.2c.3 0 .5.2.6.5v12.4c0 .3-.2.6-.5.6H5.2c-.3 0-.6-.2-.6-.5V8.6c0-.3.2-.6.5-.6h11.7zm.7 15c.3 0 .6.3.6.6s-.3.6-.6.6H9.6c-.3-.1-.6-.3-.6-.7 0-.3.3-.6.6-.6h7.9zm1.1-3.7c.3 0 .6.3.6.6s-.3.6-.6.6h-9c-.3 0-.6-.3-.6-.6s.3-.6.6-.6h9zM17 15.5c.3 0 .6.3.6.6s-.3.6-.6.6H9.6c-.3-.1-.6-.3-.6-.7 0-.3.3-.6.6-.6H17zm4.3-9.7l6.1.1-.1 5.8c0 .4-.4.8-.8.8s-.8-.4-.8-.8V8.3l-.5.4-.1.1c-1.2 1-3.2 2.8-4.8 4.5-.1.1-.3.2-.5.2h-.1c-.4 0-.7-.3-.8-.6 0-.2 0-.4.2-.6 1.3-1.4 3.1-3.1 4.5-4.2l.1-.1.6-.5h-3.2c-.4 0-.8-.4-.8-.8.2-.6.6-.9 1-.9zm-7.8 6c.3 0 .6.3.6.6s-.3.6-.6.6H9.6c-.3 0-.6-.3-.6-.6s.3-.6.6-.6h3.9z" fill-rule="evenodd" clip-rule="evenodd"/></svg><svg viewBox="0 0 30 40" id="doc-checklist" xmlns="http://www.w3.org/2000/svg"><defs><path id="ba" d="M20.4 3.2s0 .1 0 0v3.3c0 .1 0 .1-.1.1-.5.5-1.3.3-1.4-.3V3.5c.1-.5 1-1 1.5-.3zM26 6.1v.2l-2.4 2.4c-.1.1-.3.2-.4.2-.3 0-.7-.2-.7-.8v-.2l2.3-2.4c.4-.4 1.1-.2 1.2.6zm1.6 4.5c.1 0 .1 0 .1.1.5.5.3 1.3-.3 1.4h-2.9c-.5 0-.9-.9-.3-1.5h3.4zm-5.8 3c.5 0 .9.7.3 1.1h-7.5c-.7-.4-.3-1.1.3-1.1h6.9zm-11.3-3.2c.2-.3.6-.5.9-.3.3.2.5.5.3.8l-2.9 5.8c-.1.3-.4.5-.8.5-.3 0-.7-.1-.9-.4l-1.1-2c-.2-.3-.1-.7.2-.9.3-.2.7-.1.9.2l.6 1c.1.2.3.1.4 0l2.4-4.7zm11.4 6.8c.5 0 .8.7.3 1.1l-.1.1h-7.3c-.5 0-.9-.7-.3-1.1h7.4zm-11.8 5.2c1.2-1.7-.7-3.6-2.4-2.4-.1 0-.1.1-.1.1-1.2 1.7.7 3.6 2.4 2.4l.1-.1zm11.8-.5c.5 0 .8.7.3 1.1l-.1.1h-7.3c-.5 0-.9-.7-.3-1.1h7.4zM8.8 18.3c1.7 0 3 1.3 3 3 0 2.3-2.7 4-5 2.2-.1-.1-.3-.2-.3-.4-1.6-2.2.1-4.8 2.3-4.8zm13.1 8.3c.5 0 .8.7.3 1.1h-7.4c-.5 0-.9-.7-.3-1.1h7.4zm-12 .5c-1.7-1.2-3.6.7-2.4 2.4 0 .1.1.1.1.1 1.7 1.2 3.6-.7 2.4-2.4l-.1-.1zm-1.1-1.6c2.3 0 3.9 2.5 2.4 4.8-.1.1-.2.3-.3.4-2.3 1.8-5 .1-5-2.2 0-1.7 1.3-3 2.9-3zm13.1 4.7c.5 0 .8.7.3 1.1l-.1.1h-6.3c-.7-.4-.3-1.1.3-1.1h5.8zM17.2 5.3c.1 0 .2.1.2.2v1.1c0 .1-.1.2-.2.2H4c-.1.1-.2.2-.2.3v27.2c0 .1.1.2.2.2h20.2c.1 0 .2-.1.2-.2V14.1c0-.1.1-.2.2-.2h1c.1 0 .2.1.2.2v21.7c0 .2-.1.3-.3.3H2.6c-.2 0-.3-.1-.3-.3V5.6c0-.2.1-.3.3-.3h14.6z"/></defs><use xlink:href="#ba" overflow="visible" fill-rule="evenodd" clip-rule="evenodd"/></svg><svg viewBox="0 0 30 40" id="doc-design" xmlns="http://www.w3.org/2000/svg"><path d="M12.8 20.6l-.2-.2-.3-.3-1.8 1.8.5.5 1.8-1.8z"/><path d="M11.3 18.3l-3.1 3.1L7 25.9l4.5-1.2 2.8-2.8-.1-.1c-.5-.4-.6-.4-.9-.7l-2.4 2.4-2 .6.5-2 2.5-2.5-.1-.2c-.2-.4-.4-.7-.5-1.1zm6.2 10.1h-5.6c-.5 0-.9.4-.9.9s.4.9.9.9h5.6c.5 0 .9-.4.9-.9s-.4-.9-.9-.9zm-.4-13.1c.2.1.3.3.5.5l2.6-2.6-.5-.5-2.6 2.6z"/><path d="M16.5 14.9l3.2-3.2 1.4 1.4-3.1 3.2.3.3c.2.2.4.5.5.7l4.2-4.2-3.3-3.3-4.5 4.5.3.1c.4.2.7.3 1 .5zm-5.4.7l1.4-1.5v-.2c.1-3.4-3.7-3.2-5.6-4 .7 1.9.6 5.7 4.2 5.7zm1.1 1.2c.6 1.8.7 2.3 2 3.3 1.8 1.4 7.9 5.6 7.9 5.6.5.3 1.1-.3.8-.8 0 0-4.4-6-5.8-7.7-1.1-1.4-1.7-1.5-3.6-2l-1.3 1.3v.3z"/><path d="M27.5 3.8H2.4c-.2 0-.4.2-.4.4v31.6c0 .2.2.4.4.4h25.3c.1 0 .2-.1.2-.2V4.3c.1-.2-.1-.5-.4-.5zm-1.1 30.8H3.6V5.4h22.7v29.2z"/></svg><svg viewBox="0 0 30 35" id="doc-magnify" xmlns="http://www.w3.org/2000/svg"><path d="M24.3 2.5c.2 0 .4.2.5.4v4.7c-.4-.2-.8-.3-1.1-.4l-.4-.1v-3H1.5v27.8h21.7v-7.1c.4-.1.8-.2 1.2-.4l.4-.2v9c0 .1-.1.2-.2.2H.4c-.2 0-.3-.1-.4-.3V2.9c0-.2.1-.3.3-.4h24zm-7.5 24.2c.4 0 .8.3.8.8 0 .4-.3.7-.7.8H6.2c-.4 0-.8-.3-.8-.8 0-.4.3-.7.7-.8h10.7zm4.4-18.3c1.9 0 3.9.7 5.3 2.2 2.6 2.6 2.9 6.5 1 9.4l-.2.2 2.1 2.1-1.9 1.9-2.1-2.1c-1.3.9-2.8 1.4-4.3 1.4-1.9 0-3.9-.7-5.3-2.2-3-3-3-7.7 0-10.7 1.6-1.4 3.5-2.2 5.4-2.2zM14.3 22c.5.6 1.1 1.1 1.7 1.5H6.2c-.4 0-.8-.3-.8-.8s.4-.7.8-.7h8.1zm6.9-11.9c-1.6 0-3.1.6-4.2 1.7s-1.7 2.6-1.7 4.2.6 3.1 1.7 4.2c.2.2.3.3.5.4l.3.2.8.5c.8.4 1.7.6 2.6.6.8 0 1.6-.2 2.3-.5l.3-.1.8-.5c.3-.2.5-.4.8-.6 1.1-1.1 1.7-2.6 1.7-4.2s-.6-3.1-1.7-4.2-2.6-1.7-4.2-1.7zm2.1 2c.6.3 1.1.8 1.5 1.4v5c-.4.6-.9 1-1.5 1.4v-7.8zm-5 5.1c.4 0 .8.3.8.8s-.3.8-.8.8h-.5c-.4-.4-.7-1-.8-1.5h1.3zm-6.2 0c.1.4.1.8.2 1.2l.1.4H6.2c-.4 0-.8-.3-.8-.8 0-.4.3-.7.7-.8h6zm6.4-4.7c.3.1.6.4.6.7 0 .4-.3.7-.7.8h-1.1c.3-.5.7-1.1 1.2-1.5zm-5.8 0c-.2.4-.3.8-.4 1.1v.4h-6c-.4 0-.8-.3-.8-.8 0-.4.3-.7.7-.8h6.5zm-1.3-4.7c.4 0 .8.3.8.8 0 .4-.3.7-.7.8H6.2c-.4-.1-.7-.4-.7-.9 0-.4.3-.7.7-.8h5.2z" fill-rule="evenodd" clip-rule="evenodd"/></svg><svg viewBox="0 0 30 35" id="doc-share" xmlns="http://www.w3.org/2000/svg"><path d="M16.7 5.8c.5 0 .9.4.9.9s-.4.9-.9.9h-14v21.2H25V15.4c0-.5.4-.9.9-.9s.9.4.9.9v15.1H.9V5.8h15.8zm4.5-1.5l7.8.1-.1 7.5h-2.2l.1-4-.1.1c-2.3 1.9-6.4 5.6-8.5 9.1L16.3 16c2.1-3.5 5.7-7 8.4-9.2l.2-.1-3.6-.1-.1-2.3z" fill-rule="evenodd" clip-rule="evenodd"/></svg><svg viewBox="0 0 30 35" id="lamp" xmlns="http://www.w3.org/2000/svg"><path d="M12.7 10.9l-1.7-.2c.4-2.8 2.1-4.9 4.9-5.4l.3 1.7c-2.7.5-3.4 2.7-3.5 3.9zm5.1 23c-.3.3-.7.5-1.1.5h-1.5c-.4 0-.8-.2-1.1-.5l-2-2.3h7.7l-2 2.3zm2.4-4.5c0 .4-.3.7-.7.7h-7c-.4 0-.7-.3-.7-.7 0-.4.3-.7.7-.7h7c.3 0 .7.3.7.7zm0-2.8c0 .4-.3.7-.7.7h-7c-.4 0-.7-.3-.7-.7 0-.4.3-.7.7-.7h7c.3 0 .7.3.7.7zm5.6-16.5c0 5.8-5.3 9.8-5.3 14.4h-2.8c0-2.9 1.4-5.4 2.8-7.7 1.3-2.2 2.5-4.3 2.5-6.7 0-4.4-3.5-6.6-7-6.6s-7 2.3-7 6.6c0 2.3 1.2 4.4 2.5 6.7 1.4 2.4 2.8 4.8 2.8 7.7h-2.8c0-4.6-5.3-8.6-5.3-14.4C6.2 4 11.1.6 16 .6c4.9.1 9.8 3.4 9.8 9.5z" fill-rule="evenodd" clip-rule="evenodd"/></svg><svg viewBox="0 0 30 35" id="pen-ruler" xmlns="http://www.w3.org/2000/svg"><path d="M1.8 10.8l4.4-5.2L8 7.2 6.8 8.6l.9.7 1.2-1.4 2 1.7-.8.9.9.7.8-.9 2 1.7-1.2 1.4.9.7 1.2-1.4 2 1.7-.7 1.2.9.7.8-.9 2 1.7-1.2 1.4.9.7 1.2-1.4 2 1.7-.8.9.9.7.8-.9 2 1.7-1.2 1.4.9.7 1.2-1.4 1.8 1.5-4.4 5.2-22-18.5zm10.7 11.1s-.2-.4-.5-.8l.7.6-.2.2zM27.6 6.1h.1s.1 0 .2.1.1.2 0 .3l-8.7 8.8-1.5-1.3 9.9-7.9zM6.1 4l10.4 8.9 10.1-8.1c.4-.3.8-.4 1.2-.4.5 0 .9.2 1.3.6.6.7.6 1.8 0 2.5l-8.6 8.7 9.5 8.1-5.9 6.9-10-8.5-.6.6C11.9 24 9.8 25 9.8 25l-2.7-3s1.2-2 2-3.3h.1L.2 11l5.9-7zm.6 19.1l1.9 2.2-2.4 4s-2.8.6-4.6 1.6l-.4-.5 2.2-2c.2-.2.4-.3.7-.3.1 0 .3-.1.4-.2.3-.2.3-.7.1-.9-.2-.3-.7-.3-.9-.1-.1.1-.2.2-.2.4 0 .3-.2.5-.4.7L.9 30l-.4-.5c1.2-1.7 2.1-4.4 2.1-4.4l4.1-2z" fill-rule="evenodd" clip-rule="evenodd"/></svg><svg viewBox="0 0 30 35" id="person-magnify" xmlns="http://www.w3.org/2000/svg"><path d="M10 26c-.1-1.5-.2-3.6-.2-4s0-.7.1-.8c0 0 .2-.1.5-.2h.1c1.5-.3 3-.7 3.6-1.9.2-.5.4-1.2-.2-2.2-.9-1.8-1.2-3.4-.7-4.2.3-.5.9-.7 1.4-.7.4 0 1 .1 1.4.7.5.8.2 2.4-.7 4.2-.5 1-.4 1.8-.2 2.2.6 1.3 2.1 1.6 3.6 1.9h.1c.3.1.4.1.5.2 0 .1.1.4.1.8 0 .3-.2 2.4-.2 4-1.4.7-2.8 1-4.4 1-1.9 0-3.4-.4-4.8-1zm-5.7-9.1c0-2.7 1.1-5.2 3-7.1 1.9-1.9 4.4-3 7.1-3s5.2 1.1 7.1 3c1.9 1.9 3 4.4 3 7.1s-1.1 5.2-3 7.1c-.4.4-.8.8-1.3 1.1.1-1.5.2-3.1.2-3.1 0-1.3-.1-2-1.6-2.3-1.7-.4-3.3-.7-2.6-2.2 2.4-4.5.6-6.9-1.9-6.9s-4.2 2.4-1.9 6.9c.8 1.5-.8 1.8-2.6 2.2-1.5.3-1.6 1.1-1.6 2.3 0 0 .1 1.6.2 3.1-.5-.3-.9-.7-1.3-1.1-1.7-1.9-2.8-4.4-2.8-7.1zm22.9 9.9l-3.3-3.3c3.2-4.5 2.7-10.8-1.3-14.8-2.3-2.3-5.2-3.4-8.2-3.4S8.5 6.4 6.2 8.7c-4.5 4.5-4.5 11.9 0 16.4 2.3 2.3 5.2 3.4 8.2 3.4 2.3 0 4.6-.7 6.6-2.1l3.3 3.3 2.9-2.9z" fill-rule="evenodd" clip-rule="evenodd"/></svg><svg viewBox="0 0 30 35" id="persons-ok" xmlns="http://www.w3.org/2000/svg"><path d="M20.4 18c.3 0 .7.1.9.4.3.5.3 1.7-.7 3.5 0 .1-.1.1-.1.2l-.5-.5c-.5-.5-.8-.8-.8-2.4.1-.8.5-1.2 1.2-1.2M17.6 2.8l-.9 1.5H4v27.5h21.5V13.6c.5-.2 1-.4 1.5-.7v20.2c0 .1-.1.2-.2.2h-24c-.2 0-.4-.2-.4-.4V3.2c0-.2.2-.4.4-.4h14.8zm2.8 13.5c2.3 0 4 2.2 1.8 6.4-.6 1.2.4 1.6 1.8 1.9v1.9c-.7-.2-1.3-.3-1.9-.6 0 .3.1.7.1 1 0 .1 0 .1-.1 2.7v.7h-1.7c.1-1.7.2-3.3.2-3.3-.2-5.3-2.8-3-2.8-7.7-.2-2 1.1-3 2.6-3zM11 12.5c3.1 0 5.3 3 2.3 8.6-1 1.8 1 2.3 3.2 2.8 1.9.4 2 1.3 2 2.9 0 .1-.1 1.6-.2 3.2v.2h-1.7V30c.1-1.5.2-3 .2-3.3 0-.5 0-.9-.1-1 0 0-.2-.1-.5-.2H16c-1.8-.4-3.7-.9-4.5-2.4-.3-.6-.5-1.6.2-2.8 1.2-2.2 1.5-4.2.9-5.2-.4-.7-1.2-.8-1.7-.8-.6 0-1.3.1-1.7.8-.6 1.1-.3 3 .9 5.2.7 1.2.5 2.2.2 2.8-.7 1.6-2.6 2-4.4 2.4 0 0-.2 0-.4.1h-.1v-1.8c2.1-.5 4.2-.9 3.2-2.8-2.9-5.4-.8-8.5 2.4-8.5zM23.2 1.7c2.9 0 5.3 2.4 5.3 5.3s-2.4 5.3-5.3 5.3S18 9.9 18 7s2.3-5.3 5.2-5.3zm2.3 3.2l-2.7 2.8h-.1l-1.2-1.2h-.1l-.8.8v.1l2.1 2.1h.1l3.6-3.7v-.1l-.9-.8z" fill-rule="evenodd" clip-rule="evenodd"/></svg></defs></svg>